%FSLAX45Y45*%
G04 Gerber Fmt 4.5, Leading zero omitted, Abs format (unit mm)*
G04 Created by KiCad (PCBNEW (5.1.5)-3) date 2020-07-18 04:54:52*
%MOMM*%
%LPD*%
G04 APERTURE LIST*
%TA.AperFunction,Profile*%
%ADD10C,0.100000*%
%TD*%
%ADD11C,0.200000*%
%ADD12C,0.300000*%
G04 APERTURE END LIST*
D10*
X17964150Y-8159750D02*
X15773400Y-8159750D01*
X17964150Y-10991850D02*
X17964150Y-8159750D01*
X16116300Y-10991850D02*
X17964150Y-10991850D01*
X13360400Y-10991850D02*
X13360400Y-8159750D01*
X15773400Y-8159750D02*
X13360400Y-8159750D01*
X13360400Y-10991850D02*
X16116300Y-10991850D01*
D11*
X14828000Y-10152950D02*
X14858000Y-10182950D01*
X14858000Y-10152950D02*
X14828000Y-10182950D01*
X15352000Y-10506950D02*
X15382000Y-10536950D01*
X15382000Y-10506950D02*
X15352000Y-10536950D01*
X15517100Y-10062450D02*
X15547100Y-10092450D01*
X15547100Y-10062450D02*
X15517100Y-10092450D01*
X15517100Y-10176750D02*
X15547100Y-10206750D01*
X15547100Y-10176750D02*
X15517100Y-10206750D01*
X15612350Y-8881350D02*
X15642350Y-8911350D01*
X15642350Y-8881350D02*
X15612350Y-8911350D01*
X15853650Y-10214850D02*
X15883650Y-10244850D01*
X15883650Y-10214850D02*
X15853650Y-10244850D01*
X15904450Y-9154400D02*
X15934450Y-9184400D01*
X15934450Y-9154400D02*
X15904450Y-9184400D01*
X16164800Y-9002000D02*
X16194800Y-9032000D01*
X16194800Y-9002000D02*
X16164800Y-9032000D01*
X16209250Y-8843250D02*
X16239250Y-8873250D01*
X16239250Y-8843250D02*
X16209250Y-8873250D01*
X16217050Y-8914550D02*
X16247050Y-8944550D01*
X16247050Y-8914550D02*
X16217050Y-8944550D01*
X16272750Y-10329150D02*
X16302750Y-10359150D01*
X16302750Y-10329150D02*
X16272750Y-10359150D01*
X16583900Y-9046450D02*
X16613900Y-9076450D01*
X16613900Y-9046450D02*
X16583900Y-9076450D01*
X16622000Y-9471900D02*
X16652000Y-9501900D01*
X16652000Y-9471900D02*
X16622000Y-9501900D01*
X16653750Y-10265650D02*
X16683750Y-10295650D01*
X16683750Y-10265650D02*
X16653750Y-10295650D01*
X16660100Y-9078200D02*
X16690100Y-9108200D01*
X16690100Y-9078200D02*
X16660100Y-9108200D01*
X16660100Y-10068800D02*
X16690100Y-10098800D01*
X16690100Y-10068800D02*
X16660100Y-10098800D01*
X16666450Y-10164050D02*
X16696450Y-10194050D01*
X16696450Y-10164050D02*
X16666450Y-10194050D01*
X16666450Y-10392650D02*
X16696450Y-10422650D01*
X16696450Y-10392650D02*
X16666450Y-10422650D01*
X16717250Y-9154400D02*
X16747250Y-9184400D01*
X16747250Y-9154400D02*
X16717250Y-9184400D01*
X16793450Y-10392650D02*
X16823450Y-10422650D01*
X16823450Y-10392650D02*
X16793450Y-10422650D01*
X16799800Y-10227550D02*
X16829800Y-10257550D01*
X16829800Y-10227550D02*
X16799800Y-10257550D01*
X16991500Y-9775500D02*
X17021500Y-9805500D01*
X17021500Y-9775500D02*
X16991500Y-9805500D01*
X17244300Y-10710150D02*
X17274300Y-10740150D01*
X17274300Y-10710150D02*
X17244300Y-10740150D01*
X17352250Y-8932150D02*
X17382250Y-8962150D01*
X17382250Y-8932150D02*
X17352250Y-8962150D01*
X17358600Y-10570450D02*
X17388600Y-10600450D01*
X17388600Y-10570450D02*
X17358600Y-10600450D01*
X17618950Y-10075150D02*
X17648950Y-10105150D01*
X17648950Y-10075150D02*
X17618950Y-10105150D01*
X17676100Y-10075150D02*
X17706100Y-10105150D01*
X17706100Y-10075150D02*
X17676100Y-10105150D01*
X17733250Y-10075150D02*
X17763250Y-10105150D01*
X17763250Y-10075150D02*
X17733250Y-10105150D01*
X17790400Y-10075150D02*
X17820400Y-10105150D01*
X17820400Y-10075150D02*
X17790400Y-10105150D01*
X17834850Y-10259300D02*
X17864850Y-10289300D01*
X17864850Y-10259300D02*
X17834850Y-10289300D01*
X17847550Y-10075150D02*
X17877550Y-10105150D01*
X17877550Y-10075150D02*
X17847550Y-10105150D01*
X13939200Y-9512300D02*
G75*
G03X13939200Y-9512300I-20000J0D01*
G01*
X14433600Y-9564000D02*
G75*
G03X14433600Y-9564000I-20000J0D01*
G01*
X15297200Y-8502650D02*
G75*
G03X15297200Y-8502650I-20000J0D01*
G01*
X15502200Y-9784450D02*
G75*
G03X15502200Y-9784450I-20000J0D01*
G01*
X15514000Y-8597900D02*
G75*
G03X15514000Y-8597900I-20000J0D01*
G01*
X15514000Y-9188450D02*
G75*
G03X15514000Y-9188450I-20000J0D01*
G01*
X15558450Y-9486900D02*
G75*
G03X15558450Y-9486900I-20000J0D01*
G01*
X16688750Y-9950450D02*
G75*
G03X16688750Y-9950450I-20000J0D01*
G01*
X16764950Y-9378950D02*
G75*
G03X16764950Y-9378950I-20000J0D01*
G01*
X16764950Y-10826750D02*
G75*
G03X16764950Y-10826750I-20000J0D01*
G01*
X17025300Y-10007600D02*
G75*
G03X17025300Y-10007600I-20000J0D01*
G01*
X17107850Y-8712200D02*
G75*
G03X17107850Y-8712200I-20000J0D01*
G01*
X17279300Y-9613900D02*
G75*
G03X17279300Y-9613900I-20000J0D01*
G01*
X17279300Y-9817100D02*
G75*
G03X17279300Y-9817100I-20000J0D01*
G01*
X17431700Y-10109200D02*
G75*
G03X17431700Y-10109200I-20000J0D01*
G01*
X17482500Y-9613900D02*
G75*
G03X17482500Y-9613900I-20000J0D01*
G01*
X17482500Y-9817100D02*
G75*
G03X17482500Y-9817100I-20000J0D01*
G01*
X17812700Y-9124950D02*
G75*
G03X17812700Y-9124950I-20000J0D01*
G01*
X17813600Y-9714600D02*
G75*
G03X17813600Y-9714600I-20000J0D01*
G01*
X13671500Y-9000400D02*
X13671500Y-9089400D01*
X13627000Y-9044900D02*
X13716000Y-9044900D01*
X13671500Y-10011400D02*
X13671500Y-10100400D01*
X13627000Y-10055900D02*
X13716000Y-10055900D01*
X13823500Y-8746400D02*
X13823500Y-8835400D01*
X13779000Y-8790900D02*
X13868000Y-8790900D01*
X13823500Y-9757400D02*
X13823500Y-9846400D01*
X13779000Y-9801900D02*
X13868000Y-9801900D01*
X14827320Y-9137720D02*
X14827320Y-9074080D01*
X14763680Y-9074080D01*
X14763680Y-9137720D01*
X14827320Y-9137720D01*
X14827320Y-9391720D02*
X14827320Y-9328080D01*
X14763680Y-9328080D01*
X14763680Y-9391720D01*
X14827320Y-9391720D01*
X14827320Y-9645720D02*
X14827320Y-9582080D01*
X14763680Y-9582080D01*
X14763680Y-9645720D01*
X14827320Y-9645720D01*
X14827320Y-9899720D02*
X14827320Y-9836080D01*
X14763680Y-9836080D01*
X14763680Y-9899720D01*
X14827320Y-9899720D01*
X15081320Y-9010720D02*
X15081320Y-8947080D01*
X15017680Y-8947080D01*
X15017680Y-9010720D01*
X15081320Y-9010720D01*
X15081320Y-9264720D02*
X15081320Y-9201080D01*
X15017680Y-9201080D01*
X15017680Y-9264720D01*
X15081320Y-9264720D01*
X15081320Y-9518720D02*
X15081320Y-9455080D01*
X15017680Y-9455080D01*
X15017680Y-9518720D01*
X15081320Y-9518720D01*
X15081320Y-9772720D02*
X15081320Y-9709080D01*
X15017680Y-9709080D01*
X15017680Y-9772720D01*
X15081320Y-9772720D01*
X15240000Y-8324050D02*
X15290000Y-8274050D01*
X15240000Y-8224050D01*
X15190000Y-8274050D01*
X15240000Y-8324050D01*
X15494000Y-8324050D02*
X15544000Y-8274050D01*
X15494000Y-8224050D01*
X15444000Y-8274050D01*
X15494000Y-8324050D01*
X13716000Y-8324050D02*
X13766000Y-8274050D01*
X13716000Y-8224050D01*
X13666000Y-8274050D01*
X13716000Y-8324050D01*
X13970000Y-8324050D02*
X14020000Y-8274050D01*
X13970000Y-8224050D01*
X13920000Y-8274050D01*
X13970000Y-8324050D01*
X13716000Y-10622750D02*
X13766000Y-10572750D01*
X13716000Y-10522750D01*
X13666000Y-10572750D01*
X13716000Y-10622750D01*
X13716000Y-10876750D02*
X13766000Y-10826750D01*
X13716000Y-10776750D01*
X13666000Y-10826750D01*
X13716000Y-10876750D01*
X13970000Y-10622750D02*
X14020000Y-10572750D01*
X13970000Y-10522750D01*
X13920000Y-10572750D01*
X13970000Y-10622750D01*
X13970000Y-10876750D02*
X14020000Y-10826750D01*
X13970000Y-10776750D01*
X13920000Y-10826750D01*
X13970000Y-10876750D01*
X14224000Y-10622750D02*
X14274000Y-10572750D01*
X14224000Y-10522750D01*
X14174000Y-10572750D01*
X14224000Y-10622750D01*
X14224000Y-10876750D02*
X14274000Y-10826750D01*
X14224000Y-10776750D01*
X14174000Y-10826750D01*
X14224000Y-10876750D01*
X14478000Y-10622750D02*
X14528000Y-10572750D01*
X14478000Y-10522750D01*
X14428000Y-10572750D01*
X14478000Y-10622750D01*
X14478000Y-10876750D02*
X14528000Y-10826750D01*
X14478000Y-10776750D01*
X14428000Y-10826750D01*
X14478000Y-10876750D01*
X14732000Y-10622750D02*
X14782000Y-10572750D01*
X14732000Y-10522750D01*
X14682000Y-10572750D01*
X14732000Y-10622750D01*
X14732000Y-10876750D02*
X14782000Y-10826750D01*
X14732000Y-10776750D01*
X14682000Y-10826750D01*
X14732000Y-10876750D01*
X14986000Y-10622750D02*
X15036000Y-10572750D01*
X14986000Y-10522750D01*
X14936000Y-10572750D01*
X14986000Y-10622750D01*
X14986000Y-10876750D02*
X15036000Y-10826750D01*
X14986000Y-10776750D01*
X14936000Y-10826750D01*
X14986000Y-10876750D01*
X15240000Y-10622750D02*
X15290000Y-10572750D01*
X15240000Y-10522750D01*
X15190000Y-10572750D01*
X15240000Y-10622750D01*
X15240000Y-10876750D02*
X15290000Y-10826750D01*
X15240000Y-10776750D01*
X15190000Y-10826750D01*
X15240000Y-10876750D01*
X15494000Y-10622750D02*
X15544000Y-10572750D01*
X15494000Y-10522750D01*
X15444000Y-10572750D01*
X15494000Y-10622750D01*
X15494000Y-10876750D02*
X15544000Y-10826750D01*
X15494000Y-10776750D01*
X15444000Y-10826750D01*
X15494000Y-10876750D01*
X15748000Y-10622750D02*
X15798000Y-10572750D01*
X15748000Y-10522750D01*
X15698000Y-10572750D01*
X15748000Y-10622750D01*
X15748000Y-10876750D02*
X15798000Y-10826750D01*
X15748000Y-10776750D01*
X15698000Y-10826750D01*
X15748000Y-10876750D01*
X16002000Y-10622750D02*
X16052000Y-10572750D01*
X16002000Y-10522750D01*
X15952000Y-10572750D01*
X16002000Y-10622750D01*
X16002000Y-10876750D02*
X16052000Y-10826750D01*
X16002000Y-10776750D01*
X15952000Y-10826750D01*
X16002000Y-10876750D01*
X14386500Y-8565900D02*
X14546500Y-8725900D01*
X14546500Y-8565900D02*
X14386500Y-8725900D01*
X14546500Y-8645900D02*
G75*
G03X14546500Y-8645900I-80000J0D01*
G01*
X14386500Y-10120900D02*
X14546500Y-10280900D01*
X14546500Y-10120900D02*
X14386500Y-10280900D01*
X14546500Y-10200900D02*
G75*
G03X14546500Y-10200900I-80000J0D01*
G01*
X15849650Y-9328200D02*
X16649650Y-10128200D01*
X16649650Y-9328200D02*
X15849650Y-10128200D01*
X16249650Y-9328200D02*
X16249650Y-10128200D01*
X15849650Y-9728200D02*
X16649650Y-9728200D01*
D12*
X13641828Y-11462564D02*
X13641828Y-11162564D01*
X13713257Y-11162564D01*
X13756114Y-11176850D01*
X13784686Y-11205421D01*
X13798971Y-11233993D01*
X13813257Y-11291136D01*
X13813257Y-11333993D01*
X13798971Y-11391136D01*
X13784686Y-11419707D01*
X13756114Y-11448279D01*
X13713257Y-11462564D01*
X13641828Y-11462564D01*
X13941828Y-11462564D02*
X13941828Y-11262564D01*
X13941828Y-11319707D02*
X13956114Y-11291136D01*
X13970400Y-11276850D01*
X13998971Y-11262564D01*
X14027543Y-11262564D01*
X14127543Y-11462564D02*
X14127543Y-11262564D01*
X14127543Y-11162564D02*
X14113257Y-11176850D01*
X14127543Y-11191136D01*
X14141828Y-11176850D01*
X14127543Y-11162564D01*
X14127543Y-11191136D01*
X14313257Y-11462564D02*
X14284686Y-11448279D01*
X14270400Y-11419707D01*
X14270400Y-11162564D01*
X14470400Y-11462564D02*
X14441828Y-11448279D01*
X14427543Y-11419707D01*
X14427543Y-11162564D01*
X14813257Y-11462564D02*
X14813257Y-11162564D01*
X14913257Y-11376850D01*
X15013257Y-11162564D01*
X15013257Y-11462564D01*
X15284686Y-11462564D02*
X15284686Y-11305421D01*
X15270400Y-11276850D01*
X15241828Y-11262564D01*
X15184686Y-11262564D01*
X15156114Y-11276850D01*
X15284686Y-11448279D02*
X15256114Y-11462564D01*
X15184686Y-11462564D01*
X15156114Y-11448279D01*
X15141828Y-11419707D01*
X15141828Y-11391136D01*
X15156114Y-11362564D01*
X15184686Y-11348279D01*
X15256114Y-11348279D01*
X15284686Y-11333993D01*
X15427543Y-11262564D02*
X15427543Y-11562564D01*
X15427543Y-11276850D02*
X15456114Y-11262564D01*
X15513257Y-11262564D01*
X15541828Y-11276850D01*
X15556114Y-11291136D01*
X15570400Y-11319707D01*
X15570400Y-11405421D01*
X15556114Y-11433993D01*
X15541828Y-11448279D01*
X15513257Y-11462564D01*
X15456114Y-11462564D01*
X15427543Y-11448279D01*
X15698971Y-11433993D02*
X15713257Y-11448279D01*
X15698971Y-11462564D01*
X15684686Y-11448279D01*
X15698971Y-11433993D01*
X15698971Y-11462564D01*
X15698971Y-11276850D02*
X15713257Y-11291136D01*
X15698971Y-11305421D01*
X15684686Y-11291136D01*
X15698971Y-11276850D01*
X15698971Y-11305421D01*
X13325400Y-11941850D02*
X13355400Y-11971850D01*
X13355400Y-11941850D02*
X13325400Y-11971850D01*
X13698971Y-11792564D02*
X13727543Y-11792564D01*
X13756114Y-11806850D01*
X13770400Y-11821136D01*
X13784686Y-11849707D01*
X13798971Y-11906850D01*
X13798971Y-11978279D01*
X13784686Y-12035421D01*
X13770400Y-12063993D01*
X13756114Y-12078279D01*
X13727543Y-12092564D01*
X13698971Y-12092564D01*
X13670400Y-12078279D01*
X13656114Y-12063993D01*
X13641828Y-12035421D01*
X13627543Y-11978279D01*
X13627543Y-11906850D01*
X13641828Y-11849707D01*
X13656114Y-11821136D01*
X13670400Y-11806850D01*
X13698971Y-11792564D01*
X13927543Y-12063993D02*
X13941828Y-12078279D01*
X13927543Y-12092564D01*
X13913257Y-12078279D01*
X13927543Y-12063993D01*
X13927543Y-12092564D01*
X14041828Y-11792564D02*
X14227543Y-11792564D01*
X14127543Y-11906850D01*
X14170400Y-11906850D01*
X14198971Y-11921136D01*
X14213257Y-11935421D01*
X14227543Y-11963993D01*
X14227543Y-12035421D01*
X14213257Y-12063993D01*
X14198971Y-12078279D01*
X14170400Y-12092564D01*
X14084686Y-12092564D01*
X14056114Y-12078279D01*
X14041828Y-12063993D01*
X14413257Y-11792564D02*
X14441828Y-11792564D01*
X14470400Y-11806850D01*
X14484686Y-11821136D01*
X14498971Y-11849707D01*
X14513257Y-11906850D01*
X14513257Y-11978279D01*
X14498971Y-12035421D01*
X14484686Y-12063993D01*
X14470400Y-12078279D01*
X14441828Y-12092564D01*
X14413257Y-12092564D01*
X14384686Y-12078279D01*
X14370400Y-12063993D01*
X14356114Y-12035421D01*
X14341828Y-11978279D01*
X14341828Y-11906850D01*
X14356114Y-11849707D01*
X14370400Y-11821136D01*
X14384686Y-11806850D01*
X14413257Y-11792564D01*
X14641828Y-12092564D02*
X14641828Y-11892564D01*
X14641828Y-11921136D02*
X14656114Y-11906850D01*
X14684686Y-11892564D01*
X14727543Y-11892564D01*
X14756114Y-11906850D01*
X14770400Y-11935421D01*
X14770400Y-12092564D01*
X14770400Y-11935421D02*
X14784686Y-11906850D01*
X14813257Y-11892564D01*
X14856114Y-11892564D01*
X14884686Y-11906850D01*
X14898971Y-11935421D01*
X14898971Y-12092564D01*
X15041828Y-12092564D02*
X15041828Y-11892564D01*
X15041828Y-11921136D02*
X15056114Y-11906850D01*
X15084686Y-11892564D01*
X15127543Y-11892564D01*
X15156114Y-11906850D01*
X15170400Y-11935421D01*
X15170400Y-12092564D01*
X15170400Y-11935421D02*
X15184686Y-11906850D01*
X15213257Y-11892564D01*
X15256114Y-11892564D01*
X15284686Y-11906850D01*
X15298971Y-11935421D01*
X15298971Y-12092564D01*
X15884686Y-11778279D02*
X15627543Y-12163993D01*
X16270400Y-11792564D02*
X16298971Y-11792564D01*
X16327543Y-11806850D01*
X16341828Y-11821136D01*
X16356114Y-11849707D01*
X16370400Y-11906850D01*
X16370400Y-11978279D01*
X16356114Y-12035421D01*
X16341828Y-12063993D01*
X16327543Y-12078279D01*
X16298971Y-12092564D01*
X16270400Y-12092564D01*
X16241828Y-12078279D01*
X16227543Y-12063993D01*
X16213257Y-12035421D01*
X16198971Y-11978279D01*
X16198971Y-11906850D01*
X16213257Y-11849707D01*
X16227543Y-11821136D01*
X16241828Y-11806850D01*
X16270400Y-11792564D01*
X16498971Y-12063993D02*
X16513257Y-12078279D01*
X16498971Y-12092564D01*
X16484686Y-12078279D01*
X16498971Y-12063993D01*
X16498971Y-12092564D01*
X16698971Y-11792564D02*
X16727543Y-11792564D01*
X16756114Y-11806850D01*
X16770400Y-11821136D01*
X16784686Y-11849707D01*
X16798971Y-11906850D01*
X16798971Y-11978279D01*
X16784686Y-12035421D01*
X16770400Y-12063993D01*
X16756114Y-12078279D01*
X16727543Y-12092564D01*
X16698971Y-12092564D01*
X16670400Y-12078279D01*
X16656114Y-12063993D01*
X16641828Y-12035421D01*
X16627543Y-11978279D01*
X16627543Y-11906850D01*
X16641828Y-11849707D01*
X16656114Y-11821136D01*
X16670400Y-11806850D01*
X16698971Y-11792564D01*
X17084686Y-12092564D02*
X16913257Y-12092564D01*
X16998971Y-12092564D02*
X16998971Y-11792564D01*
X16970400Y-11835421D01*
X16941828Y-11863993D01*
X16913257Y-11878279D01*
X17198971Y-11821136D02*
X17213257Y-11806850D01*
X17241828Y-11792564D01*
X17313257Y-11792564D01*
X17341828Y-11806850D01*
X17356114Y-11821136D01*
X17370400Y-11849707D01*
X17370400Y-11878279D01*
X17356114Y-11921136D01*
X17184686Y-12092564D01*
X17370400Y-12092564D01*
X17484686Y-11792564D02*
X17484686Y-11849707D01*
X17598971Y-11792564D02*
X17598971Y-11849707D01*
X18041828Y-12206850D02*
X18027543Y-12192564D01*
X17998971Y-12149707D01*
X17984686Y-12121136D01*
X17970400Y-12078279D01*
X17956114Y-12006850D01*
X17956114Y-11949707D01*
X17970400Y-11878279D01*
X17984686Y-11835421D01*
X17998971Y-11806850D01*
X18027543Y-11763993D01*
X18041828Y-11749707D01*
X18127543Y-11792564D02*
X18313257Y-11792564D01*
X18213257Y-11906850D01*
X18256114Y-11906850D01*
X18284686Y-11921136D01*
X18298971Y-11935421D01*
X18313257Y-11963993D01*
X18313257Y-12035421D01*
X18298971Y-12063993D01*
X18284686Y-12078279D01*
X18256114Y-12092564D01*
X18170400Y-12092564D01*
X18141828Y-12078279D01*
X18127543Y-12063993D01*
X18598971Y-12092564D02*
X18427543Y-12092564D01*
X18513257Y-12092564D02*
X18513257Y-11792564D01*
X18484686Y-11835421D01*
X18456114Y-11863993D01*
X18427543Y-11878279D01*
X18956114Y-12092564D02*
X18956114Y-11792564D01*
X19084686Y-12092564D02*
X19084686Y-11935421D01*
X19070400Y-11906850D01*
X19041828Y-11892564D01*
X18998971Y-11892564D01*
X18970400Y-11906850D01*
X18956114Y-11921136D01*
X19270400Y-12092564D02*
X19241828Y-12078279D01*
X19227543Y-12063993D01*
X19213257Y-12035421D01*
X19213257Y-11949707D01*
X19227543Y-11921136D01*
X19241828Y-11906850D01*
X19270400Y-11892564D01*
X19313257Y-11892564D01*
X19341828Y-11906850D01*
X19356114Y-11921136D01*
X19370400Y-11949707D01*
X19370400Y-12035421D01*
X19356114Y-12063993D01*
X19341828Y-12078279D01*
X19313257Y-12092564D01*
X19270400Y-12092564D01*
X19541828Y-12092564D02*
X19513257Y-12078279D01*
X19498971Y-12049707D01*
X19498971Y-11792564D01*
X19770400Y-12078279D02*
X19741828Y-12092564D01*
X19684686Y-12092564D01*
X19656114Y-12078279D01*
X19641828Y-12049707D01*
X19641828Y-11935421D01*
X19656114Y-11906850D01*
X19684686Y-11892564D01*
X19741828Y-11892564D01*
X19770400Y-11906850D01*
X19784686Y-11935421D01*
X19784686Y-11963993D01*
X19641828Y-11992564D01*
X19898971Y-12078279D02*
X19927543Y-12092564D01*
X19984686Y-12092564D01*
X20013257Y-12078279D01*
X20027543Y-12049707D01*
X20027543Y-12035421D01*
X20013257Y-12006850D01*
X19984686Y-11992564D01*
X19941828Y-11992564D01*
X19913257Y-11978279D01*
X19898971Y-11949707D01*
X19898971Y-11935421D01*
X19913257Y-11906850D01*
X19941828Y-11892564D01*
X19984686Y-11892564D01*
X20013257Y-11906850D01*
X20127543Y-12206850D02*
X20141828Y-12192564D01*
X20170400Y-12149707D01*
X20184686Y-12121136D01*
X20198971Y-12078279D01*
X20213257Y-12006850D01*
X20213257Y-11949707D01*
X20198971Y-11878279D01*
X20184686Y-11835421D01*
X20170400Y-11806850D01*
X20141828Y-11763993D01*
X20127543Y-11749707D01*
X13355400Y-12352850D02*
G75*
G03X13355400Y-12352850I-20000J0D01*
G01*
X13698971Y-12188564D02*
X13727543Y-12188564D01*
X13756114Y-12202850D01*
X13770400Y-12217136D01*
X13784686Y-12245707D01*
X13798971Y-12302850D01*
X13798971Y-12374279D01*
X13784686Y-12431421D01*
X13770400Y-12459993D01*
X13756114Y-12474279D01*
X13727543Y-12488564D01*
X13698971Y-12488564D01*
X13670400Y-12474279D01*
X13656114Y-12459993D01*
X13641828Y-12431421D01*
X13627543Y-12374279D01*
X13627543Y-12302850D01*
X13641828Y-12245707D01*
X13656114Y-12217136D01*
X13670400Y-12202850D01*
X13698971Y-12188564D01*
X13927543Y-12459993D02*
X13941828Y-12474279D01*
X13927543Y-12488564D01*
X13913257Y-12474279D01*
X13927543Y-12459993D01*
X13927543Y-12488564D01*
X14198971Y-12288564D02*
X14198971Y-12488564D01*
X14127543Y-12174279D02*
X14056114Y-12388564D01*
X14241828Y-12388564D01*
X14413257Y-12188564D02*
X14441828Y-12188564D01*
X14470400Y-12202850D01*
X14484686Y-12217136D01*
X14498971Y-12245707D01*
X14513257Y-12302850D01*
X14513257Y-12374279D01*
X14498971Y-12431421D01*
X14484686Y-12459993D01*
X14470400Y-12474279D01*
X14441828Y-12488564D01*
X14413257Y-12488564D01*
X14384686Y-12474279D01*
X14370400Y-12459993D01*
X14356114Y-12431421D01*
X14341828Y-12374279D01*
X14341828Y-12302850D01*
X14356114Y-12245707D01*
X14370400Y-12217136D01*
X14384686Y-12202850D01*
X14413257Y-12188564D01*
X14641828Y-12488564D02*
X14641828Y-12288564D01*
X14641828Y-12317136D02*
X14656114Y-12302850D01*
X14684686Y-12288564D01*
X14727543Y-12288564D01*
X14756114Y-12302850D01*
X14770400Y-12331421D01*
X14770400Y-12488564D01*
X14770400Y-12331421D02*
X14784686Y-12302850D01*
X14813257Y-12288564D01*
X14856114Y-12288564D01*
X14884686Y-12302850D01*
X14898971Y-12331421D01*
X14898971Y-12488564D01*
X15041828Y-12488564D02*
X15041828Y-12288564D01*
X15041828Y-12317136D02*
X15056114Y-12302850D01*
X15084686Y-12288564D01*
X15127543Y-12288564D01*
X15156114Y-12302850D01*
X15170400Y-12331421D01*
X15170400Y-12488564D01*
X15170400Y-12331421D02*
X15184686Y-12302850D01*
X15213257Y-12288564D01*
X15256114Y-12288564D01*
X15284686Y-12302850D01*
X15298971Y-12331421D01*
X15298971Y-12488564D01*
X15884686Y-12174279D02*
X15627543Y-12559993D01*
X16270400Y-12188564D02*
X16298971Y-12188564D01*
X16327543Y-12202850D01*
X16341828Y-12217136D01*
X16356114Y-12245707D01*
X16370400Y-12302850D01*
X16370400Y-12374279D01*
X16356114Y-12431421D01*
X16341828Y-12459993D01*
X16327543Y-12474279D01*
X16298971Y-12488564D01*
X16270400Y-12488564D01*
X16241828Y-12474279D01*
X16227543Y-12459993D01*
X16213257Y-12431421D01*
X16198971Y-12374279D01*
X16198971Y-12302850D01*
X16213257Y-12245707D01*
X16227543Y-12217136D01*
X16241828Y-12202850D01*
X16270400Y-12188564D01*
X16498971Y-12459993D02*
X16513257Y-12474279D01*
X16498971Y-12488564D01*
X16484686Y-12474279D01*
X16498971Y-12459993D01*
X16498971Y-12488564D01*
X16698971Y-12188564D02*
X16727543Y-12188564D01*
X16756114Y-12202850D01*
X16770400Y-12217136D01*
X16784686Y-12245707D01*
X16798971Y-12302850D01*
X16798971Y-12374279D01*
X16784686Y-12431421D01*
X16770400Y-12459993D01*
X16756114Y-12474279D01*
X16727543Y-12488564D01*
X16698971Y-12488564D01*
X16670400Y-12474279D01*
X16656114Y-12459993D01*
X16641828Y-12431421D01*
X16627543Y-12374279D01*
X16627543Y-12302850D01*
X16641828Y-12245707D01*
X16656114Y-12217136D01*
X16670400Y-12202850D01*
X16698971Y-12188564D01*
X17084686Y-12488564D02*
X16913257Y-12488564D01*
X16998971Y-12488564D02*
X16998971Y-12188564D01*
X16970400Y-12231421D01*
X16941828Y-12259993D01*
X16913257Y-12274279D01*
X17341828Y-12188564D02*
X17284686Y-12188564D01*
X17256114Y-12202850D01*
X17241828Y-12217136D01*
X17213257Y-12259993D01*
X17198971Y-12317136D01*
X17198971Y-12431421D01*
X17213257Y-12459993D01*
X17227543Y-12474279D01*
X17256114Y-12488564D01*
X17313257Y-12488564D01*
X17341828Y-12474279D01*
X17356114Y-12459993D01*
X17370400Y-12431421D01*
X17370400Y-12359993D01*
X17356114Y-12331421D01*
X17341828Y-12317136D01*
X17313257Y-12302850D01*
X17256114Y-12302850D01*
X17227543Y-12317136D01*
X17213257Y-12331421D01*
X17198971Y-12359993D01*
X17484686Y-12188564D02*
X17484686Y-12245707D01*
X17598971Y-12188564D02*
X17598971Y-12245707D01*
X18041828Y-12602850D02*
X18027543Y-12588564D01*
X17998971Y-12545707D01*
X17984686Y-12517136D01*
X17970400Y-12474279D01*
X17956114Y-12402850D01*
X17956114Y-12345707D01*
X17970400Y-12274279D01*
X17984686Y-12231421D01*
X17998971Y-12202850D01*
X18027543Y-12159993D01*
X18041828Y-12145707D01*
X18313257Y-12488564D02*
X18141828Y-12488564D01*
X18227543Y-12488564D02*
X18227543Y-12188564D01*
X18198971Y-12231421D01*
X18170400Y-12259993D01*
X18141828Y-12274279D01*
X18456114Y-12488564D02*
X18513257Y-12488564D01*
X18541828Y-12474279D01*
X18556114Y-12459993D01*
X18584686Y-12417136D01*
X18598971Y-12359993D01*
X18598971Y-12245707D01*
X18584686Y-12217136D01*
X18570400Y-12202850D01*
X18541828Y-12188564D01*
X18484686Y-12188564D01*
X18456114Y-12202850D01*
X18441828Y-12217136D01*
X18427543Y-12245707D01*
X18427543Y-12317136D01*
X18441828Y-12345707D01*
X18456114Y-12359993D01*
X18484686Y-12374279D01*
X18541828Y-12374279D01*
X18570400Y-12359993D01*
X18584686Y-12345707D01*
X18598971Y-12317136D01*
X18956114Y-12488564D02*
X18956114Y-12188564D01*
X19084686Y-12488564D02*
X19084686Y-12331421D01*
X19070400Y-12302850D01*
X19041828Y-12288564D01*
X18998971Y-12288564D01*
X18970400Y-12302850D01*
X18956114Y-12317136D01*
X19270400Y-12488564D02*
X19241828Y-12474279D01*
X19227543Y-12459993D01*
X19213257Y-12431421D01*
X19213257Y-12345707D01*
X19227543Y-12317136D01*
X19241828Y-12302850D01*
X19270400Y-12288564D01*
X19313257Y-12288564D01*
X19341828Y-12302850D01*
X19356114Y-12317136D01*
X19370400Y-12345707D01*
X19370400Y-12431421D01*
X19356114Y-12459993D01*
X19341828Y-12474279D01*
X19313257Y-12488564D01*
X19270400Y-12488564D01*
X19541828Y-12488564D02*
X19513257Y-12474279D01*
X19498971Y-12445707D01*
X19498971Y-12188564D01*
X19770400Y-12474279D02*
X19741828Y-12488564D01*
X19684686Y-12488564D01*
X19656114Y-12474279D01*
X19641828Y-12445707D01*
X19641828Y-12331421D01*
X19656114Y-12302850D01*
X19684686Y-12288564D01*
X19741828Y-12288564D01*
X19770400Y-12302850D01*
X19784686Y-12331421D01*
X19784686Y-12359993D01*
X19641828Y-12388564D01*
X19898971Y-12474279D02*
X19927543Y-12488564D01*
X19984686Y-12488564D01*
X20013257Y-12474279D01*
X20027543Y-12445707D01*
X20027543Y-12431421D01*
X20013257Y-12402850D01*
X19984686Y-12388564D01*
X19941828Y-12388564D01*
X19913257Y-12374279D01*
X19898971Y-12345707D01*
X19898971Y-12331421D01*
X19913257Y-12302850D01*
X19941828Y-12288564D01*
X19984686Y-12288564D01*
X20013257Y-12302850D01*
X20127543Y-12602850D02*
X20141828Y-12588564D01*
X20170400Y-12545707D01*
X20184686Y-12517136D01*
X20198971Y-12474279D01*
X20213257Y-12402850D01*
X20213257Y-12345707D01*
X20198971Y-12274279D01*
X20184686Y-12231421D01*
X20170400Y-12202850D01*
X20141828Y-12159993D01*
X20127543Y-12145707D01*
X13310900Y-12704350D02*
X13310900Y-12793350D01*
X13266400Y-12748850D02*
X13355400Y-12748850D01*
X13698971Y-12584564D02*
X13727543Y-12584564D01*
X13756114Y-12598850D01*
X13770400Y-12613136D01*
X13784686Y-12641707D01*
X13798971Y-12698850D01*
X13798971Y-12770279D01*
X13784686Y-12827421D01*
X13770400Y-12855993D01*
X13756114Y-12870279D01*
X13727543Y-12884564D01*
X13698971Y-12884564D01*
X13670400Y-12870279D01*
X13656114Y-12855993D01*
X13641828Y-12827421D01*
X13627543Y-12770279D01*
X13627543Y-12698850D01*
X13641828Y-12641707D01*
X13656114Y-12613136D01*
X13670400Y-12598850D01*
X13698971Y-12584564D01*
X13927543Y-12855993D02*
X13941828Y-12870279D01*
X13927543Y-12884564D01*
X13913257Y-12870279D01*
X13927543Y-12855993D01*
X13927543Y-12884564D01*
X14113257Y-12713136D02*
X14084686Y-12698850D01*
X14070400Y-12684564D01*
X14056114Y-12655993D01*
X14056114Y-12641707D01*
X14070400Y-12613136D01*
X14084686Y-12598850D01*
X14113257Y-12584564D01*
X14170400Y-12584564D01*
X14198971Y-12598850D01*
X14213257Y-12613136D01*
X14227543Y-12641707D01*
X14227543Y-12655993D01*
X14213257Y-12684564D01*
X14198971Y-12698850D01*
X14170400Y-12713136D01*
X14113257Y-12713136D01*
X14084686Y-12727421D01*
X14070400Y-12741707D01*
X14056114Y-12770279D01*
X14056114Y-12827421D01*
X14070400Y-12855993D01*
X14084686Y-12870279D01*
X14113257Y-12884564D01*
X14170400Y-12884564D01*
X14198971Y-12870279D01*
X14213257Y-12855993D01*
X14227543Y-12827421D01*
X14227543Y-12770279D01*
X14213257Y-12741707D01*
X14198971Y-12727421D01*
X14170400Y-12713136D01*
X14370400Y-12884564D02*
X14427543Y-12884564D01*
X14456114Y-12870279D01*
X14470400Y-12855993D01*
X14498971Y-12813136D01*
X14513257Y-12755993D01*
X14513257Y-12641707D01*
X14498971Y-12613136D01*
X14484686Y-12598850D01*
X14456114Y-12584564D01*
X14398971Y-12584564D01*
X14370400Y-12598850D01*
X14356114Y-12613136D01*
X14341828Y-12641707D01*
X14341828Y-12713136D01*
X14356114Y-12741707D01*
X14370400Y-12755993D01*
X14398971Y-12770279D01*
X14456114Y-12770279D01*
X14484686Y-12755993D01*
X14498971Y-12741707D01*
X14513257Y-12713136D01*
X14641828Y-12884564D02*
X14641828Y-12684564D01*
X14641828Y-12713136D02*
X14656114Y-12698850D01*
X14684686Y-12684564D01*
X14727543Y-12684564D01*
X14756114Y-12698850D01*
X14770400Y-12727421D01*
X14770400Y-12884564D01*
X14770400Y-12727421D02*
X14784686Y-12698850D01*
X14813257Y-12684564D01*
X14856114Y-12684564D01*
X14884686Y-12698850D01*
X14898971Y-12727421D01*
X14898971Y-12884564D01*
X15041828Y-12884564D02*
X15041828Y-12684564D01*
X15041828Y-12713136D02*
X15056114Y-12698850D01*
X15084686Y-12684564D01*
X15127543Y-12684564D01*
X15156114Y-12698850D01*
X15170400Y-12727421D01*
X15170400Y-12884564D01*
X15170400Y-12727421D02*
X15184686Y-12698850D01*
X15213257Y-12684564D01*
X15256114Y-12684564D01*
X15284686Y-12698850D01*
X15298971Y-12727421D01*
X15298971Y-12884564D01*
X15884686Y-12570279D02*
X15627543Y-12955993D01*
X16270400Y-12584564D02*
X16298971Y-12584564D01*
X16327543Y-12598850D01*
X16341828Y-12613136D01*
X16356114Y-12641707D01*
X16370400Y-12698850D01*
X16370400Y-12770279D01*
X16356114Y-12827421D01*
X16341828Y-12855993D01*
X16327543Y-12870279D01*
X16298971Y-12884564D01*
X16270400Y-12884564D01*
X16241828Y-12870279D01*
X16227543Y-12855993D01*
X16213257Y-12827421D01*
X16198971Y-12770279D01*
X16198971Y-12698850D01*
X16213257Y-12641707D01*
X16227543Y-12613136D01*
X16241828Y-12598850D01*
X16270400Y-12584564D01*
X16498971Y-12855993D02*
X16513257Y-12870279D01*
X16498971Y-12884564D01*
X16484686Y-12870279D01*
X16498971Y-12855993D01*
X16498971Y-12884564D01*
X16698971Y-12584564D02*
X16727543Y-12584564D01*
X16756114Y-12598850D01*
X16770400Y-12613136D01*
X16784686Y-12641707D01*
X16798971Y-12698850D01*
X16798971Y-12770279D01*
X16784686Y-12827421D01*
X16770400Y-12855993D01*
X16756114Y-12870279D01*
X16727543Y-12884564D01*
X16698971Y-12884564D01*
X16670400Y-12870279D01*
X16656114Y-12855993D01*
X16641828Y-12827421D01*
X16627543Y-12770279D01*
X16627543Y-12698850D01*
X16641828Y-12641707D01*
X16656114Y-12613136D01*
X16670400Y-12598850D01*
X16698971Y-12584564D01*
X16898971Y-12584564D02*
X17084686Y-12584564D01*
X16984686Y-12698850D01*
X17027543Y-12698850D01*
X17056114Y-12713136D01*
X17070400Y-12727421D01*
X17084686Y-12755993D01*
X17084686Y-12827421D01*
X17070400Y-12855993D01*
X17056114Y-12870279D01*
X17027543Y-12884564D01*
X16941828Y-12884564D01*
X16913257Y-12870279D01*
X16898971Y-12855993D01*
X17356114Y-12584564D02*
X17213257Y-12584564D01*
X17198971Y-12727421D01*
X17213257Y-12713136D01*
X17241828Y-12698850D01*
X17313257Y-12698850D01*
X17341828Y-12713136D01*
X17356114Y-12727421D01*
X17370400Y-12755993D01*
X17370400Y-12827421D01*
X17356114Y-12855993D01*
X17341828Y-12870279D01*
X17313257Y-12884564D01*
X17241828Y-12884564D01*
X17213257Y-12870279D01*
X17198971Y-12855993D01*
X17484686Y-12584564D02*
X17484686Y-12641707D01*
X17598971Y-12584564D02*
X17598971Y-12641707D01*
X18041828Y-12998850D02*
X18027543Y-12984564D01*
X17998971Y-12941707D01*
X17984686Y-12913136D01*
X17970400Y-12870279D01*
X17956114Y-12798850D01*
X17956114Y-12741707D01*
X17970400Y-12670279D01*
X17984686Y-12627421D01*
X17998971Y-12598850D01*
X18027543Y-12555993D01*
X18041828Y-12541707D01*
X18284686Y-12684564D02*
X18284686Y-12884564D01*
X18213257Y-12570279D02*
X18141828Y-12784564D01*
X18327543Y-12784564D01*
X18670400Y-12884564D02*
X18670400Y-12584564D01*
X18798971Y-12884564D02*
X18798971Y-12727421D01*
X18784686Y-12698850D01*
X18756114Y-12684564D01*
X18713257Y-12684564D01*
X18684686Y-12698850D01*
X18670400Y-12713136D01*
X18984686Y-12884564D02*
X18956114Y-12870279D01*
X18941828Y-12855993D01*
X18927543Y-12827421D01*
X18927543Y-12741707D01*
X18941828Y-12713136D01*
X18956114Y-12698850D01*
X18984686Y-12684564D01*
X19027543Y-12684564D01*
X19056114Y-12698850D01*
X19070400Y-12713136D01*
X19084686Y-12741707D01*
X19084686Y-12827421D01*
X19070400Y-12855993D01*
X19056114Y-12870279D01*
X19027543Y-12884564D01*
X18984686Y-12884564D01*
X19256114Y-12884564D02*
X19227543Y-12870279D01*
X19213257Y-12841707D01*
X19213257Y-12584564D01*
X19484686Y-12870279D02*
X19456114Y-12884564D01*
X19398971Y-12884564D01*
X19370400Y-12870279D01*
X19356114Y-12841707D01*
X19356114Y-12727421D01*
X19370400Y-12698850D01*
X19398971Y-12684564D01*
X19456114Y-12684564D01*
X19484686Y-12698850D01*
X19498971Y-12727421D01*
X19498971Y-12755993D01*
X19356114Y-12784564D01*
X19613257Y-12870279D02*
X19641828Y-12884564D01*
X19698971Y-12884564D01*
X19727543Y-12870279D01*
X19741828Y-12841707D01*
X19741828Y-12827421D01*
X19727543Y-12798850D01*
X19698971Y-12784564D01*
X19656114Y-12784564D01*
X19627543Y-12770279D01*
X19613257Y-12741707D01*
X19613257Y-12727421D01*
X19627543Y-12698850D01*
X19656114Y-12684564D01*
X19698971Y-12684564D01*
X19727543Y-12698850D01*
X19841828Y-12998850D02*
X19856114Y-12984564D01*
X19884686Y-12941707D01*
X19898971Y-12913136D01*
X19913257Y-12870279D01*
X19927543Y-12798850D01*
X19927543Y-12741707D01*
X19913257Y-12670279D01*
X19898971Y-12627421D01*
X19884686Y-12598850D01*
X19856114Y-12555993D01*
X19841828Y-12541707D01*
X13342220Y-13176670D02*
X13342220Y-13113030D01*
X13278580Y-13113030D01*
X13278580Y-13176670D01*
X13342220Y-13176670D01*
X13698971Y-12980564D02*
X13727543Y-12980564D01*
X13756114Y-12994850D01*
X13770400Y-13009136D01*
X13784686Y-13037707D01*
X13798971Y-13094850D01*
X13798971Y-13166279D01*
X13784686Y-13223421D01*
X13770400Y-13251993D01*
X13756114Y-13266279D01*
X13727543Y-13280564D01*
X13698971Y-13280564D01*
X13670400Y-13266279D01*
X13656114Y-13251993D01*
X13641828Y-13223421D01*
X13627543Y-13166279D01*
X13627543Y-13094850D01*
X13641828Y-13037707D01*
X13656114Y-13009136D01*
X13670400Y-12994850D01*
X13698971Y-12980564D01*
X13927543Y-13251993D02*
X13941828Y-13266279D01*
X13927543Y-13280564D01*
X13913257Y-13266279D01*
X13927543Y-13251993D01*
X13927543Y-13280564D01*
X14084686Y-13280564D02*
X14141828Y-13280564D01*
X14170400Y-13266279D01*
X14184686Y-13251993D01*
X14213257Y-13209136D01*
X14227543Y-13151993D01*
X14227543Y-13037707D01*
X14213257Y-13009136D01*
X14198971Y-12994850D01*
X14170400Y-12980564D01*
X14113257Y-12980564D01*
X14084686Y-12994850D01*
X14070400Y-13009136D01*
X14056114Y-13037707D01*
X14056114Y-13109136D01*
X14070400Y-13137707D01*
X14084686Y-13151993D01*
X14113257Y-13166279D01*
X14170400Y-13166279D01*
X14198971Y-13151993D01*
X14213257Y-13137707D01*
X14227543Y-13109136D01*
X14413257Y-12980564D02*
X14441828Y-12980564D01*
X14470400Y-12994850D01*
X14484686Y-13009136D01*
X14498971Y-13037707D01*
X14513257Y-13094850D01*
X14513257Y-13166279D01*
X14498971Y-13223421D01*
X14484686Y-13251993D01*
X14470400Y-13266279D01*
X14441828Y-13280564D01*
X14413257Y-13280564D01*
X14384686Y-13266279D01*
X14370400Y-13251993D01*
X14356114Y-13223421D01*
X14341828Y-13166279D01*
X14341828Y-13094850D01*
X14356114Y-13037707D01*
X14370400Y-13009136D01*
X14384686Y-12994850D01*
X14413257Y-12980564D01*
X14641828Y-13280564D02*
X14641828Y-13080564D01*
X14641828Y-13109136D02*
X14656114Y-13094850D01*
X14684686Y-13080564D01*
X14727543Y-13080564D01*
X14756114Y-13094850D01*
X14770400Y-13123421D01*
X14770400Y-13280564D01*
X14770400Y-13123421D02*
X14784686Y-13094850D01*
X14813257Y-13080564D01*
X14856114Y-13080564D01*
X14884686Y-13094850D01*
X14898971Y-13123421D01*
X14898971Y-13280564D01*
X15041828Y-13280564D02*
X15041828Y-13080564D01*
X15041828Y-13109136D02*
X15056114Y-13094850D01*
X15084686Y-13080564D01*
X15127543Y-13080564D01*
X15156114Y-13094850D01*
X15170400Y-13123421D01*
X15170400Y-13280564D01*
X15170400Y-13123421D02*
X15184686Y-13094850D01*
X15213257Y-13080564D01*
X15256114Y-13080564D01*
X15284686Y-13094850D01*
X15298971Y-13123421D01*
X15298971Y-13280564D01*
X15884686Y-12966279D02*
X15627543Y-13351993D01*
X16270400Y-12980564D02*
X16298971Y-12980564D01*
X16327543Y-12994850D01*
X16341828Y-13009136D01*
X16356114Y-13037707D01*
X16370400Y-13094850D01*
X16370400Y-13166279D01*
X16356114Y-13223421D01*
X16341828Y-13251993D01*
X16327543Y-13266279D01*
X16298971Y-13280564D01*
X16270400Y-13280564D01*
X16241828Y-13266279D01*
X16227543Y-13251993D01*
X16213257Y-13223421D01*
X16198971Y-13166279D01*
X16198971Y-13094850D01*
X16213257Y-13037707D01*
X16227543Y-13009136D01*
X16241828Y-12994850D01*
X16270400Y-12980564D01*
X16498971Y-13251993D02*
X16513257Y-13266279D01*
X16498971Y-13280564D01*
X16484686Y-13266279D01*
X16498971Y-13251993D01*
X16498971Y-13280564D01*
X16698971Y-12980564D02*
X16727543Y-12980564D01*
X16756114Y-12994850D01*
X16770400Y-13009136D01*
X16784686Y-13037707D01*
X16798971Y-13094850D01*
X16798971Y-13166279D01*
X16784686Y-13223421D01*
X16770400Y-13251993D01*
X16756114Y-13266279D01*
X16727543Y-13280564D01*
X16698971Y-13280564D01*
X16670400Y-13266279D01*
X16656114Y-13251993D01*
X16641828Y-13223421D01*
X16627543Y-13166279D01*
X16627543Y-13094850D01*
X16641828Y-13037707D01*
X16656114Y-13009136D01*
X16670400Y-12994850D01*
X16698971Y-12980564D01*
X16898971Y-12980564D02*
X17084686Y-12980564D01*
X16984686Y-13094850D01*
X17027543Y-13094850D01*
X17056114Y-13109136D01*
X17070400Y-13123421D01*
X17084686Y-13151993D01*
X17084686Y-13223421D01*
X17070400Y-13251993D01*
X17056114Y-13266279D01*
X17027543Y-13280564D01*
X16941828Y-13280564D01*
X16913257Y-13266279D01*
X16898971Y-13251993D01*
X17356114Y-12980564D02*
X17213257Y-12980564D01*
X17198971Y-13123421D01*
X17213257Y-13109136D01*
X17241828Y-13094850D01*
X17313257Y-13094850D01*
X17341828Y-13109136D01*
X17356114Y-13123421D01*
X17370400Y-13151993D01*
X17370400Y-13223421D01*
X17356114Y-13251993D01*
X17341828Y-13266279D01*
X17313257Y-13280564D01*
X17241828Y-13280564D01*
X17213257Y-13266279D01*
X17198971Y-13251993D01*
X17484686Y-12980564D02*
X17484686Y-13037707D01*
X17598971Y-12980564D02*
X17598971Y-13037707D01*
X18041828Y-13394850D02*
X18027543Y-13380564D01*
X17998971Y-13337707D01*
X17984686Y-13309136D01*
X17970400Y-13266279D01*
X17956114Y-13194850D01*
X17956114Y-13137707D01*
X17970400Y-13066279D01*
X17984686Y-13023421D01*
X17998971Y-12994850D01*
X18027543Y-12951993D01*
X18041828Y-12937707D01*
X18198971Y-13109136D02*
X18170400Y-13094850D01*
X18156114Y-13080564D01*
X18141828Y-13051993D01*
X18141828Y-13037707D01*
X18156114Y-13009136D01*
X18170400Y-12994850D01*
X18198971Y-12980564D01*
X18256114Y-12980564D01*
X18284686Y-12994850D01*
X18298971Y-13009136D01*
X18313257Y-13037707D01*
X18313257Y-13051993D01*
X18298971Y-13080564D01*
X18284686Y-13094850D01*
X18256114Y-13109136D01*
X18198971Y-13109136D01*
X18170400Y-13123421D01*
X18156114Y-13137707D01*
X18141828Y-13166279D01*
X18141828Y-13223421D01*
X18156114Y-13251993D01*
X18170400Y-13266279D01*
X18198971Y-13280564D01*
X18256114Y-13280564D01*
X18284686Y-13266279D01*
X18298971Y-13251993D01*
X18313257Y-13223421D01*
X18313257Y-13166279D01*
X18298971Y-13137707D01*
X18284686Y-13123421D01*
X18256114Y-13109136D01*
X18670400Y-13280564D02*
X18670400Y-12980564D01*
X18798971Y-13280564D02*
X18798971Y-13123421D01*
X18784686Y-13094850D01*
X18756114Y-13080564D01*
X18713257Y-13080564D01*
X18684686Y-13094850D01*
X18670400Y-13109136D01*
X18984686Y-13280564D02*
X18956114Y-13266279D01*
X18941828Y-13251993D01*
X18927543Y-13223421D01*
X18927543Y-13137707D01*
X18941828Y-13109136D01*
X18956114Y-13094850D01*
X18984686Y-13080564D01*
X19027543Y-13080564D01*
X19056114Y-13094850D01*
X19070400Y-13109136D01*
X19084686Y-13137707D01*
X19084686Y-13223421D01*
X19070400Y-13251993D01*
X19056114Y-13266279D01*
X19027543Y-13280564D01*
X18984686Y-13280564D01*
X19256114Y-13280564D02*
X19227543Y-13266279D01*
X19213257Y-13237707D01*
X19213257Y-12980564D01*
X19484686Y-13266279D02*
X19456114Y-13280564D01*
X19398971Y-13280564D01*
X19370400Y-13266279D01*
X19356114Y-13237707D01*
X19356114Y-13123421D01*
X19370400Y-13094850D01*
X19398971Y-13080564D01*
X19456114Y-13080564D01*
X19484686Y-13094850D01*
X19498971Y-13123421D01*
X19498971Y-13151993D01*
X19356114Y-13180564D01*
X19613257Y-13266279D02*
X19641828Y-13280564D01*
X19698971Y-13280564D01*
X19727543Y-13266279D01*
X19741828Y-13237707D01*
X19741828Y-13223421D01*
X19727543Y-13194850D01*
X19698971Y-13180564D01*
X19656114Y-13180564D01*
X19627543Y-13166279D01*
X19613257Y-13137707D01*
X19613257Y-13123421D01*
X19627543Y-13094850D01*
X19656114Y-13080564D01*
X19698971Y-13080564D01*
X19727543Y-13094850D01*
X19841828Y-13394850D02*
X19856114Y-13380564D01*
X19884686Y-13337707D01*
X19898971Y-13309136D01*
X19913257Y-13266279D01*
X19927543Y-13194850D01*
X19927543Y-13137707D01*
X19913257Y-13066279D01*
X19898971Y-13023421D01*
X19884686Y-12994850D01*
X19856114Y-12951993D01*
X19841828Y-12937707D01*
X13305400Y-13590850D02*
X13355400Y-13540850D01*
X13305400Y-13490850D01*
X13255400Y-13540850D01*
X13305400Y-13590850D01*
X13798971Y-13676564D02*
X13627543Y-13676564D01*
X13713257Y-13676564D02*
X13713257Y-13376564D01*
X13684686Y-13419421D01*
X13656114Y-13447993D01*
X13627543Y-13462279D01*
X13927543Y-13647993D02*
X13941828Y-13662279D01*
X13927543Y-13676564D01*
X13913257Y-13662279D01*
X13927543Y-13647993D01*
X13927543Y-13676564D01*
X14127543Y-13376564D02*
X14156114Y-13376564D01*
X14184686Y-13390850D01*
X14198971Y-13405136D01*
X14213257Y-13433707D01*
X14227543Y-13490850D01*
X14227543Y-13562279D01*
X14213257Y-13619421D01*
X14198971Y-13647993D01*
X14184686Y-13662279D01*
X14156114Y-13676564D01*
X14127543Y-13676564D01*
X14098971Y-13662279D01*
X14084686Y-13647993D01*
X14070400Y-13619421D01*
X14056114Y-13562279D01*
X14056114Y-13490850D01*
X14070400Y-13433707D01*
X14084686Y-13405136D01*
X14098971Y-13390850D01*
X14127543Y-13376564D01*
X14413257Y-13376564D02*
X14441828Y-13376564D01*
X14470400Y-13390850D01*
X14484686Y-13405136D01*
X14498971Y-13433707D01*
X14513257Y-13490850D01*
X14513257Y-13562279D01*
X14498971Y-13619421D01*
X14484686Y-13647993D01*
X14470400Y-13662279D01*
X14441828Y-13676564D01*
X14413257Y-13676564D01*
X14384686Y-13662279D01*
X14370400Y-13647993D01*
X14356114Y-13619421D01*
X14341828Y-13562279D01*
X14341828Y-13490850D01*
X14356114Y-13433707D01*
X14370400Y-13405136D01*
X14384686Y-13390850D01*
X14413257Y-13376564D01*
X14641828Y-13676564D02*
X14641828Y-13476564D01*
X14641828Y-13505136D02*
X14656114Y-13490850D01*
X14684686Y-13476564D01*
X14727543Y-13476564D01*
X14756114Y-13490850D01*
X14770400Y-13519421D01*
X14770400Y-13676564D01*
X14770400Y-13519421D02*
X14784686Y-13490850D01*
X14813257Y-13476564D01*
X14856114Y-13476564D01*
X14884686Y-13490850D01*
X14898971Y-13519421D01*
X14898971Y-13676564D01*
X15041828Y-13676564D02*
X15041828Y-13476564D01*
X15041828Y-13505136D02*
X15056114Y-13490850D01*
X15084686Y-13476564D01*
X15127543Y-13476564D01*
X15156114Y-13490850D01*
X15170400Y-13519421D01*
X15170400Y-13676564D01*
X15170400Y-13519421D02*
X15184686Y-13490850D01*
X15213257Y-13476564D01*
X15256114Y-13476564D01*
X15284686Y-13490850D01*
X15298971Y-13519421D01*
X15298971Y-13676564D01*
X15884686Y-13362279D02*
X15627543Y-13747993D01*
X16270400Y-13376564D02*
X16298971Y-13376564D01*
X16327543Y-13390850D01*
X16341828Y-13405136D01*
X16356114Y-13433707D01*
X16370400Y-13490850D01*
X16370400Y-13562279D01*
X16356114Y-13619421D01*
X16341828Y-13647993D01*
X16327543Y-13662279D01*
X16298971Y-13676564D01*
X16270400Y-13676564D01*
X16241828Y-13662279D01*
X16227543Y-13647993D01*
X16213257Y-13619421D01*
X16198971Y-13562279D01*
X16198971Y-13490850D01*
X16213257Y-13433707D01*
X16227543Y-13405136D01*
X16241828Y-13390850D01*
X16270400Y-13376564D01*
X16498971Y-13647993D02*
X16513257Y-13662279D01*
X16498971Y-13676564D01*
X16484686Y-13662279D01*
X16498971Y-13647993D01*
X16498971Y-13676564D01*
X16698971Y-13376564D02*
X16727543Y-13376564D01*
X16756114Y-13390850D01*
X16770400Y-13405136D01*
X16784686Y-13433707D01*
X16798971Y-13490850D01*
X16798971Y-13562279D01*
X16784686Y-13619421D01*
X16770400Y-13647993D01*
X16756114Y-13662279D01*
X16727543Y-13676564D01*
X16698971Y-13676564D01*
X16670400Y-13662279D01*
X16656114Y-13647993D01*
X16641828Y-13619421D01*
X16627543Y-13562279D01*
X16627543Y-13490850D01*
X16641828Y-13433707D01*
X16656114Y-13405136D01*
X16670400Y-13390850D01*
X16698971Y-13376564D01*
X16898971Y-13376564D02*
X17084686Y-13376564D01*
X16984686Y-13490850D01*
X17027543Y-13490850D01*
X17056114Y-13505136D01*
X17070400Y-13519421D01*
X17084686Y-13547993D01*
X17084686Y-13619421D01*
X17070400Y-13647993D01*
X17056114Y-13662279D01*
X17027543Y-13676564D01*
X16941828Y-13676564D01*
X16913257Y-13662279D01*
X16898971Y-13647993D01*
X17227543Y-13676564D02*
X17284686Y-13676564D01*
X17313257Y-13662279D01*
X17327543Y-13647993D01*
X17356114Y-13605136D01*
X17370400Y-13547993D01*
X17370400Y-13433707D01*
X17356114Y-13405136D01*
X17341828Y-13390850D01*
X17313257Y-13376564D01*
X17256114Y-13376564D01*
X17227543Y-13390850D01*
X17213257Y-13405136D01*
X17198971Y-13433707D01*
X17198971Y-13505136D01*
X17213257Y-13533707D01*
X17227543Y-13547993D01*
X17256114Y-13562279D01*
X17313257Y-13562279D01*
X17341828Y-13547993D01*
X17356114Y-13533707D01*
X17370400Y-13505136D01*
X17484686Y-13376564D02*
X17484686Y-13433707D01*
X17598971Y-13376564D02*
X17598971Y-13433707D01*
X18041828Y-13790850D02*
X18027543Y-13776564D01*
X17998971Y-13733707D01*
X17984686Y-13705136D01*
X17970400Y-13662279D01*
X17956114Y-13590850D01*
X17956114Y-13533707D01*
X17970400Y-13462279D01*
X17984686Y-13419421D01*
X17998971Y-13390850D01*
X18027543Y-13347993D01*
X18041828Y-13333707D01*
X18141828Y-13405136D02*
X18156114Y-13390850D01*
X18184686Y-13376564D01*
X18256114Y-13376564D01*
X18284686Y-13390850D01*
X18298971Y-13405136D01*
X18313257Y-13433707D01*
X18313257Y-13462279D01*
X18298971Y-13505136D01*
X18127543Y-13676564D01*
X18313257Y-13676564D01*
X18570400Y-13476564D02*
X18570400Y-13676564D01*
X18498971Y-13362279D02*
X18427543Y-13576564D01*
X18613257Y-13576564D01*
X18956114Y-13676564D02*
X18956114Y-13376564D01*
X19084686Y-13676564D02*
X19084686Y-13519421D01*
X19070400Y-13490850D01*
X19041828Y-13476564D01*
X18998971Y-13476564D01*
X18970400Y-13490850D01*
X18956114Y-13505136D01*
X19270400Y-13676564D02*
X19241828Y-13662279D01*
X19227543Y-13647993D01*
X19213257Y-13619421D01*
X19213257Y-13533707D01*
X19227543Y-13505136D01*
X19241828Y-13490850D01*
X19270400Y-13476564D01*
X19313257Y-13476564D01*
X19341828Y-13490850D01*
X19356114Y-13505136D01*
X19370400Y-13533707D01*
X19370400Y-13619421D01*
X19356114Y-13647993D01*
X19341828Y-13662279D01*
X19313257Y-13676564D01*
X19270400Y-13676564D01*
X19541828Y-13676564D02*
X19513257Y-13662279D01*
X19498971Y-13633707D01*
X19498971Y-13376564D01*
X19770400Y-13662279D02*
X19741828Y-13676564D01*
X19684686Y-13676564D01*
X19656114Y-13662279D01*
X19641828Y-13633707D01*
X19641828Y-13519421D01*
X19656114Y-13490850D01*
X19684686Y-13476564D01*
X19741828Y-13476564D01*
X19770400Y-13490850D01*
X19784686Y-13519421D01*
X19784686Y-13547993D01*
X19641828Y-13576564D01*
X19898971Y-13662279D02*
X19927543Y-13676564D01*
X19984686Y-13676564D01*
X20013257Y-13662279D01*
X20027543Y-13633707D01*
X20027543Y-13619421D01*
X20013257Y-13590850D01*
X19984686Y-13576564D01*
X19941828Y-13576564D01*
X19913257Y-13562279D01*
X19898971Y-13533707D01*
X19898971Y-13519421D01*
X19913257Y-13490850D01*
X19941828Y-13476564D01*
X19984686Y-13476564D01*
X20013257Y-13490850D01*
X20127543Y-13790850D02*
X20141828Y-13776564D01*
X20170400Y-13733707D01*
X20184686Y-13705136D01*
X20198971Y-13662279D01*
X20213257Y-13590850D01*
X20213257Y-13533707D01*
X20198971Y-13462279D01*
X20184686Y-13419421D01*
X20170400Y-13390850D01*
X20141828Y-13347993D01*
X20127543Y-13333707D01*
X13195400Y-13856850D02*
X13355400Y-14016850D01*
X13355400Y-13856850D02*
X13195400Y-14016850D01*
X13355400Y-13936850D02*
G75*
G03X13355400Y-13936850I-80000J0D01*
G01*
X13798971Y-14072564D02*
X13627543Y-14072564D01*
X13713257Y-14072564D02*
X13713257Y-13772564D01*
X13684686Y-13815421D01*
X13656114Y-13843993D01*
X13627543Y-13858279D01*
X13927543Y-14043993D02*
X13941828Y-14058279D01*
X13927543Y-14072564D01*
X13913257Y-14058279D01*
X13927543Y-14043993D01*
X13927543Y-14072564D01*
X14198971Y-13772564D02*
X14141828Y-13772564D01*
X14113257Y-13786850D01*
X14098971Y-13801136D01*
X14070400Y-13843993D01*
X14056114Y-13901136D01*
X14056114Y-14015421D01*
X14070400Y-14043993D01*
X14084686Y-14058279D01*
X14113257Y-14072564D01*
X14170400Y-14072564D01*
X14198971Y-14058279D01*
X14213257Y-14043993D01*
X14227543Y-14015421D01*
X14227543Y-13943993D01*
X14213257Y-13915421D01*
X14198971Y-13901136D01*
X14170400Y-13886850D01*
X14113257Y-13886850D01*
X14084686Y-13901136D01*
X14070400Y-13915421D01*
X14056114Y-13943993D01*
X14413257Y-13772564D02*
X14441828Y-13772564D01*
X14470400Y-13786850D01*
X14484686Y-13801136D01*
X14498971Y-13829707D01*
X14513257Y-13886850D01*
X14513257Y-13958279D01*
X14498971Y-14015421D01*
X14484686Y-14043993D01*
X14470400Y-14058279D01*
X14441828Y-14072564D01*
X14413257Y-14072564D01*
X14384686Y-14058279D01*
X14370400Y-14043993D01*
X14356114Y-14015421D01*
X14341828Y-13958279D01*
X14341828Y-13886850D01*
X14356114Y-13829707D01*
X14370400Y-13801136D01*
X14384686Y-13786850D01*
X14413257Y-13772564D01*
X14641828Y-14072564D02*
X14641828Y-13872564D01*
X14641828Y-13901136D02*
X14656114Y-13886850D01*
X14684686Y-13872564D01*
X14727543Y-13872564D01*
X14756114Y-13886850D01*
X14770400Y-13915421D01*
X14770400Y-14072564D01*
X14770400Y-13915421D02*
X14784686Y-13886850D01*
X14813257Y-13872564D01*
X14856114Y-13872564D01*
X14884686Y-13886850D01*
X14898971Y-13915421D01*
X14898971Y-14072564D01*
X15041828Y-14072564D02*
X15041828Y-13872564D01*
X15041828Y-13901136D02*
X15056114Y-13886850D01*
X15084686Y-13872564D01*
X15127543Y-13872564D01*
X15156114Y-13886850D01*
X15170400Y-13915421D01*
X15170400Y-14072564D01*
X15170400Y-13915421D02*
X15184686Y-13886850D01*
X15213257Y-13872564D01*
X15256114Y-13872564D01*
X15284686Y-13886850D01*
X15298971Y-13915421D01*
X15298971Y-14072564D01*
X15884686Y-13758279D02*
X15627543Y-14143993D01*
X16270400Y-13772564D02*
X16298971Y-13772564D01*
X16327543Y-13786850D01*
X16341828Y-13801136D01*
X16356114Y-13829707D01*
X16370400Y-13886850D01*
X16370400Y-13958279D01*
X16356114Y-14015421D01*
X16341828Y-14043993D01*
X16327543Y-14058279D01*
X16298971Y-14072564D01*
X16270400Y-14072564D01*
X16241828Y-14058279D01*
X16227543Y-14043993D01*
X16213257Y-14015421D01*
X16198971Y-13958279D01*
X16198971Y-13886850D01*
X16213257Y-13829707D01*
X16227543Y-13801136D01*
X16241828Y-13786850D01*
X16270400Y-13772564D01*
X16498971Y-14043993D02*
X16513257Y-14058279D01*
X16498971Y-14072564D01*
X16484686Y-14058279D01*
X16498971Y-14043993D01*
X16498971Y-14072564D01*
X16698971Y-13772564D02*
X16727543Y-13772564D01*
X16756114Y-13786850D01*
X16770400Y-13801136D01*
X16784686Y-13829707D01*
X16798971Y-13886850D01*
X16798971Y-13958279D01*
X16784686Y-14015421D01*
X16770400Y-14043993D01*
X16756114Y-14058279D01*
X16727543Y-14072564D01*
X16698971Y-14072564D01*
X16670400Y-14058279D01*
X16656114Y-14043993D01*
X16641828Y-14015421D01*
X16627543Y-13958279D01*
X16627543Y-13886850D01*
X16641828Y-13829707D01*
X16656114Y-13801136D01*
X16670400Y-13786850D01*
X16698971Y-13772564D01*
X17056114Y-13772564D02*
X16998971Y-13772564D01*
X16970400Y-13786850D01*
X16956114Y-13801136D01*
X16927543Y-13843993D01*
X16913257Y-13901136D01*
X16913257Y-14015421D01*
X16927543Y-14043993D01*
X16941828Y-14058279D01*
X16970400Y-14072564D01*
X17027543Y-14072564D01*
X17056114Y-14058279D01*
X17070400Y-14043993D01*
X17084686Y-14015421D01*
X17084686Y-13943993D01*
X17070400Y-13915421D01*
X17056114Y-13901136D01*
X17027543Y-13886850D01*
X16970400Y-13886850D01*
X16941828Y-13901136D01*
X16927543Y-13915421D01*
X16913257Y-13943993D01*
X17184686Y-13772564D02*
X17370400Y-13772564D01*
X17270400Y-13886850D01*
X17313257Y-13886850D01*
X17341828Y-13901136D01*
X17356114Y-13915421D01*
X17370400Y-13943993D01*
X17370400Y-14015421D01*
X17356114Y-14043993D01*
X17341828Y-14058279D01*
X17313257Y-14072564D01*
X17227543Y-14072564D01*
X17198971Y-14058279D01*
X17184686Y-14043993D01*
X17484686Y-13772564D02*
X17484686Y-13829707D01*
X17598971Y-13772564D02*
X17598971Y-13829707D01*
X18041828Y-14186850D02*
X18027543Y-14172564D01*
X17998971Y-14129707D01*
X17984686Y-14101136D01*
X17970400Y-14058279D01*
X17956114Y-13986850D01*
X17956114Y-13929707D01*
X17970400Y-13858279D01*
X17984686Y-13815421D01*
X17998971Y-13786850D01*
X18027543Y-13743993D01*
X18041828Y-13729707D01*
X18141828Y-13801136D02*
X18156114Y-13786850D01*
X18184686Y-13772564D01*
X18256114Y-13772564D01*
X18284686Y-13786850D01*
X18298971Y-13801136D01*
X18313257Y-13829707D01*
X18313257Y-13858279D01*
X18298971Y-13901136D01*
X18127543Y-14072564D01*
X18313257Y-14072564D01*
X18670400Y-14072564D02*
X18670400Y-13772564D01*
X18798971Y-14072564D02*
X18798971Y-13915421D01*
X18784686Y-13886850D01*
X18756114Y-13872564D01*
X18713257Y-13872564D01*
X18684686Y-13886850D01*
X18670400Y-13901136D01*
X18984686Y-14072564D02*
X18956114Y-14058279D01*
X18941828Y-14043993D01*
X18927543Y-14015421D01*
X18927543Y-13929707D01*
X18941828Y-13901136D01*
X18956114Y-13886850D01*
X18984686Y-13872564D01*
X19027543Y-13872564D01*
X19056114Y-13886850D01*
X19070400Y-13901136D01*
X19084686Y-13929707D01*
X19084686Y-14015421D01*
X19070400Y-14043993D01*
X19056114Y-14058279D01*
X19027543Y-14072564D01*
X18984686Y-14072564D01*
X19256114Y-14072564D02*
X19227543Y-14058279D01*
X19213257Y-14029707D01*
X19213257Y-13772564D01*
X19484686Y-14058279D02*
X19456114Y-14072564D01*
X19398971Y-14072564D01*
X19370400Y-14058279D01*
X19356114Y-14029707D01*
X19356114Y-13915421D01*
X19370400Y-13886850D01*
X19398971Y-13872564D01*
X19456114Y-13872564D01*
X19484686Y-13886850D01*
X19498971Y-13915421D01*
X19498971Y-13943993D01*
X19356114Y-13972564D01*
X19613257Y-14058279D02*
X19641828Y-14072564D01*
X19698971Y-14072564D01*
X19727543Y-14058279D01*
X19741828Y-14029707D01*
X19741828Y-14015421D01*
X19727543Y-13986850D01*
X19698971Y-13972564D01*
X19656114Y-13972564D01*
X19627543Y-13958279D01*
X19613257Y-13929707D01*
X19613257Y-13915421D01*
X19627543Y-13886850D01*
X19656114Y-13872564D01*
X19698971Y-13872564D01*
X19727543Y-13886850D01*
X19841828Y-14186850D02*
X19856114Y-14172564D01*
X19884686Y-14129707D01*
X19898971Y-14101136D01*
X19913257Y-14058279D01*
X19927543Y-13986850D01*
X19927543Y-13929707D01*
X19913257Y-13858279D01*
X19898971Y-13815421D01*
X19884686Y-13786850D01*
X19856114Y-13743993D01*
X19841828Y-13729707D01*
X12555400Y-13932850D02*
X13355400Y-14732850D01*
X13355400Y-13932850D02*
X12555400Y-14732850D01*
X12955400Y-13932850D02*
X12955400Y-14732850D01*
X12555400Y-14332850D02*
X13355400Y-14332850D01*
X13684686Y-14297136D02*
X13656114Y-14282850D01*
X13641828Y-14268564D01*
X13627543Y-14239993D01*
X13627543Y-14225707D01*
X13641828Y-14197136D01*
X13656114Y-14182850D01*
X13684686Y-14168564D01*
X13741828Y-14168564D01*
X13770400Y-14182850D01*
X13784686Y-14197136D01*
X13798971Y-14225707D01*
X13798971Y-14239993D01*
X13784686Y-14268564D01*
X13770400Y-14282850D01*
X13741828Y-14297136D01*
X13684686Y-14297136D01*
X13656114Y-14311421D01*
X13641828Y-14325707D01*
X13627543Y-14354279D01*
X13627543Y-14411421D01*
X13641828Y-14439993D01*
X13656114Y-14454279D01*
X13684686Y-14468564D01*
X13741828Y-14468564D01*
X13770400Y-14454279D01*
X13784686Y-14439993D01*
X13798971Y-14411421D01*
X13798971Y-14354279D01*
X13784686Y-14325707D01*
X13770400Y-14311421D01*
X13741828Y-14297136D01*
X13927543Y-14439993D02*
X13941828Y-14454279D01*
X13927543Y-14468564D01*
X13913257Y-14454279D01*
X13927543Y-14439993D01*
X13927543Y-14468564D01*
X14127543Y-14168564D02*
X14156114Y-14168564D01*
X14184686Y-14182850D01*
X14198971Y-14197136D01*
X14213257Y-14225707D01*
X14227543Y-14282850D01*
X14227543Y-14354279D01*
X14213257Y-14411421D01*
X14198971Y-14439993D01*
X14184686Y-14454279D01*
X14156114Y-14468564D01*
X14127543Y-14468564D01*
X14098971Y-14454279D01*
X14084686Y-14439993D01*
X14070400Y-14411421D01*
X14056114Y-14354279D01*
X14056114Y-14282850D01*
X14070400Y-14225707D01*
X14084686Y-14197136D01*
X14098971Y-14182850D01*
X14127543Y-14168564D01*
X14413257Y-14168564D02*
X14441828Y-14168564D01*
X14470400Y-14182850D01*
X14484686Y-14197136D01*
X14498971Y-14225707D01*
X14513257Y-14282850D01*
X14513257Y-14354279D01*
X14498971Y-14411421D01*
X14484686Y-14439993D01*
X14470400Y-14454279D01*
X14441828Y-14468564D01*
X14413257Y-14468564D01*
X14384686Y-14454279D01*
X14370400Y-14439993D01*
X14356114Y-14411421D01*
X14341828Y-14354279D01*
X14341828Y-14282850D01*
X14356114Y-14225707D01*
X14370400Y-14197136D01*
X14384686Y-14182850D01*
X14413257Y-14168564D01*
X14641828Y-14468564D02*
X14641828Y-14268564D01*
X14641828Y-14297136D02*
X14656114Y-14282850D01*
X14684686Y-14268564D01*
X14727543Y-14268564D01*
X14756114Y-14282850D01*
X14770400Y-14311421D01*
X14770400Y-14468564D01*
X14770400Y-14311421D02*
X14784686Y-14282850D01*
X14813257Y-14268564D01*
X14856114Y-14268564D01*
X14884686Y-14282850D01*
X14898971Y-14311421D01*
X14898971Y-14468564D01*
X15041828Y-14468564D02*
X15041828Y-14268564D01*
X15041828Y-14297136D02*
X15056114Y-14282850D01*
X15084686Y-14268564D01*
X15127543Y-14268564D01*
X15156114Y-14282850D01*
X15170400Y-14311421D01*
X15170400Y-14468564D01*
X15170400Y-14311421D02*
X15184686Y-14282850D01*
X15213257Y-14268564D01*
X15256114Y-14268564D01*
X15284686Y-14282850D01*
X15298971Y-14311421D01*
X15298971Y-14468564D01*
X15884686Y-14154279D02*
X15627543Y-14539993D01*
X16270400Y-14168564D02*
X16298971Y-14168564D01*
X16327543Y-14182850D01*
X16341828Y-14197136D01*
X16356114Y-14225707D01*
X16370400Y-14282850D01*
X16370400Y-14354279D01*
X16356114Y-14411421D01*
X16341828Y-14439993D01*
X16327543Y-14454279D01*
X16298971Y-14468564D01*
X16270400Y-14468564D01*
X16241828Y-14454279D01*
X16227543Y-14439993D01*
X16213257Y-14411421D01*
X16198971Y-14354279D01*
X16198971Y-14282850D01*
X16213257Y-14225707D01*
X16227543Y-14197136D01*
X16241828Y-14182850D01*
X16270400Y-14168564D01*
X16498971Y-14439993D02*
X16513257Y-14454279D01*
X16498971Y-14468564D01*
X16484686Y-14454279D01*
X16498971Y-14439993D01*
X16498971Y-14468564D01*
X16613257Y-14168564D02*
X16798971Y-14168564D01*
X16698971Y-14282850D01*
X16741828Y-14282850D01*
X16770400Y-14297136D01*
X16784686Y-14311421D01*
X16798971Y-14339993D01*
X16798971Y-14411421D01*
X16784686Y-14439993D01*
X16770400Y-14454279D01*
X16741828Y-14468564D01*
X16656114Y-14468564D01*
X16627543Y-14454279D01*
X16613257Y-14439993D01*
X17084686Y-14468564D02*
X16913257Y-14468564D01*
X16998971Y-14468564D02*
X16998971Y-14168564D01*
X16970400Y-14211421D01*
X16941828Y-14239993D01*
X16913257Y-14254279D01*
X17356114Y-14168564D02*
X17213257Y-14168564D01*
X17198971Y-14311421D01*
X17213257Y-14297136D01*
X17241828Y-14282850D01*
X17313257Y-14282850D01*
X17341828Y-14297136D01*
X17356114Y-14311421D01*
X17370400Y-14339993D01*
X17370400Y-14411421D01*
X17356114Y-14439993D01*
X17341828Y-14454279D01*
X17313257Y-14468564D01*
X17241828Y-14468564D01*
X17213257Y-14454279D01*
X17198971Y-14439993D01*
X17484686Y-14168564D02*
X17484686Y-14225707D01*
X17598971Y-14168564D02*
X17598971Y-14225707D01*
X18041828Y-14582850D02*
X18027543Y-14568564D01*
X17998971Y-14525707D01*
X17984686Y-14497136D01*
X17970400Y-14454279D01*
X17956114Y-14382850D01*
X17956114Y-14325707D01*
X17970400Y-14254279D01*
X17984686Y-14211421D01*
X17998971Y-14182850D01*
X18027543Y-14139993D01*
X18041828Y-14125707D01*
X18313257Y-14468564D02*
X18141828Y-14468564D01*
X18227543Y-14468564D02*
X18227543Y-14168564D01*
X18198971Y-14211421D01*
X18170400Y-14239993D01*
X18141828Y-14254279D01*
X18670400Y-14468564D02*
X18670400Y-14168564D01*
X18798971Y-14468564D02*
X18798971Y-14311421D01*
X18784686Y-14282850D01*
X18756114Y-14268564D01*
X18713257Y-14268564D01*
X18684686Y-14282850D01*
X18670400Y-14297136D01*
X18984686Y-14468564D02*
X18956114Y-14454279D01*
X18941828Y-14439993D01*
X18927543Y-14411421D01*
X18927543Y-14325707D01*
X18941828Y-14297136D01*
X18956114Y-14282850D01*
X18984686Y-14268564D01*
X19027543Y-14268564D01*
X19056114Y-14282850D01*
X19070400Y-14297136D01*
X19084686Y-14325707D01*
X19084686Y-14411421D01*
X19070400Y-14439993D01*
X19056114Y-14454279D01*
X19027543Y-14468564D01*
X18984686Y-14468564D01*
X19256114Y-14468564D02*
X19227543Y-14454279D01*
X19213257Y-14425707D01*
X19213257Y-14168564D01*
X19484686Y-14454279D02*
X19456114Y-14468564D01*
X19398971Y-14468564D01*
X19370400Y-14454279D01*
X19356114Y-14425707D01*
X19356114Y-14311421D01*
X19370400Y-14282850D01*
X19398971Y-14268564D01*
X19456114Y-14268564D01*
X19484686Y-14282850D01*
X19498971Y-14311421D01*
X19498971Y-14339993D01*
X19356114Y-14368564D01*
X19598971Y-14582850D02*
X19613257Y-14568564D01*
X19641828Y-14525707D01*
X19656114Y-14497136D01*
X19670400Y-14454279D01*
X19684686Y-14382850D01*
X19684686Y-14325707D01*
X19670400Y-14254279D01*
X19656114Y-14211421D01*
X19641828Y-14182850D01*
X19613257Y-14139993D01*
X19598971Y-14125707D01*
M02*
