G04 #@! TF.GenerationSoftware,KiCad,Pcbnew,(5.1.2)-1*
G04 #@! TF.CreationDate,2019-11-02T02:49:23-04:00*
G04 #@! TF.ProjectId,superzaxxonduo,73757065-727a-4617-9878-6f6e64756f2e,rev?*
G04 #@! TF.SameCoordinates,Original*
G04 #@! TF.FileFunction,Soldermask,Top*
G04 #@! TF.FilePolarity,Negative*
%FSLAX46Y46*%
G04 Gerber Fmt 4.6, Leading zero omitted, Abs format (unit mm)*
G04 Created by KiCad (PCBNEW (5.1.2)-1) date 2019-11-02 02:49:23*
%MOMM*%
%LPD*%
G04 APERTURE LIST*
%ADD10C,0.500000*%
%ADD11C,0.100000*%
%ADD12R,2.150000X7.400000*%
%ADD13C,2.000000*%
%ADD14R,2.000000X2.000000*%
%ADD15R,2.100000X2.100000*%
%ADD16O,2.100000X2.100000*%
%ADD17C,1.800000*%
%ADD18O,1.800000X1.800000*%
%ADD19O,2.000000X2.000000*%
G04 APERTURE END LIST*
D10*
X83114000Y-53110000D02*
X82828285Y-52967142D01*
X82399714Y-52967142D01*
X81971142Y-53110000D01*
X81685428Y-53395714D01*
X81542571Y-53681428D01*
X81399714Y-54252857D01*
X81399714Y-54681428D01*
X81542571Y-55252857D01*
X81685428Y-55538571D01*
X81971142Y-55824285D01*
X82399714Y-55967142D01*
X82685428Y-55967142D01*
X83114000Y-55824285D01*
X83256857Y-55681428D01*
X83256857Y-54681428D01*
X82685428Y-54681428D01*
X85114000Y-52967142D02*
X85685428Y-52967142D01*
X85971142Y-53110000D01*
X86256857Y-53395714D01*
X86399714Y-53967142D01*
X86399714Y-54967142D01*
X86256857Y-55538571D01*
X85971142Y-55824285D01*
X85685428Y-55967142D01*
X85114000Y-55967142D01*
X84828285Y-55824285D01*
X84542571Y-55538571D01*
X84399714Y-54967142D01*
X84399714Y-53967142D01*
X84542571Y-53395714D01*
X84828285Y-53110000D01*
X85114000Y-52967142D01*
X89114000Y-55967142D02*
X87685428Y-55967142D01*
X87685428Y-52967142D01*
X90114000Y-55967142D02*
X90114000Y-52967142D01*
X90828285Y-52967142D01*
X91256857Y-53110000D01*
X91542571Y-53395714D01*
X91685428Y-53681428D01*
X91828285Y-54252857D01*
X91828285Y-54681428D01*
X91685428Y-55252857D01*
X91542571Y-55538571D01*
X91256857Y-55824285D01*
X90828285Y-55967142D01*
X90114000Y-55967142D01*
D11*
G36*
X78930500Y-69913500D02*
G01*
X78930500Y-76835000D01*
X136969500Y-76835000D01*
X136969500Y-69913500D01*
X78930500Y-69913500D01*
G37*
X78930500Y-69913500D02*
X78930500Y-76835000D01*
X136969500Y-76835000D01*
X136969500Y-69913500D01*
X78930500Y-69913500D01*
D12*
X132080000Y-73342500D03*
X134620000Y-73342500D03*
X124460000Y-73342500D03*
X129540000Y-73342500D03*
X121920000Y-73342500D03*
X127000000Y-73342500D03*
X119380000Y-73342500D03*
X106680000Y-73342500D03*
X111760000Y-73342500D03*
X109220000Y-73342500D03*
X114300000Y-73342500D03*
X116840000Y-73342500D03*
X104140000Y-73342500D03*
X101600000Y-73342500D03*
X99060000Y-73342500D03*
X96520000Y-73342500D03*
X93980000Y-73342500D03*
X91440000Y-73342500D03*
X88900000Y-73342500D03*
X86360000Y-73342500D03*
X83820000Y-73342500D03*
X81280000Y-73342500D03*
D13*
X100330000Y-35600000D03*
X100330000Y-38100000D03*
X115570000Y-32385000D03*
X115570000Y-29885000D03*
X100965000Y-43815000D03*
X98465000Y-43815000D03*
D14*
X81915000Y-59055000D03*
D13*
X81915000Y-61555000D03*
D15*
X95250000Y-45085000D03*
D16*
X95250000Y-47625000D03*
X95250000Y-50165000D03*
D17*
X95250000Y-58420000D03*
D18*
X95250000Y-53340000D03*
D14*
X97155000Y-30480000D03*
D19*
X81915000Y-38100000D03*
X94615000Y-30480000D03*
X84455000Y-38100000D03*
X92075000Y-30480000D03*
X86995000Y-38100000D03*
X89535000Y-30480000D03*
X89535000Y-38100000D03*
X86995000Y-30480000D03*
X92075000Y-38100000D03*
X84455000Y-30480000D03*
X94615000Y-38100000D03*
X81915000Y-30480000D03*
X97155000Y-38100000D03*
X118745000Y-30480000D03*
X133985000Y-38100000D03*
X121285000Y-30480000D03*
X131445000Y-38100000D03*
X123825000Y-30480000D03*
X128905000Y-38100000D03*
X126365000Y-30480000D03*
X126365000Y-38100000D03*
X128905000Y-30480000D03*
X123825000Y-38100000D03*
X131445000Y-30480000D03*
X121285000Y-38100000D03*
X133985000Y-30480000D03*
D14*
X118745000Y-38100000D03*
X100965000Y-61595000D03*
D19*
X133985000Y-46355000D03*
X103505000Y-61595000D03*
X131445000Y-46355000D03*
X106045000Y-61595000D03*
X128905000Y-46355000D03*
X108585000Y-61595000D03*
X126365000Y-46355000D03*
X111125000Y-61595000D03*
X123825000Y-46355000D03*
X113665000Y-61595000D03*
X121285000Y-46355000D03*
X116205000Y-61595000D03*
X118745000Y-46355000D03*
X118745000Y-61595000D03*
X116205000Y-46355000D03*
X121285000Y-61595000D03*
X113665000Y-46355000D03*
X123825000Y-61595000D03*
X111125000Y-46355000D03*
X126365000Y-61595000D03*
X108585000Y-46355000D03*
X128905000Y-61595000D03*
X106045000Y-46355000D03*
X131445000Y-61595000D03*
X103505000Y-46355000D03*
X133985000Y-61595000D03*
X100965000Y-46355000D03*
M02*
