%FSLAX45Y45*%
G04 Gerber Fmt 4.5, Leading zero omitted, Abs format (unit mm)*
G04 Created by KiCad (PCBNEW (5.1.2)-1) date 2019-11-02 02:49:32*
%MOMM*%
%LPD*%
G04 APERTURE LIST*
%ADD10C,0.200000*%
%ADD11C,0.300000*%
G04 APERTURE END LIST*
D10*
X7981000Y-4475800D02*
X8021000Y-4515800D01*
X8021000Y-4475800D02*
X7981000Y-4515800D01*
X8171500Y-4094800D02*
X8211500Y-4134800D01*
X8211500Y-4094800D02*
X8171500Y-4134800D01*
X8171500Y-5072700D02*
X8211500Y-5112700D01*
X8211500Y-5072700D02*
X8171500Y-5112700D01*
X8476300Y-4082100D02*
X8516300Y-4122100D01*
X8516300Y-4082100D02*
X8476300Y-4122100D01*
X8476300Y-5669600D02*
X8516300Y-5709600D01*
X8516300Y-5669600D02*
X8476300Y-5709600D01*
X8590600Y-3523300D02*
X8630600Y-3563300D01*
X8630600Y-3523300D02*
X8590600Y-3563300D01*
X8781100Y-3383600D02*
X8821100Y-3423600D01*
X8821100Y-3383600D02*
X8781100Y-3423600D01*
X8933500Y-4171000D02*
X8973500Y-4211000D01*
X8973500Y-4171000D02*
X8933500Y-4211000D01*
X9378000Y-3536000D02*
X9418000Y-3576000D01*
X9418000Y-3536000D02*
X9378000Y-3576000D01*
X9860600Y-3383600D02*
X9900600Y-3423600D01*
X9900600Y-3383600D02*
X9860600Y-3423600D01*
X10013000Y-3028000D02*
X10053000Y-3068000D01*
X10053000Y-3028000D02*
X10013000Y-3068000D01*
X10267000Y-6545900D02*
X10307000Y-6585900D01*
X10307000Y-6545900D02*
X10267000Y-6585900D01*
X10330500Y-3980500D02*
X10370500Y-4020500D01*
X10370500Y-3980500D02*
X10330500Y-4020500D01*
X10457500Y-4107500D02*
X10497500Y-4147500D01*
X10497500Y-4107500D02*
X10457500Y-4147500D01*
X10521000Y-6393500D02*
X10561000Y-6433500D01*
X10561000Y-6393500D02*
X10521000Y-6433500D01*
X10787700Y-6533200D02*
X10827700Y-6573200D01*
X10827700Y-6533200D02*
X10787700Y-6573200D01*
X10838500Y-4234500D02*
X10878500Y-4274500D01*
X10878500Y-4234500D02*
X10838500Y-4274500D01*
X10902000Y-4361500D02*
X10942000Y-4401500D01*
X10942000Y-4361500D02*
X10902000Y-4401500D01*
X10958200Y-6736400D02*
X10998200Y-6776400D01*
X10998200Y-6736400D02*
X10958200Y-6776400D01*
X11054400Y-3612200D02*
X11094400Y-3652200D01*
X11094400Y-3612200D02*
X11054400Y-3652200D01*
X11067100Y-6584000D02*
X11107100Y-6624000D01*
X11107100Y-6584000D02*
X11067100Y-6624000D01*
X11092500Y-5733100D02*
X11132500Y-5773100D01*
X11132500Y-5733100D02*
X11092500Y-5773100D01*
X11117900Y-5326700D02*
X11157900Y-5366700D01*
X11157900Y-5326700D02*
X11117900Y-5366700D01*
X11181400Y-6736400D02*
X11221400Y-6776400D01*
X11221400Y-6736400D02*
X11181400Y-6776400D01*
X11219500Y-5212400D02*
X11259500Y-5252400D01*
X11259500Y-5212400D02*
X11219500Y-5252400D01*
X11270300Y-6838000D02*
X11310300Y-6878000D01*
X11310300Y-6838000D02*
X11270300Y-6878000D01*
X12108500Y-4361500D02*
X12148500Y-4401500D01*
X12148500Y-4361500D02*
X12108500Y-4401500D01*
X12845100Y-6355400D02*
X12885100Y-6395400D01*
X12885100Y-6355400D02*
X12845100Y-6395400D01*
X13188000Y-6850700D02*
X13228000Y-6890700D01*
X13228000Y-6850700D02*
X13188000Y-6890700D01*
X13569000Y-4475800D02*
X13609000Y-4515800D01*
X13609000Y-4475800D02*
X13569000Y-4515800D01*
X9560000Y-5334000D02*
G75*
G03X9560000Y-5334000I-35000J0D01*
G01*
X9560000Y-5842000D02*
G75*
G03X9560000Y-5842000I-35000J0D01*
G01*
X8191500Y-5865500D02*
X8191500Y-5945500D01*
X8151500Y-5905500D02*
X8231500Y-5905500D01*
X8191500Y-6115500D02*
X8191500Y-6195500D01*
X8151500Y-6155500D02*
X8231500Y-6155500D01*
X9846500Y-4341500D02*
X9846500Y-4421500D01*
X9806500Y-4381500D02*
X9886500Y-4381500D01*
X10096500Y-4341500D02*
X10096500Y-4421500D01*
X10056500Y-4381500D02*
X10136500Y-4381500D01*
X10096500Y-4595500D02*
X10096500Y-4675500D01*
X10056500Y-4635500D02*
X10136500Y-4635500D01*
X10096500Y-6119500D02*
X10096500Y-6199500D01*
X10056500Y-6159500D02*
X10136500Y-6159500D01*
X10350500Y-4595500D02*
X10350500Y-4675500D01*
X10310500Y-4635500D02*
X10390500Y-4635500D01*
X10350500Y-6119500D02*
X10350500Y-6199500D01*
X10310500Y-6159500D02*
X10390500Y-6159500D01*
X10604500Y-4595500D02*
X10604500Y-4675500D01*
X10564500Y-4635500D02*
X10644500Y-4635500D01*
X10604500Y-6119500D02*
X10604500Y-6199500D01*
X10564500Y-6159500D02*
X10644500Y-6159500D01*
X10858500Y-4595500D02*
X10858500Y-4675500D01*
X10818500Y-4635500D02*
X10898500Y-4635500D01*
X10858500Y-6119500D02*
X10858500Y-6199500D01*
X10818500Y-6159500D02*
X10898500Y-6159500D01*
X11112500Y-4595500D02*
X11112500Y-4675500D01*
X11072500Y-4635500D02*
X11152500Y-4635500D01*
X11112500Y-6119500D02*
X11112500Y-6199500D01*
X11072500Y-6159500D02*
X11152500Y-6159500D01*
X11366500Y-4595500D02*
X11366500Y-4675500D01*
X11326500Y-4635500D02*
X11406500Y-4635500D01*
X11366500Y-6119500D02*
X11366500Y-6199500D01*
X11326500Y-6159500D02*
X11406500Y-6159500D01*
X11620500Y-4595500D02*
X11620500Y-4675500D01*
X11580500Y-4635500D02*
X11660500Y-4635500D01*
X11620500Y-6119500D02*
X11620500Y-6199500D01*
X11580500Y-6159500D02*
X11660500Y-6159500D01*
X11874500Y-4595500D02*
X11874500Y-4675500D01*
X11834500Y-4635500D02*
X11914500Y-4635500D01*
X11874500Y-6119500D02*
X11874500Y-6199500D01*
X11834500Y-6159500D02*
X11914500Y-6159500D01*
X12128500Y-4595500D02*
X12128500Y-4675500D01*
X12088500Y-4635500D02*
X12168500Y-4635500D01*
X12128500Y-6119500D02*
X12128500Y-6199500D01*
X12088500Y-6159500D02*
X12168500Y-6159500D01*
X12382500Y-4595500D02*
X12382500Y-4675500D01*
X12342500Y-4635500D02*
X12422500Y-4635500D01*
X12382500Y-6119500D02*
X12382500Y-6199500D01*
X12342500Y-6159500D02*
X12422500Y-6159500D01*
X12636500Y-4595500D02*
X12636500Y-4675500D01*
X12596500Y-4635500D02*
X12676500Y-4635500D01*
X12636500Y-6119500D02*
X12636500Y-6199500D01*
X12596500Y-6159500D02*
X12676500Y-6159500D01*
X12890500Y-4595500D02*
X12890500Y-4675500D01*
X12850500Y-4635500D02*
X12930500Y-4635500D01*
X12890500Y-6119500D02*
X12890500Y-6199500D01*
X12850500Y-6159500D02*
X12930500Y-6159500D01*
X13144500Y-4595500D02*
X13144500Y-4675500D01*
X13104500Y-4635500D02*
X13184500Y-4635500D01*
X13144500Y-6119500D02*
X13144500Y-6199500D01*
X13104500Y-6159500D02*
X13184500Y-6159500D01*
X13398500Y-4595500D02*
X13398500Y-4675500D01*
X13358500Y-4635500D02*
X13438500Y-4635500D01*
X13398500Y-6119500D02*
X13398500Y-6199500D01*
X13358500Y-6159500D02*
X13438500Y-6159500D01*
X10033000Y-3520000D02*
X10033000Y-3600000D01*
X9993000Y-3560000D02*
X10073000Y-3560000D01*
X10033000Y-3770000D02*
X10033000Y-3850000D01*
X9993000Y-3810000D02*
X10073000Y-3810000D01*
X11874500Y-3008000D02*
X11874500Y-3088000D01*
X11834500Y-3048000D02*
X11914500Y-3048000D01*
X11874500Y-3770000D02*
X11874500Y-3850000D01*
X11834500Y-3810000D02*
X11914500Y-3810000D01*
X12128500Y-3008000D02*
X12128500Y-3088000D01*
X12088500Y-3048000D02*
X12168500Y-3048000D01*
X12128500Y-3770000D02*
X12128500Y-3850000D01*
X12088500Y-3810000D02*
X12168500Y-3810000D01*
X12382500Y-3008000D02*
X12382500Y-3088000D01*
X12342500Y-3048000D02*
X12422500Y-3048000D01*
X12382500Y-3770000D02*
X12382500Y-3850000D01*
X12342500Y-3810000D02*
X12422500Y-3810000D01*
X12636500Y-3008000D02*
X12636500Y-3088000D01*
X12596500Y-3048000D02*
X12676500Y-3048000D01*
X12636500Y-3770000D02*
X12636500Y-3850000D01*
X12596500Y-3810000D02*
X12676500Y-3810000D01*
X12890500Y-3008000D02*
X12890500Y-3088000D01*
X12850500Y-3048000D02*
X12930500Y-3048000D01*
X12890500Y-3770000D02*
X12890500Y-3850000D01*
X12850500Y-3810000D02*
X12930500Y-3810000D01*
X13144500Y-3008000D02*
X13144500Y-3088000D01*
X13104500Y-3048000D02*
X13184500Y-3048000D01*
X13144500Y-3770000D02*
X13144500Y-3850000D01*
X13104500Y-3810000D02*
X13184500Y-3810000D01*
X13398500Y-3008000D02*
X13398500Y-3088000D01*
X13358500Y-3048000D02*
X13438500Y-3048000D01*
X13398500Y-3770000D02*
X13398500Y-3850000D01*
X13358500Y-3810000D02*
X13438500Y-3810000D01*
X11557000Y-2948500D02*
X11557000Y-3028500D01*
X11517000Y-2988500D02*
X11597000Y-2988500D01*
X11557000Y-3198500D02*
X11557000Y-3278500D01*
X11517000Y-3238500D02*
X11597000Y-3238500D01*
X8191500Y-3008000D02*
X8191500Y-3088000D01*
X8151500Y-3048000D02*
X8231500Y-3048000D01*
X8191500Y-3770000D02*
X8191500Y-3850000D01*
X8151500Y-3810000D02*
X8231500Y-3810000D01*
X8445500Y-3008000D02*
X8445500Y-3088000D01*
X8405500Y-3048000D02*
X8485500Y-3048000D01*
X8445500Y-3770000D02*
X8445500Y-3850000D01*
X8405500Y-3810000D02*
X8485500Y-3810000D01*
X8699500Y-3008000D02*
X8699500Y-3088000D01*
X8659500Y-3048000D02*
X8739500Y-3048000D01*
X8699500Y-3770000D02*
X8699500Y-3850000D01*
X8659500Y-3810000D02*
X8739500Y-3810000D01*
X8953500Y-3008000D02*
X8953500Y-3088000D01*
X8913500Y-3048000D02*
X8993500Y-3048000D01*
X8953500Y-3770000D02*
X8953500Y-3850000D01*
X8913500Y-3810000D02*
X8993500Y-3810000D01*
X9207500Y-3008000D02*
X9207500Y-3088000D01*
X9167500Y-3048000D02*
X9247500Y-3048000D01*
X9207500Y-3770000D02*
X9207500Y-3850000D01*
X9167500Y-3810000D02*
X9247500Y-3810000D01*
X9461500Y-3008000D02*
X9461500Y-3088000D01*
X9421500Y-3048000D02*
X9501500Y-3048000D01*
X9461500Y-3770000D02*
X9461500Y-3850000D01*
X9421500Y-3810000D02*
X9501500Y-3810000D01*
X9715500Y-3008000D02*
X9715500Y-3088000D01*
X9675500Y-3048000D02*
X9755500Y-3048000D01*
X9715500Y-3770000D02*
X9715500Y-3850000D01*
X9675500Y-3810000D02*
X9755500Y-3810000D01*
X9560356Y-4543856D02*
X9560356Y-4473144D01*
X9489644Y-4473144D01*
X9489644Y-4543856D01*
X9560356Y-4543856D01*
X9560356Y-4797856D02*
X9560356Y-4727144D01*
X9489644Y-4727144D01*
X9489644Y-4797856D01*
X9560356Y-4797856D01*
X9560356Y-5051856D02*
X9560356Y-4981144D01*
X9489644Y-4981144D01*
X9489644Y-5051856D01*
X9560356Y-5051856D01*
D11*
X286429Y-465714D02*
X286429Y-165714D01*
X357857Y-165714D01*
X400714Y-180000D01*
X429286Y-208571D01*
X443571Y-237143D01*
X457857Y-294286D01*
X457857Y-337143D01*
X443571Y-394286D01*
X429286Y-422857D01*
X400714Y-451428D01*
X357857Y-465714D01*
X286429Y-465714D01*
X586429Y-465714D02*
X586429Y-265714D01*
X586429Y-322857D02*
X600714Y-294286D01*
X615000Y-280000D01*
X643571Y-265714D01*
X672143Y-265714D01*
X772143Y-465714D02*
X772143Y-265714D01*
X772143Y-165714D02*
X757857Y-180000D01*
X772143Y-194286D01*
X786428Y-180000D01*
X772143Y-165714D01*
X772143Y-194286D01*
X957857Y-465714D02*
X929286Y-451428D01*
X915000Y-422857D01*
X915000Y-165714D01*
X1115000Y-465714D02*
X1086429Y-451428D01*
X1072143Y-422857D01*
X1072143Y-165714D01*
X1457857Y-465714D02*
X1457857Y-165714D01*
X1557857Y-380000D01*
X1657857Y-165714D01*
X1657857Y-465714D01*
X1929286Y-465714D02*
X1929286Y-308571D01*
X1915000Y-280000D01*
X1886428Y-265714D01*
X1829286Y-265714D01*
X1800714Y-280000D01*
X1929286Y-451428D02*
X1900714Y-465714D01*
X1829286Y-465714D01*
X1800714Y-451428D01*
X1786428Y-422857D01*
X1786428Y-394286D01*
X1800714Y-365714D01*
X1829286Y-351428D01*
X1900714Y-351428D01*
X1929286Y-337143D01*
X2072143Y-265714D02*
X2072143Y-565714D01*
X2072143Y-280000D02*
X2100714Y-265714D01*
X2157857Y-265714D01*
X2186429Y-280000D01*
X2200714Y-294286D01*
X2215000Y-322857D01*
X2215000Y-408571D01*
X2200714Y-437143D01*
X2186429Y-451428D01*
X2157857Y-465714D01*
X2100714Y-465714D01*
X2072143Y-451428D01*
X2343571Y-437143D02*
X2357857Y-451428D01*
X2343571Y-465714D01*
X2329286Y-451428D01*
X2343571Y-437143D01*
X2343571Y-465714D01*
X2343571Y-280000D02*
X2357857Y-294286D01*
X2343571Y-308571D01*
X2329286Y-294286D01*
X2343571Y-280000D01*
X2343571Y-308571D01*
X-40000Y-940000D02*
X0Y-980000D01*
X0Y-940000D02*
X-40000Y-980000D01*
X343571Y-795714D02*
X372143Y-795714D01*
X400714Y-810000D01*
X415000Y-824286D01*
X429286Y-852857D01*
X443571Y-910000D01*
X443571Y-981428D01*
X429286Y-1038571D01*
X415000Y-1067143D01*
X400714Y-1081429D01*
X372143Y-1095714D01*
X343571Y-1095714D01*
X315000Y-1081429D01*
X300714Y-1067143D01*
X286429Y-1038571D01*
X272143Y-981428D01*
X272143Y-910000D01*
X286429Y-852857D01*
X300714Y-824286D01*
X315000Y-810000D01*
X343571Y-795714D01*
X572143Y-1067143D02*
X586429Y-1081429D01*
X572143Y-1095714D01*
X557857Y-1081429D01*
X572143Y-1067143D01*
X572143Y-1095714D01*
X843571Y-895714D02*
X843571Y-1095714D01*
X772143Y-781428D02*
X700714Y-995714D01*
X886428Y-995714D01*
X1057857Y-795714D02*
X1086429Y-795714D01*
X1115000Y-810000D01*
X1129286Y-824286D01*
X1143571Y-852857D01*
X1157857Y-910000D01*
X1157857Y-981428D01*
X1143571Y-1038571D01*
X1129286Y-1067143D01*
X1115000Y-1081429D01*
X1086429Y-1095714D01*
X1057857Y-1095714D01*
X1029286Y-1081429D01*
X1015000Y-1067143D01*
X1000714Y-1038571D01*
X986428Y-981428D01*
X986428Y-910000D01*
X1000714Y-852857D01*
X1015000Y-824286D01*
X1029286Y-810000D01*
X1057857Y-795714D01*
X1286429Y-1095714D02*
X1286429Y-895714D01*
X1286429Y-924286D02*
X1300714Y-910000D01*
X1329286Y-895714D01*
X1372143Y-895714D01*
X1400714Y-910000D01*
X1415000Y-938571D01*
X1415000Y-1095714D01*
X1415000Y-938571D02*
X1429286Y-910000D01*
X1457857Y-895714D01*
X1500714Y-895714D01*
X1529286Y-910000D01*
X1543571Y-938571D01*
X1543571Y-1095714D01*
X1686428Y-1095714D02*
X1686428Y-895714D01*
X1686428Y-924286D02*
X1700714Y-910000D01*
X1729286Y-895714D01*
X1772143Y-895714D01*
X1800714Y-910000D01*
X1815000Y-938571D01*
X1815000Y-1095714D01*
X1815000Y-938571D02*
X1829286Y-910000D01*
X1857857Y-895714D01*
X1900714Y-895714D01*
X1929286Y-910000D01*
X1943571Y-938571D01*
X1943571Y-1095714D01*
X2529286Y-781428D02*
X2272143Y-1167143D01*
X2915000Y-795714D02*
X2943571Y-795714D01*
X2972143Y-810000D01*
X2986428Y-824286D01*
X3000714Y-852857D01*
X3015000Y-910000D01*
X3015000Y-981428D01*
X3000714Y-1038571D01*
X2986428Y-1067143D01*
X2972143Y-1081429D01*
X2943571Y-1095714D01*
X2915000Y-1095714D01*
X2886428Y-1081429D01*
X2872143Y-1067143D01*
X2857857Y-1038571D01*
X2843571Y-981428D01*
X2843571Y-910000D01*
X2857857Y-852857D01*
X2872143Y-824286D01*
X2886428Y-810000D01*
X2915000Y-795714D01*
X3143571Y-1067143D02*
X3157857Y-1081429D01*
X3143571Y-1095714D01*
X3129286Y-1081429D01*
X3143571Y-1067143D01*
X3143571Y-1095714D01*
X3343571Y-795714D02*
X3372143Y-795714D01*
X3400714Y-810000D01*
X3415000Y-824286D01*
X3429286Y-852857D01*
X3443571Y-910000D01*
X3443571Y-981428D01*
X3429286Y-1038571D01*
X3415000Y-1067143D01*
X3400714Y-1081429D01*
X3372143Y-1095714D01*
X3343571Y-1095714D01*
X3315000Y-1081429D01*
X3300714Y-1067143D01*
X3286428Y-1038571D01*
X3272143Y-981428D01*
X3272143Y-910000D01*
X3286428Y-852857D01*
X3300714Y-824286D01*
X3315000Y-810000D01*
X3343571Y-795714D01*
X3729286Y-1095714D02*
X3557857Y-1095714D01*
X3643571Y-1095714D02*
X3643571Y-795714D01*
X3615000Y-838571D01*
X3586428Y-867143D01*
X3557857Y-881428D01*
X3986428Y-795714D02*
X3929286Y-795714D01*
X3900714Y-810000D01*
X3886428Y-824286D01*
X3857857Y-867143D01*
X3843571Y-924286D01*
X3843571Y-1038571D01*
X3857857Y-1067143D01*
X3872143Y-1081429D01*
X3900714Y-1095714D01*
X3957857Y-1095714D01*
X3986428Y-1081429D01*
X4000714Y-1067143D01*
X4015000Y-1038571D01*
X4015000Y-967143D01*
X4000714Y-938571D01*
X3986428Y-924286D01*
X3957857Y-910000D01*
X3900714Y-910000D01*
X3872143Y-924286D01*
X3857857Y-938571D01*
X3843571Y-967143D01*
X4129286Y-795714D02*
X4129286Y-852857D01*
X4243571Y-795714D02*
X4243571Y-852857D01*
X4686429Y-1210000D02*
X4672143Y-1195714D01*
X4643571Y-1152857D01*
X4629286Y-1124286D01*
X4615000Y-1081429D01*
X4600714Y-1010000D01*
X4600714Y-952857D01*
X4615000Y-881428D01*
X4629286Y-838571D01*
X4643571Y-810000D01*
X4672143Y-767143D01*
X4686429Y-752857D01*
X4772143Y-795714D02*
X4957857Y-795714D01*
X4857857Y-910000D01*
X4900714Y-910000D01*
X4929286Y-924286D01*
X4943571Y-938571D01*
X4957857Y-967143D01*
X4957857Y-1038571D01*
X4943571Y-1067143D01*
X4929286Y-1081429D01*
X4900714Y-1095714D01*
X4815000Y-1095714D01*
X4786429Y-1081429D01*
X4772143Y-1067143D01*
X5143571Y-795714D02*
X5172143Y-795714D01*
X5200714Y-810000D01*
X5215000Y-824286D01*
X5229286Y-852857D01*
X5243571Y-910000D01*
X5243571Y-981428D01*
X5229286Y-1038571D01*
X5215000Y-1067143D01*
X5200714Y-1081429D01*
X5172143Y-1095714D01*
X5143571Y-1095714D01*
X5115000Y-1081429D01*
X5100714Y-1067143D01*
X5086429Y-1038571D01*
X5072143Y-981428D01*
X5072143Y-910000D01*
X5086429Y-852857D01*
X5100714Y-824286D01*
X5115000Y-810000D01*
X5143571Y-795714D01*
X5600714Y-1095714D02*
X5600714Y-795714D01*
X5729286Y-1095714D02*
X5729286Y-938571D01*
X5715000Y-910000D01*
X5686428Y-895714D01*
X5643571Y-895714D01*
X5615000Y-910000D01*
X5600714Y-924286D01*
X5915000Y-1095714D02*
X5886428Y-1081429D01*
X5872143Y-1067143D01*
X5857857Y-1038571D01*
X5857857Y-952857D01*
X5872143Y-924286D01*
X5886428Y-910000D01*
X5915000Y-895714D01*
X5957857Y-895714D01*
X5986428Y-910000D01*
X6000714Y-924286D01*
X6015000Y-952857D01*
X6015000Y-1038571D01*
X6000714Y-1067143D01*
X5986428Y-1081429D01*
X5957857Y-1095714D01*
X5915000Y-1095714D01*
X6186428Y-1095714D02*
X6157857Y-1081429D01*
X6143571Y-1052857D01*
X6143571Y-795714D01*
X6415000Y-1081429D02*
X6386428Y-1095714D01*
X6329286Y-1095714D01*
X6300714Y-1081429D01*
X6286428Y-1052857D01*
X6286428Y-938571D01*
X6300714Y-910000D01*
X6329286Y-895714D01*
X6386428Y-895714D01*
X6415000Y-910000D01*
X6429286Y-938571D01*
X6429286Y-967143D01*
X6286428Y-995714D01*
X6543571Y-1081429D02*
X6572143Y-1095714D01*
X6629286Y-1095714D01*
X6657857Y-1081429D01*
X6672143Y-1052857D01*
X6672143Y-1038571D01*
X6657857Y-1010000D01*
X6629286Y-995714D01*
X6586428Y-995714D01*
X6557857Y-981428D01*
X6543571Y-952857D01*
X6543571Y-938571D01*
X6557857Y-910000D01*
X6586428Y-895714D01*
X6629286Y-895714D01*
X6657857Y-910000D01*
X6772143Y-1210000D02*
X6786428Y-1195714D01*
X6815000Y-1152857D01*
X6829286Y-1124286D01*
X6843571Y-1081429D01*
X6857857Y-1010000D01*
X6857857Y-952857D01*
X6843571Y-881428D01*
X6829286Y-838571D01*
X6815000Y-810000D01*
X6786428Y-767143D01*
X6772143Y-752857D01*
X0Y-1356000D02*
G75*
G03X0Y-1356000I-35000J0D01*
G01*
X343571Y-1191714D02*
X372143Y-1191714D01*
X400714Y-1206000D01*
X415000Y-1220286D01*
X429286Y-1248857D01*
X443571Y-1306000D01*
X443571Y-1377429D01*
X429286Y-1434571D01*
X415000Y-1463143D01*
X400714Y-1477428D01*
X372143Y-1491714D01*
X343571Y-1491714D01*
X315000Y-1477428D01*
X300714Y-1463143D01*
X286429Y-1434571D01*
X272143Y-1377429D01*
X272143Y-1306000D01*
X286429Y-1248857D01*
X300714Y-1220286D01*
X315000Y-1206000D01*
X343571Y-1191714D01*
X572143Y-1463143D02*
X586429Y-1477428D01*
X572143Y-1491714D01*
X557857Y-1477428D01*
X572143Y-1463143D01*
X572143Y-1491714D01*
X686429Y-1191714D02*
X886428Y-1191714D01*
X757857Y-1491714D01*
X1057857Y-1191714D02*
X1086429Y-1191714D01*
X1115000Y-1206000D01*
X1129286Y-1220286D01*
X1143571Y-1248857D01*
X1157857Y-1306000D01*
X1157857Y-1377429D01*
X1143571Y-1434571D01*
X1129286Y-1463143D01*
X1115000Y-1477428D01*
X1086429Y-1491714D01*
X1057857Y-1491714D01*
X1029286Y-1477428D01*
X1015000Y-1463143D01*
X1000714Y-1434571D01*
X986428Y-1377429D01*
X986428Y-1306000D01*
X1000714Y-1248857D01*
X1015000Y-1220286D01*
X1029286Y-1206000D01*
X1057857Y-1191714D01*
X1286429Y-1491714D02*
X1286429Y-1291714D01*
X1286429Y-1320286D02*
X1300714Y-1306000D01*
X1329286Y-1291714D01*
X1372143Y-1291714D01*
X1400714Y-1306000D01*
X1415000Y-1334571D01*
X1415000Y-1491714D01*
X1415000Y-1334571D02*
X1429286Y-1306000D01*
X1457857Y-1291714D01*
X1500714Y-1291714D01*
X1529286Y-1306000D01*
X1543571Y-1334571D01*
X1543571Y-1491714D01*
X1686428Y-1491714D02*
X1686428Y-1291714D01*
X1686428Y-1320286D02*
X1700714Y-1306000D01*
X1729286Y-1291714D01*
X1772143Y-1291714D01*
X1800714Y-1306000D01*
X1815000Y-1334571D01*
X1815000Y-1491714D01*
X1815000Y-1334571D02*
X1829286Y-1306000D01*
X1857857Y-1291714D01*
X1900714Y-1291714D01*
X1929286Y-1306000D01*
X1943571Y-1334571D01*
X1943571Y-1491714D01*
X2529286Y-1177429D02*
X2272143Y-1563143D01*
X2915000Y-1191714D02*
X2943571Y-1191714D01*
X2972143Y-1206000D01*
X2986428Y-1220286D01*
X3000714Y-1248857D01*
X3015000Y-1306000D01*
X3015000Y-1377429D01*
X3000714Y-1434571D01*
X2986428Y-1463143D01*
X2972143Y-1477428D01*
X2943571Y-1491714D01*
X2915000Y-1491714D01*
X2886428Y-1477428D01*
X2872143Y-1463143D01*
X2857857Y-1434571D01*
X2843571Y-1377429D01*
X2843571Y-1306000D01*
X2857857Y-1248857D01*
X2872143Y-1220286D01*
X2886428Y-1206000D01*
X2915000Y-1191714D01*
X3143571Y-1463143D02*
X3157857Y-1477428D01*
X3143571Y-1491714D01*
X3129286Y-1477428D01*
X3143571Y-1463143D01*
X3143571Y-1491714D01*
X3343571Y-1191714D02*
X3372143Y-1191714D01*
X3400714Y-1206000D01*
X3415000Y-1220286D01*
X3429286Y-1248857D01*
X3443571Y-1306000D01*
X3443571Y-1377429D01*
X3429286Y-1434571D01*
X3415000Y-1463143D01*
X3400714Y-1477428D01*
X3372143Y-1491714D01*
X3343571Y-1491714D01*
X3315000Y-1477428D01*
X3300714Y-1463143D01*
X3286428Y-1434571D01*
X3272143Y-1377429D01*
X3272143Y-1306000D01*
X3286428Y-1248857D01*
X3300714Y-1220286D01*
X3315000Y-1206000D01*
X3343571Y-1191714D01*
X3557857Y-1220286D02*
X3572143Y-1206000D01*
X3600714Y-1191714D01*
X3672143Y-1191714D01*
X3700714Y-1206000D01*
X3715000Y-1220286D01*
X3729286Y-1248857D01*
X3729286Y-1277429D01*
X3715000Y-1320286D01*
X3543571Y-1491714D01*
X3729286Y-1491714D01*
X3900714Y-1320286D02*
X3872143Y-1306000D01*
X3857857Y-1291714D01*
X3843571Y-1263143D01*
X3843571Y-1248857D01*
X3857857Y-1220286D01*
X3872143Y-1206000D01*
X3900714Y-1191714D01*
X3957857Y-1191714D01*
X3986428Y-1206000D01*
X4000714Y-1220286D01*
X4015000Y-1248857D01*
X4015000Y-1263143D01*
X4000714Y-1291714D01*
X3986428Y-1306000D01*
X3957857Y-1320286D01*
X3900714Y-1320286D01*
X3872143Y-1334571D01*
X3857857Y-1348857D01*
X3843571Y-1377429D01*
X3843571Y-1434571D01*
X3857857Y-1463143D01*
X3872143Y-1477428D01*
X3900714Y-1491714D01*
X3957857Y-1491714D01*
X3986428Y-1477428D01*
X4000714Y-1463143D01*
X4015000Y-1434571D01*
X4015000Y-1377429D01*
X4000714Y-1348857D01*
X3986428Y-1334571D01*
X3957857Y-1320286D01*
X4129286Y-1191714D02*
X4129286Y-1248857D01*
X4243571Y-1191714D02*
X4243571Y-1248857D01*
X4686429Y-1606000D02*
X4672143Y-1591714D01*
X4643571Y-1548857D01*
X4629286Y-1520286D01*
X4615000Y-1477428D01*
X4600714Y-1406000D01*
X4600714Y-1348857D01*
X4615000Y-1277429D01*
X4629286Y-1234571D01*
X4643571Y-1206000D01*
X4672143Y-1163143D01*
X4686429Y-1148857D01*
X4786429Y-1220286D02*
X4800714Y-1206000D01*
X4829286Y-1191714D01*
X4900714Y-1191714D01*
X4929286Y-1206000D01*
X4943571Y-1220286D01*
X4957857Y-1248857D01*
X4957857Y-1277429D01*
X4943571Y-1320286D01*
X4772143Y-1491714D01*
X4957857Y-1491714D01*
X5315000Y-1491714D02*
X5315000Y-1191714D01*
X5443571Y-1491714D02*
X5443571Y-1334571D01*
X5429286Y-1306000D01*
X5400714Y-1291714D01*
X5357857Y-1291714D01*
X5329286Y-1306000D01*
X5315000Y-1320286D01*
X5629286Y-1491714D02*
X5600714Y-1477428D01*
X5586429Y-1463143D01*
X5572143Y-1434571D01*
X5572143Y-1348857D01*
X5586429Y-1320286D01*
X5600714Y-1306000D01*
X5629286Y-1291714D01*
X5672143Y-1291714D01*
X5700714Y-1306000D01*
X5715000Y-1320286D01*
X5729286Y-1348857D01*
X5729286Y-1434571D01*
X5715000Y-1463143D01*
X5700714Y-1477428D01*
X5672143Y-1491714D01*
X5629286Y-1491714D01*
X5900714Y-1491714D02*
X5872143Y-1477428D01*
X5857857Y-1448857D01*
X5857857Y-1191714D01*
X6129286Y-1477428D02*
X6100714Y-1491714D01*
X6043571Y-1491714D01*
X6015000Y-1477428D01*
X6000714Y-1448857D01*
X6000714Y-1334571D01*
X6015000Y-1306000D01*
X6043571Y-1291714D01*
X6100714Y-1291714D01*
X6129286Y-1306000D01*
X6143571Y-1334571D01*
X6143571Y-1363143D01*
X6000714Y-1391714D01*
X6257857Y-1477428D02*
X6286428Y-1491714D01*
X6343571Y-1491714D01*
X6372143Y-1477428D01*
X6386428Y-1448857D01*
X6386428Y-1434571D01*
X6372143Y-1406000D01*
X6343571Y-1391714D01*
X6300714Y-1391714D01*
X6272143Y-1377429D01*
X6257857Y-1348857D01*
X6257857Y-1334571D01*
X6272143Y-1306000D01*
X6300714Y-1291714D01*
X6343571Y-1291714D01*
X6372143Y-1306000D01*
X6486428Y-1606000D02*
X6500714Y-1591714D01*
X6529286Y-1548857D01*
X6543571Y-1520286D01*
X6557857Y-1477428D01*
X6572143Y-1406000D01*
X6572143Y-1348857D01*
X6557857Y-1277429D01*
X6543571Y-1234571D01*
X6529286Y-1206000D01*
X6500714Y-1163143D01*
X6486428Y-1148857D01*
X-40000Y-1712000D02*
X-40000Y-1792000D01*
X-80000Y-1752000D02*
X0Y-1752000D01*
X343571Y-1587714D02*
X372143Y-1587714D01*
X400714Y-1602000D01*
X415000Y-1616286D01*
X429286Y-1644857D01*
X443571Y-1702000D01*
X443571Y-1773428D01*
X429286Y-1830571D01*
X415000Y-1859143D01*
X400714Y-1873428D01*
X372143Y-1887714D01*
X343571Y-1887714D01*
X315000Y-1873428D01*
X300714Y-1859143D01*
X286429Y-1830571D01*
X272143Y-1773428D01*
X272143Y-1702000D01*
X286429Y-1644857D01*
X300714Y-1616286D01*
X315000Y-1602000D01*
X343571Y-1587714D01*
X572143Y-1859143D02*
X586429Y-1873428D01*
X572143Y-1887714D01*
X557857Y-1873428D01*
X572143Y-1859143D01*
X572143Y-1887714D01*
X757857Y-1716286D02*
X729286Y-1702000D01*
X715000Y-1687714D01*
X700714Y-1659143D01*
X700714Y-1644857D01*
X715000Y-1616286D01*
X729286Y-1602000D01*
X757857Y-1587714D01*
X815000Y-1587714D01*
X843571Y-1602000D01*
X857857Y-1616286D01*
X872143Y-1644857D01*
X872143Y-1659143D01*
X857857Y-1687714D01*
X843571Y-1702000D01*
X815000Y-1716286D01*
X757857Y-1716286D01*
X729286Y-1730571D01*
X715000Y-1744857D01*
X700714Y-1773428D01*
X700714Y-1830571D01*
X715000Y-1859143D01*
X729286Y-1873428D01*
X757857Y-1887714D01*
X815000Y-1887714D01*
X843571Y-1873428D01*
X857857Y-1859143D01*
X872143Y-1830571D01*
X872143Y-1773428D01*
X857857Y-1744857D01*
X843571Y-1730571D01*
X815000Y-1716286D01*
X1057857Y-1587714D02*
X1086429Y-1587714D01*
X1115000Y-1602000D01*
X1129286Y-1616286D01*
X1143571Y-1644857D01*
X1157857Y-1702000D01*
X1157857Y-1773428D01*
X1143571Y-1830571D01*
X1129286Y-1859143D01*
X1115000Y-1873428D01*
X1086429Y-1887714D01*
X1057857Y-1887714D01*
X1029286Y-1873428D01*
X1015000Y-1859143D01*
X1000714Y-1830571D01*
X986428Y-1773428D01*
X986428Y-1702000D01*
X1000714Y-1644857D01*
X1015000Y-1616286D01*
X1029286Y-1602000D01*
X1057857Y-1587714D01*
X1286429Y-1887714D02*
X1286429Y-1687714D01*
X1286429Y-1716286D02*
X1300714Y-1702000D01*
X1329286Y-1687714D01*
X1372143Y-1687714D01*
X1400714Y-1702000D01*
X1415000Y-1730571D01*
X1415000Y-1887714D01*
X1415000Y-1730571D02*
X1429286Y-1702000D01*
X1457857Y-1687714D01*
X1500714Y-1687714D01*
X1529286Y-1702000D01*
X1543571Y-1730571D01*
X1543571Y-1887714D01*
X1686428Y-1887714D02*
X1686428Y-1687714D01*
X1686428Y-1716286D02*
X1700714Y-1702000D01*
X1729286Y-1687714D01*
X1772143Y-1687714D01*
X1800714Y-1702000D01*
X1815000Y-1730571D01*
X1815000Y-1887714D01*
X1815000Y-1730571D02*
X1829286Y-1702000D01*
X1857857Y-1687714D01*
X1900714Y-1687714D01*
X1929286Y-1702000D01*
X1943571Y-1730571D01*
X1943571Y-1887714D01*
X2529286Y-1573428D02*
X2272143Y-1959143D01*
X2915000Y-1587714D02*
X2943571Y-1587714D01*
X2972143Y-1602000D01*
X2986428Y-1616286D01*
X3000714Y-1644857D01*
X3015000Y-1702000D01*
X3015000Y-1773428D01*
X3000714Y-1830571D01*
X2986428Y-1859143D01*
X2972143Y-1873428D01*
X2943571Y-1887714D01*
X2915000Y-1887714D01*
X2886428Y-1873428D01*
X2872143Y-1859143D01*
X2857857Y-1830571D01*
X2843571Y-1773428D01*
X2843571Y-1702000D01*
X2857857Y-1644857D01*
X2872143Y-1616286D01*
X2886428Y-1602000D01*
X2915000Y-1587714D01*
X3143571Y-1859143D02*
X3157857Y-1873428D01*
X3143571Y-1887714D01*
X3129286Y-1873428D01*
X3143571Y-1859143D01*
X3143571Y-1887714D01*
X3343571Y-1587714D02*
X3372143Y-1587714D01*
X3400714Y-1602000D01*
X3415000Y-1616286D01*
X3429286Y-1644857D01*
X3443571Y-1702000D01*
X3443571Y-1773428D01*
X3429286Y-1830571D01*
X3415000Y-1859143D01*
X3400714Y-1873428D01*
X3372143Y-1887714D01*
X3343571Y-1887714D01*
X3315000Y-1873428D01*
X3300714Y-1859143D01*
X3286428Y-1830571D01*
X3272143Y-1773428D01*
X3272143Y-1702000D01*
X3286428Y-1644857D01*
X3300714Y-1616286D01*
X3315000Y-1602000D01*
X3343571Y-1587714D01*
X3543571Y-1587714D02*
X3729286Y-1587714D01*
X3629286Y-1702000D01*
X3672143Y-1702000D01*
X3700714Y-1716286D01*
X3715000Y-1730571D01*
X3729286Y-1759143D01*
X3729286Y-1830571D01*
X3715000Y-1859143D01*
X3700714Y-1873428D01*
X3672143Y-1887714D01*
X3586428Y-1887714D01*
X3557857Y-1873428D01*
X3543571Y-1859143D01*
X4015000Y-1887714D02*
X3843571Y-1887714D01*
X3929286Y-1887714D02*
X3929286Y-1587714D01*
X3900714Y-1630571D01*
X3872143Y-1659143D01*
X3843571Y-1673428D01*
X4129286Y-1587714D02*
X4129286Y-1644857D01*
X4243571Y-1587714D02*
X4243571Y-1644857D01*
X4686429Y-2002000D02*
X4672143Y-1987714D01*
X4643571Y-1944857D01*
X4629286Y-1916286D01*
X4615000Y-1873428D01*
X4600714Y-1802000D01*
X4600714Y-1744857D01*
X4615000Y-1673428D01*
X4629286Y-1630571D01*
X4643571Y-1602000D01*
X4672143Y-1559143D01*
X4686429Y-1544857D01*
X4929286Y-1587714D02*
X4872143Y-1587714D01*
X4843571Y-1602000D01*
X4829286Y-1616286D01*
X4800714Y-1659143D01*
X4786429Y-1716286D01*
X4786429Y-1830571D01*
X4800714Y-1859143D01*
X4815000Y-1873428D01*
X4843571Y-1887714D01*
X4900714Y-1887714D01*
X4929286Y-1873428D01*
X4943571Y-1859143D01*
X4957857Y-1830571D01*
X4957857Y-1759143D01*
X4943571Y-1730571D01*
X4929286Y-1716286D01*
X4900714Y-1702000D01*
X4843571Y-1702000D01*
X4815000Y-1716286D01*
X4800714Y-1730571D01*
X4786429Y-1759143D01*
X5215000Y-1687714D02*
X5215000Y-1887714D01*
X5143571Y-1573428D02*
X5072143Y-1787714D01*
X5257857Y-1787714D01*
X5600714Y-1887714D02*
X5600714Y-1587714D01*
X5729286Y-1887714D02*
X5729286Y-1730571D01*
X5715000Y-1702000D01*
X5686428Y-1687714D01*
X5643571Y-1687714D01*
X5615000Y-1702000D01*
X5600714Y-1716286D01*
X5915000Y-1887714D02*
X5886428Y-1873428D01*
X5872143Y-1859143D01*
X5857857Y-1830571D01*
X5857857Y-1744857D01*
X5872143Y-1716286D01*
X5886428Y-1702000D01*
X5915000Y-1687714D01*
X5957857Y-1687714D01*
X5986428Y-1702000D01*
X6000714Y-1716286D01*
X6015000Y-1744857D01*
X6015000Y-1830571D01*
X6000714Y-1859143D01*
X5986428Y-1873428D01*
X5957857Y-1887714D01*
X5915000Y-1887714D01*
X6186428Y-1887714D02*
X6157857Y-1873428D01*
X6143571Y-1844857D01*
X6143571Y-1587714D01*
X6415000Y-1873428D02*
X6386428Y-1887714D01*
X6329286Y-1887714D01*
X6300714Y-1873428D01*
X6286428Y-1844857D01*
X6286428Y-1730571D01*
X6300714Y-1702000D01*
X6329286Y-1687714D01*
X6386428Y-1687714D01*
X6415000Y-1702000D01*
X6429286Y-1730571D01*
X6429286Y-1759143D01*
X6286428Y-1787714D01*
X6543571Y-1873428D02*
X6572143Y-1887714D01*
X6629286Y-1887714D01*
X6657857Y-1873428D01*
X6672143Y-1844857D01*
X6672143Y-1830571D01*
X6657857Y-1802000D01*
X6629286Y-1787714D01*
X6586428Y-1787714D01*
X6557857Y-1773428D01*
X6543571Y-1744857D01*
X6543571Y-1730571D01*
X6557857Y-1702000D01*
X6586428Y-1687714D01*
X6629286Y-1687714D01*
X6657857Y-1702000D01*
X6772143Y-2002000D02*
X6786428Y-1987714D01*
X6815000Y-1944857D01*
X6829286Y-1916286D01*
X6843571Y-1873428D01*
X6857857Y-1802000D01*
X6857857Y-1744857D01*
X6843571Y-1673428D01*
X6829286Y-1630571D01*
X6815000Y-1602000D01*
X6786428Y-1559143D01*
X6772143Y-1544857D01*
X-14644Y-2183356D02*
X-14644Y-2112644D01*
X-85356Y-2112644D01*
X-85356Y-2183356D01*
X-14644Y-2183356D01*
X443571Y-2283714D02*
X272143Y-2283714D01*
X357857Y-2283714D02*
X357857Y-1983714D01*
X329286Y-2026571D01*
X300714Y-2055143D01*
X272143Y-2069428D01*
X572143Y-2255143D02*
X586429Y-2269429D01*
X572143Y-2283714D01*
X557857Y-2269429D01*
X572143Y-2255143D01*
X572143Y-2283714D01*
X772143Y-1983714D02*
X800714Y-1983714D01*
X829286Y-1998000D01*
X843571Y-2012286D01*
X857857Y-2040857D01*
X872143Y-2098000D01*
X872143Y-2169429D01*
X857857Y-2226571D01*
X843571Y-2255143D01*
X829286Y-2269429D01*
X800714Y-2283714D01*
X772143Y-2283714D01*
X743571Y-2269429D01*
X729286Y-2255143D01*
X715000Y-2226571D01*
X700714Y-2169429D01*
X700714Y-2098000D01*
X715000Y-2040857D01*
X729286Y-2012286D01*
X743571Y-1998000D01*
X772143Y-1983714D01*
X1057857Y-1983714D02*
X1086429Y-1983714D01*
X1115000Y-1998000D01*
X1129286Y-2012286D01*
X1143571Y-2040857D01*
X1157857Y-2098000D01*
X1157857Y-2169429D01*
X1143571Y-2226571D01*
X1129286Y-2255143D01*
X1115000Y-2269429D01*
X1086429Y-2283714D01*
X1057857Y-2283714D01*
X1029286Y-2269429D01*
X1015000Y-2255143D01*
X1000714Y-2226571D01*
X986428Y-2169429D01*
X986428Y-2098000D01*
X1000714Y-2040857D01*
X1015000Y-2012286D01*
X1029286Y-1998000D01*
X1057857Y-1983714D01*
X1286429Y-2283714D02*
X1286429Y-2083714D01*
X1286429Y-2112286D02*
X1300714Y-2098000D01*
X1329286Y-2083714D01*
X1372143Y-2083714D01*
X1400714Y-2098000D01*
X1415000Y-2126571D01*
X1415000Y-2283714D01*
X1415000Y-2126571D02*
X1429286Y-2098000D01*
X1457857Y-2083714D01*
X1500714Y-2083714D01*
X1529286Y-2098000D01*
X1543571Y-2126571D01*
X1543571Y-2283714D01*
X1686428Y-2283714D02*
X1686428Y-2083714D01*
X1686428Y-2112286D02*
X1700714Y-2098000D01*
X1729286Y-2083714D01*
X1772143Y-2083714D01*
X1800714Y-2098000D01*
X1815000Y-2126571D01*
X1815000Y-2283714D01*
X1815000Y-2126571D02*
X1829286Y-2098000D01*
X1857857Y-2083714D01*
X1900714Y-2083714D01*
X1929286Y-2098000D01*
X1943571Y-2126571D01*
X1943571Y-2283714D01*
X2529286Y-1969428D02*
X2272143Y-2355143D01*
X2915000Y-1983714D02*
X2943571Y-1983714D01*
X2972143Y-1998000D01*
X2986428Y-2012286D01*
X3000714Y-2040857D01*
X3015000Y-2098000D01*
X3015000Y-2169429D01*
X3000714Y-2226571D01*
X2986428Y-2255143D01*
X2972143Y-2269429D01*
X2943571Y-2283714D01*
X2915000Y-2283714D01*
X2886428Y-2269429D01*
X2872143Y-2255143D01*
X2857857Y-2226571D01*
X2843571Y-2169429D01*
X2843571Y-2098000D01*
X2857857Y-2040857D01*
X2872143Y-2012286D01*
X2886428Y-1998000D01*
X2915000Y-1983714D01*
X3143571Y-2255143D02*
X3157857Y-2269429D01*
X3143571Y-2283714D01*
X3129286Y-2269429D01*
X3143571Y-2255143D01*
X3143571Y-2283714D01*
X3343571Y-1983714D02*
X3372143Y-1983714D01*
X3400714Y-1998000D01*
X3415000Y-2012286D01*
X3429286Y-2040857D01*
X3443571Y-2098000D01*
X3443571Y-2169429D01*
X3429286Y-2226571D01*
X3415000Y-2255143D01*
X3400714Y-2269429D01*
X3372143Y-2283714D01*
X3343571Y-2283714D01*
X3315000Y-2269429D01*
X3300714Y-2255143D01*
X3286428Y-2226571D01*
X3272143Y-2169429D01*
X3272143Y-2098000D01*
X3286428Y-2040857D01*
X3300714Y-2012286D01*
X3315000Y-1998000D01*
X3343571Y-1983714D01*
X3543571Y-1983714D02*
X3729286Y-1983714D01*
X3629286Y-2098000D01*
X3672143Y-2098000D01*
X3700714Y-2112286D01*
X3715000Y-2126571D01*
X3729286Y-2155143D01*
X3729286Y-2226571D01*
X3715000Y-2255143D01*
X3700714Y-2269429D01*
X3672143Y-2283714D01*
X3586428Y-2283714D01*
X3557857Y-2269429D01*
X3543571Y-2255143D01*
X3872143Y-2283714D02*
X3929286Y-2283714D01*
X3957857Y-2269429D01*
X3972143Y-2255143D01*
X4000714Y-2212286D01*
X4015000Y-2155143D01*
X4015000Y-2040857D01*
X4000714Y-2012286D01*
X3986428Y-1998000D01*
X3957857Y-1983714D01*
X3900714Y-1983714D01*
X3872143Y-1998000D01*
X3857857Y-2012286D01*
X3843571Y-2040857D01*
X3843571Y-2112286D01*
X3857857Y-2140857D01*
X3872143Y-2155143D01*
X3900714Y-2169429D01*
X3957857Y-2169429D01*
X3986428Y-2155143D01*
X4000714Y-2140857D01*
X4015000Y-2112286D01*
X4129286Y-1983714D02*
X4129286Y-2040857D01*
X4243571Y-1983714D02*
X4243571Y-2040857D01*
X4686429Y-2398000D02*
X4672143Y-2383714D01*
X4643571Y-2340857D01*
X4629286Y-2312286D01*
X4615000Y-2269429D01*
X4600714Y-2198000D01*
X4600714Y-2140857D01*
X4615000Y-2069428D01*
X4629286Y-2026571D01*
X4643571Y-1998000D01*
X4672143Y-1955143D01*
X4686429Y-1940857D01*
X4772143Y-1983714D02*
X4957857Y-1983714D01*
X4857857Y-2098000D01*
X4900714Y-2098000D01*
X4929286Y-2112286D01*
X4943571Y-2126571D01*
X4957857Y-2155143D01*
X4957857Y-2226571D01*
X4943571Y-2255143D01*
X4929286Y-2269429D01*
X4900714Y-2283714D01*
X4815000Y-2283714D01*
X4786429Y-2269429D01*
X4772143Y-2255143D01*
X5315000Y-2283714D02*
X5315000Y-1983714D01*
X5443571Y-2283714D02*
X5443571Y-2126571D01*
X5429286Y-2098000D01*
X5400714Y-2083714D01*
X5357857Y-2083714D01*
X5329286Y-2098000D01*
X5315000Y-2112286D01*
X5629286Y-2283714D02*
X5600714Y-2269429D01*
X5586429Y-2255143D01*
X5572143Y-2226571D01*
X5572143Y-2140857D01*
X5586429Y-2112286D01*
X5600714Y-2098000D01*
X5629286Y-2083714D01*
X5672143Y-2083714D01*
X5700714Y-2098000D01*
X5715000Y-2112286D01*
X5729286Y-2140857D01*
X5729286Y-2226571D01*
X5715000Y-2255143D01*
X5700714Y-2269429D01*
X5672143Y-2283714D01*
X5629286Y-2283714D01*
X5900714Y-2283714D02*
X5872143Y-2269429D01*
X5857857Y-2240857D01*
X5857857Y-1983714D01*
X6129286Y-2269429D02*
X6100714Y-2283714D01*
X6043571Y-2283714D01*
X6015000Y-2269429D01*
X6000714Y-2240857D01*
X6000714Y-2126571D01*
X6015000Y-2098000D01*
X6043571Y-2083714D01*
X6100714Y-2083714D01*
X6129286Y-2098000D01*
X6143571Y-2126571D01*
X6143571Y-2155143D01*
X6000714Y-2183714D01*
X6257857Y-2269429D02*
X6286428Y-2283714D01*
X6343571Y-2283714D01*
X6372143Y-2269429D01*
X6386428Y-2240857D01*
X6386428Y-2226571D01*
X6372143Y-2198000D01*
X6343571Y-2183714D01*
X6300714Y-2183714D01*
X6272143Y-2169429D01*
X6257857Y-2140857D01*
X6257857Y-2126571D01*
X6272143Y-2098000D01*
X6300714Y-2083714D01*
X6343571Y-2083714D01*
X6372143Y-2098000D01*
X6486428Y-2398000D02*
X6500714Y-2383714D01*
X6529286Y-2340857D01*
X6543571Y-2312286D01*
X6557857Y-2269429D01*
X6572143Y-2198000D01*
X6572143Y-2140857D01*
X6557857Y-2069428D01*
X6543571Y-2026571D01*
X6529286Y-1998000D01*
X6500714Y-1955143D01*
X6486428Y-1940857D01*
M02*
