G04 #@! TF.GenerationSoftware,KiCad,Pcbnew,(5.1.2)-1*
G04 #@! TF.CreationDate,2019-11-02T02:49:22-04:00*
G04 #@! TF.ProjectId,superzaxxonduo,73757065-727a-4617-9878-6f6e64756f2e,rev?*
G04 #@! TF.SameCoordinates,Original*
G04 #@! TF.FileFunction,Copper,L2,Bot*
G04 #@! TF.FilePolarity,Positive*
%FSLAX46Y46*%
G04 Gerber Fmt 4.6, Leading zero omitted, Abs format (unit mm)*
G04 Created by KiCad (PCBNEW (5.1.2)-1) date 2019-11-02 02:49:22*
%MOMM*%
%LPD*%
G04 APERTURE LIST*
%ADD10C,0.100000*%
%ADD11C,0.500000*%
%ADD12R,1.750000X7.000000*%
%ADD13C,1.600000*%
%ADD14R,1.600000X1.600000*%
%ADD15R,1.700000X1.700000*%
%ADD16O,1.700000X1.700000*%
%ADD17C,1.400000*%
%ADD18O,1.400000X1.400000*%
%ADD19O,1.600000X1.600000*%
%ADD20C,0.600000*%
%ADD21C,1.500000*%
%ADD22C,0.535000*%
%ADD23C,1.000000*%
%ADD24C,0.454000*%
%ADD25C,0.254000*%
G04 APERTURE END LIST*
D10*
G36*
X100965000Y-30099000D02*
G01*
X100711000Y-30099000D01*
X99949000Y-30353000D01*
X99441000Y-29972000D01*
X99060000Y-29718000D01*
X98552000Y-29337000D01*
X101854000Y-29210000D01*
X100965000Y-30099000D01*
G37*
X100965000Y-30099000D02*
X100711000Y-30099000D01*
X99949000Y-30353000D01*
X99441000Y-29972000D01*
X99060000Y-29718000D01*
X98552000Y-29337000D01*
X101854000Y-29210000D01*
X100965000Y-30099000D01*
D11*
X80251300Y-69278500D02*
G75*
G03X81076800Y-70104000I825500J0D01*
G01*
X134835900Y-70104000D02*
G75*
G03X135661400Y-69278500I0J825500D01*
G01*
D10*
G36*
X136842500Y-59690000D02*
G01*
X136842500Y-28003500D01*
X79057500Y-28003500D01*
X79057500Y-59690000D01*
X80454500Y-59690000D01*
X80454500Y-29464000D01*
X80518000Y-29400500D01*
X135382000Y-29400500D01*
X135445500Y-29464000D01*
X135445500Y-59690000D01*
X136842500Y-59690000D01*
G37*
X136842500Y-59690000D02*
X136842500Y-28003500D01*
X79057500Y-28003500D01*
X79057500Y-59690000D01*
X80454500Y-59690000D01*
X80454500Y-29464000D01*
X80518000Y-29400500D01*
X135382000Y-29400500D01*
X135445500Y-29464000D01*
X135445500Y-59690000D01*
X136842500Y-59690000D01*
G36*
X80454500Y-76771500D02*
G01*
X79756000Y-76771500D01*
X79311500Y-76517500D01*
X79057500Y-76073000D01*
X79057500Y-75819000D01*
X79057500Y-59690000D01*
X80454500Y-59690000D01*
X80454500Y-76771500D01*
G37*
X80454500Y-76771500D02*
X79756000Y-76771500D01*
X79311500Y-76517500D01*
X79057500Y-76073000D01*
X79057500Y-75819000D01*
X79057500Y-59690000D01*
X80454500Y-59690000D01*
X80454500Y-76771500D01*
G36*
X135445500Y-76771500D02*
G01*
X136144000Y-76771500D01*
X136588500Y-76517500D01*
X136842500Y-76073000D01*
X136842500Y-75819000D01*
X136842500Y-59690000D01*
X135445500Y-59690000D01*
X135445500Y-76771500D01*
G37*
X135445500Y-76771500D02*
X136144000Y-76771500D01*
X136588500Y-76517500D01*
X136842500Y-76073000D01*
X136842500Y-75819000D01*
X136842500Y-59690000D01*
X135445500Y-59690000D01*
X135445500Y-76771500D01*
D12*
X99060000Y-73342500D03*
X104140000Y-73342500D03*
X96520000Y-73342500D03*
X101600000Y-73342500D03*
X93980000Y-73342500D03*
X81280000Y-73342500D03*
X127000000Y-73342500D03*
X124460000Y-73342500D03*
X132080000Y-73342500D03*
X129540000Y-73342500D03*
X134620000Y-73342500D03*
X111760000Y-73342500D03*
X114300000Y-73342500D03*
X109220000Y-73342500D03*
X121920000Y-73342500D03*
X119380000Y-73342500D03*
X106680000Y-73342500D03*
X116840000Y-73342500D03*
X86360000Y-73342500D03*
X83820000Y-73342500D03*
X88900000Y-73342500D03*
X91440000Y-73342500D03*
D13*
X100330000Y-35600000D03*
X100330000Y-38100000D03*
X115570000Y-32385000D03*
X115570000Y-29885000D03*
X100965000Y-43815000D03*
X98465000Y-43815000D03*
D14*
X81915000Y-59055000D03*
D13*
X81915000Y-61555000D03*
D15*
X95250000Y-45085000D03*
D16*
X95250000Y-47625000D03*
X95250000Y-50165000D03*
D17*
X95250000Y-58420000D03*
D18*
X95250000Y-53340000D03*
D14*
X97155000Y-30480000D03*
D19*
X81915000Y-38100000D03*
X94615000Y-30480000D03*
X84455000Y-38100000D03*
X92075000Y-30480000D03*
X86995000Y-38100000D03*
X89535000Y-30480000D03*
X89535000Y-38100000D03*
X86995000Y-30480000D03*
X92075000Y-38100000D03*
X84455000Y-30480000D03*
X94615000Y-38100000D03*
X81915000Y-30480000D03*
X97155000Y-38100000D03*
X118745000Y-30480000D03*
X133985000Y-38100000D03*
X121285000Y-30480000D03*
X131445000Y-38100000D03*
X123825000Y-30480000D03*
X128905000Y-38100000D03*
X126365000Y-30480000D03*
X126365000Y-38100000D03*
X128905000Y-30480000D03*
X123825000Y-38100000D03*
X131445000Y-30480000D03*
X121285000Y-38100000D03*
X133985000Y-30480000D03*
D14*
X118745000Y-38100000D03*
X100965000Y-61595000D03*
D19*
X133985000Y-46355000D03*
X103505000Y-61595000D03*
X131445000Y-46355000D03*
X106045000Y-61595000D03*
X128905000Y-46355000D03*
X108585000Y-61595000D03*
X126365000Y-46355000D03*
X111125000Y-61595000D03*
X123825000Y-46355000D03*
X113665000Y-61595000D03*
X121285000Y-46355000D03*
X116205000Y-61595000D03*
X118745000Y-46355000D03*
X118745000Y-61595000D03*
X116205000Y-46355000D03*
X121285000Y-61595000D03*
X113665000Y-46355000D03*
X123825000Y-61595000D03*
X111125000Y-46355000D03*
X126365000Y-61595000D03*
X108585000Y-46355000D03*
X128905000Y-61595000D03*
X106045000Y-46355000D03*
X131445000Y-61595000D03*
X103505000Y-46355000D03*
X133985000Y-61595000D03*
X100965000Y-46355000D03*
D20*
X80010000Y-44958000D03*
X135890000Y-44958000D03*
X81915000Y-41148000D03*
X81915000Y-50927000D03*
X84963000Y-56896000D03*
X84963000Y-41021000D03*
X86106000Y-35433000D03*
X93980000Y-35560000D03*
X100330000Y-30480000D03*
X105410000Y-64135000D03*
X102870000Y-65659000D03*
X108077000Y-65532000D03*
X110871000Y-66040000D03*
X111125000Y-57531000D03*
X110744000Y-36322000D03*
X88011000Y-34036000D03*
X98806000Y-34036000D03*
X104775000Y-41275000D03*
X108585000Y-42545000D03*
X109220000Y-43815000D03*
X121285000Y-43815000D03*
X89535000Y-41910000D03*
X103505000Y-40005000D03*
X109781998Y-67564000D03*
X111379000Y-53467000D03*
X112014000Y-67564000D03*
X112395000Y-52324000D03*
X132080000Y-68707000D03*
X112903000Y-68580000D03*
X128651000Y-63754000D03*
D21*
X95250000Y-47625000D02*
X95250000Y-45085000D01*
X97195000Y-45085000D02*
X98465000Y-43815000D01*
X95250000Y-45085000D02*
X97195000Y-45085000D01*
X100330000Y-35600000D02*
X100330000Y-34468630D01*
X100330000Y-34468630D02*
X100330000Y-30480000D01*
D22*
X114260000Y-28575000D02*
X115570000Y-29885000D01*
X100330000Y-29210000D02*
X100965000Y-28575000D01*
X100965000Y-28575000D02*
X114260000Y-28575000D01*
X100330000Y-29210000D02*
X99949000Y-29210000D01*
X99949000Y-29210000D02*
X99314000Y-28575000D01*
X99314000Y-28575000D02*
X80391000Y-28575000D01*
X80391000Y-28575000D02*
X80264000Y-28575000D01*
X80264000Y-28575000D02*
X80010000Y-28829000D01*
X80010000Y-28829000D02*
X80010000Y-44958000D01*
X80010000Y-44958000D02*
X80010000Y-44958000D01*
X80010000Y-49022000D02*
X80010000Y-44958000D01*
D23*
X81915000Y-50927000D02*
X80010000Y-49022000D01*
D22*
X79870000Y-73342500D02*
X81280000Y-73342500D01*
X79502000Y-72974500D02*
X79870000Y-73342500D01*
X79502000Y-68728135D02*
X79502000Y-72974500D01*
D23*
X81915000Y-50927000D02*
X80010000Y-52832000D01*
D22*
X80010000Y-52832000D02*
X80010000Y-68093820D01*
X80010000Y-68093820D02*
X79929230Y-68279770D01*
X79929230Y-68279770D02*
X79883000Y-68326000D01*
X79883000Y-68326000D02*
X79883000Y-68347135D01*
X79883000Y-68347135D02*
X79502000Y-68728135D01*
D21*
X100330000Y-30480000D02*
X100330000Y-29210000D01*
X100965000Y-45223630D02*
X100965000Y-38100000D01*
X100965000Y-46355000D02*
X100965000Y-45223630D01*
X97155000Y-38100000D02*
X100965000Y-38100000D01*
X100965000Y-38100000D02*
X111125000Y-38100000D01*
D22*
X116840000Y-32385000D02*
X118110000Y-31115000D01*
X115570000Y-32385000D02*
X116840000Y-32385000D01*
D21*
X111125000Y-38100000D02*
X118110000Y-31115000D01*
X118110000Y-31115000D02*
X118745000Y-30480000D01*
X100965000Y-52705000D02*
X100965000Y-46355000D01*
X95250000Y-58420000D02*
X100965000Y-52705000D01*
X95250000Y-50165000D02*
X95250000Y-53340000D01*
D22*
X94869000Y-32766000D02*
X97155000Y-30480000D01*
X86233000Y-32766000D02*
X94869000Y-32766000D01*
X83187499Y-35811501D02*
X86233000Y-32766000D01*
X83187499Y-38708401D02*
X83187499Y-35811501D01*
X83820000Y-73342500D02*
X83820000Y-39340902D01*
X83820000Y-39340902D02*
X83187499Y-38708401D01*
D24*
X90807999Y-36827001D02*
X110238999Y-36827001D01*
X89535000Y-38100000D02*
X90807999Y-36827001D01*
X110238999Y-36827001D02*
X110744000Y-36322000D01*
X110744000Y-36322000D02*
X110744000Y-36322000D01*
D22*
X88011000Y-34036000D02*
X98806000Y-34036000D01*
X98806000Y-34036000D02*
X98806000Y-34036000D01*
X111125000Y-41275000D02*
X116205000Y-46355000D01*
X104775000Y-41275000D02*
X111125000Y-41275000D01*
X91440000Y-41275000D02*
X94615000Y-38100000D01*
X91440000Y-73342500D02*
X91440000Y-41275000D01*
X104140000Y-42545000D02*
X108585000Y-42545000D01*
X103505000Y-46355000D02*
X103505000Y-43180000D01*
X103505000Y-43180000D02*
X104140000Y-42545000D01*
X101600000Y-63500000D02*
X103505000Y-61595000D01*
X101600000Y-73342500D02*
X101600000Y-63500000D01*
X107317499Y-48463941D02*
X107317499Y-45717501D01*
X103505000Y-61595000D02*
X103505000Y-52276440D01*
X103505000Y-52276440D02*
X107317499Y-48463941D01*
X107317499Y-45717501D02*
X109220000Y-43815000D01*
X109220000Y-43815000D02*
X109220000Y-43815000D01*
X121285000Y-43815000D02*
X121285000Y-38100000D01*
X86360000Y-70717500D02*
X89535000Y-67542500D01*
X86360000Y-73342500D02*
X86360000Y-70717500D01*
X89535000Y-67542500D02*
X89535000Y-41910000D01*
X89535000Y-41910000D02*
X89535000Y-41910000D01*
X103505000Y-40005000D02*
X116840000Y-40005000D01*
X116840000Y-40005000D02*
X118745000Y-38100000D01*
X114300000Y-69850000D02*
X114300000Y-73342500D01*
X113540640Y-64589020D02*
X114300000Y-65348380D01*
X114300000Y-65348380D02*
X114300000Y-69850000D01*
X107569000Y-63119000D02*
X109069540Y-63119000D01*
X106045000Y-61595000D02*
X107569000Y-63119000D01*
X109069540Y-63119000D02*
X109831540Y-63881000D01*
X109831540Y-63881000D02*
X111332080Y-63881000D01*
X111332080Y-63881000D02*
X112040098Y-64589020D01*
X112040098Y-64589020D02*
X113540640Y-64589020D01*
X116840000Y-69850000D02*
X116840000Y-73342500D01*
X108585000Y-61595000D02*
X110120730Y-63130730D01*
X111621270Y-63130730D02*
X112344549Y-63854010D01*
X110120730Y-63130730D02*
X111621270Y-63130730D01*
X113845090Y-63854010D02*
X114464828Y-64473750D01*
X112344549Y-63854010D02*
X113845090Y-63854010D01*
X114464828Y-64473750D02*
X115908750Y-64473750D01*
X116840000Y-65405000D02*
X116840000Y-73342500D01*
X115908750Y-64473750D02*
X116840000Y-65405000D01*
X119380000Y-69850000D02*
X119380000Y-73342500D01*
X119380000Y-66848920D02*
X119380000Y-73342500D01*
X116269820Y-63738740D02*
X119380000Y-66848920D01*
X114769279Y-63738740D02*
X116269820Y-63738740D01*
X114149540Y-63119000D02*
X114769279Y-63738740D01*
X111125000Y-61595000D02*
X112649000Y-63119000D01*
X112649000Y-63119000D02*
X114149540Y-63119000D01*
X121920000Y-69850000D02*
X121920000Y-73342500D01*
X113665000Y-61595000D02*
X115073730Y-63003730D01*
X115073730Y-63003730D02*
X116574270Y-63003730D01*
X121920000Y-68349460D02*
X121920000Y-69850000D01*
X116574270Y-63003730D02*
X121920000Y-68349460D01*
X124460000Y-69850000D02*
X124460000Y-73342500D01*
X116205000Y-61595000D02*
X124460000Y-69850000D01*
X106680000Y-70665998D02*
X109781998Y-67564000D01*
X106680000Y-73342500D02*
X106680000Y-70665998D01*
X109781998Y-67564000D02*
X109781998Y-67564000D01*
X118745000Y-47486370D02*
X118745000Y-46355000D01*
X118733370Y-47498000D02*
X118745000Y-47486370D01*
X118618000Y-47498000D02*
X118733370Y-47498000D01*
X112948999Y-53167001D02*
X118618000Y-47498000D01*
X111678999Y-53167001D02*
X112948999Y-53167001D01*
X111379000Y-53467000D02*
X111678999Y-53167001D01*
X127000000Y-69850000D02*
X127000000Y-73342500D01*
X118745000Y-61595000D02*
X127000000Y-69850000D01*
X129540000Y-69850000D02*
X129540000Y-73342500D01*
X121285000Y-61595000D02*
X129540000Y-69850000D01*
X112865001Y-45555001D02*
X113665000Y-46355000D01*
X112397499Y-45087499D02*
X112865001Y-45555001D01*
X110516599Y-45087499D02*
X112397499Y-45087499D01*
X109857499Y-45746599D02*
X110516599Y-45087499D01*
X109857499Y-46963401D02*
X109857499Y-45746599D01*
X104777499Y-52043401D02*
X109857499Y-46963401D01*
X104777499Y-62198403D02*
X104777499Y-52043401D01*
X104140000Y-62835902D02*
X104777499Y-62198403D01*
X104140000Y-73342500D02*
X104140000Y-62835902D01*
X132080000Y-70717500D02*
X132080000Y-73342500D01*
X124624999Y-63262499D02*
X132080000Y-70717500D01*
X124624999Y-62394999D02*
X124624999Y-63262499D01*
X123825000Y-61595000D02*
X124624999Y-62394999D01*
X109220000Y-73342500D02*
X109220000Y-70717500D01*
X109220000Y-70717500D02*
X112014000Y-67923500D01*
X112014000Y-67923500D02*
X112014000Y-67564000D01*
X112014000Y-67564000D02*
X112014000Y-67564000D01*
X112395000Y-47625000D02*
X111125000Y-46355000D01*
X112395000Y-52324000D02*
X112395000Y-47625000D01*
X126365000Y-62992000D02*
X126365000Y-61595000D01*
X132080000Y-68707000D02*
X126365000Y-62992000D01*
X111760000Y-69307500D02*
X112487500Y-68580000D01*
X111760000Y-73342500D02*
X111760000Y-69307500D01*
X112487500Y-68580000D02*
X112903000Y-68580000D01*
X112903000Y-68580000D02*
X112903000Y-68580000D01*
X129286000Y-63754000D02*
X131445000Y-61595000D01*
X128651000Y-63754000D02*
X129286000Y-63754000D01*
D25*
G36*
X105403003Y-62555816D02*
G01*
X105602785Y-62662602D01*
X105819561Y-62728360D01*
X105988508Y-62745000D01*
X106101492Y-62745000D01*
X106270439Y-62728360D01*
X106297021Y-62720297D01*
X107110910Y-63534186D01*
X107130249Y-63557751D01*
X107182419Y-63600565D01*
X107224275Y-63634916D01*
X107246221Y-63646646D01*
X107331550Y-63692255D01*
X107447949Y-63727565D01*
X107538671Y-63736500D01*
X107538673Y-63736500D01*
X107568999Y-63739487D01*
X107599325Y-63736500D01*
X108813764Y-63736500D01*
X109373454Y-64296191D01*
X109392789Y-64319751D01*
X109416347Y-64339084D01*
X109486815Y-64396916D01*
X109543595Y-64427265D01*
X109594090Y-64454255D01*
X109710489Y-64489565D01*
X109801211Y-64498500D01*
X109801214Y-64498500D01*
X109831540Y-64501487D01*
X109861866Y-64498500D01*
X111076304Y-64498500D01*
X111582011Y-65004210D01*
X111601347Y-65027771D01*
X111640954Y-65060275D01*
X111695372Y-65104935D01*
X111695374Y-65104936D01*
X111802648Y-65162275D01*
X111919047Y-65197585D01*
X112009769Y-65206520D01*
X112009771Y-65206520D01*
X112040097Y-65209507D01*
X112070423Y-65206520D01*
X113284864Y-65206520D01*
X113682500Y-65604157D01*
X113682501Y-69469000D01*
X112471776Y-69469000D01*
X112732047Y-69208730D01*
X112838981Y-69230000D01*
X112967019Y-69230000D01*
X113092598Y-69205021D01*
X113210890Y-69156022D01*
X113317351Y-69084888D01*
X113407888Y-68994351D01*
X113479022Y-68887890D01*
X113528021Y-68769598D01*
X113553000Y-68644019D01*
X113553000Y-68515981D01*
X113528021Y-68390402D01*
X113479022Y-68272110D01*
X113407888Y-68165649D01*
X113317351Y-68075112D01*
X113210890Y-68003978D01*
X113092598Y-67954979D01*
X112967019Y-67930000D01*
X112838981Y-67930000D01*
X112713402Y-67954979D01*
X112695245Y-67962500D01*
X112630646Y-67962500D01*
X112631500Y-67953829D01*
X112631500Y-67953826D01*
X112634487Y-67923500D01*
X112631500Y-67893174D01*
X112631500Y-67771755D01*
X112639021Y-67753598D01*
X112664000Y-67628019D01*
X112664000Y-67499981D01*
X112639021Y-67374402D01*
X112590022Y-67256110D01*
X112518888Y-67149649D01*
X112428351Y-67059112D01*
X112321890Y-66987978D01*
X112203598Y-66938979D01*
X112078019Y-66914000D01*
X111949981Y-66914000D01*
X111824402Y-66938979D01*
X111706110Y-66987978D01*
X111599649Y-67059112D01*
X111509112Y-67149649D01*
X111437978Y-67256110D01*
X111388979Y-67374402D01*
X111364000Y-67499981D01*
X111364000Y-67628019D01*
X111375979Y-67688244D01*
X109595224Y-69469000D01*
X108750275Y-69469000D01*
X110071733Y-68147542D01*
X110089888Y-68140022D01*
X110196349Y-68068888D01*
X110286886Y-67978351D01*
X110358020Y-67871890D01*
X110407019Y-67753598D01*
X110431998Y-67628019D01*
X110431998Y-67499981D01*
X110407019Y-67374402D01*
X110358020Y-67256110D01*
X110286886Y-67149649D01*
X110196349Y-67059112D01*
X110089888Y-66987978D01*
X109971596Y-66938979D01*
X109846017Y-66914000D01*
X109717979Y-66914000D01*
X109592400Y-66938979D01*
X109474108Y-66987978D01*
X109367647Y-67059112D01*
X109277110Y-67149649D01*
X109205976Y-67256110D01*
X109198456Y-67274265D01*
X107003722Y-69469000D01*
X104757500Y-69469000D01*
X104757500Y-63091678D01*
X105192691Y-62656488D01*
X105216250Y-62637154D01*
X105254628Y-62590390D01*
X105293415Y-62543128D01*
X105322115Y-62489433D01*
X105403003Y-62555816D01*
X105403003Y-62555816D01*
G37*
X105403003Y-62555816D02*
X105602785Y-62662602D01*
X105819561Y-62728360D01*
X105988508Y-62745000D01*
X106101492Y-62745000D01*
X106270439Y-62728360D01*
X106297021Y-62720297D01*
X107110910Y-63534186D01*
X107130249Y-63557751D01*
X107182419Y-63600565D01*
X107224275Y-63634916D01*
X107246221Y-63646646D01*
X107331550Y-63692255D01*
X107447949Y-63727565D01*
X107538671Y-63736500D01*
X107538673Y-63736500D01*
X107568999Y-63739487D01*
X107599325Y-63736500D01*
X108813764Y-63736500D01*
X109373454Y-64296191D01*
X109392789Y-64319751D01*
X109416347Y-64339084D01*
X109486815Y-64396916D01*
X109543595Y-64427265D01*
X109594090Y-64454255D01*
X109710489Y-64489565D01*
X109801211Y-64498500D01*
X109801214Y-64498500D01*
X109831540Y-64501487D01*
X109861866Y-64498500D01*
X111076304Y-64498500D01*
X111582011Y-65004210D01*
X111601347Y-65027771D01*
X111640954Y-65060275D01*
X111695372Y-65104935D01*
X111695374Y-65104936D01*
X111802648Y-65162275D01*
X111919047Y-65197585D01*
X112009769Y-65206520D01*
X112009771Y-65206520D01*
X112040097Y-65209507D01*
X112070423Y-65206520D01*
X113284864Y-65206520D01*
X113682500Y-65604157D01*
X113682501Y-69469000D01*
X112471776Y-69469000D01*
X112732047Y-69208730D01*
X112838981Y-69230000D01*
X112967019Y-69230000D01*
X113092598Y-69205021D01*
X113210890Y-69156022D01*
X113317351Y-69084888D01*
X113407888Y-68994351D01*
X113479022Y-68887890D01*
X113528021Y-68769598D01*
X113553000Y-68644019D01*
X113553000Y-68515981D01*
X113528021Y-68390402D01*
X113479022Y-68272110D01*
X113407888Y-68165649D01*
X113317351Y-68075112D01*
X113210890Y-68003978D01*
X113092598Y-67954979D01*
X112967019Y-67930000D01*
X112838981Y-67930000D01*
X112713402Y-67954979D01*
X112695245Y-67962500D01*
X112630646Y-67962500D01*
X112631500Y-67953829D01*
X112631500Y-67953826D01*
X112634487Y-67923500D01*
X112631500Y-67893174D01*
X112631500Y-67771755D01*
X112639021Y-67753598D01*
X112664000Y-67628019D01*
X112664000Y-67499981D01*
X112639021Y-67374402D01*
X112590022Y-67256110D01*
X112518888Y-67149649D01*
X112428351Y-67059112D01*
X112321890Y-66987978D01*
X112203598Y-66938979D01*
X112078019Y-66914000D01*
X111949981Y-66914000D01*
X111824402Y-66938979D01*
X111706110Y-66987978D01*
X111599649Y-67059112D01*
X111509112Y-67149649D01*
X111437978Y-67256110D01*
X111388979Y-67374402D01*
X111364000Y-67499981D01*
X111364000Y-67628019D01*
X111375979Y-67688244D01*
X109595224Y-69469000D01*
X108750275Y-69469000D01*
X110071733Y-68147542D01*
X110089888Y-68140022D01*
X110196349Y-68068888D01*
X110286886Y-67978351D01*
X110358020Y-67871890D01*
X110407019Y-67753598D01*
X110431998Y-67628019D01*
X110431998Y-67499981D01*
X110407019Y-67374402D01*
X110358020Y-67256110D01*
X110286886Y-67149649D01*
X110196349Y-67059112D01*
X110089888Y-66987978D01*
X109971596Y-66938979D01*
X109846017Y-66914000D01*
X109717979Y-66914000D01*
X109592400Y-66938979D01*
X109474108Y-66987978D01*
X109367647Y-67059112D01*
X109277110Y-67149649D01*
X109205976Y-67256110D01*
X109198456Y-67274265D01*
X107003722Y-69469000D01*
X104757500Y-69469000D01*
X104757500Y-63091678D01*
X105192691Y-62656488D01*
X105216250Y-62637154D01*
X105254628Y-62590390D01*
X105293415Y-62543128D01*
X105322115Y-62489433D01*
X105403003Y-62555816D01*
G36*
X133024184Y-29838003D02*
G01*
X132917398Y-30037785D01*
X132851640Y-30254561D01*
X132829436Y-30480000D01*
X132851640Y-30705439D01*
X132917398Y-30922215D01*
X133024184Y-31121997D01*
X133167893Y-31297107D01*
X133343003Y-31440816D01*
X133542785Y-31547602D01*
X133759561Y-31613360D01*
X133928508Y-31630000D01*
X134041492Y-31630000D01*
X134210439Y-31613360D01*
X134427215Y-31547602D01*
X134626997Y-31440816D01*
X134802107Y-31297107D01*
X134945816Y-31121997D01*
X135045500Y-30935502D01*
X135045500Y-37143543D01*
X134948414Y-37036481D01*
X134722420Y-36868963D01*
X134468087Y-36748754D01*
X134334039Y-36708096D01*
X134112000Y-36830085D01*
X134112000Y-37973000D01*
X134132000Y-37973000D01*
X134132000Y-38227000D01*
X134112000Y-38227000D01*
X134112000Y-39369915D01*
X134334039Y-39491904D01*
X134468087Y-39451246D01*
X134722420Y-39331037D01*
X134948414Y-39163519D01*
X135045500Y-39056457D01*
X135045500Y-45899498D01*
X134945816Y-45713003D01*
X134802107Y-45537893D01*
X134626997Y-45394184D01*
X134427215Y-45287398D01*
X134210439Y-45221640D01*
X134041492Y-45205000D01*
X133928508Y-45205000D01*
X133759561Y-45221640D01*
X133542785Y-45287398D01*
X133343003Y-45394184D01*
X133167893Y-45537893D01*
X133024184Y-45713003D01*
X132917398Y-45912785D01*
X132851640Y-46129561D01*
X132829436Y-46355000D01*
X132851640Y-46580439D01*
X132917398Y-46797215D01*
X133024184Y-46996997D01*
X133167893Y-47172107D01*
X133343003Y-47315816D01*
X133542785Y-47422602D01*
X133759561Y-47488360D01*
X133928508Y-47505000D01*
X134041492Y-47505000D01*
X134210439Y-47488360D01*
X134427215Y-47422602D01*
X134626997Y-47315816D01*
X134802107Y-47172107D01*
X134945816Y-46996997D01*
X135045500Y-46810502D01*
X135045500Y-60638543D01*
X134948414Y-60531481D01*
X134722420Y-60363963D01*
X134468087Y-60243754D01*
X134334039Y-60203096D01*
X134112000Y-60325085D01*
X134112000Y-61468000D01*
X134132000Y-61468000D01*
X134132000Y-61722000D01*
X134112000Y-61722000D01*
X134112000Y-62864915D01*
X134334039Y-62986904D01*
X134468087Y-62946246D01*
X134722420Y-62826037D01*
X134948414Y-62658519D01*
X135045500Y-62551457D01*
X135045500Y-69206771D01*
X134905750Y-69207500D01*
X134747000Y-69366250D01*
X134747000Y-69469000D01*
X134493000Y-69469000D01*
X134493000Y-69366250D01*
X134334250Y-69207500D01*
X133745000Y-69204428D01*
X133620518Y-69216688D01*
X133500820Y-69252998D01*
X133390506Y-69311963D01*
X133293815Y-69391315D01*
X133230061Y-69469000D01*
X131704777Y-69469000D01*
X125242499Y-63006723D01*
X125242499Y-62425324D01*
X125245486Y-62394998D01*
X125238098Y-62319986D01*
X125233564Y-62273948D01*
X125198254Y-62157549D01*
X125140916Y-62050276D01*
X125140915Y-62050274D01*
X125108020Y-62010192D01*
X125063750Y-61956248D01*
X125040186Y-61936910D01*
X124950297Y-61847021D01*
X124958360Y-61820439D01*
X124980564Y-61595000D01*
X125209436Y-61595000D01*
X125231640Y-61820439D01*
X125297398Y-62037215D01*
X125404184Y-62236997D01*
X125547893Y-62412107D01*
X125723003Y-62555816D01*
X125747500Y-62568910D01*
X125747500Y-62961673D01*
X125744513Y-62992000D01*
X125747500Y-63022326D01*
X125747500Y-63022328D01*
X125756435Y-63113050D01*
X125789735Y-63222824D01*
X125791745Y-63229449D01*
X125849084Y-63336724D01*
X125874899Y-63368179D01*
X125926249Y-63430751D01*
X125949814Y-63450090D01*
X131496458Y-68996735D01*
X131503978Y-69014890D01*
X131575112Y-69121351D01*
X131665649Y-69211888D01*
X131772110Y-69283022D01*
X131890402Y-69332021D01*
X132015981Y-69357000D01*
X132144019Y-69357000D01*
X132269598Y-69332021D01*
X132387890Y-69283022D01*
X132494351Y-69211888D01*
X132584888Y-69121351D01*
X132656022Y-69014890D01*
X132705021Y-68896598D01*
X132730000Y-68771019D01*
X132730000Y-68642981D01*
X132705021Y-68517402D01*
X132656022Y-68399110D01*
X132584888Y-68292649D01*
X132494351Y-68202112D01*
X132387890Y-68130978D01*
X132369735Y-68123458D01*
X128650276Y-64404000D01*
X128715019Y-64404000D01*
X128840598Y-64379021D01*
X128858755Y-64371500D01*
X129255674Y-64371500D01*
X129286000Y-64374487D01*
X129316326Y-64371500D01*
X129316329Y-64371500D01*
X129407051Y-64362565D01*
X129523450Y-64327255D01*
X129630724Y-64269916D01*
X129724751Y-64192751D01*
X129744090Y-64169186D01*
X131192980Y-62720297D01*
X131219561Y-62728360D01*
X131388508Y-62745000D01*
X131501492Y-62745000D01*
X131670439Y-62728360D01*
X131887215Y-62662602D01*
X132086997Y-62555816D01*
X132262107Y-62412107D01*
X132405816Y-62236997D01*
X132512602Y-62037215D01*
X132578360Y-61820439D01*
X132588055Y-61722002D01*
X132714375Y-61722002D01*
X132593091Y-61944040D01*
X132687930Y-62208881D01*
X132832615Y-62450131D01*
X133021586Y-62658519D01*
X133247580Y-62826037D01*
X133501913Y-62946246D01*
X133635961Y-62986904D01*
X133858000Y-62864915D01*
X133858000Y-61722000D01*
X133838000Y-61722000D01*
X133838000Y-61468000D01*
X133858000Y-61468000D01*
X133858000Y-60325085D01*
X133635961Y-60203096D01*
X133501913Y-60243754D01*
X133247580Y-60363963D01*
X133021586Y-60531481D01*
X132832615Y-60739869D01*
X132687930Y-60981119D01*
X132593091Y-61245960D01*
X132714375Y-61467998D01*
X132588055Y-61467998D01*
X132578360Y-61369561D01*
X132512602Y-61152785D01*
X132405816Y-60953003D01*
X132262107Y-60777893D01*
X132086997Y-60634184D01*
X131887215Y-60527398D01*
X131670439Y-60461640D01*
X131501492Y-60445000D01*
X131388508Y-60445000D01*
X131219561Y-60461640D01*
X131002785Y-60527398D01*
X130803003Y-60634184D01*
X130627893Y-60777893D01*
X130484184Y-60953003D01*
X130377398Y-61152785D01*
X130311640Y-61369561D01*
X130289436Y-61595000D01*
X130311640Y-61820439D01*
X130319703Y-61847020D01*
X129030224Y-63136500D01*
X128858755Y-63136500D01*
X128840598Y-63128979D01*
X128715019Y-63104000D01*
X128586981Y-63104000D01*
X128461402Y-63128979D01*
X128343110Y-63177978D01*
X128236649Y-63249112D01*
X128146112Y-63339649D01*
X128074978Y-63446110D01*
X128025979Y-63564402D01*
X128001000Y-63689981D01*
X128001000Y-63754724D01*
X126982500Y-62736224D01*
X126982500Y-62568910D01*
X127006997Y-62555816D01*
X127182107Y-62412107D01*
X127325816Y-62236997D01*
X127432602Y-62037215D01*
X127498360Y-61820439D01*
X127520564Y-61595000D01*
X127749436Y-61595000D01*
X127771640Y-61820439D01*
X127837398Y-62037215D01*
X127944184Y-62236997D01*
X128087893Y-62412107D01*
X128263003Y-62555816D01*
X128462785Y-62662602D01*
X128679561Y-62728360D01*
X128848508Y-62745000D01*
X128961492Y-62745000D01*
X129130439Y-62728360D01*
X129347215Y-62662602D01*
X129546997Y-62555816D01*
X129722107Y-62412107D01*
X129865816Y-62236997D01*
X129972602Y-62037215D01*
X130038360Y-61820439D01*
X130060564Y-61595000D01*
X130038360Y-61369561D01*
X129972602Y-61152785D01*
X129865816Y-60953003D01*
X129722107Y-60777893D01*
X129546997Y-60634184D01*
X129347215Y-60527398D01*
X129130439Y-60461640D01*
X128961492Y-60445000D01*
X128848508Y-60445000D01*
X128679561Y-60461640D01*
X128462785Y-60527398D01*
X128263003Y-60634184D01*
X128087893Y-60777893D01*
X127944184Y-60953003D01*
X127837398Y-61152785D01*
X127771640Y-61369561D01*
X127749436Y-61595000D01*
X127520564Y-61595000D01*
X127498360Y-61369561D01*
X127432602Y-61152785D01*
X127325816Y-60953003D01*
X127182107Y-60777893D01*
X127006997Y-60634184D01*
X126807215Y-60527398D01*
X126590439Y-60461640D01*
X126421492Y-60445000D01*
X126308508Y-60445000D01*
X126139561Y-60461640D01*
X125922785Y-60527398D01*
X125723003Y-60634184D01*
X125547893Y-60777893D01*
X125404184Y-60953003D01*
X125297398Y-61152785D01*
X125231640Y-61369561D01*
X125209436Y-61595000D01*
X124980564Y-61595000D01*
X124958360Y-61369561D01*
X124892602Y-61152785D01*
X124785816Y-60953003D01*
X124642107Y-60777893D01*
X124466997Y-60634184D01*
X124267215Y-60527398D01*
X124050439Y-60461640D01*
X123881492Y-60445000D01*
X123768508Y-60445000D01*
X123599561Y-60461640D01*
X123382785Y-60527398D01*
X123183003Y-60634184D01*
X123007893Y-60777893D01*
X122864184Y-60953003D01*
X122757398Y-61152785D01*
X122691640Y-61369561D01*
X122669436Y-61595000D01*
X122691640Y-61820439D01*
X122757398Y-62037215D01*
X122864184Y-62236997D01*
X123007893Y-62412107D01*
X123183003Y-62555816D01*
X123382785Y-62662602D01*
X123599561Y-62728360D01*
X123768508Y-62745000D01*
X123881492Y-62745000D01*
X124007499Y-62732589D01*
X124007499Y-63232173D01*
X124004512Y-63262499D01*
X124007499Y-63292825D01*
X124007499Y-63292828D01*
X124013766Y-63356449D01*
X124016435Y-63383550D01*
X124046745Y-63483469D01*
X122410297Y-61847021D01*
X122418360Y-61820439D01*
X122440564Y-61595000D01*
X122418360Y-61369561D01*
X122352602Y-61152785D01*
X122245816Y-60953003D01*
X122102107Y-60777893D01*
X121926997Y-60634184D01*
X121727215Y-60527398D01*
X121510439Y-60461640D01*
X121341492Y-60445000D01*
X121228508Y-60445000D01*
X121059561Y-60461640D01*
X120842785Y-60527398D01*
X120643003Y-60634184D01*
X120467893Y-60777893D01*
X120324184Y-60953003D01*
X120217398Y-61152785D01*
X120151640Y-61369561D01*
X120129436Y-61595000D01*
X120151640Y-61820439D01*
X120217398Y-62037215D01*
X120324184Y-62236997D01*
X120467893Y-62412107D01*
X120643003Y-62555816D01*
X120842785Y-62662602D01*
X121059561Y-62728360D01*
X121228508Y-62745000D01*
X121341492Y-62745000D01*
X121510439Y-62728360D01*
X121537021Y-62720297D01*
X128285723Y-69469000D01*
X127486145Y-69469000D01*
X127466101Y-69444576D01*
X127438751Y-69411249D01*
X127415192Y-69391915D01*
X119870297Y-61847021D01*
X119878360Y-61820439D01*
X119900564Y-61595000D01*
X119878360Y-61369561D01*
X119812602Y-61152785D01*
X119705816Y-60953003D01*
X119562107Y-60777893D01*
X119386997Y-60634184D01*
X119187215Y-60527398D01*
X118970439Y-60461640D01*
X118801492Y-60445000D01*
X118688508Y-60445000D01*
X118519561Y-60461640D01*
X118302785Y-60527398D01*
X118103003Y-60634184D01*
X117927893Y-60777893D01*
X117784184Y-60953003D01*
X117677398Y-61152785D01*
X117611640Y-61369561D01*
X117589436Y-61595000D01*
X117611640Y-61820439D01*
X117677398Y-62037215D01*
X117784184Y-62236997D01*
X117927893Y-62412107D01*
X118103003Y-62555816D01*
X118302785Y-62662602D01*
X118519561Y-62728360D01*
X118688508Y-62745000D01*
X118801492Y-62745000D01*
X118970439Y-62728360D01*
X118997021Y-62720297D01*
X125745723Y-69469000D01*
X124946145Y-69469000D01*
X124926101Y-69444576D01*
X124898751Y-69411249D01*
X124875192Y-69391915D01*
X117330297Y-61847021D01*
X117338360Y-61820439D01*
X117360564Y-61595000D01*
X117338360Y-61369561D01*
X117272602Y-61152785D01*
X117165816Y-60953003D01*
X117022107Y-60777893D01*
X116846997Y-60634184D01*
X116647215Y-60527398D01*
X116430439Y-60461640D01*
X116261492Y-60445000D01*
X116148508Y-60445000D01*
X115979561Y-60461640D01*
X115762785Y-60527398D01*
X115563003Y-60634184D01*
X115387893Y-60777893D01*
X115244184Y-60953003D01*
X115137398Y-61152785D01*
X115071640Y-61369561D01*
X115049436Y-61595000D01*
X115071640Y-61820439D01*
X115137398Y-62037215D01*
X115244184Y-62236997D01*
X115366656Y-62386230D01*
X115329507Y-62386230D01*
X114790297Y-61847020D01*
X114798360Y-61820439D01*
X114820564Y-61595000D01*
X114798360Y-61369561D01*
X114732602Y-61152785D01*
X114625816Y-60953003D01*
X114482107Y-60777893D01*
X114306997Y-60634184D01*
X114107215Y-60527398D01*
X113890439Y-60461640D01*
X113721492Y-60445000D01*
X113608508Y-60445000D01*
X113439561Y-60461640D01*
X113222785Y-60527398D01*
X113023003Y-60634184D01*
X112847893Y-60777893D01*
X112704184Y-60953003D01*
X112597398Y-61152785D01*
X112531640Y-61369561D01*
X112509436Y-61595000D01*
X112531640Y-61820439D01*
X112597398Y-62037215D01*
X112704184Y-62236997D01*
X112847893Y-62412107D01*
X112956819Y-62501500D01*
X112904776Y-62501500D01*
X112250297Y-61847021D01*
X112258360Y-61820439D01*
X112280564Y-61595000D01*
X112258360Y-61369561D01*
X112192602Y-61152785D01*
X112085816Y-60953003D01*
X111942107Y-60777893D01*
X111766997Y-60634184D01*
X111567215Y-60527398D01*
X111350439Y-60461640D01*
X111181492Y-60445000D01*
X111068508Y-60445000D01*
X110899561Y-60461640D01*
X110682785Y-60527398D01*
X110483003Y-60634184D01*
X110307893Y-60777893D01*
X110164184Y-60953003D01*
X110057398Y-61152785D01*
X109991640Y-61369561D01*
X109969436Y-61595000D01*
X109991640Y-61820439D01*
X110057398Y-62037215D01*
X110164184Y-62236997D01*
X110307893Y-62412107D01*
X110431112Y-62513230D01*
X110376507Y-62513230D01*
X109710297Y-61847020D01*
X109718360Y-61820439D01*
X109740564Y-61595000D01*
X109718360Y-61369561D01*
X109652602Y-61152785D01*
X109545816Y-60953003D01*
X109402107Y-60777893D01*
X109226997Y-60634184D01*
X109027215Y-60527398D01*
X108810439Y-60461640D01*
X108641492Y-60445000D01*
X108528508Y-60445000D01*
X108359561Y-60461640D01*
X108142785Y-60527398D01*
X107943003Y-60634184D01*
X107767893Y-60777893D01*
X107624184Y-60953003D01*
X107517398Y-61152785D01*
X107451640Y-61369561D01*
X107429436Y-61595000D01*
X107451640Y-61820439D01*
X107517398Y-62037215D01*
X107624184Y-62236997D01*
X107767893Y-62412107D01*
X107876819Y-62501500D01*
X107824776Y-62501500D01*
X107170297Y-61847021D01*
X107178360Y-61820439D01*
X107200564Y-61595000D01*
X107178360Y-61369561D01*
X107112602Y-61152785D01*
X107005816Y-60953003D01*
X106862107Y-60777893D01*
X106686997Y-60634184D01*
X106487215Y-60527398D01*
X106270439Y-60461640D01*
X106101492Y-60445000D01*
X105988508Y-60445000D01*
X105819561Y-60461640D01*
X105602785Y-60527398D01*
X105403003Y-60634184D01*
X105394999Y-60640753D01*
X105394999Y-52299177D01*
X110272691Y-47421486D01*
X110296250Y-47402152D01*
X110331412Y-47359307D01*
X110373415Y-47308126D01*
X110403972Y-47250957D01*
X110483003Y-47315816D01*
X110682785Y-47422602D01*
X110899561Y-47488360D01*
X111068508Y-47505000D01*
X111181492Y-47505000D01*
X111350439Y-47488360D01*
X111377020Y-47480297D01*
X111777501Y-47880778D01*
X111777500Y-52116245D01*
X111769979Y-52134402D01*
X111745000Y-52259981D01*
X111745000Y-52388019D01*
X111769979Y-52513598D01*
X111784851Y-52549501D01*
X111709325Y-52549501D01*
X111678999Y-52546514D01*
X111648673Y-52549501D01*
X111648670Y-52549501D01*
X111557948Y-52558436D01*
X111441549Y-52593746D01*
X111334275Y-52651085D01*
X111240248Y-52728250D01*
X111220909Y-52751815D01*
X111089267Y-52883457D01*
X111071110Y-52890978D01*
X110964649Y-52962112D01*
X110874112Y-53052649D01*
X110802978Y-53159110D01*
X110753979Y-53277402D01*
X110729000Y-53402981D01*
X110729000Y-53531019D01*
X110753979Y-53656598D01*
X110802978Y-53774890D01*
X110874112Y-53881351D01*
X110964649Y-53971888D01*
X111071110Y-54043022D01*
X111189402Y-54092021D01*
X111314981Y-54117000D01*
X111443019Y-54117000D01*
X111568598Y-54092021D01*
X111686890Y-54043022D01*
X111793351Y-53971888D01*
X111883888Y-53881351D01*
X111948600Y-53784501D01*
X112918673Y-53784501D01*
X112948999Y-53787488D01*
X112979325Y-53784501D01*
X112979328Y-53784501D01*
X113070050Y-53775566D01*
X113186449Y-53740256D01*
X113293723Y-53682917D01*
X113387750Y-53605752D01*
X113407089Y-53582187D01*
X118895031Y-48094246D01*
X118970820Y-48071255D01*
X119078094Y-48013916D01*
X119172121Y-47936751D01*
X119177363Y-47930363D01*
X119183751Y-47925121D01*
X119260916Y-47831094D01*
X119318255Y-47723820D01*
X119353565Y-47607421D01*
X119362500Y-47516699D01*
X119362500Y-47516697D01*
X119365487Y-47486371D01*
X119362500Y-47456045D01*
X119362500Y-47328910D01*
X119386997Y-47315816D01*
X119562107Y-47172107D01*
X119705816Y-46996997D01*
X119812602Y-46797215D01*
X119878360Y-46580439D01*
X119900564Y-46355000D01*
X120129436Y-46355000D01*
X120151640Y-46580439D01*
X120217398Y-46797215D01*
X120324184Y-46996997D01*
X120467893Y-47172107D01*
X120643003Y-47315816D01*
X120842785Y-47422602D01*
X121059561Y-47488360D01*
X121228508Y-47505000D01*
X121341492Y-47505000D01*
X121510439Y-47488360D01*
X121727215Y-47422602D01*
X121926997Y-47315816D01*
X122102107Y-47172107D01*
X122245816Y-46996997D01*
X122352602Y-46797215D01*
X122418360Y-46580439D01*
X122440564Y-46355000D01*
X122669436Y-46355000D01*
X122691640Y-46580439D01*
X122757398Y-46797215D01*
X122864184Y-46996997D01*
X123007893Y-47172107D01*
X123183003Y-47315816D01*
X123382785Y-47422602D01*
X123599561Y-47488360D01*
X123768508Y-47505000D01*
X123881492Y-47505000D01*
X124050439Y-47488360D01*
X124267215Y-47422602D01*
X124466997Y-47315816D01*
X124642107Y-47172107D01*
X124785816Y-46996997D01*
X124892602Y-46797215D01*
X124958360Y-46580439D01*
X124980564Y-46355000D01*
X125209436Y-46355000D01*
X125231640Y-46580439D01*
X125297398Y-46797215D01*
X125404184Y-46996997D01*
X125547893Y-47172107D01*
X125723003Y-47315816D01*
X125922785Y-47422602D01*
X126139561Y-47488360D01*
X126308508Y-47505000D01*
X126421492Y-47505000D01*
X126590439Y-47488360D01*
X126807215Y-47422602D01*
X127006997Y-47315816D01*
X127182107Y-47172107D01*
X127325816Y-46996997D01*
X127432602Y-46797215D01*
X127498360Y-46580439D01*
X127520564Y-46355000D01*
X127749436Y-46355000D01*
X127771640Y-46580439D01*
X127837398Y-46797215D01*
X127944184Y-46996997D01*
X128087893Y-47172107D01*
X128263003Y-47315816D01*
X128462785Y-47422602D01*
X128679561Y-47488360D01*
X128848508Y-47505000D01*
X128961492Y-47505000D01*
X129130439Y-47488360D01*
X129347215Y-47422602D01*
X129546997Y-47315816D01*
X129722107Y-47172107D01*
X129865816Y-46996997D01*
X129972602Y-46797215D01*
X130038360Y-46580439D01*
X130060564Y-46355000D01*
X130289436Y-46355000D01*
X130311640Y-46580439D01*
X130377398Y-46797215D01*
X130484184Y-46996997D01*
X130627893Y-47172107D01*
X130803003Y-47315816D01*
X131002785Y-47422602D01*
X131219561Y-47488360D01*
X131388508Y-47505000D01*
X131501492Y-47505000D01*
X131670439Y-47488360D01*
X131887215Y-47422602D01*
X132086997Y-47315816D01*
X132262107Y-47172107D01*
X132405816Y-46996997D01*
X132512602Y-46797215D01*
X132578360Y-46580439D01*
X132600564Y-46355000D01*
X132578360Y-46129561D01*
X132512602Y-45912785D01*
X132405816Y-45713003D01*
X132262107Y-45537893D01*
X132086997Y-45394184D01*
X131887215Y-45287398D01*
X131670439Y-45221640D01*
X131501492Y-45205000D01*
X131388508Y-45205000D01*
X131219561Y-45221640D01*
X131002785Y-45287398D01*
X130803003Y-45394184D01*
X130627893Y-45537893D01*
X130484184Y-45713003D01*
X130377398Y-45912785D01*
X130311640Y-46129561D01*
X130289436Y-46355000D01*
X130060564Y-46355000D01*
X130038360Y-46129561D01*
X129972602Y-45912785D01*
X129865816Y-45713003D01*
X129722107Y-45537893D01*
X129546997Y-45394184D01*
X129347215Y-45287398D01*
X129130439Y-45221640D01*
X128961492Y-45205000D01*
X128848508Y-45205000D01*
X128679561Y-45221640D01*
X128462785Y-45287398D01*
X128263003Y-45394184D01*
X128087893Y-45537893D01*
X127944184Y-45713003D01*
X127837398Y-45912785D01*
X127771640Y-46129561D01*
X127749436Y-46355000D01*
X127520564Y-46355000D01*
X127498360Y-46129561D01*
X127432602Y-45912785D01*
X127325816Y-45713003D01*
X127182107Y-45537893D01*
X127006997Y-45394184D01*
X126807215Y-45287398D01*
X126590439Y-45221640D01*
X126421492Y-45205000D01*
X126308508Y-45205000D01*
X126139561Y-45221640D01*
X125922785Y-45287398D01*
X125723003Y-45394184D01*
X125547893Y-45537893D01*
X125404184Y-45713003D01*
X125297398Y-45912785D01*
X125231640Y-46129561D01*
X125209436Y-46355000D01*
X124980564Y-46355000D01*
X124958360Y-46129561D01*
X124892602Y-45912785D01*
X124785816Y-45713003D01*
X124642107Y-45537893D01*
X124466997Y-45394184D01*
X124267215Y-45287398D01*
X124050439Y-45221640D01*
X123881492Y-45205000D01*
X123768508Y-45205000D01*
X123599561Y-45221640D01*
X123382785Y-45287398D01*
X123183003Y-45394184D01*
X123007893Y-45537893D01*
X122864184Y-45713003D01*
X122757398Y-45912785D01*
X122691640Y-46129561D01*
X122669436Y-46355000D01*
X122440564Y-46355000D01*
X122418360Y-46129561D01*
X122352602Y-45912785D01*
X122245816Y-45713003D01*
X122102107Y-45537893D01*
X121926997Y-45394184D01*
X121727215Y-45287398D01*
X121510439Y-45221640D01*
X121341492Y-45205000D01*
X121228508Y-45205000D01*
X121059561Y-45221640D01*
X120842785Y-45287398D01*
X120643003Y-45394184D01*
X120467893Y-45537893D01*
X120324184Y-45713003D01*
X120217398Y-45912785D01*
X120151640Y-46129561D01*
X120129436Y-46355000D01*
X119900564Y-46355000D01*
X119878360Y-46129561D01*
X119812602Y-45912785D01*
X119705816Y-45713003D01*
X119562107Y-45537893D01*
X119386997Y-45394184D01*
X119187215Y-45287398D01*
X118970439Y-45221640D01*
X118801492Y-45205000D01*
X118688508Y-45205000D01*
X118519561Y-45221640D01*
X118302785Y-45287398D01*
X118103003Y-45394184D01*
X117927893Y-45537893D01*
X117784184Y-45713003D01*
X117677398Y-45912785D01*
X117611640Y-46129561D01*
X117589436Y-46355000D01*
X117611640Y-46580439D01*
X117677398Y-46797215D01*
X117784184Y-46996997D01*
X117927893Y-47172107D01*
X118006283Y-47236440D01*
X113034671Y-52208053D01*
X113020021Y-52134402D01*
X113012500Y-52116245D01*
X113012500Y-47655325D01*
X113015487Y-47624999D01*
X113011438Y-47583888D01*
X113003565Y-47503949D01*
X112968255Y-47387550D01*
X112941564Y-47337614D01*
X112910916Y-47280275D01*
X112853084Y-47209807D01*
X112833751Y-47186249D01*
X112810191Y-47166914D01*
X112250297Y-46607020D01*
X112258360Y-46580439D01*
X112280564Y-46355000D01*
X112258360Y-46129561D01*
X112192602Y-45912785D01*
X112085816Y-45713003D01*
X112079247Y-45704999D01*
X112141723Y-45704999D01*
X112449808Y-46013085D01*
X112449814Y-46013090D01*
X112539703Y-46102979D01*
X112531640Y-46129561D01*
X112509436Y-46355000D01*
X112531640Y-46580439D01*
X112597398Y-46797215D01*
X112704184Y-46996997D01*
X112847893Y-47172107D01*
X113023003Y-47315816D01*
X113222785Y-47422602D01*
X113439561Y-47488360D01*
X113608508Y-47505000D01*
X113721492Y-47505000D01*
X113890439Y-47488360D01*
X114107215Y-47422602D01*
X114306997Y-47315816D01*
X114482107Y-47172107D01*
X114625816Y-46996997D01*
X114732602Y-46797215D01*
X114798360Y-46580439D01*
X114820564Y-46355000D01*
X114798360Y-46129561D01*
X114732602Y-45912785D01*
X114625816Y-45713003D01*
X114482107Y-45537893D01*
X114306997Y-45394184D01*
X114107215Y-45287398D01*
X113890439Y-45221640D01*
X113721492Y-45205000D01*
X113608508Y-45205000D01*
X113439561Y-45221640D01*
X113412979Y-45229703D01*
X113323090Y-45139814D01*
X113323085Y-45139808D01*
X112855589Y-44672313D01*
X112836250Y-44648748D01*
X112742223Y-44571583D01*
X112634949Y-44514244D01*
X112518550Y-44478934D01*
X112427828Y-44469999D01*
X112427825Y-44469999D01*
X112397499Y-44467012D01*
X112367173Y-44469999D01*
X110546924Y-44469999D01*
X110516598Y-44467012D01*
X110486272Y-44469999D01*
X110486270Y-44469999D01*
X110395548Y-44478934D01*
X110279149Y-44514244D01*
X110229213Y-44540935D01*
X110171874Y-44571583D01*
X110125616Y-44609546D01*
X110077848Y-44648748D01*
X110058513Y-44672308D01*
X109442308Y-45288514D01*
X109418749Y-45307848D01*
X109399415Y-45331407D01*
X109341583Y-45401875D01*
X109309502Y-45461894D01*
X109226997Y-45394184D01*
X109027215Y-45287398D01*
X108810439Y-45221640D01*
X108697737Y-45210540D01*
X109509735Y-44398542D01*
X109527890Y-44391022D01*
X109634351Y-44319888D01*
X109724888Y-44229351D01*
X109796022Y-44122890D01*
X109845021Y-44004598D01*
X109870000Y-43879019D01*
X109870000Y-43750981D01*
X109845021Y-43625402D01*
X109796022Y-43507110D01*
X109724888Y-43400649D01*
X109634351Y-43310112D01*
X109527890Y-43238978D01*
X109409598Y-43189979D01*
X109284019Y-43165000D01*
X109155981Y-43165000D01*
X109030402Y-43189979D01*
X108912110Y-43238978D01*
X108805649Y-43310112D01*
X108715112Y-43400649D01*
X108643978Y-43507110D01*
X108636458Y-43525265D01*
X106902309Y-45259415D01*
X106878749Y-45278750D01*
X106859415Y-45302309D01*
X106801583Y-45372777D01*
X106758692Y-45453022D01*
X106686997Y-45394184D01*
X106487215Y-45287398D01*
X106270439Y-45221640D01*
X106101492Y-45205000D01*
X105988508Y-45205000D01*
X105819561Y-45221640D01*
X105602785Y-45287398D01*
X105403003Y-45394184D01*
X105227893Y-45537893D01*
X105084184Y-45713003D01*
X104977398Y-45912785D01*
X104911640Y-46129561D01*
X104889436Y-46355000D01*
X104911640Y-46580439D01*
X104977398Y-46797215D01*
X105084184Y-46996997D01*
X105227893Y-47172107D01*
X105403003Y-47315816D01*
X105602785Y-47422602D01*
X105819561Y-47488360D01*
X105988508Y-47505000D01*
X106101492Y-47505000D01*
X106270439Y-47488360D01*
X106487215Y-47422602D01*
X106686997Y-47315816D01*
X106699999Y-47305145D01*
X106699999Y-48208164D01*
X103089810Y-51818354D01*
X103066250Y-51837689D01*
X103046916Y-51861248D01*
X102989084Y-51931716D01*
X102931745Y-52038991D01*
X102896436Y-52155389D01*
X102884513Y-52276440D01*
X102887501Y-52306776D01*
X102887500Y-60621090D01*
X102863003Y-60634184D01*
X102687893Y-60777893D01*
X102544184Y-60953003D01*
X102437398Y-61152785D01*
X102371640Y-61369561D01*
X102349436Y-61595000D01*
X102371640Y-61820439D01*
X102379703Y-61847020D01*
X102116693Y-62110030D01*
X102116693Y-60795000D01*
X102109935Y-60726388D01*
X102089922Y-60660413D01*
X102057422Y-60599610D01*
X102013685Y-60546315D01*
X101960390Y-60502578D01*
X101899587Y-60470078D01*
X101833612Y-60450065D01*
X101765000Y-60443307D01*
X100165000Y-60443307D01*
X100096388Y-60450065D01*
X100030413Y-60470078D01*
X99969610Y-60502578D01*
X99916315Y-60546315D01*
X99872578Y-60599610D01*
X99840078Y-60660413D01*
X99820065Y-60726388D01*
X99813307Y-60795000D01*
X99813307Y-62395000D01*
X99820065Y-62463612D01*
X99840078Y-62529587D01*
X99872578Y-62590390D01*
X99916315Y-62643685D01*
X99969610Y-62687422D01*
X100030413Y-62719922D01*
X100096388Y-62739935D01*
X100165000Y-62746693D01*
X101480031Y-62746693D01*
X101184810Y-63041914D01*
X101161250Y-63061249D01*
X101141916Y-63084808D01*
X101084084Y-63155276D01*
X101026745Y-63262551D01*
X100991436Y-63378949D01*
X100979513Y-63500000D01*
X100982501Y-63530336D01*
X100982500Y-69469000D01*
X92057500Y-69469000D01*
X92057500Y-47981890D01*
X93808524Y-47981890D01*
X93853175Y-48129099D01*
X93978359Y-48391920D01*
X94152412Y-48625269D01*
X94368645Y-48820178D01*
X94618748Y-48969157D01*
X94821362Y-49041030D01*
X94788558Y-49050981D01*
X94580090Y-49162409D01*
X94397366Y-49312366D01*
X94247409Y-49495090D01*
X94135981Y-49703558D01*
X94067363Y-49929759D01*
X94044194Y-50165000D01*
X94067363Y-50400241D01*
X94135981Y-50626442D01*
X94150000Y-50652670D01*
X94150001Y-53394036D01*
X94165917Y-53555638D01*
X94228817Y-53762988D01*
X94330959Y-53954084D01*
X94468420Y-54121581D01*
X94635917Y-54259042D01*
X94827013Y-54361184D01*
X95034363Y-54424084D01*
X95250000Y-54445322D01*
X95465638Y-54424084D01*
X95672988Y-54361184D01*
X95864084Y-54259042D01*
X96031581Y-54121581D01*
X96169042Y-53954084D01*
X96271184Y-53762988D01*
X96334084Y-53555638D01*
X96350000Y-53394036D01*
X96350000Y-50652670D01*
X96364019Y-50626442D01*
X96432637Y-50400241D01*
X96455806Y-50165000D01*
X96432637Y-49929759D01*
X96364019Y-49703558D01*
X96252591Y-49495090D01*
X96102634Y-49312366D01*
X95919910Y-49162409D01*
X95711442Y-49050981D01*
X95678638Y-49041030D01*
X95881252Y-48969157D01*
X96131355Y-48820178D01*
X96347588Y-48625269D01*
X96521641Y-48391920D01*
X96646825Y-48129099D01*
X96691476Y-47981890D01*
X96570155Y-47752000D01*
X95377000Y-47752000D01*
X95377000Y-47772000D01*
X95123000Y-47772000D01*
X95123000Y-47752000D01*
X93929845Y-47752000D01*
X93808524Y-47981890D01*
X92057500Y-47981890D01*
X92057500Y-45935000D01*
X93761928Y-45935000D01*
X93774188Y-46059482D01*
X93810498Y-46179180D01*
X93869463Y-46289494D01*
X93948815Y-46386185D01*
X94045506Y-46465537D01*
X94155820Y-46524502D01*
X94236466Y-46548966D01*
X94152412Y-46624731D01*
X93978359Y-46858080D01*
X93853175Y-47120901D01*
X93808524Y-47268110D01*
X93929845Y-47498000D01*
X95123000Y-47498000D01*
X95123000Y-45212000D01*
X95377000Y-45212000D01*
X95377000Y-47498000D01*
X96570155Y-47498000D01*
X96691476Y-47268110D01*
X96646825Y-47120901D01*
X96521641Y-46858080D01*
X96347588Y-46624731D01*
X96263534Y-46548966D01*
X96344180Y-46524502D01*
X96454494Y-46465537D01*
X96551185Y-46386185D01*
X96630537Y-46289494D01*
X96689502Y-46179180D01*
X96725812Y-46059482D01*
X96738072Y-45935000D01*
X96735000Y-45370750D01*
X96576250Y-45212000D01*
X95377000Y-45212000D01*
X95123000Y-45212000D01*
X93923750Y-45212000D01*
X93765000Y-45370750D01*
X93761928Y-45935000D01*
X92057500Y-45935000D01*
X92057500Y-44235000D01*
X93761928Y-44235000D01*
X93765000Y-44799250D01*
X93923750Y-44958000D01*
X95123000Y-44958000D01*
X95123000Y-43758750D01*
X95377000Y-43758750D01*
X95377000Y-44958000D01*
X96576250Y-44958000D01*
X96726548Y-44807702D01*
X97651903Y-44807702D01*
X97723486Y-45051671D01*
X97978996Y-45172571D01*
X98253184Y-45241300D01*
X98535512Y-45255217D01*
X98815130Y-45213787D01*
X99081292Y-45118603D01*
X99206514Y-45051671D01*
X99278097Y-44807702D01*
X98465000Y-43994605D01*
X97651903Y-44807702D01*
X96726548Y-44807702D01*
X96735000Y-44799250D01*
X96738072Y-44235000D01*
X96725812Y-44110518D01*
X96689502Y-43990820D01*
X96633213Y-43885512D01*
X97024783Y-43885512D01*
X97066213Y-44165130D01*
X97161397Y-44431292D01*
X97228329Y-44556514D01*
X97472298Y-44628097D01*
X98285395Y-43815000D01*
X97472298Y-43001903D01*
X97228329Y-43073486D01*
X97107429Y-43328996D01*
X97038700Y-43603184D01*
X97024783Y-43885512D01*
X96633213Y-43885512D01*
X96630537Y-43880506D01*
X96551185Y-43783815D01*
X96454494Y-43704463D01*
X96344180Y-43645498D01*
X96224482Y-43609188D01*
X96100000Y-43596928D01*
X95535750Y-43600000D01*
X95377000Y-43758750D01*
X95123000Y-43758750D01*
X94964250Y-43600000D01*
X94400000Y-43596928D01*
X94275518Y-43609188D01*
X94155820Y-43645498D01*
X94045506Y-43704463D01*
X93948815Y-43783815D01*
X93869463Y-43880506D01*
X93810498Y-43990820D01*
X93774188Y-44110518D01*
X93761928Y-44235000D01*
X92057500Y-44235000D01*
X92057500Y-42822298D01*
X97651903Y-42822298D01*
X98465000Y-43635395D01*
X99278097Y-42822298D01*
X99206514Y-42578329D01*
X98951004Y-42457429D01*
X98676816Y-42388700D01*
X98394488Y-42374783D01*
X98114870Y-42416213D01*
X97848708Y-42511397D01*
X97723486Y-42578329D01*
X97651903Y-42822298D01*
X92057500Y-42822298D01*
X92057500Y-41530776D01*
X94362980Y-39225297D01*
X94389561Y-39233360D01*
X94558508Y-39250000D01*
X94671492Y-39250000D01*
X94840439Y-39233360D01*
X95057215Y-39167602D01*
X95256997Y-39060816D01*
X95432107Y-38917107D01*
X95575816Y-38741997D01*
X95682602Y-38542215D01*
X95748360Y-38325439D01*
X95770564Y-38100000D01*
X95748360Y-37874561D01*
X95682602Y-37657785D01*
X95575816Y-37458003D01*
X95531498Y-37404001D01*
X96238502Y-37404001D01*
X96194184Y-37458003D01*
X96087398Y-37657785D01*
X96021640Y-37874561D01*
X95999436Y-38100000D01*
X96021640Y-38325439D01*
X96087398Y-38542215D01*
X96194184Y-38741997D01*
X96337893Y-38917107D01*
X96513003Y-39060816D01*
X96712785Y-39167602D01*
X96929561Y-39233360D01*
X97098508Y-39250000D01*
X97211492Y-39250000D01*
X97380439Y-39233360D01*
X97490413Y-39200000D01*
X99865001Y-39200000D01*
X99865000Y-43465540D01*
X99864180Y-43467521D01*
X99863787Y-43464870D01*
X99768603Y-43198708D01*
X99701671Y-43073486D01*
X99457702Y-43001903D01*
X98644605Y-43815000D01*
X99457702Y-44628097D01*
X99701671Y-44556514D01*
X99822571Y-44301004D01*
X99859890Y-44152123D01*
X99865000Y-44164460D01*
X99865000Y-46019587D01*
X99831640Y-46129561D01*
X99809436Y-46355000D01*
X99831640Y-46580439D01*
X99865001Y-46690416D01*
X99865000Y-52249365D01*
X94433974Y-57680392D01*
X94330958Y-57805916D01*
X94228817Y-57997012D01*
X94165917Y-58204363D01*
X94144678Y-58420000D01*
X94165917Y-58635637D01*
X94228817Y-58842988D01*
X94330958Y-59034084D01*
X94468420Y-59201580D01*
X94635916Y-59339042D01*
X94827012Y-59441183D01*
X95034363Y-59504083D01*
X95250000Y-59525322D01*
X95465637Y-59504083D01*
X95672988Y-59441183D01*
X95864084Y-59339042D01*
X95989608Y-59236026D01*
X101704606Y-53521029D01*
X101746581Y-53486581D01*
X101884042Y-53319084D01*
X101931898Y-53229551D01*
X101986184Y-53127989D01*
X102049084Y-52920638D01*
X102070322Y-52705000D01*
X102065000Y-52650964D01*
X102065000Y-46690413D01*
X102098360Y-46580439D01*
X102120564Y-46355000D01*
X102349436Y-46355000D01*
X102371640Y-46580439D01*
X102437398Y-46797215D01*
X102544184Y-46996997D01*
X102687893Y-47172107D01*
X102863003Y-47315816D01*
X103062785Y-47422602D01*
X103279561Y-47488360D01*
X103448508Y-47505000D01*
X103561492Y-47505000D01*
X103730439Y-47488360D01*
X103947215Y-47422602D01*
X104146997Y-47315816D01*
X104322107Y-47172107D01*
X104465816Y-46996997D01*
X104572602Y-46797215D01*
X104638360Y-46580439D01*
X104660564Y-46355000D01*
X104638360Y-46129561D01*
X104572602Y-45912785D01*
X104465816Y-45713003D01*
X104322107Y-45537893D01*
X104146997Y-45394184D01*
X104122500Y-45381090D01*
X104122500Y-43435776D01*
X104395777Y-43162500D01*
X108377245Y-43162500D01*
X108395402Y-43170021D01*
X108520981Y-43195000D01*
X108649019Y-43195000D01*
X108774598Y-43170021D01*
X108892890Y-43121022D01*
X108999351Y-43049888D01*
X109089888Y-42959351D01*
X109161022Y-42852890D01*
X109210021Y-42734598D01*
X109235000Y-42609019D01*
X109235000Y-42480981D01*
X109210021Y-42355402D01*
X109161022Y-42237110D01*
X109089888Y-42130649D01*
X108999351Y-42040112D01*
X108892890Y-41968978D01*
X108774598Y-41919979D01*
X108649019Y-41895000D01*
X108520981Y-41895000D01*
X108395402Y-41919979D01*
X108377245Y-41927500D01*
X104170326Y-41927500D01*
X104140000Y-41924513D01*
X104109674Y-41927500D01*
X104109671Y-41927500D01*
X104018949Y-41936435D01*
X103902550Y-41971745D01*
X103795275Y-42029084D01*
X103744094Y-42071087D01*
X103701249Y-42106249D01*
X103681914Y-42129809D01*
X103089809Y-42721915D01*
X103066250Y-42741249D01*
X103046916Y-42764808D01*
X102989084Y-42835276D01*
X102931745Y-42942551D01*
X102896436Y-43058949D01*
X102884513Y-43180000D01*
X102887501Y-43210336D01*
X102887500Y-45381090D01*
X102863003Y-45394184D01*
X102687893Y-45537893D01*
X102544184Y-45713003D01*
X102437398Y-45912785D01*
X102371640Y-46129561D01*
X102349436Y-46355000D01*
X102120564Y-46355000D01*
X102098360Y-46129561D01*
X102065000Y-46019587D01*
X102065000Y-44164460D01*
X102070806Y-44150443D01*
X102115000Y-43928265D01*
X102115000Y-43701735D01*
X102070806Y-43479557D01*
X102065000Y-43465540D01*
X102065000Y-41210981D01*
X104125000Y-41210981D01*
X104125000Y-41339019D01*
X104149979Y-41464598D01*
X104198978Y-41582890D01*
X104270112Y-41689351D01*
X104360649Y-41779888D01*
X104467110Y-41851022D01*
X104585402Y-41900021D01*
X104710981Y-41925000D01*
X104839019Y-41925000D01*
X104964598Y-41900021D01*
X104982755Y-41892500D01*
X110869224Y-41892500D01*
X115079703Y-46102980D01*
X115071640Y-46129561D01*
X115049436Y-46355000D01*
X115071640Y-46580439D01*
X115137398Y-46797215D01*
X115244184Y-46996997D01*
X115387893Y-47172107D01*
X115563003Y-47315816D01*
X115762785Y-47422602D01*
X115979561Y-47488360D01*
X116148508Y-47505000D01*
X116261492Y-47505000D01*
X116430439Y-47488360D01*
X116647215Y-47422602D01*
X116846997Y-47315816D01*
X117022107Y-47172107D01*
X117165816Y-46996997D01*
X117272602Y-46797215D01*
X117338360Y-46580439D01*
X117360564Y-46355000D01*
X117338360Y-46129561D01*
X117272602Y-45912785D01*
X117165816Y-45713003D01*
X117022107Y-45537893D01*
X116846997Y-45394184D01*
X116647215Y-45287398D01*
X116430439Y-45221640D01*
X116261492Y-45205000D01*
X116148508Y-45205000D01*
X115979561Y-45221640D01*
X115952980Y-45229703D01*
X111583090Y-40859814D01*
X111563751Y-40836249D01*
X111469724Y-40759084D01*
X111362450Y-40701745D01*
X111246051Y-40666435D01*
X111155329Y-40657500D01*
X111155326Y-40657500D01*
X111125000Y-40654513D01*
X111094674Y-40657500D01*
X104982755Y-40657500D01*
X104964598Y-40649979D01*
X104839019Y-40625000D01*
X104710981Y-40625000D01*
X104585402Y-40649979D01*
X104467110Y-40698978D01*
X104360649Y-40770112D01*
X104270112Y-40860649D01*
X104198978Y-40967110D01*
X104149979Y-41085402D01*
X104125000Y-41210981D01*
X102065000Y-41210981D01*
X102065000Y-39940981D01*
X102855000Y-39940981D01*
X102855000Y-40069019D01*
X102879979Y-40194598D01*
X102928978Y-40312890D01*
X103000112Y-40419351D01*
X103090649Y-40509888D01*
X103197110Y-40581022D01*
X103315402Y-40630021D01*
X103440981Y-40655000D01*
X103569019Y-40655000D01*
X103694598Y-40630021D01*
X103712755Y-40622500D01*
X116809674Y-40622500D01*
X116840000Y-40625487D01*
X116870326Y-40622500D01*
X116870329Y-40622500D01*
X116961051Y-40613565D01*
X117077450Y-40578255D01*
X117184724Y-40520916D01*
X117278751Y-40443751D01*
X117298090Y-40420186D01*
X118466584Y-39251693D01*
X119545000Y-39251693D01*
X119613612Y-39244935D01*
X119679587Y-39224922D01*
X119740390Y-39192422D01*
X119793685Y-39148685D01*
X119837422Y-39095390D01*
X119869922Y-39034587D01*
X119889935Y-38968612D01*
X119896693Y-38900000D01*
X119896693Y-38100000D01*
X120129436Y-38100000D01*
X120151640Y-38325439D01*
X120217398Y-38542215D01*
X120324184Y-38741997D01*
X120467893Y-38917107D01*
X120643003Y-39060816D01*
X120667501Y-39073910D01*
X120667500Y-43607245D01*
X120659979Y-43625402D01*
X120635000Y-43750981D01*
X120635000Y-43879019D01*
X120659979Y-44004598D01*
X120708978Y-44122890D01*
X120780112Y-44229351D01*
X120870649Y-44319888D01*
X120977110Y-44391022D01*
X121095402Y-44440021D01*
X121220981Y-44465000D01*
X121349019Y-44465000D01*
X121474598Y-44440021D01*
X121592890Y-44391022D01*
X121699351Y-44319888D01*
X121789888Y-44229351D01*
X121861022Y-44122890D01*
X121910021Y-44004598D01*
X121935000Y-43879019D01*
X121935000Y-43750981D01*
X121910021Y-43625402D01*
X121902500Y-43607245D01*
X121902500Y-39073910D01*
X121926997Y-39060816D01*
X122102107Y-38917107D01*
X122245816Y-38741997D01*
X122352602Y-38542215D01*
X122418360Y-38325439D01*
X122440564Y-38100000D01*
X122669436Y-38100000D01*
X122691640Y-38325439D01*
X122757398Y-38542215D01*
X122864184Y-38741997D01*
X123007893Y-38917107D01*
X123183003Y-39060816D01*
X123382785Y-39167602D01*
X123599561Y-39233360D01*
X123768508Y-39250000D01*
X123881492Y-39250000D01*
X124050439Y-39233360D01*
X124267215Y-39167602D01*
X124466997Y-39060816D01*
X124642107Y-38917107D01*
X124785816Y-38741997D01*
X124892602Y-38542215D01*
X124958360Y-38325439D01*
X124980564Y-38100000D01*
X125209436Y-38100000D01*
X125231640Y-38325439D01*
X125297398Y-38542215D01*
X125404184Y-38741997D01*
X125547893Y-38917107D01*
X125723003Y-39060816D01*
X125922785Y-39167602D01*
X126139561Y-39233360D01*
X126308508Y-39250000D01*
X126421492Y-39250000D01*
X126590439Y-39233360D01*
X126807215Y-39167602D01*
X127006997Y-39060816D01*
X127182107Y-38917107D01*
X127325816Y-38741997D01*
X127432602Y-38542215D01*
X127498360Y-38325439D01*
X127520564Y-38100000D01*
X127749436Y-38100000D01*
X127771640Y-38325439D01*
X127837398Y-38542215D01*
X127944184Y-38741997D01*
X128087893Y-38917107D01*
X128263003Y-39060816D01*
X128462785Y-39167602D01*
X128679561Y-39233360D01*
X128848508Y-39250000D01*
X128961492Y-39250000D01*
X129130439Y-39233360D01*
X129347215Y-39167602D01*
X129546997Y-39060816D01*
X129722107Y-38917107D01*
X129865816Y-38741997D01*
X129972602Y-38542215D01*
X130038360Y-38325439D01*
X130060564Y-38100000D01*
X130289436Y-38100000D01*
X130311640Y-38325439D01*
X130377398Y-38542215D01*
X130484184Y-38741997D01*
X130627893Y-38917107D01*
X130803003Y-39060816D01*
X131002785Y-39167602D01*
X131219561Y-39233360D01*
X131388508Y-39250000D01*
X131501492Y-39250000D01*
X131670439Y-39233360D01*
X131887215Y-39167602D01*
X132086997Y-39060816D01*
X132262107Y-38917107D01*
X132405816Y-38741997D01*
X132512602Y-38542215D01*
X132578360Y-38325439D01*
X132588055Y-38227002D01*
X132714375Y-38227002D01*
X132593091Y-38449040D01*
X132687930Y-38713881D01*
X132832615Y-38955131D01*
X133021586Y-39163519D01*
X133247580Y-39331037D01*
X133501913Y-39451246D01*
X133635961Y-39491904D01*
X133858000Y-39369915D01*
X133858000Y-38227000D01*
X133838000Y-38227000D01*
X133838000Y-37973000D01*
X133858000Y-37973000D01*
X133858000Y-36830085D01*
X133635961Y-36708096D01*
X133501913Y-36748754D01*
X133247580Y-36868963D01*
X133021586Y-37036481D01*
X132832615Y-37244869D01*
X132687930Y-37486119D01*
X132593091Y-37750960D01*
X132714375Y-37972998D01*
X132588055Y-37972998D01*
X132578360Y-37874561D01*
X132512602Y-37657785D01*
X132405816Y-37458003D01*
X132262107Y-37282893D01*
X132086997Y-37139184D01*
X131887215Y-37032398D01*
X131670439Y-36966640D01*
X131501492Y-36950000D01*
X131388508Y-36950000D01*
X131219561Y-36966640D01*
X131002785Y-37032398D01*
X130803003Y-37139184D01*
X130627893Y-37282893D01*
X130484184Y-37458003D01*
X130377398Y-37657785D01*
X130311640Y-37874561D01*
X130289436Y-38100000D01*
X130060564Y-38100000D01*
X130038360Y-37874561D01*
X129972602Y-37657785D01*
X129865816Y-37458003D01*
X129722107Y-37282893D01*
X129546997Y-37139184D01*
X129347215Y-37032398D01*
X129130439Y-36966640D01*
X128961492Y-36950000D01*
X128848508Y-36950000D01*
X128679561Y-36966640D01*
X128462785Y-37032398D01*
X128263003Y-37139184D01*
X128087893Y-37282893D01*
X127944184Y-37458003D01*
X127837398Y-37657785D01*
X127771640Y-37874561D01*
X127749436Y-38100000D01*
X127520564Y-38100000D01*
X127498360Y-37874561D01*
X127432602Y-37657785D01*
X127325816Y-37458003D01*
X127182107Y-37282893D01*
X127006997Y-37139184D01*
X126807215Y-37032398D01*
X126590439Y-36966640D01*
X126421492Y-36950000D01*
X126308508Y-36950000D01*
X126139561Y-36966640D01*
X125922785Y-37032398D01*
X125723003Y-37139184D01*
X125547893Y-37282893D01*
X125404184Y-37458003D01*
X125297398Y-37657785D01*
X125231640Y-37874561D01*
X125209436Y-38100000D01*
X124980564Y-38100000D01*
X124958360Y-37874561D01*
X124892602Y-37657785D01*
X124785816Y-37458003D01*
X124642107Y-37282893D01*
X124466997Y-37139184D01*
X124267215Y-37032398D01*
X124050439Y-36966640D01*
X123881492Y-36950000D01*
X123768508Y-36950000D01*
X123599561Y-36966640D01*
X123382785Y-37032398D01*
X123183003Y-37139184D01*
X123007893Y-37282893D01*
X122864184Y-37458003D01*
X122757398Y-37657785D01*
X122691640Y-37874561D01*
X122669436Y-38100000D01*
X122440564Y-38100000D01*
X122418360Y-37874561D01*
X122352602Y-37657785D01*
X122245816Y-37458003D01*
X122102107Y-37282893D01*
X121926997Y-37139184D01*
X121727215Y-37032398D01*
X121510439Y-36966640D01*
X121341492Y-36950000D01*
X121228508Y-36950000D01*
X121059561Y-36966640D01*
X120842785Y-37032398D01*
X120643003Y-37139184D01*
X120467893Y-37282893D01*
X120324184Y-37458003D01*
X120217398Y-37657785D01*
X120151640Y-37874561D01*
X120129436Y-38100000D01*
X119896693Y-38100000D01*
X119896693Y-37300000D01*
X119889935Y-37231388D01*
X119869922Y-37165413D01*
X119837422Y-37104610D01*
X119793685Y-37051315D01*
X119740390Y-37007578D01*
X119679587Y-36975078D01*
X119613612Y-36955065D01*
X119545000Y-36948307D01*
X117945000Y-36948307D01*
X117876388Y-36955065D01*
X117810413Y-36975078D01*
X117749610Y-37007578D01*
X117696315Y-37051315D01*
X117652578Y-37104610D01*
X117620078Y-37165413D01*
X117600065Y-37231388D01*
X117593307Y-37300000D01*
X117593307Y-38378416D01*
X116584224Y-39387500D01*
X103712755Y-39387500D01*
X103694598Y-39379979D01*
X103569019Y-39355000D01*
X103440981Y-39355000D01*
X103315402Y-39379979D01*
X103197110Y-39428978D01*
X103090649Y-39500112D01*
X103000112Y-39590649D01*
X102928978Y-39697110D01*
X102879979Y-39815402D01*
X102855000Y-39940981D01*
X102065000Y-39940981D01*
X102065000Y-39200000D01*
X111070966Y-39200000D01*
X111125000Y-39205322D01*
X111179034Y-39200000D01*
X111179036Y-39200000D01*
X111340638Y-39184084D01*
X111547988Y-39121184D01*
X111739084Y-39019042D01*
X111906581Y-38881581D01*
X111941033Y-38839601D01*
X118926026Y-31854609D01*
X118926031Y-31854603D01*
X119285642Y-31494992D01*
X119386997Y-31440816D01*
X119562107Y-31297107D01*
X119705816Y-31121997D01*
X119812602Y-30922215D01*
X119878360Y-30705439D01*
X119888055Y-30607002D01*
X120014375Y-30607002D01*
X119893091Y-30829040D01*
X119987930Y-31093881D01*
X120132615Y-31335131D01*
X120321586Y-31543519D01*
X120547580Y-31711037D01*
X120801913Y-31831246D01*
X120935961Y-31871904D01*
X121158000Y-31749915D01*
X121158000Y-30607000D01*
X121412000Y-30607000D01*
X121412000Y-31749915D01*
X121634039Y-31871904D01*
X121768087Y-31831246D01*
X122022420Y-31711037D01*
X122248414Y-31543519D01*
X122437385Y-31335131D01*
X122555000Y-31139018D01*
X122672615Y-31335131D01*
X122861586Y-31543519D01*
X123087580Y-31711037D01*
X123341913Y-31831246D01*
X123475961Y-31871904D01*
X123698000Y-31749915D01*
X123698000Y-30607000D01*
X123952000Y-30607000D01*
X123952000Y-31749915D01*
X124174039Y-31871904D01*
X124308087Y-31831246D01*
X124562420Y-31711037D01*
X124788414Y-31543519D01*
X124977385Y-31335131D01*
X125095000Y-31139018D01*
X125212615Y-31335131D01*
X125401586Y-31543519D01*
X125627580Y-31711037D01*
X125881913Y-31831246D01*
X126015961Y-31871904D01*
X126238000Y-31749915D01*
X126238000Y-30607000D01*
X126492000Y-30607000D01*
X126492000Y-31749915D01*
X126714039Y-31871904D01*
X126848087Y-31831246D01*
X127102420Y-31711037D01*
X127328414Y-31543519D01*
X127517385Y-31335131D01*
X127635000Y-31139018D01*
X127752615Y-31335131D01*
X127941586Y-31543519D01*
X128167580Y-31711037D01*
X128421913Y-31831246D01*
X128555961Y-31871904D01*
X128778000Y-31749915D01*
X128778000Y-30607000D01*
X126492000Y-30607000D01*
X126238000Y-30607000D01*
X123952000Y-30607000D01*
X123698000Y-30607000D01*
X121412000Y-30607000D01*
X121158000Y-30607000D01*
X121138000Y-30607000D01*
X121138000Y-30353000D01*
X121158000Y-30353000D01*
X121158000Y-30333000D01*
X121412000Y-30333000D01*
X121412000Y-30353000D01*
X123698000Y-30353000D01*
X123698000Y-30333000D01*
X123952000Y-30333000D01*
X123952000Y-30353000D01*
X126238000Y-30353000D01*
X126238000Y-30333000D01*
X126492000Y-30333000D01*
X126492000Y-30353000D01*
X128778000Y-30353000D01*
X128778000Y-30333000D01*
X129032000Y-30333000D01*
X129032000Y-30353000D01*
X129052000Y-30353000D01*
X129052000Y-30607000D01*
X129032000Y-30607000D01*
X129032000Y-31749915D01*
X129254039Y-31871904D01*
X129388087Y-31831246D01*
X129642420Y-31711037D01*
X129868414Y-31543519D01*
X130057385Y-31335131D01*
X130202070Y-31093881D01*
X130296909Y-30829040D01*
X130175625Y-30607002D01*
X130301945Y-30607002D01*
X130311640Y-30705439D01*
X130377398Y-30922215D01*
X130484184Y-31121997D01*
X130627893Y-31297107D01*
X130803003Y-31440816D01*
X131002785Y-31547602D01*
X131219561Y-31613360D01*
X131388508Y-31630000D01*
X131501492Y-31630000D01*
X131670439Y-31613360D01*
X131887215Y-31547602D01*
X132086997Y-31440816D01*
X132262107Y-31297107D01*
X132405816Y-31121997D01*
X132512602Y-30922215D01*
X132578360Y-30705439D01*
X132600564Y-30480000D01*
X132578360Y-30254561D01*
X132512602Y-30037785D01*
X132405816Y-29838003D01*
X132375038Y-29800500D01*
X133054962Y-29800500D01*
X133024184Y-29838003D01*
X133024184Y-29838003D01*
G37*
X133024184Y-29838003D02*
X132917398Y-30037785D01*
X132851640Y-30254561D01*
X132829436Y-30480000D01*
X132851640Y-30705439D01*
X132917398Y-30922215D01*
X133024184Y-31121997D01*
X133167893Y-31297107D01*
X133343003Y-31440816D01*
X133542785Y-31547602D01*
X133759561Y-31613360D01*
X133928508Y-31630000D01*
X134041492Y-31630000D01*
X134210439Y-31613360D01*
X134427215Y-31547602D01*
X134626997Y-31440816D01*
X134802107Y-31297107D01*
X134945816Y-31121997D01*
X135045500Y-30935502D01*
X135045500Y-37143543D01*
X134948414Y-37036481D01*
X134722420Y-36868963D01*
X134468087Y-36748754D01*
X134334039Y-36708096D01*
X134112000Y-36830085D01*
X134112000Y-37973000D01*
X134132000Y-37973000D01*
X134132000Y-38227000D01*
X134112000Y-38227000D01*
X134112000Y-39369915D01*
X134334039Y-39491904D01*
X134468087Y-39451246D01*
X134722420Y-39331037D01*
X134948414Y-39163519D01*
X135045500Y-39056457D01*
X135045500Y-45899498D01*
X134945816Y-45713003D01*
X134802107Y-45537893D01*
X134626997Y-45394184D01*
X134427215Y-45287398D01*
X134210439Y-45221640D01*
X134041492Y-45205000D01*
X133928508Y-45205000D01*
X133759561Y-45221640D01*
X133542785Y-45287398D01*
X133343003Y-45394184D01*
X133167893Y-45537893D01*
X133024184Y-45713003D01*
X132917398Y-45912785D01*
X132851640Y-46129561D01*
X132829436Y-46355000D01*
X132851640Y-46580439D01*
X132917398Y-46797215D01*
X133024184Y-46996997D01*
X133167893Y-47172107D01*
X133343003Y-47315816D01*
X133542785Y-47422602D01*
X133759561Y-47488360D01*
X133928508Y-47505000D01*
X134041492Y-47505000D01*
X134210439Y-47488360D01*
X134427215Y-47422602D01*
X134626997Y-47315816D01*
X134802107Y-47172107D01*
X134945816Y-46996997D01*
X135045500Y-46810502D01*
X135045500Y-60638543D01*
X134948414Y-60531481D01*
X134722420Y-60363963D01*
X134468087Y-60243754D01*
X134334039Y-60203096D01*
X134112000Y-60325085D01*
X134112000Y-61468000D01*
X134132000Y-61468000D01*
X134132000Y-61722000D01*
X134112000Y-61722000D01*
X134112000Y-62864915D01*
X134334039Y-62986904D01*
X134468087Y-62946246D01*
X134722420Y-62826037D01*
X134948414Y-62658519D01*
X135045500Y-62551457D01*
X135045500Y-69206771D01*
X134905750Y-69207500D01*
X134747000Y-69366250D01*
X134747000Y-69469000D01*
X134493000Y-69469000D01*
X134493000Y-69366250D01*
X134334250Y-69207500D01*
X133745000Y-69204428D01*
X133620518Y-69216688D01*
X133500820Y-69252998D01*
X133390506Y-69311963D01*
X133293815Y-69391315D01*
X133230061Y-69469000D01*
X131704777Y-69469000D01*
X125242499Y-63006723D01*
X125242499Y-62425324D01*
X125245486Y-62394998D01*
X125238098Y-62319986D01*
X125233564Y-62273948D01*
X125198254Y-62157549D01*
X125140916Y-62050276D01*
X125140915Y-62050274D01*
X125108020Y-62010192D01*
X125063750Y-61956248D01*
X125040186Y-61936910D01*
X124950297Y-61847021D01*
X124958360Y-61820439D01*
X124980564Y-61595000D01*
X125209436Y-61595000D01*
X125231640Y-61820439D01*
X125297398Y-62037215D01*
X125404184Y-62236997D01*
X125547893Y-62412107D01*
X125723003Y-62555816D01*
X125747500Y-62568910D01*
X125747500Y-62961673D01*
X125744513Y-62992000D01*
X125747500Y-63022326D01*
X125747500Y-63022328D01*
X125756435Y-63113050D01*
X125789735Y-63222824D01*
X125791745Y-63229449D01*
X125849084Y-63336724D01*
X125874899Y-63368179D01*
X125926249Y-63430751D01*
X125949814Y-63450090D01*
X131496458Y-68996735D01*
X131503978Y-69014890D01*
X131575112Y-69121351D01*
X131665649Y-69211888D01*
X131772110Y-69283022D01*
X131890402Y-69332021D01*
X132015981Y-69357000D01*
X132144019Y-69357000D01*
X132269598Y-69332021D01*
X132387890Y-69283022D01*
X132494351Y-69211888D01*
X132584888Y-69121351D01*
X132656022Y-69014890D01*
X132705021Y-68896598D01*
X132730000Y-68771019D01*
X132730000Y-68642981D01*
X132705021Y-68517402D01*
X132656022Y-68399110D01*
X132584888Y-68292649D01*
X132494351Y-68202112D01*
X132387890Y-68130978D01*
X132369735Y-68123458D01*
X128650276Y-64404000D01*
X128715019Y-64404000D01*
X128840598Y-64379021D01*
X128858755Y-64371500D01*
X129255674Y-64371500D01*
X129286000Y-64374487D01*
X129316326Y-64371500D01*
X129316329Y-64371500D01*
X129407051Y-64362565D01*
X129523450Y-64327255D01*
X129630724Y-64269916D01*
X129724751Y-64192751D01*
X129744090Y-64169186D01*
X131192980Y-62720297D01*
X131219561Y-62728360D01*
X131388508Y-62745000D01*
X131501492Y-62745000D01*
X131670439Y-62728360D01*
X131887215Y-62662602D01*
X132086997Y-62555816D01*
X132262107Y-62412107D01*
X132405816Y-62236997D01*
X132512602Y-62037215D01*
X132578360Y-61820439D01*
X132588055Y-61722002D01*
X132714375Y-61722002D01*
X132593091Y-61944040D01*
X132687930Y-62208881D01*
X132832615Y-62450131D01*
X133021586Y-62658519D01*
X133247580Y-62826037D01*
X133501913Y-62946246D01*
X133635961Y-62986904D01*
X133858000Y-62864915D01*
X133858000Y-61722000D01*
X133838000Y-61722000D01*
X133838000Y-61468000D01*
X133858000Y-61468000D01*
X133858000Y-60325085D01*
X133635961Y-60203096D01*
X133501913Y-60243754D01*
X133247580Y-60363963D01*
X133021586Y-60531481D01*
X132832615Y-60739869D01*
X132687930Y-60981119D01*
X132593091Y-61245960D01*
X132714375Y-61467998D01*
X132588055Y-61467998D01*
X132578360Y-61369561D01*
X132512602Y-61152785D01*
X132405816Y-60953003D01*
X132262107Y-60777893D01*
X132086997Y-60634184D01*
X131887215Y-60527398D01*
X131670439Y-60461640D01*
X131501492Y-60445000D01*
X131388508Y-60445000D01*
X131219561Y-60461640D01*
X131002785Y-60527398D01*
X130803003Y-60634184D01*
X130627893Y-60777893D01*
X130484184Y-60953003D01*
X130377398Y-61152785D01*
X130311640Y-61369561D01*
X130289436Y-61595000D01*
X130311640Y-61820439D01*
X130319703Y-61847020D01*
X129030224Y-63136500D01*
X128858755Y-63136500D01*
X128840598Y-63128979D01*
X128715019Y-63104000D01*
X128586981Y-63104000D01*
X128461402Y-63128979D01*
X128343110Y-63177978D01*
X128236649Y-63249112D01*
X128146112Y-63339649D01*
X128074978Y-63446110D01*
X128025979Y-63564402D01*
X128001000Y-63689981D01*
X128001000Y-63754724D01*
X126982500Y-62736224D01*
X126982500Y-62568910D01*
X127006997Y-62555816D01*
X127182107Y-62412107D01*
X127325816Y-62236997D01*
X127432602Y-62037215D01*
X127498360Y-61820439D01*
X127520564Y-61595000D01*
X127749436Y-61595000D01*
X127771640Y-61820439D01*
X127837398Y-62037215D01*
X127944184Y-62236997D01*
X128087893Y-62412107D01*
X128263003Y-62555816D01*
X128462785Y-62662602D01*
X128679561Y-62728360D01*
X128848508Y-62745000D01*
X128961492Y-62745000D01*
X129130439Y-62728360D01*
X129347215Y-62662602D01*
X129546997Y-62555816D01*
X129722107Y-62412107D01*
X129865816Y-62236997D01*
X129972602Y-62037215D01*
X130038360Y-61820439D01*
X130060564Y-61595000D01*
X130038360Y-61369561D01*
X129972602Y-61152785D01*
X129865816Y-60953003D01*
X129722107Y-60777893D01*
X129546997Y-60634184D01*
X129347215Y-60527398D01*
X129130439Y-60461640D01*
X128961492Y-60445000D01*
X128848508Y-60445000D01*
X128679561Y-60461640D01*
X128462785Y-60527398D01*
X128263003Y-60634184D01*
X128087893Y-60777893D01*
X127944184Y-60953003D01*
X127837398Y-61152785D01*
X127771640Y-61369561D01*
X127749436Y-61595000D01*
X127520564Y-61595000D01*
X127498360Y-61369561D01*
X127432602Y-61152785D01*
X127325816Y-60953003D01*
X127182107Y-60777893D01*
X127006997Y-60634184D01*
X126807215Y-60527398D01*
X126590439Y-60461640D01*
X126421492Y-60445000D01*
X126308508Y-60445000D01*
X126139561Y-60461640D01*
X125922785Y-60527398D01*
X125723003Y-60634184D01*
X125547893Y-60777893D01*
X125404184Y-60953003D01*
X125297398Y-61152785D01*
X125231640Y-61369561D01*
X125209436Y-61595000D01*
X124980564Y-61595000D01*
X124958360Y-61369561D01*
X124892602Y-61152785D01*
X124785816Y-60953003D01*
X124642107Y-60777893D01*
X124466997Y-60634184D01*
X124267215Y-60527398D01*
X124050439Y-60461640D01*
X123881492Y-60445000D01*
X123768508Y-60445000D01*
X123599561Y-60461640D01*
X123382785Y-60527398D01*
X123183003Y-60634184D01*
X123007893Y-60777893D01*
X122864184Y-60953003D01*
X122757398Y-61152785D01*
X122691640Y-61369561D01*
X122669436Y-61595000D01*
X122691640Y-61820439D01*
X122757398Y-62037215D01*
X122864184Y-62236997D01*
X123007893Y-62412107D01*
X123183003Y-62555816D01*
X123382785Y-62662602D01*
X123599561Y-62728360D01*
X123768508Y-62745000D01*
X123881492Y-62745000D01*
X124007499Y-62732589D01*
X124007499Y-63232173D01*
X124004512Y-63262499D01*
X124007499Y-63292825D01*
X124007499Y-63292828D01*
X124013766Y-63356449D01*
X124016435Y-63383550D01*
X124046745Y-63483469D01*
X122410297Y-61847021D01*
X122418360Y-61820439D01*
X122440564Y-61595000D01*
X122418360Y-61369561D01*
X122352602Y-61152785D01*
X122245816Y-60953003D01*
X122102107Y-60777893D01*
X121926997Y-60634184D01*
X121727215Y-60527398D01*
X121510439Y-60461640D01*
X121341492Y-60445000D01*
X121228508Y-60445000D01*
X121059561Y-60461640D01*
X120842785Y-60527398D01*
X120643003Y-60634184D01*
X120467893Y-60777893D01*
X120324184Y-60953003D01*
X120217398Y-61152785D01*
X120151640Y-61369561D01*
X120129436Y-61595000D01*
X120151640Y-61820439D01*
X120217398Y-62037215D01*
X120324184Y-62236997D01*
X120467893Y-62412107D01*
X120643003Y-62555816D01*
X120842785Y-62662602D01*
X121059561Y-62728360D01*
X121228508Y-62745000D01*
X121341492Y-62745000D01*
X121510439Y-62728360D01*
X121537021Y-62720297D01*
X128285723Y-69469000D01*
X127486145Y-69469000D01*
X127466101Y-69444576D01*
X127438751Y-69411249D01*
X127415192Y-69391915D01*
X119870297Y-61847021D01*
X119878360Y-61820439D01*
X119900564Y-61595000D01*
X119878360Y-61369561D01*
X119812602Y-61152785D01*
X119705816Y-60953003D01*
X119562107Y-60777893D01*
X119386997Y-60634184D01*
X119187215Y-60527398D01*
X118970439Y-60461640D01*
X118801492Y-60445000D01*
X118688508Y-60445000D01*
X118519561Y-60461640D01*
X118302785Y-60527398D01*
X118103003Y-60634184D01*
X117927893Y-60777893D01*
X117784184Y-60953003D01*
X117677398Y-61152785D01*
X117611640Y-61369561D01*
X117589436Y-61595000D01*
X117611640Y-61820439D01*
X117677398Y-62037215D01*
X117784184Y-62236997D01*
X117927893Y-62412107D01*
X118103003Y-62555816D01*
X118302785Y-62662602D01*
X118519561Y-62728360D01*
X118688508Y-62745000D01*
X118801492Y-62745000D01*
X118970439Y-62728360D01*
X118997021Y-62720297D01*
X125745723Y-69469000D01*
X124946145Y-69469000D01*
X124926101Y-69444576D01*
X124898751Y-69411249D01*
X124875192Y-69391915D01*
X117330297Y-61847021D01*
X117338360Y-61820439D01*
X117360564Y-61595000D01*
X117338360Y-61369561D01*
X117272602Y-61152785D01*
X117165816Y-60953003D01*
X117022107Y-60777893D01*
X116846997Y-60634184D01*
X116647215Y-60527398D01*
X116430439Y-60461640D01*
X116261492Y-60445000D01*
X116148508Y-60445000D01*
X115979561Y-60461640D01*
X115762785Y-60527398D01*
X115563003Y-60634184D01*
X115387893Y-60777893D01*
X115244184Y-60953003D01*
X115137398Y-61152785D01*
X115071640Y-61369561D01*
X115049436Y-61595000D01*
X115071640Y-61820439D01*
X115137398Y-62037215D01*
X115244184Y-62236997D01*
X115366656Y-62386230D01*
X115329507Y-62386230D01*
X114790297Y-61847020D01*
X114798360Y-61820439D01*
X114820564Y-61595000D01*
X114798360Y-61369561D01*
X114732602Y-61152785D01*
X114625816Y-60953003D01*
X114482107Y-60777893D01*
X114306997Y-60634184D01*
X114107215Y-60527398D01*
X113890439Y-60461640D01*
X113721492Y-60445000D01*
X113608508Y-60445000D01*
X113439561Y-60461640D01*
X113222785Y-60527398D01*
X113023003Y-60634184D01*
X112847893Y-60777893D01*
X112704184Y-60953003D01*
X112597398Y-61152785D01*
X112531640Y-61369561D01*
X112509436Y-61595000D01*
X112531640Y-61820439D01*
X112597398Y-62037215D01*
X112704184Y-62236997D01*
X112847893Y-62412107D01*
X112956819Y-62501500D01*
X112904776Y-62501500D01*
X112250297Y-61847021D01*
X112258360Y-61820439D01*
X112280564Y-61595000D01*
X112258360Y-61369561D01*
X112192602Y-61152785D01*
X112085816Y-60953003D01*
X111942107Y-60777893D01*
X111766997Y-60634184D01*
X111567215Y-60527398D01*
X111350439Y-60461640D01*
X111181492Y-60445000D01*
X111068508Y-60445000D01*
X110899561Y-60461640D01*
X110682785Y-60527398D01*
X110483003Y-60634184D01*
X110307893Y-60777893D01*
X110164184Y-60953003D01*
X110057398Y-61152785D01*
X109991640Y-61369561D01*
X109969436Y-61595000D01*
X109991640Y-61820439D01*
X110057398Y-62037215D01*
X110164184Y-62236997D01*
X110307893Y-62412107D01*
X110431112Y-62513230D01*
X110376507Y-62513230D01*
X109710297Y-61847020D01*
X109718360Y-61820439D01*
X109740564Y-61595000D01*
X109718360Y-61369561D01*
X109652602Y-61152785D01*
X109545816Y-60953003D01*
X109402107Y-60777893D01*
X109226997Y-60634184D01*
X109027215Y-60527398D01*
X108810439Y-60461640D01*
X108641492Y-60445000D01*
X108528508Y-60445000D01*
X108359561Y-60461640D01*
X108142785Y-60527398D01*
X107943003Y-60634184D01*
X107767893Y-60777893D01*
X107624184Y-60953003D01*
X107517398Y-61152785D01*
X107451640Y-61369561D01*
X107429436Y-61595000D01*
X107451640Y-61820439D01*
X107517398Y-62037215D01*
X107624184Y-62236997D01*
X107767893Y-62412107D01*
X107876819Y-62501500D01*
X107824776Y-62501500D01*
X107170297Y-61847021D01*
X107178360Y-61820439D01*
X107200564Y-61595000D01*
X107178360Y-61369561D01*
X107112602Y-61152785D01*
X107005816Y-60953003D01*
X106862107Y-60777893D01*
X106686997Y-60634184D01*
X106487215Y-60527398D01*
X106270439Y-60461640D01*
X106101492Y-60445000D01*
X105988508Y-60445000D01*
X105819561Y-60461640D01*
X105602785Y-60527398D01*
X105403003Y-60634184D01*
X105394999Y-60640753D01*
X105394999Y-52299177D01*
X110272691Y-47421486D01*
X110296250Y-47402152D01*
X110331412Y-47359307D01*
X110373415Y-47308126D01*
X110403972Y-47250957D01*
X110483003Y-47315816D01*
X110682785Y-47422602D01*
X110899561Y-47488360D01*
X111068508Y-47505000D01*
X111181492Y-47505000D01*
X111350439Y-47488360D01*
X111377020Y-47480297D01*
X111777501Y-47880778D01*
X111777500Y-52116245D01*
X111769979Y-52134402D01*
X111745000Y-52259981D01*
X111745000Y-52388019D01*
X111769979Y-52513598D01*
X111784851Y-52549501D01*
X111709325Y-52549501D01*
X111678999Y-52546514D01*
X111648673Y-52549501D01*
X111648670Y-52549501D01*
X111557948Y-52558436D01*
X111441549Y-52593746D01*
X111334275Y-52651085D01*
X111240248Y-52728250D01*
X111220909Y-52751815D01*
X111089267Y-52883457D01*
X111071110Y-52890978D01*
X110964649Y-52962112D01*
X110874112Y-53052649D01*
X110802978Y-53159110D01*
X110753979Y-53277402D01*
X110729000Y-53402981D01*
X110729000Y-53531019D01*
X110753979Y-53656598D01*
X110802978Y-53774890D01*
X110874112Y-53881351D01*
X110964649Y-53971888D01*
X111071110Y-54043022D01*
X111189402Y-54092021D01*
X111314981Y-54117000D01*
X111443019Y-54117000D01*
X111568598Y-54092021D01*
X111686890Y-54043022D01*
X111793351Y-53971888D01*
X111883888Y-53881351D01*
X111948600Y-53784501D01*
X112918673Y-53784501D01*
X112948999Y-53787488D01*
X112979325Y-53784501D01*
X112979328Y-53784501D01*
X113070050Y-53775566D01*
X113186449Y-53740256D01*
X113293723Y-53682917D01*
X113387750Y-53605752D01*
X113407089Y-53582187D01*
X118895031Y-48094246D01*
X118970820Y-48071255D01*
X119078094Y-48013916D01*
X119172121Y-47936751D01*
X119177363Y-47930363D01*
X119183751Y-47925121D01*
X119260916Y-47831094D01*
X119318255Y-47723820D01*
X119353565Y-47607421D01*
X119362500Y-47516699D01*
X119362500Y-47516697D01*
X119365487Y-47486371D01*
X119362500Y-47456045D01*
X119362500Y-47328910D01*
X119386997Y-47315816D01*
X119562107Y-47172107D01*
X119705816Y-46996997D01*
X119812602Y-46797215D01*
X119878360Y-46580439D01*
X119900564Y-46355000D01*
X120129436Y-46355000D01*
X120151640Y-46580439D01*
X120217398Y-46797215D01*
X120324184Y-46996997D01*
X120467893Y-47172107D01*
X120643003Y-47315816D01*
X120842785Y-47422602D01*
X121059561Y-47488360D01*
X121228508Y-47505000D01*
X121341492Y-47505000D01*
X121510439Y-47488360D01*
X121727215Y-47422602D01*
X121926997Y-47315816D01*
X122102107Y-47172107D01*
X122245816Y-46996997D01*
X122352602Y-46797215D01*
X122418360Y-46580439D01*
X122440564Y-46355000D01*
X122669436Y-46355000D01*
X122691640Y-46580439D01*
X122757398Y-46797215D01*
X122864184Y-46996997D01*
X123007893Y-47172107D01*
X123183003Y-47315816D01*
X123382785Y-47422602D01*
X123599561Y-47488360D01*
X123768508Y-47505000D01*
X123881492Y-47505000D01*
X124050439Y-47488360D01*
X124267215Y-47422602D01*
X124466997Y-47315816D01*
X124642107Y-47172107D01*
X124785816Y-46996997D01*
X124892602Y-46797215D01*
X124958360Y-46580439D01*
X124980564Y-46355000D01*
X125209436Y-46355000D01*
X125231640Y-46580439D01*
X125297398Y-46797215D01*
X125404184Y-46996997D01*
X125547893Y-47172107D01*
X125723003Y-47315816D01*
X125922785Y-47422602D01*
X126139561Y-47488360D01*
X126308508Y-47505000D01*
X126421492Y-47505000D01*
X126590439Y-47488360D01*
X126807215Y-47422602D01*
X127006997Y-47315816D01*
X127182107Y-47172107D01*
X127325816Y-46996997D01*
X127432602Y-46797215D01*
X127498360Y-46580439D01*
X127520564Y-46355000D01*
X127749436Y-46355000D01*
X127771640Y-46580439D01*
X127837398Y-46797215D01*
X127944184Y-46996997D01*
X128087893Y-47172107D01*
X128263003Y-47315816D01*
X128462785Y-47422602D01*
X128679561Y-47488360D01*
X128848508Y-47505000D01*
X128961492Y-47505000D01*
X129130439Y-47488360D01*
X129347215Y-47422602D01*
X129546997Y-47315816D01*
X129722107Y-47172107D01*
X129865816Y-46996997D01*
X129972602Y-46797215D01*
X130038360Y-46580439D01*
X130060564Y-46355000D01*
X130289436Y-46355000D01*
X130311640Y-46580439D01*
X130377398Y-46797215D01*
X130484184Y-46996997D01*
X130627893Y-47172107D01*
X130803003Y-47315816D01*
X131002785Y-47422602D01*
X131219561Y-47488360D01*
X131388508Y-47505000D01*
X131501492Y-47505000D01*
X131670439Y-47488360D01*
X131887215Y-47422602D01*
X132086997Y-47315816D01*
X132262107Y-47172107D01*
X132405816Y-46996997D01*
X132512602Y-46797215D01*
X132578360Y-46580439D01*
X132600564Y-46355000D01*
X132578360Y-46129561D01*
X132512602Y-45912785D01*
X132405816Y-45713003D01*
X132262107Y-45537893D01*
X132086997Y-45394184D01*
X131887215Y-45287398D01*
X131670439Y-45221640D01*
X131501492Y-45205000D01*
X131388508Y-45205000D01*
X131219561Y-45221640D01*
X131002785Y-45287398D01*
X130803003Y-45394184D01*
X130627893Y-45537893D01*
X130484184Y-45713003D01*
X130377398Y-45912785D01*
X130311640Y-46129561D01*
X130289436Y-46355000D01*
X130060564Y-46355000D01*
X130038360Y-46129561D01*
X129972602Y-45912785D01*
X129865816Y-45713003D01*
X129722107Y-45537893D01*
X129546997Y-45394184D01*
X129347215Y-45287398D01*
X129130439Y-45221640D01*
X128961492Y-45205000D01*
X128848508Y-45205000D01*
X128679561Y-45221640D01*
X128462785Y-45287398D01*
X128263003Y-45394184D01*
X128087893Y-45537893D01*
X127944184Y-45713003D01*
X127837398Y-45912785D01*
X127771640Y-46129561D01*
X127749436Y-46355000D01*
X127520564Y-46355000D01*
X127498360Y-46129561D01*
X127432602Y-45912785D01*
X127325816Y-45713003D01*
X127182107Y-45537893D01*
X127006997Y-45394184D01*
X126807215Y-45287398D01*
X126590439Y-45221640D01*
X126421492Y-45205000D01*
X126308508Y-45205000D01*
X126139561Y-45221640D01*
X125922785Y-45287398D01*
X125723003Y-45394184D01*
X125547893Y-45537893D01*
X125404184Y-45713003D01*
X125297398Y-45912785D01*
X125231640Y-46129561D01*
X125209436Y-46355000D01*
X124980564Y-46355000D01*
X124958360Y-46129561D01*
X124892602Y-45912785D01*
X124785816Y-45713003D01*
X124642107Y-45537893D01*
X124466997Y-45394184D01*
X124267215Y-45287398D01*
X124050439Y-45221640D01*
X123881492Y-45205000D01*
X123768508Y-45205000D01*
X123599561Y-45221640D01*
X123382785Y-45287398D01*
X123183003Y-45394184D01*
X123007893Y-45537893D01*
X122864184Y-45713003D01*
X122757398Y-45912785D01*
X122691640Y-46129561D01*
X122669436Y-46355000D01*
X122440564Y-46355000D01*
X122418360Y-46129561D01*
X122352602Y-45912785D01*
X122245816Y-45713003D01*
X122102107Y-45537893D01*
X121926997Y-45394184D01*
X121727215Y-45287398D01*
X121510439Y-45221640D01*
X121341492Y-45205000D01*
X121228508Y-45205000D01*
X121059561Y-45221640D01*
X120842785Y-45287398D01*
X120643003Y-45394184D01*
X120467893Y-45537893D01*
X120324184Y-45713003D01*
X120217398Y-45912785D01*
X120151640Y-46129561D01*
X120129436Y-46355000D01*
X119900564Y-46355000D01*
X119878360Y-46129561D01*
X119812602Y-45912785D01*
X119705816Y-45713003D01*
X119562107Y-45537893D01*
X119386997Y-45394184D01*
X119187215Y-45287398D01*
X118970439Y-45221640D01*
X118801492Y-45205000D01*
X118688508Y-45205000D01*
X118519561Y-45221640D01*
X118302785Y-45287398D01*
X118103003Y-45394184D01*
X117927893Y-45537893D01*
X117784184Y-45713003D01*
X117677398Y-45912785D01*
X117611640Y-46129561D01*
X117589436Y-46355000D01*
X117611640Y-46580439D01*
X117677398Y-46797215D01*
X117784184Y-46996997D01*
X117927893Y-47172107D01*
X118006283Y-47236440D01*
X113034671Y-52208053D01*
X113020021Y-52134402D01*
X113012500Y-52116245D01*
X113012500Y-47655325D01*
X113015487Y-47624999D01*
X113011438Y-47583888D01*
X113003565Y-47503949D01*
X112968255Y-47387550D01*
X112941564Y-47337614D01*
X112910916Y-47280275D01*
X112853084Y-47209807D01*
X112833751Y-47186249D01*
X112810191Y-47166914D01*
X112250297Y-46607020D01*
X112258360Y-46580439D01*
X112280564Y-46355000D01*
X112258360Y-46129561D01*
X112192602Y-45912785D01*
X112085816Y-45713003D01*
X112079247Y-45704999D01*
X112141723Y-45704999D01*
X112449808Y-46013085D01*
X112449814Y-46013090D01*
X112539703Y-46102979D01*
X112531640Y-46129561D01*
X112509436Y-46355000D01*
X112531640Y-46580439D01*
X112597398Y-46797215D01*
X112704184Y-46996997D01*
X112847893Y-47172107D01*
X113023003Y-47315816D01*
X113222785Y-47422602D01*
X113439561Y-47488360D01*
X113608508Y-47505000D01*
X113721492Y-47505000D01*
X113890439Y-47488360D01*
X114107215Y-47422602D01*
X114306997Y-47315816D01*
X114482107Y-47172107D01*
X114625816Y-46996997D01*
X114732602Y-46797215D01*
X114798360Y-46580439D01*
X114820564Y-46355000D01*
X114798360Y-46129561D01*
X114732602Y-45912785D01*
X114625816Y-45713003D01*
X114482107Y-45537893D01*
X114306997Y-45394184D01*
X114107215Y-45287398D01*
X113890439Y-45221640D01*
X113721492Y-45205000D01*
X113608508Y-45205000D01*
X113439561Y-45221640D01*
X113412979Y-45229703D01*
X113323090Y-45139814D01*
X113323085Y-45139808D01*
X112855589Y-44672313D01*
X112836250Y-44648748D01*
X112742223Y-44571583D01*
X112634949Y-44514244D01*
X112518550Y-44478934D01*
X112427828Y-44469999D01*
X112427825Y-44469999D01*
X112397499Y-44467012D01*
X112367173Y-44469999D01*
X110546924Y-44469999D01*
X110516598Y-44467012D01*
X110486272Y-44469999D01*
X110486270Y-44469999D01*
X110395548Y-44478934D01*
X110279149Y-44514244D01*
X110229213Y-44540935D01*
X110171874Y-44571583D01*
X110125616Y-44609546D01*
X110077848Y-44648748D01*
X110058513Y-44672308D01*
X109442308Y-45288514D01*
X109418749Y-45307848D01*
X109399415Y-45331407D01*
X109341583Y-45401875D01*
X109309502Y-45461894D01*
X109226997Y-45394184D01*
X109027215Y-45287398D01*
X108810439Y-45221640D01*
X108697737Y-45210540D01*
X109509735Y-44398542D01*
X109527890Y-44391022D01*
X109634351Y-44319888D01*
X109724888Y-44229351D01*
X109796022Y-44122890D01*
X109845021Y-44004598D01*
X109870000Y-43879019D01*
X109870000Y-43750981D01*
X109845021Y-43625402D01*
X109796022Y-43507110D01*
X109724888Y-43400649D01*
X109634351Y-43310112D01*
X109527890Y-43238978D01*
X109409598Y-43189979D01*
X109284019Y-43165000D01*
X109155981Y-43165000D01*
X109030402Y-43189979D01*
X108912110Y-43238978D01*
X108805649Y-43310112D01*
X108715112Y-43400649D01*
X108643978Y-43507110D01*
X108636458Y-43525265D01*
X106902309Y-45259415D01*
X106878749Y-45278750D01*
X106859415Y-45302309D01*
X106801583Y-45372777D01*
X106758692Y-45453022D01*
X106686997Y-45394184D01*
X106487215Y-45287398D01*
X106270439Y-45221640D01*
X106101492Y-45205000D01*
X105988508Y-45205000D01*
X105819561Y-45221640D01*
X105602785Y-45287398D01*
X105403003Y-45394184D01*
X105227893Y-45537893D01*
X105084184Y-45713003D01*
X104977398Y-45912785D01*
X104911640Y-46129561D01*
X104889436Y-46355000D01*
X104911640Y-46580439D01*
X104977398Y-46797215D01*
X105084184Y-46996997D01*
X105227893Y-47172107D01*
X105403003Y-47315816D01*
X105602785Y-47422602D01*
X105819561Y-47488360D01*
X105988508Y-47505000D01*
X106101492Y-47505000D01*
X106270439Y-47488360D01*
X106487215Y-47422602D01*
X106686997Y-47315816D01*
X106699999Y-47305145D01*
X106699999Y-48208164D01*
X103089810Y-51818354D01*
X103066250Y-51837689D01*
X103046916Y-51861248D01*
X102989084Y-51931716D01*
X102931745Y-52038991D01*
X102896436Y-52155389D01*
X102884513Y-52276440D01*
X102887501Y-52306776D01*
X102887500Y-60621090D01*
X102863003Y-60634184D01*
X102687893Y-60777893D01*
X102544184Y-60953003D01*
X102437398Y-61152785D01*
X102371640Y-61369561D01*
X102349436Y-61595000D01*
X102371640Y-61820439D01*
X102379703Y-61847020D01*
X102116693Y-62110030D01*
X102116693Y-60795000D01*
X102109935Y-60726388D01*
X102089922Y-60660413D01*
X102057422Y-60599610D01*
X102013685Y-60546315D01*
X101960390Y-60502578D01*
X101899587Y-60470078D01*
X101833612Y-60450065D01*
X101765000Y-60443307D01*
X100165000Y-60443307D01*
X100096388Y-60450065D01*
X100030413Y-60470078D01*
X99969610Y-60502578D01*
X99916315Y-60546315D01*
X99872578Y-60599610D01*
X99840078Y-60660413D01*
X99820065Y-60726388D01*
X99813307Y-60795000D01*
X99813307Y-62395000D01*
X99820065Y-62463612D01*
X99840078Y-62529587D01*
X99872578Y-62590390D01*
X99916315Y-62643685D01*
X99969610Y-62687422D01*
X100030413Y-62719922D01*
X100096388Y-62739935D01*
X100165000Y-62746693D01*
X101480031Y-62746693D01*
X101184810Y-63041914D01*
X101161250Y-63061249D01*
X101141916Y-63084808D01*
X101084084Y-63155276D01*
X101026745Y-63262551D01*
X100991436Y-63378949D01*
X100979513Y-63500000D01*
X100982501Y-63530336D01*
X100982500Y-69469000D01*
X92057500Y-69469000D01*
X92057500Y-47981890D01*
X93808524Y-47981890D01*
X93853175Y-48129099D01*
X93978359Y-48391920D01*
X94152412Y-48625269D01*
X94368645Y-48820178D01*
X94618748Y-48969157D01*
X94821362Y-49041030D01*
X94788558Y-49050981D01*
X94580090Y-49162409D01*
X94397366Y-49312366D01*
X94247409Y-49495090D01*
X94135981Y-49703558D01*
X94067363Y-49929759D01*
X94044194Y-50165000D01*
X94067363Y-50400241D01*
X94135981Y-50626442D01*
X94150000Y-50652670D01*
X94150001Y-53394036D01*
X94165917Y-53555638D01*
X94228817Y-53762988D01*
X94330959Y-53954084D01*
X94468420Y-54121581D01*
X94635917Y-54259042D01*
X94827013Y-54361184D01*
X95034363Y-54424084D01*
X95250000Y-54445322D01*
X95465638Y-54424084D01*
X95672988Y-54361184D01*
X95864084Y-54259042D01*
X96031581Y-54121581D01*
X96169042Y-53954084D01*
X96271184Y-53762988D01*
X96334084Y-53555638D01*
X96350000Y-53394036D01*
X96350000Y-50652670D01*
X96364019Y-50626442D01*
X96432637Y-50400241D01*
X96455806Y-50165000D01*
X96432637Y-49929759D01*
X96364019Y-49703558D01*
X96252591Y-49495090D01*
X96102634Y-49312366D01*
X95919910Y-49162409D01*
X95711442Y-49050981D01*
X95678638Y-49041030D01*
X95881252Y-48969157D01*
X96131355Y-48820178D01*
X96347588Y-48625269D01*
X96521641Y-48391920D01*
X96646825Y-48129099D01*
X96691476Y-47981890D01*
X96570155Y-47752000D01*
X95377000Y-47752000D01*
X95377000Y-47772000D01*
X95123000Y-47772000D01*
X95123000Y-47752000D01*
X93929845Y-47752000D01*
X93808524Y-47981890D01*
X92057500Y-47981890D01*
X92057500Y-45935000D01*
X93761928Y-45935000D01*
X93774188Y-46059482D01*
X93810498Y-46179180D01*
X93869463Y-46289494D01*
X93948815Y-46386185D01*
X94045506Y-46465537D01*
X94155820Y-46524502D01*
X94236466Y-46548966D01*
X94152412Y-46624731D01*
X93978359Y-46858080D01*
X93853175Y-47120901D01*
X93808524Y-47268110D01*
X93929845Y-47498000D01*
X95123000Y-47498000D01*
X95123000Y-45212000D01*
X95377000Y-45212000D01*
X95377000Y-47498000D01*
X96570155Y-47498000D01*
X96691476Y-47268110D01*
X96646825Y-47120901D01*
X96521641Y-46858080D01*
X96347588Y-46624731D01*
X96263534Y-46548966D01*
X96344180Y-46524502D01*
X96454494Y-46465537D01*
X96551185Y-46386185D01*
X96630537Y-46289494D01*
X96689502Y-46179180D01*
X96725812Y-46059482D01*
X96738072Y-45935000D01*
X96735000Y-45370750D01*
X96576250Y-45212000D01*
X95377000Y-45212000D01*
X95123000Y-45212000D01*
X93923750Y-45212000D01*
X93765000Y-45370750D01*
X93761928Y-45935000D01*
X92057500Y-45935000D01*
X92057500Y-44235000D01*
X93761928Y-44235000D01*
X93765000Y-44799250D01*
X93923750Y-44958000D01*
X95123000Y-44958000D01*
X95123000Y-43758750D01*
X95377000Y-43758750D01*
X95377000Y-44958000D01*
X96576250Y-44958000D01*
X96726548Y-44807702D01*
X97651903Y-44807702D01*
X97723486Y-45051671D01*
X97978996Y-45172571D01*
X98253184Y-45241300D01*
X98535512Y-45255217D01*
X98815130Y-45213787D01*
X99081292Y-45118603D01*
X99206514Y-45051671D01*
X99278097Y-44807702D01*
X98465000Y-43994605D01*
X97651903Y-44807702D01*
X96726548Y-44807702D01*
X96735000Y-44799250D01*
X96738072Y-44235000D01*
X96725812Y-44110518D01*
X96689502Y-43990820D01*
X96633213Y-43885512D01*
X97024783Y-43885512D01*
X97066213Y-44165130D01*
X97161397Y-44431292D01*
X97228329Y-44556514D01*
X97472298Y-44628097D01*
X98285395Y-43815000D01*
X97472298Y-43001903D01*
X97228329Y-43073486D01*
X97107429Y-43328996D01*
X97038700Y-43603184D01*
X97024783Y-43885512D01*
X96633213Y-43885512D01*
X96630537Y-43880506D01*
X96551185Y-43783815D01*
X96454494Y-43704463D01*
X96344180Y-43645498D01*
X96224482Y-43609188D01*
X96100000Y-43596928D01*
X95535750Y-43600000D01*
X95377000Y-43758750D01*
X95123000Y-43758750D01*
X94964250Y-43600000D01*
X94400000Y-43596928D01*
X94275518Y-43609188D01*
X94155820Y-43645498D01*
X94045506Y-43704463D01*
X93948815Y-43783815D01*
X93869463Y-43880506D01*
X93810498Y-43990820D01*
X93774188Y-44110518D01*
X93761928Y-44235000D01*
X92057500Y-44235000D01*
X92057500Y-42822298D01*
X97651903Y-42822298D01*
X98465000Y-43635395D01*
X99278097Y-42822298D01*
X99206514Y-42578329D01*
X98951004Y-42457429D01*
X98676816Y-42388700D01*
X98394488Y-42374783D01*
X98114870Y-42416213D01*
X97848708Y-42511397D01*
X97723486Y-42578329D01*
X97651903Y-42822298D01*
X92057500Y-42822298D01*
X92057500Y-41530776D01*
X94362980Y-39225297D01*
X94389561Y-39233360D01*
X94558508Y-39250000D01*
X94671492Y-39250000D01*
X94840439Y-39233360D01*
X95057215Y-39167602D01*
X95256997Y-39060816D01*
X95432107Y-38917107D01*
X95575816Y-38741997D01*
X95682602Y-38542215D01*
X95748360Y-38325439D01*
X95770564Y-38100000D01*
X95748360Y-37874561D01*
X95682602Y-37657785D01*
X95575816Y-37458003D01*
X95531498Y-37404001D01*
X96238502Y-37404001D01*
X96194184Y-37458003D01*
X96087398Y-37657785D01*
X96021640Y-37874561D01*
X95999436Y-38100000D01*
X96021640Y-38325439D01*
X96087398Y-38542215D01*
X96194184Y-38741997D01*
X96337893Y-38917107D01*
X96513003Y-39060816D01*
X96712785Y-39167602D01*
X96929561Y-39233360D01*
X97098508Y-39250000D01*
X97211492Y-39250000D01*
X97380439Y-39233360D01*
X97490413Y-39200000D01*
X99865001Y-39200000D01*
X99865000Y-43465540D01*
X99864180Y-43467521D01*
X99863787Y-43464870D01*
X99768603Y-43198708D01*
X99701671Y-43073486D01*
X99457702Y-43001903D01*
X98644605Y-43815000D01*
X99457702Y-44628097D01*
X99701671Y-44556514D01*
X99822571Y-44301004D01*
X99859890Y-44152123D01*
X99865000Y-44164460D01*
X99865000Y-46019587D01*
X99831640Y-46129561D01*
X99809436Y-46355000D01*
X99831640Y-46580439D01*
X99865001Y-46690416D01*
X99865000Y-52249365D01*
X94433974Y-57680392D01*
X94330958Y-57805916D01*
X94228817Y-57997012D01*
X94165917Y-58204363D01*
X94144678Y-58420000D01*
X94165917Y-58635637D01*
X94228817Y-58842988D01*
X94330958Y-59034084D01*
X94468420Y-59201580D01*
X94635916Y-59339042D01*
X94827012Y-59441183D01*
X95034363Y-59504083D01*
X95250000Y-59525322D01*
X95465637Y-59504083D01*
X95672988Y-59441183D01*
X95864084Y-59339042D01*
X95989608Y-59236026D01*
X101704606Y-53521029D01*
X101746581Y-53486581D01*
X101884042Y-53319084D01*
X101931898Y-53229551D01*
X101986184Y-53127989D01*
X102049084Y-52920638D01*
X102070322Y-52705000D01*
X102065000Y-52650964D01*
X102065000Y-46690413D01*
X102098360Y-46580439D01*
X102120564Y-46355000D01*
X102349436Y-46355000D01*
X102371640Y-46580439D01*
X102437398Y-46797215D01*
X102544184Y-46996997D01*
X102687893Y-47172107D01*
X102863003Y-47315816D01*
X103062785Y-47422602D01*
X103279561Y-47488360D01*
X103448508Y-47505000D01*
X103561492Y-47505000D01*
X103730439Y-47488360D01*
X103947215Y-47422602D01*
X104146997Y-47315816D01*
X104322107Y-47172107D01*
X104465816Y-46996997D01*
X104572602Y-46797215D01*
X104638360Y-46580439D01*
X104660564Y-46355000D01*
X104638360Y-46129561D01*
X104572602Y-45912785D01*
X104465816Y-45713003D01*
X104322107Y-45537893D01*
X104146997Y-45394184D01*
X104122500Y-45381090D01*
X104122500Y-43435776D01*
X104395777Y-43162500D01*
X108377245Y-43162500D01*
X108395402Y-43170021D01*
X108520981Y-43195000D01*
X108649019Y-43195000D01*
X108774598Y-43170021D01*
X108892890Y-43121022D01*
X108999351Y-43049888D01*
X109089888Y-42959351D01*
X109161022Y-42852890D01*
X109210021Y-42734598D01*
X109235000Y-42609019D01*
X109235000Y-42480981D01*
X109210021Y-42355402D01*
X109161022Y-42237110D01*
X109089888Y-42130649D01*
X108999351Y-42040112D01*
X108892890Y-41968978D01*
X108774598Y-41919979D01*
X108649019Y-41895000D01*
X108520981Y-41895000D01*
X108395402Y-41919979D01*
X108377245Y-41927500D01*
X104170326Y-41927500D01*
X104140000Y-41924513D01*
X104109674Y-41927500D01*
X104109671Y-41927500D01*
X104018949Y-41936435D01*
X103902550Y-41971745D01*
X103795275Y-42029084D01*
X103744094Y-42071087D01*
X103701249Y-42106249D01*
X103681914Y-42129809D01*
X103089809Y-42721915D01*
X103066250Y-42741249D01*
X103046916Y-42764808D01*
X102989084Y-42835276D01*
X102931745Y-42942551D01*
X102896436Y-43058949D01*
X102884513Y-43180000D01*
X102887501Y-43210336D01*
X102887500Y-45381090D01*
X102863003Y-45394184D01*
X102687893Y-45537893D01*
X102544184Y-45713003D01*
X102437398Y-45912785D01*
X102371640Y-46129561D01*
X102349436Y-46355000D01*
X102120564Y-46355000D01*
X102098360Y-46129561D01*
X102065000Y-46019587D01*
X102065000Y-44164460D01*
X102070806Y-44150443D01*
X102115000Y-43928265D01*
X102115000Y-43701735D01*
X102070806Y-43479557D01*
X102065000Y-43465540D01*
X102065000Y-41210981D01*
X104125000Y-41210981D01*
X104125000Y-41339019D01*
X104149979Y-41464598D01*
X104198978Y-41582890D01*
X104270112Y-41689351D01*
X104360649Y-41779888D01*
X104467110Y-41851022D01*
X104585402Y-41900021D01*
X104710981Y-41925000D01*
X104839019Y-41925000D01*
X104964598Y-41900021D01*
X104982755Y-41892500D01*
X110869224Y-41892500D01*
X115079703Y-46102980D01*
X115071640Y-46129561D01*
X115049436Y-46355000D01*
X115071640Y-46580439D01*
X115137398Y-46797215D01*
X115244184Y-46996997D01*
X115387893Y-47172107D01*
X115563003Y-47315816D01*
X115762785Y-47422602D01*
X115979561Y-47488360D01*
X116148508Y-47505000D01*
X116261492Y-47505000D01*
X116430439Y-47488360D01*
X116647215Y-47422602D01*
X116846997Y-47315816D01*
X117022107Y-47172107D01*
X117165816Y-46996997D01*
X117272602Y-46797215D01*
X117338360Y-46580439D01*
X117360564Y-46355000D01*
X117338360Y-46129561D01*
X117272602Y-45912785D01*
X117165816Y-45713003D01*
X117022107Y-45537893D01*
X116846997Y-45394184D01*
X116647215Y-45287398D01*
X116430439Y-45221640D01*
X116261492Y-45205000D01*
X116148508Y-45205000D01*
X115979561Y-45221640D01*
X115952980Y-45229703D01*
X111583090Y-40859814D01*
X111563751Y-40836249D01*
X111469724Y-40759084D01*
X111362450Y-40701745D01*
X111246051Y-40666435D01*
X111155329Y-40657500D01*
X111155326Y-40657500D01*
X111125000Y-40654513D01*
X111094674Y-40657500D01*
X104982755Y-40657500D01*
X104964598Y-40649979D01*
X104839019Y-40625000D01*
X104710981Y-40625000D01*
X104585402Y-40649979D01*
X104467110Y-40698978D01*
X104360649Y-40770112D01*
X104270112Y-40860649D01*
X104198978Y-40967110D01*
X104149979Y-41085402D01*
X104125000Y-41210981D01*
X102065000Y-41210981D01*
X102065000Y-39940981D01*
X102855000Y-39940981D01*
X102855000Y-40069019D01*
X102879979Y-40194598D01*
X102928978Y-40312890D01*
X103000112Y-40419351D01*
X103090649Y-40509888D01*
X103197110Y-40581022D01*
X103315402Y-40630021D01*
X103440981Y-40655000D01*
X103569019Y-40655000D01*
X103694598Y-40630021D01*
X103712755Y-40622500D01*
X116809674Y-40622500D01*
X116840000Y-40625487D01*
X116870326Y-40622500D01*
X116870329Y-40622500D01*
X116961051Y-40613565D01*
X117077450Y-40578255D01*
X117184724Y-40520916D01*
X117278751Y-40443751D01*
X117298090Y-40420186D01*
X118466584Y-39251693D01*
X119545000Y-39251693D01*
X119613612Y-39244935D01*
X119679587Y-39224922D01*
X119740390Y-39192422D01*
X119793685Y-39148685D01*
X119837422Y-39095390D01*
X119869922Y-39034587D01*
X119889935Y-38968612D01*
X119896693Y-38900000D01*
X119896693Y-38100000D01*
X120129436Y-38100000D01*
X120151640Y-38325439D01*
X120217398Y-38542215D01*
X120324184Y-38741997D01*
X120467893Y-38917107D01*
X120643003Y-39060816D01*
X120667501Y-39073910D01*
X120667500Y-43607245D01*
X120659979Y-43625402D01*
X120635000Y-43750981D01*
X120635000Y-43879019D01*
X120659979Y-44004598D01*
X120708978Y-44122890D01*
X120780112Y-44229351D01*
X120870649Y-44319888D01*
X120977110Y-44391022D01*
X121095402Y-44440021D01*
X121220981Y-44465000D01*
X121349019Y-44465000D01*
X121474598Y-44440021D01*
X121592890Y-44391022D01*
X121699351Y-44319888D01*
X121789888Y-44229351D01*
X121861022Y-44122890D01*
X121910021Y-44004598D01*
X121935000Y-43879019D01*
X121935000Y-43750981D01*
X121910021Y-43625402D01*
X121902500Y-43607245D01*
X121902500Y-39073910D01*
X121926997Y-39060816D01*
X122102107Y-38917107D01*
X122245816Y-38741997D01*
X122352602Y-38542215D01*
X122418360Y-38325439D01*
X122440564Y-38100000D01*
X122669436Y-38100000D01*
X122691640Y-38325439D01*
X122757398Y-38542215D01*
X122864184Y-38741997D01*
X123007893Y-38917107D01*
X123183003Y-39060816D01*
X123382785Y-39167602D01*
X123599561Y-39233360D01*
X123768508Y-39250000D01*
X123881492Y-39250000D01*
X124050439Y-39233360D01*
X124267215Y-39167602D01*
X124466997Y-39060816D01*
X124642107Y-38917107D01*
X124785816Y-38741997D01*
X124892602Y-38542215D01*
X124958360Y-38325439D01*
X124980564Y-38100000D01*
X125209436Y-38100000D01*
X125231640Y-38325439D01*
X125297398Y-38542215D01*
X125404184Y-38741997D01*
X125547893Y-38917107D01*
X125723003Y-39060816D01*
X125922785Y-39167602D01*
X126139561Y-39233360D01*
X126308508Y-39250000D01*
X126421492Y-39250000D01*
X126590439Y-39233360D01*
X126807215Y-39167602D01*
X127006997Y-39060816D01*
X127182107Y-38917107D01*
X127325816Y-38741997D01*
X127432602Y-38542215D01*
X127498360Y-38325439D01*
X127520564Y-38100000D01*
X127749436Y-38100000D01*
X127771640Y-38325439D01*
X127837398Y-38542215D01*
X127944184Y-38741997D01*
X128087893Y-38917107D01*
X128263003Y-39060816D01*
X128462785Y-39167602D01*
X128679561Y-39233360D01*
X128848508Y-39250000D01*
X128961492Y-39250000D01*
X129130439Y-39233360D01*
X129347215Y-39167602D01*
X129546997Y-39060816D01*
X129722107Y-38917107D01*
X129865816Y-38741997D01*
X129972602Y-38542215D01*
X130038360Y-38325439D01*
X130060564Y-38100000D01*
X130289436Y-38100000D01*
X130311640Y-38325439D01*
X130377398Y-38542215D01*
X130484184Y-38741997D01*
X130627893Y-38917107D01*
X130803003Y-39060816D01*
X131002785Y-39167602D01*
X131219561Y-39233360D01*
X131388508Y-39250000D01*
X131501492Y-39250000D01*
X131670439Y-39233360D01*
X131887215Y-39167602D01*
X132086997Y-39060816D01*
X132262107Y-38917107D01*
X132405816Y-38741997D01*
X132512602Y-38542215D01*
X132578360Y-38325439D01*
X132588055Y-38227002D01*
X132714375Y-38227002D01*
X132593091Y-38449040D01*
X132687930Y-38713881D01*
X132832615Y-38955131D01*
X133021586Y-39163519D01*
X133247580Y-39331037D01*
X133501913Y-39451246D01*
X133635961Y-39491904D01*
X133858000Y-39369915D01*
X133858000Y-38227000D01*
X133838000Y-38227000D01*
X133838000Y-37973000D01*
X133858000Y-37973000D01*
X133858000Y-36830085D01*
X133635961Y-36708096D01*
X133501913Y-36748754D01*
X133247580Y-36868963D01*
X133021586Y-37036481D01*
X132832615Y-37244869D01*
X132687930Y-37486119D01*
X132593091Y-37750960D01*
X132714375Y-37972998D01*
X132588055Y-37972998D01*
X132578360Y-37874561D01*
X132512602Y-37657785D01*
X132405816Y-37458003D01*
X132262107Y-37282893D01*
X132086997Y-37139184D01*
X131887215Y-37032398D01*
X131670439Y-36966640D01*
X131501492Y-36950000D01*
X131388508Y-36950000D01*
X131219561Y-36966640D01*
X131002785Y-37032398D01*
X130803003Y-37139184D01*
X130627893Y-37282893D01*
X130484184Y-37458003D01*
X130377398Y-37657785D01*
X130311640Y-37874561D01*
X130289436Y-38100000D01*
X130060564Y-38100000D01*
X130038360Y-37874561D01*
X129972602Y-37657785D01*
X129865816Y-37458003D01*
X129722107Y-37282893D01*
X129546997Y-37139184D01*
X129347215Y-37032398D01*
X129130439Y-36966640D01*
X128961492Y-36950000D01*
X128848508Y-36950000D01*
X128679561Y-36966640D01*
X128462785Y-37032398D01*
X128263003Y-37139184D01*
X128087893Y-37282893D01*
X127944184Y-37458003D01*
X127837398Y-37657785D01*
X127771640Y-37874561D01*
X127749436Y-38100000D01*
X127520564Y-38100000D01*
X127498360Y-37874561D01*
X127432602Y-37657785D01*
X127325816Y-37458003D01*
X127182107Y-37282893D01*
X127006997Y-37139184D01*
X126807215Y-37032398D01*
X126590439Y-36966640D01*
X126421492Y-36950000D01*
X126308508Y-36950000D01*
X126139561Y-36966640D01*
X125922785Y-37032398D01*
X125723003Y-37139184D01*
X125547893Y-37282893D01*
X125404184Y-37458003D01*
X125297398Y-37657785D01*
X125231640Y-37874561D01*
X125209436Y-38100000D01*
X124980564Y-38100000D01*
X124958360Y-37874561D01*
X124892602Y-37657785D01*
X124785816Y-37458003D01*
X124642107Y-37282893D01*
X124466997Y-37139184D01*
X124267215Y-37032398D01*
X124050439Y-36966640D01*
X123881492Y-36950000D01*
X123768508Y-36950000D01*
X123599561Y-36966640D01*
X123382785Y-37032398D01*
X123183003Y-37139184D01*
X123007893Y-37282893D01*
X122864184Y-37458003D01*
X122757398Y-37657785D01*
X122691640Y-37874561D01*
X122669436Y-38100000D01*
X122440564Y-38100000D01*
X122418360Y-37874561D01*
X122352602Y-37657785D01*
X122245816Y-37458003D01*
X122102107Y-37282893D01*
X121926997Y-37139184D01*
X121727215Y-37032398D01*
X121510439Y-36966640D01*
X121341492Y-36950000D01*
X121228508Y-36950000D01*
X121059561Y-36966640D01*
X120842785Y-37032398D01*
X120643003Y-37139184D01*
X120467893Y-37282893D01*
X120324184Y-37458003D01*
X120217398Y-37657785D01*
X120151640Y-37874561D01*
X120129436Y-38100000D01*
X119896693Y-38100000D01*
X119896693Y-37300000D01*
X119889935Y-37231388D01*
X119869922Y-37165413D01*
X119837422Y-37104610D01*
X119793685Y-37051315D01*
X119740390Y-37007578D01*
X119679587Y-36975078D01*
X119613612Y-36955065D01*
X119545000Y-36948307D01*
X117945000Y-36948307D01*
X117876388Y-36955065D01*
X117810413Y-36975078D01*
X117749610Y-37007578D01*
X117696315Y-37051315D01*
X117652578Y-37104610D01*
X117620078Y-37165413D01*
X117600065Y-37231388D01*
X117593307Y-37300000D01*
X117593307Y-38378416D01*
X116584224Y-39387500D01*
X103712755Y-39387500D01*
X103694598Y-39379979D01*
X103569019Y-39355000D01*
X103440981Y-39355000D01*
X103315402Y-39379979D01*
X103197110Y-39428978D01*
X103090649Y-39500112D01*
X103000112Y-39590649D01*
X102928978Y-39697110D01*
X102879979Y-39815402D01*
X102855000Y-39940981D01*
X102065000Y-39940981D01*
X102065000Y-39200000D01*
X111070966Y-39200000D01*
X111125000Y-39205322D01*
X111179034Y-39200000D01*
X111179036Y-39200000D01*
X111340638Y-39184084D01*
X111547988Y-39121184D01*
X111739084Y-39019042D01*
X111906581Y-38881581D01*
X111941033Y-38839601D01*
X118926026Y-31854609D01*
X118926031Y-31854603D01*
X119285642Y-31494992D01*
X119386997Y-31440816D01*
X119562107Y-31297107D01*
X119705816Y-31121997D01*
X119812602Y-30922215D01*
X119878360Y-30705439D01*
X119888055Y-30607002D01*
X120014375Y-30607002D01*
X119893091Y-30829040D01*
X119987930Y-31093881D01*
X120132615Y-31335131D01*
X120321586Y-31543519D01*
X120547580Y-31711037D01*
X120801913Y-31831246D01*
X120935961Y-31871904D01*
X121158000Y-31749915D01*
X121158000Y-30607000D01*
X121412000Y-30607000D01*
X121412000Y-31749915D01*
X121634039Y-31871904D01*
X121768087Y-31831246D01*
X122022420Y-31711037D01*
X122248414Y-31543519D01*
X122437385Y-31335131D01*
X122555000Y-31139018D01*
X122672615Y-31335131D01*
X122861586Y-31543519D01*
X123087580Y-31711037D01*
X123341913Y-31831246D01*
X123475961Y-31871904D01*
X123698000Y-31749915D01*
X123698000Y-30607000D01*
X123952000Y-30607000D01*
X123952000Y-31749915D01*
X124174039Y-31871904D01*
X124308087Y-31831246D01*
X124562420Y-31711037D01*
X124788414Y-31543519D01*
X124977385Y-31335131D01*
X125095000Y-31139018D01*
X125212615Y-31335131D01*
X125401586Y-31543519D01*
X125627580Y-31711037D01*
X125881913Y-31831246D01*
X126015961Y-31871904D01*
X126238000Y-31749915D01*
X126238000Y-30607000D01*
X126492000Y-30607000D01*
X126492000Y-31749915D01*
X126714039Y-31871904D01*
X126848087Y-31831246D01*
X127102420Y-31711037D01*
X127328414Y-31543519D01*
X127517385Y-31335131D01*
X127635000Y-31139018D01*
X127752615Y-31335131D01*
X127941586Y-31543519D01*
X128167580Y-31711037D01*
X128421913Y-31831246D01*
X128555961Y-31871904D01*
X128778000Y-31749915D01*
X128778000Y-30607000D01*
X126492000Y-30607000D01*
X126238000Y-30607000D01*
X123952000Y-30607000D01*
X123698000Y-30607000D01*
X121412000Y-30607000D01*
X121158000Y-30607000D01*
X121138000Y-30607000D01*
X121138000Y-30353000D01*
X121158000Y-30353000D01*
X121158000Y-30333000D01*
X121412000Y-30333000D01*
X121412000Y-30353000D01*
X123698000Y-30353000D01*
X123698000Y-30333000D01*
X123952000Y-30333000D01*
X123952000Y-30353000D01*
X126238000Y-30353000D01*
X126238000Y-30333000D01*
X126492000Y-30333000D01*
X126492000Y-30353000D01*
X128778000Y-30353000D01*
X128778000Y-30333000D01*
X129032000Y-30333000D01*
X129032000Y-30353000D01*
X129052000Y-30353000D01*
X129052000Y-30607000D01*
X129032000Y-30607000D01*
X129032000Y-31749915D01*
X129254039Y-31871904D01*
X129388087Y-31831246D01*
X129642420Y-31711037D01*
X129868414Y-31543519D01*
X130057385Y-31335131D01*
X130202070Y-31093881D01*
X130296909Y-30829040D01*
X130175625Y-30607002D01*
X130301945Y-30607002D01*
X130311640Y-30705439D01*
X130377398Y-30922215D01*
X130484184Y-31121997D01*
X130627893Y-31297107D01*
X130803003Y-31440816D01*
X131002785Y-31547602D01*
X131219561Y-31613360D01*
X131388508Y-31630000D01*
X131501492Y-31630000D01*
X131670439Y-31613360D01*
X131887215Y-31547602D01*
X132086997Y-31440816D01*
X132262107Y-31297107D01*
X132405816Y-31121997D01*
X132512602Y-30922215D01*
X132578360Y-30705439D01*
X132600564Y-30480000D01*
X132578360Y-30254561D01*
X132512602Y-30037785D01*
X132405816Y-29838003D01*
X132375038Y-29800500D01*
X133054962Y-29800500D01*
X133024184Y-29838003D01*
G36*
X103279561Y-62728360D02*
G01*
X103448508Y-62745000D01*
X103528466Y-62745000D01*
X103519513Y-62835902D01*
X103522501Y-62866238D01*
X103522500Y-69469000D01*
X102217500Y-69469000D01*
X102217500Y-63755776D01*
X103252980Y-62720297D01*
X103279561Y-62728360D01*
X103279561Y-62728360D01*
G37*
X103279561Y-62728360D02*
X103448508Y-62745000D01*
X103528466Y-62745000D01*
X103519513Y-62835902D01*
X103522501Y-62866238D01*
X103522500Y-69469000D01*
X102217500Y-69469000D01*
X102217500Y-63755776D01*
X103252980Y-62720297D01*
X103279561Y-62728360D01*
G36*
X98820000Y-30038000D02*
G01*
X98827121Y-30042324D01*
X98833495Y-30047690D01*
X98838120Y-30050820D01*
X99209880Y-30298660D01*
X99709000Y-30673000D01*
X99737921Y-30690564D01*
X99766378Y-30708878D01*
X99771249Y-30710803D01*
X99775726Y-30713522D01*
X99807492Y-30725127D01*
X99838979Y-30737572D01*
X99844137Y-30738515D01*
X99849052Y-30740311D01*
X99882479Y-30745528D01*
X99915772Y-30751617D01*
X99921006Y-30751541D01*
X99926185Y-30752349D01*
X99960009Y-30750973D01*
X99993830Y-30750480D01*
X99998952Y-30749388D01*
X100004186Y-30749175D01*
X100037103Y-30741254D01*
X100070180Y-30734202D01*
X100075491Y-30732473D01*
X100775911Y-30499000D01*
X100965000Y-30499000D01*
X101001784Y-30495393D01*
X101038580Y-30492174D01*
X101040599Y-30491587D01*
X101042694Y-30491382D01*
X101078077Y-30480699D01*
X101113547Y-30470394D01*
X101115415Y-30469426D01*
X101117428Y-30468818D01*
X101150058Y-30451469D01*
X101182855Y-30434468D01*
X101184498Y-30433156D01*
X101186357Y-30432168D01*
X101215011Y-30408798D01*
X101243866Y-30385764D01*
X101246796Y-30382876D01*
X101246854Y-30382828D01*
X101246899Y-30382774D01*
X101247843Y-30381843D01*
X101829186Y-29800500D01*
X114137424Y-29800500D01*
X114129783Y-29955512D01*
X114171213Y-30235130D01*
X114266397Y-30501292D01*
X114333329Y-30626514D01*
X114577298Y-30698097D01*
X115390395Y-29885000D01*
X115376253Y-29870858D01*
X115446610Y-29800500D01*
X115693390Y-29800500D01*
X115763748Y-29870858D01*
X115749605Y-29885000D01*
X116562702Y-30698097D01*
X116806671Y-30626514D01*
X116927571Y-30371004D01*
X116996300Y-30096816D01*
X117010217Y-29814488D01*
X117008144Y-29800500D01*
X117814962Y-29800500D01*
X117784184Y-29838003D01*
X117730008Y-29939358D01*
X117370397Y-30298969D01*
X117370391Y-30298974D01*
X116227878Y-31441487D01*
X116114729Y-31365884D01*
X115917479Y-31284180D01*
X115920130Y-31283787D01*
X116186292Y-31188603D01*
X116311514Y-31121671D01*
X116383097Y-30877702D01*
X115570000Y-30064605D01*
X114756903Y-30877702D01*
X114828486Y-31121671D01*
X115083996Y-31242571D01*
X115232877Y-31279890D01*
X115025271Y-31365884D01*
X114836918Y-31491737D01*
X114676737Y-31651918D01*
X114550884Y-31840271D01*
X114464194Y-32049557D01*
X114420000Y-32271735D01*
X114420000Y-32498265D01*
X114464194Y-32720443D01*
X114550884Y-32929729D01*
X114626487Y-33042878D01*
X111394000Y-36275366D01*
X111394000Y-36257981D01*
X111369021Y-36132402D01*
X111320022Y-36014110D01*
X111248888Y-35907649D01*
X111158351Y-35817112D01*
X111051890Y-35745978D01*
X110933598Y-35696979D01*
X110808019Y-35672000D01*
X110679981Y-35672000D01*
X110554402Y-35696979D01*
X110436110Y-35745978D01*
X110329649Y-35817112D01*
X110239112Y-35907649D01*
X110167978Y-36014110D01*
X110119957Y-36130042D01*
X109999998Y-36250001D01*
X101609972Y-36250001D01*
X101687571Y-36086004D01*
X101756300Y-35811816D01*
X101770217Y-35529488D01*
X101728787Y-35249870D01*
X101633603Y-34983708D01*
X101566671Y-34858486D01*
X101322702Y-34786903D01*
X100509605Y-35600000D01*
X100523748Y-35614143D01*
X100344143Y-35793748D01*
X100330000Y-35779605D01*
X100315858Y-35793748D01*
X100136253Y-35614143D01*
X100150395Y-35600000D01*
X99337298Y-34786903D01*
X99093329Y-34858486D01*
X98972429Y-35113996D01*
X98903700Y-35388184D01*
X98889783Y-35670512D01*
X98931213Y-35950130D01*
X99026397Y-36216292D01*
X99044415Y-36250001D01*
X90836327Y-36250001D01*
X90807998Y-36247211D01*
X90779669Y-36250001D01*
X90779663Y-36250001D01*
X90694887Y-36258351D01*
X90586123Y-36291344D01*
X90485884Y-36344922D01*
X90398025Y-36417027D01*
X90379962Y-36439037D01*
X89830965Y-36988034D01*
X89760439Y-36966640D01*
X89591492Y-36950000D01*
X89478508Y-36950000D01*
X89309561Y-36966640D01*
X89092785Y-37032398D01*
X88893003Y-37139184D01*
X88717893Y-37282893D01*
X88574184Y-37458003D01*
X88467398Y-37657785D01*
X88401640Y-37874561D01*
X88379436Y-38100000D01*
X88401640Y-38325439D01*
X88467398Y-38542215D01*
X88574184Y-38741997D01*
X88717893Y-38917107D01*
X88893003Y-39060816D01*
X89092785Y-39167602D01*
X89309561Y-39233360D01*
X89478508Y-39250000D01*
X89591492Y-39250000D01*
X89760439Y-39233360D01*
X89977215Y-39167602D01*
X90176997Y-39060816D01*
X90352107Y-38917107D01*
X90495816Y-38741997D01*
X90602602Y-38542215D01*
X90668360Y-38325439D01*
X90690564Y-38100000D01*
X90668360Y-37874561D01*
X90646966Y-37804035D01*
X91047000Y-37404001D01*
X91158502Y-37404001D01*
X91114184Y-37458003D01*
X91007398Y-37657785D01*
X90941640Y-37874561D01*
X90919436Y-38100000D01*
X90941640Y-38325439D01*
X91007398Y-38542215D01*
X91114184Y-38741997D01*
X91257893Y-38917107D01*
X91433003Y-39060816D01*
X91632785Y-39167602D01*
X91849561Y-39233360D01*
X92018508Y-39250000D01*
X92131492Y-39250000D01*
X92300439Y-39233360D01*
X92517215Y-39167602D01*
X92716997Y-39060816D01*
X92892107Y-38917107D01*
X93035816Y-38741997D01*
X93142602Y-38542215D01*
X93208360Y-38325439D01*
X93230564Y-38100000D01*
X93208360Y-37874561D01*
X93142602Y-37657785D01*
X93035816Y-37458003D01*
X92991498Y-37404001D01*
X93698502Y-37404001D01*
X93654184Y-37458003D01*
X93547398Y-37657785D01*
X93481640Y-37874561D01*
X93459436Y-38100000D01*
X93481640Y-38325439D01*
X93489703Y-38352020D01*
X91024810Y-40816914D01*
X91001250Y-40836249D01*
X90981916Y-40859808D01*
X90924084Y-40930276D01*
X90866745Y-41037551D01*
X90831436Y-41153949D01*
X90819513Y-41275000D01*
X90822501Y-41305336D01*
X90822500Y-69469000D01*
X88481777Y-69469000D01*
X89950192Y-68000585D01*
X89973751Y-67981251D01*
X90015811Y-67930000D01*
X90050916Y-67887225D01*
X90108254Y-67779951D01*
X90108255Y-67779950D01*
X90143565Y-67663551D01*
X90152500Y-67572829D01*
X90152500Y-67572827D01*
X90155487Y-67542501D01*
X90152500Y-67512175D01*
X90152500Y-42117755D01*
X90160021Y-42099598D01*
X90185000Y-41974019D01*
X90185000Y-41845981D01*
X90160021Y-41720402D01*
X90111022Y-41602110D01*
X90039888Y-41495649D01*
X89949351Y-41405112D01*
X89842890Y-41333978D01*
X89724598Y-41284979D01*
X89599019Y-41260000D01*
X89470981Y-41260000D01*
X89345402Y-41284979D01*
X89227110Y-41333978D01*
X89120649Y-41405112D01*
X89030112Y-41495649D01*
X88958978Y-41602110D01*
X88909979Y-41720402D01*
X88885000Y-41845981D01*
X88885000Y-41974019D01*
X88909979Y-42099598D01*
X88917501Y-42117757D01*
X88917500Y-67286723D01*
X86735224Y-69469000D01*
X84437500Y-69469000D01*
X84437500Y-39371227D01*
X84440487Y-39340901D01*
X84434652Y-39281656D01*
X84431534Y-39250000D01*
X84511492Y-39250000D01*
X84680439Y-39233360D01*
X84897215Y-39167602D01*
X85096997Y-39060816D01*
X85272107Y-38917107D01*
X85415816Y-38741997D01*
X85522602Y-38542215D01*
X85588360Y-38325439D01*
X85610564Y-38100000D01*
X85839436Y-38100000D01*
X85861640Y-38325439D01*
X85927398Y-38542215D01*
X86034184Y-38741997D01*
X86177893Y-38917107D01*
X86353003Y-39060816D01*
X86552785Y-39167602D01*
X86769561Y-39233360D01*
X86938508Y-39250000D01*
X87051492Y-39250000D01*
X87220439Y-39233360D01*
X87437215Y-39167602D01*
X87636997Y-39060816D01*
X87812107Y-38917107D01*
X87955816Y-38741997D01*
X88062602Y-38542215D01*
X88128360Y-38325439D01*
X88150564Y-38100000D01*
X88128360Y-37874561D01*
X88062602Y-37657785D01*
X87955816Y-37458003D01*
X87812107Y-37282893D01*
X87636997Y-37139184D01*
X87437215Y-37032398D01*
X87220439Y-36966640D01*
X87051492Y-36950000D01*
X86938508Y-36950000D01*
X86769561Y-36966640D01*
X86552785Y-37032398D01*
X86353003Y-37139184D01*
X86177893Y-37282893D01*
X86034184Y-37458003D01*
X85927398Y-37657785D01*
X85861640Y-37874561D01*
X85839436Y-38100000D01*
X85610564Y-38100000D01*
X85588360Y-37874561D01*
X85522602Y-37657785D01*
X85415816Y-37458003D01*
X85272107Y-37282893D01*
X85096997Y-37139184D01*
X84897215Y-37032398D01*
X84680439Y-36966640D01*
X84511492Y-36950000D01*
X84398508Y-36950000D01*
X84229561Y-36966640D01*
X84012785Y-37032398D01*
X83813003Y-37139184D01*
X83804999Y-37145753D01*
X83804999Y-36067277D01*
X85900295Y-33971981D01*
X87361000Y-33971981D01*
X87361000Y-34100019D01*
X87385979Y-34225598D01*
X87434978Y-34343890D01*
X87506112Y-34450351D01*
X87596649Y-34540888D01*
X87703110Y-34612022D01*
X87821402Y-34661021D01*
X87946981Y-34686000D01*
X88075019Y-34686000D01*
X88200598Y-34661021D01*
X88218755Y-34653500D01*
X98598245Y-34653500D01*
X98616402Y-34661021D01*
X98741981Y-34686000D01*
X98870019Y-34686000D01*
X98995598Y-34661021D01*
X99113890Y-34612022D01*
X99120960Y-34607298D01*
X99516903Y-34607298D01*
X100330000Y-35420395D01*
X101143097Y-34607298D01*
X101071514Y-34363329D01*
X100816004Y-34242429D01*
X100541816Y-34173700D01*
X100259488Y-34159783D01*
X99979870Y-34201213D01*
X99713708Y-34296397D01*
X99588486Y-34363329D01*
X99516903Y-34607298D01*
X99120960Y-34607298D01*
X99220351Y-34540888D01*
X99310888Y-34450351D01*
X99382022Y-34343890D01*
X99431021Y-34225598D01*
X99456000Y-34100019D01*
X99456000Y-33971981D01*
X99431021Y-33846402D01*
X99382022Y-33728110D01*
X99310888Y-33621649D01*
X99220351Y-33531112D01*
X99113890Y-33459978D01*
X98995598Y-33410979D01*
X98870019Y-33386000D01*
X98741981Y-33386000D01*
X98616402Y-33410979D01*
X98598245Y-33418500D01*
X88218755Y-33418500D01*
X88200598Y-33410979D01*
X88075019Y-33386000D01*
X87946981Y-33386000D01*
X87821402Y-33410979D01*
X87703110Y-33459978D01*
X87596649Y-33531112D01*
X87506112Y-33621649D01*
X87434978Y-33728110D01*
X87385979Y-33846402D01*
X87361000Y-33971981D01*
X85900295Y-33971981D01*
X86488777Y-33383500D01*
X94838674Y-33383500D01*
X94869000Y-33386487D01*
X94899326Y-33383500D01*
X94899329Y-33383500D01*
X94990051Y-33374565D01*
X95106450Y-33339255D01*
X95213724Y-33281916D01*
X95307751Y-33204751D01*
X95327090Y-33181186D01*
X95760408Y-32747868D01*
X105187000Y-32747868D01*
X105187000Y-33292132D01*
X105293181Y-33825937D01*
X105501461Y-34328771D01*
X105803838Y-34781310D01*
X106188690Y-35166162D01*
X106641229Y-35468539D01*
X107144063Y-35676819D01*
X107677868Y-35783000D01*
X108222132Y-35783000D01*
X108755937Y-35676819D01*
X109258771Y-35468539D01*
X109711310Y-35166162D01*
X110096162Y-34781310D01*
X110398539Y-34328771D01*
X110606819Y-33825937D01*
X110713000Y-33292132D01*
X110713000Y-32747868D01*
X110606819Y-32214063D01*
X110398539Y-31711229D01*
X110096162Y-31258690D01*
X109711310Y-30873838D01*
X109258771Y-30571461D01*
X108755937Y-30363181D01*
X108222132Y-30257000D01*
X107677868Y-30257000D01*
X107144063Y-30363181D01*
X106641229Y-30571461D01*
X106188690Y-30873838D01*
X105803838Y-31258690D01*
X105501461Y-31711229D01*
X105293181Y-32214063D01*
X105187000Y-32747868D01*
X95760408Y-32747868D01*
X96876584Y-31631693D01*
X97955000Y-31631693D01*
X98023612Y-31624935D01*
X98089587Y-31604922D01*
X98150390Y-31572422D01*
X98203685Y-31528685D01*
X98247422Y-31475390D01*
X98279922Y-31414587D01*
X98299935Y-31348612D01*
X98306693Y-31280000D01*
X98306693Y-29800500D01*
X98503333Y-29800500D01*
X98820000Y-30038000D01*
X98820000Y-30038000D01*
G37*
X98820000Y-30038000D02*
X98827121Y-30042324D01*
X98833495Y-30047690D01*
X98838120Y-30050820D01*
X99209880Y-30298660D01*
X99709000Y-30673000D01*
X99737921Y-30690564D01*
X99766378Y-30708878D01*
X99771249Y-30710803D01*
X99775726Y-30713522D01*
X99807492Y-30725127D01*
X99838979Y-30737572D01*
X99844137Y-30738515D01*
X99849052Y-30740311D01*
X99882479Y-30745528D01*
X99915772Y-30751617D01*
X99921006Y-30751541D01*
X99926185Y-30752349D01*
X99960009Y-30750973D01*
X99993830Y-30750480D01*
X99998952Y-30749388D01*
X100004186Y-30749175D01*
X100037103Y-30741254D01*
X100070180Y-30734202D01*
X100075491Y-30732473D01*
X100775911Y-30499000D01*
X100965000Y-30499000D01*
X101001784Y-30495393D01*
X101038580Y-30492174D01*
X101040599Y-30491587D01*
X101042694Y-30491382D01*
X101078077Y-30480699D01*
X101113547Y-30470394D01*
X101115415Y-30469426D01*
X101117428Y-30468818D01*
X101150058Y-30451469D01*
X101182855Y-30434468D01*
X101184498Y-30433156D01*
X101186357Y-30432168D01*
X101215011Y-30408798D01*
X101243866Y-30385764D01*
X101246796Y-30382876D01*
X101246854Y-30382828D01*
X101246899Y-30382774D01*
X101247843Y-30381843D01*
X101829186Y-29800500D01*
X114137424Y-29800500D01*
X114129783Y-29955512D01*
X114171213Y-30235130D01*
X114266397Y-30501292D01*
X114333329Y-30626514D01*
X114577298Y-30698097D01*
X115390395Y-29885000D01*
X115376253Y-29870858D01*
X115446610Y-29800500D01*
X115693390Y-29800500D01*
X115763748Y-29870858D01*
X115749605Y-29885000D01*
X116562702Y-30698097D01*
X116806671Y-30626514D01*
X116927571Y-30371004D01*
X116996300Y-30096816D01*
X117010217Y-29814488D01*
X117008144Y-29800500D01*
X117814962Y-29800500D01*
X117784184Y-29838003D01*
X117730008Y-29939358D01*
X117370397Y-30298969D01*
X117370391Y-30298974D01*
X116227878Y-31441487D01*
X116114729Y-31365884D01*
X115917479Y-31284180D01*
X115920130Y-31283787D01*
X116186292Y-31188603D01*
X116311514Y-31121671D01*
X116383097Y-30877702D01*
X115570000Y-30064605D01*
X114756903Y-30877702D01*
X114828486Y-31121671D01*
X115083996Y-31242571D01*
X115232877Y-31279890D01*
X115025271Y-31365884D01*
X114836918Y-31491737D01*
X114676737Y-31651918D01*
X114550884Y-31840271D01*
X114464194Y-32049557D01*
X114420000Y-32271735D01*
X114420000Y-32498265D01*
X114464194Y-32720443D01*
X114550884Y-32929729D01*
X114626487Y-33042878D01*
X111394000Y-36275366D01*
X111394000Y-36257981D01*
X111369021Y-36132402D01*
X111320022Y-36014110D01*
X111248888Y-35907649D01*
X111158351Y-35817112D01*
X111051890Y-35745978D01*
X110933598Y-35696979D01*
X110808019Y-35672000D01*
X110679981Y-35672000D01*
X110554402Y-35696979D01*
X110436110Y-35745978D01*
X110329649Y-35817112D01*
X110239112Y-35907649D01*
X110167978Y-36014110D01*
X110119957Y-36130042D01*
X109999998Y-36250001D01*
X101609972Y-36250001D01*
X101687571Y-36086004D01*
X101756300Y-35811816D01*
X101770217Y-35529488D01*
X101728787Y-35249870D01*
X101633603Y-34983708D01*
X101566671Y-34858486D01*
X101322702Y-34786903D01*
X100509605Y-35600000D01*
X100523748Y-35614143D01*
X100344143Y-35793748D01*
X100330000Y-35779605D01*
X100315858Y-35793748D01*
X100136253Y-35614143D01*
X100150395Y-35600000D01*
X99337298Y-34786903D01*
X99093329Y-34858486D01*
X98972429Y-35113996D01*
X98903700Y-35388184D01*
X98889783Y-35670512D01*
X98931213Y-35950130D01*
X99026397Y-36216292D01*
X99044415Y-36250001D01*
X90836327Y-36250001D01*
X90807998Y-36247211D01*
X90779669Y-36250001D01*
X90779663Y-36250001D01*
X90694887Y-36258351D01*
X90586123Y-36291344D01*
X90485884Y-36344922D01*
X90398025Y-36417027D01*
X90379962Y-36439037D01*
X89830965Y-36988034D01*
X89760439Y-36966640D01*
X89591492Y-36950000D01*
X89478508Y-36950000D01*
X89309561Y-36966640D01*
X89092785Y-37032398D01*
X88893003Y-37139184D01*
X88717893Y-37282893D01*
X88574184Y-37458003D01*
X88467398Y-37657785D01*
X88401640Y-37874561D01*
X88379436Y-38100000D01*
X88401640Y-38325439D01*
X88467398Y-38542215D01*
X88574184Y-38741997D01*
X88717893Y-38917107D01*
X88893003Y-39060816D01*
X89092785Y-39167602D01*
X89309561Y-39233360D01*
X89478508Y-39250000D01*
X89591492Y-39250000D01*
X89760439Y-39233360D01*
X89977215Y-39167602D01*
X90176997Y-39060816D01*
X90352107Y-38917107D01*
X90495816Y-38741997D01*
X90602602Y-38542215D01*
X90668360Y-38325439D01*
X90690564Y-38100000D01*
X90668360Y-37874561D01*
X90646966Y-37804035D01*
X91047000Y-37404001D01*
X91158502Y-37404001D01*
X91114184Y-37458003D01*
X91007398Y-37657785D01*
X90941640Y-37874561D01*
X90919436Y-38100000D01*
X90941640Y-38325439D01*
X91007398Y-38542215D01*
X91114184Y-38741997D01*
X91257893Y-38917107D01*
X91433003Y-39060816D01*
X91632785Y-39167602D01*
X91849561Y-39233360D01*
X92018508Y-39250000D01*
X92131492Y-39250000D01*
X92300439Y-39233360D01*
X92517215Y-39167602D01*
X92716997Y-39060816D01*
X92892107Y-38917107D01*
X93035816Y-38741997D01*
X93142602Y-38542215D01*
X93208360Y-38325439D01*
X93230564Y-38100000D01*
X93208360Y-37874561D01*
X93142602Y-37657785D01*
X93035816Y-37458003D01*
X92991498Y-37404001D01*
X93698502Y-37404001D01*
X93654184Y-37458003D01*
X93547398Y-37657785D01*
X93481640Y-37874561D01*
X93459436Y-38100000D01*
X93481640Y-38325439D01*
X93489703Y-38352020D01*
X91024810Y-40816914D01*
X91001250Y-40836249D01*
X90981916Y-40859808D01*
X90924084Y-40930276D01*
X90866745Y-41037551D01*
X90831436Y-41153949D01*
X90819513Y-41275000D01*
X90822501Y-41305336D01*
X90822500Y-69469000D01*
X88481777Y-69469000D01*
X89950192Y-68000585D01*
X89973751Y-67981251D01*
X90015811Y-67930000D01*
X90050916Y-67887225D01*
X90108254Y-67779951D01*
X90108255Y-67779950D01*
X90143565Y-67663551D01*
X90152500Y-67572829D01*
X90152500Y-67572827D01*
X90155487Y-67542501D01*
X90152500Y-67512175D01*
X90152500Y-42117755D01*
X90160021Y-42099598D01*
X90185000Y-41974019D01*
X90185000Y-41845981D01*
X90160021Y-41720402D01*
X90111022Y-41602110D01*
X90039888Y-41495649D01*
X89949351Y-41405112D01*
X89842890Y-41333978D01*
X89724598Y-41284979D01*
X89599019Y-41260000D01*
X89470981Y-41260000D01*
X89345402Y-41284979D01*
X89227110Y-41333978D01*
X89120649Y-41405112D01*
X89030112Y-41495649D01*
X88958978Y-41602110D01*
X88909979Y-41720402D01*
X88885000Y-41845981D01*
X88885000Y-41974019D01*
X88909979Y-42099598D01*
X88917501Y-42117757D01*
X88917500Y-67286723D01*
X86735224Y-69469000D01*
X84437500Y-69469000D01*
X84437500Y-39371227D01*
X84440487Y-39340901D01*
X84434652Y-39281656D01*
X84431534Y-39250000D01*
X84511492Y-39250000D01*
X84680439Y-39233360D01*
X84897215Y-39167602D01*
X85096997Y-39060816D01*
X85272107Y-38917107D01*
X85415816Y-38741997D01*
X85522602Y-38542215D01*
X85588360Y-38325439D01*
X85610564Y-38100000D01*
X85839436Y-38100000D01*
X85861640Y-38325439D01*
X85927398Y-38542215D01*
X86034184Y-38741997D01*
X86177893Y-38917107D01*
X86353003Y-39060816D01*
X86552785Y-39167602D01*
X86769561Y-39233360D01*
X86938508Y-39250000D01*
X87051492Y-39250000D01*
X87220439Y-39233360D01*
X87437215Y-39167602D01*
X87636997Y-39060816D01*
X87812107Y-38917107D01*
X87955816Y-38741997D01*
X88062602Y-38542215D01*
X88128360Y-38325439D01*
X88150564Y-38100000D01*
X88128360Y-37874561D01*
X88062602Y-37657785D01*
X87955816Y-37458003D01*
X87812107Y-37282893D01*
X87636997Y-37139184D01*
X87437215Y-37032398D01*
X87220439Y-36966640D01*
X87051492Y-36950000D01*
X86938508Y-36950000D01*
X86769561Y-36966640D01*
X86552785Y-37032398D01*
X86353003Y-37139184D01*
X86177893Y-37282893D01*
X86034184Y-37458003D01*
X85927398Y-37657785D01*
X85861640Y-37874561D01*
X85839436Y-38100000D01*
X85610564Y-38100000D01*
X85588360Y-37874561D01*
X85522602Y-37657785D01*
X85415816Y-37458003D01*
X85272107Y-37282893D01*
X85096997Y-37139184D01*
X84897215Y-37032398D01*
X84680439Y-36966640D01*
X84511492Y-36950000D01*
X84398508Y-36950000D01*
X84229561Y-36966640D01*
X84012785Y-37032398D01*
X83813003Y-37139184D01*
X83804999Y-37145753D01*
X83804999Y-36067277D01*
X85900295Y-33971981D01*
X87361000Y-33971981D01*
X87361000Y-34100019D01*
X87385979Y-34225598D01*
X87434978Y-34343890D01*
X87506112Y-34450351D01*
X87596649Y-34540888D01*
X87703110Y-34612022D01*
X87821402Y-34661021D01*
X87946981Y-34686000D01*
X88075019Y-34686000D01*
X88200598Y-34661021D01*
X88218755Y-34653500D01*
X98598245Y-34653500D01*
X98616402Y-34661021D01*
X98741981Y-34686000D01*
X98870019Y-34686000D01*
X98995598Y-34661021D01*
X99113890Y-34612022D01*
X99120960Y-34607298D01*
X99516903Y-34607298D01*
X100330000Y-35420395D01*
X101143097Y-34607298D01*
X101071514Y-34363329D01*
X100816004Y-34242429D01*
X100541816Y-34173700D01*
X100259488Y-34159783D01*
X99979870Y-34201213D01*
X99713708Y-34296397D01*
X99588486Y-34363329D01*
X99516903Y-34607298D01*
X99120960Y-34607298D01*
X99220351Y-34540888D01*
X99310888Y-34450351D01*
X99382022Y-34343890D01*
X99431021Y-34225598D01*
X99456000Y-34100019D01*
X99456000Y-33971981D01*
X99431021Y-33846402D01*
X99382022Y-33728110D01*
X99310888Y-33621649D01*
X99220351Y-33531112D01*
X99113890Y-33459978D01*
X98995598Y-33410979D01*
X98870019Y-33386000D01*
X98741981Y-33386000D01*
X98616402Y-33410979D01*
X98598245Y-33418500D01*
X88218755Y-33418500D01*
X88200598Y-33410979D01*
X88075019Y-33386000D01*
X87946981Y-33386000D01*
X87821402Y-33410979D01*
X87703110Y-33459978D01*
X87596649Y-33531112D01*
X87506112Y-33621649D01*
X87434978Y-33728110D01*
X87385979Y-33846402D01*
X87361000Y-33971981D01*
X85900295Y-33971981D01*
X86488777Y-33383500D01*
X94838674Y-33383500D01*
X94869000Y-33386487D01*
X94899326Y-33383500D01*
X94899329Y-33383500D01*
X94990051Y-33374565D01*
X95106450Y-33339255D01*
X95213724Y-33281916D01*
X95307751Y-33204751D01*
X95327090Y-33181186D01*
X95760408Y-32747868D01*
X105187000Y-32747868D01*
X105187000Y-33292132D01*
X105293181Y-33825937D01*
X105501461Y-34328771D01*
X105803838Y-34781310D01*
X106188690Y-35166162D01*
X106641229Y-35468539D01*
X107144063Y-35676819D01*
X107677868Y-35783000D01*
X108222132Y-35783000D01*
X108755937Y-35676819D01*
X109258771Y-35468539D01*
X109711310Y-35166162D01*
X110096162Y-34781310D01*
X110398539Y-34328771D01*
X110606819Y-33825937D01*
X110713000Y-33292132D01*
X110713000Y-32747868D01*
X110606819Y-32214063D01*
X110398539Y-31711229D01*
X110096162Y-31258690D01*
X109711310Y-30873838D01*
X109258771Y-30571461D01*
X108755937Y-30363181D01*
X108222132Y-30257000D01*
X107677868Y-30257000D01*
X107144063Y-30363181D01*
X106641229Y-30571461D01*
X106188690Y-30873838D01*
X105803838Y-31258690D01*
X105501461Y-31711229D01*
X105293181Y-32214063D01*
X105187000Y-32747868D01*
X95760408Y-32747868D01*
X96876584Y-31631693D01*
X97955000Y-31631693D01*
X98023612Y-31624935D01*
X98089587Y-31604922D01*
X98150390Y-31572422D01*
X98203685Y-31528685D01*
X98247422Y-31475390D01*
X98279922Y-31414587D01*
X98299935Y-31348612D01*
X98306693Y-31280000D01*
X98306693Y-29800500D01*
X98503333Y-29800500D01*
X98820000Y-30038000D01*
G36*
X80954184Y-38741997D02*
G01*
X81097893Y-38917107D01*
X81273003Y-39060816D01*
X81472785Y-39167602D01*
X81689561Y-39233360D01*
X81858508Y-39250000D01*
X81971492Y-39250000D01*
X82140439Y-39233360D01*
X82357215Y-39167602D01*
X82556997Y-39060816D01*
X82639502Y-38993106D01*
X82671583Y-39053125D01*
X82698781Y-39086266D01*
X82748748Y-39147152D01*
X82772313Y-39166491D01*
X83202501Y-39596679D01*
X83202500Y-60908582D01*
X83151671Y-60813486D01*
X82907702Y-60741903D01*
X82094605Y-61555000D01*
X82907702Y-62368097D01*
X83151671Y-62296514D01*
X83202500Y-62189091D01*
X83202500Y-69469000D01*
X82669939Y-69469000D01*
X82606185Y-69391315D01*
X82509494Y-69311963D01*
X82399180Y-69252998D01*
X82279482Y-69216688D01*
X82155000Y-69204428D01*
X81565750Y-69207500D01*
X81407000Y-69366250D01*
X81407000Y-69469000D01*
X81153000Y-69469000D01*
X81153000Y-69366250D01*
X80994250Y-69207500D01*
X80854500Y-69206771D01*
X80854500Y-62547702D01*
X81101903Y-62547702D01*
X81173486Y-62791671D01*
X81428996Y-62912571D01*
X81703184Y-62981300D01*
X81985512Y-62995217D01*
X82265130Y-62953787D01*
X82531292Y-62858603D01*
X82656514Y-62791671D01*
X82728097Y-62547702D01*
X81915000Y-61734605D01*
X81101903Y-62547702D01*
X80854500Y-62547702D01*
X80854500Y-62348204D01*
X80922298Y-62368097D01*
X81735395Y-61555000D01*
X80922298Y-60741903D01*
X80854500Y-60761796D01*
X80854500Y-60089288D01*
X80866315Y-60103685D01*
X80919610Y-60147422D01*
X80980413Y-60179922D01*
X81046388Y-60199935D01*
X81115000Y-60206693D01*
X81423713Y-60206693D01*
X81298708Y-60251397D01*
X81173486Y-60318329D01*
X81101903Y-60562298D01*
X81915000Y-61375395D01*
X82728097Y-60562298D01*
X82656514Y-60318329D01*
X82420583Y-60206693D01*
X82715000Y-60206693D01*
X82783612Y-60199935D01*
X82849587Y-60179922D01*
X82910390Y-60147422D01*
X82963685Y-60103685D01*
X83007422Y-60050390D01*
X83039922Y-59989587D01*
X83059935Y-59923612D01*
X83066693Y-59855000D01*
X83066693Y-58255000D01*
X83059935Y-58186388D01*
X83039922Y-58120413D01*
X83007422Y-58059610D01*
X82963685Y-58006315D01*
X82910390Y-57962578D01*
X82849587Y-57930078D01*
X82783612Y-57910065D01*
X82715000Y-57903307D01*
X81115000Y-57903307D01*
X81046388Y-57910065D01*
X80980413Y-57930078D01*
X80919610Y-57962578D01*
X80866315Y-58006315D01*
X80854500Y-58020712D01*
X80854500Y-38555502D01*
X80954184Y-38741997D01*
X80954184Y-38741997D01*
G37*
X80954184Y-38741997D02*
X81097893Y-38917107D01*
X81273003Y-39060816D01*
X81472785Y-39167602D01*
X81689561Y-39233360D01*
X81858508Y-39250000D01*
X81971492Y-39250000D01*
X82140439Y-39233360D01*
X82357215Y-39167602D01*
X82556997Y-39060816D01*
X82639502Y-38993106D01*
X82671583Y-39053125D01*
X82698781Y-39086266D01*
X82748748Y-39147152D01*
X82772313Y-39166491D01*
X83202501Y-39596679D01*
X83202500Y-60908582D01*
X83151671Y-60813486D01*
X82907702Y-60741903D01*
X82094605Y-61555000D01*
X82907702Y-62368097D01*
X83151671Y-62296514D01*
X83202500Y-62189091D01*
X83202500Y-69469000D01*
X82669939Y-69469000D01*
X82606185Y-69391315D01*
X82509494Y-69311963D01*
X82399180Y-69252998D01*
X82279482Y-69216688D01*
X82155000Y-69204428D01*
X81565750Y-69207500D01*
X81407000Y-69366250D01*
X81407000Y-69469000D01*
X81153000Y-69469000D01*
X81153000Y-69366250D01*
X80994250Y-69207500D01*
X80854500Y-69206771D01*
X80854500Y-62547702D01*
X81101903Y-62547702D01*
X81173486Y-62791671D01*
X81428996Y-62912571D01*
X81703184Y-62981300D01*
X81985512Y-62995217D01*
X82265130Y-62953787D01*
X82531292Y-62858603D01*
X82656514Y-62791671D01*
X82728097Y-62547702D01*
X81915000Y-61734605D01*
X81101903Y-62547702D01*
X80854500Y-62547702D01*
X80854500Y-62348204D01*
X80922298Y-62368097D01*
X81735395Y-61555000D01*
X80922298Y-60741903D01*
X80854500Y-60761796D01*
X80854500Y-60089288D01*
X80866315Y-60103685D01*
X80919610Y-60147422D01*
X80980413Y-60179922D01*
X81046388Y-60199935D01*
X81115000Y-60206693D01*
X81423713Y-60206693D01*
X81298708Y-60251397D01*
X81173486Y-60318329D01*
X81101903Y-60562298D01*
X81915000Y-61375395D01*
X82728097Y-60562298D01*
X82656514Y-60318329D01*
X82420583Y-60206693D01*
X82715000Y-60206693D01*
X82783612Y-60199935D01*
X82849587Y-60179922D01*
X82910390Y-60147422D01*
X82963685Y-60103685D01*
X83007422Y-60050390D01*
X83039922Y-59989587D01*
X83059935Y-59923612D01*
X83066693Y-59855000D01*
X83066693Y-58255000D01*
X83059935Y-58186388D01*
X83039922Y-58120413D01*
X83007422Y-58059610D01*
X82963685Y-58006315D01*
X82910390Y-57962578D01*
X82849587Y-57930078D01*
X82783612Y-57910065D01*
X82715000Y-57903307D01*
X81115000Y-57903307D01*
X81046388Y-57910065D01*
X80980413Y-57930078D01*
X80919610Y-57962578D01*
X80866315Y-58006315D01*
X80854500Y-58020712D01*
X80854500Y-38555502D01*
X80954184Y-38741997D01*
G36*
X86034184Y-29838003D02*
G01*
X85927398Y-30037785D01*
X85861640Y-30254561D01*
X85839436Y-30480000D01*
X85861640Y-30705439D01*
X85927398Y-30922215D01*
X86034184Y-31121997D01*
X86177893Y-31297107D01*
X86353003Y-31440816D01*
X86552785Y-31547602D01*
X86769561Y-31613360D01*
X86938508Y-31630000D01*
X87051492Y-31630000D01*
X87220439Y-31613360D01*
X87437215Y-31547602D01*
X87636997Y-31440816D01*
X87812107Y-31297107D01*
X87955816Y-31121997D01*
X88062602Y-30922215D01*
X88128360Y-30705439D01*
X88150564Y-30480000D01*
X88128360Y-30254561D01*
X88062602Y-30037785D01*
X87955816Y-29838003D01*
X87925038Y-29800500D01*
X88604962Y-29800500D01*
X88574184Y-29838003D01*
X88467398Y-30037785D01*
X88401640Y-30254561D01*
X88379436Y-30480000D01*
X88401640Y-30705439D01*
X88467398Y-30922215D01*
X88574184Y-31121997D01*
X88717893Y-31297107D01*
X88893003Y-31440816D01*
X89092785Y-31547602D01*
X89309561Y-31613360D01*
X89478508Y-31630000D01*
X89591492Y-31630000D01*
X89760439Y-31613360D01*
X89977215Y-31547602D01*
X90176997Y-31440816D01*
X90352107Y-31297107D01*
X90495816Y-31121997D01*
X90602602Y-30922215D01*
X90668360Y-30705439D01*
X90690564Y-30480000D01*
X90668360Y-30254561D01*
X90602602Y-30037785D01*
X90495816Y-29838003D01*
X90465038Y-29800500D01*
X91144962Y-29800500D01*
X91114184Y-29838003D01*
X91007398Y-30037785D01*
X90941640Y-30254561D01*
X90919436Y-30480000D01*
X90941640Y-30705439D01*
X91007398Y-30922215D01*
X91114184Y-31121997D01*
X91257893Y-31297107D01*
X91433003Y-31440816D01*
X91632785Y-31547602D01*
X91849561Y-31613360D01*
X92018508Y-31630000D01*
X92131492Y-31630000D01*
X92300439Y-31613360D01*
X92517215Y-31547602D01*
X92716997Y-31440816D01*
X92892107Y-31297107D01*
X93035816Y-31121997D01*
X93142602Y-30922215D01*
X93208360Y-30705439D01*
X93230564Y-30480000D01*
X93208360Y-30254561D01*
X93142602Y-30037785D01*
X93035816Y-29838003D01*
X93005038Y-29800500D01*
X93684962Y-29800500D01*
X93654184Y-29838003D01*
X93547398Y-30037785D01*
X93481640Y-30254561D01*
X93459436Y-30480000D01*
X93481640Y-30705439D01*
X93547398Y-30922215D01*
X93654184Y-31121997D01*
X93797893Y-31297107D01*
X93973003Y-31440816D01*
X94172785Y-31547602D01*
X94389561Y-31613360D01*
X94558508Y-31630000D01*
X94671492Y-31630000D01*
X94840439Y-31613360D01*
X95057215Y-31547602D01*
X95256997Y-31440816D01*
X95432107Y-31297107D01*
X95575816Y-31121997D01*
X95682602Y-30922215D01*
X95748360Y-30705439D01*
X95770564Y-30480000D01*
X95748360Y-30254561D01*
X95682602Y-30037785D01*
X95575816Y-29838003D01*
X95545038Y-29800500D01*
X96003307Y-29800500D01*
X96003307Y-30758416D01*
X94613224Y-32148500D01*
X86263326Y-32148500D01*
X86233000Y-32145513D01*
X86202674Y-32148500D01*
X86202671Y-32148500D01*
X86111949Y-32157435D01*
X85995550Y-32192745D01*
X85888275Y-32250084D01*
X85837094Y-32292087D01*
X85794249Y-32327249D01*
X85774915Y-32350808D01*
X82772309Y-35353415D01*
X82748749Y-35372750D01*
X82729415Y-35396309D01*
X82671583Y-35466777D01*
X82614244Y-35574052D01*
X82578935Y-35690450D01*
X82567012Y-35811501D01*
X82570000Y-35841837D01*
X82570000Y-37149855D01*
X82556997Y-37139184D01*
X82357215Y-37032398D01*
X82140439Y-36966640D01*
X81971492Y-36950000D01*
X81858508Y-36950000D01*
X81689561Y-36966640D01*
X81472785Y-37032398D01*
X81273003Y-37139184D01*
X81097893Y-37282893D01*
X80954184Y-37458003D01*
X80854500Y-37644498D01*
X80854500Y-31436457D01*
X80951586Y-31543519D01*
X81177580Y-31711037D01*
X81431913Y-31831246D01*
X81565961Y-31871904D01*
X81788000Y-31749915D01*
X81788000Y-30607000D01*
X81768000Y-30607000D01*
X81768000Y-30353000D01*
X81788000Y-30353000D01*
X81788000Y-30333000D01*
X82042000Y-30333000D01*
X82042000Y-30353000D01*
X82062000Y-30353000D01*
X82062000Y-30607000D01*
X82042000Y-30607000D01*
X82042000Y-31749915D01*
X82264039Y-31871904D01*
X82398087Y-31831246D01*
X82652420Y-31711037D01*
X82878414Y-31543519D01*
X83067385Y-31335131D01*
X83212070Y-31093881D01*
X83306909Y-30829040D01*
X83185625Y-30607002D01*
X83311945Y-30607002D01*
X83321640Y-30705439D01*
X83387398Y-30922215D01*
X83494184Y-31121997D01*
X83637893Y-31297107D01*
X83813003Y-31440816D01*
X84012785Y-31547602D01*
X84229561Y-31613360D01*
X84398508Y-31630000D01*
X84511492Y-31630000D01*
X84680439Y-31613360D01*
X84897215Y-31547602D01*
X85096997Y-31440816D01*
X85272107Y-31297107D01*
X85415816Y-31121997D01*
X85522602Y-30922215D01*
X85588360Y-30705439D01*
X85610564Y-30480000D01*
X85588360Y-30254561D01*
X85522602Y-30037785D01*
X85415816Y-29838003D01*
X85385038Y-29800500D01*
X86064962Y-29800500D01*
X86034184Y-29838003D01*
X86034184Y-29838003D01*
G37*
X86034184Y-29838003D02*
X85927398Y-30037785D01*
X85861640Y-30254561D01*
X85839436Y-30480000D01*
X85861640Y-30705439D01*
X85927398Y-30922215D01*
X86034184Y-31121997D01*
X86177893Y-31297107D01*
X86353003Y-31440816D01*
X86552785Y-31547602D01*
X86769561Y-31613360D01*
X86938508Y-31630000D01*
X87051492Y-31630000D01*
X87220439Y-31613360D01*
X87437215Y-31547602D01*
X87636997Y-31440816D01*
X87812107Y-31297107D01*
X87955816Y-31121997D01*
X88062602Y-30922215D01*
X88128360Y-30705439D01*
X88150564Y-30480000D01*
X88128360Y-30254561D01*
X88062602Y-30037785D01*
X87955816Y-29838003D01*
X87925038Y-29800500D01*
X88604962Y-29800500D01*
X88574184Y-29838003D01*
X88467398Y-30037785D01*
X88401640Y-30254561D01*
X88379436Y-30480000D01*
X88401640Y-30705439D01*
X88467398Y-30922215D01*
X88574184Y-31121997D01*
X88717893Y-31297107D01*
X88893003Y-31440816D01*
X89092785Y-31547602D01*
X89309561Y-31613360D01*
X89478508Y-31630000D01*
X89591492Y-31630000D01*
X89760439Y-31613360D01*
X89977215Y-31547602D01*
X90176997Y-31440816D01*
X90352107Y-31297107D01*
X90495816Y-31121997D01*
X90602602Y-30922215D01*
X90668360Y-30705439D01*
X90690564Y-30480000D01*
X90668360Y-30254561D01*
X90602602Y-30037785D01*
X90495816Y-29838003D01*
X90465038Y-29800500D01*
X91144962Y-29800500D01*
X91114184Y-29838003D01*
X91007398Y-30037785D01*
X90941640Y-30254561D01*
X90919436Y-30480000D01*
X90941640Y-30705439D01*
X91007398Y-30922215D01*
X91114184Y-31121997D01*
X91257893Y-31297107D01*
X91433003Y-31440816D01*
X91632785Y-31547602D01*
X91849561Y-31613360D01*
X92018508Y-31630000D01*
X92131492Y-31630000D01*
X92300439Y-31613360D01*
X92517215Y-31547602D01*
X92716997Y-31440816D01*
X92892107Y-31297107D01*
X93035816Y-31121997D01*
X93142602Y-30922215D01*
X93208360Y-30705439D01*
X93230564Y-30480000D01*
X93208360Y-30254561D01*
X93142602Y-30037785D01*
X93035816Y-29838003D01*
X93005038Y-29800500D01*
X93684962Y-29800500D01*
X93654184Y-29838003D01*
X93547398Y-30037785D01*
X93481640Y-30254561D01*
X93459436Y-30480000D01*
X93481640Y-30705439D01*
X93547398Y-30922215D01*
X93654184Y-31121997D01*
X93797893Y-31297107D01*
X93973003Y-31440816D01*
X94172785Y-31547602D01*
X94389561Y-31613360D01*
X94558508Y-31630000D01*
X94671492Y-31630000D01*
X94840439Y-31613360D01*
X95057215Y-31547602D01*
X95256997Y-31440816D01*
X95432107Y-31297107D01*
X95575816Y-31121997D01*
X95682602Y-30922215D01*
X95748360Y-30705439D01*
X95770564Y-30480000D01*
X95748360Y-30254561D01*
X95682602Y-30037785D01*
X95575816Y-29838003D01*
X95545038Y-29800500D01*
X96003307Y-29800500D01*
X96003307Y-30758416D01*
X94613224Y-32148500D01*
X86263326Y-32148500D01*
X86233000Y-32145513D01*
X86202674Y-32148500D01*
X86202671Y-32148500D01*
X86111949Y-32157435D01*
X85995550Y-32192745D01*
X85888275Y-32250084D01*
X85837094Y-32292087D01*
X85794249Y-32327249D01*
X85774915Y-32350808D01*
X82772309Y-35353415D01*
X82748749Y-35372750D01*
X82729415Y-35396309D01*
X82671583Y-35466777D01*
X82614244Y-35574052D01*
X82578935Y-35690450D01*
X82567012Y-35811501D01*
X82570000Y-35841837D01*
X82570000Y-37149855D01*
X82556997Y-37139184D01*
X82357215Y-37032398D01*
X82140439Y-36966640D01*
X81971492Y-36950000D01*
X81858508Y-36950000D01*
X81689561Y-36966640D01*
X81472785Y-37032398D01*
X81273003Y-37139184D01*
X81097893Y-37282893D01*
X80954184Y-37458003D01*
X80854500Y-37644498D01*
X80854500Y-31436457D01*
X80951586Y-31543519D01*
X81177580Y-31711037D01*
X81431913Y-31831246D01*
X81565961Y-31871904D01*
X81788000Y-31749915D01*
X81788000Y-30607000D01*
X81768000Y-30607000D01*
X81768000Y-30353000D01*
X81788000Y-30353000D01*
X81788000Y-30333000D01*
X82042000Y-30333000D01*
X82042000Y-30353000D01*
X82062000Y-30353000D01*
X82062000Y-30607000D01*
X82042000Y-30607000D01*
X82042000Y-31749915D01*
X82264039Y-31871904D01*
X82398087Y-31831246D01*
X82652420Y-31711037D01*
X82878414Y-31543519D01*
X83067385Y-31335131D01*
X83212070Y-31093881D01*
X83306909Y-30829040D01*
X83185625Y-30607002D01*
X83311945Y-30607002D01*
X83321640Y-30705439D01*
X83387398Y-30922215D01*
X83494184Y-31121997D01*
X83637893Y-31297107D01*
X83813003Y-31440816D01*
X84012785Y-31547602D01*
X84229561Y-31613360D01*
X84398508Y-31630000D01*
X84511492Y-31630000D01*
X84680439Y-31613360D01*
X84897215Y-31547602D01*
X85096997Y-31440816D01*
X85272107Y-31297107D01*
X85415816Y-31121997D01*
X85522602Y-30922215D01*
X85588360Y-30705439D01*
X85610564Y-30480000D01*
X85588360Y-30254561D01*
X85522602Y-30037785D01*
X85415816Y-29838003D01*
X85385038Y-29800500D01*
X86064962Y-29800500D01*
X86034184Y-29838003D01*
M02*
