%FSLAX45Y45*%
G04 Gerber Fmt 4.5, Leading zero omitted, Abs format (unit mm)*
G04 Created by KiCad (PCBNEW (5.1.2)-1) date 2019-11-02 02:49:32*
%MOMM*%
%LPD*%
G04 APERTURE LIST*
%ADD10C,0.200000*%
%ADD11C,0.300000*%
G04 APERTURE END LIST*
D10*
X10553700Y-3060700D02*
X11036300Y-3543300D01*
X11036300Y-3060700D02*
X10553700Y-3543300D01*
D11*
X286429Y-465714D02*
X286429Y-165714D01*
X357857Y-165714D01*
X400714Y-180000D01*
X429286Y-208571D01*
X443571Y-237143D01*
X457857Y-294286D01*
X457857Y-337143D01*
X443571Y-394286D01*
X429286Y-422857D01*
X400714Y-451428D01*
X357857Y-465714D01*
X286429Y-465714D01*
X586429Y-465714D02*
X586429Y-265714D01*
X586429Y-322857D02*
X600714Y-294286D01*
X615000Y-280000D01*
X643571Y-265714D01*
X672143Y-265714D01*
X772143Y-465714D02*
X772143Y-265714D01*
X772143Y-165714D02*
X757857Y-180000D01*
X772143Y-194286D01*
X786428Y-180000D01*
X772143Y-165714D01*
X772143Y-194286D01*
X957857Y-465714D02*
X929286Y-451428D01*
X915000Y-422857D01*
X915000Y-165714D01*
X1115000Y-465714D02*
X1086429Y-451428D01*
X1072143Y-422857D01*
X1072143Y-165714D01*
X1457857Y-465714D02*
X1457857Y-165714D01*
X1557857Y-380000D01*
X1657857Y-165714D01*
X1657857Y-465714D01*
X1929286Y-465714D02*
X1929286Y-308571D01*
X1915000Y-280000D01*
X1886428Y-265714D01*
X1829286Y-265714D01*
X1800714Y-280000D01*
X1929286Y-451428D02*
X1900714Y-465714D01*
X1829286Y-465714D01*
X1800714Y-451428D01*
X1786428Y-422857D01*
X1786428Y-394286D01*
X1800714Y-365714D01*
X1829286Y-351428D01*
X1900714Y-351428D01*
X1929286Y-337143D01*
X2072143Y-265714D02*
X2072143Y-565714D01*
X2072143Y-280000D02*
X2100714Y-265714D01*
X2157857Y-265714D01*
X2186429Y-280000D01*
X2200714Y-294286D01*
X2215000Y-322857D01*
X2215000Y-408571D01*
X2200714Y-437143D01*
X2186429Y-451428D01*
X2157857Y-465714D01*
X2100714Y-465714D01*
X2072143Y-451428D01*
X2343571Y-437143D02*
X2357857Y-451428D01*
X2343571Y-465714D01*
X2329286Y-451428D01*
X2343571Y-437143D01*
X2343571Y-465714D01*
X2343571Y-280000D02*
X2357857Y-294286D01*
X2343571Y-308571D01*
X2329286Y-294286D01*
X2343571Y-280000D01*
X2343571Y-308571D01*
X-482600Y-718700D02*
X0Y-1201300D01*
X0Y-718700D02*
X-482600Y-1201300D01*
X415000Y-895714D02*
X415000Y-1095714D01*
X343571Y-781428D02*
X272143Y-995714D01*
X457857Y-995714D01*
X572143Y-1067143D02*
X586429Y-1081429D01*
X572143Y-1095714D01*
X557857Y-1081429D01*
X572143Y-1067143D01*
X572143Y-1095714D01*
X757857Y-924286D02*
X729286Y-910000D01*
X715000Y-895714D01*
X700714Y-867143D01*
X700714Y-852857D01*
X715000Y-824286D01*
X729286Y-810000D01*
X757857Y-795714D01*
X815000Y-795714D01*
X843571Y-810000D01*
X857857Y-824286D01*
X872143Y-852857D01*
X872143Y-867143D01*
X857857Y-895714D01*
X843571Y-910000D01*
X815000Y-924286D01*
X757857Y-924286D01*
X729286Y-938571D01*
X715000Y-952857D01*
X700714Y-981428D01*
X700714Y-1038571D01*
X715000Y-1067143D01*
X729286Y-1081429D01*
X757857Y-1095714D01*
X815000Y-1095714D01*
X843571Y-1081429D01*
X857857Y-1067143D01*
X872143Y-1038571D01*
X872143Y-981428D01*
X857857Y-952857D01*
X843571Y-938571D01*
X815000Y-924286D01*
X972143Y-795714D02*
X1157857Y-795714D01*
X1057857Y-910000D01*
X1100714Y-910000D01*
X1129286Y-924286D01*
X1143571Y-938571D01*
X1157857Y-967143D01*
X1157857Y-1038571D01*
X1143571Y-1067143D01*
X1129286Y-1081429D01*
X1100714Y-1095714D01*
X1015000Y-1095714D01*
X986428Y-1081429D01*
X972143Y-1067143D01*
X1286429Y-1095714D02*
X1286429Y-895714D01*
X1286429Y-924286D02*
X1300714Y-910000D01*
X1329286Y-895714D01*
X1372143Y-895714D01*
X1400714Y-910000D01*
X1415000Y-938571D01*
X1415000Y-1095714D01*
X1415000Y-938571D02*
X1429286Y-910000D01*
X1457857Y-895714D01*
X1500714Y-895714D01*
X1529286Y-910000D01*
X1543571Y-938571D01*
X1543571Y-1095714D01*
X1686428Y-1095714D02*
X1686428Y-895714D01*
X1686428Y-924286D02*
X1700714Y-910000D01*
X1729286Y-895714D01*
X1772143Y-895714D01*
X1800714Y-910000D01*
X1815000Y-938571D01*
X1815000Y-1095714D01*
X1815000Y-938571D02*
X1829286Y-910000D01*
X1857857Y-895714D01*
X1900714Y-895714D01*
X1929286Y-910000D01*
X1943571Y-938571D01*
X1943571Y-1095714D01*
X2529286Y-781428D02*
X2272143Y-1167143D01*
X2915000Y-795714D02*
X2943571Y-795714D01*
X2972143Y-810000D01*
X2986428Y-824286D01*
X3000714Y-852857D01*
X3015000Y-910000D01*
X3015000Y-981428D01*
X3000714Y-1038571D01*
X2986428Y-1067143D01*
X2972143Y-1081429D01*
X2943571Y-1095714D01*
X2915000Y-1095714D01*
X2886428Y-1081429D01*
X2872143Y-1067143D01*
X2857857Y-1038571D01*
X2843571Y-981428D01*
X2843571Y-910000D01*
X2857857Y-852857D01*
X2872143Y-824286D01*
X2886428Y-810000D01*
X2915000Y-795714D01*
X3143571Y-1067143D02*
X3157857Y-1081429D01*
X3143571Y-1095714D01*
X3129286Y-1081429D01*
X3143571Y-1067143D01*
X3143571Y-1095714D01*
X3443571Y-1095714D02*
X3272143Y-1095714D01*
X3357857Y-1095714D02*
X3357857Y-795714D01*
X3329286Y-838571D01*
X3300714Y-867143D01*
X3272143Y-881428D01*
X3586428Y-1095714D02*
X3643571Y-1095714D01*
X3672143Y-1081429D01*
X3686428Y-1067143D01*
X3715000Y-1024286D01*
X3729286Y-967143D01*
X3729286Y-852857D01*
X3715000Y-824286D01*
X3700714Y-810000D01*
X3672143Y-795714D01*
X3615000Y-795714D01*
X3586428Y-810000D01*
X3572143Y-824286D01*
X3557857Y-852857D01*
X3557857Y-924286D01*
X3572143Y-952857D01*
X3586428Y-967143D01*
X3615000Y-981428D01*
X3672143Y-981428D01*
X3700714Y-967143D01*
X3715000Y-952857D01*
X3729286Y-924286D01*
X3915000Y-795714D02*
X3943571Y-795714D01*
X3972143Y-810000D01*
X3986428Y-824286D01*
X4000714Y-852857D01*
X4015000Y-910000D01*
X4015000Y-981428D01*
X4000714Y-1038571D01*
X3986428Y-1067143D01*
X3972143Y-1081429D01*
X3943571Y-1095714D01*
X3915000Y-1095714D01*
X3886428Y-1081429D01*
X3872143Y-1067143D01*
X3857857Y-1038571D01*
X3843571Y-981428D01*
X3843571Y-910000D01*
X3857857Y-852857D01*
X3872143Y-824286D01*
X3886428Y-810000D01*
X3915000Y-795714D01*
X4129286Y-795714D02*
X4129286Y-852857D01*
X4243571Y-795714D02*
X4243571Y-852857D01*
X4686429Y-1210000D02*
X4672143Y-1195714D01*
X4643571Y-1152857D01*
X4629286Y-1124286D01*
X4615000Y-1081429D01*
X4600714Y-1010000D01*
X4600714Y-952857D01*
X4615000Y-881428D01*
X4629286Y-838571D01*
X4643571Y-810000D01*
X4672143Y-767143D01*
X4686429Y-752857D01*
X4957857Y-1095714D02*
X4786429Y-1095714D01*
X4872143Y-1095714D02*
X4872143Y-795714D01*
X4843571Y-838571D01*
X4815000Y-867143D01*
X4786429Y-881428D01*
X5315000Y-1095714D02*
X5315000Y-795714D01*
X5443571Y-1095714D02*
X5443571Y-938571D01*
X5429286Y-910000D01*
X5400714Y-895714D01*
X5357857Y-895714D01*
X5329286Y-910000D01*
X5315000Y-924286D01*
X5629286Y-1095714D02*
X5600714Y-1081429D01*
X5586429Y-1067143D01*
X5572143Y-1038571D01*
X5572143Y-952857D01*
X5586429Y-924286D01*
X5600714Y-910000D01*
X5629286Y-895714D01*
X5672143Y-895714D01*
X5700714Y-910000D01*
X5715000Y-924286D01*
X5729286Y-952857D01*
X5729286Y-1038571D01*
X5715000Y-1067143D01*
X5700714Y-1081429D01*
X5672143Y-1095714D01*
X5629286Y-1095714D01*
X5900714Y-1095714D02*
X5872143Y-1081429D01*
X5857857Y-1052857D01*
X5857857Y-795714D01*
X6129286Y-1081429D02*
X6100714Y-1095714D01*
X6043571Y-1095714D01*
X6015000Y-1081429D01*
X6000714Y-1052857D01*
X6000714Y-938571D01*
X6015000Y-910000D01*
X6043571Y-895714D01*
X6100714Y-895714D01*
X6129286Y-910000D01*
X6143571Y-938571D01*
X6143571Y-967143D01*
X6000714Y-995714D01*
X6243571Y-1210000D02*
X6257857Y-1195714D01*
X6286428Y-1152857D01*
X6300714Y-1124286D01*
X6315000Y-1081429D01*
X6329286Y-1010000D01*
X6329286Y-952857D01*
X6315000Y-881428D01*
X6300714Y-838571D01*
X6286428Y-810000D01*
X6257857Y-767143D01*
X6243571Y-752857D01*
X6786428Y-1210000D02*
X6772143Y-1195714D01*
X6743571Y-1152857D01*
X6729286Y-1124286D01*
X6715000Y-1081429D01*
X6700714Y-1010000D01*
X6700714Y-952857D01*
X6715000Y-881428D01*
X6729286Y-838571D01*
X6743571Y-810000D01*
X6772143Y-767143D01*
X6786428Y-752857D01*
X6900714Y-895714D02*
X6900714Y-1095714D01*
X6900714Y-924286D02*
X6915000Y-910000D01*
X6943571Y-895714D01*
X6986428Y-895714D01*
X7015000Y-910000D01*
X7029286Y-938571D01*
X7029286Y-1095714D01*
X7215000Y-1095714D02*
X7186428Y-1081429D01*
X7172143Y-1067143D01*
X7157857Y-1038571D01*
X7157857Y-952857D01*
X7172143Y-924286D01*
X7186428Y-910000D01*
X7215000Y-895714D01*
X7257857Y-895714D01*
X7286428Y-910000D01*
X7300714Y-924286D01*
X7315000Y-952857D01*
X7315000Y-1038571D01*
X7300714Y-1067143D01*
X7286428Y-1081429D01*
X7257857Y-1095714D01*
X7215000Y-1095714D01*
X7400714Y-895714D02*
X7515000Y-895714D01*
X7443571Y-795714D02*
X7443571Y-1052857D01*
X7457857Y-1081429D01*
X7486428Y-1095714D01*
X7515000Y-1095714D01*
X7843571Y-895714D02*
X7843571Y-1195714D01*
X7843571Y-910000D02*
X7872143Y-895714D01*
X7929286Y-895714D01*
X7957857Y-910000D01*
X7972143Y-924286D01*
X7986428Y-952857D01*
X7986428Y-1038571D01*
X7972143Y-1067143D01*
X7957857Y-1081429D01*
X7929286Y-1095714D01*
X7872143Y-1095714D01*
X7843571Y-1081429D01*
X8157857Y-1095714D02*
X8129286Y-1081429D01*
X8115000Y-1052857D01*
X8115000Y-795714D01*
X8400714Y-1095714D02*
X8400714Y-938571D01*
X8386428Y-910000D01*
X8357857Y-895714D01*
X8300714Y-895714D01*
X8272143Y-910000D01*
X8400714Y-1081429D02*
X8372143Y-1095714D01*
X8300714Y-1095714D01*
X8272143Y-1081429D01*
X8257857Y-1052857D01*
X8257857Y-1024286D01*
X8272143Y-995714D01*
X8300714Y-981428D01*
X8372143Y-981428D01*
X8400714Y-967143D01*
X8500714Y-895714D02*
X8615000Y-895714D01*
X8543571Y-795714D02*
X8543571Y-1052857D01*
X8557857Y-1081429D01*
X8586429Y-1095714D01*
X8615000Y-1095714D01*
X8829286Y-1081429D02*
X8800714Y-1095714D01*
X8743571Y-1095714D01*
X8715000Y-1081429D01*
X8700714Y-1052857D01*
X8700714Y-938571D01*
X8715000Y-910000D01*
X8743571Y-895714D01*
X8800714Y-895714D01*
X8829286Y-910000D01*
X8843571Y-938571D01*
X8843571Y-967143D01*
X8700714Y-995714D01*
X9100714Y-1095714D02*
X9100714Y-795714D01*
X9100714Y-1081429D02*
X9072143Y-1095714D01*
X9015000Y-1095714D01*
X8986429Y-1081429D01*
X8972143Y-1067143D01*
X8957857Y-1038571D01*
X8957857Y-952857D01*
X8972143Y-924286D01*
X8986429Y-910000D01*
X9015000Y-895714D01*
X9072143Y-895714D01*
X9100714Y-910000D01*
X9215000Y-1210000D02*
X9229286Y-1195714D01*
X9257857Y-1152857D01*
X9272143Y-1124286D01*
X9286429Y-1081429D01*
X9300714Y-1010000D01*
X9300714Y-952857D01*
X9286429Y-881428D01*
X9272143Y-838571D01*
X9257857Y-810000D01*
X9229286Y-767143D01*
X9215000Y-752857D01*
M02*
