M48
; DRILL file {KiCad (5.1.2)-1} date 11/2/2019 2:49:31 AM
; FORMAT={-:-/ absolute / inch / decimal}
; #@! TF.CreationDate,2019-11-02T02:49:31-04:00
; #@! TF.GenerationSoftware,Kicad,Pcbnew,(5.1.2)-1
; #@! TF.FileFunction,Plated,1,2,PTH
FMAT,2
INCH
T1C0.0157
T2C0.0276
T3C0.0315
T4C0.0394
%
G90
G05
T1
X3.15Y-1.77
X3.225Y-1.62
X3.225Y-2.005
X3.345Y-1.615
X3.345Y-2.24
X3.39Y-1.395
X3.465Y-1.34
X3.525Y-1.65
X3.7Y-1.4
X3.89Y-1.34
X3.95Y-1.2
X4.05Y-2.585
X4.075Y-1.575
X4.125Y-1.625
X4.15Y-2.525
X4.255Y-2.58
X4.275Y-1.675
X4.3Y-1.725
X4.3221Y-2.66
X4.36Y-1.43
X4.365Y-2.6
X4.375Y-2.265
X4.385Y-2.105
X4.41Y-2.66
X4.425Y-2.06
X4.445Y-2.7
X4.775Y-1.725
X5.065Y-2.51
X5.2Y-2.705
X5.35Y-1.77
T2
X3.75Y-2.1
X3.75Y-2.3
T3
X3.225Y-2.325
X3.225Y-2.4234
X3.8766Y-1.725
X3.975Y-1.725
X3.975Y-1.825
X3.975Y-2.425
X4.075Y-1.825
X4.075Y-2.425
X4.175Y-1.825
X4.175Y-2.425
X4.275Y-1.825
X4.275Y-2.425
X4.375Y-1.825
X4.375Y-2.425
X4.475Y-1.825
X4.475Y-2.425
X4.575Y-1.825
X4.575Y-2.425
X4.675Y-1.825
X4.675Y-2.425
X4.775Y-1.825
X4.775Y-2.425
X4.875Y-1.825
X4.875Y-2.425
X4.975Y-1.825
X4.975Y-2.425
X5.075Y-1.825
X5.075Y-2.425
X5.175Y-1.825
X5.175Y-2.425
X5.275Y-1.825
X5.275Y-2.425
X3.95Y-1.4016
X3.95Y-1.5
X4.675Y-1.2
X4.675Y-1.5
X4.775Y-1.2
X4.775Y-1.5
X4.875Y-1.2
X4.875Y-1.5
X4.975Y-1.2
X4.975Y-1.5
X5.075Y-1.2
X5.075Y-1.5
X5.175Y-1.2
X5.175Y-1.5
X5.275Y-1.2
X5.275Y-1.5
X4.55Y-1.1766
X4.55Y-1.275
X3.225Y-1.2
X3.225Y-1.5
X3.325Y-1.2
X3.325Y-1.5
X3.425Y-1.2
X3.425Y-1.5
X3.525Y-1.2
X3.525Y-1.5
X3.625Y-1.2
X3.625Y-1.5
X3.725Y-1.2
X3.725Y-1.5
X3.825Y-1.2
X3.825Y-1.5
T4
X3.75Y-1.775
X3.75Y-1.875
X3.75Y-1.975
T0
M30
