G04 #@! TF.GenerationSoftware,KiCad,Pcbnew,(5.1.2)-1*
G04 #@! TF.CreationDate,2019-11-02T02:49:22-04:00*
G04 #@! TF.ProjectId,superzaxxonduo,73757065-727a-4617-9878-6f6e64756f2e,rev?*
G04 #@! TF.SameCoordinates,Original*
G04 #@! TF.FileFunction,Legend,Top*
G04 #@! TF.FilePolarity,Positive*
%FSLAX46Y46*%
G04 Gerber Fmt 4.6, Leading zero omitted, Abs format (unit mm)*
G04 Created by KiCad (PCBNEW (5.1.2)-1) date 2019-11-02 02:49:22*
%MOMM*%
%LPD*%
G04 APERTURE LIST*
%ADD10C,0.150000*%
%ADD11C,0.100000*%
%ADD12C,0.120000*%
%ADD13C,0.454000*%
G04 APERTURE END LIST*
D10*
X192093619Y-21399928D02*
X192093619Y-21495166D01*
X192046000Y-21590404D01*
X191998380Y-21638023D01*
X191903142Y-21685642D01*
X191712666Y-21733261D01*
X191474571Y-21733261D01*
X191284095Y-21685642D01*
X191188857Y-21638023D01*
X191141238Y-21590404D01*
X191093619Y-21495166D01*
X191093619Y-21399928D01*
X191141238Y-21304690D01*
X191188857Y-21257071D01*
X191284095Y-21209452D01*
X191474571Y-21161833D01*
X191712666Y-21161833D01*
X191903142Y-21209452D01*
X191998380Y-21257071D01*
X192046000Y-21304690D01*
X192093619Y-21399928D01*
X191188857Y-22161833D02*
X191141238Y-22209452D01*
X191093619Y-22161833D01*
X191141238Y-22114214D01*
X191188857Y-22161833D01*
X191093619Y-22161833D01*
X191093619Y-23161833D02*
X191093619Y-22590404D01*
X191093619Y-22876119D02*
X192093619Y-22876119D01*
X191950761Y-22780880D01*
X191855523Y-22685642D01*
X191807904Y-22590404D01*
X191998380Y-23542785D02*
X192046000Y-23590404D01*
X192093619Y-23685642D01*
X192093619Y-23923738D01*
X192046000Y-24018976D01*
X191998380Y-24066595D01*
X191903142Y-24114214D01*
X191807904Y-24114214D01*
X191665047Y-24066595D01*
X191093619Y-23495166D01*
X191093619Y-24114214D01*
X192093619Y-24447547D02*
X192093619Y-25114214D01*
X191093619Y-24685642D01*
X191093619Y-26257071D02*
X191760285Y-26257071D01*
X191665047Y-26257071D02*
X191712666Y-26304690D01*
X191760285Y-26399928D01*
X191760285Y-26542785D01*
X191712666Y-26638023D01*
X191617428Y-26685642D01*
X191093619Y-26685642D01*
X191617428Y-26685642D02*
X191712666Y-26733261D01*
X191760285Y-26828500D01*
X191760285Y-26971357D01*
X191712666Y-27066595D01*
X191617428Y-27114214D01*
X191093619Y-27114214D01*
X191093619Y-27590404D02*
X191760285Y-27590404D01*
X191665047Y-27590404D02*
X191712666Y-27638023D01*
X191760285Y-27733261D01*
X191760285Y-27876119D01*
X191712666Y-27971357D01*
X191617428Y-28018976D01*
X191093619Y-28018976D01*
X191617428Y-28018976D02*
X191712666Y-28066595D01*
X191760285Y-28161833D01*
X191760285Y-28304690D01*
X191712666Y-28399928D01*
X191617428Y-28447547D01*
X191093619Y-28447547D01*
X190246000Y-24765000D02*
X190246000Y-24892000D01*
X78994000Y-24765000D02*
X190832421Y-24765000D01*
X78994000Y-24892000D02*
X190832421Y-24892000D01*
X190246000Y-24892000D02*
X189659579Y-23765496D01*
X190246000Y-24892000D02*
X190832421Y-23765496D01*
X190246000Y-24765000D02*
X189659579Y-25891504D01*
X190246000Y-24765000D02*
X190832421Y-25891504D01*
D11*
G36*
X78867000Y-64833500D02*
G01*
X78867000Y-66611500D01*
X137033000Y-66611500D01*
X137033000Y-64833500D01*
X78867000Y-64833500D01*
G37*
X78867000Y-64833500D02*
X78867000Y-66611500D01*
X137033000Y-66611500D01*
X137033000Y-64833500D01*
X78867000Y-64833500D01*
D12*
X101250000Y-37479000D02*
X101250000Y-36221000D01*
X99410000Y-37479000D02*
X99410000Y-36221000D01*
X114650000Y-31764000D02*
X114650000Y-30506000D01*
X116490000Y-31764000D02*
X116490000Y-30506000D01*
X100344000Y-44735000D02*
X99086000Y-44735000D01*
X100344000Y-42895000D02*
X99086000Y-42895000D01*
X84535000Y-60305000D02*
G75*
G03X84535000Y-60305000I-2620000J0D01*
G01*
X84495000Y-60305000D02*
X79335000Y-60305000D01*
X84495000Y-60345000D02*
X79335000Y-60345000D01*
X84494000Y-60385000D02*
X79336000Y-60385000D01*
X84493000Y-60425000D02*
X79337000Y-60425000D01*
X84491000Y-60465000D02*
X79339000Y-60465000D01*
X84488000Y-60505000D02*
X79342000Y-60505000D01*
X84484000Y-60545000D02*
X82955000Y-60545000D01*
X80875000Y-60545000D02*
X79346000Y-60545000D01*
X84480000Y-60585000D02*
X82955000Y-60585000D01*
X80875000Y-60585000D02*
X79350000Y-60585000D01*
X84476000Y-60625000D02*
X82955000Y-60625000D01*
X80875000Y-60625000D02*
X79354000Y-60625000D01*
X84471000Y-60665000D02*
X82955000Y-60665000D01*
X80875000Y-60665000D02*
X79359000Y-60665000D01*
X84465000Y-60705000D02*
X82955000Y-60705000D01*
X80875000Y-60705000D02*
X79365000Y-60705000D01*
X84458000Y-60745000D02*
X82955000Y-60745000D01*
X80875000Y-60745000D02*
X79372000Y-60745000D01*
X84451000Y-60785000D02*
X82955000Y-60785000D01*
X80875000Y-60785000D02*
X79379000Y-60785000D01*
X84443000Y-60825000D02*
X82955000Y-60825000D01*
X80875000Y-60825000D02*
X79387000Y-60825000D01*
X84435000Y-60865000D02*
X82955000Y-60865000D01*
X80875000Y-60865000D02*
X79395000Y-60865000D01*
X84426000Y-60905000D02*
X82955000Y-60905000D01*
X80875000Y-60905000D02*
X79404000Y-60905000D01*
X84416000Y-60945000D02*
X82955000Y-60945000D01*
X80875000Y-60945000D02*
X79414000Y-60945000D01*
X84406000Y-60985000D02*
X82955000Y-60985000D01*
X80875000Y-60985000D02*
X79424000Y-60985000D01*
X84395000Y-61026000D02*
X82955000Y-61026000D01*
X80875000Y-61026000D02*
X79435000Y-61026000D01*
X84383000Y-61066000D02*
X82955000Y-61066000D01*
X80875000Y-61066000D02*
X79447000Y-61066000D01*
X84370000Y-61106000D02*
X82955000Y-61106000D01*
X80875000Y-61106000D02*
X79460000Y-61106000D01*
X84357000Y-61146000D02*
X82955000Y-61146000D01*
X80875000Y-61146000D02*
X79473000Y-61146000D01*
X84343000Y-61186000D02*
X82955000Y-61186000D01*
X80875000Y-61186000D02*
X79487000Y-61186000D01*
X84329000Y-61226000D02*
X82955000Y-61226000D01*
X80875000Y-61226000D02*
X79501000Y-61226000D01*
X84313000Y-61266000D02*
X82955000Y-61266000D01*
X80875000Y-61266000D02*
X79517000Y-61266000D01*
X84297000Y-61306000D02*
X82955000Y-61306000D01*
X80875000Y-61306000D02*
X79533000Y-61306000D01*
X84280000Y-61346000D02*
X82955000Y-61346000D01*
X80875000Y-61346000D02*
X79550000Y-61346000D01*
X84263000Y-61386000D02*
X82955000Y-61386000D01*
X80875000Y-61386000D02*
X79567000Y-61386000D01*
X84244000Y-61426000D02*
X82955000Y-61426000D01*
X80875000Y-61426000D02*
X79586000Y-61426000D01*
X84225000Y-61466000D02*
X82955000Y-61466000D01*
X80875000Y-61466000D02*
X79605000Y-61466000D01*
X84205000Y-61506000D02*
X82955000Y-61506000D01*
X80875000Y-61506000D02*
X79625000Y-61506000D01*
X84183000Y-61546000D02*
X82955000Y-61546000D01*
X80875000Y-61546000D02*
X79647000Y-61546000D01*
X84162000Y-61586000D02*
X82955000Y-61586000D01*
X80875000Y-61586000D02*
X79668000Y-61586000D01*
X84139000Y-61626000D02*
X82955000Y-61626000D01*
X80875000Y-61626000D02*
X79691000Y-61626000D01*
X84115000Y-61666000D02*
X82955000Y-61666000D01*
X80875000Y-61666000D02*
X79715000Y-61666000D01*
X84090000Y-61706000D02*
X82955000Y-61706000D01*
X80875000Y-61706000D02*
X79740000Y-61706000D01*
X84064000Y-61746000D02*
X82955000Y-61746000D01*
X80875000Y-61746000D02*
X79766000Y-61746000D01*
X84037000Y-61786000D02*
X82955000Y-61786000D01*
X80875000Y-61786000D02*
X79793000Y-61786000D01*
X84010000Y-61826000D02*
X82955000Y-61826000D01*
X80875000Y-61826000D02*
X79820000Y-61826000D01*
X83980000Y-61866000D02*
X82955000Y-61866000D01*
X80875000Y-61866000D02*
X79850000Y-61866000D01*
X83950000Y-61906000D02*
X82955000Y-61906000D01*
X80875000Y-61906000D02*
X79880000Y-61906000D01*
X83919000Y-61946000D02*
X82955000Y-61946000D01*
X80875000Y-61946000D02*
X79911000Y-61946000D01*
X83886000Y-61986000D02*
X82955000Y-61986000D01*
X80875000Y-61986000D02*
X79944000Y-61986000D01*
X83852000Y-62026000D02*
X82955000Y-62026000D01*
X80875000Y-62026000D02*
X79978000Y-62026000D01*
X83816000Y-62066000D02*
X82955000Y-62066000D01*
X80875000Y-62066000D02*
X80014000Y-62066000D01*
X83779000Y-62106000D02*
X82955000Y-62106000D01*
X80875000Y-62106000D02*
X80051000Y-62106000D01*
X83741000Y-62146000D02*
X82955000Y-62146000D01*
X80875000Y-62146000D02*
X80089000Y-62146000D01*
X83700000Y-62186000D02*
X82955000Y-62186000D01*
X80875000Y-62186000D02*
X80130000Y-62186000D01*
X83658000Y-62226000D02*
X82955000Y-62226000D01*
X80875000Y-62226000D02*
X80172000Y-62226000D01*
X83614000Y-62266000D02*
X82955000Y-62266000D01*
X80875000Y-62266000D02*
X80216000Y-62266000D01*
X83568000Y-62306000D02*
X82955000Y-62306000D01*
X80875000Y-62306000D02*
X80262000Y-62306000D01*
X83520000Y-62346000D02*
X82955000Y-62346000D01*
X80875000Y-62346000D02*
X80310000Y-62346000D01*
X83469000Y-62386000D02*
X82955000Y-62386000D01*
X80875000Y-62386000D02*
X80361000Y-62386000D01*
X83415000Y-62426000D02*
X82955000Y-62426000D01*
X80875000Y-62426000D02*
X80415000Y-62426000D01*
X83358000Y-62466000D02*
X82955000Y-62466000D01*
X80875000Y-62466000D02*
X80472000Y-62466000D01*
X83298000Y-62506000D02*
X82955000Y-62506000D01*
X80875000Y-62506000D02*
X80532000Y-62506000D01*
X83234000Y-62546000D02*
X82955000Y-62546000D01*
X80875000Y-62546000D02*
X80596000Y-62546000D01*
X83166000Y-62586000D02*
X82955000Y-62586000D01*
X80875000Y-62586000D02*
X80664000Y-62586000D01*
X83093000Y-62626000D02*
X80737000Y-62626000D01*
X83013000Y-62666000D02*
X80817000Y-62666000D01*
X82926000Y-62706000D02*
X80904000Y-62706000D01*
X82830000Y-62746000D02*
X81000000Y-62746000D01*
X82720000Y-62786000D02*
X81110000Y-62786000D01*
X82592000Y-62826000D02*
X81238000Y-62826000D01*
X82433000Y-62866000D02*
X81397000Y-62866000D01*
X82199000Y-62906000D02*
X81631000Y-62906000D01*
X83390000Y-57500225D02*
X83390000Y-58000225D01*
X83640000Y-57750225D02*
X83140000Y-57750225D01*
X85160000Y-43875000D02*
X93790000Y-43875000D01*
X85160000Y-43993095D02*
X93790000Y-43993095D01*
X85160000Y-44111190D02*
X93790000Y-44111190D01*
X85160000Y-44229285D02*
X93790000Y-44229285D01*
X85160000Y-44347380D02*
X93790000Y-44347380D01*
X85160000Y-44465475D02*
X93790000Y-44465475D01*
X85160000Y-44583570D02*
X93790000Y-44583570D01*
X85160000Y-44701665D02*
X93790000Y-44701665D01*
X85160000Y-44819760D02*
X93790000Y-44819760D01*
X85160000Y-44937855D02*
X93790000Y-44937855D01*
X85160000Y-45055950D02*
X93790000Y-45055950D01*
X85160000Y-45174045D02*
X93790000Y-45174045D01*
X85160000Y-45292140D02*
X93790000Y-45292140D01*
X85160000Y-45410235D02*
X93790000Y-45410235D01*
X85160000Y-45528330D02*
X93790000Y-45528330D01*
X85160000Y-45646425D02*
X93790000Y-45646425D01*
X85160000Y-45764520D02*
X93790000Y-45764520D01*
X85160000Y-45882615D02*
X93790000Y-45882615D01*
X85160000Y-46000710D02*
X93790000Y-46000710D01*
X85160000Y-46118805D02*
X93790000Y-46118805D01*
X85160000Y-46236900D02*
X93790000Y-46236900D01*
X93790000Y-44725000D02*
X94140000Y-44725000D01*
X93790000Y-45445000D02*
X94140000Y-45445000D01*
X93790000Y-47265000D02*
X94200000Y-47265000D01*
X93790000Y-47985000D02*
X94200000Y-47985000D01*
X93790000Y-49805000D02*
X94200000Y-49805000D01*
X93790000Y-50525000D02*
X94200000Y-50525000D01*
X85160000Y-46355000D02*
X93790000Y-46355000D01*
X85160000Y-48895000D02*
X93790000Y-48895000D01*
X85160000Y-43755000D02*
X93790000Y-43755000D01*
X93790000Y-43755000D02*
X93790000Y-51495000D01*
X85160000Y-51495000D02*
X93790000Y-51495000D01*
X85160000Y-43755000D02*
X85160000Y-51495000D01*
X96360000Y-43755000D02*
X96360000Y-45085000D01*
X95250000Y-43755000D02*
X96360000Y-43755000D01*
X94330000Y-57800000D02*
X94330000Y-53960000D01*
X96170000Y-57800000D02*
X96170000Y-53960000D01*
X98485000Y-35290000D02*
G75*
G02X98485000Y-33290000I0J1000000D01*
G01*
X98485000Y-33290000D02*
X98485000Y-31640000D01*
X98485000Y-31640000D02*
X80585000Y-31640000D01*
X80585000Y-31640000D02*
X80585000Y-36940000D01*
X80585000Y-36940000D02*
X98485000Y-36940000D01*
X98485000Y-36940000D02*
X98485000Y-35290000D01*
X117415000Y-31640000D02*
X117415000Y-33290000D01*
X135315000Y-31640000D02*
X117415000Y-31640000D01*
X135315000Y-36940000D02*
X135315000Y-31640000D01*
X117415000Y-36940000D02*
X135315000Y-36940000D01*
X117415000Y-35290000D02*
X117415000Y-36940000D01*
X117415000Y-33290000D02*
G75*
G02X117415000Y-35290000I0J-1000000D01*
G01*
X99635000Y-52975000D02*
G75*
G02X99635000Y-54975000I0J-1000000D01*
G01*
X99635000Y-54975000D02*
X99635000Y-60435000D01*
X99635000Y-60435000D02*
X135315000Y-60435000D01*
X135315000Y-60435000D02*
X135315000Y-47515000D01*
X135315000Y-47515000D02*
X99635000Y-47515000D01*
X99635000Y-47515000D02*
X99635000Y-52975000D01*
D13*
X82407142Y-69365714D02*
X82292857Y-69470476D01*
X81950000Y-69575238D01*
X81721428Y-69575238D01*
X81378571Y-69470476D01*
X81150000Y-69260952D01*
X81035714Y-69051428D01*
X80921428Y-68632380D01*
X80921428Y-68318095D01*
X81035714Y-67899047D01*
X81150000Y-67689523D01*
X81378571Y-67480000D01*
X81721428Y-67375238D01*
X81950000Y-67375238D01*
X82292857Y-67480000D01*
X82407142Y-67584761D01*
X84464285Y-67375238D02*
X84007142Y-67375238D01*
X83778571Y-67480000D01*
X83664285Y-67584761D01*
X83435714Y-67899047D01*
X83321428Y-68318095D01*
X83321428Y-69156190D01*
X83435714Y-69365714D01*
X83550000Y-69470476D01*
X83778571Y-69575238D01*
X84235714Y-69575238D01*
X84464285Y-69470476D01*
X84578571Y-69365714D01*
X84692857Y-69156190D01*
X84692857Y-68632380D01*
X84578571Y-68422857D01*
X84464285Y-68318095D01*
X84235714Y-68213333D01*
X83778571Y-68213333D01*
X83550000Y-68318095D01*
X83435714Y-68422857D01*
X83321428Y-68632380D01*
X86750000Y-68108571D02*
X86750000Y-69575238D01*
X86178571Y-67270476D02*
X85607142Y-68841904D01*
X87092857Y-68841904D01*
X89721428Y-67270476D02*
X87664285Y-70099047D01*
X91778571Y-69575238D02*
X90407142Y-69575238D01*
X91092857Y-69575238D02*
X91092857Y-67375238D01*
X90864285Y-67689523D01*
X90635714Y-67899047D01*
X90407142Y-68003809D01*
X92692857Y-67584761D02*
X92807142Y-67480000D01*
X93035714Y-67375238D01*
X93607142Y-67375238D01*
X93835714Y-67480000D01*
X93950000Y-67584761D01*
X94064285Y-67794285D01*
X94064285Y-68003809D01*
X93950000Y-68318095D01*
X92578571Y-69575238D01*
X94064285Y-69575238D01*
X95435714Y-68318095D02*
X95207142Y-68213333D01*
X95092857Y-68108571D01*
X94978571Y-67899047D01*
X94978571Y-67794285D01*
X95092857Y-67584761D01*
X95207142Y-67480000D01*
X95435714Y-67375238D01*
X95892857Y-67375238D01*
X96121428Y-67480000D01*
X96235714Y-67584761D01*
X96350000Y-67794285D01*
X96350000Y-67899047D01*
X96235714Y-68108571D01*
X96121428Y-68213333D01*
X95892857Y-68318095D01*
X95435714Y-68318095D01*
X95207142Y-68422857D01*
X95092857Y-68527619D01*
X94978571Y-68737142D01*
X94978571Y-69156190D01*
X95092857Y-69365714D01*
X95207142Y-69470476D01*
X95435714Y-69575238D01*
X95892857Y-69575238D01*
X96121428Y-69470476D01*
X96235714Y-69365714D01*
X96350000Y-69156190D01*
X96350000Y-68737142D01*
X96235714Y-68527619D01*
X96121428Y-68422857D01*
X95892857Y-68318095D01*
X99092857Y-69470476D02*
X99435714Y-69575238D01*
X100007142Y-69575238D01*
X100235714Y-69470476D01*
X100350000Y-69365714D01*
X100464285Y-69156190D01*
X100464285Y-68946666D01*
X100350000Y-68737142D01*
X100235714Y-68632380D01*
X100007142Y-68527619D01*
X99550000Y-68422857D01*
X99321428Y-68318095D01*
X99207142Y-68213333D01*
X99092857Y-68003809D01*
X99092857Y-67794285D01*
X99207142Y-67584761D01*
X99321428Y-67480000D01*
X99550000Y-67375238D01*
X100121428Y-67375238D01*
X100464285Y-67480000D01*
X101492857Y-67375238D02*
X101492857Y-69156190D01*
X101607142Y-69365714D01*
X101721428Y-69470476D01*
X101950000Y-69575238D01*
X102407142Y-69575238D01*
X102635714Y-69470476D01*
X102750000Y-69365714D01*
X102864285Y-69156190D01*
X102864285Y-67375238D01*
X104007142Y-69575238D02*
X104007142Y-67375238D01*
X104921428Y-67375238D01*
X105150000Y-67480000D01*
X105264285Y-67584761D01*
X105378571Y-67794285D01*
X105378571Y-68108571D01*
X105264285Y-68318095D01*
X105150000Y-68422857D01*
X104921428Y-68527619D01*
X104007142Y-68527619D01*
X106407142Y-68422857D02*
X107207142Y-68422857D01*
X107550000Y-69575238D02*
X106407142Y-69575238D01*
X106407142Y-67375238D01*
X107550000Y-67375238D01*
X109950000Y-69575238D02*
X109150000Y-68527619D01*
X108578571Y-69575238D02*
X108578571Y-67375238D01*
X109492857Y-67375238D01*
X109721428Y-67480000D01*
X109835714Y-67584761D01*
X109950000Y-67794285D01*
X109950000Y-68108571D01*
X109835714Y-68318095D01*
X109721428Y-68422857D01*
X109492857Y-68527619D01*
X108578571Y-68527619D01*
X112578571Y-67375238D02*
X114178571Y-67375238D01*
X112578571Y-69575238D01*
X114178571Y-69575238D01*
X114978571Y-68946666D02*
X116121428Y-68946666D01*
X114750000Y-69575238D02*
X115550000Y-67375238D01*
X116350000Y-69575238D01*
X116921428Y-67375238D02*
X118521428Y-69575238D01*
X118521428Y-67375238D02*
X116921428Y-69575238D01*
X119207142Y-67375238D02*
X120807142Y-69575238D01*
X120807142Y-67375238D02*
X119207142Y-69575238D01*
X122178571Y-67375238D02*
X122635714Y-67375238D01*
X122864285Y-67480000D01*
X123092857Y-67689523D01*
X123207142Y-68108571D01*
X123207142Y-68841904D01*
X123092857Y-69260952D01*
X122864285Y-69470476D01*
X122635714Y-69575238D01*
X122178571Y-69575238D01*
X121950000Y-69470476D01*
X121721428Y-69260952D01*
X121607142Y-68841904D01*
X121607142Y-68108571D01*
X121721428Y-67689523D01*
X121950000Y-67480000D01*
X122178571Y-67375238D01*
X124235714Y-69575238D02*
X124235714Y-67375238D01*
X125607142Y-69575238D01*
X125607142Y-67375238D01*
X128578571Y-69575238D02*
X128578571Y-67375238D01*
X129150000Y-67375238D01*
X129492857Y-67480000D01*
X129721428Y-67689523D01*
X129835714Y-67899047D01*
X129950000Y-68318095D01*
X129950000Y-68632380D01*
X129835714Y-69051428D01*
X129721428Y-69260952D01*
X129492857Y-69470476D01*
X129150000Y-69575238D01*
X128578571Y-69575238D01*
X130978571Y-67375238D02*
X130978571Y-69156190D01*
X131092857Y-69365714D01*
X131207142Y-69470476D01*
X131435714Y-69575238D01*
X131892857Y-69575238D01*
X132121428Y-69470476D01*
X132235714Y-69365714D01*
X132350000Y-69156190D01*
X132350000Y-67375238D01*
X133950000Y-67375238D02*
X134407142Y-67375238D01*
X134635714Y-67480000D01*
X134864285Y-67689523D01*
X134978571Y-68108571D01*
X134978571Y-68841904D01*
X134864285Y-69260952D01*
X134635714Y-69470476D01*
X134407142Y-69575238D01*
X133950000Y-69575238D01*
X133721428Y-69470476D01*
X133492857Y-69260952D01*
X133378571Y-68841904D01*
X133378571Y-68108571D01*
X133492857Y-67689523D01*
X133721428Y-67480000D01*
X133950000Y-67375238D01*
D10*
X98637142Y-37016666D02*
X98684761Y-37064285D01*
X98732380Y-37207142D01*
X98732380Y-37302380D01*
X98684761Y-37445238D01*
X98589523Y-37540476D01*
X98494285Y-37588095D01*
X98303809Y-37635714D01*
X98160952Y-37635714D01*
X97970476Y-37588095D01*
X97875238Y-37540476D01*
X97780000Y-37445238D01*
X97732380Y-37302380D01*
X97732380Y-37207142D01*
X97780000Y-37064285D01*
X97827619Y-37016666D01*
X98732380Y-36064285D02*
X98732380Y-36635714D01*
X98732380Y-36350000D02*
X97732380Y-36350000D01*
X97875238Y-36445238D01*
X97970476Y-36540476D01*
X98018095Y-36635714D01*
X113877142Y-31301666D02*
X113924761Y-31349285D01*
X113972380Y-31492142D01*
X113972380Y-31587380D01*
X113924761Y-31730238D01*
X113829523Y-31825476D01*
X113734285Y-31873095D01*
X113543809Y-31920714D01*
X113400952Y-31920714D01*
X113210476Y-31873095D01*
X113115238Y-31825476D01*
X113020000Y-31730238D01*
X112972380Y-31587380D01*
X112972380Y-31492142D01*
X113020000Y-31349285D01*
X113067619Y-31301666D01*
X113067619Y-30920714D02*
X113020000Y-30873095D01*
X112972380Y-30777857D01*
X112972380Y-30539761D01*
X113020000Y-30444523D01*
X113067619Y-30396904D01*
X113162857Y-30349285D01*
X113258095Y-30349285D01*
X113400952Y-30396904D01*
X113972380Y-30968333D01*
X113972380Y-30349285D01*
X99548333Y-46222142D02*
X99500714Y-46269761D01*
X99357857Y-46317380D01*
X99262619Y-46317380D01*
X99119761Y-46269761D01*
X99024523Y-46174523D01*
X98976904Y-46079285D01*
X98929285Y-45888809D01*
X98929285Y-45745952D01*
X98976904Y-45555476D01*
X99024523Y-45460238D01*
X99119761Y-45365000D01*
X99262619Y-45317380D01*
X99357857Y-45317380D01*
X99500714Y-45365000D01*
X99548333Y-45412619D01*
X99881666Y-45317380D02*
X100500714Y-45317380D01*
X100167380Y-45698333D01*
X100310238Y-45698333D01*
X100405476Y-45745952D01*
X100453095Y-45793571D01*
X100500714Y-45888809D01*
X100500714Y-46126904D01*
X100453095Y-46222142D01*
X100405476Y-46269761D01*
X100310238Y-46317380D01*
X100024523Y-46317380D01*
X99929285Y-46269761D01*
X99881666Y-46222142D01*
X86022142Y-60471666D02*
X86069761Y-60519285D01*
X86117380Y-60662142D01*
X86117380Y-60757380D01*
X86069761Y-60900238D01*
X85974523Y-60995476D01*
X85879285Y-61043095D01*
X85688809Y-61090714D01*
X85545952Y-61090714D01*
X85355476Y-61043095D01*
X85260238Y-60995476D01*
X85165000Y-60900238D01*
X85117380Y-60757380D01*
X85117380Y-60662142D01*
X85165000Y-60519285D01*
X85212619Y-60471666D01*
X85450714Y-59614523D02*
X86117380Y-59614523D01*
X85069761Y-59852619D02*
X85784047Y-60090714D01*
X85784047Y-59471666D01*
X89201666Y-47077380D02*
X89201666Y-47791666D01*
X89154047Y-47934523D01*
X89058809Y-48029761D01*
X88915952Y-48077380D01*
X88820714Y-48077380D01*
X90201666Y-48077380D02*
X89630238Y-48077380D01*
X89915952Y-48077380D02*
X89915952Y-47077380D01*
X89820714Y-47220238D01*
X89725476Y-47315476D01*
X89630238Y-47363095D01*
X95702380Y-56046666D02*
X95226190Y-56380000D01*
X95702380Y-56618095D02*
X94702380Y-56618095D01*
X94702380Y-56237142D01*
X94750000Y-56141904D01*
X94797619Y-56094285D01*
X94892857Y-56046666D01*
X95035714Y-56046666D01*
X95130952Y-56094285D01*
X95178571Y-56141904D01*
X95226190Y-56237142D01*
X95226190Y-56618095D01*
X95702380Y-55094285D02*
X95702380Y-55665714D01*
X95702380Y-55380000D02*
X94702380Y-55380000D01*
X94845238Y-55475238D01*
X94940476Y-55570476D01*
X94988095Y-55665714D01*
X95972380Y-35051904D02*
X96781904Y-35051904D01*
X96877142Y-35004285D01*
X96924761Y-34956666D01*
X96972380Y-34861428D01*
X96972380Y-34670952D01*
X96924761Y-34575714D01*
X96877142Y-34528095D01*
X96781904Y-34480476D01*
X95972380Y-34480476D01*
X96972380Y-33480476D02*
X96972380Y-34051904D01*
X96972380Y-33766190D02*
X95972380Y-33766190D01*
X96115238Y-33861428D01*
X96210476Y-33956666D01*
X96258095Y-34051904D01*
X118832380Y-35051904D02*
X119641904Y-35051904D01*
X119737142Y-35004285D01*
X119784761Y-34956666D01*
X119832380Y-34861428D01*
X119832380Y-34670952D01*
X119784761Y-34575714D01*
X119737142Y-34528095D01*
X119641904Y-34480476D01*
X118832380Y-34480476D01*
X118927619Y-34051904D02*
X118880000Y-34004285D01*
X118832380Y-33909047D01*
X118832380Y-33670952D01*
X118880000Y-33575714D01*
X118927619Y-33528095D01*
X119022857Y-33480476D01*
X119118095Y-33480476D01*
X119260952Y-33528095D01*
X119832380Y-34099523D01*
X119832380Y-33480476D01*
X101052380Y-54736904D02*
X101861904Y-54736904D01*
X101957142Y-54689285D01*
X102004761Y-54641666D01*
X102052380Y-54546428D01*
X102052380Y-54355952D01*
X102004761Y-54260714D01*
X101957142Y-54213095D01*
X101861904Y-54165476D01*
X101052380Y-54165476D01*
X101052380Y-53784523D02*
X101052380Y-53165476D01*
X101433333Y-53498809D01*
X101433333Y-53355952D01*
X101480952Y-53260714D01*
X101528571Y-53213095D01*
X101623809Y-53165476D01*
X101861904Y-53165476D01*
X101957142Y-53213095D01*
X102004761Y-53260714D01*
X102052380Y-53355952D01*
X102052380Y-53641666D01*
X102004761Y-53736904D01*
X101957142Y-53784523D01*
M02*
