M48
; DRILL file {KiCad (5.1.9)-1} date 06/11/21 01:10:34
; FORMAT={-:-/ absolute / inch / decimal}
; #@! TF.CreationDate,2021-06-11T01:10:34-04:00
; #@! TF.GenerationSoftware,Kicad,Pcbnew,(5.1.9)-1
; #@! TF.FileFunction,Plated,1,2,PTH
FMAT,2
INCH
T1C0.0157
T2C0.0197
T3C0.0315
T4C0.0394
T5C0.0472
T6C0.0728
%
G90
G05
T1
X2.4526Y-4.7724
X2.4526Y-4.9624
X2.4576Y-3.8274
X2.46Y-3.2825
X2.485Y-3.65
X2.49Y-4.915
X2.515Y-3.315
X2.52Y-4.795
X2.5254Y-3.53
X2.58Y-3.675
X2.585Y-3.575
X2.62Y-3.7
X2.635Y-4.5825
X2.66Y-3.605
X2.68Y-4.52
X2.6925Y-3.315
X2.705Y-4.33
X2.71Y-3.935
X2.745Y-3.4475
X2.7975Y-3.68
X2.855Y-3.6125
X2.8948Y-4.5373
X2.905Y-3.6375
X2.965Y-4.645
X3.085Y-4.8875
X3.0925Y-4.7975
X3.0925Y-4.83
X3.103Y-4.918
X3.1125Y-4.96
X3.122Y-4.888
X3.165Y-3.5125
X3.1875Y-4.5875
X3.1925Y-4.555
X3.2175Y-4.2525
X3.2196Y-4.5904
X3.23Y-3.895
X3.23Y-3.9377
X3.245Y-4.5675
X3.255Y-4.12
X3.26Y-4.23
X3.2775Y-4.395
X3.299Y-3.887
X3.3179Y-4.5704
X3.35Y-4.08
X3.35Y-4.375
X3.3575Y-4.57
X3.363Y-3.936
X3.395Y-4.5525
X3.4204Y-4.3554
X3.435Y-4.07
X3.4575Y-3.8975
X3.475Y-4.11
X3.5396Y-4.3654
X3.545Y-4.095
X3.545Y-4.14
X3.5471Y-4.4579
X3.555Y-4.415
X3.5825Y-4.0525
X3.5825Y-4.4775
X3.615Y-3.8825
X3.63Y-4.5137
X3.6425Y-4.0125
X3.6575Y-3.6675
X3.6775Y-4.1375
X3.685Y-3.94
X3.699Y-4.448
X3.705Y-3.87
X3.705Y-4.375
X3.725Y-3.905
X3.73Y-3.6225
X3.7844Y-4.41
X3.8325Y-4.0125
X3.865Y-3.885
X3.91Y-3.885
X3.9175Y-4.26
X3.9375Y-4.1025
X3.965Y-4.3475
X3.98Y-4.26
X4.0025Y-4.115
X4.0413Y-4.2937
X4.0525Y-4.36
X4.065Y-4.4
X4.0825Y-3.67
X4.095Y-4.43
X4.11Y-4.025
X4.135Y-4.4325
X4.1396Y-4.04
X4.145Y-4.0725
X4.175Y-4.4525
X4.18Y-4.1363
X4.1825Y-4.2
X4.185Y-4.2625
X4.2325Y-4.218
X4.235Y-4.275
X4.25Y-3.78
X4.265Y-4.1
X4.2725Y-4.2825
X4.3Y-4.1
X4.32Y-4.3232
X4.327Y-4.218
X4.3375Y-4.0
X4.3565Y-4.3225
X4.3583Y-4.2867
X4.365Y-3.825
X4.37Y-3.76
X4.375Y-4.1
X4.39Y-4.14
X4.415Y-3.7675
X4.415Y-4.47
X4.455Y-3.77
X4.5125Y-4.2625
X4.5173Y-4.3627
X4.5175Y-4.4325
X4.5475Y-4.235
X4.575Y-3.4375
X4.595Y-4.13
X4.66Y-3.7075
X4.716Y-3.984
X4.7625Y-3.7125
X4.78Y-4.155
X4.8846Y-4.2579
X4.925Y-4.2625
X5.025Y-4.305
X5.0325Y-4.26
X5.055Y-4.2
X5.0625Y-3.6025
X5.4Y-4.2
T3
X3.965Y-3.915
X3.965Y-4.515
X4.065Y-3.915
X4.065Y-4.515
X4.165Y-3.915
X4.165Y-4.515
X4.265Y-3.915
X4.265Y-4.515
X4.365Y-3.915
X4.365Y-4.515
X4.465Y-3.915
X4.465Y-4.515
X4.565Y-3.915
X4.565Y-4.515
X4.665Y-3.915
X4.665Y-4.515
X4.765Y-3.915
X4.765Y-4.515
X4.865Y-3.915
X4.865Y-4.515
X4.965Y-3.915
X4.965Y-4.515
X5.065Y-3.915
X5.065Y-4.515
X5.165Y-3.915
X5.165Y-4.515
X5.265Y-3.915
X5.265Y-4.515
T4
X3.0016Y-3.2
X3.04Y-3.645
X3.04Y-3.745
X3.04Y-3.845
X3.04Y-3.945
X3.1Y-3.2
X3.14Y-3.845
X3.14Y-3.945
X3.1984Y-3.2
X3.3Y-3.58
X3.3Y-3.68
X3.3Y-3.78
X3.45Y-3.58
X3.45Y-3.68
X3.45Y-3.78
X3.8016Y-3.2
X3.9Y-3.2
X3.9Y-3.55
X3.9Y-3.65
X3.9Y-3.75
X3.9984Y-3.2
X4.3325Y-3.2
X4.3325Y-3.3
X4.3325Y-3.4
X4.4825Y-3.2
X4.4825Y-3.3
X4.4825Y-3.4
X5.4Y-4.315
X5.4Y-4.415
X5.4Y-4.515
T5
X2.7Y-4.725
X2.7Y-4.925
X2.8Y-4.725
X2.8Y-4.925
X2.9Y-4.725
X2.9Y-4.925
X3.0Y-4.725
X3.0Y-4.925
X3.2Y-4.725
X3.2Y-4.925
X3.3Y-4.725
X3.3Y-4.925
X3.4Y-4.725
X3.4Y-4.925
X3.5Y-4.725
X3.5Y-4.925
X3.6Y-4.725
X3.6Y-4.925
X3.7Y-4.725
X3.7Y-4.925
X3.8Y-4.725
X3.8Y-4.925
X3.9Y-4.725
X3.9Y-4.925
X4.0Y-4.725
X4.0Y-4.925
X4.1Y-4.725
X4.1Y-4.925
X4.2Y-4.725
X4.2Y-4.925
X4.3Y-4.725
X4.3Y-4.925
X4.4Y-4.725
X4.4Y-4.925
X4.5Y-4.725
X4.5Y-4.925
X4.6Y-4.725
X4.6Y-4.925
X4.7Y-4.725
X4.7Y-4.925
X4.8Y-4.725
X4.8Y-4.925
X4.9Y-4.725
X4.9Y-4.925
X5.0Y-4.725
X5.0Y-4.925
X5.1Y-4.725
X5.1Y-4.925
X5.2Y-4.725
X5.2Y-4.925
X5.3Y-4.725
X5.3Y-4.925
X5.4Y-4.725
X5.4Y-4.925
T2
G00X2.4391Y-4.011
M15
G01X2.4391Y-4.0602
M16
G05
G00X2.4391Y-4.396
M15
G01X2.4391Y-4.4452
M16
G05
G00X2.5336Y-4.0898
M15
G01X2.5336Y-4.139
M16
G05
G00X2.5336Y-4.4748
M15
G01X2.5336Y-4.524
M16
G05
G00X2.6793Y-4.011
M15
G01X2.6793Y-4.0602
M16
G05
G00X2.6793Y-4.396
M15
G01X2.6793Y-4.4452
M16
G05
G00X2.7501Y-4.0898
M15
G01X2.7501Y-4.139
M16
G05
G00X2.7501Y-4.4748
M15
G01X2.7501Y-4.524
M16
G05
G00X2.8958Y-4.011
M15
G01X2.8958Y-4.0602
M16
G05
G00X2.8958Y-4.396
M15
G01X2.8958Y-4.4452
M16
G05
T6
G00X2.9031Y-3.3378
M15
G01X2.9031Y-3.322
M16
G05
G00X3.2969Y-3.3378
M15
G01X3.2969Y-3.322
M16
G05
G00X3.7031Y-3.3378
M15
G01X3.7031Y-3.322
M16
G05
G00X4.0969Y-3.3378
M15
G01X4.0969Y-3.322
M16
G05
T0
M30
