%TF.GenerationSoftware,KiCad,Pcbnew,(5.1.9)-1*%
%TF.CreationDate,2021-06-11T01:10:32-04:00*%
%TF.ProjectId,ZXSwinSID,5a585377-696e-4534-9944-2e6b69636164,rev?*%
%TF.SameCoordinates,Original*%
%TF.FileFunction,Legend,Top*%
%TF.FilePolarity,Positive*%
%FSLAX46Y46*%
G04 Gerber Fmt 4.6, Leading zero omitted, Abs format (unit mm)*
G04 Created by KiCad (PCBNEW (5.1.9)-1) date 2021-06-11 01:10:32*
%MOMM*%
%LPD*%
G01*
G04 APERTURE LIST*
%ADD10C,0.300000*%
%ADD11C,0.600000*%
%ADD12C,0.150000*%
%ADD13C,0.120000*%
%ADD14C,0.125000*%
%ADD15C,0.100000*%
G04 APERTURE END LIST*
D10*
X79171095Y-95535571D02*
X79171095Y-94792714D01*
X79666333Y-95192714D01*
X79666333Y-95021285D01*
X79728238Y-94907000D01*
X79790142Y-94849857D01*
X79913952Y-94792714D01*
X80223476Y-94792714D01*
X80347285Y-94849857D01*
X80409190Y-94907000D01*
X80471095Y-95021285D01*
X80471095Y-95364142D01*
X80409190Y-95478428D01*
X80347285Y-95535571D01*
X79604428Y-94392714D02*
X80471095Y-94107000D01*
X79604428Y-93821285D01*
X79171095Y-93478428D02*
X79171095Y-92735571D01*
X79666333Y-93135571D01*
X79666333Y-92964142D01*
X79728238Y-92849857D01*
X79790142Y-92792714D01*
X79913952Y-92735571D01*
X80223476Y-92735571D01*
X80347285Y-92792714D01*
X80409190Y-92849857D01*
X80471095Y-92964142D01*
X80471095Y-93307000D01*
X80409190Y-93421285D01*
X80347285Y-93478428D01*
X72244142Y-91871095D02*
X72929857Y-91871095D01*
X72587000Y-93171095D02*
X72587000Y-91871095D01*
X74015571Y-93047285D02*
X73958428Y-93109190D01*
X73787000Y-93171095D01*
X73672714Y-93171095D01*
X73501285Y-93109190D01*
X73387000Y-92985380D01*
X73329857Y-92861571D01*
X73272714Y-92613952D01*
X73272714Y-92428238D01*
X73329857Y-92180619D01*
X73387000Y-92056809D01*
X73501285Y-91933000D01*
X73672714Y-91871095D01*
X73787000Y-91871095D01*
X73958428Y-91933000D01*
X74015571Y-91994904D01*
X74529857Y-93171095D02*
X74529857Y-91871095D01*
X75215571Y-93171095D02*
X74701285Y-92428238D01*
X75215571Y-91871095D02*
X74529857Y-92613952D01*
X72187000Y-94411095D02*
X72872714Y-94411095D01*
X72529857Y-95711095D02*
X72529857Y-94411095D01*
X73272714Y-95711095D02*
X73272714Y-94411095D01*
X73672714Y-95339666D01*
X74072714Y-94411095D01*
X74072714Y-95711095D01*
X74587000Y-95649190D02*
X74758428Y-95711095D01*
X75044142Y-95711095D01*
X75158428Y-95649190D01*
X75215571Y-95587285D01*
X75272714Y-95463476D01*
X75272714Y-95339666D01*
X75215571Y-95215857D01*
X75158428Y-95153952D01*
X75044142Y-95092047D01*
X74815571Y-95030142D01*
X74701285Y-94968238D01*
X74644142Y-94906333D01*
X74587000Y-94782523D01*
X74587000Y-94658714D01*
X74644142Y-94534904D01*
X74701285Y-94473000D01*
X74815571Y-94411095D01*
X75101285Y-94411095D01*
X75272714Y-94473000D01*
X72215571Y-96951095D02*
X72901285Y-96951095D01*
X72558428Y-98251095D02*
X72558428Y-96951095D01*
X73301285Y-98251095D02*
X73301285Y-96951095D01*
X73587000Y-96951095D01*
X73758428Y-97013000D01*
X73872714Y-97136809D01*
X73929857Y-97260619D01*
X73987000Y-97508238D01*
X73987000Y-97693952D01*
X73929857Y-97941571D01*
X73872714Y-98065380D01*
X73758428Y-98189190D01*
X73587000Y-98251095D01*
X73301285Y-98251095D01*
X74729857Y-96951095D02*
X74958428Y-96951095D01*
X75072714Y-97013000D01*
X75187000Y-97136809D01*
X75244142Y-97384428D01*
X75244142Y-97817761D01*
X75187000Y-98065380D01*
X75072714Y-98189190D01*
X74958428Y-98251095D01*
X74729857Y-98251095D01*
X74615571Y-98189190D01*
X74501285Y-98065380D01*
X74444142Y-97817761D01*
X74444142Y-97384428D01*
X74501285Y-97136809D01*
X74615571Y-97013000D01*
X74729857Y-96951095D01*
X72939428Y-99491095D02*
X73625142Y-99491095D01*
X73282285Y-100791095D02*
X73282285Y-99491095D01*
X74025142Y-100791095D02*
X74025142Y-99491095D01*
X74310857Y-99491095D01*
X74482285Y-99553000D01*
X74596571Y-99676809D01*
X74653714Y-99800619D01*
X74710857Y-100048238D01*
X74710857Y-100233952D01*
X74653714Y-100481571D01*
X74596571Y-100605380D01*
X74482285Y-100729190D01*
X74310857Y-100791095D01*
X74025142Y-100791095D01*
X75225142Y-100791095D02*
X75225142Y-99491095D01*
D11*
X116365142Y-80145142D02*
X118365142Y-80145142D01*
X116365142Y-83145142D01*
X118365142Y-83145142D01*
X119222285Y-80145142D02*
X121222285Y-83145142D01*
X121222285Y-80145142D02*
X119222285Y-83145142D01*
X122222285Y-83002285D02*
X122650857Y-83145142D01*
X123365142Y-83145142D01*
X123650857Y-83002285D01*
X123793714Y-82859428D01*
X123936571Y-82573714D01*
X123936571Y-82288000D01*
X123793714Y-82002285D01*
X123650857Y-81859428D01*
X123365142Y-81716571D01*
X122793714Y-81573714D01*
X122508000Y-81430857D01*
X122365142Y-81288000D01*
X122222285Y-81002285D01*
X122222285Y-80716571D01*
X122365142Y-80430857D01*
X122508000Y-80288000D01*
X122793714Y-80145142D01*
X123508000Y-80145142D01*
X123936571Y-80288000D01*
X124936571Y-81145142D02*
X125508000Y-83145142D01*
X126079428Y-81716571D01*
X126650857Y-83145142D01*
X127222285Y-81145142D01*
X128365142Y-83145142D02*
X128365142Y-81145142D01*
X128365142Y-80145142D02*
X128222285Y-80288000D01*
X128365142Y-80430857D01*
X128508000Y-80288000D01*
X128365142Y-80145142D01*
X128365142Y-80430857D01*
X129793714Y-81145142D02*
X129793714Y-83145142D01*
X129793714Y-81430857D02*
X129936571Y-81288000D01*
X130222285Y-81145142D01*
X130650857Y-81145142D01*
X130936571Y-81288000D01*
X131079428Y-81573714D01*
X131079428Y-83145142D01*
X132365142Y-83002285D02*
X132793714Y-83145142D01*
X133508000Y-83145142D01*
X133793714Y-83002285D01*
X133936571Y-82859428D01*
X134079428Y-82573714D01*
X134079428Y-82288000D01*
X133936571Y-82002285D01*
X133793714Y-81859428D01*
X133508000Y-81716571D01*
X132936571Y-81573714D01*
X132650857Y-81430857D01*
X132508000Y-81288000D01*
X132365142Y-81002285D01*
X132365142Y-80716571D01*
X132508000Y-80430857D01*
X132650857Y-80288000D01*
X132936571Y-80145142D01*
X133650857Y-80145142D01*
X134079428Y-80288000D01*
X135365142Y-83145142D02*
X135365142Y-80145142D01*
X136793714Y-83145142D02*
X136793714Y-80145142D01*
X137508000Y-80145142D01*
X137936571Y-80288000D01*
X138222285Y-80573714D01*
X138365142Y-80859428D01*
X138508000Y-81430857D01*
X138508000Y-81859428D01*
X138365142Y-82430857D01*
X138222285Y-82716571D01*
X137936571Y-83002285D01*
X137508000Y-83145142D01*
X136793714Y-83145142D01*
D10*
X120027000Y-94005285D02*
X119955571Y-94119571D01*
X119955571Y-94291000D01*
X120027000Y-94462428D01*
X120169857Y-94576714D01*
X120312714Y-94633857D01*
X120598428Y-94691000D01*
X120812714Y-94691000D01*
X121098428Y-94633857D01*
X121241285Y-94576714D01*
X121384142Y-94462428D01*
X121455571Y-94291000D01*
X121455571Y-94176714D01*
X121384142Y-94005285D01*
X121312714Y-93948142D01*
X120812714Y-93948142D01*
X120812714Y-94176714D01*
X121455571Y-93433857D02*
X119955571Y-93433857D01*
X121455571Y-92748142D01*
X119955571Y-92748142D01*
X121455571Y-92176714D02*
X119955571Y-92176714D01*
X119955571Y-91891000D01*
X120027000Y-91719571D01*
X120169857Y-91605285D01*
X120312714Y-91548142D01*
X120598428Y-91491000D01*
X120812714Y-91491000D01*
X121098428Y-91548142D01*
X121241285Y-91605285D01*
X121384142Y-91719571D01*
X121455571Y-91891000D01*
X121455571Y-92176714D01*
X109795571Y-93827571D02*
X109795571Y-94399000D01*
X110509857Y-94456142D01*
X110438428Y-94399000D01*
X110367000Y-94284714D01*
X110367000Y-93999000D01*
X110438428Y-93884714D01*
X110509857Y-93827571D01*
X110652714Y-93770428D01*
X111009857Y-93770428D01*
X111152714Y-93827571D01*
X111224142Y-93884714D01*
X111295571Y-93999000D01*
X111295571Y-94284714D01*
X111224142Y-94399000D01*
X111152714Y-94456142D01*
X109795571Y-93427571D02*
X111295571Y-93027571D01*
X109795571Y-92627571D01*
X116375571Y-94595714D02*
X114875571Y-94595714D01*
X115947000Y-94195714D01*
X114875571Y-93795714D01*
X116375571Y-93795714D01*
X114875571Y-92995714D02*
X114875571Y-92767142D01*
X114947000Y-92652857D01*
X115089857Y-92538571D01*
X115375571Y-92481428D01*
X115875571Y-92481428D01*
X116161285Y-92538571D01*
X116304142Y-92652857D01*
X116375571Y-92767142D01*
X116375571Y-92995714D01*
X116304142Y-93110000D01*
X116161285Y-93224285D01*
X115875571Y-93281428D01*
X115375571Y-93281428D01*
X115089857Y-93224285D01*
X114947000Y-93110000D01*
X114875571Y-92995714D01*
X116304142Y-92024285D02*
X116375571Y-91852857D01*
X116375571Y-91567142D01*
X116304142Y-91452857D01*
X116232714Y-91395714D01*
X116089857Y-91338571D01*
X115947000Y-91338571D01*
X115804142Y-91395714D01*
X115732714Y-91452857D01*
X115661285Y-91567142D01*
X115589857Y-91795714D01*
X115518428Y-91910000D01*
X115447000Y-91967142D01*
X115304142Y-92024285D01*
X115161285Y-92024285D01*
X115018428Y-91967142D01*
X114947000Y-91910000D01*
X114875571Y-91795714D01*
X114875571Y-91510000D01*
X114947000Y-91338571D01*
X116375571Y-90824285D02*
X114875571Y-90824285D01*
X118979071Y-90636642D02*
X118264785Y-91036642D01*
X118979071Y-91322357D02*
X117479071Y-91322357D01*
X117479071Y-90865214D01*
X117550500Y-90750928D01*
X117621928Y-90693785D01*
X117764785Y-90636642D01*
X117979071Y-90636642D01*
X118121928Y-90693785D01*
X118193357Y-90750928D01*
X118264785Y-90865214D01*
X118264785Y-91322357D01*
X118907642Y-90179500D02*
X118979071Y-90008071D01*
X118979071Y-89722357D01*
X118907642Y-89608071D01*
X118836214Y-89550928D01*
X118693357Y-89493785D01*
X118550500Y-89493785D01*
X118407642Y-89550928D01*
X118336214Y-89608071D01*
X118264785Y-89722357D01*
X118193357Y-89950928D01*
X118121928Y-90065214D01*
X118050500Y-90122357D01*
X117907642Y-90179500D01*
X117764785Y-90179500D01*
X117621928Y-90122357D01*
X117550500Y-90065214D01*
X117479071Y-89950928D01*
X117479071Y-89665214D01*
X117550500Y-89493785D01*
X117479071Y-89150928D02*
X117479071Y-88465214D01*
X118979071Y-88808071D02*
X117479071Y-88808071D01*
X113764142Y-91331857D02*
X113835571Y-91160428D01*
X113835571Y-90874714D01*
X113764142Y-90760428D01*
X113692714Y-90703285D01*
X113549857Y-90646142D01*
X113407000Y-90646142D01*
X113264142Y-90703285D01*
X113192714Y-90760428D01*
X113121285Y-90874714D01*
X113049857Y-91103285D01*
X112978428Y-91217571D01*
X112907000Y-91274714D01*
X112764142Y-91331857D01*
X112621285Y-91331857D01*
X112478428Y-91274714D01*
X112407000Y-91217571D01*
X112335571Y-91103285D01*
X112335571Y-90817571D01*
X112407000Y-90646142D01*
X113692714Y-89446142D02*
X113764142Y-89503285D01*
X113835571Y-89674714D01*
X113835571Y-89789000D01*
X113764142Y-89960428D01*
X113621285Y-90074714D01*
X113478428Y-90131857D01*
X113192714Y-90189000D01*
X112978428Y-90189000D01*
X112692714Y-90131857D01*
X112549857Y-90074714D01*
X112407000Y-89960428D01*
X112335571Y-89789000D01*
X112335571Y-89674714D01*
X112407000Y-89503285D01*
X112478428Y-89446142D01*
X113835571Y-88931857D02*
X112335571Y-88931857D01*
X113835571Y-88246142D02*
X112978428Y-88760428D01*
X112335571Y-88246142D02*
X113192714Y-88931857D01*
X108692071Y-91357214D02*
X107192071Y-91357214D01*
X108263500Y-90957214D01*
X107192071Y-90557214D01*
X108692071Y-90557214D01*
X108692071Y-89985785D02*
X107192071Y-89985785D01*
X108620642Y-89471500D02*
X108692071Y-89300071D01*
X108692071Y-89014357D01*
X108620642Y-88900071D01*
X108549214Y-88842928D01*
X108406357Y-88785785D01*
X108263500Y-88785785D01*
X108120642Y-88842928D01*
X108049214Y-88900071D01*
X107977785Y-89014357D01*
X107906357Y-89242928D01*
X107834928Y-89357214D01*
X107763500Y-89414357D01*
X107620642Y-89471500D01*
X107477785Y-89471500D01*
X107334928Y-89414357D01*
X107263500Y-89357214D01*
X107192071Y-89242928D01*
X107192071Y-88957214D01*
X107263500Y-88785785D01*
X107192071Y-88042928D02*
X107192071Y-87814357D01*
X107263500Y-87700071D01*
X107406357Y-87585785D01*
X107692071Y-87528642D01*
X108192071Y-87528642D01*
X108477785Y-87585785D01*
X108620642Y-87700071D01*
X108692071Y-87814357D01*
X108692071Y-88042928D01*
X108620642Y-88157214D01*
X108477785Y-88271500D01*
X108192071Y-88328642D01*
X107692071Y-88328642D01*
X107406357Y-88271500D01*
X107263500Y-88157214D01*
X107192071Y-88042928D01*
D12*
%TO.C,U1*%
X112591000Y-110686000D02*
X112591000Y-110461000D01*
X105341000Y-110686000D02*
X105341000Y-110361000D01*
X105341000Y-103436000D02*
X105341000Y-103761000D01*
X112591000Y-103436000D02*
X112591000Y-103761000D01*
X112591000Y-110686000D02*
X112266000Y-110686000D01*
X112591000Y-103436000D02*
X112266000Y-103436000D01*
X105341000Y-103436000D02*
X105666000Y-103436000D01*
X105341000Y-110686000D02*
X105666000Y-110686000D01*
X112591000Y-110461000D02*
X114016000Y-110461000D01*
D13*
%TO.C,U3*%
X81692000Y-102459000D02*
X80742000Y-102459000D01*
X80742000Y-102459000D02*
X80742000Y-103409000D01*
X90012000Y-102459000D02*
X90962000Y-102459000D01*
X90962000Y-102459000D02*
X90962000Y-103409000D01*
X81692000Y-112679000D02*
X80742000Y-112679000D01*
X80742000Y-112679000D02*
X80742000Y-111729000D01*
X90012000Y-112679000D02*
X90962000Y-112679000D01*
X90962000Y-112679000D02*
X90962000Y-111729000D01*
X90962000Y-111729000D02*
X92252000Y-111729000D01*
%TO.C,J1*%
X81086000Y-96333000D02*
X78486000Y-96333000D01*
X81086000Y-98933000D02*
X81086000Y-96333000D01*
X78486000Y-91253000D02*
X75886000Y-91253000D01*
X78486000Y-101533000D02*
X78486000Y-91253000D01*
X75886000Y-101533000D02*
X75886000Y-91253000D01*
X81086000Y-98933000D02*
X78486000Y-98933000D01*
X78486000Y-101533000D02*
X75886000Y-101533000D01*
X81086000Y-100203000D02*
X81086000Y-101533000D01*
X81086000Y-101533000D02*
X79756000Y-101533000D01*
%TO.C,J6*%
X116457000Y-96072000D02*
X120017000Y-96072000D01*
X111377000Y-96072000D02*
X114937000Y-96072000D01*
X121537000Y-96072000D02*
X122107000Y-96072000D01*
X106747000Y-93412000D02*
X107317000Y-93412000D01*
X107317000Y-93412000D02*
X107317000Y-91892000D01*
X106747000Y-96072000D02*
X109857000Y-96072000D01*
X118997000Y-93412000D02*
X122107000Y-93412000D01*
X113917000Y-93412000D02*
X117477000Y-93412000D01*
X108837000Y-93412000D02*
X112397000Y-93412000D01*
X122107000Y-96072000D02*
X122107000Y-93412000D01*
X106747000Y-96072000D02*
X106747000Y-93412000D01*
%TO.C,U2*%
X64897000Y-97175000D02*
X68347000Y-97175000D01*
X64897000Y-97175000D02*
X62947000Y-97175000D01*
X64897000Y-92055000D02*
X66847000Y-92055000D01*
X64897000Y-92055000D02*
X62947000Y-92055000D01*
%TO.C,U5*%
X61636000Y-123814000D02*
X61636000Y-126264000D01*
X64856000Y-125614000D02*
X64856000Y-123814000D01*
%TO.C,U6*%
X95883000Y-113594000D02*
X94423000Y-113594000D01*
X95883000Y-110434000D02*
X93723000Y-110434000D01*
X95883000Y-110434000D02*
X95883000Y-111364000D01*
X95883000Y-113594000D02*
X95883000Y-112664000D01*
%TO.C,X1*%
X122715000Y-109771000D02*
X124315000Y-109771000D01*
X122715000Y-106891000D02*
X122715000Y-109771000D01*
X117315000Y-112281000D02*
X117315000Y-112151000D01*
X122715000Y-112281000D02*
X117315000Y-112281000D01*
X122715000Y-112151000D02*
X122715000Y-112281000D01*
X124315000Y-112151000D02*
X122715000Y-112151000D01*
X117315000Y-109771000D02*
X117315000Y-106891000D01*
X122715000Y-104381000D02*
X122715000Y-104511000D01*
X117315000Y-104381000D02*
X122715000Y-104381000D01*
X117315000Y-104511000D02*
X117315000Y-104381000D01*
%TO.C,J2*%
D14*
X136505238Y-118336190D02*
X136505238Y-117836190D01*
X136790952Y-118336190D01*
X136790952Y-117836190D01*
X137386190Y-117812380D02*
X136957619Y-118455238D01*
X137838571Y-118288571D02*
X137814761Y-118312380D01*
X137743333Y-118336190D01*
X137695714Y-118336190D01*
X137624285Y-118312380D01*
X137576666Y-118264761D01*
X137552857Y-118217142D01*
X137529047Y-118121904D01*
X137529047Y-118050476D01*
X137552857Y-117955238D01*
X137576666Y-117907619D01*
X137624285Y-117860000D01*
X137695714Y-117836190D01*
X137743333Y-117836190D01*
X137814761Y-117860000D01*
X137838571Y-117883809D01*
X134024761Y-118193333D02*
X134262857Y-118193333D01*
X133977142Y-118336190D02*
X134143809Y-117836190D01*
X134310476Y-118336190D01*
X134739047Y-118336190D02*
X134453333Y-118336190D01*
X134596190Y-118336190D02*
X134596190Y-117836190D01*
X134548571Y-117907619D01*
X134500952Y-117955238D01*
X134453333Y-117979047D01*
X135048571Y-117836190D02*
X135096190Y-117836190D01*
X135143809Y-117860000D01*
X135167619Y-117883809D01*
X135191428Y-117931428D01*
X135215238Y-118026666D01*
X135215238Y-118145714D01*
X135191428Y-118240952D01*
X135167619Y-118288571D01*
X135143809Y-118312380D01*
X135096190Y-118336190D01*
X135048571Y-118336190D01*
X135000952Y-118312380D01*
X134977142Y-118288571D01*
X134953333Y-118240952D01*
X134929523Y-118145714D01*
X134929523Y-118026666D01*
X134953333Y-117931428D01*
X134977142Y-117883809D01*
X135000952Y-117860000D01*
X135048571Y-117836190D01*
X136564761Y-127083333D02*
X136802857Y-127083333D01*
X136517142Y-127226190D02*
X136683809Y-126726190D01*
X136850476Y-127226190D01*
X137279047Y-127226190D02*
X136993333Y-127226190D01*
X137136190Y-127226190D02*
X137136190Y-126726190D01*
X137088571Y-126797619D01*
X137040952Y-126845238D01*
X136993333Y-126869047D01*
X137755238Y-127226190D02*
X137469523Y-127226190D01*
X137612380Y-127226190D02*
X137612380Y-126726190D01*
X137564761Y-126797619D01*
X137517142Y-126845238D01*
X137469523Y-126869047D01*
X134262857Y-127083333D02*
X134500952Y-127083333D01*
X134215238Y-127226190D02*
X134381904Y-126726190D01*
X134548571Y-127226190D01*
X134739047Y-127226190D02*
X134834285Y-127226190D01*
X134881904Y-127202380D01*
X134905714Y-127178571D01*
X134953333Y-127107142D01*
X134977142Y-127011904D01*
X134977142Y-126821428D01*
X134953333Y-126773809D01*
X134929523Y-126750000D01*
X134881904Y-126726190D01*
X134786666Y-126726190D01*
X134739047Y-126750000D01*
X134715238Y-126773809D01*
X134691428Y-126821428D01*
X134691428Y-126940476D01*
X134715238Y-126988095D01*
X134739047Y-127011904D01*
X134786666Y-127035714D01*
X134881904Y-127035714D01*
X134929523Y-127011904D01*
X134953333Y-126988095D01*
X134977142Y-126940476D01*
X131722857Y-118193333D02*
X131960952Y-118193333D01*
X131675238Y-118336190D02*
X131841904Y-117836190D01*
X132008571Y-118336190D01*
X132246666Y-118050476D02*
X132199047Y-118026666D01*
X132175238Y-118002857D01*
X132151428Y-117955238D01*
X132151428Y-117931428D01*
X132175238Y-117883809D01*
X132199047Y-117860000D01*
X132246666Y-117836190D01*
X132341904Y-117836190D01*
X132389523Y-117860000D01*
X132413333Y-117883809D01*
X132437142Y-117931428D01*
X132437142Y-117955238D01*
X132413333Y-118002857D01*
X132389523Y-118026666D01*
X132341904Y-118050476D01*
X132246666Y-118050476D01*
X132199047Y-118074285D01*
X132175238Y-118098095D01*
X132151428Y-118145714D01*
X132151428Y-118240952D01*
X132175238Y-118288571D01*
X132199047Y-118312380D01*
X132246666Y-118336190D01*
X132341904Y-118336190D01*
X132389523Y-118312380D01*
X132413333Y-118288571D01*
X132437142Y-118240952D01*
X132437142Y-118145714D01*
X132413333Y-118098095D01*
X132389523Y-118074285D01*
X132341904Y-118050476D01*
X128575714Y-117587500D02*
X129075714Y-117587500D01*
X128980476Y-118336190D02*
X128813809Y-118098095D01*
X128694761Y-118336190D02*
X128694761Y-117836190D01*
X128885238Y-117836190D01*
X128932857Y-117860000D01*
X128956666Y-117883809D01*
X128980476Y-117931428D01*
X128980476Y-118002857D01*
X128956666Y-118050476D01*
X128932857Y-118074285D01*
X128885238Y-118098095D01*
X128694761Y-118098095D01*
X129075714Y-117587500D02*
X129504285Y-117587500D01*
X129361428Y-118074285D02*
X129194761Y-118074285D01*
X129194761Y-118336190D02*
X129194761Y-117836190D01*
X129432857Y-117836190D01*
X129504285Y-117587500D02*
X129980476Y-117587500D01*
X129599523Y-118312380D02*
X129670952Y-118336190D01*
X129790000Y-118336190D01*
X129837619Y-118312380D01*
X129861428Y-118288571D01*
X129885238Y-118240952D01*
X129885238Y-118193333D01*
X129861428Y-118145714D01*
X129837619Y-118121904D01*
X129790000Y-118098095D01*
X129694761Y-118074285D01*
X129647142Y-118050476D01*
X129623333Y-118026666D01*
X129599523Y-117979047D01*
X129599523Y-117931428D01*
X129623333Y-117883809D01*
X129647142Y-117860000D01*
X129694761Y-117836190D01*
X129813809Y-117836190D01*
X129885238Y-117860000D01*
X129980476Y-117587500D02*
X130504285Y-117587500D01*
X130099523Y-118336190D02*
X130099523Y-117836190D01*
X130099523Y-118074285D02*
X130385238Y-118074285D01*
X130385238Y-118336190D02*
X130385238Y-117836190D01*
X126476190Y-117587500D02*
X127047619Y-117587500D01*
X126595238Y-118336190D02*
X126595238Y-117836190D01*
X126761904Y-118193333D01*
X126928571Y-117836190D01*
X126928571Y-118336190D01*
X127047619Y-117587500D02*
X127523809Y-117587500D01*
X127428571Y-118336190D02*
X127142857Y-118336190D01*
X127285714Y-118336190D02*
X127285714Y-117836190D01*
X127238095Y-117907619D01*
X127190476Y-117955238D01*
X127142857Y-117979047D01*
X123340952Y-118145714D02*
X123721904Y-118145714D01*
X123531428Y-118336190D02*
X123531428Y-117955238D01*
X124221904Y-118336190D02*
X123936190Y-118336190D01*
X124079047Y-118336190D02*
X124079047Y-117836190D01*
X124031428Y-117907619D01*
X123983809Y-117955238D01*
X123936190Y-117979047D01*
X124412380Y-117883809D02*
X124436190Y-117860000D01*
X124483809Y-117836190D01*
X124602857Y-117836190D01*
X124650476Y-117860000D01*
X124674285Y-117883809D01*
X124698095Y-117931428D01*
X124698095Y-117979047D01*
X124674285Y-118050476D01*
X124388571Y-118336190D01*
X124698095Y-118336190D01*
X124864761Y-118002857D02*
X124983809Y-118336190D01*
X125102857Y-118002857D01*
X125293333Y-117836190D02*
X125293333Y-118240952D01*
X125317142Y-118288571D01*
X125340952Y-118312380D01*
X125388571Y-118336190D01*
X125483809Y-118336190D01*
X125531428Y-118312380D01*
X125555238Y-118288571D01*
X125579047Y-118240952D01*
X125579047Y-117836190D01*
D15*
X130908571Y-126582000D02*
X131308571Y-126582000D01*
X131137142Y-126971428D02*
X131194285Y-126990476D01*
X131213333Y-127009523D01*
X131232380Y-127047619D01*
X131232380Y-127104761D01*
X131213333Y-127142857D01*
X131194285Y-127161904D01*
X131156190Y-127180952D01*
X131003809Y-127180952D01*
X131003809Y-126780952D01*
X131137142Y-126780952D01*
X131175238Y-126800000D01*
X131194285Y-126819047D01*
X131213333Y-126857142D01*
X131213333Y-126895238D01*
X131194285Y-126933333D01*
X131175238Y-126952380D01*
X131137142Y-126971428D01*
X131003809Y-126971428D01*
X131308571Y-126582000D02*
X131727619Y-126582000D01*
X131403809Y-126780952D02*
X131403809Y-127104761D01*
X131422857Y-127142857D01*
X131441904Y-127161904D01*
X131480000Y-127180952D01*
X131556190Y-127180952D01*
X131594285Y-127161904D01*
X131613333Y-127142857D01*
X131632380Y-127104761D01*
X131632380Y-126780952D01*
X131727619Y-126582000D02*
X132108571Y-126582000D01*
X131803809Y-127161904D02*
X131860952Y-127180952D01*
X131956190Y-127180952D01*
X131994285Y-127161904D01*
X132013333Y-127142857D01*
X132032380Y-127104761D01*
X132032380Y-127066666D01*
X132013333Y-127028571D01*
X131994285Y-127009523D01*
X131956190Y-126990476D01*
X131880000Y-126971428D01*
X131841904Y-126952380D01*
X131822857Y-126933333D01*
X131803809Y-126895238D01*
X131803809Y-126857142D01*
X131822857Y-126819047D01*
X131841904Y-126800000D01*
X131880000Y-126780952D01*
X131975238Y-126780952D01*
X132032380Y-126800000D01*
X132108571Y-126582000D02*
X132451428Y-126582000D01*
X132184761Y-127066666D02*
X132375238Y-127066666D01*
X132146666Y-127180952D02*
X132280000Y-126780952D01*
X132413333Y-127180952D01*
X132451428Y-126582000D02*
X132851428Y-126582000D01*
X132775238Y-127142857D02*
X132756190Y-127161904D01*
X132699047Y-127180952D01*
X132660952Y-127180952D01*
X132603809Y-127161904D01*
X132565714Y-127123809D01*
X132546666Y-127085714D01*
X132527619Y-127009523D01*
X132527619Y-126952380D01*
X132546666Y-126876190D01*
X132565714Y-126838095D01*
X132603809Y-126800000D01*
X132660952Y-126780952D01*
X132699047Y-126780952D01*
X132756190Y-126800000D01*
X132775238Y-126819047D01*
X132851428Y-126582000D02*
X133251428Y-126582000D01*
X132946666Y-127180952D02*
X132946666Y-126780952D01*
X133175238Y-127180952D02*
X133003809Y-126952380D01*
X133175238Y-126780952D02*
X132946666Y-127009523D01*
X128511428Y-126582000D02*
X128911428Y-126582000D01*
X128835238Y-127180952D02*
X128701904Y-126990476D01*
X128606666Y-127180952D02*
X128606666Y-126780952D01*
X128759047Y-126780952D01*
X128797142Y-126800000D01*
X128816190Y-126819047D01*
X128835238Y-126857142D01*
X128835238Y-126914285D01*
X128816190Y-126952380D01*
X128797142Y-126971428D01*
X128759047Y-126990476D01*
X128606666Y-126990476D01*
X128911428Y-126582000D02*
X129330476Y-126582000D01*
X129082857Y-126780952D02*
X129159047Y-126780952D01*
X129197142Y-126800000D01*
X129235238Y-126838095D01*
X129254285Y-126914285D01*
X129254285Y-127047619D01*
X129235238Y-127123809D01*
X129197142Y-127161904D01*
X129159047Y-127180952D01*
X129082857Y-127180952D01*
X129044761Y-127161904D01*
X129006666Y-127123809D01*
X128987619Y-127047619D01*
X128987619Y-126914285D01*
X129006666Y-126838095D01*
X129044761Y-126800000D01*
X129082857Y-126780952D01*
X129330476Y-126582000D02*
X129787619Y-126582000D01*
X129425714Y-127180952D02*
X129425714Y-126780952D01*
X129559047Y-127066666D01*
X129692380Y-126780952D01*
X129692380Y-127180952D01*
X129787619Y-126582000D02*
X130187619Y-126582000D01*
X130111428Y-127142857D02*
X130092380Y-127161904D01*
X130035238Y-127180952D01*
X129997142Y-127180952D01*
X129940000Y-127161904D01*
X129901904Y-127123809D01*
X129882857Y-127085714D01*
X129863809Y-127009523D01*
X129863809Y-126952380D01*
X129882857Y-126876190D01*
X129901904Y-126838095D01*
X129940000Y-126800000D01*
X129997142Y-126780952D01*
X130035238Y-126780952D01*
X130092380Y-126800000D01*
X130111428Y-126819047D01*
X130187619Y-126582000D02*
X130568571Y-126582000D01*
X130263809Y-127161904D02*
X130320952Y-127180952D01*
X130416190Y-127180952D01*
X130454285Y-127161904D01*
X130473333Y-127142857D01*
X130492380Y-127104761D01*
X130492380Y-127066666D01*
X130473333Y-127028571D01*
X130454285Y-127009523D01*
X130416190Y-126990476D01*
X130340000Y-126971428D01*
X130301904Y-126952380D01*
X130282857Y-126933333D01*
X130263809Y-126895238D01*
X130263809Y-126857142D01*
X130282857Y-126819047D01*
X130301904Y-126800000D01*
X130340000Y-126780952D01*
X130435238Y-126780952D01*
X130492380Y-126800000D01*
D14*
X126642857Y-127083333D02*
X126880952Y-127083333D01*
X126595238Y-127226190D02*
X126761904Y-126726190D01*
X126928571Y-127226190D01*
X127309523Y-126892857D02*
X127309523Y-127226190D01*
X127190476Y-126702380D02*
X127071428Y-127059523D01*
X127380952Y-127059523D01*
X124102857Y-127083333D02*
X124340952Y-127083333D01*
X124055238Y-127226190D02*
X124221904Y-126726190D01*
X124388571Y-127226190D01*
X124793333Y-126726190D02*
X124555238Y-126726190D01*
X124531428Y-126964285D01*
X124555238Y-126940476D01*
X124602857Y-126916666D01*
X124721904Y-126916666D01*
X124769523Y-126940476D01*
X124793333Y-126964285D01*
X124817142Y-127011904D01*
X124817142Y-127130952D01*
X124793333Y-127178571D01*
X124769523Y-127202380D01*
X124721904Y-127226190D01*
X124602857Y-127226190D01*
X124555238Y-127202380D01*
X124531428Y-127178571D01*
X121062857Y-118145714D02*
X121443809Y-118145714D01*
X121253333Y-118336190D02*
X121253333Y-117955238D01*
X121943809Y-118336190D02*
X121658095Y-118336190D01*
X121800952Y-118336190D02*
X121800952Y-117836190D01*
X121753333Y-117907619D01*
X121705714Y-117955238D01*
X121658095Y-117979047D01*
X122134285Y-117883809D02*
X122158095Y-117860000D01*
X122205714Y-117836190D01*
X122324761Y-117836190D01*
X122372380Y-117860000D01*
X122396190Y-117883809D01*
X122420000Y-117931428D01*
X122420000Y-117979047D01*
X122396190Y-118050476D01*
X122110476Y-118336190D01*
X122420000Y-118336190D01*
X122586666Y-118002857D02*
X122705714Y-118336190D01*
X122824761Y-118002857D01*
X118570476Y-117587500D02*
X119141904Y-117587500D01*
X118641904Y-117836190D02*
X118760952Y-118336190D01*
X118856190Y-117979047D01*
X118951428Y-118336190D01*
X119070476Y-117836190D01*
X119141904Y-117587500D02*
X119570476Y-117587500D01*
X119237142Y-118193333D02*
X119475238Y-118193333D01*
X119189523Y-118336190D02*
X119356190Y-117836190D01*
X119522857Y-118336190D01*
X119570476Y-117587500D02*
X119808571Y-117587500D01*
X119689523Y-118336190D02*
X119689523Y-117836190D01*
X119808571Y-117587500D02*
X120189523Y-117587500D01*
X119856190Y-117836190D02*
X120141904Y-117836190D01*
X119999047Y-118336190D02*
X119999047Y-117836190D01*
X116220952Y-118145714D02*
X116601904Y-118145714D01*
X117078095Y-117836190D02*
X116840000Y-117836190D01*
X116816190Y-118074285D01*
X116840000Y-118050476D01*
X116887619Y-118026666D01*
X117006666Y-118026666D01*
X117054285Y-118050476D01*
X117078095Y-118074285D01*
X117101904Y-118121904D01*
X117101904Y-118240952D01*
X117078095Y-118288571D01*
X117054285Y-118312380D01*
X117006666Y-118336190D01*
X116887619Y-118336190D01*
X116840000Y-118312380D01*
X116816190Y-118288571D01*
X117268571Y-118002857D02*
X117387619Y-118336190D01*
X117506666Y-118002857D01*
X113764285Y-117587500D02*
X114335714Y-117587500D01*
X113835714Y-117836190D02*
X113954761Y-118336190D01*
X114050000Y-117979047D01*
X114145238Y-118336190D01*
X114264285Y-117836190D01*
X114335714Y-117587500D02*
X114835714Y-117587500D01*
X114740476Y-118336190D02*
X114573809Y-118098095D01*
X114454761Y-118336190D02*
X114454761Y-117836190D01*
X114645238Y-117836190D01*
X114692857Y-117860000D01*
X114716666Y-117883809D01*
X114740476Y-117931428D01*
X114740476Y-118002857D01*
X114716666Y-118050476D01*
X114692857Y-118074285D01*
X114645238Y-118098095D01*
X114454761Y-118098095D01*
X121562857Y-127083333D02*
X121800952Y-127083333D01*
X121515238Y-127226190D02*
X121681904Y-126726190D01*
X121848571Y-127226190D01*
X122229523Y-126726190D02*
X122134285Y-126726190D01*
X122086666Y-126750000D01*
X122062857Y-126773809D01*
X122015238Y-126845238D01*
X121991428Y-126940476D01*
X121991428Y-127130952D01*
X122015238Y-127178571D01*
X122039047Y-127202380D01*
X122086666Y-127226190D01*
X122181904Y-127226190D01*
X122229523Y-127202380D01*
X122253333Y-127178571D01*
X122277142Y-127130952D01*
X122277142Y-127011904D01*
X122253333Y-126964285D01*
X122229523Y-126940476D01*
X122181904Y-126916666D01*
X122086666Y-126916666D01*
X122039047Y-126940476D01*
X122015238Y-126964285D01*
X121991428Y-127011904D01*
X119022857Y-127083333D02*
X119260952Y-127083333D01*
X118975238Y-127226190D02*
X119141904Y-126726190D01*
X119308571Y-127226190D01*
X119427619Y-126726190D02*
X119760952Y-126726190D01*
X119546666Y-127226190D01*
X115709047Y-126477500D02*
X116209047Y-126477500D01*
X116113809Y-127226190D02*
X115947142Y-126988095D01*
X115828095Y-127226190D02*
X115828095Y-126726190D01*
X116018571Y-126726190D01*
X116066190Y-126750000D01*
X116090000Y-126773809D01*
X116113809Y-126821428D01*
X116113809Y-126892857D01*
X116090000Y-126940476D01*
X116066190Y-126964285D01*
X116018571Y-126988095D01*
X115828095Y-126988095D01*
X116209047Y-126477500D02*
X116661428Y-126477500D01*
X116328095Y-126964285D02*
X116494761Y-126964285D01*
X116566190Y-127226190D02*
X116328095Y-127226190D01*
X116328095Y-126726190D01*
X116566190Y-126726190D01*
X116661428Y-126477500D02*
X117137619Y-126477500D01*
X116756666Y-127202380D02*
X116828095Y-127226190D01*
X116947142Y-127226190D01*
X116994761Y-127202380D01*
X117018571Y-127178571D01*
X117042380Y-127130952D01*
X117042380Y-127083333D01*
X117018571Y-127035714D01*
X116994761Y-127011904D01*
X116947142Y-126988095D01*
X116851904Y-126964285D01*
X116804285Y-126940476D01*
X116780476Y-126916666D01*
X116756666Y-126869047D01*
X116756666Y-126821428D01*
X116780476Y-126773809D01*
X116804285Y-126750000D01*
X116851904Y-126726190D01*
X116970952Y-126726190D01*
X117042380Y-126750000D01*
X117137619Y-126477500D02*
X117590000Y-126477500D01*
X117256666Y-126964285D02*
X117423333Y-126964285D01*
X117494761Y-127226190D02*
X117256666Y-127226190D01*
X117256666Y-126726190D01*
X117494761Y-126726190D01*
X117590000Y-126477500D02*
X117970952Y-126477500D01*
X117637619Y-126726190D02*
X117923333Y-126726190D01*
X117780476Y-127226190D02*
X117780476Y-126726190D01*
X113038095Y-126477500D02*
X113538095Y-126477500D01*
X113323809Y-126964285D02*
X113395238Y-126988095D01*
X113419047Y-127011904D01*
X113442857Y-127059523D01*
X113442857Y-127130952D01*
X113419047Y-127178571D01*
X113395238Y-127202380D01*
X113347619Y-127226190D01*
X113157142Y-127226190D01*
X113157142Y-126726190D01*
X113323809Y-126726190D01*
X113371428Y-126750000D01*
X113395238Y-126773809D01*
X113419047Y-126821428D01*
X113419047Y-126869047D01*
X113395238Y-126916666D01*
X113371428Y-126940476D01*
X113323809Y-126964285D01*
X113157142Y-126964285D01*
X113538095Y-126477500D02*
X114061904Y-126477500D01*
X113657142Y-126726190D02*
X113657142Y-127130952D01*
X113680952Y-127178571D01*
X113704761Y-127202380D01*
X113752380Y-127226190D01*
X113847619Y-127226190D01*
X113895238Y-127202380D01*
X113919047Y-127178571D01*
X113942857Y-127130952D01*
X113942857Y-126726190D01*
X114061904Y-126477500D02*
X114538095Y-126477500D01*
X114157142Y-127202380D02*
X114228571Y-127226190D01*
X114347619Y-127226190D01*
X114395238Y-127202380D01*
X114419047Y-127178571D01*
X114442857Y-127130952D01*
X114442857Y-127083333D01*
X114419047Y-127035714D01*
X114395238Y-127011904D01*
X114347619Y-126988095D01*
X114252380Y-126964285D01*
X114204761Y-126940476D01*
X114180952Y-126916666D01*
X114157142Y-126869047D01*
X114157142Y-126821428D01*
X114180952Y-126773809D01*
X114204761Y-126750000D01*
X114252380Y-126726190D01*
X114371428Y-126726190D01*
X114442857Y-126750000D01*
X114538095Y-126477500D02*
X115038095Y-126477500D01*
X114942857Y-127226190D02*
X114776190Y-126988095D01*
X114657142Y-127226190D02*
X114657142Y-126726190D01*
X114847619Y-126726190D01*
X114895238Y-126750000D01*
X114919047Y-126773809D01*
X114942857Y-126821428D01*
X114942857Y-126892857D01*
X114919047Y-126940476D01*
X114895238Y-126964285D01*
X114847619Y-126988095D01*
X114657142Y-126988095D01*
X115038095Y-126477500D02*
X115561904Y-126477500D01*
X115490476Y-127273809D02*
X115442857Y-127250000D01*
X115395238Y-127202380D01*
X115323809Y-127130952D01*
X115276190Y-127107142D01*
X115228571Y-127107142D01*
X115252380Y-127226190D02*
X115204761Y-127202380D01*
X115157142Y-127154761D01*
X115133333Y-127059523D01*
X115133333Y-126892857D01*
X115157142Y-126797619D01*
X115204761Y-126750000D01*
X115252380Y-126726190D01*
X115347619Y-126726190D01*
X115395238Y-126750000D01*
X115442857Y-126797619D01*
X115466666Y-126892857D01*
X115466666Y-127059523D01*
X115442857Y-127154761D01*
X115395238Y-127202380D01*
X115347619Y-127226190D01*
X115252380Y-127226190D01*
X111260000Y-117587500D02*
X111760000Y-117587500D01*
X111664761Y-118336190D02*
X111498095Y-118098095D01*
X111379047Y-118336190D02*
X111379047Y-117836190D01*
X111569523Y-117836190D01*
X111617142Y-117860000D01*
X111640952Y-117883809D01*
X111664761Y-117931428D01*
X111664761Y-118002857D01*
X111640952Y-118050476D01*
X111617142Y-118074285D01*
X111569523Y-118098095D01*
X111379047Y-118098095D01*
X111760000Y-117587500D02*
X112260000Y-117587500D01*
X111879047Y-118336190D02*
X111879047Y-117836190D01*
X111998095Y-117836190D01*
X112069523Y-117860000D01*
X112117142Y-117907619D01*
X112140952Y-117955238D01*
X112164761Y-118050476D01*
X112164761Y-118121904D01*
X112140952Y-118217142D01*
X112117142Y-118264761D01*
X112069523Y-118312380D01*
X111998095Y-118336190D01*
X111879047Y-118336190D01*
X108327142Y-117587500D02*
X108565238Y-117587500D01*
X108446190Y-118336190D02*
X108446190Y-117836190D01*
X108565238Y-117587500D02*
X109089047Y-117587500D01*
X108779523Y-117836190D02*
X108874761Y-117836190D01*
X108922380Y-117860000D01*
X108970000Y-117907619D01*
X108993809Y-118002857D01*
X108993809Y-118169523D01*
X108970000Y-118264761D01*
X108922380Y-118312380D01*
X108874761Y-118336190D01*
X108779523Y-118336190D01*
X108731904Y-118312380D01*
X108684285Y-118264761D01*
X108660476Y-118169523D01*
X108660476Y-118002857D01*
X108684285Y-117907619D01*
X108731904Y-117860000D01*
X108779523Y-117836190D01*
X109089047Y-117587500D02*
X109589047Y-117587500D01*
X109493809Y-118336190D02*
X109327142Y-118098095D01*
X109208095Y-118336190D02*
X109208095Y-117836190D01*
X109398571Y-117836190D01*
X109446190Y-117860000D01*
X109470000Y-117883809D01*
X109493809Y-117931428D01*
X109493809Y-118002857D01*
X109470000Y-118050476D01*
X109446190Y-118074285D01*
X109398571Y-118098095D01*
X109208095Y-118098095D01*
X109589047Y-117587500D02*
X110112857Y-117587500D01*
X110041428Y-118383809D02*
X109993809Y-118360000D01*
X109946190Y-118312380D01*
X109874761Y-118240952D01*
X109827142Y-118217142D01*
X109779523Y-118217142D01*
X109803333Y-118336190D02*
X109755714Y-118312380D01*
X109708095Y-118264761D01*
X109684285Y-118169523D01*
X109684285Y-118002857D01*
X109708095Y-117907619D01*
X109755714Y-117860000D01*
X109803333Y-117836190D01*
X109898571Y-117836190D01*
X109946190Y-117860000D01*
X109993809Y-117907619D01*
X110017619Y-118002857D01*
X110017619Y-118169523D01*
X109993809Y-118264761D01*
X109946190Y-118312380D01*
X109898571Y-118336190D01*
X109803333Y-118336190D01*
X105656190Y-117587500D02*
X106227619Y-117587500D01*
X105775238Y-118336190D02*
X105775238Y-117836190D01*
X105941904Y-118193333D01*
X106108571Y-117836190D01*
X106108571Y-118336190D01*
X106227619Y-117587500D02*
X106727619Y-117587500D01*
X106632380Y-118336190D02*
X106465714Y-118098095D01*
X106346666Y-118336190D02*
X106346666Y-117836190D01*
X106537142Y-117836190D01*
X106584761Y-117860000D01*
X106608571Y-117883809D01*
X106632380Y-117931428D01*
X106632380Y-118002857D01*
X106608571Y-118050476D01*
X106584761Y-118074285D01*
X106537142Y-118098095D01*
X106346666Y-118098095D01*
X106727619Y-117587500D02*
X107180000Y-117587500D01*
X106846666Y-118074285D02*
X107013333Y-118074285D01*
X107084761Y-118336190D02*
X106846666Y-118336190D01*
X106846666Y-117836190D01*
X107084761Y-117836190D01*
X107180000Y-117587500D02*
X107703809Y-117587500D01*
X107632380Y-118383809D02*
X107584761Y-118360000D01*
X107537142Y-118312380D01*
X107465714Y-118240952D01*
X107418095Y-118217142D01*
X107370476Y-118217142D01*
X107394285Y-118336190D02*
X107346666Y-118312380D01*
X107299047Y-118264761D01*
X107275238Y-118169523D01*
X107275238Y-118002857D01*
X107299047Y-117907619D01*
X107346666Y-117860000D01*
X107394285Y-117836190D01*
X107489523Y-117836190D01*
X107537142Y-117860000D01*
X107584761Y-117907619D01*
X107608571Y-118002857D01*
X107608571Y-118169523D01*
X107584761Y-118264761D01*
X107537142Y-118312380D01*
X107489523Y-118336190D01*
X107394285Y-118336190D01*
X103270952Y-117587500D02*
X103794761Y-117587500D01*
X103390000Y-118336190D02*
X103390000Y-117836190D01*
X103390000Y-118074285D02*
X103675714Y-118074285D01*
X103675714Y-118336190D02*
X103675714Y-117836190D01*
X103794761Y-117587500D02*
X104223333Y-117587500D01*
X103890000Y-118193333D02*
X104128095Y-118193333D01*
X103842380Y-118336190D02*
X104009047Y-117836190D01*
X104175714Y-118336190D01*
X104223333Y-117587500D02*
X104628095Y-117587500D01*
X104580476Y-118336190D02*
X104342380Y-118336190D01*
X104342380Y-117836190D01*
X104628095Y-117587500D02*
X105009047Y-117587500D01*
X104675714Y-117836190D02*
X104961428Y-117836190D01*
X104818571Y-118336190D02*
X104818571Y-117836190D01*
X111617142Y-126726190D02*
X111617142Y-127130952D01*
X111640952Y-127178571D01*
X111664761Y-127202380D01*
X111712380Y-127226190D01*
X111807619Y-127226190D01*
X111855238Y-127202380D01*
X111879047Y-127178571D01*
X111902857Y-127130952D01*
X111902857Y-126726190D01*
X109053333Y-126726190D02*
X109220000Y-127226190D01*
X109386666Y-126726190D01*
X106680000Y-126988095D02*
X106680000Y-127226190D01*
X106513333Y-126726190D02*
X106680000Y-126988095D01*
X106846666Y-126726190D01*
X103116190Y-126726190D02*
X103282857Y-127226190D01*
X103449523Y-126726190D01*
X103616190Y-127226190D02*
X103616190Y-126726190D01*
X103854285Y-127226190D02*
X103854285Y-126726190D01*
X103973333Y-126726190D01*
X104044761Y-126750000D01*
X104092380Y-126797619D01*
X104116190Y-126845238D01*
X104140000Y-126940476D01*
X104140000Y-127011904D01*
X104116190Y-127107142D01*
X104092380Y-127154761D01*
X104044761Y-127202380D01*
X103973333Y-127226190D01*
X103854285Y-127226190D01*
X104354285Y-126964285D02*
X104520952Y-126964285D01*
X104592380Y-127226190D02*
X104354285Y-127226190D01*
X104354285Y-126726190D01*
X104592380Y-126726190D01*
X104901904Y-126726190D02*
X104997142Y-126726190D01*
X105044761Y-126750000D01*
X105092380Y-126797619D01*
X105116190Y-126892857D01*
X105116190Y-127059523D01*
X105092380Y-127154761D01*
X105044761Y-127202380D01*
X104997142Y-127226190D01*
X104901904Y-127226190D01*
X104854285Y-127202380D01*
X104806666Y-127154761D01*
X104782857Y-127059523D01*
X104782857Y-126892857D01*
X104806666Y-126797619D01*
X104854285Y-126750000D01*
X104901904Y-126726190D01*
X101219047Y-126750000D02*
X101171428Y-126726190D01*
X101100000Y-126726190D01*
X101028571Y-126750000D01*
X100980952Y-126797619D01*
X100957142Y-126845238D01*
X100933333Y-126940476D01*
X100933333Y-127011904D01*
X100957142Y-127107142D01*
X100980952Y-127154761D01*
X101028571Y-127202380D01*
X101100000Y-127226190D01*
X101147619Y-127226190D01*
X101219047Y-127202380D01*
X101242857Y-127178571D01*
X101242857Y-127011904D01*
X101147619Y-127011904D01*
X101457142Y-127226190D02*
X101457142Y-126726190D01*
X101742857Y-127226190D01*
X101742857Y-126726190D01*
X101980952Y-127226190D02*
X101980952Y-126726190D01*
X102100000Y-126726190D01*
X102171428Y-126750000D01*
X102219047Y-126797619D01*
X102242857Y-126845238D01*
X102266666Y-126940476D01*
X102266666Y-127011904D01*
X102242857Y-127107142D01*
X102219047Y-127154761D01*
X102171428Y-127202380D01*
X102100000Y-127226190D01*
X101980952Y-127226190D01*
X97690952Y-126477500D02*
X97929047Y-126477500D01*
X97810000Y-127226190D02*
X97810000Y-126726190D01*
X97929047Y-126477500D02*
X98452857Y-126477500D01*
X98143333Y-126726190D02*
X98238571Y-126726190D01*
X98286190Y-126750000D01*
X98333809Y-126797619D01*
X98357619Y-126892857D01*
X98357619Y-127059523D01*
X98333809Y-127154761D01*
X98286190Y-127202380D01*
X98238571Y-127226190D01*
X98143333Y-127226190D01*
X98095714Y-127202380D01*
X98048095Y-127154761D01*
X98024285Y-127059523D01*
X98024285Y-126892857D01*
X98048095Y-126797619D01*
X98095714Y-126750000D01*
X98143333Y-126726190D01*
X98452857Y-126477500D02*
X98952857Y-126477500D01*
X98857619Y-127226190D02*
X98690952Y-126988095D01*
X98571904Y-127226190D02*
X98571904Y-126726190D01*
X98762380Y-126726190D01*
X98810000Y-126750000D01*
X98833809Y-126773809D01*
X98857619Y-126821428D01*
X98857619Y-126892857D01*
X98833809Y-126940476D01*
X98810000Y-126964285D01*
X98762380Y-126988095D01*
X98571904Y-126988095D01*
X98952857Y-126477500D02*
X99476666Y-126477500D01*
X99405238Y-127273809D02*
X99357619Y-127250000D01*
X99310000Y-127202380D01*
X99238571Y-127130952D01*
X99190952Y-127107142D01*
X99143333Y-127107142D01*
X99167142Y-127226190D02*
X99119523Y-127202380D01*
X99071904Y-127154761D01*
X99048095Y-127059523D01*
X99048095Y-126892857D01*
X99071904Y-126797619D01*
X99119523Y-126750000D01*
X99167142Y-126726190D01*
X99262380Y-126726190D01*
X99310000Y-126750000D01*
X99357619Y-126797619D01*
X99381428Y-126892857D01*
X99381428Y-127059523D01*
X99357619Y-127154761D01*
X99310000Y-127202380D01*
X99262380Y-127226190D01*
X99167142Y-127226190D01*
X99476666Y-126477500D02*
X99976666Y-126477500D01*
X99857619Y-126750000D02*
X99810000Y-126726190D01*
X99738571Y-126726190D01*
X99667142Y-126750000D01*
X99619523Y-126797619D01*
X99595714Y-126845238D01*
X99571904Y-126940476D01*
X99571904Y-127011904D01*
X99595714Y-127107142D01*
X99619523Y-127154761D01*
X99667142Y-127202380D01*
X99738571Y-127226190D01*
X99786190Y-127226190D01*
X99857619Y-127202380D01*
X99881428Y-127178571D01*
X99881428Y-127011904D01*
X99786190Y-127011904D01*
X99976666Y-126477500D02*
X100429047Y-126477500D01*
X100095714Y-126964285D02*
X100262380Y-126964285D01*
X100333809Y-127226190D02*
X100095714Y-127226190D01*
X100095714Y-126726190D01*
X100333809Y-126726190D01*
X96162857Y-127083333D02*
X96400952Y-127083333D01*
X96115238Y-127226190D02*
X96281904Y-126726190D01*
X96448571Y-127226190D01*
X96567619Y-126726190D02*
X96877142Y-126726190D01*
X96710476Y-126916666D01*
X96781904Y-126916666D01*
X96829523Y-126940476D01*
X96853333Y-126964285D01*
X96877142Y-127011904D01*
X96877142Y-127130952D01*
X96853333Y-127178571D01*
X96829523Y-127202380D01*
X96781904Y-127226190D01*
X96639047Y-127226190D01*
X96591428Y-127202380D01*
X96567619Y-127178571D01*
X100933333Y-117587500D02*
X101457142Y-117587500D01*
X101052380Y-118336190D02*
X101052380Y-117836190D01*
X101338095Y-118336190D01*
X101338095Y-117836190D01*
X101457142Y-117587500D02*
X102028571Y-117587500D01*
X101576190Y-118336190D02*
X101576190Y-117836190D01*
X101742857Y-118193333D01*
X101909523Y-117836190D01*
X101909523Y-118336190D01*
X102028571Y-117587500D02*
X102266666Y-117587500D01*
X102147619Y-118336190D02*
X102147619Y-117836190D01*
X98488571Y-117587500D02*
X98726666Y-117587500D01*
X98607619Y-118336190D02*
X98607619Y-117836190D01*
X98726666Y-117587500D02*
X99250476Y-117587500D01*
X98845714Y-118336190D02*
X98845714Y-117836190D01*
X99131428Y-118336190D01*
X99131428Y-117836190D01*
X99250476Y-117587500D02*
X99631428Y-117587500D01*
X99298095Y-117836190D02*
X99583809Y-117836190D01*
X99440952Y-118336190D02*
X99440952Y-117836190D01*
X96150952Y-118336190D02*
X96150952Y-117836190D01*
X96270000Y-117836190D01*
X96341428Y-117860000D01*
X96389047Y-117907619D01*
X96412857Y-117955238D01*
X96436666Y-118050476D01*
X96436666Y-118121904D01*
X96412857Y-118217142D01*
X96389047Y-118264761D01*
X96341428Y-118312380D01*
X96270000Y-118336190D01*
X96150952Y-118336190D01*
X96865238Y-118002857D02*
X96865238Y-118336190D01*
X96746190Y-117812380D02*
X96627142Y-118169523D01*
X96936666Y-118169523D01*
X93610952Y-118336190D02*
X93610952Y-117836190D01*
X93730000Y-117836190D01*
X93801428Y-117860000D01*
X93849047Y-117907619D01*
X93872857Y-117955238D01*
X93896666Y-118050476D01*
X93896666Y-118121904D01*
X93872857Y-118217142D01*
X93849047Y-118264761D01*
X93801428Y-118312380D01*
X93730000Y-118336190D01*
X93610952Y-118336190D01*
X94063333Y-117836190D02*
X94372857Y-117836190D01*
X94206190Y-118026666D01*
X94277619Y-118026666D01*
X94325238Y-118050476D01*
X94349047Y-118074285D01*
X94372857Y-118121904D01*
X94372857Y-118240952D01*
X94349047Y-118288571D01*
X94325238Y-118312380D01*
X94277619Y-118336190D01*
X94134761Y-118336190D01*
X94087142Y-118312380D01*
X94063333Y-118288571D01*
X93622857Y-127083333D02*
X93860952Y-127083333D01*
X93575238Y-127226190D02*
X93741904Y-126726190D01*
X93908571Y-127226190D01*
X94051428Y-126773809D02*
X94075238Y-126750000D01*
X94122857Y-126726190D01*
X94241904Y-126726190D01*
X94289523Y-126750000D01*
X94313333Y-126773809D01*
X94337142Y-126821428D01*
X94337142Y-126869047D01*
X94313333Y-126940476D01*
X94027619Y-127226190D01*
X94337142Y-127226190D01*
X91070952Y-118336190D02*
X91070952Y-117836190D01*
X91190000Y-117836190D01*
X91261428Y-117860000D01*
X91309047Y-117907619D01*
X91332857Y-117955238D01*
X91356666Y-118050476D01*
X91356666Y-118121904D01*
X91332857Y-118217142D01*
X91309047Y-118264761D01*
X91261428Y-118312380D01*
X91190000Y-118336190D01*
X91070952Y-118336190D01*
X91809047Y-117836190D02*
X91570952Y-117836190D01*
X91547142Y-118074285D01*
X91570952Y-118050476D01*
X91618571Y-118026666D01*
X91737619Y-118026666D01*
X91785238Y-118050476D01*
X91809047Y-118074285D01*
X91832857Y-118121904D01*
X91832857Y-118240952D01*
X91809047Y-118288571D01*
X91785238Y-118312380D01*
X91737619Y-118336190D01*
X91618571Y-118336190D01*
X91570952Y-118312380D01*
X91547142Y-118288571D01*
X88530952Y-118336190D02*
X88530952Y-117836190D01*
X88650000Y-117836190D01*
X88721428Y-117860000D01*
X88769047Y-117907619D01*
X88792857Y-117955238D01*
X88816666Y-118050476D01*
X88816666Y-118121904D01*
X88792857Y-118217142D01*
X88769047Y-118264761D01*
X88721428Y-118312380D01*
X88650000Y-118336190D01*
X88530952Y-118336190D01*
X89245238Y-117836190D02*
X89150000Y-117836190D01*
X89102380Y-117860000D01*
X89078571Y-117883809D01*
X89030952Y-117955238D01*
X89007142Y-118050476D01*
X89007142Y-118240952D01*
X89030952Y-118288571D01*
X89054761Y-118312380D01*
X89102380Y-118336190D01*
X89197619Y-118336190D01*
X89245238Y-118312380D01*
X89269047Y-118288571D01*
X89292857Y-118240952D01*
X89292857Y-118121904D01*
X89269047Y-118074285D01*
X89245238Y-118050476D01*
X89197619Y-118026666D01*
X89102380Y-118026666D01*
X89054761Y-118050476D01*
X89030952Y-118074285D01*
X89007142Y-118121904D01*
X85990952Y-118336190D02*
X85990952Y-117836190D01*
X86110000Y-117836190D01*
X86181428Y-117860000D01*
X86229047Y-117907619D01*
X86252857Y-117955238D01*
X86276666Y-118050476D01*
X86276666Y-118121904D01*
X86252857Y-118217142D01*
X86229047Y-118264761D01*
X86181428Y-118312380D01*
X86110000Y-118336190D01*
X85990952Y-118336190D01*
X86467142Y-117883809D02*
X86490952Y-117860000D01*
X86538571Y-117836190D01*
X86657619Y-117836190D01*
X86705238Y-117860000D01*
X86729047Y-117883809D01*
X86752857Y-117931428D01*
X86752857Y-117979047D01*
X86729047Y-118050476D01*
X86443333Y-118336190D01*
X86752857Y-118336190D01*
X91082857Y-127083333D02*
X91320952Y-127083333D01*
X91035238Y-127226190D02*
X91201904Y-126726190D01*
X91368571Y-127226190D01*
X91797142Y-127226190D02*
X91511428Y-127226190D01*
X91654285Y-127226190D02*
X91654285Y-126726190D01*
X91606666Y-126797619D01*
X91559047Y-126845238D01*
X91511428Y-126869047D01*
X88542857Y-127083333D02*
X88780952Y-127083333D01*
X88495238Y-127226190D02*
X88661904Y-126726190D01*
X88828571Y-127226190D01*
X89090476Y-126726190D02*
X89138095Y-126726190D01*
X89185714Y-126750000D01*
X89209523Y-126773809D01*
X89233333Y-126821428D01*
X89257142Y-126916666D01*
X89257142Y-127035714D01*
X89233333Y-127130952D01*
X89209523Y-127178571D01*
X89185714Y-127202380D01*
X89138095Y-127226190D01*
X89090476Y-127226190D01*
X89042857Y-127202380D01*
X89019047Y-127178571D01*
X88995238Y-127130952D01*
X88971428Y-127035714D01*
X88971428Y-126916666D01*
X88995238Y-126821428D01*
X89019047Y-126773809D01*
X89042857Y-126750000D01*
X89090476Y-126726190D01*
X86062380Y-127178571D02*
X86038571Y-127202380D01*
X85967142Y-127226190D01*
X85919523Y-127226190D01*
X85848095Y-127202380D01*
X85800476Y-127154761D01*
X85776666Y-127107142D01*
X85752857Y-127011904D01*
X85752857Y-126940476D01*
X85776666Y-126845238D01*
X85800476Y-126797619D01*
X85848095Y-126750000D01*
X85919523Y-126726190D01*
X85967142Y-126726190D01*
X86038571Y-126750000D01*
X86062380Y-126773809D01*
X86514761Y-127226190D02*
X86276666Y-127226190D01*
X86276666Y-126726190D01*
X86681428Y-127226190D02*
X86681428Y-126726190D01*
X86967142Y-127226190D02*
X86752857Y-126940476D01*
X86967142Y-126726190D02*
X86681428Y-127011904D01*
X83439047Y-126750000D02*
X83391428Y-126726190D01*
X83320000Y-126726190D01*
X83248571Y-126750000D01*
X83200952Y-126797619D01*
X83177142Y-126845238D01*
X83153333Y-126940476D01*
X83153333Y-127011904D01*
X83177142Y-127107142D01*
X83200952Y-127154761D01*
X83248571Y-127202380D01*
X83320000Y-127226190D01*
X83367619Y-127226190D01*
X83439047Y-127202380D01*
X83462857Y-127178571D01*
X83462857Y-127011904D01*
X83367619Y-127011904D01*
X83677142Y-127226190D02*
X83677142Y-126726190D01*
X83962857Y-127226190D01*
X83962857Y-126726190D01*
X84200952Y-127226190D02*
X84200952Y-126726190D01*
X84320000Y-126726190D01*
X84391428Y-126750000D01*
X84439047Y-126797619D01*
X84462857Y-126845238D01*
X84486666Y-126940476D01*
X84486666Y-127011904D01*
X84462857Y-127107142D01*
X84439047Y-127154761D01*
X84391428Y-127202380D01*
X84320000Y-127226190D01*
X84200952Y-127226190D01*
X101219047Y-126750000D02*
X101171428Y-126726190D01*
X101100000Y-126726190D01*
X101028571Y-126750000D01*
X100980952Y-126797619D01*
X100957142Y-126845238D01*
X100933333Y-126940476D01*
X100933333Y-127011904D01*
X100957142Y-127107142D01*
X100980952Y-127154761D01*
X101028571Y-127202380D01*
X101100000Y-127226190D01*
X101147619Y-127226190D01*
X101219047Y-127202380D01*
X101242857Y-127178571D01*
X101242857Y-127011904D01*
X101147619Y-127011904D01*
X101457142Y-127226190D02*
X101457142Y-126726190D01*
X101742857Y-127226190D01*
X101742857Y-126726190D01*
X101980952Y-127226190D02*
X101980952Y-126726190D01*
X102100000Y-126726190D01*
X102171428Y-126750000D01*
X102219047Y-126797619D01*
X102242857Y-126845238D01*
X102266666Y-126940476D01*
X102266666Y-127011904D01*
X102242857Y-127107142D01*
X102219047Y-127154761D01*
X102171428Y-127202380D01*
X102100000Y-127226190D01*
X101980952Y-127226190D01*
X75580952Y-127035714D02*
X75961904Y-127035714D01*
X75771428Y-127226190D02*
X75771428Y-126845238D01*
X76223809Y-127226190D02*
X76319047Y-127226190D01*
X76366666Y-127202380D01*
X76390476Y-127178571D01*
X76438095Y-127107142D01*
X76461904Y-127011904D01*
X76461904Y-126821428D01*
X76438095Y-126773809D01*
X76414285Y-126750000D01*
X76366666Y-126726190D01*
X76271428Y-126726190D01*
X76223809Y-126750000D01*
X76200000Y-126773809D01*
X76176190Y-126821428D01*
X76176190Y-126940476D01*
X76200000Y-126988095D01*
X76223809Y-127011904D01*
X76271428Y-127035714D01*
X76366666Y-127035714D01*
X76414285Y-127011904D01*
X76438095Y-126988095D01*
X76461904Y-126940476D01*
X76628571Y-126892857D02*
X76747619Y-127226190D01*
X76866666Y-126892857D01*
X73040952Y-127035714D02*
X73421904Y-127035714D01*
X73231428Y-127226190D02*
X73231428Y-126845238D01*
X73898095Y-126726190D02*
X73660000Y-126726190D01*
X73636190Y-126964285D01*
X73660000Y-126940476D01*
X73707619Y-126916666D01*
X73826666Y-126916666D01*
X73874285Y-126940476D01*
X73898095Y-126964285D01*
X73921904Y-127011904D01*
X73921904Y-127130952D01*
X73898095Y-127178571D01*
X73874285Y-127202380D01*
X73826666Y-127226190D01*
X73707619Y-127226190D01*
X73660000Y-127202380D01*
X73636190Y-127178571D01*
X74088571Y-126892857D02*
X74207619Y-127226190D01*
X74326666Y-126892857D01*
X70524761Y-127083333D02*
X70762857Y-127083333D01*
X70477142Y-127226190D02*
X70643809Y-126726190D01*
X70810476Y-127226190D01*
X71239047Y-127226190D02*
X70953333Y-127226190D01*
X71096190Y-127226190D02*
X71096190Y-126726190D01*
X71048571Y-126797619D01*
X71000952Y-126845238D01*
X70953333Y-126869047D01*
X71429523Y-126773809D02*
X71453333Y-126750000D01*
X71500952Y-126726190D01*
X71620000Y-126726190D01*
X71667619Y-126750000D01*
X71691428Y-126773809D01*
X71715238Y-126821428D01*
X71715238Y-126869047D01*
X71691428Y-126940476D01*
X71405714Y-127226190D01*
X71715238Y-127226190D01*
X67984761Y-127083333D02*
X68222857Y-127083333D01*
X67937142Y-127226190D02*
X68103809Y-126726190D01*
X68270476Y-127226190D01*
X68699047Y-127226190D02*
X68413333Y-127226190D01*
X68556190Y-127226190D02*
X68556190Y-126726190D01*
X68508571Y-126797619D01*
X68460952Y-126845238D01*
X68413333Y-126869047D01*
X69127619Y-126892857D02*
X69127619Y-127226190D01*
X69008571Y-126702380D02*
X68889523Y-127059523D01*
X69199047Y-127059523D01*
X83450952Y-118336190D02*
X83450952Y-117836190D01*
X83570000Y-117836190D01*
X83641428Y-117860000D01*
X83689047Y-117907619D01*
X83712857Y-117955238D01*
X83736666Y-118050476D01*
X83736666Y-118121904D01*
X83712857Y-118217142D01*
X83689047Y-118264761D01*
X83641428Y-118312380D01*
X83570000Y-118336190D01*
X83450952Y-118336190D01*
X84212857Y-118336190D02*
X83927142Y-118336190D01*
X84070000Y-118336190D02*
X84070000Y-117836190D01*
X84022380Y-117907619D01*
X83974761Y-117955238D01*
X83927142Y-117979047D01*
X80910952Y-118336190D02*
X80910952Y-117836190D01*
X81030000Y-117836190D01*
X81101428Y-117860000D01*
X81149047Y-117907619D01*
X81172857Y-117955238D01*
X81196666Y-118050476D01*
X81196666Y-118121904D01*
X81172857Y-118217142D01*
X81149047Y-118264761D01*
X81101428Y-118312380D01*
X81030000Y-118336190D01*
X80910952Y-118336190D01*
X81506190Y-117836190D02*
X81553809Y-117836190D01*
X81601428Y-117860000D01*
X81625238Y-117883809D01*
X81649047Y-117931428D01*
X81672857Y-118026666D01*
X81672857Y-118145714D01*
X81649047Y-118240952D01*
X81625238Y-118288571D01*
X81601428Y-118312380D01*
X81553809Y-118336190D01*
X81506190Y-118336190D01*
X81458571Y-118312380D01*
X81434761Y-118288571D01*
X81410952Y-118240952D01*
X81387142Y-118145714D01*
X81387142Y-118026666D01*
X81410952Y-117931428D01*
X81434761Y-117883809D01*
X81458571Y-117860000D01*
X81506190Y-117836190D01*
X136505238Y-118336190D02*
X136505238Y-117836190D01*
X136790952Y-118336190D01*
X136790952Y-117836190D01*
X137386190Y-117812380D02*
X136957619Y-118455238D01*
X137838571Y-118288571D02*
X137814761Y-118312380D01*
X137743333Y-118336190D01*
X137695714Y-118336190D01*
X137624285Y-118312380D01*
X137576666Y-118264761D01*
X137552857Y-118217142D01*
X137529047Y-118121904D01*
X137529047Y-118050476D01*
X137552857Y-117955238D01*
X137576666Y-117907619D01*
X137624285Y-117860000D01*
X137695714Y-117836190D01*
X137743333Y-117836190D01*
X137814761Y-117860000D01*
X137838571Y-117883809D01*
X73290952Y-118336190D02*
X73290952Y-117836190D01*
X73410000Y-117836190D01*
X73481428Y-117860000D01*
X73529047Y-117907619D01*
X73552857Y-117955238D01*
X73576666Y-118050476D01*
X73576666Y-118121904D01*
X73552857Y-118217142D01*
X73529047Y-118264761D01*
X73481428Y-118312380D01*
X73410000Y-118336190D01*
X73290952Y-118336190D01*
X73743333Y-117836190D02*
X74076666Y-117836190D01*
X73862380Y-118336190D01*
X70524761Y-118193333D02*
X70762857Y-118193333D01*
X70477142Y-118336190D02*
X70643809Y-117836190D01*
X70810476Y-118336190D01*
X71239047Y-118336190D02*
X70953333Y-118336190D01*
X71096190Y-118336190D02*
X71096190Y-117836190D01*
X71048571Y-117907619D01*
X71000952Y-117955238D01*
X70953333Y-117979047D01*
X71405714Y-117836190D02*
X71715238Y-117836190D01*
X71548571Y-118026666D01*
X71620000Y-118026666D01*
X71667619Y-118050476D01*
X71691428Y-118074285D01*
X71715238Y-118121904D01*
X71715238Y-118240952D01*
X71691428Y-118288571D01*
X71667619Y-118312380D01*
X71620000Y-118336190D01*
X71477142Y-118336190D01*
X71429523Y-118312380D01*
X71405714Y-118288571D01*
X67984761Y-118193333D02*
X68222857Y-118193333D01*
X67937142Y-118336190D02*
X68103809Y-117836190D01*
X68270476Y-118336190D01*
X68699047Y-118336190D02*
X68413333Y-118336190D01*
X68556190Y-118336190D02*
X68556190Y-117836190D01*
X68508571Y-117907619D01*
X68460952Y-117955238D01*
X68413333Y-117979047D01*
X69151428Y-117836190D02*
X68913333Y-117836190D01*
X68889523Y-118074285D01*
X68913333Y-118050476D01*
X68960952Y-118026666D01*
X69080000Y-118026666D01*
X69127619Y-118050476D01*
X69151428Y-118074285D01*
X69175238Y-118121904D01*
X69175238Y-118240952D01*
X69151428Y-118288571D01*
X69127619Y-118312380D01*
X69080000Y-118336190D01*
X68960952Y-118336190D01*
X68913333Y-118312380D01*
X68889523Y-118288571D01*
%TO.C,U1*%
D12*
X108204095Y-112563380D02*
X108204095Y-113372904D01*
X108251714Y-113468142D01*
X108299333Y-113515761D01*
X108394571Y-113563380D01*
X108585047Y-113563380D01*
X108680285Y-113515761D01*
X108727904Y-113468142D01*
X108775523Y-113372904D01*
X108775523Y-112563380D01*
X109775523Y-113563380D02*
X109204095Y-113563380D01*
X109489809Y-113563380D02*
X109489809Y-112563380D01*
X109394571Y-112706238D01*
X109299333Y-112801476D01*
X109204095Y-112849095D01*
%TO.C,U3*%
X85090095Y-114371380D02*
X85090095Y-115180904D01*
X85137714Y-115276142D01*
X85185333Y-115323761D01*
X85280571Y-115371380D01*
X85471047Y-115371380D01*
X85566285Y-115323761D01*
X85613904Y-115276142D01*
X85661523Y-115180904D01*
X85661523Y-114371380D01*
X86042476Y-114371380D02*
X86661523Y-114371380D01*
X86328190Y-114752333D01*
X86471047Y-114752333D01*
X86566285Y-114799952D01*
X86613904Y-114847571D01*
X86661523Y-114942809D01*
X86661523Y-115180904D01*
X86613904Y-115276142D01*
X86566285Y-115323761D01*
X86471047Y-115371380D01*
X86185333Y-115371380D01*
X86090095Y-115323761D01*
X86042476Y-115276142D01*
%TO.C,J1*%
X78152666Y-101985380D02*
X78152666Y-102699666D01*
X78105047Y-102842523D01*
X78009809Y-102937761D01*
X77866952Y-102985380D01*
X77771714Y-102985380D01*
X79152666Y-102985380D02*
X78581238Y-102985380D01*
X78866952Y-102985380D02*
X78866952Y-101985380D01*
X78771714Y-102128238D01*
X78676476Y-102223476D01*
X78581238Y-102271095D01*
X76224095Y-89705380D02*
X76224095Y-90419666D01*
X76176476Y-90562523D01*
X76081238Y-90657761D01*
X75938380Y-90705380D01*
X75843142Y-90705380D01*
X76557428Y-89705380D02*
X77128857Y-89705380D01*
X76843142Y-90705380D02*
X76843142Y-89705380D01*
X77414571Y-90419666D02*
X77890761Y-90419666D01*
X77319333Y-90705380D02*
X77652666Y-89705380D01*
X77986000Y-90705380D01*
X78843142Y-89753000D02*
X78747904Y-89705380D01*
X78605047Y-89705380D01*
X78462190Y-89753000D01*
X78366952Y-89848238D01*
X78319333Y-89943476D01*
X78271714Y-90133952D01*
X78271714Y-90276809D01*
X78319333Y-90467285D01*
X78366952Y-90562523D01*
X78462190Y-90657761D01*
X78605047Y-90705380D01*
X78700285Y-90705380D01*
X78843142Y-90657761D01*
X78890761Y-90610142D01*
X78890761Y-90276809D01*
X78700285Y-90276809D01*
X79319333Y-90324428D02*
X80081238Y-90324428D01*
X80986000Y-89705380D02*
X80795523Y-89705380D01*
X80700285Y-89753000D01*
X80652666Y-89800619D01*
X80557428Y-89943476D01*
X80509809Y-90133952D01*
X80509809Y-90514904D01*
X80557428Y-90610142D01*
X80605047Y-90657761D01*
X80700285Y-90705380D01*
X80890761Y-90705380D01*
X80986000Y-90657761D01*
X81033619Y-90610142D01*
X81081238Y-90514904D01*
X81081238Y-90276809D01*
X81033619Y-90181571D01*
X80986000Y-90133952D01*
X80890761Y-90086333D01*
X80700285Y-90086333D01*
X80605047Y-90133952D01*
X80557428Y-90181571D01*
X80509809Y-90276809D01*
%TO.C,J6*%
X105199380Y-95075333D02*
X105913666Y-95075333D01*
X106056523Y-95122952D01*
X106151761Y-95218190D01*
X106199380Y-95361047D01*
X106199380Y-95456285D01*
X105199380Y-94170571D02*
X105199380Y-94361047D01*
X105247000Y-94456285D01*
X105294619Y-94503904D01*
X105437476Y-94599142D01*
X105627952Y-94646761D01*
X106008904Y-94646761D01*
X106104142Y-94599142D01*
X106151761Y-94551523D01*
X106199380Y-94456285D01*
X106199380Y-94265809D01*
X106151761Y-94170571D01*
X106104142Y-94122952D01*
X106008904Y-94075333D01*
X105770809Y-94075333D01*
X105675571Y-94122952D01*
X105627952Y-94170571D01*
X105580333Y-94265809D01*
X105580333Y-94456285D01*
X105627952Y-94551523D01*
X105675571Y-94599142D01*
X105770809Y-94646761D01*
%TO.C,U2*%
X64135095Y-97467380D02*
X64135095Y-98276904D01*
X64182714Y-98372142D01*
X64230333Y-98419761D01*
X64325571Y-98467380D01*
X64516047Y-98467380D01*
X64611285Y-98419761D01*
X64658904Y-98372142D01*
X64706523Y-98276904D01*
X64706523Y-97467380D01*
X65135095Y-97562619D02*
X65182714Y-97515000D01*
X65277952Y-97467380D01*
X65516047Y-97467380D01*
X65611285Y-97515000D01*
X65658904Y-97562619D01*
X65706523Y-97657857D01*
X65706523Y-97753095D01*
X65658904Y-97895952D01*
X65087476Y-98467380D01*
X65706523Y-98467380D01*
%TO.C,U5*%
X59798380Y-125475904D02*
X60607904Y-125475904D01*
X60703142Y-125428285D01*
X60750761Y-125380666D01*
X60798380Y-125285428D01*
X60798380Y-125094952D01*
X60750761Y-124999714D01*
X60703142Y-124952095D01*
X60607904Y-124904476D01*
X59798380Y-124904476D01*
X59798380Y-123952095D02*
X59798380Y-124428285D01*
X60274571Y-124475904D01*
X60226952Y-124428285D01*
X60179333Y-124333047D01*
X60179333Y-124094952D01*
X60226952Y-123999714D01*
X60274571Y-123952095D01*
X60369809Y-123904476D01*
X60607904Y-123904476D01*
X60703142Y-123952095D01*
X60750761Y-123999714D01*
X60798380Y-124094952D01*
X60798380Y-124333047D01*
X60750761Y-124428285D01*
X60703142Y-124475904D01*
%TO.C,U6*%
X94361095Y-108966380D02*
X94361095Y-109775904D01*
X94408714Y-109871142D01*
X94456333Y-109918761D01*
X94551571Y-109966380D01*
X94742047Y-109966380D01*
X94837285Y-109918761D01*
X94884904Y-109871142D01*
X94932523Y-109775904D01*
X94932523Y-108966380D01*
X95837285Y-108966380D02*
X95646809Y-108966380D01*
X95551571Y-109014000D01*
X95503952Y-109061619D01*
X95408714Y-109204476D01*
X95361095Y-109394952D01*
X95361095Y-109775904D01*
X95408714Y-109871142D01*
X95456333Y-109918761D01*
X95551571Y-109966380D01*
X95742047Y-109966380D01*
X95837285Y-109918761D01*
X95884904Y-109871142D01*
X95932523Y-109775904D01*
X95932523Y-109537809D01*
X95884904Y-109442571D01*
X95837285Y-109394952D01*
X95742047Y-109347333D01*
X95551571Y-109347333D01*
X95456333Y-109394952D01*
X95408714Y-109442571D01*
X95361095Y-109537809D01*
%TO.C,X1*%
X114367380Y-109140523D02*
X115367380Y-108473857D01*
X114367380Y-108473857D02*
X115367380Y-109140523D01*
X115367380Y-107569095D02*
X115367380Y-108140523D01*
X115367380Y-107854809D02*
X114367380Y-107854809D01*
X114510238Y-107950047D01*
X114605476Y-108045285D01*
X114653095Y-108140523D01*
%TD*%
M02*
