%FSLAX45Y45*%
G04 Gerber Fmt 4.5, Leading zero omitted, Abs format (unit mm)*
G04 Created by KiCad (PCBNEW (5.1.5)-3) date 2020-10-02 02:33:29*
%MOMM*%
%LPD*%
G04 APERTURE LIST*
%ADD10C,0.200000*%
%ADD11C,0.300000*%
G04 APERTURE END LIST*
D10*
X11971300Y-11437900D02*
X12006300Y-11472900D01*
X12006300Y-11437900D02*
X11971300Y-11472900D01*
X12047500Y-12034800D02*
X12082500Y-12069800D01*
X12082500Y-12034800D02*
X12047500Y-12069800D01*
X12238000Y-11730000D02*
X12273000Y-11765000D01*
X12273000Y-11730000D02*
X12238000Y-11765000D01*
X13127000Y-13520700D02*
X13162000Y-13555700D01*
X13162000Y-13520700D02*
X13127000Y-13555700D01*
X13393700Y-12720600D02*
X13428700Y-12755600D01*
X13428700Y-12720600D02*
X13393700Y-12755600D01*
X13457200Y-13838200D02*
X13492200Y-13873200D01*
X13492200Y-13838200D02*
X13457200Y-13873200D01*
X13584200Y-11031500D02*
X13619200Y-11066500D01*
X13619200Y-11031500D02*
X13584200Y-11066500D01*
X13647700Y-10053600D02*
X13682700Y-10088600D01*
X13682700Y-10053600D02*
X13647700Y-10088600D01*
X13647700Y-13063500D02*
X13682700Y-13098500D01*
X13682700Y-13063500D02*
X13647700Y-13098500D01*
X13698500Y-8974100D02*
X13733500Y-9009100D01*
X13733500Y-8974100D02*
X13698500Y-9009100D01*
X13711200Y-9710700D02*
X13746200Y-9745700D01*
X13746200Y-9710700D02*
X13711200Y-9745700D01*
X13774700Y-9494800D02*
X13809700Y-9529800D01*
X13809700Y-9494800D02*
X13774700Y-9529800D01*
X13850900Y-10777500D02*
X13885900Y-10812500D01*
X13885900Y-10777500D02*
X13850900Y-10812500D01*
X13850900Y-12682500D02*
X13885900Y-12717500D01*
X13885900Y-12682500D02*
X13850900Y-12717500D01*
X13914400Y-11285500D02*
X13949400Y-11320500D01*
X13949400Y-11285500D02*
X13914400Y-11320500D01*
X13914400Y-12682500D02*
X13949400Y-12717500D01*
X13949400Y-12682500D02*
X13914400Y-12717500D01*
X13977900Y-11539500D02*
X14012900Y-11574500D01*
X14012900Y-11539500D02*
X13977900Y-11574500D01*
X13977900Y-12682500D02*
X14012900Y-12717500D01*
X14012900Y-12682500D02*
X13977900Y-12717500D01*
X14041400Y-12047500D02*
X14076400Y-12082500D01*
X14076400Y-12047500D02*
X14041400Y-12082500D01*
X14041400Y-12682500D02*
X14076400Y-12717500D01*
X14076400Y-12682500D02*
X14041400Y-12717500D01*
X14104900Y-11920500D02*
X14139900Y-11955500D01*
X14139900Y-11920500D02*
X14104900Y-11955500D01*
X14104900Y-12682500D02*
X14139900Y-12717500D01*
X14139900Y-12682500D02*
X14104900Y-12717500D01*
X14168400Y-11666500D02*
X14203400Y-11701500D01*
X14203400Y-11666500D02*
X14168400Y-11701500D01*
X14168400Y-12682500D02*
X14203400Y-12717500D01*
X14203400Y-12682500D02*
X14168400Y-12717500D01*
X14231900Y-11412500D02*
X14266900Y-11447500D01*
X14266900Y-11412500D02*
X14231900Y-11447500D01*
X14231900Y-12682500D02*
X14266900Y-12717500D01*
X14266900Y-12682500D02*
X14231900Y-12717500D01*
X14295400Y-11158500D02*
X14330400Y-11193500D01*
X14330400Y-11158500D02*
X14295400Y-11193500D01*
X14295400Y-12682500D02*
X14330400Y-12717500D01*
X14330400Y-12682500D02*
X14295400Y-12717500D01*
X14358900Y-10891800D02*
X14393900Y-10926800D01*
X14393900Y-10891800D02*
X14358900Y-10926800D01*
X14358900Y-12682500D02*
X14393900Y-12717500D01*
X14393900Y-12682500D02*
X14358900Y-12717500D01*
X14422400Y-12682500D02*
X14457400Y-12717500D01*
X14457400Y-12682500D02*
X14422400Y-12717500D01*
X14485900Y-12682500D02*
X14520900Y-12717500D01*
X14520900Y-12682500D02*
X14485900Y-12717500D01*
X14562100Y-10091700D02*
X14597100Y-10126700D01*
X14597100Y-10091700D02*
X14562100Y-10126700D01*
X14638300Y-9012200D02*
X14673300Y-9047200D01*
X14673300Y-9012200D02*
X14638300Y-9047200D01*
X14638300Y-10015500D02*
X14673300Y-10050500D01*
X14673300Y-10015500D02*
X14638300Y-10050500D01*
X14714500Y-12174500D02*
X14749500Y-12209500D01*
X14749500Y-12174500D02*
X14714500Y-12209500D01*
X14727200Y-9126500D02*
X14762200Y-9161500D01*
X14762200Y-9126500D02*
X14727200Y-9161500D01*
X14739900Y-11247400D02*
X14774900Y-11282400D01*
X14774900Y-11247400D02*
X14739900Y-11282400D01*
X14765300Y-13228600D02*
X14800300Y-13263600D01*
X14800300Y-13228600D02*
X14765300Y-13263600D01*
X14854200Y-9571000D02*
X14889200Y-9606000D01*
X14889200Y-9571000D02*
X14854200Y-9606000D01*
X14866900Y-9825000D02*
X14901900Y-9860000D01*
X14901900Y-9825000D02*
X14866900Y-9860000D01*
X14866900Y-9952000D02*
X14901900Y-9987000D01*
X14901900Y-9952000D02*
X14866900Y-9987000D01*
X14879600Y-9190000D02*
X14914600Y-9225000D01*
X14914600Y-9190000D02*
X14879600Y-9225000D01*
X14879600Y-9698000D02*
X14914600Y-9733000D01*
X14914600Y-9698000D02*
X14879600Y-9733000D01*
X14879600Y-10993400D02*
X14914600Y-11028400D01*
X14914600Y-10993400D02*
X14879600Y-11028400D01*
X14892300Y-9317000D02*
X14927300Y-9352000D01*
X14927300Y-9317000D02*
X14892300Y-9352000D01*
X14892300Y-9444000D02*
X14927300Y-9479000D01*
X14927300Y-9444000D02*
X14892300Y-9479000D01*
X14892300Y-10269500D02*
X14927300Y-10304500D01*
X14927300Y-10269500D02*
X14892300Y-10304500D01*
X14917700Y-11349000D02*
X14952700Y-11384000D01*
X14952700Y-11349000D02*
X14917700Y-11384000D01*
X14917700Y-11476000D02*
X14952700Y-11511000D01*
X14952700Y-11476000D02*
X14917700Y-11511000D01*
X14968500Y-13342900D02*
X15003500Y-13377900D01*
X15003500Y-13342900D02*
X14968500Y-13377900D01*
X15070100Y-8999500D02*
X15105100Y-9034500D01*
X15105100Y-8999500D02*
X15070100Y-9034500D01*
X15171700Y-8707400D02*
X15206700Y-8742400D01*
X15206700Y-8707400D02*
X15171700Y-8742400D01*
X15222500Y-13444500D02*
X15257500Y-13479500D01*
X15257500Y-13444500D02*
X15222500Y-13479500D01*
X15311400Y-12415800D02*
X15346400Y-12450800D01*
X15346400Y-12415800D02*
X15311400Y-12450800D01*
X15387600Y-12898400D02*
X15422600Y-12933400D01*
X15422600Y-12898400D02*
X15387600Y-12933400D01*
X15463800Y-13546100D02*
X15498800Y-13581100D01*
X15498800Y-13546100D02*
X15463800Y-13581100D01*
X15514600Y-12288800D02*
X15549600Y-12323800D01*
X15549600Y-12288800D02*
X15514600Y-12323800D01*
X15540000Y-8796300D02*
X15575000Y-8831300D01*
X15575000Y-8796300D02*
X15540000Y-8831300D01*
X15590800Y-11006100D02*
X15625800Y-11041100D01*
X15625800Y-11006100D02*
X15590800Y-11041100D01*
X15625000Y-8795284D02*
X15660000Y-8830284D01*
X15660000Y-8795284D02*
X15625000Y-8830284D01*
X15641600Y-9456700D02*
X15676600Y-9491700D01*
X15676600Y-9456700D02*
X15641600Y-9491700D01*
X15679700Y-9647200D02*
X15714700Y-9682200D01*
X15714700Y-9647200D02*
X15679700Y-9682200D01*
X15692400Y-9304300D02*
X15727400Y-9339300D01*
X15727400Y-9304300D02*
X15692400Y-9339300D01*
X15730500Y-10218700D02*
X15765500Y-10253700D01*
X15765500Y-10218700D02*
X15730500Y-10253700D01*
X15755900Y-13152400D02*
X15790900Y-13187400D01*
X15790900Y-13152400D02*
X15755900Y-13187400D01*
X15794000Y-8770900D02*
X15829000Y-8805900D01*
X15829000Y-8770900D02*
X15794000Y-8805900D01*
X15794000Y-9977400D02*
X15829000Y-10012400D01*
X15829000Y-9977400D02*
X15794000Y-10012400D01*
X15844800Y-11653800D02*
X15879800Y-11688800D01*
X15879800Y-11653800D02*
X15844800Y-11688800D01*
X15933700Y-9456700D02*
X15968700Y-9491700D01*
X15968700Y-9456700D02*
X15933700Y-9491700D01*
X16009900Y-9304300D02*
X16044900Y-9339300D01*
X16044900Y-9304300D02*
X16009900Y-9339300D01*
X16022600Y-8745500D02*
X16057600Y-8780500D01*
X16057600Y-8745500D02*
X16022600Y-8780500D01*
X16048000Y-9545600D02*
X16083000Y-9580600D01*
X16083000Y-9545600D02*
X16048000Y-9580600D01*
X16060700Y-10218700D02*
X16095700Y-10253700D01*
X16095700Y-10218700D02*
X16060700Y-10253700D01*
X16060700Y-10421900D02*
X16095700Y-10456900D01*
X16095700Y-10421900D02*
X16060700Y-10456900D01*
X16060700Y-10790200D02*
X16095700Y-10825200D01*
X16095700Y-10790200D02*
X16060700Y-10825200D01*
X16175000Y-12212600D02*
X16210000Y-12247600D01*
X16210000Y-12212600D02*
X16175000Y-12247600D01*
X16187700Y-9977400D02*
X16222700Y-10012400D01*
X16222700Y-9977400D02*
X16187700Y-10012400D01*
X16190700Y-10888800D02*
X16225700Y-10923800D01*
X16225700Y-10888800D02*
X16190700Y-10923800D01*
X16213100Y-10472700D02*
X16248100Y-10507700D01*
X16248100Y-10472700D02*
X16213100Y-10507700D01*
X16276600Y-12263400D02*
X16311600Y-12298400D01*
X16311600Y-12263400D02*
X16276600Y-12298400D01*
X16352800Y-8872500D02*
X16387800Y-8907500D01*
X16387800Y-8872500D02*
X16352800Y-8907500D01*
X16352800Y-12720600D02*
X16387800Y-12755600D01*
X16387800Y-12720600D02*
X16352800Y-12755600D01*
X16441700Y-12720600D02*
X16476700Y-12755600D01*
X16476700Y-12720600D02*
X16441700Y-12755600D01*
X16530600Y-12720600D02*
X16565600Y-12755600D01*
X16565600Y-12720600D02*
X16530600Y-12755600D01*
X16619500Y-12720600D02*
X16654500Y-12755600D01*
X16654500Y-12720600D02*
X16619500Y-12755600D01*
X11450000Y-12776200D02*
G75*
G03X11450000Y-12776200I-20000J0D01*
G01*
X11450000Y-12979400D02*
G75*
G03X11450000Y-12979400I-20000J0D01*
G01*
X11450000Y-13952353D02*
G75*
G03X11450000Y-13952353I-20000J0D01*
G01*
X11577000Y-12115800D02*
G75*
G03X11577000Y-12115800I-20000J0D01*
G01*
X11996100Y-13182600D02*
G75*
G03X11996100Y-13182600I-20000J0D01*
G01*
X12085000Y-13970000D02*
G75*
G03X12085000Y-13970000I-20000J0D01*
G01*
X12237400Y-12661900D02*
G75*
G03X12237400Y-12661900I-20000J0D01*
G01*
X12313600Y-13525500D02*
G75*
G03X12313600Y-13525500I-20000J0D01*
G01*
X12504100Y-13004800D02*
G75*
G03X12504100Y-13004800I-20000J0D01*
G01*
X12529500Y-13957300D02*
G75*
G03X12529500Y-13957300I-20000J0D01*
G01*
X13570900Y-13322300D02*
G75*
G03X13570900Y-13322300I-20000J0D01*
G01*
X14053500Y-13843000D02*
G75*
G03X14053500Y-13843000I-20000J0D01*
G01*
X14231300Y-14033500D02*
G75*
G03X14231300Y-14033500I-20000J0D01*
G01*
X15450500Y-9271000D02*
G75*
G03X15450500Y-9271000I-20000J0D01*
G01*
X15450500Y-9525000D02*
G75*
G03X15450500Y-9525000I-20000J0D01*
G01*
X15450500Y-10033000D02*
G75*
G03X15450500Y-10033000I-20000J0D01*
G01*
X15450500Y-10795000D02*
G75*
G03X15450500Y-10795000I-20000J0D01*
G01*
X15450500Y-11303000D02*
G75*
G03X15450500Y-11303000I-20000J0D01*
G01*
X15450500Y-11557000D02*
G75*
G03X15450500Y-11557000I-20000J0D01*
G01*
X15450500Y-11811000D02*
G75*
G03X15450500Y-11811000I-20000J0D01*
G01*
X15450500Y-12065000D02*
G75*
G03X15450500Y-12065000I-20000J0D01*
G01*
X15463200Y-9017000D02*
G75*
G03X15463200Y-9017000I-20000J0D01*
G01*
X15539400Y-9779000D02*
G75*
G03X15539400Y-9779000I-20000J0D01*
G01*
X15577500Y-10160000D02*
G75*
G03X15577500Y-10160000I-20000J0D01*
G01*
X15641000Y-10045700D02*
G75*
G03X15641000Y-10045700I-20000J0D01*
G01*
X15666400Y-10325100D02*
G75*
G03X15666400Y-10325100I-20000J0D01*
G01*
X15856900Y-12192000D02*
G75*
G03X15856900Y-12192000I-20000J0D01*
G01*
X16834800Y-14033500D02*
G75*
G03X16834800Y-14033500I-20000J0D01*
G01*
X17038000Y-10541000D02*
G75*
G03X17038000Y-10541000I-20000J0D01*
G01*
X17038000Y-13970000D02*
G75*
G03X17038000Y-13970000I-20000J0D01*
G01*
X17043329Y-12808971D02*
G75*
G03X17043329Y-12808971I-20000J0D01*
G01*
X13462000Y-8281000D02*
X13462000Y-8356000D01*
X13424500Y-8318500D02*
X13499500Y-8318500D01*
X13462000Y-9043000D02*
X13462000Y-9118000D01*
X13424500Y-9080500D02*
X13499500Y-9080500D01*
X11839284Y-12605284D02*
X11839284Y-12548715D01*
X11782715Y-12548715D01*
X11782715Y-12605284D01*
X11839284Y-12605284D01*
X11839284Y-12855284D02*
X11839284Y-12798715D01*
X11782715Y-12798715D01*
X11782715Y-12855284D01*
X11839284Y-12855284D01*
X15331784Y-8918285D02*
X15331784Y-8861716D01*
X15275215Y-8861716D01*
X15275215Y-8918285D01*
X15331784Y-8918285D01*
X15331784Y-9172285D02*
X15331784Y-9115716D01*
X15275215Y-9115716D01*
X15275215Y-9172285D01*
X15331784Y-9172285D01*
X15331784Y-9426285D02*
X15331784Y-9369716D01*
X15275215Y-9369716D01*
X15275215Y-9426285D01*
X15331784Y-9426285D01*
X15331784Y-9680285D02*
X15331784Y-9623716D01*
X15275215Y-9623716D01*
X15275215Y-9680285D01*
X15331784Y-9680285D01*
X15331784Y-9934285D02*
X15331784Y-9877716D01*
X15275215Y-9877716D01*
X15275215Y-9934285D01*
X15331784Y-9934285D01*
X15331784Y-10188285D02*
X15331784Y-10131716D01*
X15275215Y-10131716D01*
X15275215Y-10188285D01*
X15331784Y-10188285D01*
X15331784Y-10442285D02*
X15331784Y-10385716D01*
X15275215Y-10385716D01*
X15275215Y-10442285D01*
X15331784Y-10442285D01*
X15331784Y-10696285D02*
X15331784Y-10639716D01*
X15275215Y-10639716D01*
X15275215Y-10696285D01*
X15331784Y-10696285D01*
X15331784Y-10950285D02*
X15331784Y-10893716D01*
X15275215Y-10893716D01*
X15275215Y-10950285D01*
X15331784Y-10950285D01*
X15331784Y-11204284D02*
X15331784Y-11147716D01*
X15275215Y-11147716D01*
X15275215Y-11204284D01*
X15331784Y-11204284D01*
X15331784Y-11458284D02*
X15331784Y-11401715D01*
X15275215Y-11401715D01*
X15275215Y-11458284D01*
X15331784Y-11458284D01*
X15331784Y-11712284D02*
X15331784Y-11655715D01*
X15275215Y-11655715D01*
X15275215Y-11712284D01*
X15331784Y-11712284D01*
X16855785Y-8918285D02*
X16855785Y-8861716D01*
X16799216Y-8861716D01*
X16799216Y-8918285D01*
X16855785Y-8918285D01*
X16855785Y-9172285D02*
X16855785Y-9115716D01*
X16799216Y-9115716D01*
X16799216Y-9172285D01*
X16855785Y-9172285D01*
X16855785Y-9426285D02*
X16855785Y-9369716D01*
X16799216Y-9369716D01*
X16799216Y-9426285D01*
X16855785Y-9426285D01*
X16855785Y-9680285D02*
X16855785Y-9623716D01*
X16799216Y-9623716D01*
X16799216Y-9680285D01*
X16855785Y-9680285D01*
X16855785Y-9934285D02*
X16855785Y-9877716D01*
X16799216Y-9877716D01*
X16799216Y-9934285D01*
X16855785Y-9934285D01*
X16855785Y-10188285D02*
X16855785Y-10131716D01*
X16799216Y-10131716D01*
X16799216Y-10188285D01*
X16855785Y-10188285D01*
X16855785Y-10442285D02*
X16855785Y-10385716D01*
X16799216Y-10385716D01*
X16799216Y-10442285D01*
X16855785Y-10442285D01*
X16855785Y-10696285D02*
X16855785Y-10639716D01*
X16799216Y-10639716D01*
X16799216Y-10696285D01*
X16855785Y-10696285D01*
X16855785Y-10950285D02*
X16855785Y-10893716D01*
X16799216Y-10893716D01*
X16799216Y-10950285D01*
X16855785Y-10950285D01*
X16855785Y-11204284D02*
X16855785Y-11147716D01*
X16799216Y-11147716D01*
X16799216Y-11204284D01*
X16855785Y-11204284D01*
X16855785Y-11458284D02*
X16855785Y-11401715D01*
X16799216Y-11401715D01*
X16799216Y-11458284D01*
X16855785Y-11458284D01*
X16855785Y-11712284D02*
X16855785Y-11655715D01*
X16799216Y-11655715D01*
X16799216Y-11712284D01*
X16855785Y-11712284D01*
X15331784Y-8918285D02*
X15331784Y-8861716D01*
X15275215Y-8861716D01*
X15275215Y-8918285D01*
X15331784Y-8918285D01*
X15331784Y-9172285D02*
X15331784Y-9115716D01*
X15275215Y-9115716D01*
X15275215Y-9172285D01*
X15331784Y-9172285D01*
X15331784Y-9426285D02*
X15331784Y-9369716D01*
X15275215Y-9369716D01*
X15275215Y-9426285D01*
X15331784Y-9426285D01*
X15331784Y-9680285D02*
X15331784Y-9623716D01*
X15275215Y-9623716D01*
X15275215Y-9680285D01*
X15331784Y-9680285D01*
X15331784Y-9934285D02*
X15331784Y-9877716D01*
X15275215Y-9877716D01*
X15275215Y-9934285D01*
X15331784Y-9934285D01*
X15331784Y-10188285D02*
X15331784Y-10131716D01*
X15275215Y-10131716D01*
X15275215Y-10188285D01*
X15331784Y-10188285D01*
X15331784Y-10442285D02*
X15331784Y-10385716D01*
X15275215Y-10385716D01*
X15275215Y-10442285D01*
X15331784Y-10442285D01*
X15331784Y-10696285D02*
X15331784Y-10639716D01*
X15275215Y-10639716D01*
X15275215Y-10696285D01*
X15331784Y-10696285D01*
X15331784Y-10950285D02*
X15331784Y-10893716D01*
X15275215Y-10893716D01*
X15275215Y-10950285D01*
X15331784Y-10950285D01*
X15331784Y-11204284D02*
X15331784Y-11147716D01*
X15275215Y-11147716D01*
X15275215Y-11204284D01*
X15331784Y-11204284D01*
X15331784Y-11458284D02*
X15331784Y-11401715D01*
X15275215Y-11401715D01*
X15275215Y-11458284D01*
X15331784Y-11458284D01*
X15331784Y-11712284D02*
X15331784Y-11655715D01*
X15275215Y-11655715D01*
X15275215Y-11712284D01*
X15331784Y-11712284D01*
X15331784Y-11966284D02*
X15331784Y-11909715D01*
X15275215Y-11909715D01*
X15275215Y-11966284D01*
X15331784Y-11966284D01*
X15331784Y-12220284D02*
X15331784Y-12163715D01*
X15275215Y-12163715D01*
X15275215Y-12220284D01*
X15331784Y-12220284D01*
X16855785Y-8918285D02*
X16855785Y-8861716D01*
X16799216Y-8861716D01*
X16799216Y-8918285D01*
X16855785Y-8918285D01*
X16855785Y-9172285D02*
X16855785Y-9115716D01*
X16799216Y-9115716D01*
X16799216Y-9172285D01*
X16855785Y-9172285D01*
X16855785Y-9426285D02*
X16855785Y-9369716D01*
X16799216Y-9369716D01*
X16799216Y-9426285D01*
X16855785Y-9426285D01*
X16855785Y-9680285D02*
X16855785Y-9623716D01*
X16799216Y-9623716D01*
X16799216Y-9680285D01*
X16855785Y-9680285D01*
X16855785Y-9934285D02*
X16855785Y-9877716D01*
X16799216Y-9877716D01*
X16799216Y-9934285D01*
X16855785Y-9934285D01*
X16855785Y-10188285D02*
X16855785Y-10131716D01*
X16799216Y-10131716D01*
X16799216Y-10188285D01*
X16855785Y-10188285D01*
X16855785Y-10442285D02*
X16855785Y-10385716D01*
X16799216Y-10385716D01*
X16799216Y-10442285D01*
X16855785Y-10442285D01*
X16855785Y-10696285D02*
X16855785Y-10639716D01*
X16799216Y-10639716D01*
X16799216Y-10696285D01*
X16855785Y-10696285D01*
X16855785Y-10950285D02*
X16855785Y-10893716D01*
X16799216Y-10893716D01*
X16799216Y-10950285D01*
X16855785Y-10950285D01*
X16855785Y-11204284D02*
X16855785Y-11147716D01*
X16799216Y-11147716D01*
X16799216Y-11204284D01*
X16855785Y-11204284D01*
X16855785Y-11458284D02*
X16855785Y-11401715D01*
X16799216Y-11401715D01*
X16799216Y-11458284D01*
X16855785Y-11458284D01*
X16855785Y-11712284D02*
X16855785Y-11655715D01*
X16799216Y-11655715D01*
X16799216Y-11712284D01*
X16855785Y-11712284D01*
X16855785Y-11966284D02*
X16855785Y-11909715D01*
X16799216Y-11909715D01*
X16799216Y-11966284D01*
X16855785Y-11966284D01*
X16855785Y-12220284D02*
X16855785Y-12163715D01*
X16799216Y-12163715D01*
X16799216Y-12220284D01*
X16855785Y-12220284D01*
X11839284Y-9426285D02*
X11839284Y-9369716D01*
X11782715Y-9369716D01*
X11782715Y-9426285D01*
X11839284Y-9426285D01*
X11839284Y-9680285D02*
X11839284Y-9623716D01*
X11782715Y-9623716D01*
X11782715Y-9680285D01*
X11839284Y-9680285D01*
X11839284Y-9934285D02*
X11839284Y-9877716D01*
X11782715Y-9877716D01*
X11782715Y-9934285D01*
X11839284Y-9934285D01*
X11839284Y-10188285D02*
X11839284Y-10131716D01*
X11782715Y-10131716D01*
X11782715Y-10188285D01*
X11839284Y-10188285D01*
X11839284Y-10442285D02*
X11839284Y-10385716D01*
X11782715Y-10385716D01*
X11782715Y-10442285D01*
X11839284Y-10442285D01*
X11839284Y-10696285D02*
X11839284Y-10639716D01*
X11782715Y-10639716D01*
X11782715Y-10696285D01*
X11839284Y-10696285D01*
X11839284Y-10950285D02*
X11839284Y-10893716D01*
X11782715Y-10893716D01*
X11782715Y-10950285D01*
X11839284Y-10950285D01*
X11839284Y-11204284D02*
X11839284Y-11147716D01*
X11782715Y-11147716D01*
X11782715Y-11204284D01*
X11839284Y-11204284D01*
X11839284Y-11458284D02*
X11839284Y-11401715D01*
X11782715Y-11401715D01*
X11782715Y-11458284D01*
X11839284Y-11458284D01*
X11839284Y-11712284D02*
X11839284Y-11655715D01*
X11782715Y-11655715D01*
X11782715Y-11712284D01*
X11839284Y-11712284D01*
X11839284Y-11966284D02*
X11839284Y-11909715D01*
X11782715Y-11909715D01*
X11782715Y-11966284D01*
X11839284Y-11966284D01*
X11839284Y-12220284D02*
X11839284Y-12163715D01*
X11782715Y-12163715D01*
X11782715Y-12220284D01*
X11839284Y-12220284D01*
X13363284Y-9426285D02*
X13363284Y-9369716D01*
X13306715Y-9369716D01*
X13306715Y-9426285D01*
X13363284Y-9426285D01*
X13363284Y-9680285D02*
X13363284Y-9623716D01*
X13306715Y-9623716D01*
X13306715Y-9680285D01*
X13363284Y-9680285D01*
X13363284Y-9934285D02*
X13363284Y-9877716D01*
X13306715Y-9877716D01*
X13306715Y-9934285D01*
X13363284Y-9934285D01*
X13363284Y-10188285D02*
X13363284Y-10131716D01*
X13306715Y-10131716D01*
X13306715Y-10188285D01*
X13363284Y-10188285D01*
X13363284Y-10442285D02*
X13363284Y-10385716D01*
X13306715Y-10385716D01*
X13306715Y-10442285D01*
X13363284Y-10442285D01*
X13363284Y-10696285D02*
X13363284Y-10639716D01*
X13306715Y-10639716D01*
X13306715Y-10696285D01*
X13363284Y-10696285D01*
X13363284Y-10950285D02*
X13363284Y-10893716D01*
X13306715Y-10893716D01*
X13306715Y-10950285D01*
X13363284Y-10950285D01*
X13363284Y-11204284D02*
X13363284Y-11147716D01*
X13306715Y-11147716D01*
X13306715Y-11204284D01*
X13363284Y-11204284D01*
X13363284Y-11458284D02*
X13363284Y-11401715D01*
X13306715Y-11401715D01*
X13306715Y-11458284D01*
X13363284Y-11458284D01*
X13363284Y-11712284D02*
X13363284Y-11655715D01*
X13306715Y-11655715D01*
X13306715Y-11712284D01*
X13363284Y-11712284D01*
X13363284Y-11966284D02*
X13363284Y-11909715D01*
X13306715Y-11909715D01*
X13306715Y-11966284D01*
X13363284Y-11966284D01*
X13363284Y-12220284D02*
X13363284Y-12163715D01*
X13306715Y-12163715D01*
X13306715Y-12220284D01*
X13363284Y-12220284D01*
X14188784Y-8287284D02*
X14188784Y-8230715D01*
X14132215Y-8230715D01*
X14132215Y-8287284D01*
X14188784Y-8287284D01*
X14188784Y-8537285D02*
X14188784Y-8480716D01*
X14132215Y-8480716D01*
X14132215Y-8537285D01*
X14188784Y-8537285D01*
X14188784Y-8981785D02*
X14188784Y-8925216D01*
X14132215Y-8925216D01*
X14132215Y-8981785D01*
X14188784Y-8981785D01*
X14188784Y-9231785D02*
X14188784Y-9175216D01*
X14132215Y-9175216D01*
X14132215Y-9231785D01*
X14188784Y-9231785D01*
X15303500Y-8559000D02*
X15353500Y-8509000D01*
X15303500Y-8459000D01*
X15253500Y-8509000D01*
X15303500Y-8559000D01*
X15557500Y-8559000D02*
X15607500Y-8509000D01*
X15557500Y-8459000D01*
X15507500Y-8509000D01*
X15557500Y-8559000D01*
X15811500Y-8559000D02*
X15861500Y-8509000D01*
X15811500Y-8459000D01*
X15761500Y-8509000D01*
X15811500Y-8559000D01*
X16065500Y-8559000D02*
X16115500Y-8509000D01*
X16065500Y-8459000D01*
X16015500Y-8509000D01*
X16065500Y-8559000D01*
X11819500Y-8517500D02*
X11929500Y-8627500D01*
X11929500Y-8517500D02*
X11819500Y-8627500D01*
X11929500Y-8572500D02*
G75*
G03X11929500Y-8572500I-55000J0D01*
G01*
X11819500Y-8967500D02*
X11929500Y-9077500D01*
X11929500Y-8967500D02*
X11819500Y-9077500D01*
X11929500Y-9022500D02*
G75*
G03X11929500Y-9022500I-55000J0D01*
G01*
X12469500Y-8517500D02*
X12579500Y-8627500D01*
X12579500Y-8517500D02*
X12469500Y-8627500D01*
X12579500Y-8572500D02*
G75*
G03X12579500Y-8572500I-55000J0D01*
G01*
X12469500Y-8967500D02*
X12579500Y-9077500D01*
X12579500Y-8967500D02*
X12469500Y-9077500D01*
X12579500Y-9022500D02*
G75*
G03X12579500Y-9022500I-55000J0D01*
G01*
D11*
X11613558Y-15294234D02*
X11613558Y-14994234D01*
X11684987Y-14994234D01*
X11727844Y-15008520D01*
X11756416Y-15037091D01*
X11770701Y-15065663D01*
X11784987Y-15122806D01*
X11784987Y-15165663D01*
X11770701Y-15222806D01*
X11756416Y-15251377D01*
X11727844Y-15279949D01*
X11684987Y-15294234D01*
X11613558Y-15294234D01*
X11913558Y-15294234D02*
X11913558Y-15094234D01*
X11913558Y-15151377D02*
X11927844Y-15122806D01*
X11942130Y-15108520D01*
X11970701Y-15094234D01*
X11999273Y-15094234D01*
X12099273Y-15294234D02*
X12099273Y-15094234D01*
X12099273Y-14994234D02*
X12084987Y-15008520D01*
X12099273Y-15022806D01*
X12113558Y-15008520D01*
X12099273Y-14994234D01*
X12099273Y-15022806D01*
X12284987Y-15294234D02*
X12256416Y-15279949D01*
X12242130Y-15251377D01*
X12242130Y-14994234D01*
X12442130Y-15294234D02*
X12413558Y-15279949D01*
X12399273Y-15251377D01*
X12399273Y-14994234D01*
X12784987Y-15294234D02*
X12784987Y-14994234D01*
X12884987Y-15208520D01*
X12984987Y-14994234D01*
X12984987Y-15294234D01*
X13256416Y-15294234D02*
X13256416Y-15137091D01*
X13242130Y-15108520D01*
X13213558Y-15094234D01*
X13156416Y-15094234D01*
X13127844Y-15108520D01*
X13256416Y-15279949D02*
X13227844Y-15294234D01*
X13156416Y-15294234D01*
X13127844Y-15279949D01*
X13113558Y-15251377D01*
X13113558Y-15222806D01*
X13127844Y-15194234D01*
X13156416Y-15179949D01*
X13227844Y-15179949D01*
X13256416Y-15165663D01*
X13399273Y-15094234D02*
X13399273Y-15394234D01*
X13399273Y-15108520D02*
X13427844Y-15094234D01*
X13484987Y-15094234D01*
X13513558Y-15108520D01*
X13527844Y-15122806D01*
X13542130Y-15151377D01*
X13542130Y-15237091D01*
X13527844Y-15265663D01*
X13513558Y-15279949D01*
X13484987Y-15294234D01*
X13427844Y-15294234D01*
X13399273Y-15279949D01*
X13670701Y-15265663D02*
X13684987Y-15279949D01*
X13670701Y-15294234D01*
X13656416Y-15279949D01*
X13670701Y-15265663D01*
X13670701Y-15294234D01*
X13670701Y-15108520D02*
X13684987Y-15122806D01*
X13670701Y-15137091D01*
X13656416Y-15122806D01*
X13670701Y-15108520D01*
X13670701Y-15137091D01*
X11292130Y-15771020D02*
X11327130Y-15806020D01*
X11327130Y-15771020D02*
X11292130Y-15806020D01*
X11670701Y-15624234D02*
X11699273Y-15624234D01*
X11727844Y-15638520D01*
X11742130Y-15652806D01*
X11756416Y-15681377D01*
X11770701Y-15738520D01*
X11770701Y-15809949D01*
X11756416Y-15867091D01*
X11742130Y-15895663D01*
X11727844Y-15909949D01*
X11699273Y-15924234D01*
X11670701Y-15924234D01*
X11642130Y-15909949D01*
X11627844Y-15895663D01*
X11613558Y-15867091D01*
X11599273Y-15809949D01*
X11599273Y-15738520D01*
X11613558Y-15681377D01*
X11627844Y-15652806D01*
X11642130Y-15638520D01*
X11670701Y-15624234D01*
X11899273Y-15895663D02*
X11913558Y-15909949D01*
X11899273Y-15924234D01*
X11884987Y-15909949D01*
X11899273Y-15895663D01*
X11899273Y-15924234D01*
X12013558Y-15624234D02*
X12199273Y-15624234D01*
X12099273Y-15738520D01*
X12142130Y-15738520D01*
X12170701Y-15752806D01*
X12184987Y-15767091D01*
X12199273Y-15795663D01*
X12199273Y-15867091D01*
X12184987Y-15895663D01*
X12170701Y-15909949D01*
X12142130Y-15924234D01*
X12056416Y-15924234D01*
X12027844Y-15909949D01*
X12013558Y-15895663D01*
X12470701Y-15624234D02*
X12327844Y-15624234D01*
X12313558Y-15767091D01*
X12327844Y-15752806D01*
X12356416Y-15738520D01*
X12427844Y-15738520D01*
X12456416Y-15752806D01*
X12470701Y-15767091D01*
X12484987Y-15795663D01*
X12484987Y-15867091D01*
X12470701Y-15895663D01*
X12456416Y-15909949D01*
X12427844Y-15924234D01*
X12356416Y-15924234D01*
X12327844Y-15909949D01*
X12313558Y-15895663D01*
X12613558Y-15924234D02*
X12613558Y-15724234D01*
X12613558Y-15752806D02*
X12627844Y-15738520D01*
X12656416Y-15724234D01*
X12699273Y-15724234D01*
X12727844Y-15738520D01*
X12742130Y-15767091D01*
X12742130Y-15924234D01*
X12742130Y-15767091D02*
X12756416Y-15738520D01*
X12784987Y-15724234D01*
X12827844Y-15724234D01*
X12856416Y-15738520D01*
X12870701Y-15767091D01*
X12870701Y-15924234D01*
X13013558Y-15924234D02*
X13013558Y-15724234D01*
X13013558Y-15752806D02*
X13027844Y-15738520D01*
X13056416Y-15724234D01*
X13099273Y-15724234D01*
X13127844Y-15738520D01*
X13142130Y-15767091D01*
X13142130Y-15924234D01*
X13142130Y-15767091D02*
X13156416Y-15738520D01*
X13184987Y-15724234D01*
X13227844Y-15724234D01*
X13256416Y-15738520D01*
X13270701Y-15767091D01*
X13270701Y-15924234D01*
X13856416Y-15609949D02*
X13599273Y-15995663D01*
X14242130Y-15624234D02*
X14270701Y-15624234D01*
X14299273Y-15638520D01*
X14313558Y-15652806D01*
X14327844Y-15681377D01*
X14342130Y-15738520D01*
X14342130Y-15809949D01*
X14327844Y-15867091D01*
X14313558Y-15895663D01*
X14299273Y-15909949D01*
X14270701Y-15924234D01*
X14242130Y-15924234D01*
X14213558Y-15909949D01*
X14199273Y-15895663D01*
X14184987Y-15867091D01*
X14170701Y-15809949D01*
X14170701Y-15738520D01*
X14184987Y-15681377D01*
X14199273Y-15652806D01*
X14213558Y-15638520D01*
X14242130Y-15624234D01*
X14470701Y-15895663D02*
X14484987Y-15909949D01*
X14470701Y-15924234D01*
X14456416Y-15909949D01*
X14470701Y-15895663D01*
X14470701Y-15924234D01*
X14670701Y-15624234D02*
X14699273Y-15624234D01*
X14727844Y-15638520D01*
X14742130Y-15652806D01*
X14756416Y-15681377D01*
X14770701Y-15738520D01*
X14770701Y-15809949D01*
X14756416Y-15867091D01*
X14742130Y-15895663D01*
X14727844Y-15909949D01*
X14699273Y-15924234D01*
X14670701Y-15924234D01*
X14642130Y-15909949D01*
X14627844Y-15895663D01*
X14613558Y-15867091D01*
X14599273Y-15809949D01*
X14599273Y-15738520D01*
X14613558Y-15681377D01*
X14627844Y-15652806D01*
X14642130Y-15638520D01*
X14670701Y-15624234D01*
X15056416Y-15924234D02*
X14884987Y-15924234D01*
X14970701Y-15924234D02*
X14970701Y-15624234D01*
X14942130Y-15667091D01*
X14913558Y-15695663D01*
X14884987Y-15709949D01*
X15313558Y-15724234D02*
X15313558Y-15924234D01*
X15242130Y-15609949D02*
X15170701Y-15824234D01*
X15356416Y-15824234D01*
X15456416Y-15624234D02*
X15456416Y-15681377D01*
X15570701Y-15624234D02*
X15570701Y-15681377D01*
X16013558Y-16038520D02*
X15999273Y-16024234D01*
X15970701Y-15981377D01*
X15956416Y-15952806D01*
X15942130Y-15909949D01*
X15927844Y-15838520D01*
X15927844Y-15781377D01*
X15942130Y-15709949D01*
X15956416Y-15667091D01*
X15970701Y-15638520D01*
X15999273Y-15595663D01*
X16013558Y-15581377D01*
X16170701Y-15752806D02*
X16142130Y-15738520D01*
X16127844Y-15724234D01*
X16113558Y-15695663D01*
X16113558Y-15681377D01*
X16127844Y-15652806D01*
X16142130Y-15638520D01*
X16170701Y-15624234D01*
X16227844Y-15624234D01*
X16256416Y-15638520D01*
X16270701Y-15652806D01*
X16284987Y-15681377D01*
X16284987Y-15695663D01*
X16270701Y-15724234D01*
X16256416Y-15738520D01*
X16227844Y-15752806D01*
X16170701Y-15752806D01*
X16142130Y-15767091D01*
X16127844Y-15781377D01*
X16113558Y-15809949D01*
X16113558Y-15867091D01*
X16127844Y-15895663D01*
X16142130Y-15909949D01*
X16170701Y-15924234D01*
X16227844Y-15924234D01*
X16256416Y-15909949D01*
X16270701Y-15895663D01*
X16284987Y-15867091D01*
X16284987Y-15809949D01*
X16270701Y-15781377D01*
X16256416Y-15767091D01*
X16227844Y-15752806D01*
X16542130Y-15624234D02*
X16484987Y-15624234D01*
X16456416Y-15638520D01*
X16442130Y-15652806D01*
X16413558Y-15695663D01*
X16399273Y-15752806D01*
X16399273Y-15867091D01*
X16413558Y-15895663D01*
X16427844Y-15909949D01*
X16456416Y-15924234D01*
X16513558Y-15924234D01*
X16542130Y-15909949D01*
X16556416Y-15895663D01*
X16570701Y-15867091D01*
X16570701Y-15795663D01*
X16556416Y-15767091D01*
X16542130Y-15752806D01*
X16513558Y-15738520D01*
X16456416Y-15738520D01*
X16427844Y-15752806D01*
X16413558Y-15767091D01*
X16399273Y-15795663D01*
X16927844Y-15924234D02*
X16927844Y-15624234D01*
X17056416Y-15924234D02*
X17056416Y-15767091D01*
X17042130Y-15738520D01*
X17013558Y-15724234D01*
X16970701Y-15724234D01*
X16942130Y-15738520D01*
X16927844Y-15752806D01*
X17242130Y-15924234D02*
X17213558Y-15909949D01*
X17199273Y-15895663D01*
X17184987Y-15867091D01*
X17184987Y-15781377D01*
X17199273Y-15752806D01*
X17213558Y-15738520D01*
X17242130Y-15724234D01*
X17284987Y-15724234D01*
X17313558Y-15738520D01*
X17327844Y-15752806D01*
X17342130Y-15781377D01*
X17342130Y-15867091D01*
X17327844Y-15895663D01*
X17313558Y-15909949D01*
X17284987Y-15924234D01*
X17242130Y-15924234D01*
X17513558Y-15924234D02*
X17484987Y-15909949D01*
X17470701Y-15881377D01*
X17470701Y-15624234D01*
X17742130Y-15909949D02*
X17713558Y-15924234D01*
X17656416Y-15924234D01*
X17627844Y-15909949D01*
X17613558Y-15881377D01*
X17613558Y-15767091D01*
X17627844Y-15738520D01*
X17656416Y-15724234D01*
X17713558Y-15724234D01*
X17742130Y-15738520D01*
X17756416Y-15767091D01*
X17756416Y-15795663D01*
X17613558Y-15824234D01*
X17870701Y-15909949D02*
X17899273Y-15924234D01*
X17956416Y-15924234D01*
X17984987Y-15909949D01*
X17999273Y-15881377D01*
X17999273Y-15867091D01*
X17984987Y-15838520D01*
X17956416Y-15824234D01*
X17913558Y-15824234D01*
X17884987Y-15809949D01*
X17870701Y-15781377D01*
X17870701Y-15767091D01*
X17884987Y-15738520D01*
X17913558Y-15724234D01*
X17956416Y-15724234D01*
X17984987Y-15738520D01*
X18099273Y-16038520D02*
X18113558Y-16024234D01*
X18142130Y-15981377D01*
X18156416Y-15952806D01*
X18170701Y-15909949D01*
X18184987Y-15838520D01*
X18184987Y-15781377D01*
X18170701Y-15709949D01*
X18156416Y-15667091D01*
X18142130Y-15638520D01*
X18113558Y-15595663D01*
X18099273Y-15581377D01*
X11327130Y-16184520D02*
G75*
G03X11327130Y-16184520I-20000J0D01*
G01*
X11670701Y-16020234D02*
X11699273Y-16020234D01*
X11727844Y-16034520D01*
X11742130Y-16048806D01*
X11756416Y-16077377D01*
X11770701Y-16134520D01*
X11770701Y-16205949D01*
X11756416Y-16263091D01*
X11742130Y-16291663D01*
X11727844Y-16305949D01*
X11699273Y-16320234D01*
X11670701Y-16320234D01*
X11642130Y-16305949D01*
X11627844Y-16291663D01*
X11613558Y-16263091D01*
X11599273Y-16205949D01*
X11599273Y-16134520D01*
X11613558Y-16077377D01*
X11627844Y-16048806D01*
X11642130Y-16034520D01*
X11670701Y-16020234D01*
X11899273Y-16291663D02*
X11913558Y-16305949D01*
X11899273Y-16320234D01*
X11884987Y-16305949D01*
X11899273Y-16291663D01*
X11899273Y-16320234D01*
X12170701Y-16120234D02*
X12170701Y-16320234D01*
X12099273Y-16005949D02*
X12027844Y-16220234D01*
X12213558Y-16220234D01*
X12384987Y-16020234D02*
X12413558Y-16020234D01*
X12442130Y-16034520D01*
X12456416Y-16048806D01*
X12470701Y-16077377D01*
X12484987Y-16134520D01*
X12484987Y-16205949D01*
X12470701Y-16263091D01*
X12456416Y-16291663D01*
X12442130Y-16305949D01*
X12413558Y-16320234D01*
X12384987Y-16320234D01*
X12356416Y-16305949D01*
X12342130Y-16291663D01*
X12327844Y-16263091D01*
X12313558Y-16205949D01*
X12313558Y-16134520D01*
X12327844Y-16077377D01*
X12342130Y-16048806D01*
X12356416Y-16034520D01*
X12384987Y-16020234D01*
X12613558Y-16320234D02*
X12613558Y-16120234D01*
X12613558Y-16148806D02*
X12627844Y-16134520D01*
X12656416Y-16120234D01*
X12699273Y-16120234D01*
X12727844Y-16134520D01*
X12742130Y-16163091D01*
X12742130Y-16320234D01*
X12742130Y-16163091D02*
X12756416Y-16134520D01*
X12784987Y-16120234D01*
X12827844Y-16120234D01*
X12856416Y-16134520D01*
X12870701Y-16163091D01*
X12870701Y-16320234D01*
X13013558Y-16320234D02*
X13013558Y-16120234D01*
X13013558Y-16148806D02*
X13027844Y-16134520D01*
X13056416Y-16120234D01*
X13099273Y-16120234D01*
X13127844Y-16134520D01*
X13142130Y-16163091D01*
X13142130Y-16320234D01*
X13142130Y-16163091D02*
X13156416Y-16134520D01*
X13184987Y-16120234D01*
X13227844Y-16120234D01*
X13256416Y-16134520D01*
X13270701Y-16163091D01*
X13270701Y-16320234D01*
X13856416Y-16005949D02*
X13599273Y-16391663D01*
X14242130Y-16020234D02*
X14270701Y-16020234D01*
X14299273Y-16034520D01*
X14313558Y-16048806D01*
X14327844Y-16077377D01*
X14342130Y-16134520D01*
X14342130Y-16205949D01*
X14327844Y-16263091D01*
X14313558Y-16291663D01*
X14299273Y-16305949D01*
X14270701Y-16320234D01*
X14242130Y-16320234D01*
X14213558Y-16305949D01*
X14199273Y-16291663D01*
X14184987Y-16263091D01*
X14170701Y-16205949D01*
X14170701Y-16134520D01*
X14184987Y-16077377D01*
X14199273Y-16048806D01*
X14213558Y-16034520D01*
X14242130Y-16020234D01*
X14470701Y-16291663D02*
X14484987Y-16305949D01*
X14470701Y-16320234D01*
X14456416Y-16305949D01*
X14470701Y-16291663D01*
X14470701Y-16320234D01*
X14670701Y-16020234D02*
X14699273Y-16020234D01*
X14727844Y-16034520D01*
X14742130Y-16048806D01*
X14756416Y-16077377D01*
X14770701Y-16134520D01*
X14770701Y-16205949D01*
X14756416Y-16263091D01*
X14742130Y-16291663D01*
X14727844Y-16305949D01*
X14699273Y-16320234D01*
X14670701Y-16320234D01*
X14642130Y-16305949D01*
X14627844Y-16291663D01*
X14613558Y-16263091D01*
X14599273Y-16205949D01*
X14599273Y-16134520D01*
X14613558Y-16077377D01*
X14627844Y-16048806D01*
X14642130Y-16034520D01*
X14670701Y-16020234D01*
X15056416Y-16320234D02*
X14884987Y-16320234D01*
X14970701Y-16320234D02*
X14970701Y-16020234D01*
X14942130Y-16063091D01*
X14913558Y-16091663D01*
X14884987Y-16105949D01*
X15313558Y-16020234D02*
X15256416Y-16020234D01*
X15227844Y-16034520D01*
X15213558Y-16048806D01*
X15184987Y-16091663D01*
X15170701Y-16148806D01*
X15170701Y-16263091D01*
X15184987Y-16291663D01*
X15199273Y-16305949D01*
X15227844Y-16320234D01*
X15284987Y-16320234D01*
X15313558Y-16305949D01*
X15327844Y-16291663D01*
X15342130Y-16263091D01*
X15342130Y-16191663D01*
X15327844Y-16163091D01*
X15313558Y-16148806D01*
X15284987Y-16134520D01*
X15227844Y-16134520D01*
X15199273Y-16148806D01*
X15184987Y-16163091D01*
X15170701Y-16191663D01*
X15456416Y-16020234D02*
X15456416Y-16077377D01*
X15570701Y-16020234D02*
X15570701Y-16077377D01*
X16013558Y-16434520D02*
X15999273Y-16420234D01*
X15970701Y-16377377D01*
X15956416Y-16348806D01*
X15942130Y-16305949D01*
X15927844Y-16234520D01*
X15927844Y-16177377D01*
X15942130Y-16105949D01*
X15956416Y-16063091D01*
X15970701Y-16034520D01*
X15999273Y-15991663D01*
X16013558Y-15977377D01*
X16099273Y-16020234D02*
X16284987Y-16020234D01*
X16184987Y-16134520D01*
X16227844Y-16134520D01*
X16256416Y-16148806D01*
X16270701Y-16163091D01*
X16284987Y-16191663D01*
X16284987Y-16263091D01*
X16270701Y-16291663D01*
X16256416Y-16305949D01*
X16227844Y-16320234D01*
X16142130Y-16320234D01*
X16113558Y-16305949D01*
X16099273Y-16291663D01*
X16570701Y-16320234D02*
X16399273Y-16320234D01*
X16484987Y-16320234D02*
X16484987Y-16020234D01*
X16456416Y-16063091D01*
X16427844Y-16091663D01*
X16399273Y-16105949D01*
X16927844Y-16320234D02*
X16927844Y-16020234D01*
X17056416Y-16320234D02*
X17056416Y-16163091D01*
X17042130Y-16134520D01*
X17013558Y-16120234D01*
X16970701Y-16120234D01*
X16942130Y-16134520D01*
X16927844Y-16148806D01*
X17242130Y-16320234D02*
X17213558Y-16305949D01*
X17199273Y-16291663D01*
X17184987Y-16263091D01*
X17184987Y-16177377D01*
X17199273Y-16148806D01*
X17213558Y-16134520D01*
X17242130Y-16120234D01*
X17284987Y-16120234D01*
X17313558Y-16134520D01*
X17327844Y-16148806D01*
X17342130Y-16177377D01*
X17342130Y-16263091D01*
X17327844Y-16291663D01*
X17313558Y-16305949D01*
X17284987Y-16320234D01*
X17242130Y-16320234D01*
X17513558Y-16320234D02*
X17484987Y-16305949D01*
X17470701Y-16277377D01*
X17470701Y-16020234D01*
X17742130Y-16305949D02*
X17713558Y-16320234D01*
X17656416Y-16320234D01*
X17627844Y-16305949D01*
X17613558Y-16277377D01*
X17613558Y-16163091D01*
X17627844Y-16134520D01*
X17656416Y-16120234D01*
X17713558Y-16120234D01*
X17742130Y-16134520D01*
X17756416Y-16163091D01*
X17756416Y-16191663D01*
X17613558Y-16220234D01*
X17870701Y-16305949D02*
X17899273Y-16320234D01*
X17956416Y-16320234D01*
X17984987Y-16305949D01*
X17999273Y-16277377D01*
X17999273Y-16263091D01*
X17984987Y-16234520D01*
X17956416Y-16220234D01*
X17913558Y-16220234D01*
X17884987Y-16205949D01*
X17870701Y-16177377D01*
X17870701Y-16163091D01*
X17884987Y-16134520D01*
X17913558Y-16120234D01*
X17956416Y-16120234D01*
X17984987Y-16134520D01*
X18099273Y-16434520D02*
X18113558Y-16420234D01*
X18142130Y-16377377D01*
X18156416Y-16348806D01*
X18170701Y-16305949D01*
X18184987Y-16234520D01*
X18184987Y-16177377D01*
X18170701Y-16105949D01*
X18156416Y-16063091D01*
X18142130Y-16034520D01*
X18113558Y-15991663D01*
X18099273Y-15977377D01*
X11289630Y-16543020D02*
X11289630Y-16618020D01*
X11252130Y-16580520D02*
X11327130Y-16580520D01*
X11670701Y-16416234D02*
X11699273Y-16416234D01*
X11727844Y-16430520D01*
X11742130Y-16444806D01*
X11756416Y-16473377D01*
X11770701Y-16530520D01*
X11770701Y-16601949D01*
X11756416Y-16659091D01*
X11742130Y-16687663D01*
X11727844Y-16701949D01*
X11699273Y-16716234D01*
X11670701Y-16716234D01*
X11642130Y-16701949D01*
X11627844Y-16687663D01*
X11613558Y-16659091D01*
X11599273Y-16601949D01*
X11599273Y-16530520D01*
X11613558Y-16473377D01*
X11627844Y-16444806D01*
X11642130Y-16430520D01*
X11670701Y-16416234D01*
X11899273Y-16687663D02*
X11913558Y-16701949D01*
X11899273Y-16716234D01*
X11884987Y-16701949D01*
X11899273Y-16687663D01*
X11899273Y-16716234D01*
X12013558Y-16416234D02*
X12213558Y-16416234D01*
X12084987Y-16716234D01*
X12470701Y-16416234D02*
X12327844Y-16416234D01*
X12313558Y-16559091D01*
X12327844Y-16544806D01*
X12356416Y-16530520D01*
X12427844Y-16530520D01*
X12456416Y-16544806D01*
X12470701Y-16559091D01*
X12484987Y-16587663D01*
X12484987Y-16659091D01*
X12470701Y-16687663D01*
X12456416Y-16701949D01*
X12427844Y-16716234D01*
X12356416Y-16716234D01*
X12327844Y-16701949D01*
X12313558Y-16687663D01*
X12613558Y-16716234D02*
X12613558Y-16516234D01*
X12613558Y-16544806D02*
X12627844Y-16530520D01*
X12656416Y-16516234D01*
X12699273Y-16516234D01*
X12727844Y-16530520D01*
X12742130Y-16559091D01*
X12742130Y-16716234D01*
X12742130Y-16559091D02*
X12756416Y-16530520D01*
X12784987Y-16516234D01*
X12827844Y-16516234D01*
X12856416Y-16530520D01*
X12870701Y-16559091D01*
X12870701Y-16716234D01*
X13013558Y-16716234D02*
X13013558Y-16516234D01*
X13013558Y-16544806D02*
X13027844Y-16530520D01*
X13056416Y-16516234D01*
X13099273Y-16516234D01*
X13127844Y-16530520D01*
X13142130Y-16559091D01*
X13142130Y-16716234D01*
X13142130Y-16559091D02*
X13156416Y-16530520D01*
X13184987Y-16516234D01*
X13227844Y-16516234D01*
X13256416Y-16530520D01*
X13270701Y-16559091D01*
X13270701Y-16716234D01*
X13856416Y-16401949D02*
X13599273Y-16787663D01*
X14242130Y-16416234D02*
X14270701Y-16416234D01*
X14299273Y-16430520D01*
X14313558Y-16444806D01*
X14327844Y-16473377D01*
X14342130Y-16530520D01*
X14342130Y-16601949D01*
X14327844Y-16659091D01*
X14313558Y-16687663D01*
X14299273Y-16701949D01*
X14270701Y-16716234D01*
X14242130Y-16716234D01*
X14213558Y-16701949D01*
X14199273Y-16687663D01*
X14184987Y-16659091D01*
X14170701Y-16601949D01*
X14170701Y-16530520D01*
X14184987Y-16473377D01*
X14199273Y-16444806D01*
X14213558Y-16430520D01*
X14242130Y-16416234D01*
X14470701Y-16687663D02*
X14484987Y-16701949D01*
X14470701Y-16716234D01*
X14456416Y-16701949D01*
X14470701Y-16687663D01*
X14470701Y-16716234D01*
X14670701Y-16416234D02*
X14699273Y-16416234D01*
X14727844Y-16430520D01*
X14742130Y-16444806D01*
X14756416Y-16473377D01*
X14770701Y-16530520D01*
X14770701Y-16601949D01*
X14756416Y-16659091D01*
X14742130Y-16687663D01*
X14727844Y-16701949D01*
X14699273Y-16716234D01*
X14670701Y-16716234D01*
X14642130Y-16701949D01*
X14627844Y-16687663D01*
X14613558Y-16659091D01*
X14599273Y-16601949D01*
X14599273Y-16530520D01*
X14613558Y-16473377D01*
X14627844Y-16444806D01*
X14642130Y-16430520D01*
X14670701Y-16416234D01*
X14870701Y-16416234D02*
X15056416Y-16416234D01*
X14956416Y-16530520D01*
X14999273Y-16530520D01*
X15027844Y-16544806D01*
X15042130Y-16559091D01*
X15056416Y-16587663D01*
X15056416Y-16659091D01*
X15042130Y-16687663D01*
X15027844Y-16701949D01*
X14999273Y-16716234D01*
X14913558Y-16716234D01*
X14884987Y-16701949D01*
X14870701Y-16687663D01*
X15242130Y-16416234D02*
X15270701Y-16416234D01*
X15299273Y-16430520D01*
X15313558Y-16444806D01*
X15327844Y-16473377D01*
X15342130Y-16530520D01*
X15342130Y-16601949D01*
X15327844Y-16659091D01*
X15313558Y-16687663D01*
X15299273Y-16701949D01*
X15270701Y-16716234D01*
X15242130Y-16716234D01*
X15213558Y-16701949D01*
X15199273Y-16687663D01*
X15184987Y-16659091D01*
X15170701Y-16601949D01*
X15170701Y-16530520D01*
X15184987Y-16473377D01*
X15199273Y-16444806D01*
X15213558Y-16430520D01*
X15242130Y-16416234D01*
X15456416Y-16416234D02*
X15456416Y-16473377D01*
X15570701Y-16416234D02*
X15570701Y-16473377D01*
X16013558Y-16830520D02*
X15999273Y-16816234D01*
X15970701Y-16773377D01*
X15956416Y-16744806D01*
X15942130Y-16701949D01*
X15927844Y-16630520D01*
X15927844Y-16573377D01*
X15942130Y-16501949D01*
X15956416Y-16459091D01*
X15970701Y-16430520D01*
X15999273Y-16387663D01*
X16013558Y-16373377D01*
X16113558Y-16444806D02*
X16127844Y-16430520D01*
X16156416Y-16416234D01*
X16227844Y-16416234D01*
X16256416Y-16430520D01*
X16270701Y-16444806D01*
X16284987Y-16473377D01*
X16284987Y-16501949D01*
X16270701Y-16544806D01*
X16099273Y-16716234D01*
X16284987Y-16716234D01*
X16642130Y-16716234D02*
X16642130Y-16416234D01*
X16770701Y-16716234D02*
X16770701Y-16559091D01*
X16756416Y-16530520D01*
X16727844Y-16516234D01*
X16684987Y-16516234D01*
X16656416Y-16530520D01*
X16642130Y-16544806D01*
X16956416Y-16716234D02*
X16927844Y-16701949D01*
X16913558Y-16687663D01*
X16899273Y-16659091D01*
X16899273Y-16573377D01*
X16913558Y-16544806D01*
X16927844Y-16530520D01*
X16956416Y-16516234D01*
X16999273Y-16516234D01*
X17027844Y-16530520D01*
X17042130Y-16544806D01*
X17056416Y-16573377D01*
X17056416Y-16659091D01*
X17042130Y-16687663D01*
X17027844Y-16701949D01*
X16999273Y-16716234D01*
X16956416Y-16716234D01*
X17227844Y-16716234D02*
X17199273Y-16701949D01*
X17184987Y-16673377D01*
X17184987Y-16416234D01*
X17456416Y-16701949D02*
X17427844Y-16716234D01*
X17370701Y-16716234D01*
X17342130Y-16701949D01*
X17327844Y-16673377D01*
X17327844Y-16559091D01*
X17342130Y-16530520D01*
X17370701Y-16516234D01*
X17427844Y-16516234D01*
X17456416Y-16530520D01*
X17470701Y-16559091D01*
X17470701Y-16587663D01*
X17327844Y-16616234D01*
X17584987Y-16701949D02*
X17613558Y-16716234D01*
X17670701Y-16716234D01*
X17699273Y-16701949D01*
X17713558Y-16673377D01*
X17713558Y-16659091D01*
X17699273Y-16630520D01*
X17670701Y-16616234D01*
X17627844Y-16616234D01*
X17599273Y-16601949D01*
X17584987Y-16573377D01*
X17584987Y-16559091D01*
X17599273Y-16530520D01*
X17627844Y-16516234D01*
X17670701Y-16516234D01*
X17699273Y-16530520D01*
X17813558Y-16830520D02*
X17827844Y-16816234D01*
X17856416Y-16773377D01*
X17870701Y-16744806D01*
X17884987Y-16701949D01*
X17899273Y-16630520D01*
X17899273Y-16573377D01*
X17884987Y-16501949D01*
X17870701Y-16459091D01*
X17856416Y-16430520D01*
X17827844Y-16387663D01*
X17813558Y-16373377D01*
X11315414Y-17004805D02*
X11315414Y-16948236D01*
X11258845Y-16948236D01*
X11258845Y-17004805D01*
X11315414Y-17004805D01*
X11670701Y-16812234D02*
X11699273Y-16812234D01*
X11727844Y-16826520D01*
X11742130Y-16840806D01*
X11756416Y-16869377D01*
X11770701Y-16926520D01*
X11770701Y-16997949D01*
X11756416Y-17055092D01*
X11742130Y-17083663D01*
X11727844Y-17097949D01*
X11699273Y-17112234D01*
X11670701Y-17112234D01*
X11642130Y-17097949D01*
X11627844Y-17083663D01*
X11613558Y-17055092D01*
X11599273Y-16997949D01*
X11599273Y-16926520D01*
X11613558Y-16869377D01*
X11627844Y-16840806D01*
X11642130Y-16826520D01*
X11670701Y-16812234D01*
X11899273Y-17083663D02*
X11913558Y-17097949D01*
X11899273Y-17112234D01*
X11884987Y-17097949D01*
X11899273Y-17083663D01*
X11899273Y-17112234D01*
X12084987Y-16940806D02*
X12056416Y-16926520D01*
X12042130Y-16912234D01*
X12027844Y-16883663D01*
X12027844Y-16869377D01*
X12042130Y-16840806D01*
X12056416Y-16826520D01*
X12084987Y-16812234D01*
X12142130Y-16812234D01*
X12170701Y-16826520D01*
X12184987Y-16840806D01*
X12199273Y-16869377D01*
X12199273Y-16883663D01*
X12184987Y-16912234D01*
X12170701Y-16926520D01*
X12142130Y-16940806D01*
X12084987Y-16940806D01*
X12056416Y-16955092D01*
X12042130Y-16969377D01*
X12027844Y-16997949D01*
X12027844Y-17055092D01*
X12042130Y-17083663D01*
X12056416Y-17097949D01*
X12084987Y-17112234D01*
X12142130Y-17112234D01*
X12170701Y-17097949D01*
X12184987Y-17083663D01*
X12199273Y-17055092D01*
X12199273Y-16997949D01*
X12184987Y-16969377D01*
X12170701Y-16955092D01*
X12142130Y-16940806D01*
X12384987Y-16812234D02*
X12413558Y-16812234D01*
X12442130Y-16826520D01*
X12456416Y-16840806D01*
X12470701Y-16869377D01*
X12484987Y-16926520D01*
X12484987Y-16997949D01*
X12470701Y-17055092D01*
X12456416Y-17083663D01*
X12442130Y-17097949D01*
X12413558Y-17112234D01*
X12384987Y-17112234D01*
X12356416Y-17097949D01*
X12342130Y-17083663D01*
X12327844Y-17055092D01*
X12313558Y-16997949D01*
X12313558Y-16926520D01*
X12327844Y-16869377D01*
X12342130Y-16840806D01*
X12356416Y-16826520D01*
X12384987Y-16812234D01*
X12613558Y-17112234D02*
X12613558Y-16912234D01*
X12613558Y-16940806D02*
X12627844Y-16926520D01*
X12656416Y-16912234D01*
X12699273Y-16912234D01*
X12727844Y-16926520D01*
X12742130Y-16955092D01*
X12742130Y-17112234D01*
X12742130Y-16955092D02*
X12756416Y-16926520D01*
X12784987Y-16912234D01*
X12827844Y-16912234D01*
X12856416Y-16926520D01*
X12870701Y-16955092D01*
X12870701Y-17112234D01*
X13013558Y-17112234D02*
X13013558Y-16912234D01*
X13013558Y-16940806D02*
X13027844Y-16926520D01*
X13056416Y-16912234D01*
X13099273Y-16912234D01*
X13127844Y-16926520D01*
X13142130Y-16955092D01*
X13142130Y-17112234D01*
X13142130Y-16955092D02*
X13156416Y-16926520D01*
X13184987Y-16912234D01*
X13227844Y-16912234D01*
X13256416Y-16926520D01*
X13270701Y-16955092D01*
X13270701Y-17112234D01*
X13856416Y-16797949D02*
X13599273Y-17183663D01*
X14242130Y-16812234D02*
X14270701Y-16812234D01*
X14299273Y-16826520D01*
X14313558Y-16840806D01*
X14327844Y-16869377D01*
X14342130Y-16926520D01*
X14342130Y-16997949D01*
X14327844Y-17055092D01*
X14313558Y-17083663D01*
X14299273Y-17097949D01*
X14270701Y-17112234D01*
X14242130Y-17112234D01*
X14213558Y-17097949D01*
X14199273Y-17083663D01*
X14184987Y-17055092D01*
X14170701Y-16997949D01*
X14170701Y-16926520D01*
X14184987Y-16869377D01*
X14199273Y-16840806D01*
X14213558Y-16826520D01*
X14242130Y-16812234D01*
X14470701Y-17083663D02*
X14484987Y-17097949D01*
X14470701Y-17112234D01*
X14456416Y-17097949D01*
X14470701Y-17083663D01*
X14470701Y-17112234D01*
X14670701Y-16812234D02*
X14699273Y-16812234D01*
X14727844Y-16826520D01*
X14742130Y-16840806D01*
X14756416Y-16869377D01*
X14770701Y-16926520D01*
X14770701Y-16997949D01*
X14756416Y-17055092D01*
X14742130Y-17083663D01*
X14727844Y-17097949D01*
X14699273Y-17112234D01*
X14670701Y-17112234D01*
X14642130Y-17097949D01*
X14627844Y-17083663D01*
X14613558Y-17055092D01*
X14599273Y-16997949D01*
X14599273Y-16926520D01*
X14613558Y-16869377D01*
X14627844Y-16840806D01*
X14642130Y-16826520D01*
X14670701Y-16812234D01*
X14870701Y-16812234D02*
X15056416Y-16812234D01*
X14956416Y-16926520D01*
X14999273Y-16926520D01*
X15027844Y-16940806D01*
X15042130Y-16955092D01*
X15056416Y-16983663D01*
X15056416Y-17055092D01*
X15042130Y-17083663D01*
X15027844Y-17097949D01*
X14999273Y-17112234D01*
X14913558Y-17112234D01*
X14884987Y-17097949D01*
X14870701Y-17083663D01*
X15342130Y-17112234D02*
X15170701Y-17112234D01*
X15256416Y-17112234D02*
X15256416Y-16812234D01*
X15227844Y-16855092D01*
X15199273Y-16883663D01*
X15170701Y-16897949D01*
X15456416Y-16812234D02*
X15456416Y-16869377D01*
X15570701Y-16812234D02*
X15570701Y-16869377D01*
X16013558Y-17226520D02*
X15999273Y-17212234D01*
X15970701Y-17169377D01*
X15956416Y-17140806D01*
X15942130Y-17097949D01*
X15927844Y-17026520D01*
X15927844Y-16969377D01*
X15942130Y-16897949D01*
X15956416Y-16855092D01*
X15970701Y-16826520D01*
X15999273Y-16783663D01*
X16013558Y-16769377D01*
X16170701Y-16940806D02*
X16142130Y-16926520D01*
X16127844Y-16912234D01*
X16113558Y-16883663D01*
X16113558Y-16869377D01*
X16127844Y-16840806D01*
X16142130Y-16826520D01*
X16170701Y-16812234D01*
X16227844Y-16812234D01*
X16256416Y-16826520D01*
X16270701Y-16840806D01*
X16284987Y-16869377D01*
X16284987Y-16883663D01*
X16270701Y-16912234D01*
X16256416Y-16926520D01*
X16227844Y-16940806D01*
X16170701Y-16940806D01*
X16142130Y-16955092D01*
X16127844Y-16969377D01*
X16113558Y-16997949D01*
X16113558Y-17055092D01*
X16127844Y-17083663D01*
X16142130Y-17097949D01*
X16170701Y-17112234D01*
X16227844Y-17112234D01*
X16256416Y-17097949D01*
X16270701Y-17083663D01*
X16284987Y-17055092D01*
X16284987Y-16997949D01*
X16270701Y-16969377D01*
X16256416Y-16955092D01*
X16227844Y-16940806D01*
X16399273Y-16840806D02*
X16413558Y-16826520D01*
X16442130Y-16812234D01*
X16513558Y-16812234D01*
X16542130Y-16826520D01*
X16556416Y-16840806D01*
X16570701Y-16869377D01*
X16570701Y-16897949D01*
X16556416Y-16940806D01*
X16384987Y-17112234D01*
X16570701Y-17112234D01*
X16927844Y-17112234D02*
X16927844Y-16812234D01*
X17056416Y-17112234D02*
X17056416Y-16955092D01*
X17042130Y-16926520D01*
X17013558Y-16912234D01*
X16970701Y-16912234D01*
X16942130Y-16926520D01*
X16927844Y-16940806D01*
X17242130Y-17112234D02*
X17213558Y-17097949D01*
X17199273Y-17083663D01*
X17184987Y-17055092D01*
X17184987Y-16969377D01*
X17199273Y-16940806D01*
X17213558Y-16926520D01*
X17242130Y-16912234D01*
X17284987Y-16912234D01*
X17313558Y-16926520D01*
X17327844Y-16940806D01*
X17342130Y-16969377D01*
X17342130Y-17055092D01*
X17327844Y-17083663D01*
X17313558Y-17097949D01*
X17284987Y-17112234D01*
X17242130Y-17112234D01*
X17513558Y-17112234D02*
X17484987Y-17097949D01*
X17470701Y-17069377D01*
X17470701Y-16812234D01*
X17742130Y-17097949D02*
X17713558Y-17112234D01*
X17656416Y-17112234D01*
X17627844Y-17097949D01*
X17613558Y-17069377D01*
X17613558Y-16955092D01*
X17627844Y-16926520D01*
X17656416Y-16912234D01*
X17713558Y-16912234D01*
X17742130Y-16926520D01*
X17756416Y-16955092D01*
X17756416Y-16983663D01*
X17613558Y-17012234D01*
X17870701Y-17097949D02*
X17899273Y-17112234D01*
X17956416Y-17112234D01*
X17984987Y-17097949D01*
X17999273Y-17069377D01*
X17999273Y-17055092D01*
X17984987Y-17026520D01*
X17956416Y-17012234D01*
X17913558Y-17012234D01*
X17884987Y-16997949D01*
X17870701Y-16969377D01*
X17870701Y-16955092D01*
X17884987Y-16926520D01*
X17913558Y-16912234D01*
X17956416Y-16912234D01*
X17984987Y-16926520D01*
X18099273Y-17226520D02*
X18113558Y-17212234D01*
X18142130Y-17169377D01*
X18156416Y-17140806D01*
X18170701Y-17097949D01*
X18184987Y-17026520D01*
X18184987Y-16969377D01*
X18170701Y-16897949D01*
X18156416Y-16855092D01*
X18142130Y-16826520D01*
X18113558Y-16783663D01*
X18099273Y-16769377D01*
X11277130Y-17422520D02*
X11327130Y-17372520D01*
X11277130Y-17322520D01*
X11227130Y-17372520D01*
X11277130Y-17422520D01*
X11770701Y-17508234D02*
X11599273Y-17508234D01*
X11684987Y-17508234D02*
X11684987Y-17208234D01*
X11656416Y-17251092D01*
X11627844Y-17279663D01*
X11599273Y-17293949D01*
X11899273Y-17479663D02*
X11913558Y-17493949D01*
X11899273Y-17508234D01*
X11884987Y-17493949D01*
X11899273Y-17479663D01*
X11899273Y-17508234D01*
X12099273Y-17208234D02*
X12127844Y-17208234D01*
X12156416Y-17222520D01*
X12170701Y-17236806D01*
X12184987Y-17265377D01*
X12199273Y-17322520D01*
X12199273Y-17393949D01*
X12184987Y-17451092D01*
X12170701Y-17479663D01*
X12156416Y-17493949D01*
X12127844Y-17508234D01*
X12099273Y-17508234D01*
X12070701Y-17493949D01*
X12056416Y-17479663D01*
X12042130Y-17451092D01*
X12027844Y-17393949D01*
X12027844Y-17322520D01*
X12042130Y-17265377D01*
X12056416Y-17236806D01*
X12070701Y-17222520D01*
X12099273Y-17208234D01*
X12384987Y-17208234D02*
X12413558Y-17208234D01*
X12442130Y-17222520D01*
X12456416Y-17236806D01*
X12470701Y-17265377D01*
X12484987Y-17322520D01*
X12484987Y-17393949D01*
X12470701Y-17451092D01*
X12456416Y-17479663D01*
X12442130Y-17493949D01*
X12413558Y-17508234D01*
X12384987Y-17508234D01*
X12356416Y-17493949D01*
X12342130Y-17479663D01*
X12327844Y-17451092D01*
X12313558Y-17393949D01*
X12313558Y-17322520D01*
X12327844Y-17265377D01*
X12342130Y-17236806D01*
X12356416Y-17222520D01*
X12384987Y-17208234D01*
X12613558Y-17508234D02*
X12613558Y-17308234D01*
X12613558Y-17336806D02*
X12627844Y-17322520D01*
X12656416Y-17308234D01*
X12699273Y-17308234D01*
X12727844Y-17322520D01*
X12742130Y-17351092D01*
X12742130Y-17508234D01*
X12742130Y-17351092D02*
X12756416Y-17322520D01*
X12784987Y-17308234D01*
X12827844Y-17308234D01*
X12856416Y-17322520D01*
X12870701Y-17351092D01*
X12870701Y-17508234D01*
X13013558Y-17508234D02*
X13013558Y-17308234D01*
X13013558Y-17336806D02*
X13027844Y-17322520D01*
X13056416Y-17308234D01*
X13099273Y-17308234D01*
X13127844Y-17322520D01*
X13142130Y-17351092D01*
X13142130Y-17508234D01*
X13142130Y-17351092D02*
X13156416Y-17322520D01*
X13184987Y-17308234D01*
X13227844Y-17308234D01*
X13256416Y-17322520D01*
X13270701Y-17351092D01*
X13270701Y-17508234D01*
X13856416Y-17193949D02*
X13599273Y-17579663D01*
X14242130Y-17208234D02*
X14270701Y-17208234D01*
X14299273Y-17222520D01*
X14313558Y-17236806D01*
X14327844Y-17265377D01*
X14342130Y-17322520D01*
X14342130Y-17393949D01*
X14327844Y-17451092D01*
X14313558Y-17479663D01*
X14299273Y-17493949D01*
X14270701Y-17508234D01*
X14242130Y-17508234D01*
X14213558Y-17493949D01*
X14199273Y-17479663D01*
X14184987Y-17451092D01*
X14170701Y-17393949D01*
X14170701Y-17322520D01*
X14184987Y-17265377D01*
X14199273Y-17236806D01*
X14213558Y-17222520D01*
X14242130Y-17208234D01*
X14470701Y-17479663D02*
X14484987Y-17493949D01*
X14470701Y-17508234D01*
X14456416Y-17493949D01*
X14470701Y-17479663D01*
X14470701Y-17508234D01*
X14670701Y-17208234D02*
X14699273Y-17208234D01*
X14727844Y-17222520D01*
X14742130Y-17236806D01*
X14756416Y-17265377D01*
X14770701Y-17322520D01*
X14770701Y-17393949D01*
X14756416Y-17451092D01*
X14742130Y-17479663D01*
X14727844Y-17493949D01*
X14699273Y-17508234D01*
X14670701Y-17508234D01*
X14642130Y-17493949D01*
X14627844Y-17479663D01*
X14613558Y-17451092D01*
X14599273Y-17393949D01*
X14599273Y-17322520D01*
X14613558Y-17265377D01*
X14627844Y-17236806D01*
X14642130Y-17222520D01*
X14670701Y-17208234D01*
X14870701Y-17208234D02*
X15056416Y-17208234D01*
X14956416Y-17322520D01*
X14999273Y-17322520D01*
X15027844Y-17336806D01*
X15042130Y-17351092D01*
X15056416Y-17379663D01*
X15056416Y-17451092D01*
X15042130Y-17479663D01*
X15027844Y-17493949D01*
X14999273Y-17508234D01*
X14913558Y-17508234D01*
X14884987Y-17493949D01*
X14870701Y-17479663D01*
X15199273Y-17508234D02*
X15256416Y-17508234D01*
X15284987Y-17493949D01*
X15299273Y-17479663D01*
X15327844Y-17436806D01*
X15342130Y-17379663D01*
X15342130Y-17265377D01*
X15327844Y-17236806D01*
X15313558Y-17222520D01*
X15284987Y-17208234D01*
X15227844Y-17208234D01*
X15199273Y-17222520D01*
X15184987Y-17236806D01*
X15170701Y-17265377D01*
X15170701Y-17336806D01*
X15184987Y-17365377D01*
X15199273Y-17379663D01*
X15227844Y-17393949D01*
X15284987Y-17393949D01*
X15313558Y-17379663D01*
X15327844Y-17365377D01*
X15342130Y-17336806D01*
X15456416Y-17208234D02*
X15456416Y-17265377D01*
X15570701Y-17208234D02*
X15570701Y-17265377D01*
X16013558Y-17622520D02*
X15999273Y-17608234D01*
X15970701Y-17565377D01*
X15956416Y-17536806D01*
X15942130Y-17493949D01*
X15927844Y-17422520D01*
X15927844Y-17365377D01*
X15942130Y-17293949D01*
X15956416Y-17251092D01*
X15970701Y-17222520D01*
X15999273Y-17179663D01*
X16013558Y-17165377D01*
X16256416Y-17308234D02*
X16256416Y-17508234D01*
X16184987Y-17193949D02*
X16113558Y-17408234D01*
X16299273Y-17408234D01*
X16642130Y-17508234D02*
X16642130Y-17208234D01*
X16770701Y-17508234D02*
X16770701Y-17351092D01*
X16756416Y-17322520D01*
X16727844Y-17308234D01*
X16684987Y-17308234D01*
X16656416Y-17322520D01*
X16642130Y-17336806D01*
X16956416Y-17508234D02*
X16927844Y-17493949D01*
X16913558Y-17479663D01*
X16899273Y-17451092D01*
X16899273Y-17365377D01*
X16913558Y-17336806D01*
X16927844Y-17322520D01*
X16956416Y-17308234D01*
X16999273Y-17308234D01*
X17027844Y-17322520D01*
X17042130Y-17336806D01*
X17056416Y-17365377D01*
X17056416Y-17451092D01*
X17042130Y-17479663D01*
X17027844Y-17493949D01*
X16999273Y-17508234D01*
X16956416Y-17508234D01*
X17227844Y-17508234D02*
X17199273Y-17493949D01*
X17184987Y-17465377D01*
X17184987Y-17208234D01*
X17456416Y-17493949D02*
X17427844Y-17508234D01*
X17370701Y-17508234D01*
X17342130Y-17493949D01*
X17327844Y-17465377D01*
X17327844Y-17351092D01*
X17342130Y-17322520D01*
X17370701Y-17308234D01*
X17427844Y-17308234D01*
X17456416Y-17322520D01*
X17470701Y-17351092D01*
X17470701Y-17379663D01*
X17327844Y-17408234D01*
X17584987Y-17493949D02*
X17613558Y-17508234D01*
X17670701Y-17508234D01*
X17699273Y-17493949D01*
X17713558Y-17465377D01*
X17713558Y-17451092D01*
X17699273Y-17422520D01*
X17670701Y-17408234D01*
X17627844Y-17408234D01*
X17599273Y-17393949D01*
X17584987Y-17365377D01*
X17584987Y-17351092D01*
X17599273Y-17322520D01*
X17627844Y-17308234D01*
X17670701Y-17308234D01*
X17699273Y-17322520D01*
X17813558Y-17622520D02*
X17827844Y-17608234D01*
X17856416Y-17565377D01*
X17870701Y-17536806D01*
X17884987Y-17493949D01*
X17899273Y-17422520D01*
X17899273Y-17365377D01*
X17884987Y-17293949D01*
X17870701Y-17251092D01*
X17856416Y-17222520D01*
X17827844Y-17179663D01*
X17813558Y-17165377D01*
X11217130Y-17713520D02*
X11327130Y-17823520D01*
X11327130Y-17713520D02*
X11217130Y-17823520D01*
X11327130Y-17768520D02*
G75*
G03X11327130Y-17768520I-55000J0D01*
G01*
X11770701Y-17904234D02*
X11599273Y-17904234D01*
X11684987Y-17904234D02*
X11684987Y-17604234D01*
X11656416Y-17647092D01*
X11627844Y-17675663D01*
X11599273Y-17689949D01*
X11899273Y-17875663D02*
X11913558Y-17889949D01*
X11899273Y-17904234D01*
X11884987Y-17889949D01*
X11899273Y-17875663D01*
X11899273Y-17904234D01*
X12199273Y-17904234D02*
X12027844Y-17904234D01*
X12113558Y-17904234D02*
X12113558Y-17604234D01*
X12084987Y-17647092D01*
X12056416Y-17675663D01*
X12027844Y-17689949D01*
X12384987Y-17604234D02*
X12413558Y-17604234D01*
X12442130Y-17618520D01*
X12456416Y-17632806D01*
X12470701Y-17661377D01*
X12484987Y-17718520D01*
X12484987Y-17789949D01*
X12470701Y-17847092D01*
X12456416Y-17875663D01*
X12442130Y-17889949D01*
X12413558Y-17904234D01*
X12384987Y-17904234D01*
X12356416Y-17889949D01*
X12342130Y-17875663D01*
X12327844Y-17847092D01*
X12313558Y-17789949D01*
X12313558Y-17718520D01*
X12327844Y-17661377D01*
X12342130Y-17632806D01*
X12356416Y-17618520D01*
X12384987Y-17604234D01*
X12613558Y-17904234D02*
X12613558Y-17704234D01*
X12613558Y-17732806D02*
X12627844Y-17718520D01*
X12656416Y-17704234D01*
X12699273Y-17704234D01*
X12727844Y-17718520D01*
X12742130Y-17747092D01*
X12742130Y-17904234D01*
X12742130Y-17747092D02*
X12756416Y-17718520D01*
X12784987Y-17704234D01*
X12827844Y-17704234D01*
X12856416Y-17718520D01*
X12870701Y-17747092D01*
X12870701Y-17904234D01*
X13013558Y-17904234D02*
X13013558Y-17704234D01*
X13013558Y-17732806D02*
X13027844Y-17718520D01*
X13056416Y-17704234D01*
X13099273Y-17704234D01*
X13127844Y-17718520D01*
X13142130Y-17747092D01*
X13142130Y-17904234D01*
X13142130Y-17747092D02*
X13156416Y-17718520D01*
X13184987Y-17704234D01*
X13227844Y-17704234D01*
X13256416Y-17718520D01*
X13270701Y-17747092D01*
X13270701Y-17904234D01*
X13856416Y-17589949D02*
X13599273Y-17975663D01*
X14242130Y-17604234D02*
X14270701Y-17604234D01*
X14299273Y-17618520D01*
X14313558Y-17632806D01*
X14327844Y-17661377D01*
X14342130Y-17718520D01*
X14342130Y-17789949D01*
X14327844Y-17847092D01*
X14313558Y-17875663D01*
X14299273Y-17889949D01*
X14270701Y-17904234D01*
X14242130Y-17904234D01*
X14213558Y-17889949D01*
X14199273Y-17875663D01*
X14184987Y-17847092D01*
X14170701Y-17789949D01*
X14170701Y-17718520D01*
X14184987Y-17661377D01*
X14199273Y-17632806D01*
X14213558Y-17618520D01*
X14242130Y-17604234D01*
X14470701Y-17875663D02*
X14484987Y-17889949D01*
X14470701Y-17904234D01*
X14456416Y-17889949D01*
X14470701Y-17875663D01*
X14470701Y-17904234D01*
X14670701Y-17604234D02*
X14699273Y-17604234D01*
X14727844Y-17618520D01*
X14742130Y-17632806D01*
X14756416Y-17661377D01*
X14770701Y-17718520D01*
X14770701Y-17789949D01*
X14756416Y-17847092D01*
X14742130Y-17875663D01*
X14727844Y-17889949D01*
X14699273Y-17904234D01*
X14670701Y-17904234D01*
X14642130Y-17889949D01*
X14627844Y-17875663D01*
X14613558Y-17847092D01*
X14599273Y-17789949D01*
X14599273Y-17718520D01*
X14613558Y-17661377D01*
X14627844Y-17632806D01*
X14642130Y-17618520D01*
X14670701Y-17604234D01*
X15027844Y-17704234D02*
X15027844Y-17904234D01*
X14956416Y-17589949D02*
X14884987Y-17804234D01*
X15070701Y-17804234D01*
X15156416Y-17604234D02*
X15342130Y-17604234D01*
X15242130Y-17718520D01*
X15284987Y-17718520D01*
X15313558Y-17732806D01*
X15327844Y-17747092D01*
X15342130Y-17775663D01*
X15342130Y-17847092D01*
X15327844Y-17875663D01*
X15313558Y-17889949D01*
X15284987Y-17904234D01*
X15199273Y-17904234D01*
X15170701Y-17889949D01*
X15156416Y-17875663D01*
X15456416Y-17604234D02*
X15456416Y-17661377D01*
X15570701Y-17604234D02*
X15570701Y-17661377D01*
X16013558Y-18018520D02*
X15999273Y-18004234D01*
X15970701Y-17961377D01*
X15956416Y-17932806D01*
X15942130Y-17889949D01*
X15927844Y-17818520D01*
X15927844Y-17761377D01*
X15942130Y-17689949D01*
X15956416Y-17647092D01*
X15970701Y-17618520D01*
X15999273Y-17575663D01*
X16013558Y-17561377D01*
X16256416Y-17704234D02*
X16256416Y-17904234D01*
X16184987Y-17589949D02*
X16113558Y-17804234D01*
X16299273Y-17804234D01*
X16642130Y-17904234D02*
X16642130Y-17604234D01*
X16770701Y-17904234D02*
X16770701Y-17747092D01*
X16756416Y-17718520D01*
X16727844Y-17704234D01*
X16684987Y-17704234D01*
X16656416Y-17718520D01*
X16642130Y-17732806D01*
X16956416Y-17904234D02*
X16927844Y-17889949D01*
X16913558Y-17875663D01*
X16899273Y-17847092D01*
X16899273Y-17761377D01*
X16913558Y-17732806D01*
X16927844Y-17718520D01*
X16956416Y-17704234D01*
X16999273Y-17704234D01*
X17027844Y-17718520D01*
X17042130Y-17732806D01*
X17056416Y-17761377D01*
X17056416Y-17847092D01*
X17042130Y-17875663D01*
X17027844Y-17889949D01*
X16999273Y-17904234D01*
X16956416Y-17904234D01*
X17227844Y-17904234D02*
X17199273Y-17889949D01*
X17184987Y-17861377D01*
X17184987Y-17604234D01*
X17456416Y-17889949D02*
X17427844Y-17904234D01*
X17370701Y-17904234D01*
X17342130Y-17889949D01*
X17327844Y-17861377D01*
X17327844Y-17747092D01*
X17342130Y-17718520D01*
X17370701Y-17704234D01*
X17427844Y-17704234D01*
X17456416Y-17718520D01*
X17470701Y-17747092D01*
X17470701Y-17775663D01*
X17327844Y-17804234D01*
X17584987Y-17889949D02*
X17613558Y-17904234D01*
X17670701Y-17904234D01*
X17699273Y-17889949D01*
X17713558Y-17861377D01*
X17713558Y-17847092D01*
X17699273Y-17818520D01*
X17670701Y-17804234D01*
X17627844Y-17804234D01*
X17599273Y-17789949D01*
X17584987Y-17761377D01*
X17584987Y-17747092D01*
X17599273Y-17718520D01*
X17627844Y-17704234D01*
X17670701Y-17704234D01*
X17699273Y-17718520D01*
X17813558Y-18018520D02*
X17827844Y-18004234D01*
X17856416Y-17961377D01*
X17870701Y-17932806D01*
X17884987Y-17889949D01*
X17899273Y-17818520D01*
X17899273Y-17761377D01*
X17884987Y-17689949D01*
X17870701Y-17647092D01*
X17856416Y-17618520D01*
X17827844Y-17575663D01*
X17813558Y-17561377D01*
M02*
