M48
; DRILL file {KiCad (5.1.5)-3} date 10/2/2020 2:33:28 AM
; FORMAT={-:-/ absolute / inch / decimal}
; #@! TF.CreationDate,2020-10-02T02:33:28-04:00
; #@! TF.GenerationSoftware,Kicad,Pcbnew,(5.1.5)-3
; #@! TF.FileFunction,Plated,1,2,PTH
FMAT,2
INCH
T1C0.0138
T2C0.0157
T3C0.0295
T4C0.0315
T5C0.0394
T6C0.0433
%
G90
G05
T1
X4.72Y-4.51
X4.75Y-4.745
X4.825Y-4.625
X5.175Y-5.33
X5.28Y-5.015
X5.305Y-5.455
X5.355Y-4.35
X5.38Y-3.965
X5.38Y-5.15
X5.4Y-3.54
X5.405Y-3.83
X5.43Y-3.745
X5.46Y-4.25
X5.46Y-5.0
X5.485Y-4.45
X5.485Y-5.0
X5.51Y-4.55
X5.51Y-5.0
X5.535Y-4.75
X5.535Y-5.0
X5.56Y-4.7
X5.56Y-5.0
X5.585Y-4.6
X5.585Y-5.0
X5.61Y-4.5
X5.61Y-5.0
X5.635Y-4.4
X5.635Y-5.0
X5.66Y-4.295
X5.66Y-5.0
X5.685Y-5.0
X5.71Y-5.0
X5.74Y-3.98
X5.77Y-3.555
X5.77Y-3.95
X5.8Y-4.8
X5.805Y-3.6
X5.81Y-4.435
X5.82Y-5.215
X5.855Y-3.775
X5.86Y-3.875
X5.86Y-3.925
X5.865Y-3.625
X5.865Y-3.825
X5.865Y-4.335
X5.87Y-3.675
X5.87Y-3.725
X5.87Y-4.05
X5.88Y-4.475
X5.88Y-4.525
X5.9Y-5.26
X5.94Y-3.55
X5.98Y-3.435
X6.0Y-5.3
X6.035Y-4.895
X6.065Y-5.085
X6.095Y-5.34
X6.115Y-4.845
X6.125Y-3.47
X6.145Y-4.34
X6.1585Y-3.4696
X6.165Y-3.73
X6.18Y-3.805
X6.185Y-3.67
X6.2Y-4.03
X6.21Y-5.185
X6.225Y-3.46
X6.225Y-3.935
X6.245Y-4.595
X6.28Y-3.73
X6.31Y-3.67
X6.315Y-3.45
X6.325Y-3.765
X6.33Y-4.03
X6.33Y-4.11
X6.33Y-4.255
X6.375Y-4.815
X6.38Y-3.935
X6.3812Y-4.2938
X6.39Y-4.13
X6.415Y-4.835
X6.445Y-3.5
X6.445Y-5.015
X6.48Y-5.015
X6.515Y-5.015
X6.55Y-5.015
T2
X4.5Y-5.03
X4.5Y-5.11
X4.5Y-5.4931
X4.55Y-4.77
X4.715Y-5.19
X4.75Y-5.5
X4.81Y-4.985
X4.84Y-5.325
X4.915Y-5.12
X4.925Y-5.495
X5.335Y-5.245
X5.525Y-5.45
X5.595Y-5.525
X6.075Y-3.65
X6.075Y-3.75
X6.075Y-3.95
X6.075Y-4.25
X6.075Y-4.45
X6.075Y-4.55
X6.075Y-4.65
X6.075Y-4.75
X6.08Y-3.55
X6.11Y-3.85
X6.125Y-4.0
X6.15Y-3.955
X6.16Y-4.065
X6.235Y-4.8
X6.62Y-5.525
X6.7Y-4.15
X6.7Y-5.5
X6.7021Y-5.0429
T3
X5.3Y-3.275
X5.3Y-3.575
T4
X4.65Y-4.9516
X4.65Y-5.05
X6.025Y-3.5
X6.025Y-3.6
X6.025Y-3.7
X6.025Y-3.8
X6.025Y-3.9
X6.025Y-4.0
X6.025Y-4.1
X6.025Y-4.2
X6.025Y-4.3
X6.025Y-4.4
X6.025Y-4.5
X6.025Y-4.6
X6.625Y-3.5
X6.625Y-3.6
X6.625Y-3.7
X6.625Y-3.8
X6.625Y-3.9
X6.625Y-4.0
X6.625Y-4.1
X6.625Y-4.2
X6.625Y-4.3
X6.625Y-4.4
X6.625Y-4.5
X6.625Y-4.6
X6.025Y-3.5
X6.025Y-3.6
X6.025Y-3.7
X6.025Y-3.8
X6.025Y-3.9
X6.025Y-4.0
X6.025Y-4.1
X6.025Y-4.2
X6.025Y-4.3
X6.025Y-4.4
X6.025Y-4.5
X6.025Y-4.6
X6.025Y-4.7
X6.025Y-4.8
X6.625Y-3.5
X6.625Y-3.6
X6.625Y-3.7
X6.625Y-3.8
X6.625Y-3.9
X6.625Y-4.0
X6.625Y-4.1
X6.625Y-4.2
X6.625Y-4.3
X6.625Y-4.4
X6.625Y-4.5
X6.625Y-4.6
X6.625Y-4.7
X6.625Y-4.8
X4.65Y-3.7
X4.65Y-3.8
X4.65Y-3.9
X4.65Y-4.0
X4.65Y-4.1
X4.65Y-4.2
X4.65Y-4.3
X4.65Y-4.4
X4.65Y-4.5
X4.65Y-4.6
X4.65Y-4.7
X4.65Y-4.8
X5.25Y-3.7
X5.25Y-3.8
X5.25Y-3.9
X5.25Y-4.0
X5.25Y-4.1
X5.25Y-4.2
X5.25Y-4.3
X5.25Y-4.4
X5.25Y-4.5
X5.25Y-4.6
X5.25Y-4.7
X5.25Y-4.8
X5.575Y-3.2516
X5.575Y-3.35
X5.575Y-3.525
X5.575Y-3.6234
T5
X6.025Y-3.35
X6.125Y-3.35
X6.225Y-3.35
X6.325Y-3.35
T6
X4.675Y-3.375
X4.675Y-3.5522
X4.9309Y-3.375
X4.9309Y-3.5522
T0
M30
