G04 #@! TF.GenerationSoftware,KiCad,Pcbnew,(5.1.5)-3*
G04 #@! TF.CreationDate,2020-10-02T02:33:27-04:00*
G04 #@! TF.ProjectId,commodore-326173-01,636f6d6d-6f64-46f7-9265-2d3332363137,rev?*
G04 #@! TF.SameCoordinates,Original*
G04 #@! TF.FileFunction,Legend,Top*
G04 #@! TF.FilePolarity,Positive*
%FSLAX46Y46*%
G04 Gerber Fmt 4.6, Leading zero omitted, Abs format (unit mm)*
G04 Created by KiCad (PCBNEW (5.1.5)-3) date 2020-10-02 02:33:27*
%MOMM*%
%LPD*%
G04 APERTURE LIST*
%ADD10C,0.300000*%
%ADD11C,0.120000*%
%ADD12C,0.010000*%
%ADD13C,0.100000*%
%ADD14C,0.150000*%
G04 APERTURE END LIST*
D10*
X115613571Y-110362428D02*
X114899285Y-110862428D01*
X115613571Y-111219571D02*
X114113571Y-111219571D01*
X114113571Y-110648142D01*
X114185000Y-110505285D01*
X114256428Y-110433857D01*
X114399285Y-110362428D01*
X114613571Y-110362428D01*
X114756428Y-110433857D01*
X114827857Y-110505285D01*
X114899285Y-110648142D01*
X114899285Y-111219571D01*
X114113571Y-109433857D02*
X114113571Y-109148142D01*
X114185000Y-109005285D01*
X114327857Y-108862428D01*
X114613571Y-108791000D01*
X115113571Y-108791000D01*
X115399285Y-108862428D01*
X115542142Y-109005285D01*
X115613571Y-109148142D01*
X115613571Y-109433857D01*
X115542142Y-109576714D01*
X115399285Y-109719571D01*
X115113571Y-109791000D01*
X114613571Y-109791000D01*
X114327857Y-109719571D01*
X114185000Y-109576714D01*
X114113571Y-109433857D01*
X115613571Y-108148142D02*
X114113571Y-108148142D01*
X115185000Y-107648142D01*
X114113571Y-107148142D01*
X115613571Y-107148142D01*
X115613571Y-103291000D02*
X114899285Y-103791000D01*
X115613571Y-104148142D02*
X114113571Y-104148142D01*
X114113571Y-103576714D01*
X114185000Y-103433857D01*
X114256428Y-103362428D01*
X114399285Y-103291000D01*
X114613571Y-103291000D01*
X114756428Y-103362428D01*
X114827857Y-103433857D01*
X114899285Y-103576714D01*
X114899285Y-104148142D01*
X115185000Y-102719571D02*
X115185000Y-102005285D01*
X115613571Y-102862428D02*
X114113571Y-102362428D01*
X115613571Y-101862428D01*
X115613571Y-101362428D02*
X114113571Y-101362428D01*
X115185000Y-100862428D01*
X114113571Y-100362428D01*
X115613571Y-100362428D01*
X119563285Y-82196714D02*
X119491857Y-82268142D01*
X119277571Y-82339571D01*
X119134714Y-82339571D01*
X118920428Y-82268142D01*
X118777571Y-82125285D01*
X118706142Y-81982428D01*
X118634714Y-81696714D01*
X118634714Y-81482428D01*
X118706142Y-81196714D01*
X118777571Y-81053857D01*
X118920428Y-80911000D01*
X119134714Y-80839571D01*
X119277571Y-80839571D01*
X119491857Y-80911000D01*
X119563285Y-80982428D01*
X120491857Y-80839571D02*
X120777571Y-80839571D01*
X120920428Y-80911000D01*
X121063285Y-81053857D01*
X121134714Y-81339571D01*
X121134714Y-81839571D01*
X121063285Y-82125285D01*
X120920428Y-82268142D01*
X120777571Y-82339571D01*
X120491857Y-82339571D01*
X120349000Y-82268142D01*
X120206142Y-82125285D01*
X120134714Y-81839571D01*
X120134714Y-81339571D01*
X120206142Y-81053857D01*
X120349000Y-80911000D01*
X120491857Y-80839571D01*
X121777571Y-82339571D02*
X121777571Y-80839571D01*
X122277571Y-81911000D01*
X122777571Y-80839571D01*
X122777571Y-82339571D01*
X123491857Y-82339571D02*
X123491857Y-80839571D01*
X123991857Y-81911000D01*
X124491857Y-80839571D01*
X124491857Y-82339571D01*
X125491857Y-80839571D02*
X125777571Y-80839571D01*
X125920428Y-80911000D01*
X126063285Y-81053857D01*
X126134714Y-81339571D01*
X126134714Y-81839571D01*
X126063285Y-82125285D01*
X125920428Y-82268142D01*
X125777571Y-82339571D01*
X125491857Y-82339571D01*
X125349000Y-82268142D01*
X125206142Y-82125285D01*
X125134714Y-81839571D01*
X125134714Y-81339571D01*
X125206142Y-81053857D01*
X125349000Y-80911000D01*
X125491857Y-80839571D01*
X126777571Y-82339571D02*
X126777571Y-80839571D01*
X127134714Y-80839571D01*
X127349000Y-80911000D01*
X127491857Y-81053857D01*
X127563285Y-81196714D01*
X127634714Y-81482428D01*
X127634714Y-81696714D01*
X127563285Y-81982428D01*
X127491857Y-82125285D01*
X127349000Y-82268142D01*
X127134714Y-82339571D01*
X126777571Y-82339571D01*
X128563285Y-80839571D02*
X128849000Y-80839571D01*
X128991857Y-80911000D01*
X129134714Y-81053857D01*
X129206142Y-81339571D01*
X129206142Y-81839571D01*
X129134714Y-82125285D01*
X128991857Y-82268142D01*
X128849000Y-82339571D01*
X128563285Y-82339571D01*
X128420428Y-82268142D01*
X128277571Y-82125285D01*
X128206142Y-81839571D01*
X128206142Y-81339571D01*
X128277571Y-81053857D01*
X128420428Y-80911000D01*
X128563285Y-80839571D01*
X130706142Y-82339571D02*
X130206142Y-81625285D01*
X129849000Y-82339571D02*
X129849000Y-80839571D01*
X130420428Y-80839571D01*
X130563285Y-80911000D01*
X130634714Y-80982428D01*
X130706142Y-81125285D01*
X130706142Y-81339571D01*
X130634714Y-81482428D01*
X130563285Y-81553857D01*
X130420428Y-81625285D01*
X129849000Y-81625285D01*
X131349000Y-81553857D02*
X131849000Y-81553857D01*
X132063285Y-82339571D02*
X131349000Y-82339571D01*
X131349000Y-80839571D01*
X132063285Y-80839571D01*
X144662142Y-81911000D02*
X145376428Y-81911000D01*
X144519285Y-82339571D02*
X145019285Y-80839571D01*
X145519285Y-82339571D01*
X145947857Y-82268142D02*
X146162142Y-82339571D01*
X146519285Y-82339571D01*
X146662142Y-82268142D01*
X146733571Y-82196714D01*
X146805000Y-82053857D01*
X146805000Y-81911000D01*
X146733571Y-81768142D01*
X146662142Y-81696714D01*
X146519285Y-81625285D01*
X146233571Y-81553857D01*
X146090714Y-81482428D01*
X146019285Y-81411000D01*
X145947857Y-81268142D01*
X145947857Y-81125285D01*
X146019285Y-80982428D01*
X146090714Y-80911000D01*
X146233571Y-80839571D01*
X146590714Y-80839571D01*
X146805000Y-80911000D01*
X147376428Y-82268142D02*
X147590714Y-82339571D01*
X147947857Y-82339571D01*
X148090714Y-82268142D01*
X148162142Y-82196714D01*
X148233571Y-82053857D01*
X148233571Y-81911000D01*
X148162142Y-81768142D01*
X148090714Y-81696714D01*
X147947857Y-81625285D01*
X147662142Y-81553857D01*
X147519285Y-81482428D01*
X147447857Y-81411000D01*
X147376428Y-81268142D01*
X147376428Y-81125285D01*
X147447857Y-80982428D01*
X147519285Y-80911000D01*
X147662142Y-80839571D01*
X148019285Y-80839571D01*
X148233571Y-80911000D01*
X149162142Y-81625285D02*
X149162142Y-82339571D01*
X148662142Y-80839571D02*
X149162142Y-81625285D01*
X149662142Y-80839571D01*
X151162142Y-80839571D02*
X152090714Y-80839571D01*
X151590714Y-81411000D01*
X151805000Y-81411000D01*
X151947857Y-81482428D01*
X152019285Y-81553857D01*
X152090714Y-81696714D01*
X152090714Y-82053857D01*
X152019285Y-82196714D01*
X151947857Y-82268142D01*
X151805000Y-82339571D01*
X151376428Y-82339571D01*
X151233571Y-82268142D01*
X151162142Y-82196714D01*
X152662142Y-80982428D02*
X152733571Y-80911000D01*
X152876428Y-80839571D01*
X153233571Y-80839571D01*
X153376428Y-80911000D01*
X153447857Y-80982428D01*
X153519285Y-81125285D01*
X153519285Y-81268142D01*
X153447857Y-81482428D01*
X152590714Y-82339571D01*
X153519285Y-82339571D01*
X154805000Y-80839571D02*
X154519285Y-80839571D01*
X154376428Y-80911000D01*
X154305000Y-80982428D01*
X154162142Y-81196714D01*
X154090714Y-81482428D01*
X154090714Y-82053857D01*
X154162142Y-82196714D01*
X154233571Y-82268142D01*
X154376428Y-82339571D01*
X154662142Y-82339571D01*
X154805000Y-82268142D01*
X154876428Y-82196714D01*
X154947857Y-82053857D01*
X154947857Y-81696714D01*
X154876428Y-81553857D01*
X154805000Y-81482428D01*
X154662142Y-81411000D01*
X154376428Y-81411000D01*
X154233571Y-81482428D01*
X154162142Y-81553857D01*
X154090714Y-81696714D01*
X156376428Y-82339571D02*
X155519285Y-82339571D01*
X155947857Y-82339571D02*
X155947857Y-80839571D01*
X155805000Y-81053857D01*
X155662142Y-81196714D01*
X155519285Y-81268142D01*
X156876428Y-80839571D02*
X157876428Y-80839571D01*
X157233571Y-82339571D01*
X158305000Y-80839571D02*
X159233571Y-80839571D01*
X158733571Y-81411000D01*
X158947857Y-81411000D01*
X159090714Y-81482428D01*
X159162142Y-81553857D01*
X159233571Y-81696714D01*
X159233571Y-82053857D01*
X159162142Y-82196714D01*
X159090714Y-82268142D01*
X158947857Y-82339571D01*
X158519285Y-82339571D01*
X158376428Y-82268142D01*
X158305000Y-82196714D01*
X159876428Y-81768142D02*
X161019285Y-81768142D01*
X162019285Y-80839571D02*
X162162142Y-80839571D01*
X162305000Y-80911000D01*
X162376428Y-80982428D01*
X162447857Y-81125285D01*
X162519285Y-81411000D01*
X162519285Y-81768142D01*
X162447857Y-82053857D01*
X162376428Y-82196714D01*
X162305000Y-82268142D01*
X162162142Y-82339571D01*
X162019285Y-82339571D01*
X161876428Y-82268142D01*
X161805000Y-82196714D01*
X161733571Y-82053857D01*
X161662142Y-81768142D01*
X161662142Y-81411000D01*
X161733571Y-81125285D01*
X161805000Y-80982428D01*
X161876428Y-80911000D01*
X162019285Y-80839571D01*
X163947857Y-82339571D02*
X163090714Y-82339571D01*
X163519285Y-82339571D02*
X163519285Y-80839571D01*
X163376428Y-81053857D01*
X163233571Y-81196714D01*
X163090714Y-81268142D01*
D11*
X159655000Y-118170000D02*
G75*
G02X161655000Y-118170000I1000000J0D01*
G01*
X161655000Y-118170000D02*
X167115000Y-118170000D01*
X167115000Y-118170000D02*
X167115000Y-87570000D01*
X167115000Y-87570000D02*
X154195000Y-87570000D01*
X154195000Y-87570000D02*
X154195000Y-118170000D01*
X154195000Y-118170000D02*
X159655000Y-118170000D01*
D12*
G36*
X167814814Y-81288931D02*
G01*
X167898635Y-81733555D01*
X168207920Y-81861053D01*
X168517206Y-81988551D01*
X168888246Y-81736246D01*
X168992157Y-81665996D01*
X169086087Y-81603272D01*
X169165652Y-81550938D01*
X169226470Y-81511857D01*
X169264157Y-81488893D01*
X169274421Y-81483942D01*
X169292910Y-81496676D01*
X169332420Y-81531882D01*
X169388522Y-81585062D01*
X169456787Y-81651718D01*
X169532786Y-81727354D01*
X169612092Y-81807472D01*
X169690275Y-81887574D01*
X169762907Y-81963164D01*
X169825559Y-82029745D01*
X169873803Y-82082818D01*
X169903210Y-82117887D01*
X169910241Y-82129623D01*
X169900123Y-82151260D01*
X169871759Y-82198662D01*
X169828129Y-82267193D01*
X169772218Y-82352215D01*
X169707006Y-82449093D01*
X169669219Y-82504350D01*
X169600343Y-82605248D01*
X169539140Y-82696299D01*
X169488578Y-82772970D01*
X169451628Y-82830728D01*
X169431258Y-82865043D01*
X169428197Y-82872254D01*
X169435136Y-82892748D01*
X169454051Y-82940513D01*
X169482087Y-83008832D01*
X169516391Y-83090989D01*
X169554109Y-83180270D01*
X169592387Y-83269958D01*
X169628370Y-83353338D01*
X169659206Y-83423694D01*
X169682039Y-83474310D01*
X169694017Y-83498471D01*
X169694724Y-83499422D01*
X169713531Y-83504036D01*
X169763618Y-83514328D01*
X169839793Y-83529287D01*
X169936865Y-83547901D01*
X170049643Y-83569159D01*
X170115442Y-83581418D01*
X170235950Y-83604362D01*
X170344797Y-83626195D01*
X170436476Y-83645722D01*
X170505481Y-83661748D01*
X170546304Y-83673079D01*
X170554511Y-83676674D01*
X170562548Y-83701006D01*
X170569033Y-83755959D01*
X170573970Y-83835108D01*
X170577364Y-83932026D01*
X170579218Y-84040287D01*
X170579538Y-84153465D01*
X170578327Y-84265135D01*
X170575590Y-84368868D01*
X170571331Y-84458241D01*
X170565555Y-84526826D01*
X170558267Y-84568197D01*
X170553895Y-84576810D01*
X170527764Y-84587133D01*
X170472393Y-84601892D01*
X170395107Y-84619352D01*
X170303230Y-84637780D01*
X170271158Y-84643741D01*
X170116524Y-84672066D01*
X169994375Y-84694876D01*
X169900673Y-84713080D01*
X169831384Y-84727583D01*
X169782471Y-84739292D01*
X169749897Y-84749115D01*
X169729628Y-84757956D01*
X169717626Y-84766724D01*
X169715947Y-84768457D01*
X169699184Y-84796371D01*
X169673614Y-84850695D01*
X169641788Y-84924777D01*
X169606260Y-85011965D01*
X169569583Y-85105608D01*
X169534311Y-85199052D01*
X169502996Y-85285647D01*
X169478193Y-85358740D01*
X169462454Y-85411678D01*
X169458332Y-85437811D01*
X169458676Y-85438726D01*
X169472641Y-85460086D01*
X169504322Y-85507084D01*
X169550391Y-85574827D01*
X169607518Y-85658423D01*
X169672373Y-85752982D01*
X169690843Y-85779854D01*
X169756699Y-85877275D01*
X169814650Y-85966163D01*
X169861538Y-86041412D01*
X169894207Y-86097920D01*
X169909500Y-86130581D01*
X169910241Y-86134593D01*
X169897392Y-86155684D01*
X169861888Y-86197464D01*
X169808293Y-86255445D01*
X169741171Y-86325135D01*
X169665087Y-86402045D01*
X169584604Y-86481683D01*
X169504287Y-86559561D01*
X169428699Y-86631186D01*
X169362405Y-86692070D01*
X169309969Y-86737721D01*
X169275955Y-86763650D01*
X169266545Y-86767883D01*
X169244643Y-86757912D01*
X169199800Y-86731020D01*
X169139321Y-86691736D01*
X169092789Y-86660117D01*
X169008475Y-86602098D01*
X168908626Y-86533784D01*
X168808473Y-86465579D01*
X168754627Y-86429075D01*
X168572371Y-86305800D01*
X168419381Y-86388520D01*
X168349682Y-86424759D01*
X168290414Y-86452926D01*
X168250311Y-86468991D01*
X168240103Y-86471226D01*
X168227829Y-86454722D01*
X168203613Y-86408082D01*
X168169263Y-86335609D01*
X168126588Y-86241606D01*
X168077394Y-86130374D01*
X168023490Y-86006215D01*
X167966684Y-85873432D01*
X167908782Y-85736327D01*
X167851593Y-85599202D01*
X167796924Y-85466358D01*
X167746584Y-85342098D01*
X167702380Y-85230725D01*
X167666119Y-85136539D01*
X167639609Y-85063844D01*
X167624658Y-85016941D01*
X167622254Y-85000833D01*
X167641311Y-84980286D01*
X167683036Y-84946933D01*
X167738706Y-84907702D01*
X167743378Y-84904599D01*
X167887264Y-84789423D01*
X168003283Y-84655053D01*
X168090430Y-84505784D01*
X168147699Y-84345913D01*
X168174086Y-84179737D01*
X168168585Y-84011552D01*
X168130190Y-83845655D01*
X168057895Y-83686342D01*
X168036626Y-83651487D01*
X167925996Y-83510737D01*
X167795302Y-83397714D01*
X167649064Y-83313003D01*
X167491808Y-83257194D01*
X167328057Y-83230874D01*
X167162333Y-83234630D01*
X166999162Y-83269050D01*
X166843065Y-83334723D01*
X166698567Y-83432235D01*
X166653869Y-83471813D01*
X166540112Y-83595703D01*
X166457218Y-83726124D01*
X166400356Y-83872315D01*
X166368687Y-84017088D01*
X166360869Y-84179860D01*
X166386938Y-84343440D01*
X166444245Y-84502298D01*
X166530144Y-84650906D01*
X166641986Y-84783735D01*
X166777123Y-84895256D01*
X166794883Y-84907011D01*
X166851150Y-84945508D01*
X166893923Y-84978863D01*
X166914372Y-85000160D01*
X166914669Y-85000833D01*
X166910279Y-85023871D01*
X166892876Y-85076157D01*
X166864268Y-85153390D01*
X166826265Y-85251268D01*
X166780674Y-85365491D01*
X166729303Y-85491758D01*
X166673962Y-85625767D01*
X166616458Y-85763218D01*
X166558601Y-85899808D01*
X166502198Y-86031237D01*
X166449058Y-86153205D01*
X166400990Y-86261409D01*
X166359801Y-86351549D01*
X166327301Y-86419323D01*
X166305297Y-86460430D01*
X166296436Y-86471226D01*
X166269360Y-86462819D01*
X166218697Y-86440272D01*
X166153183Y-86407613D01*
X166117159Y-86388520D01*
X165964168Y-86305800D01*
X165781912Y-86429075D01*
X165688875Y-86492228D01*
X165587015Y-86561727D01*
X165491562Y-86627165D01*
X165443750Y-86660117D01*
X165376505Y-86705273D01*
X165319564Y-86741057D01*
X165280354Y-86762938D01*
X165267619Y-86767563D01*
X165249083Y-86755085D01*
X165208059Y-86720252D01*
X165148525Y-86666678D01*
X165074458Y-86597983D01*
X164989835Y-86517781D01*
X164936315Y-86466286D01*
X164842681Y-86374286D01*
X164761759Y-86291999D01*
X164696823Y-86222945D01*
X164651142Y-86170644D01*
X164627989Y-86138616D01*
X164625768Y-86132116D01*
X164636076Y-86107394D01*
X164664561Y-86057405D01*
X164708063Y-85987212D01*
X164763423Y-85901875D01*
X164827480Y-85806456D01*
X164845697Y-85779854D01*
X164912073Y-85683167D01*
X164971622Y-85596117D01*
X165021016Y-85523595D01*
X165056925Y-85470493D01*
X165076019Y-85441703D01*
X165077864Y-85438726D01*
X165075105Y-85415782D01*
X165060462Y-85365336D01*
X165036487Y-85294041D01*
X165005734Y-85208547D01*
X164970756Y-85115507D01*
X164934107Y-85021574D01*
X164898339Y-84933399D01*
X164866006Y-84857634D01*
X164839662Y-84800931D01*
X164821858Y-84769943D01*
X164820593Y-84768457D01*
X164809706Y-84759601D01*
X164791318Y-84750843D01*
X164761394Y-84741277D01*
X164715897Y-84729996D01*
X164650791Y-84716093D01*
X164562039Y-84698663D01*
X164445607Y-84676798D01*
X164297458Y-84649591D01*
X164265382Y-84643741D01*
X164170314Y-84625374D01*
X164087435Y-84607405D01*
X164024070Y-84591569D01*
X163987542Y-84579600D01*
X163982644Y-84576810D01*
X163974573Y-84552072D01*
X163968013Y-84496790D01*
X163962967Y-84417389D01*
X163959441Y-84320296D01*
X163957439Y-84211938D01*
X163956964Y-84098740D01*
X163958023Y-83987128D01*
X163960618Y-83883529D01*
X163964754Y-83794368D01*
X163970437Y-83726072D01*
X163977669Y-83685066D01*
X163982029Y-83676674D01*
X164006302Y-83668208D01*
X164061574Y-83654435D01*
X164142338Y-83636550D01*
X164243088Y-83615748D01*
X164358317Y-83593223D01*
X164421098Y-83581418D01*
X164540213Y-83559151D01*
X164646435Y-83538979D01*
X164734573Y-83521915D01*
X164799434Y-83508969D01*
X164835826Y-83501155D01*
X164841816Y-83499422D01*
X164851939Y-83479890D01*
X164873338Y-83432843D01*
X164903161Y-83365003D01*
X164938555Y-83283091D01*
X164976668Y-83193828D01*
X165014647Y-83103935D01*
X165049640Y-83020135D01*
X165078794Y-82949147D01*
X165099257Y-82897694D01*
X165108177Y-82872497D01*
X165108343Y-82871396D01*
X165098231Y-82851519D01*
X165069883Y-82805777D01*
X165026277Y-82738717D01*
X164970394Y-82654884D01*
X164905213Y-82558826D01*
X164867321Y-82503650D01*
X164798275Y-82402481D01*
X164736950Y-82310630D01*
X164686337Y-82232744D01*
X164649429Y-82173469D01*
X164629218Y-82137451D01*
X164626299Y-82129377D01*
X164638847Y-82110584D01*
X164673537Y-82070457D01*
X164725937Y-82013493D01*
X164791616Y-81944185D01*
X164866144Y-81867031D01*
X164945087Y-81786525D01*
X165024017Y-81707163D01*
X165098500Y-81633440D01*
X165164106Y-81569852D01*
X165216404Y-81520894D01*
X165250961Y-81491061D01*
X165262522Y-81483942D01*
X165281346Y-81493953D01*
X165326369Y-81522078D01*
X165393213Y-81565454D01*
X165477501Y-81621218D01*
X165574856Y-81686506D01*
X165648293Y-81736246D01*
X166019333Y-81988551D01*
X166637905Y-81733555D01*
X166721725Y-81288931D01*
X166805546Y-80844307D01*
X167730994Y-80844307D01*
X167814814Y-81288931D01*
G37*
X167814814Y-81288931D02*
X167898635Y-81733555D01*
X168207920Y-81861053D01*
X168517206Y-81988551D01*
X168888246Y-81736246D01*
X168992157Y-81665996D01*
X169086087Y-81603272D01*
X169165652Y-81550938D01*
X169226470Y-81511857D01*
X169264157Y-81488893D01*
X169274421Y-81483942D01*
X169292910Y-81496676D01*
X169332420Y-81531882D01*
X169388522Y-81585062D01*
X169456787Y-81651718D01*
X169532786Y-81727354D01*
X169612092Y-81807472D01*
X169690275Y-81887574D01*
X169762907Y-81963164D01*
X169825559Y-82029745D01*
X169873803Y-82082818D01*
X169903210Y-82117887D01*
X169910241Y-82129623D01*
X169900123Y-82151260D01*
X169871759Y-82198662D01*
X169828129Y-82267193D01*
X169772218Y-82352215D01*
X169707006Y-82449093D01*
X169669219Y-82504350D01*
X169600343Y-82605248D01*
X169539140Y-82696299D01*
X169488578Y-82772970D01*
X169451628Y-82830728D01*
X169431258Y-82865043D01*
X169428197Y-82872254D01*
X169435136Y-82892748D01*
X169454051Y-82940513D01*
X169482087Y-83008832D01*
X169516391Y-83090989D01*
X169554109Y-83180270D01*
X169592387Y-83269958D01*
X169628370Y-83353338D01*
X169659206Y-83423694D01*
X169682039Y-83474310D01*
X169694017Y-83498471D01*
X169694724Y-83499422D01*
X169713531Y-83504036D01*
X169763618Y-83514328D01*
X169839793Y-83529287D01*
X169936865Y-83547901D01*
X170049643Y-83569159D01*
X170115442Y-83581418D01*
X170235950Y-83604362D01*
X170344797Y-83626195D01*
X170436476Y-83645722D01*
X170505481Y-83661748D01*
X170546304Y-83673079D01*
X170554511Y-83676674D01*
X170562548Y-83701006D01*
X170569033Y-83755959D01*
X170573970Y-83835108D01*
X170577364Y-83932026D01*
X170579218Y-84040287D01*
X170579538Y-84153465D01*
X170578327Y-84265135D01*
X170575590Y-84368868D01*
X170571331Y-84458241D01*
X170565555Y-84526826D01*
X170558267Y-84568197D01*
X170553895Y-84576810D01*
X170527764Y-84587133D01*
X170472393Y-84601892D01*
X170395107Y-84619352D01*
X170303230Y-84637780D01*
X170271158Y-84643741D01*
X170116524Y-84672066D01*
X169994375Y-84694876D01*
X169900673Y-84713080D01*
X169831384Y-84727583D01*
X169782471Y-84739292D01*
X169749897Y-84749115D01*
X169729628Y-84757956D01*
X169717626Y-84766724D01*
X169715947Y-84768457D01*
X169699184Y-84796371D01*
X169673614Y-84850695D01*
X169641788Y-84924777D01*
X169606260Y-85011965D01*
X169569583Y-85105608D01*
X169534311Y-85199052D01*
X169502996Y-85285647D01*
X169478193Y-85358740D01*
X169462454Y-85411678D01*
X169458332Y-85437811D01*
X169458676Y-85438726D01*
X169472641Y-85460086D01*
X169504322Y-85507084D01*
X169550391Y-85574827D01*
X169607518Y-85658423D01*
X169672373Y-85752982D01*
X169690843Y-85779854D01*
X169756699Y-85877275D01*
X169814650Y-85966163D01*
X169861538Y-86041412D01*
X169894207Y-86097920D01*
X169909500Y-86130581D01*
X169910241Y-86134593D01*
X169897392Y-86155684D01*
X169861888Y-86197464D01*
X169808293Y-86255445D01*
X169741171Y-86325135D01*
X169665087Y-86402045D01*
X169584604Y-86481683D01*
X169504287Y-86559561D01*
X169428699Y-86631186D01*
X169362405Y-86692070D01*
X169309969Y-86737721D01*
X169275955Y-86763650D01*
X169266545Y-86767883D01*
X169244643Y-86757912D01*
X169199800Y-86731020D01*
X169139321Y-86691736D01*
X169092789Y-86660117D01*
X169008475Y-86602098D01*
X168908626Y-86533784D01*
X168808473Y-86465579D01*
X168754627Y-86429075D01*
X168572371Y-86305800D01*
X168419381Y-86388520D01*
X168349682Y-86424759D01*
X168290414Y-86452926D01*
X168250311Y-86468991D01*
X168240103Y-86471226D01*
X168227829Y-86454722D01*
X168203613Y-86408082D01*
X168169263Y-86335609D01*
X168126588Y-86241606D01*
X168077394Y-86130374D01*
X168023490Y-86006215D01*
X167966684Y-85873432D01*
X167908782Y-85736327D01*
X167851593Y-85599202D01*
X167796924Y-85466358D01*
X167746584Y-85342098D01*
X167702380Y-85230725D01*
X167666119Y-85136539D01*
X167639609Y-85063844D01*
X167624658Y-85016941D01*
X167622254Y-85000833D01*
X167641311Y-84980286D01*
X167683036Y-84946933D01*
X167738706Y-84907702D01*
X167743378Y-84904599D01*
X167887264Y-84789423D01*
X168003283Y-84655053D01*
X168090430Y-84505784D01*
X168147699Y-84345913D01*
X168174086Y-84179737D01*
X168168585Y-84011552D01*
X168130190Y-83845655D01*
X168057895Y-83686342D01*
X168036626Y-83651487D01*
X167925996Y-83510737D01*
X167795302Y-83397714D01*
X167649064Y-83313003D01*
X167491808Y-83257194D01*
X167328057Y-83230874D01*
X167162333Y-83234630D01*
X166999162Y-83269050D01*
X166843065Y-83334723D01*
X166698567Y-83432235D01*
X166653869Y-83471813D01*
X166540112Y-83595703D01*
X166457218Y-83726124D01*
X166400356Y-83872315D01*
X166368687Y-84017088D01*
X166360869Y-84179860D01*
X166386938Y-84343440D01*
X166444245Y-84502298D01*
X166530144Y-84650906D01*
X166641986Y-84783735D01*
X166777123Y-84895256D01*
X166794883Y-84907011D01*
X166851150Y-84945508D01*
X166893923Y-84978863D01*
X166914372Y-85000160D01*
X166914669Y-85000833D01*
X166910279Y-85023871D01*
X166892876Y-85076157D01*
X166864268Y-85153390D01*
X166826265Y-85251268D01*
X166780674Y-85365491D01*
X166729303Y-85491758D01*
X166673962Y-85625767D01*
X166616458Y-85763218D01*
X166558601Y-85899808D01*
X166502198Y-86031237D01*
X166449058Y-86153205D01*
X166400990Y-86261409D01*
X166359801Y-86351549D01*
X166327301Y-86419323D01*
X166305297Y-86460430D01*
X166296436Y-86471226D01*
X166269360Y-86462819D01*
X166218697Y-86440272D01*
X166153183Y-86407613D01*
X166117159Y-86388520D01*
X165964168Y-86305800D01*
X165781912Y-86429075D01*
X165688875Y-86492228D01*
X165587015Y-86561727D01*
X165491562Y-86627165D01*
X165443750Y-86660117D01*
X165376505Y-86705273D01*
X165319564Y-86741057D01*
X165280354Y-86762938D01*
X165267619Y-86767563D01*
X165249083Y-86755085D01*
X165208059Y-86720252D01*
X165148525Y-86666678D01*
X165074458Y-86597983D01*
X164989835Y-86517781D01*
X164936315Y-86466286D01*
X164842681Y-86374286D01*
X164761759Y-86291999D01*
X164696823Y-86222945D01*
X164651142Y-86170644D01*
X164627989Y-86138616D01*
X164625768Y-86132116D01*
X164636076Y-86107394D01*
X164664561Y-86057405D01*
X164708063Y-85987212D01*
X164763423Y-85901875D01*
X164827480Y-85806456D01*
X164845697Y-85779854D01*
X164912073Y-85683167D01*
X164971622Y-85596117D01*
X165021016Y-85523595D01*
X165056925Y-85470493D01*
X165076019Y-85441703D01*
X165077864Y-85438726D01*
X165075105Y-85415782D01*
X165060462Y-85365336D01*
X165036487Y-85294041D01*
X165005734Y-85208547D01*
X164970756Y-85115507D01*
X164934107Y-85021574D01*
X164898339Y-84933399D01*
X164866006Y-84857634D01*
X164839662Y-84800931D01*
X164821858Y-84769943D01*
X164820593Y-84768457D01*
X164809706Y-84759601D01*
X164791318Y-84750843D01*
X164761394Y-84741277D01*
X164715897Y-84729996D01*
X164650791Y-84716093D01*
X164562039Y-84698663D01*
X164445607Y-84676798D01*
X164297458Y-84649591D01*
X164265382Y-84643741D01*
X164170314Y-84625374D01*
X164087435Y-84607405D01*
X164024070Y-84591569D01*
X163987542Y-84579600D01*
X163982644Y-84576810D01*
X163974573Y-84552072D01*
X163968013Y-84496790D01*
X163962967Y-84417389D01*
X163959441Y-84320296D01*
X163957439Y-84211938D01*
X163956964Y-84098740D01*
X163958023Y-83987128D01*
X163960618Y-83883529D01*
X163964754Y-83794368D01*
X163970437Y-83726072D01*
X163977669Y-83685066D01*
X163982029Y-83676674D01*
X164006302Y-83668208D01*
X164061574Y-83654435D01*
X164142338Y-83636550D01*
X164243088Y-83615748D01*
X164358317Y-83593223D01*
X164421098Y-83581418D01*
X164540213Y-83559151D01*
X164646435Y-83538979D01*
X164734573Y-83521915D01*
X164799434Y-83508969D01*
X164835826Y-83501155D01*
X164841816Y-83499422D01*
X164851939Y-83479890D01*
X164873338Y-83432843D01*
X164903161Y-83365003D01*
X164938555Y-83283091D01*
X164976668Y-83193828D01*
X165014647Y-83103935D01*
X165049640Y-83020135D01*
X165078794Y-82949147D01*
X165099257Y-82897694D01*
X165108177Y-82872497D01*
X165108343Y-82871396D01*
X165098231Y-82851519D01*
X165069883Y-82805777D01*
X165026277Y-82738717D01*
X164970394Y-82654884D01*
X164905213Y-82558826D01*
X164867321Y-82503650D01*
X164798275Y-82402481D01*
X164736950Y-82310630D01*
X164686337Y-82232744D01*
X164649429Y-82173469D01*
X164629218Y-82137451D01*
X164626299Y-82129377D01*
X164638847Y-82110584D01*
X164673537Y-82070457D01*
X164725937Y-82013493D01*
X164791616Y-81944185D01*
X164866144Y-81867031D01*
X164945087Y-81786525D01*
X165024017Y-81707163D01*
X165098500Y-81633440D01*
X165164106Y-81569852D01*
X165216404Y-81520894D01*
X165250961Y-81491061D01*
X165262522Y-81483942D01*
X165281346Y-81493953D01*
X165326369Y-81522078D01*
X165393213Y-81565454D01*
X165477501Y-81621218D01*
X165574856Y-81686506D01*
X165648293Y-81736246D01*
X166019333Y-81988551D01*
X166637905Y-81733555D01*
X166721725Y-81288931D01*
X166805546Y-80844307D01*
X167730994Y-80844307D01*
X167814814Y-81288931D01*
D11*
X120730000Y-127020000D02*
G75*
G03X120730000Y-127020000I-2620000J0D01*
G01*
X115530000Y-127020000D02*
X120690000Y-127020000D01*
X115530000Y-126980000D02*
X120690000Y-126980000D01*
X115531000Y-126940000D02*
X120689000Y-126940000D01*
X115532000Y-126900000D02*
X120688000Y-126900000D01*
X115534000Y-126860000D02*
X120686000Y-126860000D01*
X115537000Y-126820000D02*
X120683000Y-126820000D01*
X115541000Y-126780000D02*
X117070000Y-126780000D01*
X119150000Y-126780000D02*
X120679000Y-126780000D01*
X115545000Y-126740000D02*
X117070000Y-126740000D01*
X119150000Y-126740000D02*
X120675000Y-126740000D01*
X115549000Y-126700000D02*
X117070000Y-126700000D01*
X119150000Y-126700000D02*
X120671000Y-126700000D01*
X115554000Y-126660000D02*
X117070000Y-126660000D01*
X119150000Y-126660000D02*
X120666000Y-126660000D01*
X115560000Y-126620000D02*
X117070000Y-126620000D01*
X119150000Y-126620000D02*
X120660000Y-126620000D01*
X115567000Y-126580000D02*
X117070000Y-126580000D01*
X119150000Y-126580000D02*
X120653000Y-126580000D01*
X115574000Y-126540000D02*
X117070000Y-126540000D01*
X119150000Y-126540000D02*
X120646000Y-126540000D01*
X115582000Y-126500000D02*
X117070000Y-126500000D01*
X119150000Y-126500000D02*
X120638000Y-126500000D01*
X115590000Y-126460000D02*
X117070000Y-126460000D01*
X119150000Y-126460000D02*
X120630000Y-126460000D01*
X115599000Y-126420000D02*
X117070000Y-126420000D01*
X119150000Y-126420000D02*
X120621000Y-126420000D01*
X115609000Y-126380000D02*
X117070000Y-126380000D01*
X119150000Y-126380000D02*
X120611000Y-126380000D01*
X115619000Y-126340000D02*
X117070000Y-126340000D01*
X119150000Y-126340000D02*
X120601000Y-126340000D01*
X115630000Y-126299000D02*
X117070000Y-126299000D01*
X119150000Y-126299000D02*
X120590000Y-126299000D01*
X115642000Y-126259000D02*
X117070000Y-126259000D01*
X119150000Y-126259000D02*
X120578000Y-126259000D01*
X115655000Y-126219000D02*
X117070000Y-126219000D01*
X119150000Y-126219000D02*
X120565000Y-126219000D01*
X115668000Y-126179000D02*
X117070000Y-126179000D01*
X119150000Y-126179000D02*
X120552000Y-126179000D01*
X115682000Y-126139000D02*
X117070000Y-126139000D01*
X119150000Y-126139000D02*
X120538000Y-126139000D01*
X115696000Y-126099000D02*
X117070000Y-126099000D01*
X119150000Y-126099000D02*
X120524000Y-126099000D01*
X115712000Y-126059000D02*
X117070000Y-126059000D01*
X119150000Y-126059000D02*
X120508000Y-126059000D01*
X115728000Y-126019000D02*
X117070000Y-126019000D01*
X119150000Y-126019000D02*
X120492000Y-126019000D01*
X115745000Y-125979000D02*
X117070000Y-125979000D01*
X119150000Y-125979000D02*
X120475000Y-125979000D01*
X115762000Y-125939000D02*
X117070000Y-125939000D01*
X119150000Y-125939000D02*
X120458000Y-125939000D01*
X115781000Y-125899000D02*
X117070000Y-125899000D01*
X119150000Y-125899000D02*
X120439000Y-125899000D01*
X115800000Y-125859000D02*
X117070000Y-125859000D01*
X119150000Y-125859000D02*
X120420000Y-125859000D01*
X115820000Y-125819000D02*
X117070000Y-125819000D01*
X119150000Y-125819000D02*
X120400000Y-125819000D01*
X115842000Y-125779000D02*
X117070000Y-125779000D01*
X119150000Y-125779000D02*
X120378000Y-125779000D01*
X115863000Y-125739000D02*
X117070000Y-125739000D01*
X119150000Y-125739000D02*
X120357000Y-125739000D01*
X115886000Y-125699000D02*
X117070000Y-125699000D01*
X119150000Y-125699000D02*
X120334000Y-125699000D01*
X115910000Y-125659000D02*
X117070000Y-125659000D01*
X119150000Y-125659000D02*
X120310000Y-125659000D01*
X115935000Y-125619000D02*
X117070000Y-125619000D01*
X119150000Y-125619000D02*
X120285000Y-125619000D01*
X115961000Y-125579000D02*
X117070000Y-125579000D01*
X119150000Y-125579000D02*
X120259000Y-125579000D01*
X115988000Y-125539000D02*
X117070000Y-125539000D01*
X119150000Y-125539000D02*
X120232000Y-125539000D01*
X116015000Y-125499000D02*
X117070000Y-125499000D01*
X119150000Y-125499000D02*
X120205000Y-125499000D01*
X116045000Y-125459000D02*
X117070000Y-125459000D01*
X119150000Y-125459000D02*
X120175000Y-125459000D01*
X116075000Y-125419000D02*
X117070000Y-125419000D01*
X119150000Y-125419000D02*
X120145000Y-125419000D01*
X116106000Y-125379000D02*
X117070000Y-125379000D01*
X119150000Y-125379000D02*
X120114000Y-125379000D01*
X116139000Y-125339000D02*
X117070000Y-125339000D01*
X119150000Y-125339000D02*
X120081000Y-125339000D01*
X116173000Y-125299000D02*
X117070000Y-125299000D01*
X119150000Y-125299000D02*
X120047000Y-125299000D01*
X116209000Y-125259000D02*
X117070000Y-125259000D01*
X119150000Y-125259000D02*
X120011000Y-125259000D01*
X116246000Y-125219000D02*
X117070000Y-125219000D01*
X119150000Y-125219000D02*
X119974000Y-125219000D01*
X116284000Y-125179000D02*
X117070000Y-125179000D01*
X119150000Y-125179000D02*
X119936000Y-125179000D01*
X116325000Y-125139000D02*
X117070000Y-125139000D01*
X119150000Y-125139000D02*
X119895000Y-125139000D01*
X116367000Y-125099000D02*
X117070000Y-125099000D01*
X119150000Y-125099000D02*
X119853000Y-125099000D01*
X116411000Y-125059000D02*
X117070000Y-125059000D01*
X119150000Y-125059000D02*
X119809000Y-125059000D01*
X116457000Y-125019000D02*
X117070000Y-125019000D01*
X119150000Y-125019000D02*
X119763000Y-125019000D01*
X116505000Y-124979000D02*
X117070000Y-124979000D01*
X119150000Y-124979000D02*
X119715000Y-124979000D01*
X116556000Y-124939000D02*
X117070000Y-124939000D01*
X119150000Y-124939000D02*
X119664000Y-124939000D01*
X116610000Y-124899000D02*
X117070000Y-124899000D01*
X119150000Y-124899000D02*
X119610000Y-124899000D01*
X116667000Y-124859000D02*
X117070000Y-124859000D01*
X119150000Y-124859000D02*
X119553000Y-124859000D01*
X116727000Y-124819000D02*
X117070000Y-124819000D01*
X119150000Y-124819000D02*
X119493000Y-124819000D01*
X116791000Y-124779000D02*
X117070000Y-124779000D01*
X119150000Y-124779000D02*
X119429000Y-124779000D01*
X116859000Y-124739000D02*
X117070000Y-124739000D01*
X119150000Y-124739000D02*
X119361000Y-124739000D01*
X116932000Y-124699000D02*
X119288000Y-124699000D01*
X117012000Y-124659000D02*
X119208000Y-124659000D01*
X117099000Y-124619000D02*
X119121000Y-124619000D01*
X117195000Y-124579000D02*
X119025000Y-124579000D01*
X117305000Y-124539000D02*
X118915000Y-124539000D01*
X117433000Y-124499000D02*
X118787000Y-124499000D01*
X117592000Y-124459000D02*
X118628000Y-124459000D01*
X117826000Y-124419000D02*
X118394000Y-124419000D01*
X116635000Y-129824775D02*
X116635000Y-129324775D01*
X116385000Y-129574775D02*
X116885000Y-129574775D01*
X144225000Y-90785000D02*
G75*
G03X144225000Y-90785000I-2620000J0D01*
G01*
X144185000Y-90785000D02*
X139025000Y-90785000D01*
X144185000Y-90825000D02*
X139025000Y-90825000D01*
X144184000Y-90865000D02*
X139026000Y-90865000D01*
X144183000Y-90905000D02*
X139027000Y-90905000D01*
X144181000Y-90945000D02*
X139029000Y-90945000D01*
X144178000Y-90985000D02*
X139032000Y-90985000D01*
X144174000Y-91025000D02*
X142645000Y-91025000D01*
X140565000Y-91025000D02*
X139036000Y-91025000D01*
X144170000Y-91065000D02*
X142645000Y-91065000D01*
X140565000Y-91065000D02*
X139040000Y-91065000D01*
X144166000Y-91105000D02*
X142645000Y-91105000D01*
X140565000Y-91105000D02*
X139044000Y-91105000D01*
X144161000Y-91145000D02*
X142645000Y-91145000D01*
X140565000Y-91145000D02*
X139049000Y-91145000D01*
X144155000Y-91185000D02*
X142645000Y-91185000D01*
X140565000Y-91185000D02*
X139055000Y-91185000D01*
X144148000Y-91225000D02*
X142645000Y-91225000D01*
X140565000Y-91225000D02*
X139062000Y-91225000D01*
X144141000Y-91265000D02*
X142645000Y-91265000D01*
X140565000Y-91265000D02*
X139069000Y-91265000D01*
X144133000Y-91305000D02*
X142645000Y-91305000D01*
X140565000Y-91305000D02*
X139077000Y-91305000D01*
X144125000Y-91345000D02*
X142645000Y-91345000D01*
X140565000Y-91345000D02*
X139085000Y-91345000D01*
X144116000Y-91385000D02*
X142645000Y-91385000D01*
X140565000Y-91385000D02*
X139094000Y-91385000D01*
X144106000Y-91425000D02*
X142645000Y-91425000D01*
X140565000Y-91425000D02*
X139104000Y-91425000D01*
X144096000Y-91465000D02*
X142645000Y-91465000D01*
X140565000Y-91465000D02*
X139114000Y-91465000D01*
X144085000Y-91506000D02*
X142645000Y-91506000D01*
X140565000Y-91506000D02*
X139125000Y-91506000D01*
X144073000Y-91546000D02*
X142645000Y-91546000D01*
X140565000Y-91546000D02*
X139137000Y-91546000D01*
X144060000Y-91586000D02*
X142645000Y-91586000D01*
X140565000Y-91586000D02*
X139150000Y-91586000D01*
X144047000Y-91626000D02*
X142645000Y-91626000D01*
X140565000Y-91626000D02*
X139163000Y-91626000D01*
X144033000Y-91666000D02*
X142645000Y-91666000D01*
X140565000Y-91666000D02*
X139177000Y-91666000D01*
X144019000Y-91706000D02*
X142645000Y-91706000D01*
X140565000Y-91706000D02*
X139191000Y-91706000D01*
X144003000Y-91746000D02*
X142645000Y-91746000D01*
X140565000Y-91746000D02*
X139207000Y-91746000D01*
X143987000Y-91786000D02*
X142645000Y-91786000D01*
X140565000Y-91786000D02*
X139223000Y-91786000D01*
X143970000Y-91826000D02*
X142645000Y-91826000D01*
X140565000Y-91826000D02*
X139240000Y-91826000D01*
X143953000Y-91866000D02*
X142645000Y-91866000D01*
X140565000Y-91866000D02*
X139257000Y-91866000D01*
X143934000Y-91906000D02*
X142645000Y-91906000D01*
X140565000Y-91906000D02*
X139276000Y-91906000D01*
X143915000Y-91946000D02*
X142645000Y-91946000D01*
X140565000Y-91946000D02*
X139295000Y-91946000D01*
X143895000Y-91986000D02*
X142645000Y-91986000D01*
X140565000Y-91986000D02*
X139315000Y-91986000D01*
X143873000Y-92026000D02*
X142645000Y-92026000D01*
X140565000Y-92026000D02*
X139337000Y-92026000D01*
X143852000Y-92066000D02*
X142645000Y-92066000D01*
X140565000Y-92066000D02*
X139358000Y-92066000D01*
X143829000Y-92106000D02*
X142645000Y-92106000D01*
X140565000Y-92106000D02*
X139381000Y-92106000D01*
X143805000Y-92146000D02*
X142645000Y-92146000D01*
X140565000Y-92146000D02*
X139405000Y-92146000D01*
X143780000Y-92186000D02*
X142645000Y-92186000D01*
X140565000Y-92186000D02*
X139430000Y-92186000D01*
X143754000Y-92226000D02*
X142645000Y-92226000D01*
X140565000Y-92226000D02*
X139456000Y-92226000D01*
X143727000Y-92266000D02*
X142645000Y-92266000D01*
X140565000Y-92266000D02*
X139483000Y-92266000D01*
X143700000Y-92306000D02*
X142645000Y-92306000D01*
X140565000Y-92306000D02*
X139510000Y-92306000D01*
X143670000Y-92346000D02*
X142645000Y-92346000D01*
X140565000Y-92346000D02*
X139540000Y-92346000D01*
X143640000Y-92386000D02*
X142645000Y-92386000D01*
X140565000Y-92386000D02*
X139570000Y-92386000D01*
X143609000Y-92426000D02*
X142645000Y-92426000D01*
X140565000Y-92426000D02*
X139601000Y-92426000D01*
X143576000Y-92466000D02*
X142645000Y-92466000D01*
X140565000Y-92466000D02*
X139634000Y-92466000D01*
X143542000Y-92506000D02*
X142645000Y-92506000D01*
X140565000Y-92506000D02*
X139668000Y-92506000D01*
X143506000Y-92546000D02*
X142645000Y-92546000D01*
X140565000Y-92546000D02*
X139704000Y-92546000D01*
X143469000Y-92586000D02*
X142645000Y-92586000D01*
X140565000Y-92586000D02*
X139741000Y-92586000D01*
X143431000Y-92626000D02*
X142645000Y-92626000D01*
X140565000Y-92626000D02*
X139779000Y-92626000D01*
X143390000Y-92666000D02*
X142645000Y-92666000D01*
X140565000Y-92666000D02*
X139820000Y-92666000D01*
X143348000Y-92706000D02*
X142645000Y-92706000D01*
X140565000Y-92706000D02*
X139862000Y-92706000D01*
X143304000Y-92746000D02*
X142645000Y-92746000D01*
X140565000Y-92746000D02*
X139906000Y-92746000D01*
X143258000Y-92786000D02*
X142645000Y-92786000D01*
X140565000Y-92786000D02*
X139952000Y-92786000D01*
X143210000Y-92826000D02*
X142645000Y-92826000D01*
X140565000Y-92826000D02*
X140000000Y-92826000D01*
X143159000Y-92866000D02*
X142645000Y-92866000D01*
X140565000Y-92866000D02*
X140051000Y-92866000D01*
X143105000Y-92906000D02*
X142645000Y-92906000D01*
X140565000Y-92906000D02*
X140105000Y-92906000D01*
X143048000Y-92946000D02*
X142645000Y-92946000D01*
X140565000Y-92946000D02*
X140162000Y-92946000D01*
X142988000Y-92986000D02*
X142645000Y-92986000D01*
X140565000Y-92986000D02*
X140222000Y-92986000D01*
X142924000Y-93026000D02*
X142645000Y-93026000D01*
X140565000Y-93026000D02*
X140286000Y-93026000D01*
X142856000Y-93066000D02*
X142645000Y-93066000D01*
X140565000Y-93066000D02*
X140354000Y-93066000D01*
X142783000Y-93106000D02*
X140427000Y-93106000D01*
X142703000Y-93146000D02*
X140507000Y-93146000D01*
X142616000Y-93186000D02*
X140594000Y-93186000D01*
X142520000Y-93226000D02*
X140690000Y-93226000D01*
X142410000Y-93266000D02*
X140800000Y-93266000D01*
X142282000Y-93306000D02*
X140928000Y-93306000D01*
X142123000Y-93346000D02*
X141087000Y-93346000D01*
X141889000Y-93386000D02*
X141321000Y-93386000D01*
X143080000Y-87980225D02*
X143080000Y-88480225D01*
X143330000Y-88230225D02*
X142830000Y-88230225D01*
X139880000Y-86394775D02*
X140380000Y-86394775D01*
X140130000Y-86644775D02*
X140130000Y-86144775D01*
X141321000Y-81239000D02*
X141889000Y-81239000D01*
X141087000Y-81279000D02*
X142123000Y-81279000D01*
X140928000Y-81319000D02*
X142282000Y-81319000D01*
X140800000Y-81359000D02*
X142410000Y-81359000D01*
X140690000Y-81399000D02*
X142520000Y-81399000D01*
X140594000Y-81439000D02*
X142616000Y-81439000D01*
X140507000Y-81479000D02*
X142703000Y-81479000D01*
X140427000Y-81519000D02*
X142783000Y-81519000D01*
X142645000Y-81559000D02*
X142856000Y-81559000D01*
X140354000Y-81559000D02*
X140565000Y-81559000D01*
X142645000Y-81599000D02*
X142924000Y-81599000D01*
X140286000Y-81599000D02*
X140565000Y-81599000D01*
X142645000Y-81639000D02*
X142988000Y-81639000D01*
X140222000Y-81639000D02*
X140565000Y-81639000D01*
X142645000Y-81679000D02*
X143048000Y-81679000D01*
X140162000Y-81679000D02*
X140565000Y-81679000D01*
X142645000Y-81719000D02*
X143105000Y-81719000D01*
X140105000Y-81719000D02*
X140565000Y-81719000D01*
X142645000Y-81759000D02*
X143159000Y-81759000D01*
X140051000Y-81759000D02*
X140565000Y-81759000D01*
X142645000Y-81799000D02*
X143210000Y-81799000D01*
X140000000Y-81799000D02*
X140565000Y-81799000D01*
X142645000Y-81839000D02*
X143258000Y-81839000D01*
X139952000Y-81839000D02*
X140565000Y-81839000D01*
X142645000Y-81879000D02*
X143304000Y-81879000D01*
X139906000Y-81879000D02*
X140565000Y-81879000D01*
X142645000Y-81919000D02*
X143348000Y-81919000D01*
X139862000Y-81919000D02*
X140565000Y-81919000D01*
X142645000Y-81959000D02*
X143390000Y-81959000D01*
X139820000Y-81959000D02*
X140565000Y-81959000D01*
X142645000Y-81999000D02*
X143431000Y-81999000D01*
X139779000Y-81999000D02*
X140565000Y-81999000D01*
X142645000Y-82039000D02*
X143469000Y-82039000D01*
X139741000Y-82039000D02*
X140565000Y-82039000D01*
X142645000Y-82079000D02*
X143506000Y-82079000D01*
X139704000Y-82079000D02*
X140565000Y-82079000D01*
X142645000Y-82119000D02*
X143542000Y-82119000D01*
X139668000Y-82119000D02*
X140565000Y-82119000D01*
X142645000Y-82159000D02*
X143576000Y-82159000D01*
X139634000Y-82159000D02*
X140565000Y-82159000D01*
X142645000Y-82199000D02*
X143609000Y-82199000D01*
X139601000Y-82199000D02*
X140565000Y-82199000D01*
X142645000Y-82239000D02*
X143640000Y-82239000D01*
X139570000Y-82239000D02*
X140565000Y-82239000D01*
X142645000Y-82279000D02*
X143670000Y-82279000D01*
X139540000Y-82279000D02*
X140565000Y-82279000D01*
X142645000Y-82319000D02*
X143700000Y-82319000D01*
X139510000Y-82319000D02*
X140565000Y-82319000D01*
X142645000Y-82359000D02*
X143727000Y-82359000D01*
X139483000Y-82359000D02*
X140565000Y-82359000D01*
X142645000Y-82399000D02*
X143754000Y-82399000D01*
X139456000Y-82399000D02*
X140565000Y-82399000D01*
X142645000Y-82439000D02*
X143780000Y-82439000D01*
X139430000Y-82439000D02*
X140565000Y-82439000D01*
X142645000Y-82479000D02*
X143805000Y-82479000D01*
X139405000Y-82479000D02*
X140565000Y-82479000D01*
X142645000Y-82519000D02*
X143829000Y-82519000D01*
X139381000Y-82519000D02*
X140565000Y-82519000D01*
X142645000Y-82559000D02*
X143852000Y-82559000D01*
X139358000Y-82559000D02*
X140565000Y-82559000D01*
X142645000Y-82599000D02*
X143873000Y-82599000D01*
X139337000Y-82599000D02*
X140565000Y-82599000D01*
X142645000Y-82639000D02*
X143895000Y-82639000D01*
X139315000Y-82639000D02*
X140565000Y-82639000D01*
X142645000Y-82679000D02*
X143915000Y-82679000D01*
X139295000Y-82679000D02*
X140565000Y-82679000D01*
X142645000Y-82719000D02*
X143934000Y-82719000D01*
X139276000Y-82719000D02*
X140565000Y-82719000D01*
X142645000Y-82759000D02*
X143953000Y-82759000D01*
X139257000Y-82759000D02*
X140565000Y-82759000D01*
X142645000Y-82799000D02*
X143970000Y-82799000D01*
X139240000Y-82799000D02*
X140565000Y-82799000D01*
X142645000Y-82839000D02*
X143987000Y-82839000D01*
X139223000Y-82839000D02*
X140565000Y-82839000D01*
X142645000Y-82879000D02*
X144003000Y-82879000D01*
X139207000Y-82879000D02*
X140565000Y-82879000D01*
X142645000Y-82919000D02*
X144019000Y-82919000D01*
X139191000Y-82919000D02*
X140565000Y-82919000D01*
X142645000Y-82959000D02*
X144033000Y-82959000D01*
X139177000Y-82959000D02*
X140565000Y-82959000D01*
X142645000Y-82999000D02*
X144047000Y-82999000D01*
X139163000Y-82999000D02*
X140565000Y-82999000D01*
X142645000Y-83039000D02*
X144060000Y-83039000D01*
X139150000Y-83039000D02*
X140565000Y-83039000D01*
X142645000Y-83079000D02*
X144073000Y-83079000D01*
X139137000Y-83079000D02*
X140565000Y-83079000D01*
X142645000Y-83119000D02*
X144085000Y-83119000D01*
X139125000Y-83119000D02*
X140565000Y-83119000D01*
X142645000Y-83160000D02*
X144096000Y-83160000D01*
X139114000Y-83160000D02*
X140565000Y-83160000D01*
X142645000Y-83200000D02*
X144106000Y-83200000D01*
X139104000Y-83200000D02*
X140565000Y-83200000D01*
X142645000Y-83240000D02*
X144116000Y-83240000D01*
X139094000Y-83240000D02*
X140565000Y-83240000D01*
X142645000Y-83280000D02*
X144125000Y-83280000D01*
X139085000Y-83280000D02*
X140565000Y-83280000D01*
X142645000Y-83320000D02*
X144133000Y-83320000D01*
X139077000Y-83320000D02*
X140565000Y-83320000D01*
X142645000Y-83360000D02*
X144141000Y-83360000D01*
X139069000Y-83360000D02*
X140565000Y-83360000D01*
X142645000Y-83400000D02*
X144148000Y-83400000D01*
X139062000Y-83400000D02*
X140565000Y-83400000D01*
X142645000Y-83440000D02*
X144155000Y-83440000D01*
X139055000Y-83440000D02*
X140565000Y-83440000D01*
X142645000Y-83480000D02*
X144161000Y-83480000D01*
X139049000Y-83480000D02*
X140565000Y-83480000D01*
X142645000Y-83520000D02*
X144166000Y-83520000D01*
X139044000Y-83520000D02*
X140565000Y-83520000D01*
X142645000Y-83560000D02*
X144170000Y-83560000D01*
X139040000Y-83560000D02*
X140565000Y-83560000D01*
X142645000Y-83600000D02*
X144174000Y-83600000D01*
X139036000Y-83600000D02*
X140565000Y-83600000D01*
X139032000Y-83640000D02*
X144178000Y-83640000D01*
X139029000Y-83680000D02*
X144181000Y-83680000D01*
X139027000Y-83720000D02*
X144183000Y-83720000D01*
X139026000Y-83760000D02*
X144184000Y-83760000D01*
X139025000Y-83800000D02*
X144185000Y-83800000D01*
X139025000Y-83840000D02*
X144185000Y-83840000D01*
X144225000Y-83840000D02*
G75*
G03X144225000Y-83840000I-2620000J0D01*
G01*
X135540000Y-85355000D02*
X133700000Y-85355000D01*
X133700000Y-85355000D02*
X133700000Y-88635000D01*
X133700000Y-88635000D02*
X135540000Y-88635000D01*
X135540000Y-88635000D02*
X135540000Y-85355000D01*
X134620000Y-84175000D02*
X134620000Y-85355000D01*
X134620000Y-89815000D02*
X134620000Y-88635000D01*
X135540000Y-85931000D02*
X133700000Y-85931000D01*
X135540000Y-86051000D02*
X133700000Y-86051000D01*
X135540000Y-85811000D02*
X133700000Y-85811000D01*
X146750000Y-131810000D02*
X145350000Y-131810000D01*
X144650000Y-131110000D02*
X144650000Y-130510000D01*
X145350000Y-129810000D02*
X146750000Y-129810000D01*
X147450000Y-130510000D02*
X147450000Y-131110000D01*
X147450000Y-131110000D02*
G75*
G02X146750000Y-131810000I-700000J0D01*
G01*
X146750000Y-129810000D02*
G75*
G02X147450000Y-130510000I0J-700000D01*
G01*
X144650000Y-130510000D02*
G75*
G02X145350000Y-129810000I700000J0D01*
G01*
X145350000Y-131810000D02*
G75*
G02X144650000Y-131110000I0J700000D01*
G01*
X142305000Y-129810000D02*
G75*
G02X143005000Y-130510000I0J-700000D01*
G01*
X143005000Y-131110000D02*
G75*
G02X142305000Y-131810000I-700000J0D01*
G01*
X140905000Y-131810000D02*
G75*
G02X140205000Y-131110000I0J700000D01*
G01*
X140205000Y-130510000D02*
G75*
G02X140905000Y-129810000I700000J0D01*
G01*
X140205000Y-131110000D02*
X140205000Y-130510000D01*
X142305000Y-131810000D02*
X140905000Y-131810000D01*
X143005000Y-130510000D02*
X143005000Y-131110000D01*
X140905000Y-129810000D02*
X142305000Y-129810000D01*
X125795000Y-130445000D02*
G75*
G02X126495000Y-131145000I0J-700000D01*
G01*
X126495000Y-131745000D02*
G75*
G02X125795000Y-132445000I-700000J0D01*
G01*
X124395000Y-132445000D02*
G75*
G02X123695000Y-131745000I0J700000D01*
G01*
X123695000Y-131145000D02*
G75*
G02X124395000Y-130445000I700000J0D01*
G01*
X123695000Y-131745000D02*
X123695000Y-131145000D01*
X125795000Y-132445000D02*
X124395000Y-132445000D01*
X126495000Y-131145000D02*
X126495000Y-131745000D01*
X124395000Y-130445000D02*
X125795000Y-130445000D01*
X128840000Y-130445000D02*
X130240000Y-130445000D01*
X130940000Y-131145000D02*
X130940000Y-131745000D01*
X130240000Y-132445000D02*
X128840000Y-132445000D01*
X128140000Y-131745000D02*
X128140000Y-131145000D01*
X128140000Y-131145000D02*
G75*
G02X128840000Y-130445000I700000J0D01*
G01*
X128840000Y-132445000D02*
G75*
G02X128140000Y-131745000I0J700000D01*
G01*
X130940000Y-131745000D02*
G75*
G02X130240000Y-132445000I-700000J0D01*
G01*
X130240000Y-130445000D02*
G75*
G02X130940000Y-131145000I0J-700000D01*
G01*
X134685000Y-130445000D02*
G75*
G02X135385000Y-131145000I0J-700000D01*
G01*
X135385000Y-131745000D02*
G75*
G02X134685000Y-132445000I-700000J0D01*
G01*
X133285000Y-132445000D02*
G75*
G02X132585000Y-131745000I0J700000D01*
G01*
X132585000Y-131145000D02*
G75*
G02X133285000Y-130445000I700000J0D01*
G01*
X132585000Y-131745000D02*
X132585000Y-131145000D01*
X134685000Y-132445000D02*
X133285000Y-132445000D01*
X135385000Y-131145000D02*
X135385000Y-131745000D01*
X133285000Y-130445000D02*
X134685000Y-130445000D01*
X119745000Y-91225000D02*
X124245000Y-91225000D01*
X118495000Y-87225000D02*
X118495000Y-88725000D01*
X124245000Y-84725000D02*
X119745000Y-84725000D01*
X125495000Y-88725000D02*
X125495000Y-87225000D01*
X159655000Y-123250000D02*
G75*
G02X161655000Y-123250000I1000000J0D01*
G01*
X161655000Y-123250000D02*
X167115000Y-123250000D01*
X167115000Y-123250000D02*
X167115000Y-87570000D01*
X167115000Y-87570000D02*
X154195000Y-87570000D01*
X154195000Y-87570000D02*
X154195000Y-123250000D01*
X154195000Y-123250000D02*
X159655000Y-123250000D01*
D13*
G36*
X113157000Y-136271000D02*
G01*
X113157000Y-138049000D01*
X171323000Y-138049000D01*
X171323000Y-136271000D01*
X113157000Y-136271000D01*
G37*
X113157000Y-136271000D02*
X113157000Y-138049000D01*
X171323000Y-138049000D01*
X171323000Y-136271000D01*
X113157000Y-136271000D01*
D11*
X130436252Y-90880000D02*
X129913748Y-90880000D01*
X130436252Y-89460000D02*
X129913748Y-89460000D01*
X130436252Y-85015000D02*
X129913748Y-85015000D01*
X130436252Y-86435000D02*
X129913748Y-86435000D01*
X144705000Y-87637252D02*
X144705000Y-87114748D01*
X146125000Y-87637252D02*
X146125000Y-87114748D01*
X149335748Y-122630000D02*
X149858252Y-122630000D01*
X149335748Y-121210000D02*
X149858252Y-121210000D01*
X116280000Y-122293748D02*
X116280000Y-122816252D01*
X114860000Y-122293748D02*
X114860000Y-122816252D01*
X151705000Y-83760000D02*
X151705000Y-86420000D01*
X159385000Y-83760000D02*
X151705000Y-83760000D01*
X159385000Y-86420000D02*
X151705000Y-86420000D01*
X159385000Y-83760000D02*
X159385000Y-86420000D01*
X160655000Y-83760000D02*
X161985000Y-83760000D01*
X161985000Y-83760000D02*
X161985000Y-85090000D01*
X124730000Y-123250000D02*
G75*
G02X126730000Y-123250000I1000000J0D01*
G01*
X126730000Y-123250000D02*
X132190000Y-123250000D01*
X132190000Y-123250000D02*
X132190000Y-92650000D01*
X132190000Y-92650000D02*
X119270000Y-92650000D01*
X119270000Y-92650000D02*
X119270000Y-123250000D01*
X119270000Y-123250000D02*
X124730000Y-123250000D01*
X148411000Y-87637252D02*
X148411000Y-87114748D01*
X146991000Y-87637252D02*
X146991000Y-87114748D01*
X149277000Y-87646252D02*
X149277000Y-87123748D01*
X150697000Y-87646252D02*
X150697000Y-87123748D01*
D14*
X157369285Y-118622380D02*
X157369285Y-119431904D01*
X157416904Y-119527142D01*
X157464523Y-119574761D01*
X157559761Y-119622380D01*
X157750238Y-119622380D01*
X157845476Y-119574761D01*
X157893095Y-119527142D01*
X157940714Y-119431904D01*
X157940714Y-118622380D01*
X158940714Y-119622380D02*
X158369285Y-119622380D01*
X158655000Y-119622380D02*
X158655000Y-118622380D01*
X158559761Y-118765238D01*
X158464523Y-118860476D01*
X158369285Y-118908095D01*
X159369285Y-119241428D02*
X160131190Y-119241428D01*
X160559761Y-118717619D02*
X160607380Y-118670000D01*
X160702619Y-118622380D01*
X160940714Y-118622380D01*
X161035952Y-118670000D01*
X161083571Y-118717619D01*
X161131190Y-118812857D01*
X161131190Y-118908095D01*
X161083571Y-119050952D01*
X160512142Y-119622380D01*
X161131190Y-119622380D01*
X161464523Y-118622380D02*
X162083571Y-118622380D01*
X161750238Y-119003333D01*
X161893095Y-119003333D01*
X161988333Y-119050952D01*
X162035952Y-119098571D01*
X162083571Y-119193809D01*
X162083571Y-119431904D01*
X162035952Y-119527142D01*
X161988333Y-119574761D01*
X161893095Y-119622380D01*
X161607380Y-119622380D01*
X161512142Y-119574761D01*
X161464523Y-119527142D01*
X162940714Y-118622380D02*
X162750238Y-118622380D01*
X162655000Y-118670000D01*
X162607380Y-118717619D01*
X162512142Y-118860476D01*
X162464523Y-119050952D01*
X162464523Y-119431904D01*
X162512142Y-119527142D01*
X162559761Y-119574761D01*
X162655000Y-119622380D01*
X162845476Y-119622380D01*
X162940714Y-119574761D01*
X162988333Y-119527142D01*
X163035952Y-119431904D01*
X163035952Y-119193809D01*
X162988333Y-119098571D01*
X162940714Y-119050952D01*
X162845476Y-119003333D01*
X162655000Y-119003333D01*
X162559761Y-119050952D01*
X162512142Y-119098571D01*
X162464523Y-119193809D01*
X163893095Y-118955714D02*
X163893095Y-119622380D01*
X163655000Y-118574761D02*
X163416904Y-119289047D01*
X164035952Y-119289047D01*
X114717142Y-127186666D02*
X114764761Y-127234285D01*
X114812380Y-127377142D01*
X114812380Y-127472380D01*
X114764761Y-127615238D01*
X114669523Y-127710476D01*
X114574285Y-127758095D01*
X114383809Y-127805714D01*
X114240952Y-127805714D01*
X114050476Y-127758095D01*
X113955238Y-127710476D01*
X113860000Y-127615238D01*
X113812380Y-127472380D01*
X113812380Y-127377142D01*
X113860000Y-127234285D01*
X113907619Y-127186666D01*
X113812380Y-126853333D02*
X113812380Y-126234285D01*
X114193333Y-126567619D01*
X114193333Y-126424761D01*
X114240952Y-126329523D01*
X114288571Y-126281904D01*
X114383809Y-126234285D01*
X114621904Y-126234285D01*
X114717142Y-126281904D01*
X114764761Y-126329523D01*
X114812380Y-126424761D01*
X114812380Y-126710476D01*
X114764761Y-126805714D01*
X114717142Y-126853333D01*
X145712142Y-90951666D02*
X145759761Y-90999285D01*
X145807380Y-91142142D01*
X145807380Y-91237380D01*
X145759761Y-91380238D01*
X145664523Y-91475476D01*
X145569285Y-91523095D01*
X145378809Y-91570714D01*
X145235952Y-91570714D01*
X145045476Y-91523095D01*
X144950238Y-91475476D01*
X144855000Y-91380238D01*
X144807380Y-91237380D01*
X144807380Y-91142142D01*
X144855000Y-90999285D01*
X144902619Y-90951666D01*
X145140714Y-90094523D02*
X145807380Y-90094523D01*
X144759761Y-90332619D02*
X145474047Y-90570714D01*
X145474047Y-89951666D01*
X138212142Y-84006666D02*
X138259761Y-84054285D01*
X138307380Y-84197142D01*
X138307380Y-84292380D01*
X138259761Y-84435238D01*
X138164523Y-84530476D01*
X138069285Y-84578095D01*
X137878809Y-84625714D01*
X137735952Y-84625714D01*
X137545476Y-84578095D01*
X137450238Y-84530476D01*
X137355000Y-84435238D01*
X137307380Y-84292380D01*
X137307380Y-84197142D01*
X137355000Y-84054285D01*
X137402619Y-84006666D01*
X137307380Y-83101904D02*
X137307380Y-83578095D01*
X137783571Y-83625714D01*
X137735952Y-83578095D01*
X137688333Y-83482857D01*
X137688333Y-83244761D01*
X137735952Y-83149523D01*
X137783571Y-83101904D01*
X137878809Y-83054285D01*
X138116904Y-83054285D01*
X138212142Y-83101904D01*
X138259761Y-83149523D01*
X138307380Y-83244761D01*
X138307380Y-83482857D01*
X138259761Y-83578095D01*
X138212142Y-83625714D01*
X136992380Y-87733095D02*
X135992380Y-87733095D01*
X135992380Y-87495000D01*
X136040000Y-87352142D01*
X136135238Y-87256904D01*
X136230476Y-87209285D01*
X136420952Y-87161666D01*
X136563809Y-87161666D01*
X136754285Y-87209285D01*
X136849523Y-87256904D01*
X136944761Y-87352142D01*
X136992380Y-87495000D01*
X136992380Y-87733095D01*
X136992380Y-86209285D02*
X136992380Y-86780714D01*
X136992380Y-86495000D02*
X135992380Y-86495000D01*
X136135238Y-86590238D01*
X136230476Y-86685476D01*
X136278095Y-86780714D01*
X136822380Y-83446904D02*
X135822380Y-83446904D01*
X136822380Y-82875476D02*
X136250952Y-83304047D01*
X135822380Y-82875476D02*
X136393809Y-83446904D01*
X145716666Y-132062380D02*
X145716666Y-132776666D01*
X145669047Y-132919523D01*
X145573809Y-133014761D01*
X145430952Y-133062380D01*
X145335714Y-133062380D01*
X146716666Y-133062380D02*
X146145238Y-133062380D01*
X146430952Y-133062380D02*
X146430952Y-132062380D01*
X146335714Y-132205238D01*
X146240476Y-132300476D01*
X146145238Y-132348095D01*
X141271666Y-128462380D02*
X141271666Y-129176666D01*
X141224047Y-129319523D01*
X141128809Y-129414761D01*
X140985952Y-129462380D01*
X140890714Y-129462380D01*
X141700238Y-128557619D02*
X141747857Y-128510000D01*
X141843095Y-128462380D01*
X142081190Y-128462380D01*
X142176428Y-128510000D01*
X142224047Y-128557619D01*
X142271666Y-128652857D01*
X142271666Y-128748095D01*
X142224047Y-128890952D01*
X141652619Y-129462380D01*
X142271666Y-129462380D01*
X124761666Y-129097380D02*
X124761666Y-129811666D01*
X124714047Y-129954523D01*
X124618809Y-130049761D01*
X124475952Y-130097380D01*
X124380714Y-130097380D01*
X125142619Y-129097380D02*
X125761666Y-129097380D01*
X125428333Y-129478333D01*
X125571190Y-129478333D01*
X125666428Y-129525952D01*
X125714047Y-129573571D01*
X125761666Y-129668809D01*
X125761666Y-129906904D01*
X125714047Y-130002142D01*
X125666428Y-130049761D01*
X125571190Y-130097380D01*
X125285476Y-130097380D01*
X125190238Y-130049761D01*
X125142619Y-130002142D01*
X129206666Y-129097380D02*
X129206666Y-129811666D01*
X129159047Y-129954523D01*
X129063809Y-130049761D01*
X128920952Y-130097380D01*
X128825714Y-130097380D01*
X130111428Y-129430714D02*
X130111428Y-130097380D01*
X129873333Y-129049761D02*
X129635238Y-129764047D01*
X130254285Y-129764047D01*
X133651666Y-129097380D02*
X133651666Y-129811666D01*
X133604047Y-129954523D01*
X133508809Y-130049761D01*
X133365952Y-130097380D01*
X133270714Y-130097380D01*
X134604047Y-129097380D02*
X134127857Y-129097380D01*
X134080238Y-129573571D01*
X134127857Y-129525952D01*
X134223095Y-129478333D01*
X134461190Y-129478333D01*
X134556428Y-129525952D01*
X134604047Y-129573571D01*
X134651666Y-129668809D01*
X134651666Y-129906904D01*
X134604047Y-130002142D01*
X134556428Y-130049761D01*
X134461190Y-130097380D01*
X134223095Y-130097380D01*
X134127857Y-130049761D01*
X134080238Y-130002142D01*
X117780714Y-84129761D02*
X117923571Y-84177380D01*
X118161666Y-84177380D01*
X118256904Y-84129761D01*
X118304523Y-84082142D01*
X118352142Y-83986904D01*
X118352142Y-83891666D01*
X118304523Y-83796428D01*
X118256904Y-83748809D01*
X118161666Y-83701190D01*
X117971190Y-83653571D01*
X117875952Y-83605952D01*
X117828333Y-83558333D01*
X117780714Y-83463095D01*
X117780714Y-83367857D01*
X117828333Y-83272619D01*
X117875952Y-83225000D01*
X117971190Y-83177380D01*
X118209285Y-83177380D01*
X118352142Y-83225000D01*
X118685476Y-83177380D02*
X118923571Y-84177380D01*
X119114047Y-83463095D01*
X119304523Y-84177380D01*
X119542619Y-83177380D01*
X119923571Y-83796428D02*
X120685476Y-83796428D01*
X121733095Y-84177380D02*
X121399761Y-83701190D01*
X121161666Y-84177380D02*
X121161666Y-83177380D01*
X121542619Y-83177380D01*
X121637857Y-83225000D01*
X121685476Y-83272619D01*
X121733095Y-83367857D01*
X121733095Y-83510714D01*
X121685476Y-83605952D01*
X121637857Y-83653571D01*
X121542619Y-83701190D01*
X121161666Y-83701190D01*
X122161666Y-83653571D02*
X122495000Y-83653571D01*
X122637857Y-84177380D02*
X122161666Y-84177380D01*
X122161666Y-83177380D01*
X122637857Y-83177380D01*
X123018809Y-84129761D02*
X123161666Y-84177380D01*
X123399761Y-84177380D01*
X123495000Y-84129761D01*
X123542619Y-84082142D01*
X123590238Y-83986904D01*
X123590238Y-83891666D01*
X123542619Y-83796428D01*
X123495000Y-83748809D01*
X123399761Y-83701190D01*
X123209285Y-83653571D01*
X123114047Y-83605952D01*
X123066428Y-83558333D01*
X123018809Y-83463095D01*
X123018809Y-83367857D01*
X123066428Y-83272619D01*
X123114047Y-83225000D01*
X123209285Y-83177380D01*
X123447380Y-83177380D01*
X123590238Y-83225000D01*
X124018809Y-83653571D02*
X124352142Y-83653571D01*
X124495000Y-84177380D02*
X124018809Y-84177380D01*
X124018809Y-83177380D01*
X124495000Y-83177380D01*
X124780714Y-83177380D02*
X125352142Y-83177380D01*
X125066428Y-84177380D02*
X125066428Y-83177380D01*
X126209285Y-84177380D02*
X125637857Y-84177380D01*
X125923571Y-84177380D02*
X125923571Y-83177380D01*
X125828333Y-83320238D01*
X125733095Y-83415476D01*
X125637857Y-83463095D01*
X156893095Y-123702380D02*
X156893095Y-124511904D01*
X156940714Y-124607142D01*
X156988333Y-124654761D01*
X157083571Y-124702380D01*
X157274047Y-124702380D01*
X157369285Y-124654761D01*
X157416904Y-124607142D01*
X157464523Y-124511904D01*
X157464523Y-123702380D01*
X158464523Y-124702380D02*
X157893095Y-124702380D01*
X158178809Y-124702380D02*
X158178809Y-123702380D01*
X158083571Y-123845238D01*
X157988333Y-123940476D01*
X157893095Y-123988095D01*
X158893095Y-124321428D02*
X159655000Y-124321428D01*
X160083571Y-123797619D02*
X160131190Y-123750000D01*
X160226428Y-123702380D01*
X160464523Y-123702380D01*
X160559761Y-123750000D01*
X160607380Y-123797619D01*
X160655000Y-123892857D01*
X160655000Y-123988095D01*
X160607380Y-124130952D01*
X160035952Y-124702380D01*
X160655000Y-124702380D01*
X160988333Y-123702380D02*
X161655000Y-123702380D01*
X161226428Y-124702380D01*
X162512142Y-123702380D02*
X162035952Y-123702380D01*
X161988333Y-124178571D01*
X162035952Y-124130952D01*
X162131190Y-124083333D01*
X162369285Y-124083333D01*
X162464523Y-124130952D01*
X162512142Y-124178571D01*
X162559761Y-124273809D01*
X162559761Y-124511904D01*
X162512142Y-124607142D01*
X162464523Y-124654761D01*
X162369285Y-124702380D01*
X162131190Y-124702380D01*
X162035952Y-124654761D01*
X161988333Y-124607142D01*
X163512142Y-124702380D02*
X162940714Y-124702380D01*
X163226428Y-124702380D02*
X163226428Y-123702380D01*
X163131190Y-123845238D01*
X163035952Y-123940476D01*
X162940714Y-123988095D01*
X163893095Y-123797619D02*
X163940714Y-123750000D01*
X164035952Y-123702380D01*
X164274047Y-123702380D01*
X164369285Y-123750000D01*
X164416904Y-123797619D01*
X164464523Y-123892857D01*
X164464523Y-123988095D01*
X164416904Y-124130952D01*
X163845476Y-124702380D01*
X164464523Y-124702380D01*
X141430476Y-151082380D02*
X142097142Y-152082380D01*
X142097142Y-151082380D02*
X141430476Y-152082380D01*
X143001904Y-152082380D02*
X142430476Y-152082380D01*
X142716190Y-152082380D02*
X142716190Y-151082380D01*
X142620952Y-151225238D01*
X142525714Y-151320476D01*
X142430476Y-151368095D01*
X130008333Y-92272380D02*
X129675000Y-91796190D01*
X129436904Y-92272380D02*
X129436904Y-91272380D01*
X129817857Y-91272380D01*
X129913095Y-91320000D01*
X129960714Y-91367619D01*
X130008333Y-91462857D01*
X130008333Y-91605714D01*
X129960714Y-91700952D01*
X129913095Y-91748571D01*
X129817857Y-91796190D01*
X129436904Y-91796190D01*
X130960714Y-92272380D02*
X130389285Y-92272380D01*
X130675000Y-92272380D02*
X130675000Y-91272380D01*
X130579761Y-91415238D01*
X130484523Y-91510476D01*
X130389285Y-91558095D01*
X130008333Y-87827380D02*
X129675000Y-87351190D01*
X129436904Y-87827380D02*
X129436904Y-86827380D01*
X129817857Y-86827380D01*
X129913095Y-86875000D01*
X129960714Y-86922619D01*
X130008333Y-87017857D01*
X130008333Y-87160714D01*
X129960714Y-87255952D01*
X129913095Y-87303571D01*
X129817857Y-87351190D01*
X129436904Y-87351190D01*
X130389285Y-86922619D02*
X130436904Y-86875000D01*
X130532142Y-86827380D01*
X130770238Y-86827380D01*
X130865476Y-86875000D01*
X130913095Y-86922619D01*
X130960714Y-87017857D01*
X130960714Y-87113095D01*
X130913095Y-87255952D01*
X130341666Y-87827380D01*
X130960714Y-87827380D01*
X144217380Y-87542666D02*
X143741190Y-87876000D01*
X144217380Y-88114095D02*
X143217380Y-88114095D01*
X143217380Y-87733142D01*
X143265000Y-87637904D01*
X143312619Y-87590285D01*
X143407857Y-87542666D01*
X143550714Y-87542666D01*
X143645952Y-87590285D01*
X143693571Y-87637904D01*
X143741190Y-87733142D01*
X143741190Y-88114095D01*
X143217380Y-87209333D02*
X143217380Y-86590285D01*
X143598333Y-86923619D01*
X143598333Y-86780761D01*
X143645952Y-86685523D01*
X143693571Y-86637904D01*
X143788809Y-86590285D01*
X144026904Y-86590285D01*
X144122142Y-86637904D01*
X144169761Y-86685523D01*
X144217380Y-86780761D01*
X144217380Y-87066476D01*
X144169761Y-87161714D01*
X144122142Y-87209333D01*
X149430333Y-120627142D02*
X149382714Y-120674761D01*
X149239857Y-120722380D01*
X149144619Y-120722380D01*
X149001761Y-120674761D01*
X148906523Y-120579523D01*
X148858904Y-120484285D01*
X148811285Y-120293809D01*
X148811285Y-120150952D01*
X148858904Y-119960476D01*
X148906523Y-119865238D01*
X149001761Y-119770000D01*
X149144619Y-119722380D01*
X149239857Y-119722380D01*
X149382714Y-119770000D01*
X149430333Y-119817619D01*
X150382714Y-120722380D02*
X149811285Y-120722380D01*
X150097000Y-120722380D02*
X150097000Y-119722380D01*
X150001761Y-119865238D01*
X149906523Y-119960476D01*
X149811285Y-120008095D01*
X117577142Y-122721666D02*
X117624761Y-122769285D01*
X117672380Y-122912142D01*
X117672380Y-123007380D01*
X117624761Y-123150238D01*
X117529523Y-123245476D01*
X117434285Y-123293095D01*
X117243809Y-123340714D01*
X117100952Y-123340714D01*
X116910476Y-123293095D01*
X116815238Y-123245476D01*
X116720000Y-123150238D01*
X116672380Y-123007380D01*
X116672380Y-122912142D01*
X116720000Y-122769285D01*
X116767619Y-122721666D01*
X116767619Y-122340714D02*
X116720000Y-122293095D01*
X116672380Y-122197857D01*
X116672380Y-121959761D01*
X116720000Y-121864523D01*
X116767619Y-121816904D01*
X116862857Y-121769285D01*
X116958095Y-121769285D01*
X117100952Y-121816904D01*
X117672380Y-122388333D01*
X117672380Y-121769285D01*
X162437380Y-85423333D02*
X163151666Y-85423333D01*
X163294523Y-85470952D01*
X163389761Y-85566190D01*
X163437380Y-85709047D01*
X163437380Y-85804285D01*
X162437380Y-85042380D02*
X162437380Y-84375714D01*
X163437380Y-84804285D01*
X124968095Y-123702380D02*
X124968095Y-124511904D01*
X125015714Y-124607142D01*
X125063333Y-124654761D01*
X125158571Y-124702380D01*
X125349047Y-124702380D01*
X125444285Y-124654761D01*
X125491904Y-124607142D01*
X125539523Y-124511904D01*
X125539523Y-123702380D01*
X125968095Y-123797619D02*
X126015714Y-123750000D01*
X126110952Y-123702380D01*
X126349047Y-123702380D01*
X126444285Y-123750000D01*
X126491904Y-123797619D01*
X126539523Y-123892857D01*
X126539523Y-123988095D01*
X126491904Y-124130952D01*
X125920476Y-124702380D01*
X126539523Y-124702380D01*
X146503380Y-87542666D02*
X146027190Y-87876000D01*
X146503380Y-88114095D02*
X145503380Y-88114095D01*
X145503380Y-87733142D01*
X145551000Y-87637904D01*
X145598619Y-87590285D01*
X145693857Y-87542666D01*
X145836714Y-87542666D01*
X145931952Y-87590285D01*
X145979571Y-87637904D01*
X146027190Y-87733142D01*
X146027190Y-88114095D01*
X145836714Y-86685523D02*
X146503380Y-86685523D01*
X145455761Y-86923619D02*
X146170047Y-87161714D01*
X146170047Y-86542666D01*
X148789380Y-87551666D02*
X148313190Y-87885000D01*
X148789380Y-88123095D02*
X147789380Y-88123095D01*
X147789380Y-87742142D01*
X147837000Y-87646904D01*
X147884619Y-87599285D01*
X147979857Y-87551666D01*
X148122714Y-87551666D01*
X148217952Y-87599285D01*
X148265571Y-87646904D01*
X148313190Y-87742142D01*
X148313190Y-88123095D01*
X147789380Y-86646904D02*
X147789380Y-87123095D01*
X148265571Y-87170714D01*
X148217952Y-87123095D01*
X148170333Y-87027857D01*
X148170333Y-86789761D01*
X148217952Y-86694523D01*
X148265571Y-86646904D01*
X148360809Y-86599285D01*
X148598904Y-86599285D01*
X148694142Y-86646904D01*
X148741761Y-86694523D01*
X148789380Y-86789761D01*
X148789380Y-87027857D01*
X148741761Y-87123095D01*
X148694142Y-87170714D01*
M02*
