G04 #@! TF.GenerationSoftware,KiCad,Pcbnew,(5.1.5)-3*
G04 #@! TF.CreationDate,2020-10-02T02:33:27-04:00*
G04 #@! TF.ProjectId,commodore-326173-01,636f6d6d-6f64-46f7-9265-2d3332363137,rev?*
G04 #@! TF.SameCoordinates,Original*
G04 #@! TF.FileFunction,Soldermask,Top*
G04 #@! TF.FilePolarity,Negative*
%FSLAX46Y46*%
G04 Gerber Fmt 4.6, Leading zero omitted, Abs format (unit mm)*
G04 Created by KiCad (PCBNEW (5.1.5)-3) date 2020-10-02 02:33:27*
%MOMM*%
%LPD*%
G04 APERTURE LIST*
%ADD10C,0.100000*%
G04 APERTURE END LIST*
D10*
G36*
X113220500Y-141351000D02*
G01*
X113220500Y-148272500D01*
X171259500Y-148272500D01*
X171259500Y-141351000D01*
X113220500Y-141351000D01*
G37*
X113220500Y-141351000D02*
X113220500Y-148272500D01*
X171259500Y-148272500D01*
X171259500Y-141351000D01*
X113220500Y-141351000D01*
G36*
X116496000Y-148331000D02*
G01*
X114644000Y-148331000D01*
X114644000Y-141229000D01*
X116496000Y-141229000D01*
X116496000Y-148331000D01*
G37*
G36*
X152056000Y-148331000D02*
G01*
X150204000Y-148331000D01*
X150204000Y-141229000D01*
X152056000Y-141229000D01*
X152056000Y-148331000D01*
G37*
G36*
X141896000Y-148331000D02*
G01*
X140044000Y-148331000D01*
X140044000Y-141229000D01*
X141896000Y-141229000D01*
X141896000Y-148331000D01*
G37*
G36*
X154596000Y-148331000D02*
G01*
X152744000Y-148331000D01*
X152744000Y-141229000D01*
X154596000Y-141229000D01*
X154596000Y-148331000D01*
G37*
G36*
X162216000Y-148331000D02*
G01*
X160364000Y-148331000D01*
X160364000Y-141229000D01*
X162216000Y-141229000D01*
X162216000Y-148331000D01*
G37*
G36*
X157136000Y-148331000D02*
G01*
X155284000Y-148331000D01*
X155284000Y-141229000D01*
X157136000Y-141229000D01*
X157136000Y-148331000D01*
G37*
G36*
X164756000Y-148331000D02*
G01*
X162904000Y-148331000D01*
X162904000Y-141229000D01*
X164756000Y-141229000D01*
X164756000Y-148331000D01*
G37*
G36*
X159676000Y-148331000D02*
G01*
X157824000Y-148331000D01*
X157824000Y-141229000D01*
X159676000Y-141229000D01*
X159676000Y-148331000D01*
G37*
G36*
X146976000Y-148331000D02*
G01*
X145124000Y-148331000D01*
X145124000Y-141229000D01*
X146976000Y-141229000D01*
X146976000Y-148331000D01*
G37*
G36*
X144436000Y-148331000D02*
G01*
X142584000Y-148331000D01*
X142584000Y-141229000D01*
X144436000Y-141229000D01*
X144436000Y-148331000D01*
G37*
G36*
X149516000Y-148331000D02*
G01*
X147664000Y-148331000D01*
X147664000Y-141229000D01*
X149516000Y-141229000D01*
X149516000Y-148331000D01*
G37*
G36*
X167296000Y-148331000D02*
G01*
X165444000Y-148331000D01*
X165444000Y-141229000D01*
X167296000Y-141229000D01*
X167296000Y-148331000D01*
G37*
G36*
X139356000Y-148331000D02*
G01*
X137504000Y-148331000D01*
X137504000Y-141229000D01*
X139356000Y-141229000D01*
X139356000Y-148331000D01*
G37*
G36*
X136816000Y-148331000D02*
G01*
X134964000Y-148331000D01*
X134964000Y-141229000D01*
X136816000Y-141229000D01*
X136816000Y-148331000D01*
G37*
G36*
X134276000Y-148331000D02*
G01*
X132424000Y-148331000D01*
X132424000Y-141229000D01*
X134276000Y-141229000D01*
X134276000Y-148331000D01*
G37*
G36*
X131736000Y-148331000D02*
G01*
X129884000Y-148331000D01*
X129884000Y-141229000D01*
X131736000Y-141229000D01*
X131736000Y-148331000D01*
G37*
G36*
X129196000Y-148331000D02*
G01*
X127344000Y-148331000D01*
X127344000Y-141229000D01*
X129196000Y-141229000D01*
X129196000Y-148331000D01*
G37*
G36*
X126656000Y-148331000D02*
G01*
X124804000Y-148331000D01*
X124804000Y-141229000D01*
X126656000Y-141229000D01*
X126656000Y-148331000D01*
G37*
G36*
X124116000Y-148331000D02*
G01*
X122264000Y-148331000D01*
X122264000Y-141229000D01*
X124116000Y-141229000D01*
X124116000Y-148331000D01*
G37*
G36*
X121576000Y-148331000D02*
G01*
X119724000Y-148331000D01*
X119724000Y-141229000D01*
X121576000Y-141229000D01*
X121576000Y-148331000D01*
G37*
G36*
X169836000Y-148331000D02*
G01*
X167984000Y-148331000D01*
X167984000Y-141229000D01*
X169836000Y-141229000D01*
X169836000Y-148331000D01*
G37*
G36*
X119036000Y-148331000D02*
G01*
X117184000Y-148331000D01*
X117184000Y-141229000D01*
X119036000Y-141229000D01*
X119036000Y-148331000D01*
G37*
G36*
X124954999Y-130644737D02*
G01*
X124964608Y-130647652D01*
X124973472Y-130652390D01*
X124981237Y-130658763D01*
X124991448Y-130671206D01*
X124998378Y-130681575D01*
X125015705Y-130698902D01*
X125036080Y-130712515D01*
X125058720Y-130721891D01*
X125082753Y-130726671D01*
X125107257Y-130726670D01*
X125131290Y-130721888D01*
X125153929Y-130712510D01*
X125174302Y-130698895D01*
X125191629Y-130681568D01*
X125198558Y-130671198D01*
X125208763Y-130658763D01*
X125216528Y-130652390D01*
X125225392Y-130647652D01*
X125235001Y-130644737D01*
X125251140Y-130643148D01*
X125738861Y-130643148D01*
X125757199Y-130644954D01*
X125769450Y-130645556D01*
X125787869Y-130645556D01*
X125810149Y-130647750D01*
X125894233Y-130664476D01*
X125915660Y-130670976D01*
X125994858Y-130703780D01*
X126000303Y-130706691D01*
X126000309Y-130706693D01*
X126009169Y-130711429D01*
X126009173Y-130711432D01*
X126014614Y-130714340D01*
X126085899Y-130761971D01*
X126103204Y-130776172D01*
X126163828Y-130836796D01*
X126178029Y-130854101D01*
X126225660Y-130925386D01*
X126228568Y-130930827D01*
X126228571Y-130930831D01*
X126233307Y-130939691D01*
X126233309Y-130939697D01*
X126236220Y-130945142D01*
X126269024Y-131024340D01*
X126275524Y-131045767D01*
X126292250Y-131129851D01*
X126294444Y-131152131D01*
X126294444Y-131170550D01*
X126295046Y-131182801D01*
X126296852Y-131201139D01*
X126296852Y-131688862D01*
X126295046Y-131707199D01*
X126294444Y-131719450D01*
X126294444Y-131737869D01*
X126292250Y-131760149D01*
X126275524Y-131844233D01*
X126269024Y-131865660D01*
X126236220Y-131944858D01*
X126233309Y-131950303D01*
X126233307Y-131950309D01*
X126228571Y-131959169D01*
X126228568Y-131959173D01*
X126225660Y-131964614D01*
X126178029Y-132035899D01*
X126163828Y-132053204D01*
X126103204Y-132113828D01*
X126085899Y-132128029D01*
X126014614Y-132175660D01*
X126009173Y-132178568D01*
X126009169Y-132178571D01*
X126000309Y-132183307D01*
X126000303Y-132183309D01*
X125994858Y-132186220D01*
X125915660Y-132219024D01*
X125894233Y-132225524D01*
X125810149Y-132242250D01*
X125787869Y-132244444D01*
X125769450Y-132244444D01*
X125757199Y-132245046D01*
X125738862Y-132246852D01*
X125251140Y-132246852D01*
X125235001Y-132245263D01*
X125225392Y-132242348D01*
X125216528Y-132237610D01*
X125208763Y-132231237D01*
X125198552Y-132218794D01*
X125191622Y-132208425D01*
X125174295Y-132191098D01*
X125153920Y-132177485D01*
X125131280Y-132168109D01*
X125107247Y-132163329D01*
X125082743Y-132163330D01*
X125058710Y-132168112D01*
X125036071Y-132177490D01*
X125015698Y-132191105D01*
X124998371Y-132208432D01*
X124991442Y-132218802D01*
X124981237Y-132231237D01*
X124973472Y-132237610D01*
X124964608Y-132242348D01*
X124954999Y-132245263D01*
X124938860Y-132246852D01*
X124451138Y-132246852D01*
X124432801Y-132245046D01*
X124420550Y-132244444D01*
X124402131Y-132244444D01*
X124379851Y-132242250D01*
X124295767Y-132225524D01*
X124274340Y-132219024D01*
X124195142Y-132186220D01*
X124189697Y-132183309D01*
X124189691Y-132183307D01*
X124180831Y-132178571D01*
X124180827Y-132178568D01*
X124175386Y-132175660D01*
X124104101Y-132128029D01*
X124086796Y-132113828D01*
X124026172Y-132053204D01*
X124011971Y-132035899D01*
X123964340Y-131964614D01*
X123961432Y-131959173D01*
X123961429Y-131959169D01*
X123956693Y-131950309D01*
X123956691Y-131950303D01*
X123953780Y-131944858D01*
X123920976Y-131865660D01*
X123914476Y-131844233D01*
X123897750Y-131760149D01*
X123895556Y-131737869D01*
X123895556Y-131719450D01*
X123894954Y-131707199D01*
X123893148Y-131688862D01*
X123893148Y-131201139D01*
X123894954Y-131182801D01*
X123895556Y-131170550D01*
X123895556Y-131152131D01*
X123897750Y-131129851D01*
X123914476Y-131045767D01*
X123920976Y-131024340D01*
X123953780Y-130945142D01*
X123956691Y-130939697D01*
X123956693Y-130939691D01*
X123961429Y-130930831D01*
X123961432Y-130930827D01*
X123964340Y-130925386D01*
X124011971Y-130854101D01*
X124026172Y-130836796D01*
X124086796Y-130776172D01*
X124104101Y-130761971D01*
X124175386Y-130714340D01*
X124180827Y-130711432D01*
X124180831Y-130711429D01*
X124189691Y-130706693D01*
X124189697Y-130706691D01*
X124195142Y-130703780D01*
X124274340Y-130670976D01*
X124295767Y-130664476D01*
X124379851Y-130647750D01*
X124402131Y-130645556D01*
X124420550Y-130645556D01*
X124432801Y-130644954D01*
X124451139Y-130643148D01*
X124938860Y-130643148D01*
X124954999Y-130644737D01*
G37*
G36*
X133844999Y-130644737D02*
G01*
X133854608Y-130647652D01*
X133863472Y-130652390D01*
X133871237Y-130658763D01*
X133881448Y-130671206D01*
X133888378Y-130681575D01*
X133905705Y-130698902D01*
X133926080Y-130712515D01*
X133948720Y-130721891D01*
X133972753Y-130726671D01*
X133997257Y-130726670D01*
X134021290Y-130721888D01*
X134043929Y-130712510D01*
X134064302Y-130698895D01*
X134081629Y-130681568D01*
X134088558Y-130671198D01*
X134098763Y-130658763D01*
X134106528Y-130652390D01*
X134115392Y-130647652D01*
X134125001Y-130644737D01*
X134141140Y-130643148D01*
X134628861Y-130643148D01*
X134647199Y-130644954D01*
X134659450Y-130645556D01*
X134677869Y-130645556D01*
X134700149Y-130647750D01*
X134784233Y-130664476D01*
X134805660Y-130670976D01*
X134884858Y-130703780D01*
X134890303Y-130706691D01*
X134890309Y-130706693D01*
X134899169Y-130711429D01*
X134899173Y-130711432D01*
X134904614Y-130714340D01*
X134975899Y-130761971D01*
X134993204Y-130776172D01*
X135053828Y-130836796D01*
X135068029Y-130854101D01*
X135115660Y-130925386D01*
X135118568Y-130930827D01*
X135118571Y-130930831D01*
X135123307Y-130939691D01*
X135123309Y-130939697D01*
X135126220Y-130945142D01*
X135159024Y-131024340D01*
X135165524Y-131045767D01*
X135182250Y-131129851D01*
X135184444Y-131152131D01*
X135184444Y-131170550D01*
X135185046Y-131182801D01*
X135186852Y-131201139D01*
X135186852Y-131688862D01*
X135185046Y-131707199D01*
X135184444Y-131719450D01*
X135184444Y-131737869D01*
X135182250Y-131760149D01*
X135165524Y-131844233D01*
X135159024Y-131865660D01*
X135126220Y-131944858D01*
X135123309Y-131950303D01*
X135123307Y-131950309D01*
X135118571Y-131959169D01*
X135118568Y-131959173D01*
X135115660Y-131964614D01*
X135068029Y-132035899D01*
X135053828Y-132053204D01*
X134993204Y-132113828D01*
X134975899Y-132128029D01*
X134904614Y-132175660D01*
X134899173Y-132178568D01*
X134899169Y-132178571D01*
X134890309Y-132183307D01*
X134890303Y-132183309D01*
X134884858Y-132186220D01*
X134805660Y-132219024D01*
X134784233Y-132225524D01*
X134700149Y-132242250D01*
X134677869Y-132244444D01*
X134659450Y-132244444D01*
X134647199Y-132245046D01*
X134628862Y-132246852D01*
X134141140Y-132246852D01*
X134125001Y-132245263D01*
X134115392Y-132242348D01*
X134106528Y-132237610D01*
X134098763Y-132231237D01*
X134088552Y-132218794D01*
X134081622Y-132208425D01*
X134064295Y-132191098D01*
X134043920Y-132177485D01*
X134021280Y-132168109D01*
X133997247Y-132163329D01*
X133972743Y-132163330D01*
X133948710Y-132168112D01*
X133926071Y-132177490D01*
X133905698Y-132191105D01*
X133888371Y-132208432D01*
X133881442Y-132218802D01*
X133871237Y-132231237D01*
X133863472Y-132237610D01*
X133854608Y-132242348D01*
X133844999Y-132245263D01*
X133828860Y-132246852D01*
X133341138Y-132246852D01*
X133322801Y-132245046D01*
X133310550Y-132244444D01*
X133292131Y-132244444D01*
X133269851Y-132242250D01*
X133185767Y-132225524D01*
X133164340Y-132219024D01*
X133085142Y-132186220D01*
X133079697Y-132183309D01*
X133079691Y-132183307D01*
X133070831Y-132178571D01*
X133070827Y-132178568D01*
X133065386Y-132175660D01*
X132994101Y-132128029D01*
X132976796Y-132113828D01*
X132916172Y-132053204D01*
X132901971Y-132035899D01*
X132854340Y-131964614D01*
X132851432Y-131959173D01*
X132851429Y-131959169D01*
X132846693Y-131950309D01*
X132846691Y-131950303D01*
X132843780Y-131944858D01*
X132810976Y-131865660D01*
X132804476Y-131844233D01*
X132787750Y-131760149D01*
X132785556Y-131737869D01*
X132785556Y-131719450D01*
X132784954Y-131707199D01*
X132783148Y-131688862D01*
X132783148Y-131201139D01*
X132784954Y-131182801D01*
X132785556Y-131170550D01*
X132785556Y-131152131D01*
X132787750Y-131129851D01*
X132804476Y-131045767D01*
X132810976Y-131024340D01*
X132843780Y-130945142D01*
X132846691Y-130939697D01*
X132846693Y-130939691D01*
X132851429Y-130930831D01*
X132851432Y-130930827D01*
X132854340Y-130925386D01*
X132901971Y-130854101D01*
X132916172Y-130836796D01*
X132976796Y-130776172D01*
X132994101Y-130761971D01*
X133065386Y-130714340D01*
X133070827Y-130711432D01*
X133070831Y-130711429D01*
X133079691Y-130706693D01*
X133079697Y-130706691D01*
X133085142Y-130703780D01*
X133164340Y-130670976D01*
X133185767Y-130664476D01*
X133269851Y-130647750D01*
X133292131Y-130645556D01*
X133310550Y-130645556D01*
X133322801Y-130644954D01*
X133341139Y-130643148D01*
X133828860Y-130643148D01*
X133844999Y-130644737D01*
G37*
G36*
X129399999Y-130644737D02*
G01*
X129409608Y-130647652D01*
X129418472Y-130652390D01*
X129426237Y-130658763D01*
X129436448Y-130671206D01*
X129443378Y-130681575D01*
X129460705Y-130698902D01*
X129481080Y-130712515D01*
X129503720Y-130721891D01*
X129527753Y-130726671D01*
X129552257Y-130726670D01*
X129576290Y-130721888D01*
X129598929Y-130712510D01*
X129619302Y-130698895D01*
X129636629Y-130681568D01*
X129643558Y-130671198D01*
X129653763Y-130658763D01*
X129661528Y-130652390D01*
X129670392Y-130647652D01*
X129680001Y-130644737D01*
X129696140Y-130643148D01*
X130183861Y-130643148D01*
X130202199Y-130644954D01*
X130214450Y-130645556D01*
X130232869Y-130645556D01*
X130255149Y-130647750D01*
X130339233Y-130664476D01*
X130360660Y-130670976D01*
X130439858Y-130703780D01*
X130445303Y-130706691D01*
X130445309Y-130706693D01*
X130454169Y-130711429D01*
X130454173Y-130711432D01*
X130459614Y-130714340D01*
X130530899Y-130761971D01*
X130548204Y-130776172D01*
X130608828Y-130836796D01*
X130623029Y-130854101D01*
X130670660Y-130925386D01*
X130673568Y-130930827D01*
X130673571Y-130930831D01*
X130678307Y-130939691D01*
X130678309Y-130939697D01*
X130681220Y-130945142D01*
X130714024Y-131024340D01*
X130720524Y-131045767D01*
X130737250Y-131129851D01*
X130739444Y-131152131D01*
X130739444Y-131170550D01*
X130740046Y-131182801D01*
X130741852Y-131201139D01*
X130741852Y-131688862D01*
X130740046Y-131707199D01*
X130739444Y-131719450D01*
X130739444Y-131737869D01*
X130737250Y-131760149D01*
X130720524Y-131844233D01*
X130714024Y-131865660D01*
X130681220Y-131944858D01*
X130678309Y-131950303D01*
X130678307Y-131950309D01*
X130673571Y-131959169D01*
X130673568Y-131959173D01*
X130670660Y-131964614D01*
X130623029Y-132035899D01*
X130608828Y-132053204D01*
X130548204Y-132113828D01*
X130530899Y-132128029D01*
X130459614Y-132175660D01*
X130454173Y-132178568D01*
X130454169Y-132178571D01*
X130445309Y-132183307D01*
X130445303Y-132183309D01*
X130439858Y-132186220D01*
X130360660Y-132219024D01*
X130339233Y-132225524D01*
X130255149Y-132242250D01*
X130232869Y-132244444D01*
X130214450Y-132244444D01*
X130202199Y-132245046D01*
X130183862Y-132246852D01*
X129696140Y-132246852D01*
X129680001Y-132245263D01*
X129670392Y-132242348D01*
X129661528Y-132237610D01*
X129653763Y-132231237D01*
X129643552Y-132218794D01*
X129636622Y-132208425D01*
X129619295Y-132191098D01*
X129598920Y-132177485D01*
X129576280Y-132168109D01*
X129552247Y-132163329D01*
X129527743Y-132163330D01*
X129503710Y-132168112D01*
X129481071Y-132177490D01*
X129460698Y-132191105D01*
X129443371Y-132208432D01*
X129436442Y-132218802D01*
X129426237Y-132231237D01*
X129418472Y-132237610D01*
X129409608Y-132242348D01*
X129399999Y-132245263D01*
X129383860Y-132246852D01*
X128896138Y-132246852D01*
X128877801Y-132245046D01*
X128865550Y-132244444D01*
X128847131Y-132244444D01*
X128824851Y-132242250D01*
X128740767Y-132225524D01*
X128719340Y-132219024D01*
X128640142Y-132186220D01*
X128634697Y-132183309D01*
X128634691Y-132183307D01*
X128625831Y-132178571D01*
X128625827Y-132178568D01*
X128620386Y-132175660D01*
X128549101Y-132128029D01*
X128531796Y-132113828D01*
X128471172Y-132053204D01*
X128456971Y-132035899D01*
X128409340Y-131964614D01*
X128406432Y-131959173D01*
X128406429Y-131959169D01*
X128401693Y-131950309D01*
X128401691Y-131950303D01*
X128398780Y-131944858D01*
X128365976Y-131865660D01*
X128359476Y-131844233D01*
X128342750Y-131760149D01*
X128340556Y-131737869D01*
X128340556Y-131719450D01*
X128339954Y-131707199D01*
X128338148Y-131688862D01*
X128338148Y-131201139D01*
X128339954Y-131182801D01*
X128340556Y-131170550D01*
X128340556Y-131152131D01*
X128342750Y-131129851D01*
X128359476Y-131045767D01*
X128365976Y-131024340D01*
X128398780Y-130945142D01*
X128401691Y-130939697D01*
X128401693Y-130939691D01*
X128406429Y-130930831D01*
X128406432Y-130930827D01*
X128409340Y-130925386D01*
X128456971Y-130854101D01*
X128471172Y-130836796D01*
X128531796Y-130776172D01*
X128549101Y-130761971D01*
X128620386Y-130714340D01*
X128625827Y-130711432D01*
X128625831Y-130711429D01*
X128634691Y-130706693D01*
X128634697Y-130706691D01*
X128640142Y-130703780D01*
X128719340Y-130670976D01*
X128740767Y-130664476D01*
X128824851Y-130647750D01*
X128847131Y-130645556D01*
X128865550Y-130645556D01*
X128877801Y-130644954D01*
X128896139Y-130643148D01*
X129383860Y-130643148D01*
X129399999Y-130644737D01*
G37*
G36*
X141464999Y-130009737D02*
G01*
X141474608Y-130012652D01*
X141483472Y-130017390D01*
X141491237Y-130023763D01*
X141501448Y-130036206D01*
X141508378Y-130046575D01*
X141525705Y-130063902D01*
X141546080Y-130077515D01*
X141568720Y-130086891D01*
X141592753Y-130091671D01*
X141617257Y-130091670D01*
X141641290Y-130086888D01*
X141663929Y-130077510D01*
X141684302Y-130063895D01*
X141701629Y-130046568D01*
X141708558Y-130036198D01*
X141718763Y-130023763D01*
X141726528Y-130017390D01*
X141735392Y-130012652D01*
X141745001Y-130009737D01*
X141761140Y-130008148D01*
X142248861Y-130008148D01*
X142267199Y-130009954D01*
X142279450Y-130010556D01*
X142297869Y-130010556D01*
X142320149Y-130012750D01*
X142404233Y-130029476D01*
X142425660Y-130035976D01*
X142504858Y-130068780D01*
X142510303Y-130071691D01*
X142510309Y-130071693D01*
X142519169Y-130076429D01*
X142519173Y-130076432D01*
X142524614Y-130079340D01*
X142595899Y-130126971D01*
X142613204Y-130141172D01*
X142673828Y-130201796D01*
X142688029Y-130219101D01*
X142735660Y-130290386D01*
X142738568Y-130295827D01*
X142738571Y-130295831D01*
X142743307Y-130304691D01*
X142743309Y-130304697D01*
X142746220Y-130310142D01*
X142779024Y-130389340D01*
X142785524Y-130410767D01*
X142802250Y-130494851D01*
X142804444Y-130517131D01*
X142804444Y-130535550D01*
X142805046Y-130547801D01*
X142806852Y-130566139D01*
X142806852Y-131053862D01*
X142805046Y-131072199D01*
X142804444Y-131084450D01*
X142804444Y-131102869D01*
X142802250Y-131125149D01*
X142785524Y-131209233D01*
X142779024Y-131230660D01*
X142746220Y-131309858D01*
X142743309Y-131315303D01*
X142743307Y-131315309D01*
X142738571Y-131324169D01*
X142738568Y-131324173D01*
X142735660Y-131329614D01*
X142688029Y-131400899D01*
X142673828Y-131418204D01*
X142613204Y-131478828D01*
X142595899Y-131493029D01*
X142524614Y-131540660D01*
X142519173Y-131543568D01*
X142519169Y-131543571D01*
X142510309Y-131548307D01*
X142510303Y-131548309D01*
X142504858Y-131551220D01*
X142425660Y-131584024D01*
X142404233Y-131590524D01*
X142320149Y-131607250D01*
X142297869Y-131609444D01*
X142279450Y-131609444D01*
X142267199Y-131610046D01*
X142248862Y-131611852D01*
X141761140Y-131611852D01*
X141745001Y-131610263D01*
X141735392Y-131607348D01*
X141726528Y-131602610D01*
X141718763Y-131596237D01*
X141708552Y-131583794D01*
X141701622Y-131573425D01*
X141684295Y-131556098D01*
X141663920Y-131542485D01*
X141641280Y-131533109D01*
X141617247Y-131528329D01*
X141592743Y-131528330D01*
X141568710Y-131533112D01*
X141546071Y-131542490D01*
X141525698Y-131556105D01*
X141508371Y-131573432D01*
X141501442Y-131583802D01*
X141491237Y-131596237D01*
X141483472Y-131602610D01*
X141474608Y-131607348D01*
X141464999Y-131610263D01*
X141448860Y-131611852D01*
X140961138Y-131611852D01*
X140942801Y-131610046D01*
X140930550Y-131609444D01*
X140912131Y-131609444D01*
X140889851Y-131607250D01*
X140805767Y-131590524D01*
X140784340Y-131584024D01*
X140705142Y-131551220D01*
X140699697Y-131548309D01*
X140699691Y-131548307D01*
X140690831Y-131543571D01*
X140690827Y-131543568D01*
X140685386Y-131540660D01*
X140614101Y-131493029D01*
X140596796Y-131478828D01*
X140536172Y-131418204D01*
X140521971Y-131400899D01*
X140474340Y-131329614D01*
X140471432Y-131324173D01*
X140471429Y-131324169D01*
X140466693Y-131315309D01*
X140466691Y-131315303D01*
X140463780Y-131309858D01*
X140430976Y-131230660D01*
X140424476Y-131209233D01*
X140407750Y-131125149D01*
X140405556Y-131102869D01*
X140405556Y-131084450D01*
X140404954Y-131072199D01*
X140403148Y-131053862D01*
X140403148Y-130566139D01*
X140404954Y-130547801D01*
X140405556Y-130535550D01*
X140405556Y-130517131D01*
X140407750Y-130494851D01*
X140424476Y-130410767D01*
X140430976Y-130389340D01*
X140463780Y-130310142D01*
X140466691Y-130304697D01*
X140466693Y-130304691D01*
X140471429Y-130295831D01*
X140471432Y-130295827D01*
X140474340Y-130290386D01*
X140521971Y-130219101D01*
X140536172Y-130201796D01*
X140596796Y-130141172D01*
X140614101Y-130126971D01*
X140685386Y-130079340D01*
X140690827Y-130076432D01*
X140690831Y-130076429D01*
X140699691Y-130071693D01*
X140699697Y-130071691D01*
X140705142Y-130068780D01*
X140784340Y-130035976D01*
X140805767Y-130029476D01*
X140889851Y-130012750D01*
X140912131Y-130010556D01*
X140930550Y-130010556D01*
X140942801Y-130009954D01*
X140961139Y-130008148D01*
X141448860Y-130008148D01*
X141464999Y-130009737D01*
G37*
G36*
X145909999Y-130009737D02*
G01*
X145919608Y-130012652D01*
X145928472Y-130017390D01*
X145936237Y-130023763D01*
X145946448Y-130036206D01*
X145953378Y-130046575D01*
X145970705Y-130063902D01*
X145991080Y-130077515D01*
X146013720Y-130086891D01*
X146037753Y-130091671D01*
X146062257Y-130091670D01*
X146086290Y-130086888D01*
X146108929Y-130077510D01*
X146129302Y-130063895D01*
X146146629Y-130046568D01*
X146153558Y-130036198D01*
X146163763Y-130023763D01*
X146171528Y-130017390D01*
X146180392Y-130012652D01*
X146190001Y-130009737D01*
X146206140Y-130008148D01*
X146693861Y-130008148D01*
X146712199Y-130009954D01*
X146724450Y-130010556D01*
X146742869Y-130010556D01*
X146765149Y-130012750D01*
X146849233Y-130029476D01*
X146870660Y-130035976D01*
X146949858Y-130068780D01*
X146955303Y-130071691D01*
X146955309Y-130071693D01*
X146964169Y-130076429D01*
X146964173Y-130076432D01*
X146969614Y-130079340D01*
X147040899Y-130126971D01*
X147058204Y-130141172D01*
X147118828Y-130201796D01*
X147133029Y-130219101D01*
X147180660Y-130290386D01*
X147183568Y-130295827D01*
X147183571Y-130295831D01*
X147188307Y-130304691D01*
X147188309Y-130304697D01*
X147191220Y-130310142D01*
X147224024Y-130389340D01*
X147230524Y-130410767D01*
X147247250Y-130494851D01*
X147249444Y-130517131D01*
X147249444Y-130535550D01*
X147250046Y-130547801D01*
X147251852Y-130566139D01*
X147251852Y-131053862D01*
X147250046Y-131072199D01*
X147249444Y-131084450D01*
X147249444Y-131102869D01*
X147247250Y-131125149D01*
X147230524Y-131209233D01*
X147224024Y-131230660D01*
X147191220Y-131309858D01*
X147188309Y-131315303D01*
X147188307Y-131315309D01*
X147183571Y-131324169D01*
X147183568Y-131324173D01*
X147180660Y-131329614D01*
X147133029Y-131400899D01*
X147118828Y-131418204D01*
X147058204Y-131478828D01*
X147040899Y-131493029D01*
X146969614Y-131540660D01*
X146964173Y-131543568D01*
X146964169Y-131543571D01*
X146955309Y-131548307D01*
X146955303Y-131548309D01*
X146949858Y-131551220D01*
X146870660Y-131584024D01*
X146849233Y-131590524D01*
X146765149Y-131607250D01*
X146742869Y-131609444D01*
X146724450Y-131609444D01*
X146712199Y-131610046D01*
X146693862Y-131611852D01*
X146206140Y-131611852D01*
X146190001Y-131610263D01*
X146180392Y-131607348D01*
X146171528Y-131602610D01*
X146163763Y-131596237D01*
X146153552Y-131583794D01*
X146146622Y-131573425D01*
X146129295Y-131556098D01*
X146108920Y-131542485D01*
X146086280Y-131533109D01*
X146062247Y-131528329D01*
X146037743Y-131528330D01*
X146013710Y-131533112D01*
X145991071Y-131542490D01*
X145970698Y-131556105D01*
X145953371Y-131573432D01*
X145946442Y-131583802D01*
X145936237Y-131596237D01*
X145928472Y-131602610D01*
X145919608Y-131607348D01*
X145909999Y-131610263D01*
X145893860Y-131611852D01*
X145406138Y-131611852D01*
X145387801Y-131610046D01*
X145375550Y-131609444D01*
X145357131Y-131609444D01*
X145334851Y-131607250D01*
X145250767Y-131590524D01*
X145229340Y-131584024D01*
X145150142Y-131551220D01*
X145144697Y-131548309D01*
X145144691Y-131548307D01*
X145135831Y-131543571D01*
X145135827Y-131543568D01*
X145130386Y-131540660D01*
X145059101Y-131493029D01*
X145041796Y-131478828D01*
X144981172Y-131418204D01*
X144966971Y-131400899D01*
X144919340Y-131329614D01*
X144916432Y-131324173D01*
X144916429Y-131324169D01*
X144911693Y-131315309D01*
X144911691Y-131315303D01*
X144908780Y-131309858D01*
X144875976Y-131230660D01*
X144869476Y-131209233D01*
X144852750Y-131125149D01*
X144850556Y-131102869D01*
X144850556Y-131084450D01*
X144849954Y-131072199D01*
X144848148Y-131053862D01*
X144848148Y-130566139D01*
X144849954Y-130547801D01*
X144850556Y-130535550D01*
X144850556Y-130517131D01*
X144852750Y-130494851D01*
X144869476Y-130410767D01*
X144875976Y-130389340D01*
X144908780Y-130310142D01*
X144911691Y-130304697D01*
X144911693Y-130304691D01*
X144916429Y-130295831D01*
X144916432Y-130295827D01*
X144919340Y-130290386D01*
X144966971Y-130219101D01*
X144981172Y-130201796D01*
X145041796Y-130141172D01*
X145059101Y-130126971D01*
X145130386Y-130079340D01*
X145135827Y-130076432D01*
X145135831Y-130076429D01*
X145144691Y-130071693D01*
X145144697Y-130071691D01*
X145150142Y-130068780D01*
X145229340Y-130035976D01*
X145250767Y-130029476D01*
X145334851Y-130012750D01*
X145357131Y-130010556D01*
X145375550Y-130010556D01*
X145387801Y-130009954D01*
X145406139Y-130008148D01*
X145893860Y-130008148D01*
X145909999Y-130009737D01*
G37*
G36*
X118961000Y-129121000D02*
G01*
X117259000Y-129121000D01*
X117259000Y-127419000D01*
X118961000Y-127419000D01*
X118961000Y-129121000D01*
G37*
G36*
X118358228Y-124951703D02*
G01*
X118513100Y-125015853D01*
X118652481Y-125108985D01*
X118771015Y-125227519D01*
X118864147Y-125366900D01*
X118928297Y-125521772D01*
X118961000Y-125686184D01*
X118961000Y-125853816D01*
X118928297Y-126018228D01*
X118864147Y-126173100D01*
X118771015Y-126312481D01*
X118652481Y-126431015D01*
X118513100Y-126524147D01*
X118358228Y-126588297D01*
X118193816Y-126621000D01*
X118026184Y-126621000D01*
X117861772Y-126588297D01*
X117706900Y-126524147D01*
X117567519Y-126431015D01*
X117448985Y-126312481D01*
X117355853Y-126173100D01*
X117291703Y-126018228D01*
X117259000Y-125853816D01*
X117259000Y-125686184D01*
X117291703Y-125521772D01*
X117355853Y-125366900D01*
X117448985Y-125227519D01*
X117567519Y-125108985D01*
X117706900Y-125015853D01*
X117861772Y-124951703D01*
X118026184Y-124919000D01*
X118193816Y-124919000D01*
X118358228Y-124951703D01*
G37*
G36*
X116158674Y-122958465D02*
G01*
X116196367Y-122969899D01*
X116231103Y-122988466D01*
X116261548Y-123013452D01*
X116286534Y-123043897D01*
X116305101Y-123078633D01*
X116316535Y-123116326D01*
X116321000Y-123161661D01*
X116321000Y-123998339D01*
X116316535Y-124043674D01*
X116305101Y-124081367D01*
X116286534Y-124116103D01*
X116261548Y-124146548D01*
X116231103Y-124171534D01*
X116196367Y-124190101D01*
X116158674Y-124201535D01*
X116113339Y-124206000D01*
X115026661Y-124206000D01*
X114981326Y-124201535D01*
X114943633Y-124190101D01*
X114908897Y-124171534D01*
X114878452Y-124146548D01*
X114853466Y-124116103D01*
X114834899Y-124081367D01*
X114823465Y-124043674D01*
X114819000Y-123998339D01*
X114819000Y-123161661D01*
X114823465Y-123116326D01*
X114834899Y-123078633D01*
X114853466Y-123043897D01*
X114878452Y-123013452D01*
X114908897Y-122988466D01*
X114943633Y-122969899D01*
X114981326Y-122958465D01*
X115026661Y-122954000D01*
X116113339Y-122954000D01*
X116158674Y-122958465D01*
G37*
G36*
X153283228Y-121101703D02*
G01*
X153438100Y-121165853D01*
X153577481Y-121258985D01*
X153696015Y-121377519D01*
X153789147Y-121516900D01*
X153853297Y-121671772D01*
X153886000Y-121836184D01*
X153886000Y-122003816D01*
X153853297Y-122168228D01*
X153789147Y-122323100D01*
X153696015Y-122462481D01*
X153577481Y-122581015D01*
X153438100Y-122674147D01*
X153283228Y-122738297D01*
X153118816Y-122771000D01*
X152951184Y-122771000D01*
X152786772Y-122738297D01*
X152631900Y-122674147D01*
X152492519Y-122581015D01*
X152373985Y-122462481D01*
X152280853Y-122323100D01*
X152216703Y-122168228D01*
X152184000Y-122003816D01*
X152184000Y-121836184D01*
X152216703Y-121671772D01*
X152280853Y-121516900D01*
X152373985Y-121377519D01*
X152492519Y-121258985D01*
X152631900Y-121165853D01*
X152786772Y-121101703D01*
X152951184Y-121069000D01*
X153118816Y-121069000D01*
X153283228Y-121101703D01*
G37*
G36*
X118358228Y-121101703D02*
G01*
X118513100Y-121165853D01*
X118652481Y-121258985D01*
X118771015Y-121377519D01*
X118864147Y-121516900D01*
X118928297Y-121671772D01*
X118961000Y-121836184D01*
X118961000Y-122003816D01*
X118928297Y-122168228D01*
X118864147Y-122323100D01*
X118771015Y-122462481D01*
X118652481Y-122581015D01*
X118513100Y-122674147D01*
X118358228Y-122738297D01*
X118193816Y-122771000D01*
X118026184Y-122771000D01*
X117861772Y-122738297D01*
X117706900Y-122674147D01*
X117567519Y-122581015D01*
X117448985Y-122462481D01*
X117355853Y-122323100D01*
X117291703Y-122168228D01*
X117259000Y-122003816D01*
X117259000Y-121836184D01*
X117291703Y-121671772D01*
X117355853Y-121516900D01*
X117448985Y-121377519D01*
X117567519Y-121258985D01*
X117706900Y-121165853D01*
X117861772Y-121101703D01*
X118026184Y-121069000D01*
X118193816Y-121069000D01*
X118358228Y-121101703D01*
G37*
G36*
X134201000Y-122771000D02*
G01*
X132499000Y-122771000D01*
X132499000Y-121069000D01*
X134201000Y-121069000D01*
X134201000Y-122771000D01*
G37*
G36*
X169126000Y-122771000D02*
G01*
X167424000Y-122771000D01*
X167424000Y-121069000D01*
X169126000Y-121069000D01*
X169126000Y-122771000D01*
G37*
G36*
X149035674Y-121173465D02*
G01*
X149073367Y-121184899D01*
X149108103Y-121203466D01*
X149138548Y-121228452D01*
X149163534Y-121258897D01*
X149182101Y-121293633D01*
X149193535Y-121331326D01*
X149198000Y-121376661D01*
X149198000Y-122463339D01*
X149193535Y-122508674D01*
X149182101Y-122546367D01*
X149163534Y-122581103D01*
X149138548Y-122611548D01*
X149108103Y-122636534D01*
X149073367Y-122655101D01*
X149035674Y-122666535D01*
X148990339Y-122671000D01*
X148153661Y-122671000D01*
X148108326Y-122666535D01*
X148070633Y-122655101D01*
X148035897Y-122636534D01*
X148005452Y-122611548D01*
X147980466Y-122581103D01*
X147961899Y-122546367D01*
X147950465Y-122508674D01*
X147946000Y-122463339D01*
X147946000Y-121376661D01*
X147950465Y-121331326D01*
X147961899Y-121293633D01*
X147980466Y-121258897D01*
X148005452Y-121228452D01*
X148035897Y-121203466D01*
X148070633Y-121184899D01*
X148108326Y-121173465D01*
X148153661Y-121169000D01*
X148990339Y-121169000D01*
X149035674Y-121173465D01*
G37*
G36*
X151085674Y-121173465D02*
G01*
X151123367Y-121184899D01*
X151158103Y-121203466D01*
X151188548Y-121228452D01*
X151213534Y-121258897D01*
X151232101Y-121293633D01*
X151243535Y-121331326D01*
X151248000Y-121376661D01*
X151248000Y-122463339D01*
X151243535Y-122508674D01*
X151232101Y-122546367D01*
X151213534Y-122581103D01*
X151188548Y-122611548D01*
X151158103Y-122636534D01*
X151123367Y-122655101D01*
X151085674Y-122666535D01*
X151040339Y-122671000D01*
X150203661Y-122671000D01*
X150158326Y-122666535D01*
X150120633Y-122655101D01*
X150085897Y-122636534D01*
X150055452Y-122611548D01*
X150030466Y-122581103D01*
X150011899Y-122546367D01*
X150000465Y-122508674D01*
X149996000Y-122463339D01*
X149996000Y-121376661D01*
X150000465Y-121331326D01*
X150011899Y-121293633D01*
X150030466Y-121258897D01*
X150055452Y-121228452D01*
X150085897Y-121203466D01*
X150120633Y-121184899D01*
X150158326Y-121173465D01*
X150203661Y-121169000D01*
X151040339Y-121169000D01*
X151085674Y-121173465D01*
G37*
G36*
X116158674Y-120908465D02*
G01*
X116196367Y-120919899D01*
X116231103Y-120938466D01*
X116261548Y-120963452D01*
X116286534Y-120993897D01*
X116305101Y-121028633D01*
X116316535Y-121066326D01*
X116321000Y-121111661D01*
X116321000Y-121948339D01*
X116316535Y-121993674D01*
X116305101Y-122031367D01*
X116286534Y-122066103D01*
X116261548Y-122096548D01*
X116231103Y-122121534D01*
X116196367Y-122140101D01*
X116158674Y-122151535D01*
X116113339Y-122156000D01*
X115026661Y-122156000D01*
X114981326Y-122151535D01*
X114943633Y-122140101D01*
X114908897Y-122121534D01*
X114878452Y-122096548D01*
X114853466Y-122066103D01*
X114834899Y-122031367D01*
X114823465Y-121993674D01*
X114819000Y-121948339D01*
X114819000Y-121111661D01*
X114823465Y-121066326D01*
X114834899Y-121028633D01*
X114853466Y-120993897D01*
X114878452Y-120963452D01*
X114908897Y-120938466D01*
X114943633Y-120919899D01*
X114981326Y-120908465D01*
X115026661Y-120904000D01*
X116113339Y-120904000D01*
X116158674Y-120908465D01*
G37*
G36*
X133598228Y-118561703D02*
G01*
X133753100Y-118625853D01*
X133892481Y-118718985D01*
X134011015Y-118837519D01*
X134104147Y-118976900D01*
X134168297Y-119131772D01*
X134201000Y-119296184D01*
X134201000Y-119463816D01*
X134168297Y-119628228D01*
X134104147Y-119783100D01*
X134011015Y-119922481D01*
X133892481Y-120041015D01*
X133753100Y-120134147D01*
X133598228Y-120198297D01*
X133433816Y-120231000D01*
X133266184Y-120231000D01*
X133101772Y-120198297D01*
X132946900Y-120134147D01*
X132807519Y-120041015D01*
X132688985Y-119922481D01*
X132595853Y-119783100D01*
X132531703Y-119628228D01*
X132499000Y-119463816D01*
X132499000Y-119296184D01*
X132531703Y-119131772D01*
X132595853Y-118976900D01*
X132688985Y-118837519D01*
X132807519Y-118718985D01*
X132946900Y-118625853D01*
X133101772Y-118561703D01*
X133266184Y-118529000D01*
X133433816Y-118529000D01*
X133598228Y-118561703D01*
G37*
G36*
X168523228Y-118561703D02*
G01*
X168678100Y-118625853D01*
X168817481Y-118718985D01*
X168936015Y-118837519D01*
X169029147Y-118976900D01*
X169093297Y-119131772D01*
X169126000Y-119296184D01*
X169126000Y-119463816D01*
X169093297Y-119628228D01*
X169029147Y-119783100D01*
X168936015Y-119922481D01*
X168817481Y-120041015D01*
X168678100Y-120134147D01*
X168523228Y-120198297D01*
X168358816Y-120231000D01*
X168191184Y-120231000D01*
X168026772Y-120198297D01*
X167871900Y-120134147D01*
X167732519Y-120041015D01*
X167613985Y-119922481D01*
X167520853Y-119783100D01*
X167456703Y-119628228D01*
X167424000Y-119463816D01*
X167424000Y-119296184D01*
X167456703Y-119131772D01*
X167520853Y-118976900D01*
X167613985Y-118837519D01*
X167732519Y-118718985D01*
X167871900Y-118625853D01*
X168026772Y-118561703D01*
X168191184Y-118529000D01*
X168358816Y-118529000D01*
X168523228Y-118561703D01*
G37*
G36*
X153283228Y-118561703D02*
G01*
X153438100Y-118625853D01*
X153577481Y-118718985D01*
X153696015Y-118837519D01*
X153789147Y-118976900D01*
X153853297Y-119131772D01*
X153886000Y-119296184D01*
X153886000Y-119463816D01*
X153853297Y-119628228D01*
X153789147Y-119783100D01*
X153696015Y-119922481D01*
X153577481Y-120041015D01*
X153438100Y-120134147D01*
X153283228Y-120198297D01*
X153118816Y-120231000D01*
X152951184Y-120231000D01*
X152786772Y-120198297D01*
X152631900Y-120134147D01*
X152492519Y-120041015D01*
X152373985Y-119922481D01*
X152280853Y-119783100D01*
X152216703Y-119628228D01*
X152184000Y-119463816D01*
X152184000Y-119296184D01*
X152216703Y-119131772D01*
X152280853Y-118976900D01*
X152373985Y-118837519D01*
X152492519Y-118718985D01*
X152631900Y-118625853D01*
X152786772Y-118561703D01*
X152951184Y-118529000D01*
X153118816Y-118529000D01*
X153283228Y-118561703D01*
G37*
G36*
X118358228Y-118561703D02*
G01*
X118513100Y-118625853D01*
X118652481Y-118718985D01*
X118771015Y-118837519D01*
X118864147Y-118976900D01*
X118928297Y-119131772D01*
X118961000Y-119296184D01*
X118961000Y-119463816D01*
X118928297Y-119628228D01*
X118864147Y-119783100D01*
X118771015Y-119922481D01*
X118652481Y-120041015D01*
X118513100Y-120134147D01*
X118358228Y-120198297D01*
X118193816Y-120231000D01*
X118026184Y-120231000D01*
X117861772Y-120198297D01*
X117706900Y-120134147D01*
X117567519Y-120041015D01*
X117448985Y-119922481D01*
X117355853Y-119783100D01*
X117291703Y-119628228D01*
X117259000Y-119463816D01*
X117259000Y-119296184D01*
X117291703Y-119131772D01*
X117355853Y-118976900D01*
X117448985Y-118837519D01*
X117567519Y-118718985D01*
X117706900Y-118625853D01*
X117861772Y-118561703D01*
X118026184Y-118529000D01*
X118193816Y-118529000D01*
X118358228Y-118561703D01*
G37*
G36*
X169126000Y-117691000D02*
G01*
X167424000Y-117691000D01*
X167424000Y-115989000D01*
X169126000Y-115989000D01*
X169126000Y-117691000D01*
G37*
G36*
X153283228Y-116021703D02*
G01*
X153438100Y-116085853D01*
X153577481Y-116178985D01*
X153696015Y-116297519D01*
X153789147Y-116436900D01*
X153853297Y-116591772D01*
X153886000Y-116756184D01*
X153886000Y-116923816D01*
X153853297Y-117088228D01*
X153789147Y-117243100D01*
X153696015Y-117382481D01*
X153577481Y-117501015D01*
X153438100Y-117594147D01*
X153283228Y-117658297D01*
X153118816Y-117691000D01*
X152951184Y-117691000D01*
X152786772Y-117658297D01*
X152631900Y-117594147D01*
X152492519Y-117501015D01*
X152373985Y-117382481D01*
X152280853Y-117243100D01*
X152216703Y-117088228D01*
X152184000Y-116923816D01*
X152184000Y-116756184D01*
X152216703Y-116591772D01*
X152280853Y-116436900D01*
X152373985Y-116297519D01*
X152492519Y-116178985D01*
X152631900Y-116085853D01*
X152786772Y-116021703D01*
X152951184Y-115989000D01*
X153118816Y-115989000D01*
X153283228Y-116021703D01*
G37*
G36*
X118358228Y-116021703D02*
G01*
X118513100Y-116085853D01*
X118652481Y-116178985D01*
X118771015Y-116297519D01*
X118864147Y-116436900D01*
X118928297Y-116591772D01*
X118961000Y-116756184D01*
X118961000Y-116923816D01*
X118928297Y-117088228D01*
X118864147Y-117243100D01*
X118771015Y-117382481D01*
X118652481Y-117501015D01*
X118513100Y-117594147D01*
X118358228Y-117658297D01*
X118193816Y-117691000D01*
X118026184Y-117691000D01*
X117861772Y-117658297D01*
X117706900Y-117594147D01*
X117567519Y-117501015D01*
X117448985Y-117382481D01*
X117355853Y-117243100D01*
X117291703Y-117088228D01*
X117259000Y-116923816D01*
X117259000Y-116756184D01*
X117291703Y-116591772D01*
X117355853Y-116436900D01*
X117448985Y-116297519D01*
X117567519Y-116178985D01*
X117706900Y-116085853D01*
X117861772Y-116021703D01*
X118026184Y-115989000D01*
X118193816Y-115989000D01*
X118358228Y-116021703D01*
G37*
G36*
X133598228Y-116021703D02*
G01*
X133753100Y-116085853D01*
X133892481Y-116178985D01*
X134011015Y-116297519D01*
X134104147Y-116436900D01*
X134168297Y-116591772D01*
X134201000Y-116756184D01*
X134201000Y-116923816D01*
X134168297Y-117088228D01*
X134104147Y-117243100D01*
X134011015Y-117382481D01*
X133892481Y-117501015D01*
X133753100Y-117594147D01*
X133598228Y-117658297D01*
X133433816Y-117691000D01*
X133266184Y-117691000D01*
X133101772Y-117658297D01*
X132946900Y-117594147D01*
X132807519Y-117501015D01*
X132688985Y-117382481D01*
X132595853Y-117243100D01*
X132531703Y-117088228D01*
X132499000Y-116923816D01*
X132499000Y-116756184D01*
X132531703Y-116591772D01*
X132595853Y-116436900D01*
X132688985Y-116297519D01*
X132807519Y-116178985D01*
X132946900Y-116085853D01*
X133101772Y-116021703D01*
X133266184Y-115989000D01*
X133433816Y-115989000D01*
X133598228Y-116021703D01*
G37*
G36*
X168523228Y-113481703D02*
G01*
X168678100Y-113545853D01*
X168817481Y-113638985D01*
X168936015Y-113757519D01*
X169029147Y-113896900D01*
X169093297Y-114051772D01*
X169126000Y-114216184D01*
X169126000Y-114383816D01*
X169093297Y-114548228D01*
X169029147Y-114703100D01*
X168936015Y-114842481D01*
X168817481Y-114961015D01*
X168678100Y-115054147D01*
X168523228Y-115118297D01*
X168358816Y-115151000D01*
X168191184Y-115151000D01*
X168026772Y-115118297D01*
X167871900Y-115054147D01*
X167732519Y-114961015D01*
X167613985Y-114842481D01*
X167520853Y-114703100D01*
X167456703Y-114548228D01*
X167424000Y-114383816D01*
X167424000Y-114216184D01*
X167456703Y-114051772D01*
X167520853Y-113896900D01*
X167613985Y-113757519D01*
X167732519Y-113638985D01*
X167871900Y-113545853D01*
X168026772Y-113481703D01*
X168191184Y-113449000D01*
X168358816Y-113449000D01*
X168523228Y-113481703D01*
G37*
G36*
X153283228Y-113481703D02*
G01*
X153438100Y-113545853D01*
X153577481Y-113638985D01*
X153696015Y-113757519D01*
X153789147Y-113896900D01*
X153853297Y-114051772D01*
X153886000Y-114216184D01*
X153886000Y-114383816D01*
X153853297Y-114548228D01*
X153789147Y-114703100D01*
X153696015Y-114842481D01*
X153577481Y-114961015D01*
X153438100Y-115054147D01*
X153283228Y-115118297D01*
X153118816Y-115151000D01*
X152951184Y-115151000D01*
X152786772Y-115118297D01*
X152631900Y-115054147D01*
X152492519Y-114961015D01*
X152373985Y-114842481D01*
X152280853Y-114703100D01*
X152216703Y-114548228D01*
X152184000Y-114383816D01*
X152184000Y-114216184D01*
X152216703Y-114051772D01*
X152280853Y-113896900D01*
X152373985Y-113757519D01*
X152492519Y-113638985D01*
X152631900Y-113545853D01*
X152786772Y-113481703D01*
X152951184Y-113449000D01*
X153118816Y-113449000D01*
X153283228Y-113481703D01*
G37*
G36*
X133598228Y-113481703D02*
G01*
X133753100Y-113545853D01*
X133892481Y-113638985D01*
X134011015Y-113757519D01*
X134104147Y-113896900D01*
X134168297Y-114051772D01*
X134201000Y-114216184D01*
X134201000Y-114383816D01*
X134168297Y-114548228D01*
X134104147Y-114703100D01*
X134011015Y-114842481D01*
X133892481Y-114961015D01*
X133753100Y-115054147D01*
X133598228Y-115118297D01*
X133433816Y-115151000D01*
X133266184Y-115151000D01*
X133101772Y-115118297D01*
X132946900Y-115054147D01*
X132807519Y-114961015D01*
X132688985Y-114842481D01*
X132595853Y-114703100D01*
X132531703Y-114548228D01*
X132499000Y-114383816D01*
X132499000Y-114216184D01*
X132531703Y-114051772D01*
X132595853Y-113896900D01*
X132688985Y-113757519D01*
X132807519Y-113638985D01*
X132946900Y-113545853D01*
X133101772Y-113481703D01*
X133266184Y-113449000D01*
X133433816Y-113449000D01*
X133598228Y-113481703D01*
G37*
G36*
X118358228Y-113481703D02*
G01*
X118513100Y-113545853D01*
X118652481Y-113638985D01*
X118771015Y-113757519D01*
X118864147Y-113896900D01*
X118928297Y-114051772D01*
X118961000Y-114216184D01*
X118961000Y-114383816D01*
X118928297Y-114548228D01*
X118864147Y-114703100D01*
X118771015Y-114842481D01*
X118652481Y-114961015D01*
X118513100Y-115054147D01*
X118358228Y-115118297D01*
X118193816Y-115151000D01*
X118026184Y-115151000D01*
X117861772Y-115118297D01*
X117706900Y-115054147D01*
X117567519Y-114961015D01*
X117448985Y-114842481D01*
X117355853Y-114703100D01*
X117291703Y-114548228D01*
X117259000Y-114383816D01*
X117259000Y-114216184D01*
X117291703Y-114051772D01*
X117355853Y-113896900D01*
X117448985Y-113757519D01*
X117567519Y-113638985D01*
X117706900Y-113545853D01*
X117861772Y-113481703D01*
X118026184Y-113449000D01*
X118193816Y-113449000D01*
X118358228Y-113481703D01*
G37*
G36*
X133598228Y-110941703D02*
G01*
X133753100Y-111005853D01*
X133892481Y-111098985D01*
X134011015Y-111217519D01*
X134104147Y-111356900D01*
X134168297Y-111511772D01*
X134201000Y-111676184D01*
X134201000Y-111843816D01*
X134168297Y-112008228D01*
X134104147Y-112163100D01*
X134011015Y-112302481D01*
X133892481Y-112421015D01*
X133753100Y-112514147D01*
X133598228Y-112578297D01*
X133433816Y-112611000D01*
X133266184Y-112611000D01*
X133101772Y-112578297D01*
X132946900Y-112514147D01*
X132807519Y-112421015D01*
X132688985Y-112302481D01*
X132595853Y-112163100D01*
X132531703Y-112008228D01*
X132499000Y-111843816D01*
X132499000Y-111676184D01*
X132531703Y-111511772D01*
X132595853Y-111356900D01*
X132688985Y-111217519D01*
X132807519Y-111098985D01*
X132946900Y-111005853D01*
X133101772Y-110941703D01*
X133266184Y-110909000D01*
X133433816Y-110909000D01*
X133598228Y-110941703D01*
G37*
G36*
X118358228Y-110941703D02*
G01*
X118513100Y-111005853D01*
X118652481Y-111098985D01*
X118771015Y-111217519D01*
X118864147Y-111356900D01*
X118928297Y-111511772D01*
X118961000Y-111676184D01*
X118961000Y-111843816D01*
X118928297Y-112008228D01*
X118864147Y-112163100D01*
X118771015Y-112302481D01*
X118652481Y-112421015D01*
X118513100Y-112514147D01*
X118358228Y-112578297D01*
X118193816Y-112611000D01*
X118026184Y-112611000D01*
X117861772Y-112578297D01*
X117706900Y-112514147D01*
X117567519Y-112421015D01*
X117448985Y-112302481D01*
X117355853Y-112163100D01*
X117291703Y-112008228D01*
X117259000Y-111843816D01*
X117259000Y-111676184D01*
X117291703Y-111511772D01*
X117355853Y-111356900D01*
X117448985Y-111217519D01*
X117567519Y-111098985D01*
X117706900Y-111005853D01*
X117861772Y-110941703D01*
X118026184Y-110909000D01*
X118193816Y-110909000D01*
X118358228Y-110941703D01*
G37*
G36*
X168523228Y-110941703D02*
G01*
X168678100Y-111005853D01*
X168817481Y-111098985D01*
X168936015Y-111217519D01*
X169029147Y-111356900D01*
X169093297Y-111511772D01*
X169126000Y-111676184D01*
X169126000Y-111843816D01*
X169093297Y-112008228D01*
X169029147Y-112163100D01*
X168936015Y-112302481D01*
X168817481Y-112421015D01*
X168678100Y-112514147D01*
X168523228Y-112578297D01*
X168358816Y-112611000D01*
X168191184Y-112611000D01*
X168026772Y-112578297D01*
X167871900Y-112514147D01*
X167732519Y-112421015D01*
X167613985Y-112302481D01*
X167520853Y-112163100D01*
X167456703Y-112008228D01*
X167424000Y-111843816D01*
X167424000Y-111676184D01*
X167456703Y-111511772D01*
X167520853Y-111356900D01*
X167613985Y-111217519D01*
X167732519Y-111098985D01*
X167871900Y-111005853D01*
X168026772Y-110941703D01*
X168191184Y-110909000D01*
X168358816Y-110909000D01*
X168523228Y-110941703D01*
G37*
G36*
X153283228Y-110941703D02*
G01*
X153438100Y-111005853D01*
X153577481Y-111098985D01*
X153696015Y-111217519D01*
X153789147Y-111356900D01*
X153853297Y-111511772D01*
X153886000Y-111676184D01*
X153886000Y-111843816D01*
X153853297Y-112008228D01*
X153789147Y-112163100D01*
X153696015Y-112302481D01*
X153577481Y-112421015D01*
X153438100Y-112514147D01*
X153283228Y-112578297D01*
X153118816Y-112611000D01*
X152951184Y-112611000D01*
X152786772Y-112578297D01*
X152631900Y-112514147D01*
X152492519Y-112421015D01*
X152373985Y-112302481D01*
X152280853Y-112163100D01*
X152216703Y-112008228D01*
X152184000Y-111843816D01*
X152184000Y-111676184D01*
X152216703Y-111511772D01*
X152280853Y-111356900D01*
X152373985Y-111217519D01*
X152492519Y-111098985D01*
X152631900Y-111005853D01*
X152786772Y-110941703D01*
X152951184Y-110909000D01*
X153118816Y-110909000D01*
X153283228Y-110941703D01*
G37*
G36*
X153283228Y-108401703D02*
G01*
X153438100Y-108465853D01*
X153577481Y-108558985D01*
X153696015Y-108677519D01*
X153789147Y-108816900D01*
X153853297Y-108971772D01*
X153886000Y-109136184D01*
X153886000Y-109303816D01*
X153853297Y-109468228D01*
X153789147Y-109623100D01*
X153696015Y-109762481D01*
X153577481Y-109881015D01*
X153438100Y-109974147D01*
X153283228Y-110038297D01*
X153118816Y-110071000D01*
X152951184Y-110071000D01*
X152786772Y-110038297D01*
X152631900Y-109974147D01*
X152492519Y-109881015D01*
X152373985Y-109762481D01*
X152280853Y-109623100D01*
X152216703Y-109468228D01*
X152184000Y-109303816D01*
X152184000Y-109136184D01*
X152216703Y-108971772D01*
X152280853Y-108816900D01*
X152373985Y-108677519D01*
X152492519Y-108558985D01*
X152631900Y-108465853D01*
X152786772Y-108401703D01*
X152951184Y-108369000D01*
X153118816Y-108369000D01*
X153283228Y-108401703D01*
G37*
G36*
X168523228Y-108401703D02*
G01*
X168678100Y-108465853D01*
X168817481Y-108558985D01*
X168936015Y-108677519D01*
X169029147Y-108816900D01*
X169093297Y-108971772D01*
X169126000Y-109136184D01*
X169126000Y-109303816D01*
X169093297Y-109468228D01*
X169029147Y-109623100D01*
X168936015Y-109762481D01*
X168817481Y-109881015D01*
X168678100Y-109974147D01*
X168523228Y-110038297D01*
X168358816Y-110071000D01*
X168191184Y-110071000D01*
X168026772Y-110038297D01*
X167871900Y-109974147D01*
X167732519Y-109881015D01*
X167613985Y-109762481D01*
X167520853Y-109623100D01*
X167456703Y-109468228D01*
X167424000Y-109303816D01*
X167424000Y-109136184D01*
X167456703Y-108971772D01*
X167520853Y-108816900D01*
X167613985Y-108677519D01*
X167732519Y-108558985D01*
X167871900Y-108465853D01*
X168026772Y-108401703D01*
X168191184Y-108369000D01*
X168358816Y-108369000D01*
X168523228Y-108401703D01*
G37*
G36*
X118358228Y-108401703D02*
G01*
X118513100Y-108465853D01*
X118652481Y-108558985D01*
X118771015Y-108677519D01*
X118864147Y-108816900D01*
X118928297Y-108971772D01*
X118961000Y-109136184D01*
X118961000Y-109303816D01*
X118928297Y-109468228D01*
X118864147Y-109623100D01*
X118771015Y-109762481D01*
X118652481Y-109881015D01*
X118513100Y-109974147D01*
X118358228Y-110038297D01*
X118193816Y-110071000D01*
X118026184Y-110071000D01*
X117861772Y-110038297D01*
X117706900Y-109974147D01*
X117567519Y-109881015D01*
X117448985Y-109762481D01*
X117355853Y-109623100D01*
X117291703Y-109468228D01*
X117259000Y-109303816D01*
X117259000Y-109136184D01*
X117291703Y-108971772D01*
X117355853Y-108816900D01*
X117448985Y-108677519D01*
X117567519Y-108558985D01*
X117706900Y-108465853D01*
X117861772Y-108401703D01*
X118026184Y-108369000D01*
X118193816Y-108369000D01*
X118358228Y-108401703D01*
G37*
G36*
X133598228Y-108401703D02*
G01*
X133753100Y-108465853D01*
X133892481Y-108558985D01*
X134011015Y-108677519D01*
X134104147Y-108816900D01*
X134168297Y-108971772D01*
X134201000Y-109136184D01*
X134201000Y-109303816D01*
X134168297Y-109468228D01*
X134104147Y-109623100D01*
X134011015Y-109762481D01*
X133892481Y-109881015D01*
X133753100Y-109974147D01*
X133598228Y-110038297D01*
X133433816Y-110071000D01*
X133266184Y-110071000D01*
X133101772Y-110038297D01*
X132946900Y-109974147D01*
X132807519Y-109881015D01*
X132688985Y-109762481D01*
X132595853Y-109623100D01*
X132531703Y-109468228D01*
X132499000Y-109303816D01*
X132499000Y-109136184D01*
X132531703Y-108971772D01*
X132595853Y-108816900D01*
X132688985Y-108677519D01*
X132807519Y-108558985D01*
X132946900Y-108465853D01*
X133101772Y-108401703D01*
X133266184Y-108369000D01*
X133433816Y-108369000D01*
X133598228Y-108401703D01*
G37*
G36*
X153283228Y-105861703D02*
G01*
X153438100Y-105925853D01*
X153577481Y-106018985D01*
X153696015Y-106137519D01*
X153789147Y-106276900D01*
X153853297Y-106431772D01*
X153886000Y-106596184D01*
X153886000Y-106763816D01*
X153853297Y-106928228D01*
X153789147Y-107083100D01*
X153696015Y-107222481D01*
X153577481Y-107341015D01*
X153438100Y-107434147D01*
X153283228Y-107498297D01*
X153118816Y-107531000D01*
X152951184Y-107531000D01*
X152786772Y-107498297D01*
X152631900Y-107434147D01*
X152492519Y-107341015D01*
X152373985Y-107222481D01*
X152280853Y-107083100D01*
X152216703Y-106928228D01*
X152184000Y-106763816D01*
X152184000Y-106596184D01*
X152216703Y-106431772D01*
X152280853Y-106276900D01*
X152373985Y-106137519D01*
X152492519Y-106018985D01*
X152631900Y-105925853D01*
X152786772Y-105861703D01*
X152951184Y-105829000D01*
X153118816Y-105829000D01*
X153283228Y-105861703D01*
G37*
G36*
X118358228Y-105861703D02*
G01*
X118513100Y-105925853D01*
X118652481Y-106018985D01*
X118771015Y-106137519D01*
X118864147Y-106276900D01*
X118928297Y-106431772D01*
X118961000Y-106596184D01*
X118961000Y-106763816D01*
X118928297Y-106928228D01*
X118864147Y-107083100D01*
X118771015Y-107222481D01*
X118652481Y-107341015D01*
X118513100Y-107434147D01*
X118358228Y-107498297D01*
X118193816Y-107531000D01*
X118026184Y-107531000D01*
X117861772Y-107498297D01*
X117706900Y-107434147D01*
X117567519Y-107341015D01*
X117448985Y-107222481D01*
X117355853Y-107083100D01*
X117291703Y-106928228D01*
X117259000Y-106763816D01*
X117259000Y-106596184D01*
X117291703Y-106431772D01*
X117355853Y-106276900D01*
X117448985Y-106137519D01*
X117567519Y-106018985D01*
X117706900Y-105925853D01*
X117861772Y-105861703D01*
X118026184Y-105829000D01*
X118193816Y-105829000D01*
X118358228Y-105861703D01*
G37*
G36*
X133598228Y-105861703D02*
G01*
X133753100Y-105925853D01*
X133892481Y-106018985D01*
X134011015Y-106137519D01*
X134104147Y-106276900D01*
X134168297Y-106431772D01*
X134201000Y-106596184D01*
X134201000Y-106763816D01*
X134168297Y-106928228D01*
X134104147Y-107083100D01*
X134011015Y-107222481D01*
X133892481Y-107341015D01*
X133753100Y-107434147D01*
X133598228Y-107498297D01*
X133433816Y-107531000D01*
X133266184Y-107531000D01*
X133101772Y-107498297D01*
X132946900Y-107434147D01*
X132807519Y-107341015D01*
X132688985Y-107222481D01*
X132595853Y-107083100D01*
X132531703Y-106928228D01*
X132499000Y-106763816D01*
X132499000Y-106596184D01*
X132531703Y-106431772D01*
X132595853Y-106276900D01*
X132688985Y-106137519D01*
X132807519Y-106018985D01*
X132946900Y-105925853D01*
X133101772Y-105861703D01*
X133266184Y-105829000D01*
X133433816Y-105829000D01*
X133598228Y-105861703D01*
G37*
G36*
X168523228Y-105861703D02*
G01*
X168678100Y-105925853D01*
X168817481Y-106018985D01*
X168936015Y-106137519D01*
X169029147Y-106276900D01*
X169093297Y-106431772D01*
X169126000Y-106596184D01*
X169126000Y-106763816D01*
X169093297Y-106928228D01*
X169029147Y-107083100D01*
X168936015Y-107222481D01*
X168817481Y-107341015D01*
X168678100Y-107434147D01*
X168523228Y-107498297D01*
X168358816Y-107531000D01*
X168191184Y-107531000D01*
X168026772Y-107498297D01*
X167871900Y-107434147D01*
X167732519Y-107341015D01*
X167613985Y-107222481D01*
X167520853Y-107083100D01*
X167456703Y-106928228D01*
X167424000Y-106763816D01*
X167424000Y-106596184D01*
X167456703Y-106431772D01*
X167520853Y-106276900D01*
X167613985Y-106137519D01*
X167732519Y-106018985D01*
X167871900Y-105925853D01*
X168026772Y-105861703D01*
X168191184Y-105829000D01*
X168358816Y-105829000D01*
X168523228Y-105861703D01*
G37*
G36*
X168523228Y-103321703D02*
G01*
X168678100Y-103385853D01*
X168817481Y-103478985D01*
X168936015Y-103597519D01*
X169029147Y-103736900D01*
X169093297Y-103891772D01*
X169126000Y-104056184D01*
X169126000Y-104223816D01*
X169093297Y-104388228D01*
X169029147Y-104543100D01*
X168936015Y-104682481D01*
X168817481Y-104801015D01*
X168678100Y-104894147D01*
X168523228Y-104958297D01*
X168358816Y-104991000D01*
X168191184Y-104991000D01*
X168026772Y-104958297D01*
X167871900Y-104894147D01*
X167732519Y-104801015D01*
X167613985Y-104682481D01*
X167520853Y-104543100D01*
X167456703Y-104388228D01*
X167424000Y-104223816D01*
X167424000Y-104056184D01*
X167456703Y-103891772D01*
X167520853Y-103736900D01*
X167613985Y-103597519D01*
X167732519Y-103478985D01*
X167871900Y-103385853D01*
X168026772Y-103321703D01*
X168191184Y-103289000D01*
X168358816Y-103289000D01*
X168523228Y-103321703D01*
G37*
G36*
X153283228Y-103321703D02*
G01*
X153438100Y-103385853D01*
X153577481Y-103478985D01*
X153696015Y-103597519D01*
X153789147Y-103736900D01*
X153853297Y-103891772D01*
X153886000Y-104056184D01*
X153886000Y-104223816D01*
X153853297Y-104388228D01*
X153789147Y-104543100D01*
X153696015Y-104682481D01*
X153577481Y-104801015D01*
X153438100Y-104894147D01*
X153283228Y-104958297D01*
X153118816Y-104991000D01*
X152951184Y-104991000D01*
X152786772Y-104958297D01*
X152631900Y-104894147D01*
X152492519Y-104801015D01*
X152373985Y-104682481D01*
X152280853Y-104543100D01*
X152216703Y-104388228D01*
X152184000Y-104223816D01*
X152184000Y-104056184D01*
X152216703Y-103891772D01*
X152280853Y-103736900D01*
X152373985Y-103597519D01*
X152492519Y-103478985D01*
X152631900Y-103385853D01*
X152786772Y-103321703D01*
X152951184Y-103289000D01*
X153118816Y-103289000D01*
X153283228Y-103321703D01*
G37*
G36*
X133598228Y-103321703D02*
G01*
X133753100Y-103385853D01*
X133892481Y-103478985D01*
X134011015Y-103597519D01*
X134104147Y-103736900D01*
X134168297Y-103891772D01*
X134201000Y-104056184D01*
X134201000Y-104223816D01*
X134168297Y-104388228D01*
X134104147Y-104543100D01*
X134011015Y-104682481D01*
X133892481Y-104801015D01*
X133753100Y-104894147D01*
X133598228Y-104958297D01*
X133433816Y-104991000D01*
X133266184Y-104991000D01*
X133101772Y-104958297D01*
X132946900Y-104894147D01*
X132807519Y-104801015D01*
X132688985Y-104682481D01*
X132595853Y-104543100D01*
X132531703Y-104388228D01*
X132499000Y-104223816D01*
X132499000Y-104056184D01*
X132531703Y-103891772D01*
X132595853Y-103736900D01*
X132688985Y-103597519D01*
X132807519Y-103478985D01*
X132946900Y-103385853D01*
X133101772Y-103321703D01*
X133266184Y-103289000D01*
X133433816Y-103289000D01*
X133598228Y-103321703D01*
G37*
G36*
X118358228Y-103321703D02*
G01*
X118513100Y-103385853D01*
X118652481Y-103478985D01*
X118771015Y-103597519D01*
X118864147Y-103736900D01*
X118928297Y-103891772D01*
X118961000Y-104056184D01*
X118961000Y-104223816D01*
X118928297Y-104388228D01*
X118864147Y-104543100D01*
X118771015Y-104682481D01*
X118652481Y-104801015D01*
X118513100Y-104894147D01*
X118358228Y-104958297D01*
X118193816Y-104991000D01*
X118026184Y-104991000D01*
X117861772Y-104958297D01*
X117706900Y-104894147D01*
X117567519Y-104801015D01*
X117448985Y-104682481D01*
X117355853Y-104543100D01*
X117291703Y-104388228D01*
X117259000Y-104223816D01*
X117259000Y-104056184D01*
X117291703Y-103891772D01*
X117355853Y-103736900D01*
X117448985Y-103597519D01*
X117567519Y-103478985D01*
X117706900Y-103385853D01*
X117861772Y-103321703D01*
X118026184Y-103289000D01*
X118193816Y-103289000D01*
X118358228Y-103321703D01*
G37*
G36*
X168523228Y-100781703D02*
G01*
X168678100Y-100845853D01*
X168817481Y-100938985D01*
X168936015Y-101057519D01*
X169029147Y-101196900D01*
X169093297Y-101351772D01*
X169126000Y-101516184D01*
X169126000Y-101683816D01*
X169093297Y-101848228D01*
X169029147Y-102003100D01*
X168936015Y-102142481D01*
X168817481Y-102261015D01*
X168678100Y-102354147D01*
X168523228Y-102418297D01*
X168358816Y-102451000D01*
X168191184Y-102451000D01*
X168026772Y-102418297D01*
X167871900Y-102354147D01*
X167732519Y-102261015D01*
X167613985Y-102142481D01*
X167520853Y-102003100D01*
X167456703Y-101848228D01*
X167424000Y-101683816D01*
X167424000Y-101516184D01*
X167456703Y-101351772D01*
X167520853Y-101196900D01*
X167613985Y-101057519D01*
X167732519Y-100938985D01*
X167871900Y-100845853D01*
X168026772Y-100781703D01*
X168191184Y-100749000D01*
X168358816Y-100749000D01*
X168523228Y-100781703D01*
G37*
G36*
X118358228Y-100781703D02*
G01*
X118513100Y-100845853D01*
X118652481Y-100938985D01*
X118771015Y-101057519D01*
X118864147Y-101196900D01*
X118928297Y-101351772D01*
X118961000Y-101516184D01*
X118961000Y-101683816D01*
X118928297Y-101848228D01*
X118864147Y-102003100D01*
X118771015Y-102142481D01*
X118652481Y-102261015D01*
X118513100Y-102354147D01*
X118358228Y-102418297D01*
X118193816Y-102451000D01*
X118026184Y-102451000D01*
X117861772Y-102418297D01*
X117706900Y-102354147D01*
X117567519Y-102261015D01*
X117448985Y-102142481D01*
X117355853Y-102003100D01*
X117291703Y-101848228D01*
X117259000Y-101683816D01*
X117259000Y-101516184D01*
X117291703Y-101351772D01*
X117355853Y-101196900D01*
X117448985Y-101057519D01*
X117567519Y-100938985D01*
X117706900Y-100845853D01*
X117861772Y-100781703D01*
X118026184Y-100749000D01*
X118193816Y-100749000D01*
X118358228Y-100781703D01*
G37*
G36*
X133598228Y-100781703D02*
G01*
X133753100Y-100845853D01*
X133892481Y-100938985D01*
X134011015Y-101057519D01*
X134104147Y-101196900D01*
X134168297Y-101351772D01*
X134201000Y-101516184D01*
X134201000Y-101683816D01*
X134168297Y-101848228D01*
X134104147Y-102003100D01*
X134011015Y-102142481D01*
X133892481Y-102261015D01*
X133753100Y-102354147D01*
X133598228Y-102418297D01*
X133433816Y-102451000D01*
X133266184Y-102451000D01*
X133101772Y-102418297D01*
X132946900Y-102354147D01*
X132807519Y-102261015D01*
X132688985Y-102142481D01*
X132595853Y-102003100D01*
X132531703Y-101848228D01*
X132499000Y-101683816D01*
X132499000Y-101516184D01*
X132531703Y-101351772D01*
X132595853Y-101196900D01*
X132688985Y-101057519D01*
X132807519Y-100938985D01*
X132946900Y-100845853D01*
X133101772Y-100781703D01*
X133266184Y-100749000D01*
X133433816Y-100749000D01*
X133598228Y-100781703D01*
G37*
G36*
X153283228Y-100781703D02*
G01*
X153438100Y-100845853D01*
X153577481Y-100938985D01*
X153696015Y-101057519D01*
X153789147Y-101196900D01*
X153853297Y-101351772D01*
X153886000Y-101516184D01*
X153886000Y-101683816D01*
X153853297Y-101848228D01*
X153789147Y-102003100D01*
X153696015Y-102142481D01*
X153577481Y-102261015D01*
X153438100Y-102354147D01*
X153283228Y-102418297D01*
X153118816Y-102451000D01*
X152951184Y-102451000D01*
X152786772Y-102418297D01*
X152631900Y-102354147D01*
X152492519Y-102261015D01*
X152373985Y-102142481D01*
X152280853Y-102003100D01*
X152216703Y-101848228D01*
X152184000Y-101683816D01*
X152184000Y-101516184D01*
X152216703Y-101351772D01*
X152280853Y-101196900D01*
X152373985Y-101057519D01*
X152492519Y-100938985D01*
X152631900Y-100845853D01*
X152786772Y-100781703D01*
X152951184Y-100749000D01*
X153118816Y-100749000D01*
X153283228Y-100781703D01*
G37*
G36*
X153283228Y-98241703D02*
G01*
X153438100Y-98305853D01*
X153577481Y-98398985D01*
X153696015Y-98517519D01*
X153789147Y-98656900D01*
X153853297Y-98811772D01*
X153886000Y-98976184D01*
X153886000Y-99143816D01*
X153853297Y-99308228D01*
X153789147Y-99463100D01*
X153696015Y-99602481D01*
X153577481Y-99721015D01*
X153438100Y-99814147D01*
X153283228Y-99878297D01*
X153118816Y-99911000D01*
X152951184Y-99911000D01*
X152786772Y-99878297D01*
X152631900Y-99814147D01*
X152492519Y-99721015D01*
X152373985Y-99602481D01*
X152280853Y-99463100D01*
X152216703Y-99308228D01*
X152184000Y-99143816D01*
X152184000Y-98976184D01*
X152216703Y-98811772D01*
X152280853Y-98656900D01*
X152373985Y-98517519D01*
X152492519Y-98398985D01*
X152631900Y-98305853D01*
X152786772Y-98241703D01*
X152951184Y-98209000D01*
X153118816Y-98209000D01*
X153283228Y-98241703D01*
G37*
G36*
X133598228Y-98241703D02*
G01*
X133753100Y-98305853D01*
X133892481Y-98398985D01*
X134011015Y-98517519D01*
X134104147Y-98656900D01*
X134168297Y-98811772D01*
X134201000Y-98976184D01*
X134201000Y-99143816D01*
X134168297Y-99308228D01*
X134104147Y-99463100D01*
X134011015Y-99602481D01*
X133892481Y-99721015D01*
X133753100Y-99814147D01*
X133598228Y-99878297D01*
X133433816Y-99911000D01*
X133266184Y-99911000D01*
X133101772Y-99878297D01*
X132946900Y-99814147D01*
X132807519Y-99721015D01*
X132688985Y-99602481D01*
X132595853Y-99463100D01*
X132531703Y-99308228D01*
X132499000Y-99143816D01*
X132499000Y-98976184D01*
X132531703Y-98811772D01*
X132595853Y-98656900D01*
X132688985Y-98517519D01*
X132807519Y-98398985D01*
X132946900Y-98305853D01*
X133101772Y-98241703D01*
X133266184Y-98209000D01*
X133433816Y-98209000D01*
X133598228Y-98241703D01*
G37*
G36*
X118358228Y-98241703D02*
G01*
X118513100Y-98305853D01*
X118652481Y-98398985D01*
X118771015Y-98517519D01*
X118864147Y-98656900D01*
X118928297Y-98811772D01*
X118961000Y-98976184D01*
X118961000Y-99143816D01*
X118928297Y-99308228D01*
X118864147Y-99463100D01*
X118771015Y-99602481D01*
X118652481Y-99721015D01*
X118513100Y-99814147D01*
X118358228Y-99878297D01*
X118193816Y-99911000D01*
X118026184Y-99911000D01*
X117861772Y-99878297D01*
X117706900Y-99814147D01*
X117567519Y-99721015D01*
X117448985Y-99602481D01*
X117355853Y-99463100D01*
X117291703Y-99308228D01*
X117259000Y-99143816D01*
X117259000Y-98976184D01*
X117291703Y-98811772D01*
X117355853Y-98656900D01*
X117448985Y-98517519D01*
X117567519Y-98398985D01*
X117706900Y-98305853D01*
X117861772Y-98241703D01*
X118026184Y-98209000D01*
X118193816Y-98209000D01*
X118358228Y-98241703D01*
G37*
G36*
X168523228Y-98241703D02*
G01*
X168678100Y-98305853D01*
X168817481Y-98398985D01*
X168936015Y-98517519D01*
X169029147Y-98656900D01*
X169093297Y-98811772D01*
X169126000Y-98976184D01*
X169126000Y-99143816D01*
X169093297Y-99308228D01*
X169029147Y-99463100D01*
X168936015Y-99602481D01*
X168817481Y-99721015D01*
X168678100Y-99814147D01*
X168523228Y-99878297D01*
X168358816Y-99911000D01*
X168191184Y-99911000D01*
X168026772Y-99878297D01*
X167871900Y-99814147D01*
X167732519Y-99721015D01*
X167613985Y-99602481D01*
X167520853Y-99463100D01*
X167456703Y-99308228D01*
X167424000Y-99143816D01*
X167424000Y-98976184D01*
X167456703Y-98811772D01*
X167520853Y-98656900D01*
X167613985Y-98517519D01*
X167732519Y-98398985D01*
X167871900Y-98305853D01*
X168026772Y-98241703D01*
X168191184Y-98209000D01*
X168358816Y-98209000D01*
X168523228Y-98241703D01*
G37*
G36*
X168523228Y-95701703D02*
G01*
X168678100Y-95765853D01*
X168817481Y-95858985D01*
X168936015Y-95977519D01*
X169029147Y-96116900D01*
X169093297Y-96271772D01*
X169126000Y-96436184D01*
X169126000Y-96603816D01*
X169093297Y-96768228D01*
X169029147Y-96923100D01*
X168936015Y-97062481D01*
X168817481Y-97181015D01*
X168678100Y-97274147D01*
X168523228Y-97338297D01*
X168358816Y-97371000D01*
X168191184Y-97371000D01*
X168026772Y-97338297D01*
X167871900Y-97274147D01*
X167732519Y-97181015D01*
X167613985Y-97062481D01*
X167520853Y-96923100D01*
X167456703Y-96768228D01*
X167424000Y-96603816D01*
X167424000Y-96436184D01*
X167456703Y-96271772D01*
X167520853Y-96116900D01*
X167613985Y-95977519D01*
X167732519Y-95858985D01*
X167871900Y-95765853D01*
X168026772Y-95701703D01*
X168191184Y-95669000D01*
X168358816Y-95669000D01*
X168523228Y-95701703D01*
G37*
G36*
X153283228Y-95701703D02*
G01*
X153438100Y-95765853D01*
X153577481Y-95858985D01*
X153696015Y-95977519D01*
X153789147Y-96116900D01*
X153853297Y-96271772D01*
X153886000Y-96436184D01*
X153886000Y-96603816D01*
X153853297Y-96768228D01*
X153789147Y-96923100D01*
X153696015Y-97062481D01*
X153577481Y-97181015D01*
X153438100Y-97274147D01*
X153283228Y-97338297D01*
X153118816Y-97371000D01*
X152951184Y-97371000D01*
X152786772Y-97338297D01*
X152631900Y-97274147D01*
X152492519Y-97181015D01*
X152373985Y-97062481D01*
X152280853Y-96923100D01*
X152216703Y-96768228D01*
X152184000Y-96603816D01*
X152184000Y-96436184D01*
X152216703Y-96271772D01*
X152280853Y-96116900D01*
X152373985Y-95977519D01*
X152492519Y-95858985D01*
X152631900Y-95765853D01*
X152786772Y-95701703D01*
X152951184Y-95669000D01*
X153118816Y-95669000D01*
X153283228Y-95701703D01*
G37*
G36*
X133598228Y-95701703D02*
G01*
X133753100Y-95765853D01*
X133892481Y-95858985D01*
X134011015Y-95977519D01*
X134104147Y-96116900D01*
X134168297Y-96271772D01*
X134201000Y-96436184D01*
X134201000Y-96603816D01*
X134168297Y-96768228D01*
X134104147Y-96923100D01*
X134011015Y-97062481D01*
X133892481Y-97181015D01*
X133753100Y-97274147D01*
X133598228Y-97338297D01*
X133433816Y-97371000D01*
X133266184Y-97371000D01*
X133101772Y-97338297D01*
X132946900Y-97274147D01*
X132807519Y-97181015D01*
X132688985Y-97062481D01*
X132595853Y-96923100D01*
X132531703Y-96768228D01*
X132499000Y-96603816D01*
X132499000Y-96436184D01*
X132531703Y-96271772D01*
X132595853Y-96116900D01*
X132688985Y-95977519D01*
X132807519Y-95858985D01*
X132946900Y-95765853D01*
X133101772Y-95701703D01*
X133266184Y-95669000D01*
X133433816Y-95669000D01*
X133598228Y-95701703D01*
G37*
G36*
X118358228Y-95701703D02*
G01*
X118513100Y-95765853D01*
X118652481Y-95858985D01*
X118771015Y-95977519D01*
X118864147Y-96116900D01*
X118928297Y-96271772D01*
X118961000Y-96436184D01*
X118961000Y-96603816D01*
X118928297Y-96768228D01*
X118864147Y-96923100D01*
X118771015Y-97062481D01*
X118652481Y-97181015D01*
X118513100Y-97274147D01*
X118358228Y-97338297D01*
X118193816Y-97371000D01*
X118026184Y-97371000D01*
X117861772Y-97338297D01*
X117706900Y-97274147D01*
X117567519Y-97181015D01*
X117448985Y-97062481D01*
X117355853Y-96923100D01*
X117291703Y-96768228D01*
X117259000Y-96603816D01*
X117259000Y-96436184D01*
X117291703Y-96271772D01*
X117355853Y-96116900D01*
X117448985Y-95977519D01*
X117567519Y-95858985D01*
X117706900Y-95765853D01*
X117861772Y-95701703D01*
X118026184Y-95669000D01*
X118193816Y-95669000D01*
X118358228Y-95701703D01*
G37*
G36*
X118358228Y-93161703D02*
G01*
X118513100Y-93225853D01*
X118652481Y-93318985D01*
X118771015Y-93437519D01*
X118864147Y-93576900D01*
X118928297Y-93731772D01*
X118961000Y-93896184D01*
X118961000Y-94063816D01*
X118928297Y-94228228D01*
X118864147Y-94383100D01*
X118771015Y-94522481D01*
X118652481Y-94641015D01*
X118513100Y-94734147D01*
X118358228Y-94798297D01*
X118193816Y-94831000D01*
X118026184Y-94831000D01*
X117861772Y-94798297D01*
X117706900Y-94734147D01*
X117567519Y-94641015D01*
X117448985Y-94522481D01*
X117355853Y-94383100D01*
X117291703Y-94228228D01*
X117259000Y-94063816D01*
X117259000Y-93896184D01*
X117291703Y-93731772D01*
X117355853Y-93576900D01*
X117448985Y-93437519D01*
X117567519Y-93318985D01*
X117706900Y-93225853D01*
X117861772Y-93161703D01*
X118026184Y-93129000D01*
X118193816Y-93129000D01*
X118358228Y-93161703D01*
G37*
G36*
X133598228Y-93161703D02*
G01*
X133753100Y-93225853D01*
X133892481Y-93318985D01*
X134011015Y-93437519D01*
X134104147Y-93576900D01*
X134168297Y-93731772D01*
X134201000Y-93896184D01*
X134201000Y-94063816D01*
X134168297Y-94228228D01*
X134104147Y-94383100D01*
X134011015Y-94522481D01*
X133892481Y-94641015D01*
X133753100Y-94734147D01*
X133598228Y-94798297D01*
X133433816Y-94831000D01*
X133266184Y-94831000D01*
X133101772Y-94798297D01*
X132946900Y-94734147D01*
X132807519Y-94641015D01*
X132688985Y-94522481D01*
X132595853Y-94383100D01*
X132531703Y-94228228D01*
X132499000Y-94063816D01*
X132499000Y-93896184D01*
X132531703Y-93731772D01*
X132595853Y-93576900D01*
X132688985Y-93437519D01*
X132807519Y-93318985D01*
X132946900Y-93225853D01*
X133101772Y-93161703D01*
X133266184Y-93129000D01*
X133433816Y-93129000D01*
X133598228Y-93161703D01*
G37*
G36*
X168523228Y-93161703D02*
G01*
X168678100Y-93225853D01*
X168817481Y-93318985D01*
X168936015Y-93437519D01*
X169029147Y-93576900D01*
X169093297Y-93731772D01*
X169126000Y-93896184D01*
X169126000Y-94063816D01*
X169093297Y-94228228D01*
X169029147Y-94383100D01*
X168936015Y-94522481D01*
X168817481Y-94641015D01*
X168678100Y-94734147D01*
X168523228Y-94798297D01*
X168358816Y-94831000D01*
X168191184Y-94831000D01*
X168026772Y-94798297D01*
X167871900Y-94734147D01*
X167732519Y-94641015D01*
X167613985Y-94522481D01*
X167520853Y-94383100D01*
X167456703Y-94228228D01*
X167424000Y-94063816D01*
X167424000Y-93896184D01*
X167456703Y-93731772D01*
X167520853Y-93576900D01*
X167613985Y-93437519D01*
X167732519Y-93318985D01*
X167871900Y-93225853D01*
X168026772Y-93161703D01*
X168191184Y-93129000D01*
X168358816Y-93129000D01*
X168523228Y-93161703D01*
G37*
G36*
X153283228Y-93161703D02*
G01*
X153438100Y-93225853D01*
X153577481Y-93318985D01*
X153696015Y-93437519D01*
X153789147Y-93576900D01*
X153853297Y-93731772D01*
X153886000Y-93896184D01*
X153886000Y-94063816D01*
X153853297Y-94228228D01*
X153789147Y-94383100D01*
X153696015Y-94522481D01*
X153577481Y-94641015D01*
X153438100Y-94734147D01*
X153283228Y-94798297D01*
X153118816Y-94831000D01*
X152951184Y-94831000D01*
X152786772Y-94798297D01*
X152631900Y-94734147D01*
X152492519Y-94641015D01*
X152373985Y-94522481D01*
X152280853Y-94383100D01*
X152216703Y-94228228D01*
X152184000Y-94063816D01*
X152184000Y-93896184D01*
X152216703Y-93731772D01*
X152280853Y-93576900D01*
X152373985Y-93437519D01*
X152492519Y-93318985D01*
X152631900Y-93225853D01*
X152786772Y-93161703D01*
X152951184Y-93129000D01*
X153118816Y-93129000D01*
X153283228Y-93161703D01*
G37*
G36*
X141853228Y-91216703D02*
G01*
X142008100Y-91280853D01*
X142147481Y-91373985D01*
X142266015Y-91492519D01*
X142359147Y-91631900D01*
X142423297Y-91786772D01*
X142456000Y-91951184D01*
X142456000Y-92118816D01*
X142423297Y-92283228D01*
X142359147Y-92438100D01*
X142266015Y-92577481D01*
X142147481Y-92696015D01*
X142008100Y-92789147D01*
X141853228Y-92853297D01*
X141688816Y-92886000D01*
X141521184Y-92886000D01*
X141356772Y-92853297D01*
X141201900Y-92789147D01*
X141062519Y-92696015D01*
X140943985Y-92577481D01*
X140850853Y-92438100D01*
X140786703Y-92283228D01*
X140754000Y-92118816D01*
X140754000Y-91951184D01*
X140786703Y-91786772D01*
X140850853Y-91631900D01*
X140943985Y-91492519D01*
X141062519Y-91373985D01*
X141201900Y-91280853D01*
X141356772Y-91216703D01*
X141521184Y-91184000D01*
X141688816Y-91184000D01*
X141853228Y-91216703D01*
G37*
G36*
X153283228Y-90621703D02*
G01*
X153438100Y-90685853D01*
X153577481Y-90778985D01*
X153696015Y-90897519D01*
X153789147Y-91036900D01*
X153853297Y-91191772D01*
X153886000Y-91356184D01*
X153886000Y-91523816D01*
X153853297Y-91688228D01*
X153789147Y-91843100D01*
X153696015Y-91982481D01*
X153577481Y-92101015D01*
X153438100Y-92194147D01*
X153283228Y-92258297D01*
X153118816Y-92291000D01*
X152951184Y-92291000D01*
X152786772Y-92258297D01*
X152631900Y-92194147D01*
X152492519Y-92101015D01*
X152373985Y-91982481D01*
X152280853Y-91843100D01*
X152216703Y-91688228D01*
X152184000Y-91523816D01*
X152184000Y-91356184D01*
X152216703Y-91191772D01*
X152280853Y-91036900D01*
X152373985Y-90897519D01*
X152492519Y-90778985D01*
X152631900Y-90685853D01*
X152786772Y-90621703D01*
X152951184Y-90589000D01*
X153118816Y-90589000D01*
X153283228Y-90621703D01*
G37*
G36*
X168523228Y-90621703D02*
G01*
X168678100Y-90685853D01*
X168817481Y-90778985D01*
X168936015Y-90897519D01*
X169029147Y-91036900D01*
X169093297Y-91191772D01*
X169126000Y-91356184D01*
X169126000Y-91523816D01*
X169093297Y-91688228D01*
X169029147Y-91843100D01*
X168936015Y-91982481D01*
X168817481Y-92101015D01*
X168678100Y-92194147D01*
X168523228Y-92258297D01*
X168358816Y-92291000D01*
X168191184Y-92291000D01*
X168026772Y-92258297D01*
X167871900Y-92194147D01*
X167732519Y-92101015D01*
X167613985Y-91982481D01*
X167520853Y-91843100D01*
X167456703Y-91688228D01*
X167424000Y-91523816D01*
X167424000Y-91356184D01*
X167456703Y-91191772D01*
X167520853Y-91036900D01*
X167613985Y-90897519D01*
X167732519Y-90778985D01*
X167871900Y-90685853D01*
X168026772Y-90621703D01*
X168191184Y-90589000D01*
X168358816Y-90589000D01*
X168523228Y-90621703D01*
G37*
G36*
X134853642Y-90034781D02*
G01*
X134999414Y-90095162D01*
X134999416Y-90095163D01*
X135130608Y-90182822D01*
X135242178Y-90294392D01*
X135303388Y-90386000D01*
X135329838Y-90425586D01*
X135390219Y-90571358D01*
X135421000Y-90726107D01*
X135421000Y-90883893D01*
X135390219Y-91038642D01*
X135389091Y-91041365D01*
X135329837Y-91184416D01*
X135242178Y-91315608D01*
X135130608Y-91427178D01*
X134999416Y-91514837D01*
X134999415Y-91514838D01*
X134999414Y-91514838D01*
X134853642Y-91575219D01*
X134698893Y-91606000D01*
X134541107Y-91606000D01*
X134386358Y-91575219D01*
X134240586Y-91514838D01*
X134240585Y-91514838D01*
X134240584Y-91514837D01*
X134109392Y-91427178D01*
X133997822Y-91315608D01*
X133910163Y-91184416D01*
X133850909Y-91041365D01*
X133849781Y-91038642D01*
X133819000Y-90883893D01*
X133819000Y-90726107D01*
X133849781Y-90571358D01*
X133910162Y-90425586D01*
X133936612Y-90386000D01*
X133997822Y-90294392D01*
X134109392Y-90182822D01*
X134240584Y-90095163D01*
X134240586Y-90095162D01*
X134386358Y-90034781D01*
X134541107Y-90004000D01*
X134698893Y-90004000D01*
X134853642Y-90034781D01*
G37*
G36*
X119051564Y-89214389D02*
G01*
X119242833Y-89293615D01*
X119242835Y-89293616D01*
X119414973Y-89408635D01*
X119561365Y-89555027D01*
X119670459Y-89718297D01*
X119676385Y-89727167D01*
X119755611Y-89918436D01*
X119796000Y-90121484D01*
X119796000Y-90328516D01*
X119755611Y-90531564D01*
X119676385Y-90722833D01*
X119676384Y-90722835D01*
X119561365Y-90894973D01*
X119414973Y-91041365D01*
X119242835Y-91156384D01*
X119242834Y-91156385D01*
X119242833Y-91156385D01*
X119051564Y-91235611D01*
X118848516Y-91276000D01*
X118641484Y-91276000D01*
X118438436Y-91235611D01*
X118247167Y-91156385D01*
X118247166Y-91156385D01*
X118247165Y-91156384D01*
X118075027Y-91041365D01*
X117928635Y-90894973D01*
X117813616Y-90722835D01*
X117813615Y-90722833D01*
X117734389Y-90531564D01*
X117694000Y-90328516D01*
X117694000Y-90121484D01*
X117734389Y-89918436D01*
X117813615Y-89727167D01*
X117819542Y-89718297D01*
X117928635Y-89555027D01*
X118075027Y-89408635D01*
X118247165Y-89293616D01*
X118247167Y-89293615D01*
X118438436Y-89214389D01*
X118641484Y-89174000D01*
X118848516Y-89174000D01*
X119051564Y-89214389D01*
G37*
G36*
X125551564Y-89214389D02*
G01*
X125742833Y-89293615D01*
X125742835Y-89293616D01*
X125914973Y-89408635D01*
X126061365Y-89555027D01*
X126170459Y-89718297D01*
X126176385Y-89727167D01*
X126255611Y-89918436D01*
X126296000Y-90121484D01*
X126296000Y-90328516D01*
X126255611Y-90531564D01*
X126176385Y-90722833D01*
X126176384Y-90722835D01*
X126061365Y-90894973D01*
X125914973Y-91041365D01*
X125742835Y-91156384D01*
X125742834Y-91156385D01*
X125742833Y-91156385D01*
X125551564Y-91235611D01*
X125348516Y-91276000D01*
X125141484Y-91276000D01*
X124938436Y-91235611D01*
X124747167Y-91156385D01*
X124747166Y-91156385D01*
X124747165Y-91156384D01*
X124575027Y-91041365D01*
X124428635Y-90894973D01*
X124313616Y-90722835D01*
X124313615Y-90722833D01*
X124234389Y-90531564D01*
X124194000Y-90328516D01*
X124194000Y-90121484D01*
X124234389Y-89918436D01*
X124313615Y-89727167D01*
X124319542Y-89718297D01*
X124428635Y-89555027D01*
X124575027Y-89408635D01*
X124747165Y-89293616D01*
X124747167Y-89293615D01*
X124938436Y-89214389D01*
X125141484Y-89174000D01*
X125348516Y-89174000D01*
X125551564Y-89214389D01*
G37*
G36*
X131663674Y-89423465D02*
G01*
X131701367Y-89434899D01*
X131736103Y-89453466D01*
X131766548Y-89478452D01*
X131791534Y-89508897D01*
X131810101Y-89543633D01*
X131821535Y-89581326D01*
X131826000Y-89626661D01*
X131826000Y-90713339D01*
X131821535Y-90758674D01*
X131810101Y-90796367D01*
X131791534Y-90831103D01*
X131766548Y-90861548D01*
X131736103Y-90886534D01*
X131701367Y-90905101D01*
X131663674Y-90916535D01*
X131618339Y-90921000D01*
X130781661Y-90921000D01*
X130736326Y-90916535D01*
X130698633Y-90905101D01*
X130663897Y-90886534D01*
X130633452Y-90861548D01*
X130608466Y-90831103D01*
X130589899Y-90796367D01*
X130578465Y-90758674D01*
X130574000Y-90713339D01*
X130574000Y-89626661D01*
X130578465Y-89581326D01*
X130589899Y-89543633D01*
X130608466Y-89508897D01*
X130633452Y-89478452D01*
X130663897Y-89453466D01*
X130698633Y-89434899D01*
X130736326Y-89423465D01*
X130781661Y-89419000D01*
X131618339Y-89419000D01*
X131663674Y-89423465D01*
G37*
G36*
X129613674Y-89423465D02*
G01*
X129651367Y-89434899D01*
X129686103Y-89453466D01*
X129716548Y-89478452D01*
X129741534Y-89508897D01*
X129760101Y-89543633D01*
X129771535Y-89581326D01*
X129776000Y-89626661D01*
X129776000Y-90713339D01*
X129771535Y-90758674D01*
X129760101Y-90796367D01*
X129741534Y-90831103D01*
X129716548Y-90861548D01*
X129686103Y-90886534D01*
X129651367Y-90905101D01*
X129613674Y-90916535D01*
X129568339Y-90921000D01*
X128731661Y-90921000D01*
X128686326Y-90916535D01*
X128648633Y-90905101D01*
X128613897Y-90886534D01*
X128583452Y-90861548D01*
X128558466Y-90831103D01*
X128539899Y-90796367D01*
X128528465Y-90758674D01*
X128524000Y-90713339D01*
X128524000Y-89626661D01*
X128528465Y-89581326D01*
X128539899Y-89543633D01*
X128558466Y-89508897D01*
X128583452Y-89478452D01*
X128613897Y-89453466D01*
X128648633Y-89434899D01*
X128686326Y-89423465D01*
X128731661Y-89419000D01*
X129568339Y-89419000D01*
X129613674Y-89423465D01*
G37*
G36*
X142456000Y-90386000D02*
G01*
X140754000Y-90386000D01*
X140754000Y-88684000D01*
X142456000Y-88684000D01*
X142456000Y-90386000D01*
G37*
G36*
X153283228Y-88081703D02*
G01*
X153438100Y-88145853D01*
X153577481Y-88238985D01*
X153696015Y-88357519D01*
X153789147Y-88496900D01*
X153853297Y-88651772D01*
X153886000Y-88816184D01*
X153886000Y-88983816D01*
X153853297Y-89148228D01*
X153789147Y-89303100D01*
X153696015Y-89442481D01*
X153577481Y-89561015D01*
X153438100Y-89654147D01*
X153283228Y-89718297D01*
X153118816Y-89751000D01*
X152951184Y-89751000D01*
X152786772Y-89718297D01*
X152631900Y-89654147D01*
X152492519Y-89561015D01*
X152373985Y-89442481D01*
X152280853Y-89303100D01*
X152216703Y-89148228D01*
X152184000Y-88983816D01*
X152184000Y-88816184D01*
X152216703Y-88651772D01*
X152280853Y-88496900D01*
X152373985Y-88357519D01*
X152492519Y-88238985D01*
X152631900Y-88145853D01*
X152786772Y-88081703D01*
X152951184Y-88049000D01*
X153118816Y-88049000D01*
X153283228Y-88081703D01*
G37*
G36*
X168523228Y-88081703D02*
G01*
X168678100Y-88145853D01*
X168817481Y-88238985D01*
X168936015Y-88357519D01*
X169029147Y-88496900D01*
X169093297Y-88651772D01*
X169126000Y-88816184D01*
X169126000Y-88983816D01*
X169093297Y-89148228D01*
X169029147Y-89303100D01*
X168936015Y-89442481D01*
X168817481Y-89561015D01*
X168678100Y-89654147D01*
X168523228Y-89718297D01*
X168358816Y-89751000D01*
X168191184Y-89751000D01*
X168026772Y-89718297D01*
X167871900Y-89654147D01*
X167732519Y-89561015D01*
X167613985Y-89442481D01*
X167520853Y-89303100D01*
X167456703Y-89148228D01*
X167424000Y-88983816D01*
X167424000Y-88816184D01*
X167456703Y-88651772D01*
X167520853Y-88496900D01*
X167613985Y-88357519D01*
X167732519Y-88238985D01*
X167871900Y-88145853D01*
X168026772Y-88081703D01*
X168191184Y-88049000D01*
X168358816Y-88049000D01*
X168523228Y-88081703D01*
G37*
G36*
X150575674Y-87788465D02*
G01*
X150613367Y-87799899D01*
X150648103Y-87818466D01*
X150678548Y-87843452D01*
X150703534Y-87873897D01*
X150722101Y-87908633D01*
X150733535Y-87946326D01*
X150738000Y-87991661D01*
X150738000Y-88828339D01*
X150733535Y-88873674D01*
X150722101Y-88911367D01*
X150703534Y-88946103D01*
X150678548Y-88976548D01*
X150648103Y-89001534D01*
X150613367Y-89020101D01*
X150575674Y-89031535D01*
X150530339Y-89036000D01*
X149443661Y-89036000D01*
X149398326Y-89031535D01*
X149360633Y-89020101D01*
X149325897Y-89001534D01*
X149295452Y-88976548D01*
X149270466Y-88946103D01*
X149251899Y-88911367D01*
X149240465Y-88873674D01*
X149236000Y-88828339D01*
X149236000Y-87991661D01*
X149240465Y-87946326D01*
X149251899Y-87908633D01*
X149270466Y-87873897D01*
X149295452Y-87843452D01*
X149325897Y-87818466D01*
X149360633Y-87799899D01*
X149398326Y-87788465D01*
X149443661Y-87784000D01*
X150530339Y-87784000D01*
X150575674Y-87788465D01*
G37*
G36*
X146003674Y-87779465D02*
G01*
X146041367Y-87790899D01*
X146076103Y-87809466D01*
X146106548Y-87834452D01*
X146131534Y-87864897D01*
X146150101Y-87899633D01*
X146161535Y-87937326D01*
X146166000Y-87982661D01*
X146166000Y-88819339D01*
X146161535Y-88864674D01*
X146150101Y-88902367D01*
X146131534Y-88937103D01*
X146106548Y-88967548D01*
X146076103Y-88992534D01*
X146041367Y-89011101D01*
X146003674Y-89022535D01*
X145958339Y-89027000D01*
X144871661Y-89027000D01*
X144826326Y-89022535D01*
X144788633Y-89011101D01*
X144753897Y-88992534D01*
X144723452Y-88967548D01*
X144698466Y-88937103D01*
X144679899Y-88902367D01*
X144668465Y-88864674D01*
X144664000Y-88819339D01*
X144664000Y-87982661D01*
X144668465Y-87937326D01*
X144679899Y-87899633D01*
X144698466Y-87864897D01*
X144723452Y-87834452D01*
X144753897Y-87809466D01*
X144788633Y-87790899D01*
X144826326Y-87779465D01*
X144871661Y-87775000D01*
X145958339Y-87775000D01*
X146003674Y-87779465D01*
G37*
G36*
X148289674Y-87779465D02*
G01*
X148327367Y-87790899D01*
X148362103Y-87809466D01*
X148392548Y-87834452D01*
X148417534Y-87864897D01*
X148436101Y-87899633D01*
X148447535Y-87937326D01*
X148452000Y-87982661D01*
X148452000Y-88819339D01*
X148447535Y-88864674D01*
X148436101Y-88902367D01*
X148417534Y-88937103D01*
X148392548Y-88967548D01*
X148362103Y-88992534D01*
X148327367Y-89011101D01*
X148289674Y-89022535D01*
X148244339Y-89027000D01*
X147157661Y-89027000D01*
X147112326Y-89022535D01*
X147074633Y-89011101D01*
X147039897Y-88992534D01*
X147009452Y-88967548D01*
X146984466Y-88937103D01*
X146965899Y-88902367D01*
X146954465Y-88864674D01*
X146950000Y-88819339D01*
X146950000Y-87982661D01*
X146954465Y-87937326D01*
X146965899Y-87899633D01*
X146984466Y-87864897D01*
X147009452Y-87834452D01*
X147039897Y-87809466D01*
X147074633Y-87790899D01*
X147112326Y-87779465D01*
X147157661Y-87775000D01*
X148244339Y-87775000D01*
X148289674Y-87779465D01*
G37*
G36*
X150575674Y-85738465D02*
G01*
X150613367Y-85749899D01*
X150648103Y-85768466D01*
X150678548Y-85793452D01*
X150703534Y-85823897D01*
X150722101Y-85858633D01*
X150733535Y-85896326D01*
X150738000Y-85941661D01*
X150738000Y-86778339D01*
X150733535Y-86823674D01*
X150722101Y-86861367D01*
X150703534Y-86896103D01*
X150678548Y-86926548D01*
X150648103Y-86951534D01*
X150613367Y-86970101D01*
X150575674Y-86981535D01*
X150530339Y-86986000D01*
X149443661Y-86986000D01*
X149398326Y-86981535D01*
X149360633Y-86970101D01*
X149325897Y-86951534D01*
X149295452Y-86926548D01*
X149270466Y-86896103D01*
X149251899Y-86861367D01*
X149240465Y-86823674D01*
X149236000Y-86778339D01*
X149236000Y-85941661D01*
X149240465Y-85896326D01*
X149251899Y-85858633D01*
X149270466Y-85823897D01*
X149295452Y-85793452D01*
X149325897Y-85768466D01*
X149360633Y-85749899D01*
X149398326Y-85738465D01*
X149443661Y-85734000D01*
X150530339Y-85734000D01*
X150575674Y-85738465D01*
G37*
G36*
X146003674Y-85729465D02*
G01*
X146041367Y-85740899D01*
X146076103Y-85759466D01*
X146106548Y-85784452D01*
X146131534Y-85814897D01*
X146150101Y-85849633D01*
X146161535Y-85887326D01*
X146166000Y-85932661D01*
X146166000Y-86769339D01*
X146161535Y-86814674D01*
X146150101Y-86852367D01*
X146131534Y-86887103D01*
X146106548Y-86917548D01*
X146076103Y-86942534D01*
X146041367Y-86961101D01*
X146003674Y-86972535D01*
X145958339Y-86977000D01*
X144871661Y-86977000D01*
X144826326Y-86972535D01*
X144788633Y-86961101D01*
X144753897Y-86942534D01*
X144723452Y-86917548D01*
X144698466Y-86887103D01*
X144679899Y-86852367D01*
X144668465Y-86814674D01*
X144664000Y-86769339D01*
X144664000Y-85932661D01*
X144668465Y-85887326D01*
X144679899Y-85849633D01*
X144698466Y-85814897D01*
X144723452Y-85784452D01*
X144753897Y-85759466D01*
X144788633Y-85740899D01*
X144826326Y-85729465D01*
X144871661Y-85725000D01*
X145958339Y-85725000D01*
X146003674Y-85729465D01*
G37*
G36*
X148289674Y-85729465D02*
G01*
X148327367Y-85740899D01*
X148362103Y-85759466D01*
X148392548Y-85784452D01*
X148417534Y-85814897D01*
X148436101Y-85849633D01*
X148447535Y-85887326D01*
X148452000Y-85932661D01*
X148452000Y-86769339D01*
X148447535Y-86814674D01*
X148436101Y-86852367D01*
X148417534Y-86887103D01*
X148392548Y-86917548D01*
X148362103Y-86942534D01*
X148327367Y-86961101D01*
X148289674Y-86972535D01*
X148244339Y-86977000D01*
X147157661Y-86977000D01*
X147112326Y-86972535D01*
X147074633Y-86961101D01*
X147039897Y-86942534D01*
X147009452Y-86917548D01*
X146984466Y-86887103D01*
X146965899Y-86852367D01*
X146954465Y-86814674D01*
X146950000Y-86769339D01*
X146950000Y-85932661D01*
X146954465Y-85887326D01*
X146965899Y-85849633D01*
X146984466Y-85814897D01*
X147009452Y-85784452D01*
X147039897Y-85759466D01*
X147074633Y-85740899D01*
X147112326Y-85729465D01*
X147157661Y-85725000D01*
X148244339Y-85725000D01*
X148289674Y-85729465D01*
G37*
G36*
X125551564Y-84714389D02*
G01*
X125742833Y-84793615D01*
X125742835Y-84793616D01*
X125914973Y-84908635D01*
X126061365Y-85055027D01*
X126176385Y-85227167D01*
X126255611Y-85418436D01*
X126296000Y-85621484D01*
X126296000Y-85828516D01*
X126255611Y-86031564D01*
X126176385Y-86222833D01*
X126176384Y-86222835D01*
X126061365Y-86394973D01*
X125914973Y-86541365D01*
X125742835Y-86656384D01*
X125742834Y-86656385D01*
X125742833Y-86656385D01*
X125551564Y-86735611D01*
X125348516Y-86776000D01*
X125141484Y-86776000D01*
X124938436Y-86735611D01*
X124747167Y-86656385D01*
X124747166Y-86656385D01*
X124747165Y-86656384D01*
X124575027Y-86541365D01*
X124428635Y-86394973D01*
X124313616Y-86222835D01*
X124313615Y-86222833D01*
X124234389Y-86031564D01*
X124194000Y-85828516D01*
X124194000Y-85621484D01*
X124234389Y-85418436D01*
X124313615Y-85227167D01*
X124428635Y-85055027D01*
X124575027Y-84908635D01*
X124747165Y-84793616D01*
X124747167Y-84793615D01*
X124938436Y-84714389D01*
X125141484Y-84674000D01*
X125348516Y-84674000D01*
X125551564Y-84714389D01*
G37*
G36*
X119051564Y-84714389D02*
G01*
X119242833Y-84793615D01*
X119242835Y-84793616D01*
X119414973Y-84908635D01*
X119561365Y-85055027D01*
X119676385Y-85227167D01*
X119755611Y-85418436D01*
X119796000Y-85621484D01*
X119796000Y-85828516D01*
X119755611Y-86031564D01*
X119676385Y-86222833D01*
X119676384Y-86222835D01*
X119561365Y-86394973D01*
X119414973Y-86541365D01*
X119242835Y-86656384D01*
X119242834Y-86656385D01*
X119242833Y-86656385D01*
X119051564Y-86735611D01*
X118848516Y-86776000D01*
X118641484Y-86776000D01*
X118438436Y-86735611D01*
X118247167Y-86656385D01*
X118247166Y-86656385D01*
X118247165Y-86656384D01*
X118075027Y-86541365D01*
X117928635Y-86394973D01*
X117813616Y-86222835D01*
X117813615Y-86222833D01*
X117734389Y-86031564D01*
X117694000Y-85828516D01*
X117694000Y-85621484D01*
X117734389Y-85418436D01*
X117813615Y-85227167D01*
X117928635Y-85055027D01*
X118075027Y-84908635D01*
X118247165Y-84793616D01*
X118247167Y-84793615D01*
X118438436Y-84714389D01*
X118641484Y-84674000D01*
X118848516Y-84674000D01*
X119051564Y-84714389D01*
G37*
G36*
X129613674Y-84978465D02*
G01*
X129651367Y-84989899D01*
X129686103Y-85008466D01*
X129716548Y-85033452D01*
X129741534Y-85063897D01*
X129760101Y-85098633D01*
X129771535Y-85136326D01*
X129776000Y-85181661D01*
X129776000Y-86268339D01*
X129771535Y-86313674D01*
X129760101Y-86351367D01*
X129741534Y-86386103D01*
X129716548Y-86416548D01*
X129686103Y-86441534D01*
X129651367Y-86460101D01*
X129613674Y-86471535D01*
X129568339Y-86476000D01*
X128731661Y-86476000D01*
X128686326Y-86471535D01*
X128648633Y-86460101D01*
X128613897Y-86441534D01*
X128583452Y-86416548D01*
X128558466Y-86386103D01*
X128539899Y-86351367D01*
X128528465Y-86313674D01*
X128524000Y-86268339D01*
X128524000Y-85181661D01*
X128528465Y-85136326D01*
X128539899Y-85098633D01*
X128558466Y-85063897D01*
X128583452Y-85033452D01*
X128613897Y-85008466D01*
X128648633Y-84989899D01*
X128686326Y-84978465D01*
X128731661Y-84974000D01*
X129568339Y-84974000D01*
X129613674Y-84978465D01*
G37*
G36*
X131663674Y-84978465D02*
G01*
X131701367Y-84989899D01*
X131736103Y-85008466D01*
X131766548Y-85033452D01*
X131791534Y-85063897D01*
X131810101Y-85098633D01*
X131821535Y-85136326D01*
X131826000Y-85181661D01*
X131826000Y-86268339D01*
X131821535Y-86313674D01*
X131810101Y-86351367D01*
X131791534Y-86386103D01*
X131766548Y-86416548D01*
X131736103Y-86441534D01*
X131701367Y-86460101D01*
X131663674Y-86471535D01*
X131618339Y-86476000D01*
X130781661Y-86476000D01*
X130736326Y-86471535D01*
X130698633Y-86460101D01*
X130663897Y-86441534D01*
X130633452Y-86416548D01*
X130608466Y-86386103D01*
X130589899Y-86351367D01*
X130578465Y-86313674D01*
X130574000Y-86268339D01*
X130574000Y-85181661D01*
X130578465Y-85136326D01*
X130589899Y-85098633D01*
X130608466Y-85063897D01*
X130633452Y-85033452D01*
X130663897Y-85008466D01*
X130698633Y-84989899D01*
X130736326Y-84978465D01*
X130781661Y-84974000D01*
X131618339Y-84974000D01*
X131663674Y-84978465D01*
G37*
G36*
X155688512Y-84193927D02*
G01*
X155837812Y-84223624D01*
X156001784Y-84291544D01*
X156149354Y-84390147D01*
X156274853Y-84515646D01*
X156373456Y-84663216D01*
X156441376Y-84827188D01*
X156457576Y-84908635D01*
X156473741Y-84989899D01*
X156476000Y-85001259D01*
X156476000Y-85178741D01*
X156441376Y-85352812D01*
X156373456Y-85516784D01*
X156274853Y-85664354D01*
X156149354Y-85789853D01*
X156001784Y-85888456D01*
X155837812Y-85956376D01*
X155688512Y-85986073D01*
X155663742Y-85991000D01*
X155486258Y-85991000D01*
X155461488Y-85986073D01*
X155312188Y-85956376D01*
X155148216Y-85888456D01*
X155000646Y-85789853D01*
X154875147Y-85664354D01*
X154776544Y-85516784D01*
X154708624Y-85352812D01*
X154674000Y-85178741D01*
X154674000Y-85001259D01*
X154676260Y-84989899D01*
X154692424Y-84908635D01*
X154708624Y-84827188D01*
X154776544Y-84663216D01*
X154875147Y-84515646D01*
X155000646Y-84390147D01*
X155148216Y-84291544D01*
X155312188Y-84223624D01*
X155461488Y-84193927D01*
X155486258Y-84189000D01*
X155663742Y-84189000D01*
X155688512Y-84193927D01*
G37*
G36*
X161556000Y-85991000D02*
G01*
X159754000Y-85991000D01*
X159754000Y-84189000D01*
X161556000Y-84189000D01*
X161556000Y-85991000D01*
G37*
G36*
X158228512Y-84193927D02*
G01*
X158377812Y-84223624D01*
X158541784Y-84291544D01*
X158689354Y-84390147D01*
X158814853Y-84515646D01*
X158913456Y-84663216D01*
X158981376Y-84827188D01*
X158997576Y-84908635D01*
X159013741Y-84989899D01*
X159016000Y-85001259D01*
X159016000Y-85178741D01*
X158981376Y-85352812D01*
X158913456Y-85516784D01*
X158814853Y-85664354D01*
X158689354Y-85789853D01*
X158541784Y-85888456D01*
X158377812Y-85956376D01*
X158228512Y-85986073D01*
X158203742Y-85991000D01*
X158026258Y-85991000D01*
X158001488Y-85986073D01*
X157852188Y-85956376D01*
X157688216Y-85888456D01*
X157540646Y-85789853D01*
X157415147Y-85664354D01*
X157316544Y-85516784D01*
X157248624Y-85352812D01*
X157214000Y-85178741D01*
X157214000Y-85001259D01*
X157216260Y-84989899D01*
X157232424Y-84908635D01*
X157248624Y-84827188D01*
X157316544Y-84663216D01*
X157415147Y-84515646D01*
X157540646Y-84390147D01*
X157688216Y-84291544D01*
X157852188Y-84223624D01*
X158001488Y-84193927D01*
X158026258Y-84189000D01*
X158203742Y-84189000D01*
X158228512Y-84193927D01*
G37*
G36*
X153148512Y-84193927D02*
G01*
X153297812Y-84223624D01*
X153461784Y-84291544D01*
X153609354Y-84390147D01*
X153734853Y-84515646D01*
X153833456Y-84663216D01*
X153901376Y-84827188D01*
X153917576Y-84908635D01*
X153933741Y-84989899D01*
X153936000Y-85001259D01*
X153936000Y-85178741D01*
X153901376Y-85352812D01*
X153833456Y-85516784D01*
X153734853Y-85664354D01*
X153609354Y-85789853D01*
X153461784Y-85888456D01*
X153297812Y-85956376D01*
X153148512Y-85986073D01*
X153123742Y-85991000D01*
X152946258Y-85991000D01*
X152921488Y-85986073D01*
X152772188Y-85956376D01*
X152608216Y-85888456D01*
X152460646Y-85789853D01*
X152335147Y-85664354D01*
X152236544Y-85516784D01*
X152168624Y-85352812D01*
X152134000Y-85178741D01*
X152134000Y-85001259D01*
X152136260Y-84989899D01*
X152152424Y-84908635D01*
X152168624Y-84827188D01*
X152236544Y-84663216D01*
X152335147Y-84515646D01*
X152460646Y-84390147D01*
X152608216Y-84291544D01*
X152772188Y-84223624D01*
X152921488Y-84193927D01*
X152946258Y-84189000D01*
X153123742Y-84189000D01*
X153148512Y-84193927D01*
G37*
G36*
X142456000Y-85941000D02*
G01*
X140754000Y-85941000D01*
X140754000Y-84239000D01*
X142456000Y-84239000D01*
X142456000Y-85941000D01*
G37*
G36*
X135421000Y-83986000D02*
G01*
X133819000Y-83986000D01*
X133819000Y-82384000D01*
X135421000Y-82384000D01*
X135421000Y-83986000D01*
G37*
G36*
X141853228Y-81771703D02*
G01*
X142008100Y-81835853D01*
X142147481Y-81928985D01*
X142266015Y-82047519D01*
X142359147Y-82186900D01*
X142423297Y-82341772D01*
X142456000Y-82506184D01*
X142456000Y-82673816D01*
X142423297Y-82838228D01*
X142359147Y-82993100D01*
X142266015Y-83132481D01*
X142147481Y-83251015D01*
X142008100Y-83344147D01*
X141853228Y-83408297D01*
X141688816Y-83441000D01*
X141521184Y-83441000D01*
X141356772Y-83408297D01*
X141201900Y-83344147D01*
X141062519Y-83251015D01*
X140943985Y-83132481D01*
X140850853Y-82993100D01*
X140786703Y-82838228D01*
X140754000Y-82673816D01*
X140754000Y-82506184D01*
X140786703Y-82341772D01*
X140850853Y-82186900D01*
X140943985Y-82047519D01*
X141062519Y-81928985D01*
X141201900Y-81835853D01*
X141356772Y-81771703D01*
X141521184Y-81739000D01*
X141688816Y-81739000D01*
X141853228Y-81771703D01*
G37*
M02*
