%FSLAX45Y45*%
G04 Gerber Fmt 4.5, Leading zero omitted, Abs format (unit mm)*
G04 Created by KiCad (PCBNEW (5.1.5)-3) date 2020-10-02 02:33:29*
%MOMM*%
%LPD*%
G04 APERTURE LIST*
%ADD10C,0.200000*%
%ADD11C,0.300000*%
G04 APERTURE END LIST*
D10*
X13982700Y-10204450D02*
X14465300Y-10687050D01*
X14465300Y-10204450D02*
X13982700Y-10687050D01*
D11*
X11613558Y-15294234D02*
X11613558Y-14994234D01*
X11684987Y-14994234D01*
X11727844Y-15008520D01*
X11756416Y-15037091D01*
X11770701Y-15065663D01*
X11784987Y-15122806D01*
X11784987Y-15165663D01*
X11770701Y-15222806D01*
X11756416Y-15251377D01*
X11727844Y-15279949D01*
X11684987Y-15294234D01*
X11613558Y-15294234D01*
X11913558Y-15294234D02*
X11913558Y-15094234D01*
X11913558Y-15151377D02*
X11927844Y-15122806D01*
X11942130Y-15108520D01*
X11970701Y-15094234D01*
X11999273Y-15094234D01*
X12099273Y-15294234D02*
X12099273Y-15094234D01*
X12099273Y-14994234D02*
X12084987Y-15008520D01*
X12099273Y-15022806D01*
X12113558Y-15008520D01*
X12099273Y-14994234D01*
X12099273Y-15022806D01*
X12284987Y-15294234D02*
X12256416Y-15279949D01*
X12242130Y-15251377D01*
X12242130Y-14994234D01*
X12442130Y-15294234D02*
X12413558Y-15279949D01*
X12399273Y-15251377D01*
X12399273Y-14994234D01*
X12784987Y-15294234D02*
X12784987Y-14994234D01*
X12884987Y-15208520D01*
X12984987Y-14994234D01*
X12984987Y-15294234D01*
X13256416Y-15294234D02*
X13256416Y-15137091D01*
X13242130Y-15108520D01*
X13213558Y-15094234D01*
X13156416Y-15094234D01*
X13127844Y-15108520D01*
X13256416Y-15279949D02*
X13227844Y-15294234D01*
X13156416Y-15294234D01*
X13127844Y-15279949D01*
X13113558Y-15251377D01*
X13113558Y-15222806D01*
X13127844Y-15194234D01*
X13156416Y-15179949D01*
X13227844Y-15179949D01*
X13256416Y-15165663D01*
X13399273Y-15094234D02*
X13399273Y-15394234D01*
X13399273Y-15108520D02*
X13427844Y-15094234D01*
X13484987Y-15094234D01*
X13513558Y-15108520D01*
X13527844Y-15122806D01*
X13542130Y-15151377D01*
X13542130Y-15237091D01*
X13527844Y-15265663D01*
X13513558Y-15279949D01*
X13484987Y-15294234D01*
X13427844Y-15294234D01*
X13399273Y-15279949D01*
X13670701Y-15265663D02*
X13684987Y-15279949D01*
X13670701Y-15294234D01*
X13656416Y-15279949D01*
X13670701Y-15265663D01*
X13670701Y-15294234D01*
X13670701Y-15108520D02*
X13684987Y-15122806D01*
X13670701Y-15137091D01*
X13656416Y-15122806D01*
X13670701Y-15108520D01*
X13670701Y-15137091D01*
X10844530Y-15547220D02*
X11327130Y-16029820D01*
X11327130Y-15547220D02*
X10844530Y-16029820D01*
X11742130Y-15724234D02*
X11742130Y-15924234D01*
X11670701Y-15609949D02*
X11599273Y-15824234D01*
X11784987Y-15824234D01*
X11899273Y-15895663D02*
X11913558Y-15909949D01*
X11899273Y-15924234D01*
X11884987Y-15909949D01*
X11899273Y-15895663D01*
X11899273Y-15924234D01*
X12084987Y-15752806D02*
X12056416Y-15738520D01*
X12042130Y-15724234D01*
X12027844Y-15695663D01*
X12027844Y-15681377D01*
X12042130Y-15652806D01*
X12056416Y-15638520D01*
X12084987Y-15624234D01*
X12142130Y-15624234D01*
X12170701Y-15638520D01*
X12184987Y-15652806D01*
X12199273Y-15681377D01*
X12199273Y-15695663D01*
X12184987Y-15724234D01*
X12170701Y-15738520D01*
X12142130Y-15752806D01*
X12084987Y-15752806D01*
X12056416Y-15767091D01*
X12042130Y-15781377D01*
X12027844Y-15809949D01*
X12027844Y-15867091D01*
X12042130Y-15895663D01*
X12056416Y-15909949D01*
X12084987Y-15924234D01*
X12142130Y-15924234D01*
X12170701Y-15909949D01*
X12184987Y-15895663D01*
X12199273Y-15867091D01*
X12199273Y-15809949D01*
X12184987Y-15781377D01*
X12170701Y-15767091D01*
X12142130Y-15752806D01*
X12299273Y-15624234D02*
X12484987Y-15624234D01*
X12384987Y-15738520D01*
X12427844Y-15738520D01*
X12456416Y-15752806D01*
X12470701Y-15767091D01*
X12484987Y-15795663D01*
X12484987Y-15867091D01*
X12470701Y-15895663D01*
X12456416Y-15909949D01*
X12427844Y-15924234D01*
X12342130Y-15924234D01*
X12313558Y-15909949D01*
X12299273Y-15895663D01*
X12613558Y-15924234D02*
X12613558Y-15724234D01*
X12613558Y-15752806D02*
X12627844Y-15738520D01*
X12656416Y-15724234D01*
X12699273Y-15724234D01*
X12727844Y-15738520D01*
X12742130Y-15767091D01*
X12742130Y-15924234D01*
X12742130Y-15767091D02*
X12756416Y-15738520D01*
X12784987Y-15724234D01*
X12827844Y-15724234D01*
X12856416Y-15738520D01*
X12870701Y-15767091D01*
X12870701Y-15924234D01*
X13013558Y-15924234D02*
X13013558Y-15724234D01*
X13013558Y-15752806D02*
X13027844Y-15738520D01*
X13056416Y-15724234D01*
X13099273Y-15724234D01*
X13127844Y-15738520D01*
X13142130Y-15767091D01*
X13142130Y-15924234D01*
X13142130Y-15767091D02*
X13156416Y-15738520D01*
X13184987Y-15724234D01*
X13227844Y-15724234D01*
X13256416Y-15738520D01*
X13270701Y-15767091D01*
X13270701Y-15924234D01*
X13856416Y-15609949D02*
X13599273Y-15995663D01*
X14242130Y-15624234D02*
X14270701Y-15624234D01*
X14299273Y-15638520D01*
X14313558Y-15652806D01*
X14327844Y-15681377D01*
X14342130Y-15738520D01*
X14342130Y-15809949D01*
X14327844Y-15867091D01*
X14313558Y-15895663D01*
X14299273Y-15909949D01*
X14270701Y-15924234D01*
X14242130Y-15924234D01*
X14213558Y-15909949D01*
X14199273Y-15895663D01*
X14184987Y-15867091D01*
X14170701Y-15809949D01*
X14170701Y-15738520D01*
X14184987Y-15681377D01*
X14199273Y-15652806D01*
X14213558Y-15638520D01*
X14242130Y-15624234D01*
X14470701Y-15895663D02*
X14484987Y-15909949D01*
X14470701Y-15924234D01*
X14456416Y-15909949D01*
X14470701Y-15895663D01*
X14470701Y-15924234D01*
X14770701Y-15924234D02*
X14599273Y-15924234D01*
X14684987Y-15924234D02*
X14684987Y-15624234D01*
X14656416Y-15667091D01*
X14627844Y-15695663D01*
X14599273Y-15709949D01*
X14913558Y-15924234D02*
X14970701Y-15924234D01*
X14999273Y-15909949D01*
X15013558Y-15895663D01*
X15042130Y-15852806D01*
X15056416Y-15795663D01*
X15056416Y-15681377D01*
X15042130Y-15652806D01*
X15027844Y-15638520D01*
X14999273Y-15624234D01*
X14942130Y-15624234D01*
X14913558Y-15638520D01*
X14899273Y-15652806D01*
X14884987Y-15681377D01*
X14884987Y-15752806D01*
X14899273Y-15781377D01*
X14913558Y-15795663D01*
X14942130Y-15809949D01*
X14999273Y-15809949D01*
X15027844Y-15795663D01*
X15042130Y-15781377D01*
X15056416Y-15752806D01*
X15242130Y-15624234D02*
X15270701Y-15624234D01*
X15299273Y-15638520D01*
X15313558Y-15652806D01*
X15327844Y-15681377D01*
X15342130Y-15738520D01*
X15342130Y-15809949D01*
X15327844Y-15867091D01*
X15313558Y-15895663D01*
X15299273Y-15909949D01*
X15270701Y-15924234D01*
X15242130Y-15924234D01*
X15213558Y-15909949D01*
X15199273Y-15895663D01*
X15184987Y-15867091D01*
X15170701Y-15809949D01*
X15170701Y-15738520D01*
X15184987Y-15681377D01*
X15199273Y-15652806D01*
X15213558Y-15638520D01*
X15242130Y-15624234D01*
X15456416Y-15624234D02*
X15456416Y-15681377D01*
X15570701Y-15624234D02*
X15570701Y-15681377D01*
X16013558Y-16038520D02*
X15999273Y-16024234D01*
X15970701Y-15981377D01*
X15956416Y-15952806D01*
X15942130Y-15909949D01*
X15927844Y-15838520D01*
X15927844Y-15781377D01*
X15942130Y-15709949D01*
X15956416Y-15667091D01*
X15970701Y-15638520D01*
X15999273Y-15595663D01*
X16013558Y-15581377D01*
X16284987Y-15924234D02*
X16113558Y-15924234D01*
X16199273Y-15924234D02*
X16199273Y-15624234D01*
X16170701Y-15667091D01*
X16142130Y-15695663D01*
X16113558Y-15709949D01*
X16642130Y-15924234D02*
X16642130Y-15624234D01*
X16770701Y-15924234D02*
X16770701Y-15767091D01*
X16756416Y-15738520D01*
X16727844Y-15724234D01*
X16684987Y-15724234D01*
X16656416Y-15738520D01*
X16642130Y-15752806D01*
X16956416Y-15924234D02*
X16927844Y-15909949D01*
X16913558Y-15895663D01*
X16899273Y-15867091D01*
X16899273Y-15781377D01*
X16913558Y-15752806D01*
X16927844Y-15738520D01*
X16956416Y-15724234D01*
X16999273Y-15724234D01*
X17027844Y-15738520D01*
X17042130Y-15752806D01*
X17056416Y-15781377D01*
X17056416Y-15867091D01*
X17042130Y-15895663D01*
X17027844Y-15909949D01*
X16999273Y-15924234D01*
X16956416Y-15924234D01*
X17227844Y-15924234D02*
X17199273Y-15909949D01*
X17184987Y-15881377D01*
X17184987Y-15624234D01*
X17456416Y-15909949D02*
X17427844Y-15924234D01*
X17370701Y-15924234D01*
X17342130Y-15909949D01*
X17327844Y-15881377D01*
X17327844Y-15767091D01*
X17342130Y-15738520D01*
X17370701Y-15724234D01*
X17427844Y-15724234D01*
X17456416Y-15738520D01*
X17470701Y-15767091D01*
X17470701Y-15795663D01*
X17327844Y-15824234D01*
X17570701Y-16038520D02*
X17584987Y-16024234D01*
X17613558Y-15981377D01*
X17627844Y-15952806D01*
X17642130Y-15909949D01*
X17656416Y-15838520D01*
X17656416Y-15781377D01*
X17642130Y-15709949D01*
X17627844Y-15667091D01*
X17613558Y-15638520D01*
X17584987Y-15595663D01*
X17570701Y-15581377D01*
X18113558Y-16038520D02*
X18099273Y-16024234D01*
X18070701Y-15981377D01*
X18056416Y-15952806D01*
X18042130Y-15909949D01*
X18027844Y-15838520D01*
X18027844Y-15781377D01*
X18042130Y-15709949D01*
X18056416Y-15667091D01*
X18070701Y-15638520D01*
X18099273Y-15595663D01*
X18113558Y-15581377D01*
X18227844Y-15724234D02*
X18227844Y-15924234D01*
X18227844Y-15752806D02*
X18242130Y-15738520D01*
X18270701Y-15724234D01*
X18313558Y-15724234D01*
X18342130Y-15738520D01*
X18356416Y-15767091D01*
X18356416Y-15924234D01*
X18542130Y-15924234D02*
X18513558Y-15909949D01*
X18499273Y-15895663D01*
X18484987Y-15867091D01*
X18484987Y-15781377D01*
X18499273Y-15752806D01*
X18513558Y-15738520D01*
X18542130Y-15724234D01*
X18584987Y-15724234D01*
X18613558Y-15738520D01*
X18627844Y-15752806D01*
X18642130Y-15781377D01*
X18642130Y-15867091D01*
X18627844Y-15895663D01*
X18613558Y-15909949D01*
X18584987Y-15924234D01*
X18542130Y-15924234D01*
X18727844Y-15724234D02*
X18842130Y-15724234D01*
X18770701Y-15624234D02*
X18770701Y-15881377D01*
X18784987Y-15909949D01*
X18813558Y-15924234D01*
X18842130Y-15924234D01*
X19170701Y-15724234D02*
X19170701Y-16024234D01*
X19170701Y-15738520D02*
X19199273Y-15724234D01*
X19256416Y-15724234D01*
X19284987Y-15738520D01*
X19299273Y-15752806D01*
X19313558Y-15781377D01*
X19313558Y-15867091D01*
X19299273Y-15895663D01*
X19284987Y-15909949D01*
X19256416Y-15924234D01*
X19199273Y-15924234D01*
X19170701Y-15909949D01*
X19484987Y-15924234D02*
X19456416Y-15909949D01*
X19442130Y-15881377D01*
X19442130Y-15624234D01*
X19727844Y-15924234D02*
X19727844Y-15767091D01*
X19713558Y-15738520D01*
X19684987Y-15724234D01*
X19627844Y-15724234D01*
X19599273Y-15738520D01*
X19727844Y-15909949D02*
X19699273Y-15924234D01*
X19627844Y-15924234D01*
X19599273Y-15909949D01*
X19584987Y-15881377D01*
X19584987Y-15852806D01*
X19599273Y-15824234D01*
X19627844Y-15809949D01*
X19699273Y-15809949D01*
X19727844Y-15795663D01*
X19827844Y-15724234D02*
X19942130Y-15724234D01*
X19870701Y-15624234D02*
X19870701Y-15881377D01*
X19884987Y-15909949D01*
X19913558Y-15924234D01*
X19942130Y-15924234D01*
X20156416Y-15909949D02*
X20127844Y-15924234D01*
X20070701Y-15924234D01*
X20042130Y-15909949D01*
X20027844Y-15881377D01*
X20027844Y-15767091D01*
X20042130Y-15738520D01*
X20070701Y-15724234D01*
X20127844Y-15724234D01*
X20156416Y-15738520D01*
X20170701Y-15767091D01*
X20170701Y-15795663D01*
X20027844Y-15824234D01*
X20427844Y-15924234D02*
X20427844Y-15624234D01*
X20427844Y-15909949D02*
X20399273Y-15924234D01*
X20342130Y-15924234D01*
X20313558Y-15909949D01*
X20299273Y-15895663D01*
X20284987Y-15867091D01*
X20284987Y-15781377D01*
X20299273Y-15752806D01*
X20313558Y-15738520D01*
X20342130Y-15724234D01*
X20399273Y-15724234D01*
X20427844Y-15738520D01*
X20542130Y-16038520D02*
X20556416Y-16024234D01*
X20584987Y-15981377D01*
X20599273Y-15952806D01*
X20613558Y-15909949D01*
X20627844Y-15838520D01*
X20627844Y-15781377D01*
X20613558Y-15709949D01*
X20599273Y-15667091D01*
X20584987Y-15638520D01*
X20556416Y-15595663D01*
X20542130Y-15581377D01*
M02*
