G04 #@! TF.GenerationSoftware,KiCad,Pcbnew,(5.1.5)-3*
G04 #@! TF.CreationDate,2020-10-02T02:33:27-04:00*
G04 #@! TF.ProjectId,commodore-326173-01,636f6d6d-6f64-46f7-9265-2d3332363137,rev?*
G04 #@! TF.SameCoordinates,Original*
G04 #@! TF.FileFunction,Soldermask,Bot*
G04 #@! TF.FilePolarity,Negative*
%FSLAX46Y46*%
G04 Gerber Fmt 4.6, Leading zero omitted, Abs format (unit mm)*
G04 Created by KiCad (PCBNEW (5.1.5)-3) date 2020-10-02 02:33:27*
%MOMM*%
%LPD*%
G04 APERTURE LIST*
%ADD10C,0.100000*%
G04 APERTURE END LIST*
D10*
G36*
X113220500Y-141351000D02*
G01*
X113220500Y-148272500D01*
X171259500Y-148272500D01*
X171259500Y-141351000D01*
X113220500Y-141351000D01*
G37*
X113220500Y-141351000D02*
X113220500Y-148272500D01*
X171259500Y-148272500D01*
X171259500Y-141351000D01*
X113220500Y-141351000D01*
G36*
X126656000Y-148331000D02*
G01*
X124804000Y-148331000D01*
X124804000Y-141229000D01*
X126656000Y-141229000D01*
X126656000Y-148331000D01*
G37*
G36*
X169836000Y-148331000D02*
G01*
X167984000Y-148331000D01*
X167984000Y-141229000D01*
X169836000Y-141229000D01*
X169836000Y-148331000D01*
G37*
G36*
X134276000Y-148331000D02*
G01*
X132424000Y-148331000D01*
X132424000Y-141229000D01*
X134276000Y-141229000D01*
X134276000Y-148331000D01*
G37*
G36*
X139356000Y-148331000D02*
G01*
X137504000Y-148331000D01*
X137504000Y-141229000D01*
X139356000Y-141229000D01*
X139356000Y-148331000D01*
G37*
G36*
X131736000Y-148331000D02*
G01*
X129884000Y-148331000D01*
X129884000Y-141229000D01*
X131736000Y-141229000D01*
X131736000Y-148331000D01*
G37*
G36*
X136816000Y-148331000D02*
G01*
X134964000Y-148331000D01*
X134964000Y-141229000D01*
X136816000Y-141229000D01*
X136816000Y-148331000D01*
G37*
G36*
X129196000Y-148331000D02*
G01*
X127344000Y-148331000D01*
X127344000Y-141229000D01*
X129196000Y-141229000D01*
X129196000Y-148331000D01*
G37*
G36*
X116496000Y-148331000D02*
G01*
X114644000Y-148331000D01*
X114644000Y-141229000D01*
X116496000Y-141229000D01*
X116496000Y-148331000D01*
G37*
G36*
X162216000Y-148331000D02*
G01*
X160364000Y-148331000D01*
X160364000Y-141229000D01*
X162216000Y-141229000D01*
X162216000Y-148331000D01*
G37*
G36*
X159676000Y-148331000D02*
G01*
X157824000Y-148331000D01*
X157824000Y-141229000D01*
X159676000Y-141229000D01*
X159676000Y-148331000D01*
G37*
G36*
X164756000Y-148331000D02*
G01*
X162904000Y-148331000D01*
X162904000Y-141229000D01*
X164756000Y-141229000D01*
X164756000Y-148331000D01*
G37*
G36*
X167296000Y-148331000D02*
G01*
X165444000Y-148331000D01*
X165444000Y-141229000D01*
X167296000Y-141229000D01*
X167296000Y-148331000D01*
G37*
G36*
X149516000Y-148331000D02*
G01*
X147664000Y-148331000D01*
X147664000Y-141229000D01*
X149516000Y-141229000D01*
X149516000Y-148331000D01*
G37*
G36*
X124116000Y-148331000D02*
G01*
X122264000Y-148331000D01*
X122264000Y-141229000D01*
X124116000Y-141229000D01*
X124116000Y-148331000D01*
G37*
G36*
X119036000Y-148331000D02*
G01*
X117184000Y-148331000D01*
X117184000Y-141229000D01*
X119036000Y-141229000D01*
X119036000Y-148331000D01*
G37*
G36*
X121576000Y-148331000D02*
G01*
X119724000Y-148331000D01*
X119724000Y-141229000D01*
X121576000Y-141229000D01*
X121576000Y-148331000D01*
G37*
G36*
X152056000Y-148331000D02*
G01*
X150204000Y-148331000D01*
X150204000Y-141229000D01*
X152056000Y-141229000D01*
X152056000Y-148331000D01*
G37*
G36*
X141896000Y-148331000D02*
G01*
X140044000Y-148331000D01*
X140044000Y-141229000D01*
X141896000Y-141229000D01*
X141896000Y-148331000D01*
G37*
G36*
X154596000Y-148331000D02*
G01*
X152744000Y-148331000D01*
X152744000Y-141229000D01*
X154596000Y-141229000D01*
X154596000Y-148331000D01*
G37*
G36*
X157136000Y-148331000D02*
G01*
X155284000Y-148331000D01*
X155284000Y-141229000D01*
X157136000Y-141229000D01*
X157136000Y-148331000D01*
G37*
G36*
X144436000Y-148331000D02*
G01*
X142584000Y-148331000D01*
X142584000Y-141229000D01*
X144436000Y-141229000D01*
X144436000Y-148331000D01*
G37*
G36*
X146976000Y-148331000D02*
G01*
X145124000Y-148331000D01*
X145124000Y-141229000D01*
X146976000Y-141229000D01*
X146976000Y-148331000D01*
G37*
G36*
X118961000Y-129121000D02*
G01*
X117259000Y-129121000D01*
X117259000Y-127419000D01*
X118961000Y-127419000D01*
X118961000Y-129121000D01*
G37*
G36*
X118358228Y-124951703D02*
G01*
X118513100Y-125015853D01*
X118652481Y-125108985D01*
X118771015Y-125227519D01*
X118864147Y-125366900D01*
X118928297Y-125521772D01*
X118961000Y-125686184D01*
X118961000Y-125853816D01*
X118928297Y-126018228D01*
X118864147Y-126173100D01*
X118771015Y-126312481D01*
X118652481Y-126431015D01*
X118513100Y-126524147D01*
X118358228Y-126588297D01*
X118193816Y-126621000D01*
X118026184Y-126621000D01*
X117861772Y-126588297D01*
X117706900Y-126524147D01*
X117567519Y-126431015D01*
X117448985Y-126312481D01*
X117355853Y-126173100D01*
X117291703Y-126018228D01*
X117259000Y-125853816D01*
X117259000Y-125686184D01*
X117291703Y-125521772D01*
X117355853Y-125366900D01*
X117448985Y-125227519D01*
X117567519Y-125108985D01*
X117706900Y-125015853D01*
X117861772Y-124951703D01*
X118026184Y-124919000D01*
X118193816Y-124919000D01*
X118358228Y-124951703D01*
G37*
G36*
X153283228Y-121101703D02*
G01*
X153438100Y-121165853D01*
X153577481Y-121258985D01*
X153696015Y-121377519D01*
X153789147Y-121516900D01*
X153853297Y-121671772D01*
X153886000Y-121836184D01*
X153886000Y-122003816D01*
X153853297Y-122168228D01*
X153789147Y-122323100D01*
X153696015Y-122462481D01*
X153577481Y-122581015D01*
X153438100Y-122674147D01*
X153283228Y-122738297D01*
X153118816Y-122771000D01*
X152951184Y-122771000D01*
X152786772Y-122738297D01*
X152631900Y-122674147D01*
X152492519Y-122581015D01*
X152373985Y-122462481D01*
X152280853Y-122323100D01*
X152216703Y-122168228D01*
X152184000Y-122003816D01*
X152184000Y-121836184D01*
X152216703Y-121671772D01*
X152280853Y-121516900D01*
X152373985Y-121377519D01*
X152492519Y-121258985D01*
X152631900Y-121165853D01*
X152786772Y-121101703D01*
X152951184Y-121069000D01*
X153118816Y-121069000D01*
X153283228Y-121101703D01*
G37*
G36*
X169126000Y-122771000D02*
G01*
X167424000Y-122771000D01*
X167424000Y-121069000D01*
X169126000Y-121069000D01*
X169126000Y-122771000D01*
G37*
G36*
X118358228Y-121101703D02*
G01*
X118513100Y-121165853D01*
X118652481Y-121258985D01*
X118771015Y-121377519D01*
X118864147Y-121516900D01*
X118928297Y-121671772D01*
X118961000Y-121836184D01*
X118961000Y-122003816D01*
X118928297Y-122168228D01*
X118864147Y-122323100D01*
X118771015Y-122462481D01*
X118652481Y-122581015D01*
X118513100Y-122674147D01*
X118358228Y-122738297D01*
X118193816Y-122771000D01*
X118026184Y-122771000D01*
X117861772Y-122738297D01*
X117706900Y-122674147D01*
X117567519Y-122581015D01*
X117448985Y-122462481D01*
X117355853Y-122323100D01*
X117291703Y-122168228D01*
X117259000Y-122003816D01*
X117259000Y-121836184D01*
X117291703Y-121671772D01*
X117355853Y-121516900D01*
X117448985Y-121377519D01*
X117567519Y-121258985D01*
X117706900Y-121165853D01*
X117861772Y-121101703D01*
X118026184Y-121069000D01*
X118193816Y-121069000D01*
X118358228Y-121101703D01*
G37*
G36*
X134201000Y-122771000D02*
G01*
X132499000Y-122771000D01*
X132499000Y-121069000D01*
X134201000Y-121069000D01*
X134201000Y-122771000D01*
G37*
G36*
X118358228Y-118561703D02*
G01*
X118513100Y-118625853D01*
X118652481Y-118718985D01*
X118771015Y-118837519D01*
X118864147Y-118976900D01*
X118928297Y-119131772D01*
X118961000Y-119296184D01*
X118961000Y-119463816D01*
X118928297Y-119628228D01*
X118864147Y-119783100D01*
X118771015Y-119922481D01*
X118652481Y-120041015D01*
X118513100Y-120134147D01*
X118358228Y-120198297D01*
X118193816Y-120231000D01*
X118026184Y-120231000D01*
X117861772Y-120198297D01*
X117706900Y-120134147D01*
X117567519Y-120041015D01*
X117448985Y-119922481D01*
X117355853Y-119783100D01*
X117291703Y-119628228D01*
X117259000Y-119463816D01*
X117259000Y-119296184D01*
X117291703Y-119131772D01*
X117355853Y-118976900D01*
X117448985Y-118837519D01*
X117567519Y-118718985D01*
X117706900Y-118625853D01*
X117861772Y-118561703D01*
X118026184Y-118529000D01*
X118193816Y-118529000D01*
X118358228Y-118561703D01*
G37*
G36*
X153283228Y-118561703D02*
G01*
X153438100Y-118625853D01*
X153577481Y-118718985D01*
X153696015Y-118837519D01*
X153789147Y-118976900D01*
X153853297Y-119131772D01*
X153886000Y-119296184D01*
X153886000Y-119463816D01*
X153853297Y-119628228D01*
X153789147Y-119783100D01*
X153696015Y-119922481D01*
X153577481Y-120041015D01*
X153438100Y-120134147D01*
X153283228Y-120198297D01*
X153118816Y-120231000D01*
X152951184Y-120231000D01*
X152786772Y-120198297D01*
X152631900Y-120134147D01*
X152492519Y-120041015D01*
X152373985Y-119922481D01*
X152280853Y-119783100D01*
X152216703Y-119628228D01*
X152184000Y-119463816D01*
X152184000Y-119296184D01*
X152216703Y-119131772D01*
X152280853Y-118976900D01*
X152373985Y-118837519D01*
X152492519Y-118718985D01*
X152631900Y-118625853D01*
X152786772Y-118561703D01*
X152951184Y-118529000D01*
X153118816Y-118529000D01*
X153283228Y-118561703D01*
G37*
G36*
X168523228Y-118561703D02*
G01*
X168678100Y-118625853D01*
X168817481Y-118718985D01*
X168936015Y-118837519D01*
X169029147Y-118976900D01*
X169093297Y-119131772D01*
X169126000Y-119296184D01*
X169126000Y-119463816D01*
X169093297Y-119628228D01*
X169029147Y-119783100D01*
X168936015Y-119922481D01*
X168817481Y-120041015D01*
X168678100Y-120134147D01*
X168523228Y-120198297D01*
X168358816Y-120231000D01*
X168191184Y-120231000D01*
X168026772Y-120198297D01*
X167871900Y-120134147D01*
X167732519Y-120041015D01*
X167613985Y-119922481D01*
X167520853Y-119783100D01*
X167456703Y-119628228D01*
X167424000Y-119463816D01*
X167424000Y-119296184D01*
X167456703Y-119131772D01*
X167520853Y-118976900D01*
X167613985Y-118837519D01*
X167732519Y-118718985D01*
X167871900Y-118625853D01*
X168026772Y-118561703D01*
X168191184Y-118529000D01*
X168358816Y-118529000D01*
X168523228Y-118561703D01*
G37*
G36*
X133598228Y-118561703D02*
G01*
X133753100Y-118625853D01*
X133892481Y-118718985D01*
X134011015Y-118837519D01*
X134104147Y-118976900D01*
X134168297Y-119131772D01*
X134201000Y-119296184D01*
X134201000Y-119463816D01*
X134168297Y-119628228D01*
X134104147Y-119783100D01*
X134011015Y-119922481D01*
X133892481Y-120041015D01*
X133753100Y-120134147D01*
X133598228Y-120198297D01*
X133433816Y-120231000D01*
X133266184Y-120231000D01*
X133101772Y-120198297D01*
X132946900Y-120134147D01*
X132807519Y-120041015D01*
X132688985Y-119922481D01*
X132595853Y-119783100D01*
X132531703Y-119628228D01*
X132499000Y-119463816D01*
X132499000Y-119296184D01*
X132531703Y-119131772D01*
X132595853Y-118976900D01*
X132688985Y-118837519D01*
X132807519Y-118718985D01*
X132946900Y-118625853D01*
X133101772Y-118561703D01*
X133266184Y-118529000D01*
X133433816Y-118529000D01*
X133598228Y-118561703D01*
G37*
G36*
X153283228Y-116021703D02*
G01*
X153438100Y-116085853D01*
X153577481Y-116178985D01*
X153696015Y-116297519D01*
X153789147Y-116436900D01*
X153853297Y-116591772D01*
X153886000Y-116756184D01*
X153886000Y-116923816D01*
X153853297Y-117088228D01*
X153789147Y-117243100D01*
X153696015Y-117382481D01*
X153577481Y-117501015D01*
X153438100Y-117594147D01*
X153283228Y-117658297D01*
X153118816Y-117691000D01*
X152951184Y-117691000D01*
X152786772Y-117658297D01*
X152631900Y-117594147D01*
X152492519Y-117501015D01*
X152373985Y-117382481D01*
X152280853Y-117243100D01*
X152216703Y-117088228D01*
X152184000Y-116923816D01*
X152184000Y-116756184D01*
X152216703Y-116591772D01*
X152280853Y-116436900D01*
X152373985Y-116297519D01*
X152492519Y-116178985D01*
X152631900Y-116085853D01*
X152786772Y-116021703D01*
X152951184Y-115989000D01*
X153118816Y-115989000D01*
X153283228Y-116021703D01*
G37*
G36*
X133598228Y-116021703D02*
G01*
X133753100Y-116085853D01*
X133892481Y-116178985D01*
X134011015Y-116297519D01*
X134104147Y-116436900D01*
X134168297Y-116591772D01*
X134201000Y-116756184D01*
X134201000Y-116923816D01*
X134168297Y-117088228D01*
X134104147Y-117243100D01*
X134011015Y-117382481D01*
X133892481Y-117501015D01*
X133753100Y-117594147D01*
X133598228Y-117658297D01*
X133433816Y-117691000D01*
X133266184Y-117691000D01*
X133101772Y-117658297D01*
X132946900Y-117594147D01*
X132807519Y-117501015D01*
X132688985Y-117382481D01*
X132595853Y-117243100D01*
X132531703Y-117088228D01*
X132499000Y-116923816D01*
X132499000Y-116756184D01*
X132531703Y-116591772D01*
X132595853Y-116436900D01*
X132688985Y-116297519D01*
X132807519Y-116178985D01*
X132946900Y-116085853D01*
X133101772Y-116021703D01*
X133266184Y-115989000D01*
X133433816Y-115989000D01*
X133598228Y-116021703D01*
G37*
G36*
X118358228Y-116021703D02*
G01*
X118513100Y-116085853D01*
X118652481Y-116178985D01*
X118771015Y-116297519D01*
X118864147Y-116436900D01*
X118928297Y-116591772D01*
X118961000Y-116756184D01*
X118961000Y-116923816D01*
X118928297Y-117088228D01*
X118864147Y-117243100D01*
X118771015Y-117382481D01*
X118652481Y-117501015D01*
X118513100Y-117594147D01*
X118358228Y-117658297D01*
X118193816Y-117691000D01*
X118026184Y-117691000D01*
X117861772Y-117658297D01*
X117706900Y-117594147D01*
X117567519Y-117501015D01*
X117448985Y-117382481D01*
X117355853Y-117243100D01*
X117291703Y-117088228D01*
X117259000Y-116923816D01*
X117259000Y-116756184D01*
X117291703Y-116591772D01*
X117355853Y-116436900D01*
X117448985Y-116297519D01*
X117567519Y-116178985D01*
X117706900Y-116085853D01*
X117861772Y-116021703D01*
X118026184Y-115989000D01*
X118193816Y-115989000D01*
X118358228Y-116021703D01*
G37*
G36*
X169126000Y-117691000D02*
G01*
X167424000Y-117691000D01*
X167424000Y-115989000D01*
X169126000Y-115989000D01*
X169126000Y-117691000D01*
G37*
G36*
X168523228Y-113481703D02*
G01*
X168678100Y-113545853D01*
X168817481Y-113638985D01*
X168936015Y-113757519D01*
X169029147Y-113896900D01*
X169093297Y-114051772D01*
X169126000Y-114216184D01*
X169126000Y-114383816D01*
X169093297Y-114548228D01*
X169029147Y-114703100D01*
X168936015Y-114842481D01*
X168817481Y-114961015D01*
X168678100Y-115054147D01*
X168523228Y-115118297D01*
X168358816Y-115151000D01*
X168191184Y-115151000D01*
X168026772Y-115118297D01*
X167871900Y-115054147D01*
X167732519Y-114961015D01*
X167613985Y-114842481D01*
X167520853Y-114703100D01*
X167456703Y-114548228D01*
X167424000Y-114383816D01*
X167424000Y-114216184D01*
X167456703Y-114051772D01*
X167520853Y-113896900D01*
X167613985Y-113757519D01*
X167732519Y-113638985D01*
X167871900Y-113545853D01*
X168026772Y-113481703D01*
X168191184Y-113449000D01*
X168358816Y-113449000D01*
X168523228Y-113481703D01*
G37*
G36*
X153283228Y-113481703D02*
G01*
X153438100Y-113545853D01*
X153577481Y-113638985D01*
X153696015Y-113757519D01*
X153789147Y-113896900D01*
X153853297Y-114051772D01*
X153886000Y-114216184D01*
X153886000Y-114383816D01*
X153853297Y-114548228D01*
X153789147Y-114703100D01*
X153696015Y-114842481D01*
X153577481Y-114961015D01*
X153438100Y-115054147D01*
X153283228Y-115118297D01*
X153118816Y-115151000D01*
X152951184Y-115151000D01*
X152786772Y-115118297D01*
X152631900Y-115054147D01*
X152492519Y-114961015D01*
X152373985Y-114842481D01*
X152280853Y-114703100D01*
X152216703Y-114548228D01*
X152184000Y-114383816D01*
X152184000Y-114216184D01*
X152216703Y-114051772D01*
X152280853Y-113896900D01*
X152373985Y-113757519D01*
X152492519Y-113638985D01*
X152631900Y-113545853D01*
X152786772Y-113481703D01*
X152951184Y-113449000D01*
X153118816Y-113449000D01*
X153283228Y-113481703D01*
G37*
G36*
X133598228Y-113481703D02*
G01*
X133753100Y-113545853D01*
X133892481Y-113638985D01*
X134011015Y-113757519D01*
X134104147Y-113896900D01*
X134168297Y-114051772D01*
X134201000Y-114216184D01*
X134201000Y-114383816D01*
X134168297Y-114548228D01*
X134104147Y-114703100D01*
X134011015Y-114842481D01*
X133892481Y-114961015D01*
X133753100Y-115054147D01*
X133598228Y-115118297D01*
X133433816Y-115151000D01*
X133266184Y-115151000D01*
X133101772Y-115118297D01*
X132946900Y-115054147D01*
X132807519Y-114961015D01*
X132688985Y-114842481D01*
X132595853Y-114703100D01*
X132531703Y-114548228D01*
X132499000Y-114383816D01*
X132499000Y-114216184D01*
X132531703Y-114051772D01*
X132595853Y-113896900D01*
X132688985Y-113757519D01*
X132807519Y-113638985D01*
X132946900Y-113545853D01*
X133101772Y-113481703D01*
X133266184Y-113449000D01*
X133433816Y-113449000D01*
X133598228Y-113481703D01*
G37*
G36*
X118358228Y-113481703D02*
G01*
X118513100Y-113545853D01*
X118652481Y-113638985D01*
X118771015Y-113757519D01*
X118864147Y-113896900D01*
X118928297Y-114051772D01*
X118961000Y-114216184D01*
X118961000Y-114383816D01*
X118928297Y-114548228D01*
X118864147Y-114703100D01*
X118771015Y-114842481D01*
X118652481Y-114961015D01*
X118513100Y-115054147D01*
X118358228Y-115118297D01*
X118193816Y-115151000D01*
X118026184Y-115151000D01*
X117861772Y-115118297D01*
X117706900Y-115054147D01*
X117567519Y-114961015D01*
X117448985Y-114842481D01*
X117355853Y-114703100D01*
X117291703Y-114548228D01*
X117259000Y-114383816D01*
X117259000Y-114216184D01*
X117291703Y-114051772D01*
X117355853Y-113896900D01*
X117448985Y-113757519D01*
X117567519Y-113638985D01*
X117706900Y-113545853D01*
X117861772Y-113481703D01*
X118026184Y-113449000D01*
X118193816Y-113449000D01*
X118358228Y-113481703D01*
G37*
G36*
X160641999Y-113499737D02*
G01*
X160651608Y-113502652D01*
X160660472Y-113507390D01*
X160668237Y-113513763D01*
X160678448Y-113526206D01*
X160685378Y-113536575D01*
X160702705Y-113553902D01*
X160723080Y-113567515D01*
X160745720Y-113576891D01*
X160769753Y-113581671D01*
X160794257Y-113581670D01*
X160818290Y-113576888D01*
X160840929Y-113567510D01*
X160861302Y-113553895D01*
X160878629Y-113536568D01*
X160885558Y-113526198D01*
X160895763Y-113513763D01*
X160903528Y-113507390D01*
X160912392Y-113502652D01*
X160922001Y-113499737D01*
X160938140Y-113498148D01*
X161425861Y-113498148D01*
X161444199Y-113499954D01*
X161456450Y-113500556D01*
X161474869Y-113500556D01*
X161497149Y-113502750D01*
X161581233Y-113519476D01*
X161602660Y-113525976D01*
X161681858Y-113558780D01*
X161687303Y-113561691D01*
X161687309Y-113561693D01*
X161696169Y-113566429D01*
X161696173Y-113566432D01*
X161701614Y-113569340D01*
X161772899Y-113616971D01*
X161790204Y-113631172D01*
X161850828Y-113691796D01*
X161865029Y-113709101D01*
X161912660Y-113780386D01*
X161915568Y-113785827D01*
X161915571Y-113785831D01*
X161920307Y-113794691D01*
X161920309Y-113794697D01*
X161923220Y-113800142D01*
X161956024Y-113879340D01*
X161962524Y-113900767D01*
X161979250Y-113984851D01*
X161981444Y-114007131D01*
X161981444Y-114025550D01*
X161982046Y-114037801D01*
X161983852Y-114056139D01*
X161983852Y-114543862D01*
X161982046Y-114562199D01*
X161981444Y-114574450D01*
X161981444Y-114592869D01*
X161979250Y-114615149D01*
X161962524Y-114699233D01*
X161956024Y-114720660D01*
X161923220Y-114799858D01*
X161920309Y-114805303D01*
X161920307Y-114805309D01*
X161915571Y-114814169D01*
X161915568Y-114814173D01*
X161912660Y-114819614D01*
X161865029Y-114890899D01*
X161850828Y-114908204D01*
X161790204Y-114968828D01*
X161772899Y-114983029D01*
X161701614Y-115030660D01*
X161696173Y-115033568D01*
X161696169Y-115033571D01*
X161687309Y-115038307D01*
X161687303Y-115038309D01*
X161681858Y-115041220D01*
X161602660Y-115074024D01*
X161581233Y-115080524D01*
X161497149Y-115097250D01*
X161474869Y-115099444D01*
X161456450Y-115099444D01*
X161444199Y-115100046D01*
X161425862Y-115101852D01*
X160938140Y-115101852D01*
X160922001Y-115100263D01*
X160912392Y-115097348D01*
X160903528Y-115092610D01*
X160895763Y-115086237D01*
X160885552Y-115073794D01*
X160878622Y-115063425D01*
X160861295Y-115046098D01*
X160840920Y-115032485D01*
X160818280Y-115023109D01*
X160794247Y-115018329D01*
X160769743Y-115018330D01*
X160745710Y-115023112D01*
X160723071Y-115032490D01*
X160702698Y-115046105D01*
X160685371Y-115063432D01*
X160678442Y-115073802D01*
X160668237Y-115086237D01*
X160660472Y-115092610D01*
X160651608Y-115097348D01*
X160641999Y-115100263D01*
X160625860Y-115101852D01*
X160138138Y-115101852D01*
X160119801Y-115100046D01*
X160107550Y-115099444D01*
X160089131Y-115099444D01*
X160066851Y-115097250D01*
X159982767Y-115080524D01*
X159961340Y-115074024D01*
X159882142Y-115041220D01*
X159876697Y-115038309D01*
X159876691Y-115038307D01*
X159867831Y-115033571D01*
X159867827Y-115033568D01*
X159862386Y-115030660D01*
X159791101Y-114983029D01*
X159773796Y-114968828D01*
X159713172Y-114908204D01*
X159698971Y-114890899D01*
X159651340Y-114819614D01*
X159648432Y-114814173D01*
X159648429Y-114814169D01*
X159643693Y-114805309D01*
X159643691Y-114805303D01*
X159640780Y-114799858D01*
X159607976Y-114720660D01*
X159601476Y-114699233D01*
X159584750Y-114615149D01*
X159582556Y-114592869D01*
X159582556Y-114574450D01*
X159581954Y-114562199D01*
X159580148Y-114543862D01*
X159580148Y-114056139D01*
X159581954Y-114037801D01*
X159582556Y-114025550D01*
X159582556Y-114007131D01*
X159584750Y-113984851D01*
X159601476Y-113900767D01*
X159607976Y-113879340D01*
X159640780Y-113800142D01*
X159643691Y-113794697D01*
X159643693Y-113794691D01*
X159648429Y-113785831D01*
X159648432Y-113785827D01*
X159651340Y-113780386D01*
X159698971Y-113709101D01*
X159713172Y-113691796D01*
X159773796Y-113631172D01*
X159791101Y-113616971D01*
X159862386Y-113569340D01*
X159867827Y-113566432D01*
X159867831Y-113566429D01*
X159876691Y-113561693D01*
X159876697Y-113561691D01*
X159882142Y-113558780D01*
X159961340Y-113525976D01*
X159982767Y-113519476D01*
X160066851Y-113502750D01*
X160089131Y-113500556D01*
X160107550Y-113500556D01*
X160119801Y-113499954D01*
X160138139Y-113498148D01*
X160625860Y-113498148D01*
X160641999Y-113499737D01*
G37*
G36*
X153283228Y-110941703D02*
G01*
X153438100Y-111005853D01*
X153577481Y-111098985D01*
X153696015Y-111217519D01*
X153789147Y-111356900D01*
X153853297Y-111511772D01*
X153886000Y-111676184D01*
X153886000Y-111843816D01*
X153853297Y-112008228D01*
X153789147Y-112163100D01*
X153696015Y-112302481D01*
X153577481Y-112421015D01*
X153438100Y-112514147D01*
X153283228Y-112578297D01*
X153118816Y-112611000D01*
X152951184Y-112611000D01*
X152786772Y-112578297D01*
X152631900Y-112514147D01*
X152492519Y-112421015D01*
X152373985Y-112302481D01*
X152280853Y-112163100D01*
X152216703Y-112008228D01*
X152184000Y-111843816D01*
X152184000Y-111676184D01*
X152216703Y-111511772D01*
X152280853Y-111356900D01*
X152373985Y-111217519D01*
X152492519Y-111098985D01*
X152631900Y-111005853D01*
X152786772Y-110941703D01*
X152951184Y-110909000D01*
X153118816Y-110909000D01*
X153283228Y-110941703D01*
G37*
G36*
X118358228Y-110941703D02*
G01*
X118513100Y-111005853D01*
X118652481Y-111098985D01*
X118771015Y-111217519D01*
X118864147Y-111356900D01*
X118928297Y-111511772D01*
X118961000Y-111676184D01*
X118961000Y-111843816D01*
X118928297Y-112008228D01*
X118864147Y-112163100D01*
X118771015Y-112302481D01*
X118652481Y-112421015D01*
X118513100Y-112514147D01*
X118358228Y-112578297D01*
X118193816Y-112611000D01*
X118026184Y-112611000D01*
X117861772Y-112578297D01*
X117706900Y-112514147D01*
X117567519Y-112421015D01*
X117448985Y-112302481D01*
X117355853Y-112163100D01*
X117291703Y-112008228D01*
X117259000Y-111843816D01*
X117259000Y-111676184D01*
X117291703Y-111511772D01*
X117355853Y-111356900D01*
X117448985Y-111217519D01*
X117567519Y-111098985D01*
X117706900Y-111005853D01*
X117861772Y-110941703D01*
X118026184Y-110909000D01*
X118193816Y-110909000D01*
X118358228Y-110941703D01*
G37*
G36*
X133598228Y-110941703D02*
G01*
X133753100Y-111005853D01*
X133892481Y-111098985D01*
X134011015Y-111217519D01*
X134104147Y-111356900D01*
X134168297Y-111511772D01*
X134201000Y-111676184D01*
X134201000Y-111843816D01*
X134168297Y-112008228D01*
X134104147Y-112163100D01*
X134011015Y-112302481D01*
X133892481Y-112421015D01*
X133753100Y-112514147D01*
X133598228Y-112578297D01*
X133433816Y-112611000D01*
X133266184Y-112611000D01*
X133101772Y-112578297D01*
X132946900Y-112514147D01*
X132807519Y-112421015D01*
X132688985Y-112302481D01*
X132595853Y-112163100D01*
X132531703Y-112008228D01*
X132499000Y-111843816D01*
X132499000Y-111676184D01*
X132531703Y-111511772D01*
X132595853Y-111356900D01*
X132688985Y-111217519D01*
X132807519Y-111098985D01*
X132946900Y-111005853D01*
X133101772Y-110941703D01*
X133266184Y-110909000D01*
X133433816Y-110909000D01*
X133598228Y-110941703D01*
G37*
G36*
X168523228Y-110941703D02*
G01*
X168678100Y-111005853D01*
X168817481Y-111098985D01*
X168936015Y-111217519D01*
X169029147Y-111356900D01*
X169093297Y-111511772D01*
X169126000Y-111676184D01*
X169126000Y-111843816D01*
X169093297Y-112008228D01*
X169029147Y-112163100D01*
X168936015Y-112302481D01*
X168817481Y-112421015D01*
X168678100Y-112514147D01*
X168523228Y-112578297D01*
X168358816Y-112611000D01*
X168191184Y-112611000D01*
X168026772Y-112578297D01*
X167871900Y-112514147D01*
X167732519Y-112421015D01*
X167613985Y-112302481D01*
X167520853Y-112163100D01*
X167456703Y-112008228D01*
X167424000Y-111843816D01*
X167424000Y-111676184D01*
X167456703Y-111511772D01*
X167520853Y-111356900D01*
X167613985Y-111217519D01*
X167732519Y-111098985D01*
X167871900Y-111005853D01*
X168026772Y-110941703D01*
X168191184Y-110909000D01*
X168358816Y-110909000D01*
X168523228Y-110941703D01*
G37*
G36*
X160041999Y-108546737D02*
G01*
X160056528Y-108551145D01*
X160069711Y-108556606D01*
X160093745Y-108561388D01*
X160118249Y-108561389D01*
X160142282Y-108556609D01*
X160164921Y-108547232D01*
X160166765Y-108546000D01*
X161398050Y-108546000D01*
X161410164Y-108552475D01*
X161433613Y-108559588D01*
X161457999Y-108561990D01*
X161482385Y-108559588D01*
X161505834Y-108552475D01*
X161510746Y-108550152D01*
X161522001Y-108546737D01*
X161538140Y-108545148D01*
X162075861Y-108545148D01*
X162094199Y-108546954D01*
X162106450Y-108547556D01*
X162124869Y-108547556D01*
X162147149Y-108549750D01*
X162231233Y-108566476D01*
X162252660Y-108572976D01*
X162331858Y-108605780D01*
X162337303Y-108608691D01*
X162337309Y-108608693D01*
X162346169Y-108613429D01*
X162346173Y-108613432D01*
X162351614Y-108616340D01*
X162422899Y-108663971D01*
X162440204Y-108678172D01*
X162500828Y-108738796D01*
X162515029Y-108756101D01*
X162562660Y-108827386D01*
X162565568Y-108832827D01*
X162565571Y-108832831D01*
X162570307Y-108841691D01*
X162570309Y-108841697D01*
X162573220Y-108847142D01*
X162606024Y-108926340D01*
X162612524Y-108947767D01*
X162629250Y-109031851D01*
X162631444Y-109054131D01*
X162631444Y-109072550D01*
X162632046Y-109084801D01*
X162633852Y-109103139D01*
X162633852Y-109590862D01*
X162632046Y-109609199D01*
X162631444Y-109621450D01*
X162631444Y-109639869D01*
X162629250Y-109662149D01*
X162612524Y-109746233D01*
X162606024Y-109767660D01*
X162573220Y-109846858D01*
X162570309Y-109852303D01*
X162570307Y-109852309D01*
X162565571Y-109861169D01*
X162565568Y-109861173D01*
X162562660Y-109866614D01*
X162515029Y-109937899D01*
X162500828Y-109955204D01*
X162440204Y-110015828D01*
X162422899Y-110030029D01*
X162351614Y-110077660D01*
X162346173Y-110080568D01*
X162346169Y-110080571D01*
X162337309Y-110085307D01*
X162337303Y-110085309D01*
X162331858Y-110088220D01*
X162252660Y-110121024D01*
X162231233Y-110127524D01*
X162147149Y-110144250D01*
X162124869Y-110146444D01*
X162106450Y-110146444D01*
X162094199Y-110147046D01*
X162075862Y-110148852D01*
X161538140Y-110148852D01*
X161522001Y-110147263D01*
X161507472Y-110142855D01*
X161494289Y-110137394D01*
X161470255Y-110132612D01*
X161445751Y-110132611D01*
X161421718Y-110137391D01*
X161399079Y-110146768D01*
X161397235Y-110148000D01*
X160165950Y-110148000D01*
X160153836Y-110141525D01*
X160130387Y-110134412D01*
X160106001Y-110132010D01*
X160081615Y-110134412D01*
X160058166Y-110141525D01*
X160053254Y-110143848D01*
X160041999Y-110147263D01*
X160025860Y-110148852D01*
X159488138Y-110148852D01*
X159469801Y-110147046D01*
X159457550Y-110146444D01*
X159439131Y-110146444D01*
X159416851Y-110144250D01*
X159332767Y-110127524D01*
X159311340Y-110121024D01*
X159232142Y-110088220D01*
X159226697Y-110085309D01*
X159226691Y-110085307D01*
X159217831Y-110080571D01*
X159217827Y-110080568D01*
X159212386Y-110077660D01*
X159141101Y-110030029D01*
X159123796Y-110015828D01*
X159063172Y-109955204D01*
X159048971Y-109937899D01*
X159001340Y-109866614D01*
X158998432Y-109861173D01*
X158998429Y-109861169D01*
X158993693Y-109852309D01*
X158993691Y-109852303D01*
X158990780Y-109846858D01*
X158957976Y-109767660D01*
X158951476Y-109746233D01*
X158934750Y-109662149D01*
X158932556Y-109639869D01*
X158932556Y-109621450D01*
X158931954Y-109609199D01*
X158930148Y-109590862D01*
X158930148Y-109103139D01*
X158931954Y-109084801D01*
X158932556Y-109072550D01*
X158932556Y-109054131D01*
X158934750Y-109031851D01*
X158951476Y-108947767D01*
X158957976Y-108926340D01*
X158990780Y-108847142D01*
X158993691Y-108841697D01*
X158993693Y-108841691D01*
X158998429Y-108832831D01*
X158998432Y-108832827D01*
X159001340Y-108827386D01*
X159048971Y-108756101D01*
X159063172Y-108738796D01*
X159123796Y-108678172D01*
X159141101Y-108663971D01*
X159212386Y-108616340D01*
X159217827Y-108613432D01*
X159217831Y-108613429D01*
X159226691Y-108608693D01*
X159226697Y-108608691D01*
X159232142Y-108605780D01*
X159311340Y-108572976D01*
X159332767Y-108566476D01*
X159416851Y-108549750D01*
X159439131Y-108547556D01*
X159457550Y-108547556D01*
X159469801Y-108546954D01*
X159488139Y-108545148D01*
X160025860Y-108545148D01*
X160041999Y-108546737D01*
G37*
G36*
X168523228Y-108401703D02*
G01*
X168678100Y-108465853D01*
X168817481Y-108558985D01*
X168936015Y-108677519D01*
X169029147Y-108816900D01*
X169093297Y-108971772D01*
X169126000Y-109136184D01*
X169126000Y-109303816D01*
X169093297Y-109468228D01*
X169029147Y-109623100D01*
X168936015Y-109762481D01*
X168817481Y-109881015D01*
X168678100Y-109974147D01*
X168523228Y-110038297D01*
X168358816Y-110071000D01*
X168191184Y-110071000D01*
X168026772Y-110038297D01*
X167871900Y-109974147D01*
X167732519Y-109881015D01*
X167613985Y-109762481D01*
X167520853Y-109623100D01*
X167456703Y-109468228D01*
X167424000Y-109303816D01*
X167424000Y-109136184D01*
X167456703Y-108971772D01*
X167520853Y-108816900D01*
X167613985Y-108677519D01*
X167732519Y-108558985D01*
X167871900Y-108465853D01*
X168026772Y-108401703D01*
X168191184Y-108369000D01*
X168358816Y-108369000D01*
X168523228Y-108401703D01*
G37*
G36*
X153283228Y-108401703D02*
G01*
X153438100Y-108465853D01*
X153577481Y-108558985D01*
X153696015Y-108677519D01*
X153789147Y-108816900D01*
X153853297Y-108971772D01*
X153886000Y-109136184D01*
X153886000Y-109303816D01*
X153853297Y-109468228D01*
X153789147Y-109623100D01*
X153696015Y-109762481D01*
X153577481Y-109881015D01*
X153438100Y-109974147D01*
X153283228Y-110038297D01*
X153118816Y-110071000D01*
X152951184Y-110071000D01*
X152786772Y-110038297D01*
X152631900Y-109974147D01*
X152492519Y-109881015D01*
X152373985Y-109762481D01*
X152280853Y-109623100D01*
X152216703Y-109468228D01*
X152184000Y-109303816D01*
X152184000Y-109136184D01*
X152216703Y-108971772D01*
X152280853Y-108816900D01*
X152373985Y-108677519D01*
X152492519Y-108558985D01*
X152631900Y-108465853D01*
X152786772Y-108401703D01*
X152951184Y-108369000D01*
X153118816Y-108369000D01*
X153283228Y-108401703D01*
G37*
G36*
X118358228Y-108401703D02*
G01*
X118513100Y-108465853D01*
X118652481Y-108558985D01*
X118771015Y-108677519D01*
X118864147Y-108816900D01*
X118928297Y-108971772D01*
X118961000Y-109136184D01*
X118961000Y-109303816D01*
X118928297Y-109468228D01*
X118864147Y-109623100D01*
X118771015Y-109762481D01*
X118652481Y-109881015D01*
X118513100Y-109974147D01*
X118358228Y-110038297D01*
X118193816Y-110071000D01*
X118026184Y-110071000D01*
X117861772Y-110038297D01*
X117706900Y-109974147D01*
X117567519Y-109881015D01*
X117448985Y-109762481D01*
X117355853Y-109623100D01*
X117291703Y-109468228D01*
X117259000Y-109303816D01*
X117259000Y-109136184D01*
X117291703Y-108971772D01*
X117355853Y-108816900D01*
X117448985Y-108677519D01*
X117567519Y-108558985D01*
X117706900Y-108465853D01*
X117861772Y-108401703D01*
X118026184Y-108369000D01*
X118193816Y-108369000D01*
X118358228Y-108401703D01*
G37*
G36*
X133598228Y-108401703D02*
G01*
X133753100Y-108465853D01*
X133892481Y-108558985D01*
X134011015Y-108677519D01*
X134104147Y-108816900D01*
X134168297Y-108971772D01*
X134201000Y-109136184D01*
X134201000Y-109303816D01*
X134168297Y-109468228D01*
X134104147Y-109623100D01*
X134011015Y-109762481D01*
X133892481Y-109881015D01*
X133753100Y-109974147D01*
X133598228Y-110038297D01*
X133433816Y-110071000D01*
X133266184Y-110071000D01*
X133101772Y-110038297D01*
X132946900Y-109974147D01*
X132807519Y-109881015D01*
X132688985Y-109762481D01*
X132595853Y-109623100D01*
X132531703Y-109468228D01*
X132499000Y-109303816D01*
X132499000Y-109136184D01*
X132531703Y-108971772D01*
X132595853Y-108816900D01*
X132688985Y-108677519D01*
X132807519Y-108558985D01*
X132946900Y-108465853D01*
X133101772Y-108401703D01*
X133266184Y-108369000D01*
X133433816Y-108369000D01*
X133598228Y-108401703D01*
G37*
G36*
X168523228Y-105861703D02*
G01*
X168678100Y-105925853D01*
X168817481Y-106018985D01*
X168936015Y-106137519D01*
X169029147Y-106276900D01*
X169093297Y-106431772D01*
X169126000Y-106596184D01*
X169126000Y-106763816D01*
X169093297Y-106928228D01*
X169029147Y-107083100D01*
X168936015Y-107222481D01*
X168817481Y-107341015D01*
X168678100Y-107434147D01*
X168523228Y-107498297D01*
X168358816Y-107531000D01*
X168191184Y-107531000D01*
X168026772Y-107498297D01*
X167871900Y-107434147D01*
X167732519Y-107341015D01*
X167613985Y-107222481D01*
X167520853Y-107083100D01*
X167456703Y-106928228D01*
X167424000Y-106763816D01*
X167424000Y-106596184D01*
X167456703Y-106431772D01*
X167520853Y-106276900D01*
X167613985Y-106137519D01*
X167732519Y-106018985D01*
X167871900Y-105925853D01*
X168026772Y-105861703D01*
X168191184Y-105829000D01*
X168358816Y-105829000D01*
X168523228Y-105861703D01*
G37*
G36*
X133598228Y-105861703D02*
G01*
X133753100Y-105925853D01*
X133892481Y-106018985D01*
X134011015Y-106137519D01*
X134104147Y-106276900D01*
X134168297Y-106431772D01*
X134201000Y-106596184D01*
X134201000Y-106763816D01*
X134168297Y-106928228D01*
X134104147Y-107083100D01*
X134011015Y-107222481D01*
X133892481Y-107341015D01*
X133753100Y-107434147D01*
X133598228Y-107498297D01*
X133433816Y-107531000D01*
X133266184Y-107531000D01*
X133101772Y-107498297D01*
X132946900Y-107434147D01*
X132807519Y-107341015D01*
X132688985Y-107222481D01*
X132595853Y-107083100D01*
X132531703Y-106928228D01*
X132499000Y-106763816D01*
X132499000Y-106596184D01*
X132531703Y-106431772D01*
X132595853Y-106276900D01*
X132688985Y-106137519D01*
X132807519Y-106018985D01*
X132946900Y-105925853D01*
X133101772Y-105861703D01*
X133266184Y-105829000D01*
X133433816Y-105829000D01*
X133598228Y-105861703D01*
G37*
G36*
X153283228Y-105861703D02*
G01*
X153438100Y-105925853D01*
X153577481Y-106018985D01*
X153696015Y-106137519D01*
X153789147Y-106276900D01*
X153853297Y-106431772D01*
X153886000Y-106596184D01*
X153886000Y-106763816D01*
X153853297Y-106928228D01*
X153789147Y-107083100D01*
X153696015Y-107222481D01*
X153577481Y-107341015D01*
X153438100Y-107434147D01*
X153283228Y-107498297D01*
X153118816Y-107531000D01*
X152951184Y-107531000D01*
X152786772Y-107498297D01*
X152631900Y-107434147D01*
X152492519Y-107341015D01*
X152373985Y-107222481D01*
X152280853Y-107083100D01*
X152216703Y-106928228D01*
X152184000Y-106763816D01*
X152184000Y-106596184D01*
X152216703Y-106431772D01*
X152280853Y-106276900D01*
X152373985Y-106137519D01*
X152492519Y-106018985D01*
X152631900Y-105925853D01*
X152786772Y-105861703D01*
X152951184Y-105829000D01*
X153118816Y-105829000D01*
X153283228Y-105861703D01*
G37*
G36*
X118358228Y-105861703D02*
G01*
X118513100Y-105925853D01*
X118652481Y-106018985D01*
X118771015Y-106137519D01*
X118864147Y-106276900D01*
X118928297Y-106431772D01*
X118961000Y-106596184D01*
X118961000Y-106763816D01*
X118928297Y-106928228D01*
X118864147Y-107083100D01*
X118771015Y-107222481D01*
X118652481Y-107341015D01*
X118513100Y-107434147D01*
X118358228Y-107498297D01*
X118193816Y-107531000D01*
X118026184Y-107531000D01*
X117861772Y-107498297D01*
X117706900Y-107434147D01*
X117567519Y-107341015D01*
X117448985Y-107222481D01*
X117355853Y-107083100D01*
X117291703Y-106928228D01*
X117259000Y-106763816D01*
X117259000Y-106596184D01*
X117291703Y-106431772D01*
X117355853Y-106276900D01*
X117448985Y-106137519D01*
X117567519Y-106018985D01*
X117706900Y-105925853D01*
X117861772Y-105861703D01*
X118026184Y-105829000D01*
X118193816Y-105829000D01*
X118358228Y-105861703D01*
G37*
G36*
X160041999Y-104101737D02*
G01*
X160056528Y-104106145D01*
X160069711Y-104111606D01*
X160093745Y-104116388D01*
X160118249Y-104116389D01*
X160142282Y-104111609D01*
X160164921Y-104102232D01*
X160166765Y-104101000D01*
X161398050Y-104101000D01*
X161410164Y-104107475D01*
X161433613Y-104114588D01*
X161457999Y-104116990D01*
X161482385Y-104114588D01*
X161505834Y-104107475D01*
X161510746Y-104105152D01*
X161522001Y-104101737D01*
X161538140Y-104100148D01*
X162075861Y-104100148D01*
X162094199Y-104101954D01*
X162106450Y-104102556D01*
X162124869Y-104102556D01*
X162147149Y-104104750D01*
X162231233Y-104121476D01*
X162252660Y-104127976D01*
X162331858Y-104160780D01*
X162337303Y-104163691D01*
X162337309Y-104163693D01*
X162346169Y-104168429D01*
X162346173Y-104168432D01*
X162351614Y-104171340D01*
X162422899Y-104218971D01*
X162440204Y-104233172D01*
X162500828Y-104293796D01*
X162515029Y-104311101D01*
X162562660Y-104382386D01*
X162565568Y-104387827D01*
X162565571Y-104387831D01*
X162570307Y-104396691D01*
X162570309Y-104396697D01*
X162573220Y-104402142D01*
X162606024Y-104481340D01*
X162612524Y-104502767D01*
X162629250Y-104586851D01*
X162631444Y-104609131D01*
X162631444Y-104627550D01*
X162632046Y-104639801D01*
X162633852Y-104658139D01*
X162633852Y-105145862D01*
X162632046Y-105164199D01*
X162631444Y-105176450D01*
X162631444Y-105194869D01*
X162629250Y-105217149D01*
X162612524Y-105301233D01*
X162606024Y-105322660D01*
X162573220Y-105401858D01*
X162570309Y-105407303D01*
X162570307Y-105407309D01*
X162565571Y-105416169D01*
X162565568Y-105416173D01*
X162562660Y-105421614D01*
X162515029Y-105492899D01*
X162500828Y-105510204D01*
X162440204Y-105570828D01*
X162422899Y-105585029D01*
X162351614Y-105632660D01*
X162346173Y-105635568D01*
X162346169Y-105635571D01*
X162337309Y-105640307D01*
X162337303Y-105640309D01*
X162331858Y-105643220D01*
X162252660Y-105676024D01*
X162231233Y-105682524D01*
X162147149Y-105699250D01*
X162124869Y-105701444D01*
X162106450Y-105701444D01*
X162094199Y-105702046D01*
X162075862Y-105703852D01*
X161538140Y-105703852D01*
X161522001Y-105702263D01*
X161507472Y-105697855D01*
X161494289Y-105692394D01*
X161470255Y-105687612D01*
X161445751Y-105687611D01*
X161421718Y-105692391D01*
X161399079Y-105701768D01*
X161397235Y-105703000D01*
X160165950Y-105703000D01*
X160153836Y-105696525D01*
X160130387Y-105689412D01*
X160106001Y-105687010D01*
X160081615Y-105689412D01*
X160058166Y-105696525D01*
X160053254Y-105698848D01*
X160041999Y-105702263D01*
X160025860Y-105703852D01*
X159488138Y-105703852D01*
X159469801Y-105702046D01*
X159457550Y-105701444D01*
X159439131Y-105701444D01*
X159416851Y-105699250D01*
X159332767Y-105682524D01*
X159311340Y-105676024D01*
X159232142Y-105643220D01*
X159226697Y-105640309D01*
X159226691Y-105640307D01*
X159217831Y-105635571D01*
X159217827Y-105635568D01*
X159212386Y-105632660D01*
X159141101Y-105585029D01*
X159123796Y-105570828D01*
X159063172Y-105510204D01*
X159048971Y-105492899D01*
X159001340Y-105421614D01*
X158998432Y-105416173D01*
X158998429Y-105416169D01*
X158993693Y-105407309D01*
X158993691Y-105407303D01*
X158990780Y-105401858D01*
X158957976Y-105322660D01*
X158951476Y-105301233D01*
X158934750Y-105217149D01*
X158932556Y-105194869D01*
X158932556Y-105176450D01*
X158931954Y-105164199D01*
X158930148Y-105145862D01*
X158930148Y-104658139D01*
X158931954Y-104639801D01*
X158932556Y-104627550D01*
X158932556Y-104609131D01*
X158934750Y-104586851D01*
X158951476Y-104502767D01*
X158957976Y-104481340D01*
X158990780Y-104402142D01*
X158993691Y-104396697D01*
X158993693Y-104396691D01*
X158998429Y-104387831D01*
X158998432Y-104387827D01*
X159001340Y-104382386D01*
X159048971Y-104311101D01*
X159063172Y-104293796D01*
X159123796Y-104233172D01*
X159141101Y-104218971D01*
X159212386Y-104171340D01*
X159217827Y-104168432D01*
X159217831Y-104168429D01*
X159226691Y-104163693D01*
X159226697Y-104163691D01*
X159232142Y-104160780D01*
X159311340Y-104127976D01*
X159332767Y-104121476D01*
X159416851Y-104104750D01*
X159439131Y-104102556D01*
X159457550Y-104102556D01*
X159469801Y-104101954D01*
X159488139Y-104100148D01*
X160025860Y-104100148D01*
X160041999Y-104101737D01*
G37*
G36*
X153283228Y-103321703D02*
G01*
X153438100Y-103385853D01*
X153577481Y-103478985D01*
X153696015Y-103597519D01*
X153789147Y-103736900D01*
X153853297Y-103891772D01*
X153886000Y-104056184D01*
X153886000Y-104223816D01*
X153853297Y-104388228D01*
X153789147Y-104543100D01*
X153696015Y-104682481D01*
X153577481Y-104801015D01*
X153438100Y-104894147D01*
X153283228Y-104958297D01*
X153118816Y-104991000D01*
X152951184Y-104991000D01*
X152786772Y-104958297D01*
X152631900Y-104894147D01*
X152492519Y-104801015D01*
X152373985Y-104682481D01*
X152280853Y-104543100D01*
X152216703Y-104388228D01*
X152184000Y-104223816D01*
X152184000Y-104056184D01*
X152216703Y-103891772D01*
X152280853Y-103736900D01*
X152373985Y-103597519D01*
X152492519Y-103478985D01*
X152631900Y-103385853D01*
X152786772Y-103321703D01*
X152951184Y-103289000D01*
X153118816Y-103289000D01*
X153283228Y-103321703D01*
G37*
G36*
X168523228Y-103321703D02*
G01*
X168678100Y-103385853D01*
X168817481Y-103478985D01*
X168936015Y-103597519D01*
X169029147Y-103736900D01*
X169093297Y-103891772D01*
X169126000Y-104056184D01*
X169126000Y-104223816D01*
X169093297Y-104388228D01*
X169029147Y-104543100D01*
X168936015Y-104682481D01*
X168817481Y-104801015D01*
X168678100Y-104894147D01*
X168523228Y-104958297D01*
X168358816Y-104991000D01*
X168191184Y-104991000D01*
X168026772Y-104958297D01*
X167871900Y-104894147D01*
X167732519Y-104801015D01*
X167613985Y-104682481D01*
X167520853Y-104543100D01*
X167456703Y-104388228D01*
X167424000Y-104223816D01*
X167424000Y-104056184D01*
X167456703Y-103891772D01*
X167520853Y-103736900D01*
X167613985Y-103597519D01*
X167732519Y-103478985D01*
X167871900Y-103385853D01*
X168026772Y-103321703D01*
X168191184Y-103289000D01*
X168358816Y-103289000D01*
X168523228Y-103321703D01*
G37*
G36*
X118358228Y-103321703D02*
G01*
X118513100Y-103385853D01*
X118652481Y-103478985D01*
X118771015Y-103597519D01*
X118864147Y-103736900D01*
X118928297Y-103891772D01*
X118961000Y-104056184D01*
X118961000Y-104223816D01*
X118928297Y-104388228D01*
X118864147Y-104543100D01*
X118771015Y-104682481D01*
X118652481Y-104801015D01*
X118513100Y-104894147D01*
X118358228Y-104958297D01*
X118193816Y-104991000D01*
X118026184Y-104991000D01*
X117861772Y-104958297D01*
X117706900Y-104894147D01*
X117567519Y-104801015D01*
X117448985Y-104682481D01*
X117355853Y-104543100D01*
X117291703Y-104388228D01*
X117259000Y-104223816D01*
X117259000Y-104056184D01*
X117291703Y-103891772D01*
X117355853Y-103736900D01*
X117448985Y-103597519D01*
X117567519Y-103478985D01*
X117706900Y-103385853D01*
X117861772Y-103321703D01*
X118026184Y-103289000D01*
X118193816Y-103289000D01*
X118358228Y-103321703D01*
G37*
G36*
X133598228Y-103321703D02*
G01*
X133753100Y-103385853D01*
X133892481Y-103478985D01*
X134011015Y-103597519D01*
X134104147Y-103736900D01*
X134168297Y-103891772D01*
X134201000Y-104056184D01*
X134201000Y-104223816D01*
X134168297Y-104388228D01*
X134104147Y-104543100D01*
X134011015Y-104682481D01*
X133892481Y-104801015D01*
X133753100Y-104894147D01*
X133598228Y-104958297D01*
X133433816Y-104991000D01*
X133266184Y-104991000D01*
X133101772Y-104958297D01*
X132946900Y-104894147D01*
X132807519Y-104801015D01*
X132688985Y-104682481D01*
X132595853Y-104543100D01*
X132531703Y-104388228D01*
X132499000Y-104223816D01*
X132499000Y-104056184D01*
X132531703Y-103891772D01*
X132595853Y-103736900D01*
X132688985Y-103597519D01*
X132807519Y-103478985D01*
X132946900Y-103385853D01*
X133101772Y-103321703D01*
X133266184Y-103289000D01*
X133433816Y-103289000D01*
X133598228Y-103321703D01*
G37*
G36*
X153283228Y-100781703D02*
G01*
X153438100Y-100845853D01*
X153577481Y-100938985D01*
X153696015Y-101057519D01*
X153789147Y-101196900D01*
X153853297Y-101351772D01*
X153886000Y-101516184D01*
X153886000Y-101683816D01*
X153853297Y-101848228D01*
X153789147Y-102003100D01*
X153696015Y-102142481D01*
X153577481Y-102261015D01*
X153438100Y-102354147D01*
X153283228Y-102418297D01*
X153118816Y-102451000D01*
X152951184Y-102451000D01*
X152786772Y-102418297D01*
X152631900Y-102354147D01*
X152492519Y-102261015D01*
X152373985Y-102142481D01*
X152280853Y-102003100D01*
X152216703Y-101848228D01*
X152184000Y-101683816D01*
X152184000Y-101516184D01*
X152216703Y-101351772D01*
X152280853Y-101196900D01*
X152373985Y-101057519D01*
X152492519Y-100938985D01*
X152631900Y-100845853D01*
X152786772Y-100781703D01*
X152951184Y-100749000D01*
X153118816Y-100749000D01*
X153283228Y-100781703D01*
G37*
G36*
X118358228Y-100781703D02*
G01*
X118513100Y-100845853D01*
X118652481Y-100938985D01*
X118771015Y-101057519D01*
X118864147Y-101196900D01*
X118928297Y-101351772D01*
X118961000Y-101516184D01*
X118961000Y-101683816D01*
X118928297Y-101848228D01*
X118864147Y-102003100D01*
X118771015Y-102142481D01*
X118652481Y-102261015D01*
X118513100Y-102354147D01*
X118358228Y-102418297D01*
X118193816Y-102451000D01*
X118026184Y-102451000D01*
X117861772Y-102418297D01*
X117706900Y-102354147D01*
X117567519Y-102261015D01*
X117448985Y-102142481D01*
X117355853Y-102003100D01*
X117291703Y-101848228D01*
X117259000Y-101683816D01*
X117259000Y-101516184D01*
X117291703Y-101351772D01*
X117355853Y-101196900D01*
X117448985Y-101057519D01*
X117567519Y-100938985D01*
X117706900Y-100845853D01*
X117861772Y-100781703D01*
X118026184Y-100749000D01*
X118193816Y-100749000D01*
X118358228Y-100781703D01*
G37*
G36*
X168523228Y-100781703D02*
G01*
X168678100Y-100845853D01*
X168817481Y-100938985D01*
X168936015Y-101057519D01*
X169029147Y-101196900D01*
X169093297Y-101351772D01*
X169126000Y-101516184D01*
X169126000Y-101683816D01*
X169093297Y-101848228D01*
X169029147Y-102003100D01*
X168936015Y-102142481D01*
X168817481Y-102261015D01*
X168678100Y-102354147D01*
X168523228Y-102418297D01*
X168358816Y-102451000D01*
X168191184Y-102451000D01*
X168026772Y-102418297D01*
X167871900Y-102354147D01*
X167732519Y-102261015D01*
X167613985Y-102142481D01*
X167520853Y-102003100D01*
X167456703Y-101848228D01*
X167424000Y-101683816D01*
X167424000Y-101516184D01*
X167456703Y-101351772D01*
X167520853Y-101196900D01*
X167613985Y-101057519D01*
X167732519Y-100938985D01*
X167871900Y-100845853D01*
X168026772Y-100781703D01*
X168191184Y-100749000D01*
X168358816Y-100749000D01*
X168523228Y-100781703D01*
G37*
G36*
X133598228Y-100781703D02*
G01*
X133753100Y-100845853D01*
X133892481Y-100938985D01*
X134011015Y-101057519D01*
X134104147Y-101196900D01*
X134168297Y-101351772D01*
X134201000Y-101516184D01*
X134201000Y-101683816D01*
X134168297Y-101848228D01*
X134104147Y-102003100D01*
X134011015Y-102142481D01*
X133892481Y-102261015D01*
X133753100Y-102354147D01*
X133598228Y-102418297D01*
X133433816Y-102451000D01*
X133266184Y-102451000D01*
X133101772Y-102418297D01*
X132946900Y-102354147D01*
X132807519Y-102261015D01*
X132688985Y-102142481D01*
X132595853Y-102003100D01*
X132531703Y-101848228D01*
X132499000Y-101683816D01*
X132499000Y-101516184D01*
X132531703Y-101351772D01*
X132595853Y-101196900D01*
X132688985Y-101057519D01*
X132807519Y-100938985D01*
X132946900Y-100845853D01*
X133101772Y-100781703D01*
X133266184Y-100749000D01*
X133433816Y-100749000D01*
X133598228Y-100781703D01*
G37*
G36*
X160041999Y-99656737D02*
G01*
X160056528Y-99661145D01*
X160069711Y-99666606D01*
X160093745Y-99671388D01*
X160118249Y-99671389D01*
X160142282Y-99666609D01*
X160164921Y-99657232D01*
X160166765Y-99656000D01*
X161398050Y-99656000D01*
X161410164Y-99662475D01*
X161433613Y-99669588D01*
X161457999Y-99671990D01*
X161482385Y-99669588D01*
X161505834Y-99662475D01*
X161510746Y-99660152D01*
X161522001Y-99656737D01*
X161538140Y-99655148D01*
X162075861Y-99655148D01*
X162094199Y-99656954D01*
X162106450Y-99657556D01*
X162124869Y-99657556D01*
X162147149Y-99659750D01*
X162231233Y-99676476D01*
X162252660Y-99682976D01*
X162331858Y-99715780D01*
X162337303Y-99718691D01*
X162337309Y-99718693D01*
X162346169Y-99723429D01*
X162346173Y-99723432D01*
X162351614Y-99726340D01*
X162422899Y-99773971D01*
X162440204Y-99788172D01*
X162500828Y-99848796D01*
X162515029Y-99866101D01*
X162562660Y-99937386D01*
X162565568Y-99942827D01*
X162565571Y-99942831D01*
X162570307Y-99951691D01*
X162570309Y-99951697D01*
X162573220Y-99957142D01*
X162606024Y-100036340D01*
X162612524Y-100057767D01*
X162629250Y-100141851D01*
X162631444Y-100164131D01*
X162631444Y-100182550D01*
X162632046Y-100194801D01*
X162633852Y-100213139D01*
X162633852Y-100700862D01*
X162632046Y-100719199D01*
X162631444Y-100731450D01*
X162631444Y-100749869D01*
X162629250Y-100772149D01*
X162612524Y-100856233D01*
X162606024Y-100877660D01*
X162573220Y-100956858D01*
X162570309Y-100962303D01*
X162570307Y-100962309D01*
X162565571Y-100971169D01*
X162565568Y-100971173D01*
X162562660Y-100976614D01*
X162515029Y-101047899D01*
X162500828Y-101065204D01*
X162440204Y-101125828D01*
X162422899Y-101140029D01*
X162351614Y-101187660D01*
X162346173Y-101190568D01*
X162346169Y-101190571D01*
X162337309Y-101195307D01*
X162337303Y-101195309D01*
X162331858Y-101198220D01*
X162252660Y-101231024D01*
X162231233Y-101237524D01*
X162147149Y-101254250D01*
X162124869Y-101256444D01*
X162106450Y-101256444D01*
X162094199Y-101257046D01*
X162075862Y-101258852D01*
X161538140Y-101258852D01*
X161522001Y-101257263D01*
X161507472Y-101252855D01*
X161494289Y-101247394D01*
X161470255Y-101242612D01*
X161445751Y-101242611D01*
X161421718Y-101247391D01*
X161399079Y-101256768D01*
X161397235Y-101258000D01*
X160165950Y-101258000D01*
X160153836Y-101251525D01*
X160130387Y-101244412D01*
X160106001Y-101242010D01*
X160081615Y-101244412D01*
X160058166Y-101251525D01*
X160053254Y-101253848D01*
X160041999Y-101257263D01*
X160025860Y-101258852D01*
X159488138Y-101258852D01*
X159469801Y-101257046D01*
X159457550Y-101256444D01*
X159439131Y-101256444D01*
X159416851Y-101254250D01*
X159332767Y-101237524D01*
X159311340Y-101231024D01*
X159232142Y-101198220D01*
X159226697Y-101195309D01*
X159226691Y-101195307D01*
X159217831Y-101190571D01*
X159217827Y-101190568D01*
X159212386Y-101187660D01*
X159141101Y-101140029D01*
X159123796Y-101125828D01*
X159063172Y-101065204D01*
X159048971Y-101047899D01*
X159001340Y-100976614D01*
X158998432Y-100971173D01*
X158998429Y-100971169D01*
X158993693Y-100962309D01*
X158993691Y-100962303D01*
X158990780Y-100956858D01*
X158957976Y-100877660D01*
X158951476Y-100856233D01*
X158934750Y-100772149D01*
X158932556Y-100749869D01*
X158932556Y-100731450D01*
X158931954Y-100719199D01*
X158930148Y-100700862D01*
X158930148Y-100213139D01*
X158931954Y-100194801D01*
X158932556Y-100182550D01*
X158932556Y-100164131D01*
X158934750Y-100141851D01*
X158951476Y-100057767D01*
X158957976Y-100036340D01*
X158990780Y-99957142D01*
X158993691Y-99951697D01*
X158993693Y-99951691D01*
X158998429Y-99942831D01*
X158998432Y-99942827D01*
X159001340Y-99937386D01*
X159048971Y-99866101D01*
X159063172Y-99848796D01*
X159123796Y-99788172D01*
X159141101Y-99773971D01*
X159212386Y-99726340D01*
X159217827Y-99723432D01*
X159217831Y-99723429D01*
X159226691Y-99718693D01*
X159226697Y-99718691D01*
X159232142Y-99715780D01*
X159311340Y-99682976D01*
X159332767Y-99676476D01*
X159416851Y-99659750D01*
X159439131Y-99657556D01*
X159457550Y-99657556D01*
X159469801Y-99656954D01*
X159488139Y-99655148D01*
X160025860Y-99655148D01*
X160041999Y-99656737D01*
G37*
G36*
X168523228Y-98241703D02*
G01*
X168678100Y-98305853D01*
X168817481Y-98398985D01*
X168936015Y-98517519D01*
X169029147Y-98656900D01*
X169093297Y-98811772D01*
X169126000Y-98976184D01*
X169126000Y-99143816D01*
X169093297Y-99308228D01*
X169029147Y-99463100D01*
X168936015Y-99602481D01*
X168817481Y-99721015D01*
X168678100Y-99814147D01*
X168523228Y-99878297D01*
X168358816Y-99911000D01*
X168191184Y-99911000D01*
X168026772Y-99878297D01*
X167871900Y-99814147D01*
X167732519Y-99721015D01*
X167613985Y-99602481D01*
X167520853Y-99463100D01*
X167456703Y-99308228D01*
X167424000Y-99143816D01*
X167424000Y-98976184D01*
X167456703Y-98811772D01*
X167520853Y-98656900D01*
X167613985Y-98517519D01*
X167732519Y-98398985D01*
X167871900Y-98305853D01*
X168026772Y-98241703D01*
X168191184Y-98209000D01*
X168358816Y-98209000D01*
X168523228Y-98241703D01*
G37*
G36*
X153283228Y-98241703D02*
G01*
X153438100Y-98305853D01*
X153577481Y-98398985D01*
X153696015Y-98517519D01*
X153789147Y-98656900D01*
X153853297Y-98811772D01*
X153886000Y-98976184D01*
X153886000Y-99143816D01*
X153853297Y-99308228D01*
X153789147Y-99463100D01*
X153696015Y-99602481D01*
X153577481Y-99721015D01*
X153438100Y-99814147D01*
X153283228Y-99878297D01*
X153118816Y-99911000D01*
X152951184Y-99911000D01*
X152786772Y-99878297D01*
X152631900Y-99814147D01*
X152492519Y-99721015D01*
X152373985Y-99602481D01*
X152280853Y-99463100D01*
X152216703Y-99308228D01*
X152184000Y-99143816D01*
X152184000Y-98976184D01*
X152216703Y-98811772D01*
X152280853Y-98656900D01*
X152373985Y-98517519D01*
X152492519Y-98398985D01*
X152631900Y-98305853D01*
X152786772Y-98241703D01*
X152951184Y-98209000D01*
X153118816Y-98209000D01*
X153283228Y-98241703D01*
G37*
G36*
X133598228Y-98241703D02*
G01*
X133753100Y-98305853D01*
X133892481Y-98398985D01*
X134011015Y-98517519D01*
X134104147Y-98656900D01*
X134168297Y-98811772D01*
X134201000Y-98976184D01*
X134201000Y-99143816D01*
X134168297Y-99308228D01*
X134104147Y-99463100D01*
X134011015Y-99602481D01*
X133892481Y-99721015D01*
X133753100Y-99814147D01*
X133598228Y-99878297D01*
X133433816Y-99911000D01*
X133266184Y-99911000D01*
X133101772Y-99878297D01*
X132946900Y-99814147D01*
X132807519Y-99721015D01*
X132688985Y-99602481D01*
X132595853Y-99463100D01*
X132531703Y-99308228D01*
X132499000Y-99143816D01*
X132499000Y-98976184D01*
X132531703Y-98811772D01*
X132595853Y-98656900D01*
X132688985Y-98517519D01*
X132807519Y-98398985D01*
X132946900Y-98305853D01*
X133101772Y-98241703D01*
X133266184Y-98209000D01*
X133433816Y-98209000D01*
X133598228Y-98241703D01*
G37*
G36*
X118358228Y-98241703D02*
G01*
X118513100Y-98305853D01*
X118652481Y-98398985D01*
X118771015Y-98517519D01*
X118864147Y-98656900D01*
X118928297Y-98811772D01*
X118961000Y-98976184D01*
X118961000Y-99143816D01*
X118928297Y-99308228D01*
X118864147Y-99463100D01*
X118771015Y-99602481D01*
X118652481Y-99721015D01*
X118513100Y-99814147D01*
X118358228Y-99878297D01*
X118193816Y-99911000D01*
X118026184Y-99911000D01*
X117861772Y-99878297D01*
X117706900Y-99814147D01*
X117567519Y-99721015D01*
X117448985Y-99602481D01*
X117355853Y-99463100D01*
X117291703Y-99308228D01*
X117259000Y-99143816D01*
X117259000Y-98976184D01*
X117291703Y-98811772D01*
X117355853Y-98656900D01*
X117448985Y-98517519D01*
X117567519Y-98398985D01*
X117706900Y-98305853D01*
X117861772Y-98241703D01*
X118026184Y-98209000D01*
X118193816Y-98209000D01*
X118358228Y-98241703D01*
G37*
G36*
X153283228Y-95701703D02*
G01*
X153438100Y-95765853D01*
X153577481Y-95858985D01*
X153696015Y-95977519D01*
X153789147Y-96116900D01*
X153853297Y-96271772D01*
X153886000Y-96436184D01*
X153886000Y-96603816D01*
X153853297Y-96768228D01*
X153789147Y-96923100D01*
X153696015Y-97062481D01*
X153577481Y-97181015D01*
X153438100Y-97274147D01*
X153283228Y-97338297D01*
X153118816Y-97371000D01*
X152951184Y-97371000D01*
X152786772Y-97338297D01*
X152631900Y-97274147D01*
X152492519Y-97181015D01*
X152373985Y-97062481D01*
X152280853Y-96923100D01*
X152216703Y-96768228D01*
X152184000Y-96603816D01*
X152184000Y-96436184D01*
X152216703Y-96271772D01*
X152280853Y-96116900D01*
X152373985Y-95977519D01*
X152492519Y-95858985D01*
X152631900Y-95765853D01*
X152786772Y-95701703D01*
X152951184Y-95669000D01*
X153118816Y-95669000D01*
X153283228Y-95701703D01*
G37*
G36*
X168523228Y-95701703D02*
G01*
X168678100Y-95765853D01*
X168817481Y-95858985D01*
X168936015Y-95977519D01*
X169029147Y-96116900D01*
X169093297Y-96271772D01*
X169126000Y-96436184D01*
X169126000Y-96603816D01*
X169093297Y-96768228D01*
X169029147Y-96923100D01*
X168936015Y-97062481D01*
X168817481Y-97181015D01*
X168678100Y-97274147D01*
X168523228Y-97338297D01*
X168358816Y-97371000D01*
X168191184Y-97371000D01*
X168026772Y-97338297D01*
X167871900Y-97274147D01*
X167732519Y-97181015D01*
X167613985Y-97062481D01*
X167520853Y-96923100D01*
X167456703Y-96768228D01*
X167424000Y-96603816D01*
X167424000Y-96436184D01*
X167456703Y-96271772D01*
X167520853Y-96116900D01*
X167613985Y-95977519D01*
X167732519Y-95858985D01*
X167871900Y-95765853D01*
X168026772Y-95701703D01*
X168191184Y-95669000D01*
X168358816Y-95669000D01*
X168523228Y-95701703D01*
G37*
G36*
X118358228Y-95701703D02*
G01*
X118513100Y-95765853D01*
X118652481Y-95858985D01*
X118771015Y-95977519D01*
X118864147Y-96116900D01*
X118928297Y-96271772D01*
X118961000Y-96436184D01*
X118961000Y-96603816D01*
X118928297Y-96768228D01*
X118864147Y-96923100D01*
X118771015Y-97062481D01*
X118652481Y-97181015D01*
X118513100Y-97274147D01*
X118358228Y-97338297D01*
X118193816Y-97371000D01*
X118026184Y-97371000D01*
X117861772Y-97338297D01*
X117706900Y-97274147D01*
X117567519Y-97181015D01*
X117448985Y-97062481D01*
X117355853Y-96923100D01*
X117291703Y-96768228D01*
X117259000Y-96603816D01*
X117259000Y-96436184D01*
X117291703Y-96271772D01*
X117355853Y-96116900D01*
X117448985Y-95977519D01*
X117567519Y-95858985D01*
X117706900Y-95765853D01*
X117861772Y-95701703D01*
X118026184Y-95669000D01*
X118193816Y-95669000D01*
X118358228Y-95701703D01*
G37*
G36*
X133598228Y-95701703D02*
G01*
X133753100Y-95765853D01*
X133892481Y-95858985D01*
X134011015Y-95977519D01*
X134104147Y-96116900D01*
X134168297Y-96271772D01*
X134201000Y-96436184D01*
X134201000Y-96603816D01*
X134168297Y-96768228D01*
X134104147Y-96923100D01*
X134011015Y-97062481D01*
X133892481Y-97181015D01*
X133753100Y-97274147D01*
X133598228Y-97338297D01*
X133433816Y-97371000D01*
X133266184Y-97371000D01*
X133101772Y-97338297D01*
X132946900Y-97274147D01*
X132807519Y-97181015D01*
X132688985Y-97062481D01*
X132595853Y-96923100D01*
X132531703Y-96768228D01*
X132499000Y-96603816D01*
X132499000Y-96436184D01*
X132531703Y-96271772D01*
X132595853Y-96116900D01*
X132688985Y-95977519D01*
X132807519Y-95858985D01*
X132946900Y-95765853D01*
X133101772Y-95701703D01*
X133266184Y-95669000D01*
X133433816Y-95669000D01*
X133598228Y-95701703D01*
G37*
G36*
X160041999Y-95211737D02*
G01*
X160056528Y-95216145D01*
X160069711Y-95221606D01*
X160093745Y-95226388D01*
X160118249Y-95226389D01*
X160142282Y-95221609D01*
X160164921Y-95212232D01*
X160166765Y-95211000D01*
X161398050Y-95211000D01*
X161410164Y-95217475D01*
X161433613Y-95224588D01*
X161457999Y-95226990D01*
X161482385Y-95224588D01*
X161505834Y-95217475D01*
X161510746Y-95215152D01*
X161522001Y-95211737D01*
X161538140Y-95210148D01*
X162075861Y-95210148D01*
X162094199Y-95211954D01*
X162106450Y-95212556D01*
X162124869Y-95212556D01*
X162147149Y-95214750D01*
X162231233Y-95231476D01*
X162252660Y-95237976D01*
X162331858Y-95270780D01*
X162337303Y-95273691D01*
X162337309Y-95273693D01*
X162346169Y-95278429D01*
X162346173Y-95278432D01*
X162351614Y-95281340D01*
X162422899Y-95328971D01*
X162440204Y-95343172D01*
X162500828Y-95403796D01*
X162515029Y-95421101D01*
X162562660Y-95492386D01*
X162565568Y-95497827D01*
X162565571Y-95497831D01*
X162570307Y-95506691D01*
X162570309Y-95506697D01*
X162573220Y-95512142D01*
X162606024Y-95591340D01*
X162612524Y-95612767D01*
X162629250Y-95696851D01*
X162631444Y-95719131D01*
X162631444Y-95737550D01*
X162632046Y-95749801D01*
X162633852Y-95768139D01*
X162633852Y-96255862D01*
X162632046Y-96274199D01*
X162631444Y-96286450D01*
X162631444Y-96304869D01*
X162629250Y-96327149D01*
X162612524Y-96411233D01*
X162606024Y-96432660D01*
X162573220Y-96511858D01*
X162570309Y-96517303D01*
X162570307Y-96517309D01*
X162565571Y-96526169D01*
X162565568Y-96526173D01*
X162562660Y-96531614D01*
X162515029Y-96602899D01*
X162500828Y-96620204D01*
X162440204Y-96680828D01*
X162422899Y-96695029D01*
X162351614Y-96742660D01*
X162346173Y-96745568D01*
X162346169Y-96745571D01*
X162337309Y-96750307D01*
X162337303Y-96750309D01*
X162331858Y-96753220D01*
X162252660Y-96786024D01*
X162231233Y-96792524D01*
X162147149Y-96809250D01*
X162124869Y-96811444D01*
X162106450Y-96811444D01*
X162094199Y-96812046D01*
X162075862Y-96813852D01*
X161538140Y-96813852D01*
X161522001Y-96812263D01*
X161507472Y-96807855D01*
X161494289Y-96802394D01*
X161470255Y-96797612D01*
X161445751Y-96797611D01*
X161421718Y-96802391D01*
X161399079Y-96811768D01*
X161397235Y-96813000D01*
X160165950Y-96813000D01*
X160153836Y-96806525D01*
X160130387Y-96799412D01*
X160106001Y-96797010D01*
X160081615Y-96799412D01*
X160058166Y-96806525D01*
X160053254Y-96808848D01*
X160041999Y-96812263D01*
X160025860Y-96813852D01*
X159488138Y-96813852D01*
X159469801Y-96812046D01*
X159457550Y-96811444D01*
X159439131Y-96811444D01*
X159416851Y-96809250D01*
X159332767Y-96792524D01*
X159311340Y-96786024D01*
X159232142Y-96753220D01*
X159226697Y-96750309D01*
X159226691Y-96750307D01*
X159217831Y-96745571D01*
X159217827Y-96745568D01*
X159212386Y-96742660D01*
X159141101Y-96695029D01*
X159123796Y-96680828D01*
X159063172Y-96620204D01*
X159048971Y-96602899D01*
X159001340Y-96531614D01*
X158998432Y-96526173D01*
X158998429Y-96526169D01*
X158993693Y-96517309D01*
X158993691Y-96517303D01*
X158990780Y-96511858D01*
X158957976Y-96432660D01*
X158951476Y-96411233D01*
X158934750Y-96327149D01*
X158932556Y-96304869D01*
X158932556Y-96286450D01*
X158931954Y-96274199D01*
X158930148Y-96255862D01*
X158930148Y-95768139D01*
X158931954Y-95749801D01*
X158932556Y-95737550D01*
X158932556Y-95719131D01*
X158934750Y-95696851D01*
X158951476Y-95612767D01*
X158957976Y-95591340D01*
X158990780Y-95512142D01*
X158993691Y-95506697D01*
X158993693Y-95506691D01*
X158998429Y-95497831D01*
X158998432Y-95497827D01*
X159001340Y-95492386D01*
X159048971Y-95421101D01*
X159063172Y-95403796D01*
X159123796Y-95343172D01*
X159141101Y-95328971D01*
X159212386Y-95281340D01*
X159217827Y-95278432D01*
X159217831Y-95278429D01*
X159226691Y-95273693D01*
X159226697Y-95273691D01*
X159232142Y-95270780D01*
X159311340Y-95237976D01*
X159332767Y-95231476D01*
X159416851Y-95214750D01*
X159439131Y-95212556D01*
X159457550Y-95212556D01*
X159469801Y-95211954D01*
X159488139Y-95210148D01*
X160025860Y-95210148D01*
X160041999Y-95211737D01*
G37*
G36*
X118358228Y-93161703D02*
G01*
X118513100Y-93225853D01*
X118652481Y-93318985D01*
X118771015Y-93437519D01*
X118864147Y-93576900D01*
X118928297Y-93731772D01*
X118961000Y-93896184D01*
X118961000Y-94063816D01*
X118928297Y-94228228D01*
X118864147Y-94383100D01*
X118771015Y-94522481D01*
X118652481Y-94641015D01*
X118513100Y-94734147D01*
X118358228Y-94798297D01*
X118193816Y-94831000D01*
X118026184Y-94831000D01*
X117861772Y-94798297D01*
X117706900Y-94734147D01*
X117567519Y-94641015D01*
X117448985Y-94522481D01*
X117355853Y-94383100D01*
X117291703Y-94228228D01*
X117259000Y-94063816D01*
X117259000Y-93896184D01*
X117291703Y-93731772D01*
X117355853Y-93576900D01*
X117448985Y-93437519D01*
X117567519Y-93318985D01*
X117706900Y-93225853D01*
X117861772Y-93161703D01*
X118026184Y-93129000D01*
X118193816Y-93129000D01*
X118358228Y-93161703D01*
G37*
G36*
X168523228Y-93161703D02*
G01*
X168678100Y-93225853D01*
X168817481Y-93318985D01*
X168936015Y-93437519D01*
X169029147Y-93576900D01*
X169093297Y-93731772D01*
X169126000Y-93896184D01*
X169126000Y-94063816D01*
X169093297Y-94228228D01*
X169029147Y-94383100D01*
X168936015Y-94522481D01*
X168817481Y-94641015D01*
X168678100Y-94734147D01*
X168523228Y-94798297D01*
X168358816Y-94831000D01*
X168191184Y-94831000D01*
X168026772Y-94798297D01*
X167871900Y-94734147D01*
X167732519Y-94641015D01*
X167613985Y-94522481D01*
X167520853Y-94383100D01*
X167456703Y-94228228D01*
X167424000Y-94063816D01*
X167424000Y-93896184D01*
X167456703Y-93731772D01*
X167520853Y-93576900D01*
X167613985Y-93437519D01*
X167732519Y-93318985D01*
X167871900Y-93225853D01*
X168026772Y-93161703D01*
X168191184Y-93129000D01*
X168358816Y-93129000D01*
X168523228Y-93161703D01*
G37*
G36*
X153283228Y-93161703D02*
G01*
X153438100Y-93225853D01*
X153577481Y-93318985D01*
X153696015Y-93437519D01*
X153789147Y-93576900D01*
X153853297Y-93731772D01*
X153886000Y-93896184D01*
X153886000Y-94063816D01*
X153853297Y-94228228D01*
X153789147Y-94383100D01*
X153696015Y-94522481D01*
X153577481Y-94641015D01*
X153438100Y-94734147D01*
X153283228Y-94798297D01*
X153118816Y-94831000D01*
X152951184Y-94831000D01*
X152786772Y-94798297D01*
X152631900Y-94734147D01*
X152492519Y-94641015D01*
X152373985Y-94522481D01*
X152280853Y-94383100D01*
X152216703Y-94228228D01*
X152184000Y-94063816D01*
X152184000Y-93896184D01*
X152216703Y-93731772D01*
X152280853Y-93576900D01*
X152373985Y-93437519D01*
X152492519Y-93318985D01*
X152631900Y-93225853D01*
X152786772Y-93161703D01*
X152951184Y-93129000D01*
X153118816Y-93129000D01*
X153283228Y-93161703D01*
G37*
G36*
X133598228Y-93161703D02*
G01*
X133753100Y-93225853D01*
X133892481Y-93318985D01*
X134011015Y-93437519D01*
X134104147Y-93576900D01*
X134168297Y-93731772D01*
X134201000Y-93896184D01*
X134201000Y-94063816D01*
X134168297Y-94228228D01*
X134104147Y-94383100D01*
X134011015Y-94522481D01*
X133892481Y-94641015D01*
X133753100Y-94734147D01*
X133598228Y-94798297D01*
X133433816Y-94831000D01*
X133266184Y-94831000D01*
X133101772Y-94798297D01*
X132946900Y-94734147D01*
X132807519Y-94641015D01*
X132688985Y-94522481D01*
X132595853Y-94383100D01*
X132531703Y-94228228D01*
X132499000Y-94063816D01*
X132499000Y-93896184D01*
X132531703Y-93731772D01*
X132595853Y-93576900D01*
X132688985Y-93437519D01*
X132807519Y-93318985D01*
X132946900Y-93225853D01*
X133101772Y-93161703D01*
X133266184Y-93129000D01*
X133433816Y-93129000D01*
X133598228Y-93161703D01*
G37*
G36*
X141853228Y-91216703D02*
G01*
X142008100Y-91280853D01*
X142147481Y-91373985D01*
X142266015Y-91492519D01*
X142359147Y-91631900D01*
X142423297Y-91786772D01*
X142456000Y-91951184D01*
X142456000Y-92118816D01*
X142423297Y-92283228D01*
X142359147Y-92438100D01*
X142266015Y-92577481D01*
X142147481Y-92696015D01*
X142008100Y-92789147D01*
X141853228Y-92853297D01*
X141688816Y-92886000D01*
X141521184Y-92886000D01*
X141356772Y-92853297D01*
X141201900Y-92789147D01*
X141062519Y-92696015D01*
X140943985Y-92577481D01*
X140850853Y-92438100D01*
X140786703Y-92283228D01*
X140754000Y-92118816D01*
X140754000Y-91951184D01*
X140786703Y-91786772D01*
X140850853Y-91631900D01*
X140943985Y-91492519D01*
X141062519Y-91373985D01*
X141201900Y-91280853D01*
X141356772Y-91216703D01*
X141521184Y-91184000D01*
X141688816Y-91184000D01*
X141853228Y-91216703D01*
G37*
G36*
X160041999Y-90766737D02*
G01*
X160056528Y-90771145D01*
X160069711Y-90776606D01*
X160093745Y-90781388D01*
X160118249Y-90781389D01*
X160142282Y-90776609D01*
X160164921Y-90767232D01*
X160166765Y-90766000D01*
X161398050Y-90766000D01*
X161410164Y-90772475D01*
X161433613Y-90779588D01*
X161457999Y-90781990D01*
X161482385Y-90779588D01*
X161505834Y-90772475D01*
X161510746Y-90770152D01*
X161522001Y-90766737D01*
X161538140Y-90765148D01*
X162075861Y-90765148D01*
X162094199Y-90766954D01*
X162106450Y-90767556D01*
X162124869Y-90767556D01*
X162147149Y-90769750D01*
X162231233Y-90786476D01*
X162252660Y-90792976D01*
X162331858Y-90825780D01*
X162337303Y-90828691D01*
X162337309Y-90828693D01*
X162346169Y-90833429D01*
X162346173Y-90833432D01*
X162351614Y-90836340D01*
X162422899Y-90883971D01*
X162440204Y-90898172D01*
X162500828Y-90958796D01*
X162515029Y-90976101D01*
X162562660Y-91047386D01*
X162565568Y-91052827D01*
X162565571Y-91052831D01*
X162570307Y-91061691D01*
X162570309Y-91061697D01*
X162573220Y-91067142D01*
X162606024Y-91146340D01*
X162612524Y-91167767D01*
X162629250Y-91251851D01*
X162631444Y-91274131D01*
X162631444Y-91292550D01*
X162632046Y-91304801D01*
X162633852Y-91323139D01*
X162633852Y-91810862D01*
X162632046Y-91829199D01*
X162631444Y-91841450D01*
X162631444Y-91859869D01*
X162629250Y-91882149D01*
X162612524Y-91966233D01*
X162606024Y-91987660D01*
X162573220Y-92066858D01*
X162570309Y-92072303D01*
X162570307Y-92072309D01*
X162565571Y-92081169D01*
X162565568Y-92081173D01*
X162562660Y-92086614D01*
X162515029Y-92157899D01*
X162500828Y-92175204D01*
X162440204Y-92235828D01*
X162422899Y-92250029D01*
X162351614Y-92297660D01*
X162346173Y-92300568D01*
X162346169Y-92300571D01*
X162337309Y-92305307D01*
X162337303Y-92305309D01*
X162331858Y-92308220D01*
X162252660Y-92341024D01*
X162231233Y-92347524D01*
X162147149Y-92364250D01*
X162124869Y-92366444D01*
X162106450Y-92366444D01*
X162094199Y-92367046D01*
X162075862Y-92368852D01*
X161538140Y-92368852D01*
X161522001Y-92367263D01*
X161507472Y-92362855D01*
X161494289Y-92357394D01*
X161470255Y-92352612D01*
X161445751Y-92352611D01*
X161421718Y-92357391D01*
X161399079Y-92366768D01*
X161397235Y-92368000D01*
X160165950Y-92368000D01*
X160153836Y-92361525D01*
X160130387Y-92354412D01*
X160106001Y-92352010D01*
X160081615Y-92354412D01*
X160058166Y-92361525D01*
X160053254Y-92363848D01*
X160041999Y-92367263D01*
X160025860Y-92368852D01*
X159488138Y-92368852D01*
X159469801Y-92367046D01*
X159457550Y-92366444D01*
X159439131Y-92366444D01*
X159416851Y-92364250D01*
X159332767Y-92347524D01*
X159311340Y-92341024D01*
X159232142Y-92308220D01*
X159226697Y-92305309D01*
X159226691Y-92305307D01*
X159217831Y-92300571D01*
X159217827Y-92300568D01*
X159212386Y-92297660D01*
X159141101Y-92250029D01*
X159123796Y-92235828D01*
X159063172Y-92175204D01*
X159048971Y-92157899D01*
X159001340Y-92086614D01*
X158998432Y-92081173D01*
X158998429Y-92081169D01*
X158993693Y-92072309D01*
X158993691Y-92072303D01*
X158990780Y-92066858D01*
X158957976Y-91987660D01*
X158951476Y-91966233D01*
X158934750Y-91882149D01*
X158932556Y-91859869D01*
X158932556Y-91841450D01*
X158931954Y-91829199D01*
X158930148Y-91810862D01*
X158930148Y-91323139D01*
X158931954Y-91304801D01*
X158932556Y-91292550D01*
X158932556Y-91274131D01*
X158934750Y-91251851D01*
X158951476Y-91167767D01*
X158957976Y-91146340D01*
X158990780Y-91067142D01*
X158993691Y-91061697D01*
X158993693Y-91061691D01*
X158998429Y-91052831D01*
X158998432Y-91052827D01*
X159001340Y-91047386D01*
X159048971Y-90976101D01*
X159063172Y-90958796D01*
X159123796Y-90898172D01*
X159141101Y-90883971D01*
X159212386Y-90836340D01*
X159217827Y-90833432D01*
X159217831Y-90833429D01*
X159226691Y-90828693D01*
X159226697Y-90828691D01*
X159232142Y-90825780D01*
X159311340Y-90792976D01*
X159332767Y-90786476D01*
X159416851Y-90769750D01*
X159439131Y-90767556D01*
X159457550Y-90767556D01*
X159469801Y-90766954D01*
X159488139Y-90765148D01*
X160025860Y-90765148D01*
X160041999Y-90766737D01*
G37*
G36*
X168523228Y-90621703D02*
G01*
X168678100Y-90685853D01*
X168817481Y-90778985D01*
X168936015Y-90897519D01*
X169029147Y-91036900D01*
X169093297Y-91191772D01*
X169126000Y-91356184D01*
X169126000Y-91523816D01*
X169093297Y-91688228D01*
X169029147Y-91843100D01*
X168936015Y-91982481D01*
X168817481Y-92101015D01*
X168678100Y-92194147D01*
X168523228Y-92258297D01*
X168358816Y-92291000D01*
X168191184Y-92291000D01*
X168026772Y-92258297D01*
X167871900Y-92194147D01*
X167732519Y-92101015D01*
X167613985Y-91982481D01*
X167520853Y-91843100D01*
X167456703Y-91688228D01*
X167424000Y-91523816D01*
X167424000Y-91356184D01*
X167456703Y-91191772D01*
X167520853Y-91036900D01*
X167613985Y-90897519D01*
X167732519Y-90778985D01*
X167871900Y-90685853D01*
X168026772Y-90621703D01*
X168191184Y-90589000D01*
X168358816Y-90589000D01*
X168523228Y-90621703D01*
G37*
G36*
X153283228Y-90621703D02*
G01*
X153438100Y-90685853D01*
X153577481Y-90778985D01*
X153696015Y-90897519D01*
X153789147Y-91036900D01*
X153853297Y-91191772D01*
X153886000Y-91356184D01*
X153886000Y-91523816D01*
X153853297Y-91688228D01*
X153789147Y-91843100D01*
X153696015Y-91982481D01*
X153577481Y-92101015D01*
X153438100Y-92194147D01*
X153283228Y-92258297D01*
X153118816Y-92291000D01*
X152951184Y-92291000D01*
X152786772Y-92258297D01*
X152631900Y-92194147D01*
X152492519Y-92101015D01*
X152373985Y-91982481D01*
X152280853Y-91843100D01*
X152216703Y-91688228D01*
X152184000Y-91523816D01*
X152184000Y-91356184D01*
X152216703Y-91191772D01*
X152280853Y-91036900D01*
X152373985Y-90897519D01*
X152492519Y-90778985D01*
X152631900Y-90685853D01*
X152786772Y-90621703D01*
X152951184Y-90589000D01*
X153118816Y-90589000D01*
X153283228Y-90621703D01*
G37*
G36*
X134853642Y-90034781D02*
G01*
X134999414Y-90095162D01*
X134999416Y-90095163D01*
X135130608Y-90182822D01*
X135242178Y-90294392D01*
X135303388Y-90386000D01*
X135329838Y-90425586D01*
X135390219Y-90571358D01*
X135421000Y-90726107D01*
X135421000Y-90883893D01*
X135390219Y-91038642D01*
X135345609Y-91146340D01*
X135329837Y-91184416D01*
X135242178Y-91315608D01*
X135130608Y-91427178D01*
X134999416Y-91514837D01*
X134999415Y-91514838D01*
X134999414Y-91514838D01*
X134853642Y-91575219D01*
X134698893Y-91606000D01*
X134541107Y-91606000D01*
X134386358Y-91575219D01*
X134240586Y-91514838D01*
X134240585Y-91514838D01*
X134240584Y-91514837D01*
X134109392Y-91427178D01*
X133997822Y-91315608D01*
X133910163Y-91184416D01*
X133894391Y-91146340D01*
X133849781Y-91038642D01*
X133819000Y-90883893D01*
X133819000Y-90726107D01*
X133849781Y-90571358D01*
X133910162Y-90425586D01*
X133936612Y-90386000D01*
X133997822Y-90294392D01*
X134109392Y-90182822D01*
X134240584Y-90095163D01*
X134240586Y-90095162D01*
X134386358Y-90034781D01*
X134541107Y-90004000D01*
X134698893Y-90004000D01*
X134853642Y-90034781D01*
G37*
G36*
X125551564Y-89214389D02*
G01*
X125742833Y-89293615D01*
X125742835Y-89293616D01*
X125914973Y-89408635D01*
X126061365Y-89555027D01*
X126170459Y-89718297D01*
X126176385Y-89727167D01*
X126255611Y-89918436D01*
X126296000Y-90121484D01*
X126296000Y-90328516D01*
X126255611Y-90531564D01*
X126176385Y-90722833D01*
X126176384Y-90722835D01*
X126061365Y-90894973D01*
X125914973Y-91041365D01*
X125742835Y-91156384D01*
X125742834Y-91156385D01*
X125742833Y-91156385D01*
X125551564Y-91235611D01*
X125348516Y-91276000D01*
X125141484Y-91276000D01*
X124938436Y-91235611D01*
X124747167Y-91156385D01*
X124747166Y-91156385D01*
X124747165Y-91156384D01*
X124575027Y-91041365D01*
X124428635Y-90894973D01*
X124313616Y-90722835D01*
X124313615Y-90722833D01*
X124234389Y-90531564D01*
X124194000Y-90328516D01*
X124194000Y-90121484D01*
X124234389Y-89918436D01*
X124313615Y-89727167D01*
X124319542Y-89718297D01*
X124428635Y-89555027D01*
X124575027Y-89408635D01*
X124747165Y-89293616D01*
X124747167Y-89293615D01*
X124938436Y-89214389D01*
X125141484Y-89174000D01*
X125348516Y-89174000D01*
X125551564Y-89214389D01*
G37*
G36*
X119051564Y-89214389D02*
G01*
X119242833Y-89293615D01*
X119242835Y-89293616D01*
X119414973Y-89408635D01*
X119561365Y-89555027D01*
X119670459Y-89718297D01*
X119676385Y-89727167D01*
X119755611Y-89918436D01*
X119796000Y-90121484D01*
X119796000Y-90328516D01*
X119755611Y-90531564D01*
X119676385Y-90722833D01*
X119676384Y-90722835D01*
X119561365Y-90894973D01*
X119414973Y-91041365D01*
X119242835Y-91156384D01*
X119242834Y-91156385D01*
X119242833Y-91156385D01*
X119051564Y-91235611D01*
X118848516Y-91276000D01*
X118641484Y-91276000D01*
X118438436Y-91235611D01*
X118247167Y-91156385D01*
X118247166Y-91156385D01*
X118247165Y-91156384D01*
X118075027Y-91041365D01*
X117928635Y-90894973D01*
X117813616Y-90722835D01*
X117813615Y-90722833D01*
X117734389Y-90531564D01*
X117694000Y-90328516D01*
X117694000Y-90121484D01*
X117734389Y-89918436D01*
X117813615Y-89727167D01*
X117819542Y-89718297D01*
X117928635Y-89555027D01*
X118075027Y-89408635D01*
X118247165Y-89293616D01*
X118247167Y-89293615D01*
X118438436Y-89214389D01*
X118641484Y-89174000D01*
X118848516Y-89174000D01*
X119051564Y-89214389D01*
G37*
G36*
X142456000Y-90386000D02*
G01*
X140754000Y-90386000D01*
X140754000Y-88684000D01*
X142456000Y-88684000D01*
X142456000Y-90386000D01*
G37*
G36*
X168523228Y-88081703D02*
G01*
X168678100Y-88145853D01*
X168817481Y-88238985D01*
X168936015Y-88357519D01*
X169029147Y-88496900D01*
X169093297Y-88651772D01*
X169126000Y-88816184D01*
X169126000Y-88983816D01*
X169093297Y-89148228D01*
X169029147Y-89303100D01*
X168936015Y-89442481D01*
X168817481Y-89561015D01*
X168678100Y-89654147D01*
X168523228Y-89718297D01*
X168358816Y-89751000D01*
X168191184Y-89751000D01*
X168026772Y-89718297D01*
X167871900Y-89654147D01*
X167732519Y-89561015D01*
X167613985Y-89442481D01*
X167520853Y-89303100D01*
X167456703Y-89148228D01*
X167424000Y-88983816D01*
X167424000Y-88816184D01*
X167456703Y-88651772D01*
X167520853Y-88496900D01*
X167613985Y-88357519D01*
X167732519Y-88238985D01*
X167871900Y-88145853D01*
X168026772Y-88081703D01*
X168191184Y-88049000D01*
X168358816Y-88049000D01*
X168523228Y-88081703D01*
G37*
G36*
X153283228Y-88081703D02*
G01*
X153438100Y-88145853D01*
X153577481Y-88238985D01*
X153696015Y-88357519D01*
X153789147Y-88496900D01*
X153853297Y-88651772D01*
X153886000Y-88816184D01*
X153886000Y-88983816D01*
X153853297Y-89148228D01*
X153789147Y-89303100D01*
X153696015Y-89442481D01*
X153577481Y-89561015D01*
X153438100Y-89654147D01*
X153283228Y-89718297D01*
X153118816Y-89751000D01*
X152951184Y-89751000D01*
X152786772Y-89718297D01*
X152631900Y-89654147D01*
X152492519Y-89561015D01*
X152373985Y-89442481D01*
X152280853Y-89303100D01*
X152216703Y-89148228D01*
X152184000Y-88983816D01*
X152184000Y-88816184D01*
X152216703Y-88651772D01*
X152280853Y-88496900D01*
X152373985Y-88357519D01*
X152492519Y-88238985D01*
X152631900Y-88145853D01*
X152786772Y-88081703D01*
X152951184Y-88049000D01*
X153118816Y-88049000D01*
X153283228Y-88081703D01*
G37*
G36*
X119051564Y-84714389D02*
G01*
X119242833Y-84793615D01*
X119242835Y-84793616D01*
X119414973Y-84908635D01*
X119561365Y-85055027D01*
X119676385Y-85227167D01*
X119755611Y-85418436D01*
X119796000Y-85621484D01*
X119796000Y-85828516D01*
X119755611Y-86031564D01*
X119676385Y-86222833D01*
X119676384Y-86222835D01*
X119561365Y-86394973D01*
X119414973Y-86541365D01*
X119242835Y-86656384D01*
X119242834Y-86656385D01*
X119242833Y-86656385D01*
X119051564Y-86735611D01*
X118848516Y-86776000D01*
X118641484Y-86776000D01*
X118438436Y-86735611D01*
X118247167Y-86656385D01*
X118247166Y-86656385D01*
X118247165Y-86656384D01*
X118075027Y-86541365D01*
X117928635Y-86394973D01*
X117813616Y-86222835D01*
X117813615Y-86222833D01*
X117734389Y-86031564D01*
X117694000Y-85828516D01*
X117694000Y-85621484D01*
X117734389Y-85418436D01*
X117813615Y-85227167D01*
X117928635Y-85055027D01*
X118075027Y-84908635D01*
X118247165Y-84793616D01*
X118247167Y-84793615D01*
X118438436Y-84714389D01*
X118641484Y-84674000D01*
X118848516Y-84674000D01*
X119051564Y-84714389D01*
G37*
G36*
X125551564Y-84714389D02*
G01*
X125742833Y-84793615D01*
X125742835Y-84793616D01*
X125914973Y-84908635D01*
X126061365Y-85055027D01*
X126176385Y-85227167D01*
X126255611Y-85418436D01*
X126296000Y-85621484D01*
X126296000Y-85828516D01*
X126255611Y-86031564D01*
X126176385Y-86222833D01*
X126176384Y-86222835D01*
X126061365Y-86394973D01*
X125914973Y-86541365D01*
X125742835Y-86656384D01*
X125742834Y-86656385D01*
X125742833Y-86656385D01*
X125551564Y-86735611D01*
X125348516Y-86776000D01*
X125141484Y-86776000D01*
X124938436Y-86735611D01*
X124747167Y-86656385D01*
X124747166Y-86656385D01*
X124747165Y-86656384D01*
X124575027Y-86541365D01*
X124428635Y-86394973D01*
X124313616Y-86222835D01*
X124313615Y-86222833D01*
X124234389Y-86031564D01*
X124194000Y-85828516D01*
X124194000Y-85621484D01*
X124234389Y-85418436D01*
X124313615Y-85227167D01*
X124428635Y-85055027D01*
X124575027Y-84908635D01*
X124747165Y-84793616D01*
X124747167Y-84793615D01*
X124938436Y-84714389D01*
X125141484Y-84674000D01*
X125348516Y-84674000D01*
X125551564Y-84714389D01*
G37*
G36*
X161556000Y-85991000D02*
G01*
X159754000Y-85991000D01*
X159754000Y-84189000D01*
X161556000Y-84189000D01*
X161556000Y-85991000D01*
G37*
G36*
X158228512Y-84193927D02*
G01*
X158377812Y-84223624D01*
X158541784Y-84291544D01*
X158689354Y-84390147D01*
X158814853Y-84515646D01*
X158913456Y-84663216D01*
X158981376Y-84827188D01*
X159016000Y-85001259D01*
X159016000Y-85178741D01*
X158981376Y-85352812D01*
X158913456Y-85516784D01*
X158814853Y-85664354D01*
X158689354Y-85789853D01*
X158541784Y-85888456D01*
X158377812Y-85956376D01*
X158228512Y-85986073D01*
X158203742Y-85991000D01*
X158026258Y-85991000D01*
X158001488Y-85986073D01*
X157852188Y-85956376D01*
X157688216Y-85888456D01*
X157540646Y-85789853D01*
X157415147Y-85664354D01*
X157316544Y-85516784D01*
X157248624Y-85352812D01*
X157214000Y-85178741D01*
X157214000Y-85001259D01*
X157248624Y-84827188D01*
X157316544Y-84663216D01*
X157415147Y-84515646D01*
X157540646Y-84390147D01*
X157688216Y-84291544D01*
X157852188Y-84223624D01*
X158001488Y-84193927D01*
X158026258Y-84189000D01*
X158203742Y-84189000D01*
X158228512Y-84193927D01*
G37*
G36*
X155688512Y-84193927D02*
G01*
X155837812Y-84223624D01*
X156001784Y-84291544D01*
X156149354Y-84390147D01*
X156274853Y-84515646D01*
X156373456Y-84663216D01*
X156441376Y-84827188D01*
X156476000Y-85001259D01*
X156476000Y-85178741D01*
X156441376Y-85352812D01*
X156373456Y-85516784D01*
X156274853Y-85664354D01*
X156149354Y-85789853D01*
X156001784Y-85888456D01*
X155837812Y-85956376D01*
X155688512Y-85986073D01*
X155663742Y-85991000D01*
X155486258Y-85991000D01*
X155461488Y-85986073D01*
X155312188Y-85956376D01*
X155148216Y-85888456D01*
X155000646Y-85789853D01*
X154875147Y-85664354D01*
X154776544Y-85516784D01*
X154708624Y-85352812D01*
X154674000Y-85178741D01*
X154674000Y-85001259D01*
X154708624Y-84827188D01*
X154776544Y-84663216D01*
X154875147Y-84515646D01*
X155000646Y-84390147D01*
X155148216Y-84291544D01*
X155312188Y-84223624D01*
X155461488Y-84193927D01*
X155486258Y-84189000D01*
X155663742Y-84189000D01*
X155688512Y-84193927D01*
G37*
G36*
X153148512Y-84193927D02*
G01*
X153297812Y-84223624D01*
X153461784Y-84291544D01*
X153609354Y-84390147D01*
X153734853Y-84515646D01*
X153833456Y-84663216D01*
X153901376Y-84827188D01*
X153936000Y-85001259D01*
X153936000Y-85178741D01*
X153901376Y-85352812D01*
X153833456Y-85516784D01*
X153734853Y-85664354D01*
X153609354Y-85789853D01*
X153461784Y-85888456D01*
X153297812Y-85956376D01*
X153148512Y-85986073D01*
X153123742Y-85991000D01*
X152946258Y-85991000D01*
X152921488Y-85986073D01*
X152772188Y-85956376D01*
X152608216Y-85888456D01*
X152460646Y-85789853D01*
X152335147Y-85664354D01*
X152236544Y-85516784D01*
X152168624Y-85352812D01*
X152134000Y-85178741D01*
X152134000Y-85001259D01*
X152168624Y-84827188D01*
X152236544Y-84663216D01*
X152335147Y-84515646D01*
X152460646Y-84390147D01*
X152608216Y-84291544D01*
X152772188Y-84223624D01*
X152921488Y-84193927D01*
X152946258Y-84189000D01*
X153123742Y-84189000D01*
X153148512Y-84193927D01*
G37*
G36*
X142456000Y-85941000D02*
G01*
X140754000Y-85941000D01*
X140754000Y-84239000D01*
X142456000Y-84239000D01*
X142456000Y-85941000D01*
G37*
G36*
X135421000Y-83986000D02*
G01*
X133819000Y-83986000D01*
X133819000Y-82384000D01*
X135421000Y-82384000D01*
X135421000Y-83986000D01*
G37*
G36*
X141853228Y-81771703D02*
G01*
X142008100Y-81835853D01*
X142147481Y-81928985D01*
X142266015Y-82047519D01*
X142359147Y-82186900D01*
X142423297Y-82341772D01*
X142456000Y-82506184D01*
X142456000Y-82673816D01*
X142423297Y-82838228D01*
X142359147Y-82993100D01*
X142266015Y-83132481D01*
X142147481Y-83251015D01*
X142008100Y-83344147D01*
X141853228Y-83408297D01*
X141688816Y-83441000D01*
X141521184Y-83441000D01*
X141356772Y-83408297D01*
X141201900Y-83344147D01*
X141062519Y-83251015D01*
X140943985Y-83132481D01*
X140850853Y-82993100D01*
X140786703Y-82838228D01*
X140754000Y-82673816D01*
X140754000Y-82506184D01*
X140786703Y-82341772D01*
X140850853Y-82186900D01*
X140943985Y-82047519D01*
X141062519Y-81928985D01*
X141201900Y-81835853D01*
X141356772Y-81771703D01*
X141521184Y-81739000D01*
X141688816Y-81739000D01*
X141853228Y-81771703D01*
G37*
M02*
