G04 #@! TF.GenerationSoftware,KiCad,Pcbnew,(5.1.5)-3*
G04 #@! TF.CreationDate,2020-10-02T02:33:27-04:00*
G04 #@! TF.ProjectId,commodore-326173-01,636f6d6d-6f64-46f7-9265-2d3332363137,rev?*
G04 #@! TF.SameCoordinates,Original*
G04 #@! TF.FileFunction,Legend,Bot*
G04 #@! TF.FilePolarity,Positive*
%FSLAX46Y46*%
G04 Gerber Fmt 4.6, Leading zero omitted, Abs format (unit mm)*
G04 Created by KiCad (PCBNEW (5.1.5)-3) date 2020-10-02 02:33:27*
%MOMM*%
%LPD*%
G04 APERTURE LIST*
%ADD10C,0.250000*%
%ADD11C,0.500000*%
%ADD12C,0.120000*%
%ADD13C,0.150000*%
G04 APERTURE END LIST*
D10*
X154670238Y-99441428D02*
X154575000Y-99536666D01*
X154479761Y-99727142D01*
X154479761Y-100203333D01*
X154575000Y-100393809D01*
X154670238Y-100489047D01*
X154860714Y-100584285D01*
X155051190Y-100584285D01*
X155336904Y-100489047D01*
X156479761Y-99346190D01*
X156479761Y-100584285D01*
X154479761Y-101250952D02*
X154479761Y-102489047D01*
X155241666Y-101822380D01*
X155241666Y-102108095D01*
X155336904Y-102298571D01*
X155432142Y-102393809D01*
X155622619Y-102489047D01*
X156098809Y-102489047D01*
X156289285Y-102393809D01*
X156384523Y-102298571D01*
X156479761Y-102108095D01*
X156479761Y-101536666D01*
X156384523Y-101346190D01*
X156289285Y-101250952D01*
X154479761Y-104203333D02*
X154479761Y-103822380D01*
X154575000Y-103631904D01*
X154670238Y-103536666D01*
X154955952Y-103346190D01*
X155336904Y-103250952D01*
X156098809Y-103250952D01*
X156289285Y-103346190D01*
X156384523Y-103441428D01*
X156479761Y-103631904D01*
X156479761Y-104012857D01*
X156384523Y-104203333D01*
X156289285Y-104298571D01*
X156098809Y-104393809D01*
X155622619Y-104393809D01*
X155432142Y-104298571D01*
X155336904Y-104203333D01*
X155241666Y-104012857D01*
X155241666Y-103631904D01*
X155336904Y-103441428D01*
X155432142Y-103346190D01*
X155622619Y-103250952D01*
X155146428Y-106108095D02*
X156479761Y-106108095D01*
X154384523Y-105631904D02*
X155813095Y-105155714D01*
X155813095Y-106393809D01*
X166639761Y-107250952D02*
X166735000Y-107155714D01*
X166830238Y-106965238D01*
X166830238Y-106489047D01*
X166735000Y-106298571D01*
X166639761Y-106203333D01*
X166449285Y-106108095D01*
X166258809Y-106108095D01*
X165973095Y-106203333D01*
X164830238Y-107346190D01*
X164830238Y-106108095D01*
X166830238Y-105441428D02*
X166830238Y-104108095D01*
X164830238Y-104965238D01*
X166830238Y-102393809D02*
X166830238Y-103346190D01*
X165877857Y-103441428D01*
X165973095Y-103346190D01*
X166068333Y-103155714D01*
X166068333Y-102679523D01*
X165973095Y-102489047D01*
X165877857Y-102393809D01*
X165687380Y-102298571D01*
X165211190Y-102298571D01*
X165020714Y-102393809D01*
X164925476Y-102489047D01*
X164830238Y-102679523D01*
X164830238Y-103155714D01*
X164925476Y-103346190D01*
X165020714Y-103441428D01*
X164830238Y-100393809D02*
X164830238Y-101536666D01*
X164830238Y-100965238D02*
X166830238Y-100965238D01*
X166544523Y-101155714D01*
X166354047Y-101346190D01*
X166258809Y-101536666D01*
X166639761Y-99631904D02*
X166735000Y-99536666D01*
X166830238Y-99346190D01*
X166830238Y-98870000D01*
X166735000Y-98679523D01*
X166639761Y-98584285D01*
X166449285Y-98489047D01*
X166258809Y-98489047D01*
X165973095Y-98584285D01*
X164830238Y-99727142D01*
X164830238Y-98489047D01*
D11*
X165097142Y-138457952D02*
X165097142Y-140243666D01*
X165382857Y-140600809D01*
X165954285Y-140838904D01*
X166811428Y-140957952D01*
X167382857Y-140957952D01*
X162525714Y-140243666D02*
X159668571Y-140243666D01*
X163097142Y-140957952D02*
X161097142Y-138457952D01*
X159097142Y-140957952D01*
X155954285Y-139767476D02*
X155954285Y-140957952D01*
X157954285Y-138457952D02*
X155954285Y-139767476D01*
X153954285Y-138457952D01*
X152240000Y-140838904D02*
X151382857Y-140957952D01*
X149954285Y-140957952D01*
X149382857Y-140838904D01*
X149097142Y-140719857D01*
X148811428Y-140481761D01*
X148811428Y-140243666D01*
X149097142Y-140005571D01*
X149382857Y-139886523D01*
X149954285Y-139767476D01*
X151097142Y-139648428D01*
X151668571Y-139529380D01*
X151954285Y-139410333D01*
X152240000Y-139172238D01*
X152240000Y-138934142D01*
X151954285Y-138696047D01*
X151668571Y-138577000D01*
X151097142Y-138457952D01*
X149668571Y-138457952D01*
X148811428Y-138577000D01*
X147097142Y-138457952D02*
X143668571Y-138457952D01*
X145382857Y-140957952D02*
X145382857Y-138457952D01*
X140525714Y-138457952D02*
X139382857Y-138457952D01*
X138811428Y-138577000D01*
X138240000Y-138815095D01*
X137954285Y-139291285D01*
X137954285Y-140124619D01*
X138240000Y-140600809D01*
X138811428Y-140838904D01*
X139382857Y-140957952D01*
X140525714Y-140957952D01*
X141097142Y-140838904D01*
X141668571Y-140600809D01*
X141954285Y-140124619D01*
X141954285Y-139291285D01*
X141668571Y-138815095D01*
X141097142Y-138577000D01*
X140525714Y-138457952D01*
X135382857Y-140957952D02*
X135382857Y-138457952D01*
X131954285Y-140957952D01*
X131954285Y-138457952D01*
X129097142Y-140957952D02*
X129097142Y-138457952D01*
X126525714Y-140243666D02*
X123668571Y-140243666D01*
X127097142Y-140957952D02*
X125097142Y-138457952D01*
X123097142Y-140957952D01*
X121097142Y-140957952D02*
X121097142Y-138457952D01*
X117668571Y-140957952D01*
X117668571Y-138457952D01*
D12*
X159582000Y-108147000D02*
X159882000Y-107847000D01*
X159282000Y-107847000D02*
X159882000Y-107847000D01*
X159582000Y-108147000D02*
X159282000Y-107847000D01*
X158732000Y-109047000D02*
X158732000Y-109647000D01*
X162182000Y-108347000D02*
X159382000Y-108347000D01*
X162832000Y-109647000D02*
X162832000Y-109047000D01*
X159382000Y-110347000D02*
X162182000Y-110347000D01*
X162132000Y-110347000D02*
G75*
G03X162832000Y-109647000I0J700000D01*
G01*
X162832000Y-109047000D02*
G75*
G03X162132000Y-108347000I-700000J0D01*
G01*
X159432000Y-108347000D02*
G75*
G03X158732000Y-109047000I0J-700000D01*
G01*
X158732000Y-109647000D02*
G75*
G03X159432000Y-110347000I700000J0D01*
G01*
X158732000Y-105202000D02*
G75*
G03X159432000Y-105902000I700000J0D01*
G01*
X159432000Y-103902000D02*
G75*
G03X158732000Y-104602000I0J-700000D01*
G01*
X162832000Y-104602000D02*
G75*
G03X162132000Y-103902000I-700000J0D01*
G01*
X162132000Y-105902000D02*
G75*
G03X162832000Y-105202000I0J700000D01*
G01*
X159382000Y-105902000D02*
X162182000Y-105902000D01*
X162832000Y-105202000D02*
X162832000Y-104602000D01*
X162182000Y-103902000D02*
X159382000Y-103902000D01*
X158732000Y-104602000D02*
X158732000Y-105202000D01*
X159582000Y-103702000D02*
X159282000Y-103402000D01*
X159282000Y-103402000D02*
X159882000Y-103402000D01*
X159582000Y-103702000D02*
X159882000Y-103402000D01*
X158732000Y-100757000D02*
G75*
G03X159432000Y-101457000I700000J0D01*
G01*
X159432000Y-99457000D02*
G75*
G03X158732000Y-100157000I0J-700000D01*
G01*
X162832000Y-100157000D02*
G75*
G03X162132000Y-99457000I-700000J0D01*
G01*
X162132000Y-101457000D02*
G75*
G03X162832000Y-100757000I0J700000D01*
G01*
X159382000Y-101457000D02*
X162182000Y-101457000D01*
X162832000Y-100757000D02*
X162832000Y-100157000D01*
X162182000Y-99457000D02*
X159382000Y-99457000D01*
X158732000Y-100157000D02*
X158732000Y-100757000D01*
X159582000Y-99257000D02*
X159282000Y-98957000D01*
X159282000Y-98957000D02*
X159882000Y-98957000D01*
X159582000Y-99257000D02*
X159882000Y-98957000D01*
X159582000Y-94812000D02*
X159882000Y-94512000D01*
X159282000Y-94512000D02*
X159882000Y-94512000D01*
X159582000Y-94812000D02*
X159282000Y-94512000D01*
X158732000Y-95712000D02*
X158732000Y-96312000D01*
X162182000Y-95012000D02*
X159382000Y-95012000D01*
X162832000Y-96312000D02*
X162832000Y-95712000D01*
X159382000Y-97012000D02*
X162182000Y-97012000D01*
X162132000Y-97012000D02*
G75*
G03X162832000Y-96312000I0J700000D01*
G01*
X162832000Y-95712000D02*
G75*
G03X162132000Y-95012000I-700000J0D01*
G01*
X159432000Y-95012000D02*
G75*
G03X158732000Y-95712000I0J-700000D01*
G01*
X158732000Y-96312000D02*
G75*
G03X159432000Y-97012000I700000J0D01*
G01*
X159582000Y-90367000D02*
X159882000Y-90067000D01*
X159282000Y-90067000D02*
X159882000Y-90067000D01*
X159582000Y-90367000D02*
X159282000Y-90067000D01*
X158732000Y-91267000D02*
X158732000Y-91867000D01*
X162182000Y-90567000D02*
X159382000Y-90567000D01*
X162832000Y-91867000D02*
X162832000Y-91267000D01*
X159382000Y-92567000D02*
X162182000Y-92567000D01*
X162132000Y-92567000D02*
G75*
G03X162832000Y-91867000I0J700000D01*
G01*
X162832000Y-91267000D02*
G75*
G03X162132000Y-90567000I-700000J0D01*
G01*
X159432000Y-90567000D02*
G75*
G03X158732000Y-91267000I0J-700000D01*
G01*
X158732000Y-91867000D02*
G75*
G03X159432000Y-92567000I700000J0D01*
G01*
X161482000Y-115300000D02*
G75*
G03X162182000Y-114600000I0J700000D01*
G01*
X162182000Y-114000000D02*
G75*
G03X161482000Y-113300000I-700000J0D01*
G01*
X160082000Y-113300000D02*
G75*
G03X159382000Y-114000000I0J-700000D01*
G01*
X159382000Y-114600000D02*
G75*
G03X160082000Y-115300000I700000J0D01*
G01*
X159382000Y-114000000D02*
X159382000Y-114600000D01*
X161482000Y-113300000D02*
X160082000Y-113300000D01*
X162182000Y-114600000D02*
X162182000Y-114000000D01*
X160082000Y-115300000D02*
X161482000Y-115300000D01*
D13*
X161615333Y-110599380D02*
X161615333Y-111313666D01*
X161662952Y-111456523D01*
X161758190Y-111551761D01*
X161901047Y-111599380D01*
X161996285Y-111599380D01*
X161139142Y-111599380D02*
X161139142Y-110599380D01*
X160758190Y-110599380D01*
X160662952Y-110647000D01*
X160615333Y-110694619D01*
X160567714Y-110789857D01*
X160567714Y-110932714D01*
X160615333Y-111027952D01*
X160662952Y-111075571D01*
X160758190Y-111123190D01*
X161139142Y-111123190D01*
X159615333Y-111599380D02*
X160186761Y-111599380D01*
X159901047Y-111599380D02*
X159901047Y-110599380D01*
X159996285Y-110742238D01*
X160091523Y-110837476D01*
X160186761Y-110885095D01*
X161615333Y-106154380D02*
X161615333Y-106868666D01*
X161662952Y-107011523D01*
X161758190Y-107106761D01*
X161901047Y-107154380D01*
X161996285Y-107154380D01*
X161139142Y-107154380D02*
X161139142Y-106154380D01*
X160758190Y-106154380D01*
X160662952Y-106202000D01*
X160615333Y-106249619D01*
X160567714Y-106344857D01*
X160567714Y-106487714D01*
X160615333Y-106582952D01*
X160662952Y-106630571D01*
X160758190Y-106678190D01*
X161139142Y-106678190D01*
X160186761Y-106249619D02*
X160139142Y-106202000D01*
X160043904Y-106154380D01*
X159805809Y-106154380D01*
X159710571Y-106202000D01*
X159662952Y-106249619D01*
X159615333Y-106344857D01*
X159615333Y-106440095D01*
X159662952Y-106582952D01*
X160234380Y-107154380D01*
X159615333Y-107154380D01*
X161615333Y-101709380D02*
X161615333Y-102423666D01*
X161662952Y-102566523D01*
X161758190Y-102661761D01*
X161901047Y-102709380D01*
X161996285Y-102709380D01*
X161139142Y-102709380D02*
X161139142Y-101709380D01*
X160758190Y-101709380D01*
X160662952Y-101757000D01*
X160615333Y-101804619D01*
X160567714Y-101899857D01*
X160567714Y-102042714D01*
X160615333Y-102137952D01*
X160662952Y-102185571D01*
X160758190Y-102233190D01*
X161139142Y-102233190D01*
X160234380Y-101709380D02*
X159615333Y-101709380D01*
X159948666Y-102090333D01*
X159805809Y-102090333D01*
X159710571Y-102137952D01*
X159662952Y-102185571D01*
X159615333Y-102280809D01*
X159615333Y-102518904D01*
X159662952Y-102614142D01*
X159710571Y-102661761D01*
X159805809Y-102709380D01*
X160091523Y-102709380D01*
X160186761Y-102661761D01*
X160234380Y-102614142D01*
X161615333Y-97264380D02*
X161615333Y-97978666D01*
X161662952Y-98121523D01*
X161758190Y-98216761D01*
X161901047Y-98264380D01*
X161996285Y-98264380D01*
X161139142Y-98264380D02*
X161139142Y-97264380D01*
X160758190Y-97264380D01*
X160662952Y-97312000D01*
X160615333Y-97359619D01*
X160567714Y-97454857D01*
X160567714Y-97597714D01*
X160615333Y-97692952D01*
X160662952Y-97740571D01*
X160758190Y-97788190D01*
X161139142Y-97788190D01*
X159710571Y-97597714D02*
X159710571Y-98264380D01*
X159948666Y-97216761D02*
X160186761Y-97931047D01*
X159567714Y-97931047D01*
X161615333Y-92819380D02*
X161615333Y-93533666D01*
X161662952Y-93676523D01*
X161758190Y-93771761D01*
X161901047Y-93819380D01*
X161996285Y-93819380D01*
X161139142Y-93819380D02*
X161139142Y-92819380D01*
X160758190Y-92819380D01*
X160662952Y-92867000D01*
X160615333Y-92914619D01*
X160567714Y-93009857D01*
X160567714Y-93152714D01*
X160615333Y-93247952D01*
X160662952Y-93295571D01*
X160758190Y-93343190D01*
X161139142Y-93343190D01*
X159662952Y-92819380D02*
X160139142Y-92819380D01*
X160186761Y-93295571D01*
X160139142Y-93247952D01*
X160043904Y-93200333D01*
X159805809Y-93200333D01*
X159710571Y-93247952D01*
X159662952Y-93295571D01*
X159615333Y-93390809D01*
X159615333Y-93628904D01*
X159662952Y-93724142D01*
X159710571Y-93771761D01*
X159805809Y-93819380D01*
X160043904Y-93819380D01*
X160139142Y-93771761D01*
X160186761Y-93724142D01*
X161615333Y-115552380D02*
X161615333Y-116266666D01*
X161662952Y-116409523D01*
X161758190Y-116504761D01*
X161901047Y-116552380D01*
X161996285Y-116552380D01*
X161139142Y-116552380D02*
X161139142Y-115552380D01*
X160758190Y-115552380D01*
X160662952Y-115600000D01*
X160615333Y-115647619D01*
X160567714Y-115742857D01*
X160567714Y-115885714D01*
X160615333Y-115980952D01*
X160662952Y-116028571D01*
X160758190Y-116076190D01*
X161139142Y-116076190D01*
X159710571Y-115552380D02*
X159901047Y-115552380D01*
X159996285Y-115600000D01*
X160043904Y-115647619D01*
X160139142Y-115790476D01*
X160186761Y-115980952D01*
X160186761Y-116361904D01*
X160139142Y-116457142D01*
X160091523Y-116504761D01*
X159996285Y-116552380D01*
X159805809Y-116552380D01*
X159710571Y-116504761D01*
X159662952Y-116457142D01*
X159615333Y-116361904D01*
X159615333Y-116123809D01*
X159662952Y-116028571D01*
X159710571Y-115980952D01*
X159805809Y-115933333D01*
X159996285Y-115933333D01*
X160091523Y-115980952D01*
X160139142Y-116028571D01*
X160186761Y-116123809D01*
M02*
