G04 #@! TF.GenerationSoftware,KiCad,Pcbnew,(5.1.5)-3*
G04 #@! TF.CreationDate,2020-07-25T22:57:51-04:00*
G04 #@! TF.ProjectId,c64-cpm-smd,6336342d-6370-46d2-9d73-6d642e6b6963,rev?*
G04 #@! TF.SameCoordinates,Original*
G04 #@! TF.FileFunction,Legend,Bot*
G04 #@! TF.FilePolarity,Positive*
%FSLAX46Y46*%
G04 Gerber Fmt 4.6, Leading zero omitted, Abs format (unit mm)*
G04 Created by KiCad (PCBNEW (5.1.5)-3) date 2020-07-25 22:57:51*
%MOMM*%
%LPD*%
G04 APERTURE LIST*
%ADD10C,0.120000*%
%ADD11C,0.150000*%
G04 APERTURE END LIST*
D10*
X148256248Y-106818500D02*
X148778752Y-106818500D01*
X148256248Y-105398500D02*
X148778752Y-105398500D01*
X160516500Y-108147752D02*
X160516500Y-107625248D01*
X161936500Y-108147752D02*
X161936500Y-107625248D01*
X165088500Y-107634248D02*
X165088500Y-108156752D01*
X166508500Y-107634248D02*
X166508500Y-108156752D01*
X174232500Y-108147752D02*
X174232500Y-107625248D01*
X175652500Y-108147752D02*
X175652500Y-107625248D01*
X139121248Y-124408000D02*
X139643752Y-124408000D01*
X139121248Y-122988000D02*
X139643752Y-122988000D01*
X145086000Y-114864248D02*
X145086000Y-115386752D01*
X146506000Y-114864248D02*
X146506000Y-115386752D01*
X151440248Y-116003000D02*
X151962752Y-116003000D01*
X151440248Y-117423000D02*
X151962752Y-117423000D01*
X140791000Y-107434748D02*
X140791000Y-107957252D01*
X139371000Y-107434748D02*
X139371000Y-107957252D01*
X143775500Y-137675252D02*
X143775500Y-137152748D01*
X142355500Y-137675252D02*
X142355500Y-137152748D01*
X140069500Y-137675252D02*
X140069500Y-137152748D01*
X141489500Y-137675252D02*
X141489500Y-137152748D01*
X135434000Y-137675252D02*
X135434000Y-137152748D01*
X136854000Y-137675252D02*
X136854000Y-137152748D01*
X171080500Y-107625248D02*
X171080500Y-108147752D01*
X169660500Y-107625248D02*
X169660500Y-108147752D01*
X168794500Y-108147752D02*
X168794500Y-107625248D01*
X167374500Y-108147752D02*
X167374500Y-107625248D01*
X162802500Y-107625248D02*
X162802500Y-108147752D01*
X164222500Y-107625248D02*
X164222500Y-108147752D01*
X171946500Y-108147752D02*
X171946500Y-107625248D01*
X173366500Y-108147752D02*
X173366500Y-107625248D01*
X133148000Y-137675252D02*
X133148000Y-137152748D01*
X134568000Y-137675252D02*
X134568000Y-137152748D01*
X162317500Y-112220752D02*
X162317500Y-111698248D01*
X160897500Y-112220752D02*
X160897500Y-111698248D01*
D11*
X136929500Y-128436000D02*
X136929500Y-129786000D01*
X131804500Y-128436000D02*
X131804500Y-123786000D01*
X137054500Y-128436000D02*
X137054500Y-123786000D01*
X131804500Y-128436000D02*
X132029500Y-128436000D01*
X131804500Y-123786000D02*
X132029500Y-123786000D01*
X137054500Y-123786000D02*
X136829500Y-123786000D01*
X137054500Y-128436000D02*
X136929500Y-128436000D01*
X164613000Y-127696000D02*
X164613000Y-132146000D01*
X157713000Y-126171000D02*
X157713000Y-132146000D01*
X176170000Y-127315000D02*
X176170000Y-131765000D01*
X169270000Y-125790000D02*
X169270000Y-131765000D01*
X146600500Y-125790000D02*
X146600500Y-131765000D01*
X153500500Y-127315000D02*
X153500500Y-131765000D01*
D10*
X153257000Y-138400500D02*
X153257000Y-136300500D01*
X146717000Y-138400500D02*
X146717000Y-136300500D01*
X179544500Y-122010000D02*
X179544500Y-122585000D01*
X179544500Y-122585000D02*
X178969500Y-122585000D01*
X179544500Y-112940000D02*
X179544500Y-112365000D01*
X179544500Y-112365000D02*
X178969500Y-112365000D01*
X169324500Y-122010000D02*
X169324500Y-122585000D01*
X169324500Y-122585000D02*
X169899500Y-122585000D01*
X169324500Y-112940000D02*
X169324500Y-112365000D01*
X169324500Y-112365000D02*
X169899500Y-112365000D01*
X169899500Y-112365000D02*
X169899500Y-111075000D01*
X175926500Y-138400500D02*
X175926500Y-136300500D01*
X169386500Y-138400500D02*
X169386500Y-136300500D01*
D11*
X148684166Y-106402142D02*
X148731785Y-106449761D01*
X148874642Y-106497380D01*
X148969880Y-106497380D01*
X149112738Y-106449761D01*
X149207976Y-106354523D01*
X149255595Y-106259285D01*
X149303214Y-106068809D01*
X149303214Y-105925952D01*
X149255595Y-105735476D01*
X149207976Y-105640238D01*
X149112738Y-105545000D01*
X148969880Y-105497380D01*
X148874642Y-105497380D01*
X148731785Y-105545000D01*
X148684166Y-105592619D01*
X147827023Y-105830714D02*
X147827023Y-106497380D01*
X148065119Y-105449761D02*
X148303214Y-106164047D01*
X147684166Y-106164047D01*
X161583642Y-107719833D02*
X161631261Y-107672214D01*
X161678880Y-107529357D01*
X161678880Y-107434119D01*
X161631261Y-107291261D01*
X161536023Y-107196023D01*
X161440785Y-107148404D01*
X161250309Y-107100785D01*
X161107452Y-107100785D01*
X160916976Y-107148404D01*
X160821738Y-107196023D01*
X160726500Y-107291261D01*
X160678880Y-107434119D01*
X160678880Y-107529357D01*
X160726500Y-107672214D01*
X160774119Y-107719833D01*
X160678880Y-108053166D02*
X160678880Y-108719833D01*
X161678880Y-108291261D01*
X166155642Y-107728833D02*
X166203261Y-107681214D01*
X166250880Y-107538357D01*
X166250880Y-107443119D01*
X166203261Y-107300261D01*
X166108023Y-107205023D01*
X166012785Y-107157404D01*
X165822309Y-107109785D01*
X165679452Y-107109785D01*
X165488976Y-107157404D01*
X165393738Y-107205023D01*
X165298500Y-107300261D01*
X165250880Y-107443119D01*
X165250880Y-107538357D01*
X165298500Y-107681214D01*
X165346119Y-107728833D01*
X166250880Y-108205023D02*
X166250880Y-108395500D01*
X166203261Y-108490738D01*
X166155642Y-108538357D01*
X166012785Y-108633595D01*
X165822309Y-108681214D01*
X165441357Y-108681214D01*
X165346119Y-108633595D01*
X165298500Y-108585976D01*
X165250880Y-108490738D01*
X165250880Y-108300261D01*
X165298500Y-108205023D01*
X165346119Y-108157404D01*
X165441357Y-108109785D01*
X165679452Y-108109785D01*
X165774690Y-108157404D01*
X165822309Y-108205023D01*
X165869928Y-108300261D01*
X165869928Y-108490738D01*
X165822309Y-108585976D01*
X165774690Y-108633595D01*
X165679452Y-108681214D01*
X175299642Y-107180142D02*
X175347261Y-107132523D01*
X175394880Y-106989666D01*
X175394880Y-106894428D01*
X175347261Y-106751571D01*
X175252023Y-106656333D01*
X175156785Y-106608714D01*
X174966309Y-106561095D01*
X174823452Y-106561095D01*
X174632976Y-106608714D01*
X174537738Y-106656333D01*
X174442500Y-106751571D01*
X174394880Y-106894428D01*
X174394880Y-106989666D01*
X174442500Y-107132523D01*
X174490119Y-107180142D01*
X175394880Y-108132523D02*
X175394880Y-107561095D01*
X175394880Y-107846809D02*
X174394880Y-107846809D01*
X174537738Y-107751571D01*
X174632976Y-107656333D01*
X174680595Y-107561095D01*
X175394880Y-109084904D02*
X175394880Y-108513476D01*
X175394880Y-108799190D02*
X174394880Y-108799190D01*
X174537738Y-108703952D01*
X174632976Y-108608714D01*
X174680595Y-108513476D01*
X140025357Y-124055142D02*
X140072976Y-124102761D01*
X140215833Y-124150380D01*
X140311071Y-124150380D01*
X140453928Y-124102761D01*
X140549166Y-124007523D01*
X140596785Y-123912285D01*
X140644404Y-123721809D01*
X140644404Y-123578952D01*
X140596785Y-123388476D01*
X140549166Y-123293238D01*
X140453928Y-123198000D01*
X140311071Y-123150380D01*
X140215833Y-123150380D01*
X140072976Y-123198000D01*
X140025357Y-123245619D01*
X139072976Y-124150380D02*
X139644404Y-124150380D01*
X139358690Y-124150380D02*
X139358690Y-123150380D01*
X139453928Y-123293238D01*
X139549166Y-123388476D01*
X139644404Y-123436095D01*
X138692023Y-123245619D02*
X138644404Y-123198000D01*
X138549166Y-123150380D01*
X138311071Y-123150380D01*
X138215833Y-123198000D01*
X138168214Y-123245619D01*
X138120595Y-123340857D01*
X138120595Y-123436095D01*
X138168214Y-123578952D01*
X138739642Y-124150380D01*
X138120595Y-124150380D01*
X146216642Y-114482642D02*
X146264261Y-114435023D01*
X146311880Y-114292166D01*
X146311880Y-114196928D01*
X146264261Y-114054071D01*
X146169023Y-113958833D01*
X146073785Y-113911214D01*
X145883309Y-113863595D01*
X145740452Y-113863595D01*
X145549976Y-113911214D01*
X145454738Y-113958833D01*
X145359500Y-114054071D01*
X145311880Y-114196928D01*
X145311880Y-114292166D01*
X145359500Y-114435023D01*
X145407119Y-114482642D01*
X146311880Y-115435023D02*
X146311880Y-114863595D01*
X146311880Y-115149309D02*
X145311880Y-115149309D01*
X145454738Y-115054071D01*
X145549976Y-114958833D01*
X145597595Y-114863595D01*
X145645214Y-116292166D02*
X146311880Y-116292166D01*
X145264261Y-116054071D02*
X145978547Y-115815976D01*
X145978547Y-116435023D01*
X152344357Y-117006642D02*
X152391976Y-117054261D01*
X152534833Y-117101880D01*
X152630071Y-117101880D01*
X152772928Y-117054261D01*
X152868166Y-116959023D01*
X152915785Y-116863785D01*
X152963404Y-116673309D01*
X152963404Y-116530452D01*
X152915785Y-116339976D01*
X152868166Y-116244738D01*
X152772928Y-116149500D01*
X152630071Y-116101880D01*
X152534833Y-116101880D01*
X152391976Y-116149500D01*
X152344357Y-116197119D01*
X151391976Y-117101880D02*
X151963404Y-117101880D01*
X151677690Y-117101880D02*
X151677690Y-116101880D01*
X151772928Y-116244738D01*
X151868166Y-116339976D01*
X151963404Y-116387595D01*
X150487214Y-116101880D02*
X150963404Y-116101880D01*
X151011023Y-116578071D01*
X150963404Y-116530452D01*
X150868166Y-116482833D01*
X150630071Y-116482833D01*
X150534833Y-116530452D01*
X150487214Y-116578071D01*
X150439595Y-116673309D01*
X150439595Y-116911404D01*
X150487214Y-117006642D01*
X150534833Y-117054261D01*
X150630071Y-117101880D01*
X150868166Y-117101880D01*
X150963404Y-117054261D01*
X151011023Y-117006642D01*
X140438142Y-107053142D02*
X140485761Y-107005523D01*
X140533380Y-106862666D01*
X140533380Y-106767428D01*
X140485761Y-106624571D01*
X140390523Y-106529333D01*
X140295285Y-106481714D01*
X140104809Y-106434095D01*
X139961952Y-106434095D01*
X139771476Y-106481714D01*
X139676238Y-106529333D01*
X139581000Y-106624571D01*
X139533380Y-106767428D01*
X139533380Y-106862666D01*
X139581000Y-107005523D01*
X139628619Y-107053142D01*
X140533380Y-108005523D02*
X140533380Y-107434095D01*
X140533380Y-107719809D02*
X139533380Y-107719809D01*
X139676238Y-107624571D01*
X139771476Y-107529333D01*
X139819095Y-107434095D01*
X139961952Y-108576952D02*
X139914333Y-108481714D01*
X139866714Y-108434095D01*
X139771476Y-108386476D01*
X139723857Y-108386476D01*
X139628619Y-108434095D01*
X139581000Y-108481714D01*
X139533380Y-108576952D01*
X139533380Y-108767428D01*
X139581000Y-108862666D01*
X139628619Y-108910285D01*
X139723857Y-108957904D01*
X139771476Y-108957904D01*
X139866714Y-108910285D01*
X139914333Y-108862666D01*
X139961952Y-108767428D01*
X139961952Y-108576952D01*
X140009571Y-108481714D01*
X140057190Y-108434095D01*
X140152428Y-108386476D01*
X140342904Y-108386476D01*
X140438142Y-108434095D01*
X140485761Y-108481714D01*
X140533380Y-108576952D01*
X140533380Y-108767428D01*
X140485761Y-108862666D01*
X140438142Y-108910285D01*
X140342904Y-108957904D01*
X140152428Y-108957904D01*
X140057190Y-108910285D01*
X140009571Y-108862666D01*
X139961952Y-108767428D01*
X142994071Y-136580666D02*
X142994071Y-136247333D01*
X143517880Y-136247333D02*
X142517880Y-136247333D01*
X142517880Y-136723523D01*
X142994071Y-137437809D02*
X143041690Y-137580666D01*
X143089309Y-137628285D01*
X143184547Y-137675904D01*
X143327404Y-137675904D01*
X143422642Y-137628285D01*
X143470261Y-137580666D01*
X143517880Y-137485428D01*
X143517880Y-137104476D01*
X142517880Y-137104476D01*
X142517880Y-137437809D01*
X142565500Y-137533047D01*
X142613119Y-137580666D01*
X142708357Y-137628285D01*
X142803595Y-137628285D01*
X142898833Y-137580666D01*
X142946452Y-137533047D01*
X142994071Y-137437809D01*
X142994071Y-137104476D01*
X142517880Y-138009238D02*
X142517880Y-138628285D01*
X142898833Y-138294952D01*
X142898833Y-138437809D01*
X142946452Y-138533047D01*
X142994071Y-138580666D01*
X143089309Y-138628285D01*
X143327404Y-138628285D01*
X143422642Y-138580666D01*
X143470261Y-138533047D01*
X143517880Y-138437809D01*
X143517880Y-138152095D01*
X143470261Y-138056857D01*
X143422642Y-138009238D01*
X140708071Y-136580666D02*
X140708071Y-136247333D01*
X141231880Y-136247333D02*
X140231880Y-136247333D01*
X140231880Y-136723523D01*
X140708071Y-137437809D02*
X140755690Y-137580666D01*
X140803309Y-137628285D01*
X140898547Y-137675904D01*
X141041404Y-137675904D01*
X141136642Y-137628285D01*
X141184261Y-137580666D01*
X141231880Y-137485428D01*
X141231880Y-137104476D01*
X140231880Y-137104476D01*
X140231880Y-137437809D01*
X140279500Y-137533047D01*
X140327119Y-137580666D01*
X140422357Y-137628285D01*
X140517595Y-137628285D01*
X140612833Y-137580666D01*
X140660452Y-137533047D01*
X140708071Y-137437809D01*
X140708071Y-137104476D01*
X140565214Y-138533047D02*
X141231880Y-138533047D01*
X140184261Y-138294952D02*
X140898547Y-138056857D01*
X140898547Y-138675904D01*
X136009071Y-136580666D02*
X136009071Y-136247333D01*
X136532880Y-136247333D02*
X135532880Y-136247333D01*
X135532880Y-136723523D01*
X136009071Y-137437809D02*
X136056690Y-137580666D01*
X136104309Y-137628285D01*
X136199547Y-137675904D01*
X136342404Y-137675904D01*
X136437642Y-137628285D01*
X136485261Y-137580666D01*
X136532880Y-137485428D01*
X136532880Y-137104476D01*
X135532880Y-137104476D01*
X135532880Y-137437809D01*
X135580500Y-137533047D01*
X135628119Y-137580666D01*
X135723357Y-137628285D01*
X135818595Y-137628285D01*
X135913833Y-137580666D01*
X135961452Y-137533047D01*
X136009071Y-137437809D01*
X136009071Y-137104476D01*
X135532880Y-138580666D02*
X135532880Y-138104476D01*
X136009071Y-138056857D01*
X135961452Y-138104476D01*
X135913833Y-138199714D01*
X135913833Y-138437809D01*
X135961452Y-138533047D01*
X136009071Y-138580666D01*
X136104309Y-138628285D01*
X136342404Y-138628285D01*
X136437642Y-138580666D01*
X136485261Y-138533047D01*
X136532880Y-138437809D01*
X136532880Y-138199714D01*
X136485261Y-138104476D01*
X136437642Y-138056857D01*
X170822880Y-107719833D02*
X170346690Y-107386500D01*
X170822880Y-107148404D02*
X169822880Y-107148404D01*
X169822880Y-107529357D01*
X169870500Y-107624595D01*
X169918119Y-107672214D01*
X170013357Y-107719833D01*
X170156214Y-107719833D01*
X170251452Y-107672214D01*
X170299071Y-107624595D01*
X170346690Y-107529357D01*
X170346690Y-107148404D01*
X170822880Y-108672214D02*
X170822880Y-108100785D01*
X170822880Y-108386500D02*
X169822880Y-108386500D01*
X169965738Y-108291261D01*
X170060976Y-108196023D01*
X170108595Y-108100785D01*
X167632119Y-108053166D02*
X168108309Y-108386500D01*
X167632119Y-108624595D02*
X168632119Y-108624595D01*
X168632119Y-108243642D01*
X168584500Y-108148404D01*
X168536880Y-108100785D01*
X168441642Y-108053166D01*
X168298785Y-108053166D01*
X168203547Y-108100785D01*
X168155928Y-108148404D01*
X168108309Y-108243642D01*
X168108309Y-108624595D01*
X168536880Y-107672214D02*
X168584500Y-107624595D01*
X168632119Y-107529357D01*
X168632119Y-107291261D01*
X168584500Y-107196023D01*
X168536880Y-107148404D01*
X168441642Y-107100785D01*
X168346404Y-107100785D01*
X168203547Y-107148404D01*
X167632119Y-107719833D01*
X167632119Y-107100785D01*
X163964880Y-107719833D02*
X163488690Y-107386500D01*
X163964880Y-107148404D02*
X162964880Y-107148404D01*
X162964880Y-107529357D01*
X163012500Y-107624595D01*
X163060119Y-107672214D01*
X163155357Y-107719833D01*
X163298214Y-107719833D01*
X163393452Y-107672214D01*
X163441071Y-107624595D01*
X163488690Y-107529357D01*
X163488690Y-107148404D01*
X162964880Y-108053166D02*
X162964880Y-108672214D01*
X163345833Y-108338880D01*
X163345833Y-108481738D01*
X163393452Y-108576976D01*
X163441071Y-108624595D01*
X163536309Y-108672214D01*
X163774404Y-108672214D01*
X163869642Y-108624595D01*
X163917261Y-108576976D01*
X163964880Y-108481738D01*
X163964880Y-108196023D01*
X163917261Y-108100785D01*
X163869642Y-108053166D01*
X173108880Y-107719833D02*
X172632690Y-107386500D01*
X173108880Y-107148404D02*
X172108880Y-107148404D01*
X172108880Y-107529357D01*
X172156500Y-107624595D01*
X172204119Y-107672214D01*
X172299357Y-107719833D01*
X172442214Y-107719833D01*
X172537452Y-107672214D01*
X172585071Y-107624595D01*
X172632690Y-107529357D01*
X172632690Y-107148404D01*
X172442214Y-108576976D02*
X173108880Y-108576976D01*
X172061261Y-108338880D02*
X172775547Y-108100785D01*
X172775547Y-108719833D01*
X134310380Y-137247333D02*
X133834190Y-136914000D01*
X134310380Y-136675904D02*
X133310380Y-136675904D01*
X133310380Y-137056857D01*
X133358000Y-137152095D01*
X133405619Y-137199714D01*
X133500857Y-137247333D01*
X133643714Y-137247333D01*
X133738952Y-137199714D01*
X133786571Y-137152095D01*
X133834190Y-137056857D01*
X133834190Y-136675904D01*
X133310380Y-138152095D02*
X133310380Y-137675904D01*
X133786571Y-137628285D01*
X133738952Y-137675904D01*
X133691333Y-137771142D01*
X133691333Y-138009238D01*
X133738952Y-138104476D01*
X133786571Y-138152095D01*
X133881809Y-138199714D01*
X134119904Y-138199714D01*
X134215142Y-138152095D01*
X134262761Y-138104476D01*
X134310380Y-138009238D01*
X134310380Y-137771142D01*
X134262761Y-137675904D01*
X134215142Y-137628285D01*
X162059880Y-111792833D02*
X161583690Y-111459500D01*
X162059880Y-111221404D02*
X161059880Y-111221404D01*
X161059880Y-111602357D01*
X161107500Y-111697595D01*
X161155119Y-111745214D01*
X161250357Y-111792833D01*
X161393214Y-111792833D01*
X161488452Y-111745214D01*
X161536071Y-111697595D01*
X161583690Y-111602357D01*
X161583690Y-111221404D01*
X161488452Y-112364261D02*
X161440833Y-112269023D01*
X161393214Y-112221404D01*
X161297976Y-112173785D01*
X161250357Y-112173785D01*
X161155119Y-112221404D01*
X161107500Y-112269023D01*
X161059880Y-112364261D01*
X161059880Y-112554738D01*
X161107500Y-112649976D01*
X161155119Y-112697595D01*
X161250357Y-112745214D01*
X161297976Y-112745214D01*
X161393214Y-112697595D01*
X161440833Y-112649976D01*
X161488452Y-112554738D01*
X161488452Y-112364261D01*
X161536071Y-112269023D01*
X161583690Y-112221404D01*
X161678928Y-112173785D01*
X161869404Y-112173785D01*
X161964642Y-112221404D01*
X162012261Y-112269023D01*
X162059880Y-112364261D01*
X162059880Y-112554738D01*
X162012261Y-112649976D01*
X161964642Y-112697595D01*
X161869404Y-112745214D01*
X161678928Y-112745214D01*
X161583690Y-112697595D01*
X161536071Y-112649976D01*
X161488452Y-112554738D01*
X134199380Y-125285595D02*
X135008904Y-125285595D01*
X135104142Y-125333214D01*
X135151761Y-125380833D01*
X135199380Y-125476071D01*
X135199380Y-125666547D01*
X135151761Y-125761785D01*
X135104142Y-125809404D01*
X135008904Y-125857023D01*
X134199380Y-125857023D01*
X135199380Y-126857023D02*
X135199380Y-126285595D01*
X135199380Y-126571309D02*
X134199380Y-126571309D01*
X134342238Y-126476071D01*
X134437476Y-126380833D01*
X134485095Y-126285595D01*
X161924904Y-129373380D02*
X161924904Y-130182904D01*
X161877285Y-130278142D01*
X161829666Y-130325761D01*
X161734428Y-130373380D01*
X161543952Y-130373380D01*
X161448714Y-130325761D01*
X161401095Y-130278142D01*
X161353476Y-130182904D01*
X161353476Y-129373380D01*
X160972523Y-129373380D02*
X160305857Y-129373380D01*
X160734428Y-130373380D01*
X173958095Y-128992380D02*
X173958095Y-129801904D01*
X173910476Y-129897142D01*
X173862857Y-129944761D01*
X173767619Y-129992380D01*
X173577142Y-129992380D01*
X173481904Y-129944761D01*
X173434285Y-129897142D01*
X173386666Y-129801904D01*
X173386666Y-128992380D01*
X172386666Y-129992380D02*
X172958095Y-129992380D01*
X172672380Y-129992380D02*
X172672380Y-128992380D01*
X172767619Y-129135238D01*
X172862857Y-129230476D01*
X172958095Y-129278095D01*
X171434285Y-129992380D02*
X172005714Y-129992380D01*
X171720000Y-129992380D02*
X171720000Y-128992380D01*
X171815238Y-129135238D01*
X171910476Y-129230476D01*
X172005714Y-129278095D01*
X149439380Y-128301904D02*
X150248904Y-128301904D01*
X150344142Y-128349523D01*
X150391761Y-128397142D01*
X150439380Y-128492380D01*
X150439380Y-128682857D01*
X150391761Y-128778095D01*
X150344142Y-128825714D01*
X150248904Y-128873333D01*
X149439380Y-128873333D01*
X150439380Y-129873333D02*
X150439380Y-129301904D01*
X150439380Y-129587619D02*
X149439380Y-129587619D01*
X149582238Y-129492380D01*
X149677476Y-129397142D01*
X149725095Y-129301904D01*
X149772714Y-130730476D02*
X150439380Y-130730476D01*
X149391761Y-130492380D02*
X150106047Y-130254285D01*
X150106047Y-130873333D01*
X151479095Y-136866380D02*
X151479095Y-137675904D01*
X151431476Y-137771142D01*
X151383857Y-137818761D01*
X151288619Y-137866380D01*
X151098142Y-137866380D01*
X151002904Y-137818761D01*
X150955285Y-137771142D01*
X150907666Y-137675904D01*
X150907666Y-136866380D01*
X149907666Y-137866380D02*
X150479095Y-137866380D01*
X150193380Y-137866380D02*
X150193380Y-136866380D01*
X150288619Y-137009238D01*
X150383857Y-137104476D01*
X150479095Y-137152095D01*
X149002904Y-136866380D02*
X149479095Y-136866380D01*
X149526714Y-137342571D01*
X149479095Y-137294952D01*
X149383857Y-137247333D01*
X149145761Y-137247333D01*
X149050523Y-137294952D01*
X149002904Y-137342571D01*
X148955285Y-137437809D01*
X148955285Y-137675904D01*
X149002904Y-137771142D01*
X149050523Y-137818761D01*
X149145761Y-137866380D01*
X149383857Y-137866380D01*
X149479095Y-137818761D01*
X149526714Y-137771142D01*
X173886880Y-116236904D02*
X174696404Y-116236904D01*
X174791642Y-116284523D01*
X174839261Y-116332142D01*
X174886880Y-116427380D01*
X174886880Y-116617857D01*
X174839261Y-116713095D01*
X174791642Y-116760714D01*
X174696404Y-116808333D01*
X173886880Y-116808333D01*
X174886880Y-117808333D02*
X174886880Y-117236904D01*
X174886880Y-117522619D02*
X173886880Y-117522619D01*
X174029738Y-117427380D01*
X174124976Y-117332142D01*
X174172595Y-117236904D01*
X173886880Y-118141666D02*
X173886880Y-118760714D01*
X174267833Y-118427380D01*
X174267833Y-118570238D01*
X174315452Y-118665476D01*
X174363071Y-118713095D01*
X174458309Y-118760714D01*
X174696404Y-118760714D01*
X174791642Y-118713095D01*
X174839261Y-118665476D01*
X174886880Y-118570238D01*
X174886880Y-118284523D01*
X174839261Y-118189285D01*
X174791642Y-118141666D01*
X173958095Y-136802880D02*
X173958095Y-137612404D01*
X173910476Y-137707642D01*
X173862857Y-137755261D01*
X173767619Y-137802880D01*
X173577142Y-137802880D01*
X173481904Y-137755261D01*
X173434285Y-137707642D01*
X173386666Y-137612404D01*
X173386666Y-136802880D01*
X172386666Y-137802880D02*
X172958095Y-137802880D01*
X172672380Y-137802880D02*
X172672380Y-136802880D01*
X172767619Y-136945738D01*
X172862857Y-137040976D01*
X172958095Y-137088595D01*
X172005714Y-136898119D02*
X171958095Y-136850500D01*
X171862857Y-136802880D01*
X171624761Y-136802880D01*
X171529523Y-136850500D01*
X171481904Y-136898119D01*
X171434285Y-136993357D01*
X171434285Y-137088595D01*
X171481904Y-137231452D01*
X172053333Y-137802880D01*
X171434285Y-137802880D01*
M02*
