%FSLAX45Y45*%
G04 Gerber Fmt 4.5, Leading zero omitted, Abs format (unit mm)*
G04 Created by KiCad (PCBNEW (5.1.5)-3) date 2020-08-18 03:56:37*
%MOMM*%
%LPD*%
G04 APERTURE LIST*
%ADD10C,0.200000*%
%ADD11C,0.300000*%
G04 APERTURE END LIST*
D10*
X15252700Y-10585450D02*
X15735300Y-11068050D01*
X15735300Y-10585450D02*
X15252700Y-11068050D01*
D11*
X12883558Y-15675234D02*
X12883558Y-15375234D01*
X12954987Y-15375234D01*
X12997844Y-15389520D01*
X13026416Y-15418091D01*
X13040701Y-15446663D01*
X13054987Y-15503806D01*
X13054987Y-15546663D01*
X13040701Y-15603806D01*
X13026416Y-15632377D01*
X12997844Y-15660949D01*
X12954987Y-15675234D01*
X12883558Y-15675234D01*
X13183558Y-15675234D02*
X13183558Y-15475234D01*
X13183558Y-15532377D02*
X13197844Y-15503806D01*
X13212130Y-15489520D01*
X13240701Y-15475234D01*
X13269273Y-15475234D01*
X13369273Y-15675234D02*
X13369273Y-15475234D01*
X13369273Y-15375234D02*
X13354987Y-15389520D01*
X13369273Y-15403806D01*
X13383558Y-15389520D01*
X13369273Y-15375234D01*
X13369273Y-15403806D01*
X13554987Y-15675234D02*
X13526416Y-15660949D01*
X13512130Y-15632377D01*
X13512130Y-15375234D01*
X13712130Y-15675234D02*
X13683558Y-15660949D01*
X13669273Y-15632377D01*
X13669273Y-15375234D01*
X14054987Y-15675234D02*
X14054987Y-15375234D01*
X14154987Y-15589520D01*
X14254987Y-15375234D01*
X14254987Y-15675234D01*
X14526416Y-15675234D02*
X14526416Y-15518091D01*
X14512130Y-15489520D01*
X14483558Y-15475234D01*
X14426416Y-15475234D01*
X14397844Y-15489520D01*
X14526416Y-15660949D02*
X14497844Y-15675234D01*
X14426416Y-15675234D01*
X14397844Y-15660949D01*
X14383558Y-15632377D01*
X14383558Y-15603806D01*
X14397844Y-15575234D01*
X14426416Y-15560949D01*
X14497844Y-15560949D01*
X14526416Y-15546663D01*
X14669273Y-15475234D02*
X14669273Y-15775234D01*
X14669273Y-15489520D02*
X14697844Y-15475234D01*
X14754987Y-15475234D01*
X14783558Y-15489520D01*
X14797844Y-15503806D01*
X14812130Y-15532377D01*
X14812130Y-15618091D01*
X14797844Y-15646663D01*
X14783558Y-15660949D01*
X14754987Y-15675234D01*
X14697844Y-15675234D01*
X14669273Y-15660949D01*
X14940701Y-15646663D02*
X14954987Y-15660949D01*
X14940701Y-15675234D01*
X14926416Y-15660949D01*
X14940701Y-15646663D01*
X14940701Y-15675234D01*
X14940701Y-15489520D02*
X14954987Y-15503806D01*
X14940701Y-15518091D01*
X14926416Y-15503806D01*
X14940701Y-15489520D01*
X14940701Y-15518091D01*
X12114530Y-15928220D02*
X12597130Y-16410820D01*
X12597130Y-15928220D02*
X12114530Y-16410820D01*
X13012130Y-16105234D02*
X13012130Y-16305234D01*
X12940701Y-15990949D02*
X12869273Y-16205234D01*
X13054987Y-16205234D01*
X13169273Y-16276663D02*
X13183558Y-16290949D01*
X13169273Y-16305234D01*
X13154987Y-16290949D01*
X13169273Y-16276663D01*
X13169273Y-16305234D01*
X13354987Y-16133806D02*
X13326416Y-16119520D01*
X13312130Y-16105234D01*
X13297844Y-16076663D01*
X13297844Y-16062377D01*
X13312130Y-16033806D01*
X13326416Y-16019520D01*
X13354987Y-16005234D01*
X13412130Y-16005234D01*
X13440701Y-16019520D01*
X13454987Y-16033806D01*
X13469273Y-16062377D01*
X13469273Y-16076663D01*
X13454987Y-16105234D01*
X13440701Y-16119520D01*
X13412130Y-16133806D01*
X13354987Y-16133806D01*
X13326416Y-16148091D01*
X13312130Y-16162377D01*
X13297844Y-16190949D01*
X13297844Y-16248091D01*
X13312130Y-16276663D01*
X13326416Y-16290949D01*
X13354987Y-16305234D01*
X13412130Y-16305234D01*
X13440701Y-16290949D01*
X13454987Y-16276663D01*
X13469273Y-16248091D01*
X13469273Y-16190949D01*
X13454987Y-16162377D01*
X13440701Y-16148091D01*
X13412130Y-16133806D01*
X13569273Y-16005234D02*
X13754987Y-16005234D01*
X13654987Y-16119520D01*
X13697844Y-16119520D01*
X13726416Y-16133806D01*
X13740701Y-16148091D01*
X13754987Y-16176663D01*
X13754987Y-16248091D01*
X13740701Y-16276663D01*
X13726416Y-16290949D01*
X13697844Y-16305234D01*
X13612130Y-16305234D01*
X13583558Y-16290949D01*
X13569273Y-16276663D01*
X13883558Y-16305234D02*
X13883558Y-16105234D01*
X13883558Y-16133806D02*
X13897844Y-16119520D01*
X13926416Y-16105234D01*
X13969273Y-16105234D01*
X13997844Y-16119520D01*
X14012130Y-16148091D01*
X14012130Y-16305234D01*
X14012130Y-16148091D02*
X14026416Y-16119520D01*
X14054987Y-16105234D01*
X14097844Y-16105234D01*
X14126416Y-16119520D01*
X14140701Y-16148091D01*
X14140701Y-16305234D01*
X14283558Y-16305234D02*
X14283558Y-16105234D01*
X14283558Y-16133806D02*
X14297844Y-16119520D01*
X14326416Y-16105234D01*
X14369273Y-16105234D01*
X14397844Y-16119520D01*
X14412130Y-16148091D01*
X14412130Y-16305234D01*
X14412130Y-16148091D02*
X14426416Y-16119520D01*
X14454987Y-16105234D01*
X14497844Y-16105234D01*
X14526416Y-16119520D01*
X14540701Y-16148091D01*
X14540701Y-16305234D01*
X15126416Y-15990949D02*
X14869273Y-16376663D01*
X15512130Y-16005234D02*
X15540701Y-16005234D01*
X15569273Y-16019520D01*
X15583558Y-16033806D01*
X15597844Y-16062377D01*
X15612130Y-16119520D01*
X15612130Y-16190949D01*
X15597844Y-16248091D01*
X15583558Y-16276663D01*
X15569273Y-16290949D01*
X15540701Y-16305234D01*
X15512130Y-16305234D01*
X15483558Y-16290949D01*
X15469273Y-16276663D01*
X15454987Y-16248091D01*
X15440701Y-16190949D01*
X15440701Y-16119520D01*
X15454987Y-16062377D01*
X15469273Y-16033806D01*
X15483558Y-16019520D01*
X15512130Y-16005234D01*
X15740701Y-16276663D02*
X15754987Y-16290949D01*
X15740701Y-16305234D01*
X15726416Y-16290949D01*
X15740701Y-16276663D01*
X15740701Y-16305234D01*
X16040701Y-16305234D02*
X15869273Y-16305234D01*
X15954987Y-16305234D02*
X15954987Y-16005234D01*
X15926416Y-16048091D01*
X15897844Y-16076663D01*
X15869273Y-16090949D01*
X16183558Y-16305234D02*
X16240701Y-16305234D01*
X16269273Y-16290949D01*
X16283558Y-16276663D01*
X16312130Y-16233806D01*
X16326416Y-16176663D01*
X16326416Y-16062377D01*
X16312130Y-16033806D01*
X16297844Y-16019520D01*
X16269273Y-16005234D01*
X16212130Y-16005234D01*
X16183558Y-16019520D01*
X16169273Y-16033806D01*
X16154987Y-16062377D01*
X16154987Y-16133806D01*
X16169273Y-16162377D01*
X16183558Y-16176663D01*
X16212130Y-16190949D01*
X16269273Y-16190949D01*
X16297844Y-16176663D01*
X16312130Y-16162377D01*
X16326416Y-16133806D01*
X16512130Y-16005234D02*
X16540701Y-16005234D01*
X16569273Y-16019520D01*
X16583558Y-16033806D01*
X16597844Y-16062377D01*
X16612130Y-16119520D01*
X16612130Y-16190949D01*
X16597844Y-16248091D01*
X16583558Y-16276663D01*
X16569273Y-16290949D01*
X16540701Y-16305234D01*
X16512130Y-16305234D01*
X16483558Y-16290949D01*
X16469273Y-16276663D01*
X16454987Y-16248091D01*
X16440701Y-16190949D01*
X16440701Y-16119520D01*
X16454987Y-16062377D01*
X16469273Y-16033806D01*
X16483558Y-16019520D01*
X16512130Y-16005234D01*
X16726416Y-16005234D02*
X16726416Y-16062377D01*
X16840701Y-16005234D02*
X16840701Y-16062377D01*
X17283558Y-16419520D02*
X17269273Y-16405234D01*
X17240701Y-16362377D01*
X17226416Y-16333806D01*
X17212130Y-16290949D01*
X17197844Y-16219520D01*
X17197844Y-16162377D01*
X17212130Y-16090949D01*
X17226416Y-16048091D01*
X17240701Y-16019520D01*
X17269273Y-15976663D01*
X17283558Y-15962377D01*
X17554987Y-16305234D02*
X17383558Y-16305234D01*
X17469273Y-16305234D02*
X17469273Y-16005234D01*
X17440701Y-16048091D01*
X17412130Y-16076663D01*
X17383558Y-16090949D01*
X17912130Y-16305234D02*
X17912130Y-16005234D01*
X18040701Y-16305234D02*
X18040701Y-16148091D01*
X18026416Y-16119520D01*
X17997844Y-16105234D01*
X17954987Y-16105234D01*
X17926416Y-16119520D01*
X17912130Y-16133806D01*
X18226416Y-16305234D02*
X18197844Y-16290949D01*
X18183558Y-16276663D01*
X18169273Y-16248091D01*
X18169273Y-16162377D01*
X18183558Y-16133806D01*
X18197844Y-16119520D01*
X18226416Y-16105234D01*
X18269273Y-16105234D01*
X18297844Y-16119520D01*
X18312130Y-16133806D01*
X18326416Y-16162377D01*
X18326416Y-16248091D01*
X18312130Y-16276663D01*
X18297844Y-16290949D01*
X18269273Y-16305234D01*
X18226416Y-16305234D01*
X18497844Y-16305234D02*
X18469273Y-16290949D01*
X18454987Y-16262377D01*
X18454987Y-16005234D01*
X18726416Y-16290949D02*
X18697844Y-16305234D01*
X18640701Y-16305234D01*
X18612130Y-16290949D01*
X18597844Y-16262377D01*
X18597844Y-16148091D01*
X18612130Y-16119520D01*
X18640701Y-16105234D01*
X18697844Y-16105234D01*
X18726416Y-16119520D01*
X18740701Y-16148091D01*
X18740701Y-16176663D01*
X18597844Y-16205234D01*
X18840701Y-16419520D02*
X18854987Y-16405234D01*
X18883558Y-16362377D01*
X18897844Y-16333806D01*
X18912130Y-16290949D01*
X18926416Y-16219520D01*
X18926416Y-16162377D01*
X18912130Y-16090949D01*
X18897844Y-16048091D01*
X18883558Y-16019520D01*
X18854987Y-15976663D01*
X18840701Y-15962377D01*
X19383558Y-16419520D02*
X19369273Y-16405234D01*
X19340701Y-16362377D01*
X19326416Y-16333806D01*
X19312130Y-16290949D01*
X19297844Y-16219520D01*
X19297844Y-16162377D01*
X19312130Y-16090949D01*
X19326416Y-16048091D01*
X19340701Y-16019520D01*
X19369273Y-15976663D01*
X19383558Y-15962377D01*
X19497844Y-16105234D02*
X19497844Y-16305234D01*
X19497844Y-16133806D02*
X19512130Y-16119520D01*
X19540701Y-16105234D01*
X19583558Y-16105234D01*
X19612130Y-16119520D01*
X19626416Y-16148091D01*
X19626416Y-16305234D01*
X19812130Y-16305234D02*
X19783558Y-16290949D01*
X19769273Y-16276663D01*
X19754987Y-16248091D01*
X19754987Y-16162377D01*
X19769273Y-16133806D01*
X19783558Y-16119520D01*
X19812130Y-16105234D01*
X19854987Y-16105234D01*
X19883558Y-16119520D01*
X19897844Y-16133806D01*
X19912130Y-16162377D01*
X19912130Y-16248091D01*
X19897844Y-16276663D01*
X19883558Y-16290949D01*
X19854987Y-16305234D01*
X19812130Y-16305234D01*
X19997844Y-16105234D02*
X20112130Y-16105234D01*
X20040701Y-16005234D02*
X20040701Y-16262377D01*
X20054987Y-16290949D01*
X20083558Y-16305234D01*
X20112130Y-16305234D01*
X20440701Y-16105234D02*
X20440701Y-16405234D01*
X20440701Y-16119520D02*
X20469273Y-16105234D01*
X20526416Y-16105234D01*
X20554987Y-16119520D01*
X20569273Y-16133806D01*
X20583558Y-16162377D01*
X20583558Y-16248091D01*
X20569273Y-16276663D01*
X20554987Y-16290949D01*
X20526416Y-16305234D01*
X20469273Y-16305234D01*
X20440701Y-16290949D01*
X20754987Y-16305234D02*
X20726416Y-16290949D01*
X20712130Y-16262377D01*
X20712130Y-16005234D01*
X20997844Y-16305234D02*
X20997844Y-16148091D01*
X20983558Y-16119520D01*
X20954987Y-16105234D01*
X20897844Y-16105234D01*
X20869273Y-16119520D01*
X20997844Y-16290949D02*
X20969273Y-16305234D01*
X20897844Y-16305234D01*
X20869273Y-16290949D01*
X20854987Y-16262377D01*
X20854987Y-16233806D01*
X20869273Y-16205234D01*
X20897844Y-16190949D01*
X20969273Y-16190949D01*
X20997844Y-16176663D01*
X21097844Y-16105234D02*
X21212130Y-16105234D01*
X21140701Y-16005234D02*
X21140701Y-16262377D01*
X21154987Y-16290949D01*
X21183558Y-16305234D01*
X21212130Y-16305234D01*
X21426416Y-16290949D02*
X21397844Y-16305234D01*
X21340701Y-16305234D01*
X21312130Y-16290949D01*
X21297844Y-16262377D01*
X21297844Y-16148091D01*
X21312130Y-16119520D01*
X21340701Y-16105234D01*
X21397844Y-16105234D01*
X21426416Y-16119520D01*
X21440701Y-16148091D01*
X21440701Y-16176663D01*
X21297844Y-16205234D01*
X21697844Y-16305234D02*
X21697844Y-16005234D01*
X21697844Y-16290949D02*
X21669273Y-16305234D01*
X21612130Y-16305234D01*
X21583558Y-16290949D01*
X21569273Y-16276663D01*
X21554987Y-16248091D01*
X21554987Y-16162377D01*
X21569273Y-16133806D01*
X21583558Y-16119520D01*
X21612130Y-16105234D01*
X21669273Y-16105234D01*
X21697844Y-16119520D01*
X21812130Y-16419520D02*
X21826416Y-16405234D01*
X21854987Y-16362377D01*
X21869273Y-16333806D01*
X21883558Y-16290949D01*
X21897844Y-16219520D01*
X21897844Y-16162377D01*
X21883558Y-16090949D01*
X21869273Y-16048091D01*
X21854987Y-16019520D01*
X21826416Y-15976663D01*
X21812130Y-15962377D01*
M02*
