G04 #@! TF.GenerationSoftware,KiCad,Pcbnew,(5.1.5)-3*
G04 #@! TF.CreationDate,2020-07-25T22:57:51-04:00*
G04 #@! TF.ProjectId,c64-cpm-smd,6336342d-6370-46d2-9d73-6d642e6b6963,rev?*
G04 #@! TF.SameCoordinates,Original*
G04 #@! TF.FileFunction,Soldermask,Bot*
G04 #@! TF.FilePolarity,Negative*
%FSLAX46Y46*%
G04 Gerber Fmt 4.6, Leading zero omitted, Abs format (unit mm)*
G04 Created by KiCad (PCBNEW (5.1.5)-3) date 2020-07-25 22:57:51*
%MOMM*%
%LPD*%
G04 APERTURE LIST*
%ADD10C,0.100000*%
G04 APERTURE END LIST*
D10*
G36*
X125920500Y-145161000D02*
G01*
X125920500Y-152082500D01*
X183959500Y-152082500D01*
X183959500Y-145161000D01*
X125920500Y-145161000D01*
G37*
X125920500Y-145161000D02*
X125920500Y-152082500D01*
X183959500Y-152082500D01*
X183959500Y-145161000D01*
X125920500Y-145161000D01*
G36*
X139356000Y-152141000D02*
G01*
X137504000Y-152141000D01*
X137504000Y-145039000D01*
X139356000Y-145039000D01*
X139356000Y-152141000D01*
G37*
G36*
X182536000Y-152141000D02*
G01*
X180684000Y-152141000D01*
X180684000Y-145039000D01*
X182536000Y-145039000D01*
X182536000Y-152141000D01*
G37*
G36*
X146976000Y-152141000D02*
G01*
X145124000Y-152141000D01*
X145124000Y-145039000D01*
X146976000Y-145039000D01*
X146976000Y-152141000D01*
G37*
G36*
X152056000Y-152141000D02*
G01*
X150204000Y-152141000D01*
X150204000Y-145039000D01*
X152056000Y-145039000D01*
X152056000Y-152141000D01*
G37*
G36*
X144436000Y-152141000D02*
G01*
X142584000Y-152141000D01*
X142584000Y-145039000D01*
X144436000Y-145039000D01*
X144436000Y-152141000D01*
G37*
G36*
X149516000Y-152141000D02*
G01*
X147664000Y-152141000D01*
X147664000Y-145039000D01*
X149516000Y-145039000D01*
X149516000Y-152141000D01*
G37*
G36*
X141896000Y-152141000D02*
G01*
X140044000Y-152141000D01*
X140044000Y-145039000D01*
X141896000Y-145039000D01*
X141896000Y-152141000D01*
G37*
G36*
X129196000Y-152141000D02*
G01*
X127344000Y-152141000D01*
X127344000Y-145039000D01*
X129196000Y-145039000D01*
X129196000Y-152141000D01*
G37*
G36*
X174916000Y-152141000D02*
G01*
X173064000Y-152141000D01*
X173064000Y-145039000D01*
X174916000Y-145039000D01*
X174916000Y-152141000D01*
G37*
G36*
X172376000Y-152141000D02*
G01*
X170524000Y-152141000D01*
X170524000Y-145039000D01*
X172376000Y-145039000D01*
X172376000Y-152141000D01*
G37*
G36*
X177456000Y-152141000D02*
G01*
X175604000Y-152141000D01*
X175604000Y-145039000D01*
X177456000Y-145039000D01*
X177456000Y-152141000D01*
G37*
G36*
X179996000Y-152141000D02*
G01*
X178144000Y-152141000D01*
X178144000Y-145039000D01*
X179996000Y-145039000D01*
X179996000Y-152141000D01*
G37*
G36*
X162216000Y-152141000D02*
G01*
X160364000Y-152141000D01*
X160364000Y-145039000D01*
X162216000Y-145039000D01*
X162216000Y-152141000D01*
G37*
G36*
X157136000Y-152141000D02*
G01*
X155284000Y-152141000D01*
X155284000Y-145039000D01*
X157136000Y-145039000D01*
X157136000Y-152141000D01*
G37*
G36*
X169836000Y-152141000D02*
G01*
X167984000Y-152141000D01*
X167984000Y-145039000D01*
X169836000Y-145039000D01*
X169836000Y-152141000D01*
G37*
G36*
X167296000Y-152141000D02*
G01*
X165444000Y-152141000D01*
X165444000Y-145039000D01*
X167296000Y-145039000D01*
X167296000Y-152141000D01*
G37*
G36*
X154596000Y-152141000D02*
G01*
X152744000Y-152141000D01*
X152744000Y-145039000D01*
X154596000Y-145039000D01*
X154596000Y-152141000D01*
G37*
G36*
X164756000Y-152141000D02*
G01*
X162904000Y-152141000D01*
X162904000Y-145039000D01*
X164756000Y-145039000D01*
X164756000Y-152141000D01*
G37*
G36*
X134276000Y-152141000D02*
G01*
X132424000Y-152141000D01*
X132424000Y-145039000D01*
X134276000Y-145039000D01*
X134276000Y-152141000D01*
G37*
G36*
X131736000Y-152141000D02*
G01*
X129884000Y-152141000D01*
X129884000Y-145039000D01*
X131736000Y-145039000D01*
X131736000Y-152141000D01*
G37*
G36*
X136816000Y-152141000D02*
G01*
X134964000Y-152141000D01*
X134964000Y-145039000D01*
X136816000Y-145039000D01*
X136816000Y-152141000D01*
G37*
G36*
X159676000Y-152141000D02*
G01*
X157824000Y-152141000D01*
X157824000Y-145039000D01*
X159676000Y-145039000D01*
X159676000Y-152141000D01*
G37*
G36*
X147888000Y-139351500D02*
G01*
X146886000Y-139351500D01*
X146886000Y-138349500D01*
X147888000Y-138349500D01*
X147888000Y-139351500D01*
G37*
G36*
X173157500Y-139351500D02*
G01*
X172155500Y-139351500D01*
X172155500Y-138349500D01*
X173157500Y-138349500D01*
X173157500Y-139351500D01*
G37*
G36*
X171877500Y-139351500D02*
G01*
X170875500Y-139351500D01*
X170875500Y-138349500D01*
X171877500Y-138349500D01*
X171877500Y-139351500D01*
G37*
G36*
X175757500Y-139351500D02*
G01*
X174755500Y-139351500D01*
X174755500Y-138349500D01*
X175757500Y-138349500D01*
X175757500Y-139351500D01*
G37*
G36*
X170557500Y-139351500D02*
G01*
X169555500Y-139351500D01*
X169555500Y-138349500D01*
X170557500Y-138349500D01*
X170557500Y-139351500D01*
G37*
G36*
X174437500Y-139351500D02*
G01*
X173435500Y-139351500D01*
X173435500Y-138349500D01*
X174437500Y-138349500D01*
X174437500Y-139351500D01*
G37*
G36*
X150488000Y-139351500D02*
G01*
X149486000Y-139351500D01*
X149486000Y-138349500D01*
X150488000Y-138349500D01*
X150488000Y-139351500D01*
G37*
G36*
X149208000Y-139351500D02*
G01*
X148206000Y-139351500D01*
X148206000Y-138349500D01*
X149208000Y-138349500D01*
X149208000Y-139351500D01*
G37*
G36*
X153088000Y-139351500D02*
G01*
X152086000Y-139351500D01*
X152086000Y-138349500D01*
X153088000Y-138349500D01*
X153088000Y-139351500D01*
G37*
G36*
X151768000Y-139351500D02*
G01*
X150766000Y-139351500D01*
X150766000Y-138349500D01*
X151768000Y-138349500D01*
X151768000Y-139351500D01*
G37*
G36*
X136732674Y-137817465D02*
G01*
X136770367Y-137828899D01*
X136805103Y-137847466D01*
X136835548Y-137872452D01*
X136860534Y-137902897D01*
X136879101Y-137937633D01*
X136890535Y-137975326D01*
X136895000Y-138020661D01*
X136895000Y-138857339D01*
X136890535Y-138902674D01*
X136879101Y-138940367D01*
X136860534Y-138975103D01*
X136835548Y-139005548D01*
X136805103Y-139030534D01*
X136770367Y-139049101D01*
X136732674Y-139060535D01*
X136687339Y-139065000D01*
X135600661Y-139065000D01*
X135555326Y-139060535D01*
X135517633Y-139049101D01*
X135482897Y-139030534D01*
X135452452Y-139005548D01*
X135427466Y-138975103D01*
X135408899Y-138940367D01*
X135397465Y-138902674D01*
X135393000Y-138857339D01*
X135393000Y-138020661D01*
X135397465Y-137975326D01*
X135408899Y-137937633D01*
X135427466Y-137902897D01*
X135452452Y-137872452D01*
X135482897Y-137847466D01*
X135517633Y-137828899D01*
X135555326Y-137817465D01*
X135600661Y-137813000D01*
X136687339Y-137813000D01*
X136732674Y-137817465D01*
G37*
G36*
X134446674Y-137817465D02*
G01*
X134484367Y-137828899D01*
X134519103Y-137847466D01*
X134549548Y-137872452D01*
X134574534Y-137902897D01*
X134593101Y-137937633D01*
X134604535Y-137975326D01*
X134609000Y-138020661D01*
X134609000Y-138857339D01*
X134604535Y-138902674D01*
X134593101Y-138940367D01*
X134574534Y-138975103D01*
X134549548Y-139005548D01*
X134519103Y-139030534D01*
X134484367Y-139049101D01*
X134446674Y-139060535D01*
X134401339Y-139065000D01*
X133314661Y-139065000D01*
X133269326Y-139060535D01*
X133231633Y-139049101D01*
X133196897Y-139030534D01*
X133166452Y-139005548D01*
X133141466Y-138975103D01*
X133122899Y-138940367D01*
X133111465Y-138902674D01*
X133107000Y-138857339D01*
X133107000Y-138020661D01*
X133111465Y-137975326D01*
X133122899Y-137937633D01*
X133141466Y-137902897D01*
X133166452Y-137872452D01*
X133196897Y-137847466D01*
X133231633Y-137828899D01*
X133269326Y-137817465D01*
X133314661Y-137813000D01*
X134401339Y-137813000D01*
X134446674Y-137817465D01*
G37*
G36*
X143654174Y-137817465D02*
G01*
X143691867Y-137828899D01*
X143726603Y-137847466D01*
X143757048Y-137872452D01*
X143782034Y-137902897D01*
X143800601Y-137937633D01*
X143812035Y-137975326D01*
X143816500Y-138020661D01*
X143816500Y-138857339D01*
X143812035Y-138902674D01*
X143800601Y-138940367D01*
X143782034Y-138975103D01*
X143757048Y-139005548D01*
X143726603Y-139030534D01*
X143691867Y-139049101D01*
X143654174Y-139060535D01*
X143608839Y-139065000D01*
X142522161Y-139065000D01*
X142476826Y-139060535D01*
X142439133Y-139049101D01*
X142404397Y-139030534D01*
X142373952Y-139005548D01*
X142348966Y-138975103D01*
X142330399Y-138940367D01*
X142318965Y-138902674D01*
X142314500Y-138857339D01*
X142314500Y-138020661D01*
X142318965Y-137975326D01*
X142330399Y-137937633D01*
X142348966Y-137902897D01*
X142373952Y-137872452D01*
X142404397Y-137847466D01*
X142439133Y-137828899D01*
X142476826Y-137817465D01*
X142522161Y-137813000D01*
X143608839Y-137813000D01*
X143654174Y-137817465D01*
G37*
G36*
X141368174Y-137817465D02*
G01*
X141405867Y-137828899D01*
X141440603Y-137847466D01*
X141471048Y-137872452D01*
X141496034Y-137902897D01*
X141514601Y-137937633D01*
X141526035Y-137975326D01*
X141530500Y-138020661D01*
X141530500Y-138857339D01*
X141526035Y-138902674D01*
X141514601Y-138940367D01*
X141496034Y-138975103D01*
X141471048Y-139005548D01*
X141440603Y-139030534D01*
X141405867Y-139049101D01*
X141368174Y-139060535D01*
X141322839Y-139065000D01*
X140236161Y-139065000D01*
X140190826Y-139060535D01*
X140153133Y-139049101D01*
X140118397Y-139030534D01*
X140087952Y-139005548D01*
X140062966Y-138975103D01*
X140044399Y-138940367D01*
X140032965Y-138902674D01*
X140028500Y-138857339D01*
X140028500Y-138020661D01*
X140032965Y-137975326D01*
X140044399Y-137937633D01*
X140062966Y-137902897D01*
X140087952Y-137872452D01*
X140118397Y-137847466D01*
X140153133Y-137828899D01*
X140190826Y-137817465D01*
X140236161Y-137813000D01*
X141322839Y-137813000D01*
X141368174Y-137817465D01*
G37*
G36*
X134446674Y-135767465D02*
G01*
X134484367Y-135778899D01*
X134519103Y-135797466D01*
X134549548Y-135822452D01*
X134574534Y-135852897D01*
X134593101Y-135887633D01*
X134604535Y-135925326D01*
X134609000Y-135970661D01*
X134609000Y-136807339D01*
X134604535Y-136852674D01*
X134593101Y-136890367D01*
X134574534Y-136925103D01*
X134549548Y-136955548D01*
X134519103Y-136980534D01*
X134484367Y-136999101D01*
X134446674Y-137010535D01*
X134401339Y-137015000D01*
X133314661Y-137015000D01*
X133269326Y-137010535D01*
X133231633Y-136999101D01*
X133196897Y-136980534D01*
X133166452Y-136955548D01*
X133141466Y-136925103D01*
X133122899Y-136890367D01*
X133111465Y-136852674D01*
X133107000Y-136807339D01*
X133107000Y-135970661D01*
X133111465Y-135925326D01*
X133122899Y-135887633D01*
X133141466Y-135852897D01*
X133166452Y-135822452D01*
X133196897Y-135797466D01*
X133231633Y-135778899D01*
X133269326Y-135767465D01*
X133314661Y-135763000D01*
X134401339Y-135763000D01*
X134446674Y-135767465D01*
G37*
G36*
X136732674Y-135767465D02*
G01*
X136770367Y-135778899D01*
X136805103Y-135797466D01*
X136835548Y-135822452D01*
X136860534Y-135852897D01*
X136879101Y-135887633D01*
X136890535Y-135925326D01*
X136895000Y-135970661D01*
X136895000Y-136807339D01*
X136890535Y-136852674D01*
X136879101Y-136890367D01*
X136860534Y-136925103D01*
X136835548Y-136955548D01*
X136805103Y-136980534D01*
X136770367Y-136999101D01*
X136732674Y-137010535D01*
X136687339Y-137015000D01*
X135600661Y-137015000D01*
X135555326Y-137010535D01*
X135517633Y-136999101D01*
X135482897Y-136980534D01*
X135452452Y-136955548D01*
X135427466Y-136925103D01*
X135408899Y-136890367D01*
X135397465Y-136852674D01*
X135393000Y-136807339D01*
X135393000Y-135970661D01*
X135397465Y-135925326D01*
X135408899Y-135887633D01*
X135427466Y-135852897D01*
X135452452Y-135822452D01*
X135482897Y-135797466D01*
X135517633Y-135778899D01*
X135555326Y-135767465D01*
X135600661Y-135763000D01*
X136687339Y-135763000D01*
X136732674Y-135767465D01*
G37*
G36*
X141368174Y-135767465D02*
G01*
X141405867Y-135778899D01*
X141440603Y-135797466D01*
X141471048Y-135822452D01*
X141496034Y-135852897D01*
X141514601Y-135887633D01*
X141526035Y-135925326D01*
X141530500Y-135970661D01*
X141530500Y-136807339D01*
X141526035Y-136852674D01*
X141514601Y-136890367D01*
X141496034Y-136925103D01*
X141471048Y-136955548D01*
X141440603Y-136980534D01*
X141405867Y-136999101D01*
X141368174Y-137010535D01*
X141322839Y-137015000D01*
X140236161Y-137015000D01*
X140190826Y-137010535D01*
X140153133Y-136999101D01*
X140118397Y-136980534D01*
X140087952Y-136955548D01*
X140062966Y-136925103D01*
X140044399Y-136890367D01*
X140032965Y-136852674D01*
X140028500Y-136807339D01*
X140028500Y-135970661D01*
X140032965Y-135925326D01*
X140044399Y-135887633D01*
X140062966Y-135852897D01*
X140087952Y-135822452D01*
X140118397Y-135797466D01*
X140153133Y-135778899D01*
X140190826Y-135767465D01*
X140236161Y-135763000D01*
X141322839Y-135763000D01*
X141368174Y-135767465D01*
G37*
G36*
X143654174Y-135767465D02*
G01*
X143691867Y-135778899D01*
X143726603Y-135797466D01*
X143757048Y-135822452D01*
X143782034Y-135852897D01*
X143800601Y-135887633D01*
X143812035Y-135925326D01*
X143816500Y-135970661D01*
X143816500Y-136807339D01*
X143812035Y-136852674D01*
X143800601Y-136890367D01*
X143782034Y-136925103D01*
X143757048Y-136955548D01*
X143726603Y-136980534D01*
X143691867Y-136999101D01*
X143654174Y-137010535D01*
X143608839Y-137015000D01*
X142522161Y-137015000D01*
X142476826Y-137010535D01*
X142439133Y-136999101D01*
X142404397Y-136980534D01*
X142373952Y-136955548D01*
X142348966Y-136925103D01*
X142330399Y-136890367D01*
X142318965Y-136852674D01*
X142314500Y-136807339D01*
X142314500Y-135970661D01*
X142318965Y-135925326D01*
X142330399Y-135887633D01*
X142348966Y-135852897D01*
X142373952Y-135822452D01*
X142404397Y-135797466D01*
X142439133Y-135778899D01*
X142476826Y-135767465D01*
X142522161Y-135763000D01*
X143608839Y-135763000D01*
X143654174Y-135767465D01*
G37*
G36*
X174437500Y-136351500D02*
G01*
X173435500Y-136351500D01*
X173435500Y-135349500D01*
X174437500Y-135349500D01*
X174437500Y-136351500D01*
G37*
G36*
X147888000Y-136351500D02*
G01*
X146886000Y-136351500D01*
X146886000Y-135349500D01*
X147888000Y-135349500D01*
X147888000Y-136351500D01*
G37*
G36*
X153088000Y-136351500D02*
G01*
X152086000Y-136351500D01*
X152086000Y-135349500D01*
X153088000Y-135349500D01*
X153088000Y-136351500D01*
G37*
G36*
X149208000Y-136351500D02*
G01*
X148206000Y-136351500D01*
X148206000Y-135349500D01*
X149208000Y-135349500D01*
X149208000Y-136351500D01*
G37*
G36*
X151768000Y-136351500D02*
G01*
X150766000Y-136351500D01*
X150766000Y-135349500D01*
X151768000Y-135349500D01*
X151768000Y-136351500D01*
G37*
G36*
X150488000Y-136351500D02*
G01*
X149486000Y-136351500D01*
X149486000Y-135349500D01*
X150488000Y-135349500D01*
X150488000Y-136351500D01*
G37*
G36*
X170557500Y-136351500D02*
G01*
X169555500Y-136351500D01*
X169555500Y-135349500D01*
X170557500Y-135349500D01*
X170557500Y-136351500D01*
G37*
G36*
X171877500Y-136351500D02*
G01*
X170875500Y-136351500D01*
X170875500Y-135349500D01*
X171877500Y-135349500D01*
X171877500Y-136351500D01*
G37*
G36*
X175757500Y-136351500D02*
G01*
X174755500Y-136351500D01*
X174755500Y-135349500D01*
X175757500Y-135349500D01*
X175757500Y-136351500D01*
G37*
G36*
X173157500Y-136351500D02*
G01*
X172155500Y-136351500D01*
X172155500Y-135349500D01*
X173157500Y-135349500D01*
X173157500Y-136351500D01*
G37*
G36*
X128875728Y-133103203D02*
G01*
X129030600Y-133167353D01*
X129169981Y-133260485D01*
X129288515Y-133379019D01*
X129381647Y-133518400D01*
X129445797Y-133673272D01*
X129478500Y-133837684D01*
X129478500Y-134005316D01*
X129445797Y-134169728D01*
X129381647Y-134324600D01*
X129288515Y-134463981D01*
X129169981Y-134582515D01*
X129030600Y-134675647D01*
X128875728Y-134739797D01*
X128711316Y-134772500D01*
X128543684Y-134772500D01*
X128379272Y-134739797D01*
X128224400Y-134675647D01*
X128085019Y-134582515D01*
X127966485Y-134463981D01*
X127873353Y-134324600D01*
X127809203Y-134169728D01*
X127776500Y-134005316D01*
X127776500Y-133837684D01*
X127809203Y-133673272D01*
X127873353Y-133518400D01*
X127966485Y-133379019D01*
X128085019Y-133260485D01*
X128224400Y-133167353D01*
X128379272Y-133103203D01*
X128543684Y-133070500D01*
X128711316Y-133070500D01*
X128875728Y-133103203D01*
G37*
G36*
X131978500Y-134772500D02*
G01*
X130276500Y-134772500D01*
X130276500Y-133070500D01*
X131978500Y-133070500D01*
X131978500Y-134772500D01*
G37*
G36*
X164364000Y-133647000D02*
G01*
X157962000Y-133647000D01*
X157962000Y-132095000D01*
X164364000Y-132095000D01*
X164364000Y-133647000D01*
G37*
G36*
X175921000Y-133266000D02*
G01*
X169519000Y-133266000D01*
X169519000Y-131714000D01*
X175921000Y-131714000D01*
X175921000Y-133266000D01*
G37*
G36*
X153251500Y-133266000D02*
G01*
X146849500Y-133266000D01*
X146849500Y-131714000D01*
X153251500Y-131714000D01*
X153251500Y-133266000D01*
G37*
G36*
X136655500Y-129837000D02*
G01*
X132203500Y-129837000D01*
X132203500Y-128285000D01*
X136655500Y-128285000D01*
X136655500Y-129837000D01*
G37*
G36*
X164364000Y-127747000D02*
G01*
X157962000Y-127747000D01*
X157962000Y-126195000D01*
X164364000Y-126195000D01*
X164364000Y-127747000D01*
G37*
G36*
X175921000Y-127366000D02*
G01*
X169519000Y-127366000D01*
X169519000Y-125814000D01*
X175921000Y-125814000D01*
X175921000Y-127366000D01*
G37*
G36*
X153251500Y-127366000D02*
G01*
X146849500Y-127366000D01*
X146849500Y-125814000D01*
X153251500Y-125814000D01*
X153251500Y-127366000D01*
G37*
G36*
X138821174Y-122951465D02*
G01*
X138858867Y-122962899D01*
X138893603Y-122981466D01*
X138924048Y-123006452D01*
X138949034Y-123036897D01*
X138967601Y-123071633D01*
X138979035Y-123109326D01*
X138983500Y-123154661D01*
X138983500Y-124241339D01*
X138979035Y-124286674D01*
X138967601Y-124324367D01*
X138949034Y-124359103D01*
X138924048Y-124389548D01*
X138893603Y-124414534D01*
X138858867Y-124433101D01*
X138821174Y-124444535D01*
X138775839Y-124449000D01*
X137939161Y-124449000D01*
X137893826Y-124444535D01*
X137856133Y-124433101D01*
X137821397Y-124414534D01*
X137790952Y-124389548D01*
X137765966Y-124359103D01*
X137747399Y-124324367D01*
X137735965Y-124286674D01*
X137731500Y-124241339D01*
X137731500Y-123154661D01*
X137735965Y-123109326D01*
X137747399Y-123071633D01*
X137765966Y-123036897D01*
X137790952Y-123006452D01*
X137821397Y-122981466D01*
X137856133Y-122962899D01*
X137893826Y-122951465D01*
X137939161Y-122947000D01*
X138775839Y-122947000D01*
X138821174Y-122951465D01*
G37*
G36*
X140871174Y-122951465D02*
G01*
X140908867Y-122962899D01*
X140943603Y-122981466D01*
X140974048Y-123006452D01*
X140999034Y-123036897D01*
X141017601Y-123071633D01*
X141029035Y-123109326D01*
X141033500Y-123154661D01*
X141033500Y-124241339D01*
X141029035Y-124286674D01*
X141017601Y-124324367D01*
X140999034Y-124359103D01*
X140974048Y-124389548D01*
X140943603Y-124414534D01*
X140908867Y-124433101D01*
X140871174Y-124444535D01*
X140825839Y-124449000D01*
X139989161Y-124449000D01*
X139943826Y-124444535D01*
X139906133Y-124433101D01*
X139871397Y-124414534D01*
X139840952Y-124389548D01*
X139815966Y-124359103D01*
X139797399Y-124324367D01*
X139785965Y-124286674D01*
X139781500Y-124241339D01*
X139781500Y-123154661D01*
X139785965Y-123109326D01*
X139797399Y-123071633D01*
X139815966Y-123036897D01*
X139840952Y-123006452D01*
X139871397Y-122981466D01*
X139906133Y-122962899D01*
X139943826Y-122951465D01*
X139989161Y-122947000D01*
X140825839Y-122947000D01*
X140871174Y-122951465D01*
G37*
G36*
X136655500Y-123937000D02*
G01*
X132203500Y-123937000D01*
X132203500Y-122385000D01*
X136655500Y-122385000D01*
X136655500Y-123937000D01*
G37*
G36*
X170679487Y-122351524D02*
G01*
X170698230Y-122357210D01*
X170715497Y-122366439D01*
X170730638Y-122378865D01*
X170737875Y-122387683D01*
X170755202Y-122405010D01*
X170775576Y-122418623D01*
X170798215Y-122428001D01*
X170822248Y-122432781D01*
X170846752Y-122432781D01*
X170870785Y-122428001D01*
X170893424Y-122418623D01*
X170913799Y-122405009D01*
X170931125Y-122387683D01*
X170938362Y-122378865D01*
X170953503Y-122366439D01*
X170970770Y-122357210D01*
X170989513Y-122351524D01*
X171015140Y-122349000D01*
X171453860Y-122349000D01*
X171479487Y-122351524D01*
X171498230Y-122357210D01*
X171515497Y-122366439D01*
X171530638Y-122378865D01*
X171537875Y-122387683D01*
X171555202Y-122405010D01*
X171575576Y-122418623D01*
X171598215Y-122428001D01*
X171622248Y-122432781D01*
X171646752Y-122432781D01*
X171670785Y-122428001D01*
X171693424Y-122418623D01*
X171713799Y-122405009D01*
X171731125Y-122387683D01*
X171738362Y-122378865D01*
X171753503Y-122366439D01*
X171770770Y-122357210D01*
X171789513Y-122351524D01*
X171815140Y-122349000D01*
X172253860Y-122349000D01*
X172279487Y-122351524D01*
X172298230Y-122357210D01*
X172315497Y-122366439D01*
X172330638Y-122378865D01*
X172337875Y-122387683D01*
X172355202Y-122405010D01*
X172375576Y-122418623D01*
X172398215Y-122428001D01*
X172422248Y-122432781D01*
X172446752Y-122432781D01*
X172470785Y-122428001D01*
X172493424Y-122418623D01*
X172513799Y-122405009D01*
X172531125Y-122387683D01*
X172538362Y-122378865D01*
X172553503Y-122366439D01*
X172570770Y-122357210D01*
X172589513Y-122351524D01*
X172615140Y-122349000D01*
X173053860Y-122349000D01*
X173079487Y-122351524D01*
X173098230Y-122357210D01*
X173115497Y-122366439D01*
X173130638Y-122378865D01*
X173137875Y-122387683D01*
X173155202Y-122405010D01*
X173175576Y-122418623D01*
X173198215Y-122428001D01*
X173222248Y-122432781D01*
X173246752Y-122432781D01*
X173270785Y-122428001D01*
X173293424Y-122418623D01*
X173313799Y-122405009D01*
X173331125Y-122387683D01*
X173338362Y-122378865D01*
X173353503Y-122366439D01*
X173370770Y-122357210D01*
X173389513Y-122351524D01*
X173415140Y-122349000D01*
X173853860Y-122349000D01*
X173879487Y-122351524D01*
X173898230Y-122357210D01*
X173915497Y-122366439D01*
X173930638Y-122378865D01*
X173937875Y-122387683D01*
X173955202Y-122405010D01*
X173975576Y-122418623D01*
X173998215Y-122428001D01*
X174022248Y-122432781D01*
X174046752Y-122432781D01*
X174070785Y-122428001D01*
X174093424Y-122418623D01*
X174113799Y-122405009D01*
X174131125Y-122387683D01*
X174138362Y-122378865D01*
X174153503Y-122366439D01*
X174170770Y-122357210D01*
X174189513Y-122351524D01*
X174215140Y-122349000D01*
X174653860Y-122349000D01*
X174679487Y-122351524D01*
X174698230Y-122357210D01*
X174715497Y-122366439D01*
X174730638Y-122378865D01*
X174737875Y-122387683D01*
X174755202Y-122405010D01*
X174775576Y-122418623D01*
X174798215Y-122428001D01*
X174822248Y-122432781D01*
X174846752Y-122432781D01*
X174870785Y-122428001D01*
X174893424Y-122418623D01*
X174913799Y-122405009D01*
X174931125Y-122387683D01*
X174938362Y-122378865D01*
X174953503Y-122366439D01*
X174970770Y-122357210D01*
X174989513Y-122351524D01*
X175015140Y-122349000D01*
X175453860Y-122349000D01*
X175479487Y-122351524D01*
X175498230Y-122357210D01*
X175515497Y-122366439D01*
X175530638Y-122378865D01*
X175537875Y-122387683D01*
X175555202Y-122405010D01*
X175575576Y-122418623D01*
X175598215Y-122428001D01*
X175622248Y-122432781D01*
X175646752Y-122432781D01*
X175670785Y-122428001D01*
X175693424Y-122418623D01*
X175713799Y-122405009D01*
X175731125Y-122387683D01*
X175738362Y-122378865D01*
X175753503Y-122366439D01*
X175770770Y-122357210D01*
X175789513Y-122351524D01*
X175815140Y-122349000D01*
X176253860Y-122349000D01*
X176279487Y-122351524D01*
X176298230Y-122357210D01*
X176315497Y-122366439D01*
X176330638Y-122378865D01*
X176337875Y-122387683D01*
X176355202Y-122405010D01*
X176375576Y-122418623D01*
X176398215Y-122428001D01*
X176422248Y-122432781D01*
X176446752Y-122432781D01*
X176470785Y-122428001D01*
X176493424Y-122418623D01*
X176513799Y-122405009D01*
X176531125Y-122387683D01*
X176538362Y-122378865D01*
X176553503Y-122366439D01*
X176570770Y-122357210D01*
X176589513Y-122351524D01*
X176615140Y-122349000D01*
X177053860Y-122349000D01*
X177079487Y-122351524D01*
X177098230Y-122357210D01*
X177115497Y-122366439D01*
X177130638Y-122378865D01*
X177137875Y-122387683D01*
X177155202Y-122405010D01*
X177175576Y-122418623D01*
X177198215Y-122428001D01*
X177222248Y-122432781D01*
X177246752Y-122432781D01*
X177270785Y-122428001D01*
X177293424Y-122418623D01*
X177313799Y-122405009D01*
X177331125Y-122387683D01*
X177338362Y-122378865D01*
X177353503Y-122366439D01*
X177370770Y-122357210D01*
X177389513Y-122351524D01*
X177415140Y-122349000D01*
X177853860Y-122349000D01*
X177879487Y-122351524D01*
X177898230Y-122357210D01*
X177915497Y-122366439D01*
X177930638Y-122378865D01*
X177937875Y-122387683D01*
X177955202Y-122405010D01*
X177975576Y-122418623D01*
X177998215Y-122428001D01*
X178022248Y-122432781D01*
X178046752Y-122432781D01*
X178070785Y-122428001D01*
X178093424Y-122418623D01*
X178113799Y-122405009D01*
X178131125Y-122387683D01*
X178138362Y-122378865D01*
X178153503Y-122366439D01*
X178170770Y-122357210D01*
X178189513Y-122351524D01*
X178215140Y-122349000D01*
X178653860Y-122349000D01*
X178679487Y-122351524D01*
X178698230Y-122357210D01*
X178715497Y-122366439D01*
X178730636Y-122378864D01*
X178743061Y-122394003D01*
X178752290Y-122411270D01*
X178757976Y-122430013D01*
X178760500Y-122455640D01*
X178760500Y-123819360D01*
X178757976Y-123844987D01*
X178752290Y-123863730D01*
X178743061Y-123880997D01*
X178730636Y-123896136D01*
X178715497Y-123908561D01*
X178698230Y-123917790D01*
X178679487Y-123923476D01*
X178653860Y-123926000D01*
X178215140Y-123926000D01*
X178189513Y-123923476D01*
X178170770Y-123917790D01*
X178153503Y-123908561D01*
X178138362Y-123896135D01*
X178131125Y-123887317D01*
X178113798Y-123869990D01*
X178093424Y-123856377D01*
X178070785Y-123846999D01*
X178046752Y-123842219D01*
X178022248Y-123842219D01*
X177998215Y-123846999D01*
X177975576Y-123856377D01*
X177955201Y-123869991D01*
X177937875Y-123887317D01*
X177930638Y-123896135D01*
X177915497Y-123908561D01*
X177898230Y-123917790D01*
X177879487Y-123923476D01*
X177853860Y-123926000D01*
X177415140Y-123926000D01*
X177389513Y-123923476D01*
X177370770Y-123917790D01*
X177353503Y-123908561D01*
X177338362Y-123896135D01*
X177331125Y-123887317D01*
X177313798Y-123869990D01*
X177293424Y-123856377D01*
X177270785Y-123846999D01*
X177246752Y-123842219D01*
X177222248Y-123842219D01*
X177198215Y-123846999D01*
X177175576Y-123856377D01*
X177155201Y-123869991D01*
X177137875Y-123887317D01*
X177130638Y-123896135D01*
X177115497Y-123908561D01*
X177098230Y-123917790D01*
X177079487Y-123923476D01*
X177053860Y-123926000D01*
X176615140Y-123926000D01*
X176589513Y-123923476D01*
X176570770Y-123917790D01*
X176553503Y-123908561D01*
X176538362Y-123896135D01*
X176531125Y-123887317D01*
X176513798Y-123869990D01*
X176493424Y-123856377D01*
X176470785Y-123846999D01*
X176446752Y-123842219D01*
X176422248Y-123842219D01*
X176398215Y-123846999D01*
X176375576Y-123856377D01*
X176355201Y-123869991D01*
X176337875Y-123887317D01*
X176330638Y-123896135D01*
X176315497Y-123908561D01*
X176298230Y-123917790D01*
X176279487Y-123923476D01*
X176253860Y-123926000D01*
X175815140Y-123926000D01*
X175789513Y-123923476D01*
X175770770Y-123917790D01*
X175753503Y-123908561D01*
X175738362Y-123896135D01*
X175731125Y-123887317D01*
X175713798Y-123869990D01*
X175693424Y-123856377D01*
X175670785Y-123846999D01*
X175646752Y-123842219D01*
X175622248Y-123842219D01*
X175598215Y-123846999D01*
X175575576Y-123856377D01*
X175555201Y-123869991D01*
X175537875Y-123887317D01*
X175530638Y-123896135D01*
X175515497Y-123908561D01*
X175498230Y-123917790D01*
X175479487Y-123923476D01*
X175453860Y-123926000D01*
X175015140Y-123926000D01*
X174989513Y-123923476D01*
X174970770Y-123917790D01*
X174953503Y-123908561D01*
X174938362Y-123896135D01*
X174931125Y-123887317D01*
X174913798Y-123869990D01*
X174893424Y-123856377D01*
X174870785Y-123846999D01*
X174846752Y-123842219D01*
X174822248Y-123842219D01*
X174798215Y-123846999D01*
X174775576Y-123856377D01*
X174755201Y-123869991D01*
X174737875Y-123887317D01*
X174730638Y-123896135D01*
X174715497Y-123908561D01*
X174698230Y-123917790D01*
X174679487Y-123923476D01*
X174653860Y-123926000D01*
X174215140Y-123926000D01*
X174189513Y-123923476D01*
X174170770Y-123917790D01*
X174153503Y-123908561D01*
X174138362Y-123896135D01*
X174131125Y-123887317D01*
X174113798Y-123869990D01*
X174093424Y-123856377D01*
X174070785Y-123846999D01*
X174046752Y-123842219D01*
X174022248Y-123842219D01*
X173998215Y-123846999D01*
X173975576Y-123856377D01*
X173955201Y-123869991D01*
X173937875Y-123887317D01*
X173930638Y-123896135D01*
X173915497Y-123908561D01*
X173898230Y-123917790D01*
X173879487Y-123923476D01*
X173853860Y-123926000D01*
X173415140Y-123926000D01*
X173389513Y-123923476D01*
X173370770Y-123917790D01*
X173353503Y-123908561D01*
X173338362Y-123896135D01*
X173331125Y-123887317D01*
X173313798Y-123869990D01*
X173293424Y-123856377D01*
X173270785Y-123846999D01*
X173246752Y-123842219D01*
X173222248Y-123842219D01*
X173198215Y-123846999D01*
X173175576Y-123856377D01*
X173155201Y-123869991D01*
X173137875Y-123887317D01*
X173130638Y-123896135D01*
X173115497Y-123908561D01*
X173098230Y-123917790D01*
X173079487Y-123923476D01*
X173053860Y-123926000D01*
X172615140Y-123926000D01*
X172589513Y-123923476D01*
X172570770Y-123917790D01*
X172553503Y-123908561D01*
X172538362Y-123896135D01*
X172531125Y-123887317D01*
X172513798Y-123869990D01*
X172493424Y-123856377D01*
X172470785Y-123846999D01*
X172446752Y-123842219D01*
X172422248Y-123842219D01*
X172398215Y-123846999D01*
X172375576Y-123856377D01*
X172355201Y-123869991D01*
X172337875Y-123887317D01*
X172330638Y-123896135D01*
X172315497Y-123908561D01*
X172298230Y-123917790D01*
X172279487Y-123923476D01*
X172253860Y-123926000D01*
X171815140Y-123926000D01*
X171789513Y-123923476D01*
X171770770Y-123917790D01*
X171753503Y-123908561D01*
X171738362Y-123896135D01*
X171731125Y-123887317D01*
X171713798Y-123869990D01*
X171693424Y-123856377D01*
X171670785Y-123846999D01*
X171646752Y-123842219D01*
X171622248Y-123842219D01*
X171598215Y-123846999D01*
X171575576Y-123856377D01*
X171555201Y-123869991D01*
X171537875Y-123887317D01*
X171530638Y-123896135D01*
X171515497Y-123908561D01*
X171498230Y-123917790D01*
X171479487Y-123923476D01*
X171453860Y-123926000D01*
X171015140Y-123926000D01*
X170989513Y-123923476D01*
X170970770Y-123917790D01*
X170953503Y-123908561D01*
X170938362Y-123896135D01*
X170931125Y-123887317D01*
X170913798Y-123869990D01*
X170893424Y-123856377D01*
X170870785Y-123846999D01*
X170846752Y-123842219D01*
X170822248Y-123842219D01*
X170798215Y-123846999D01*
X170775576Y-123856377D01*
X170755201Y-123869991D01*
X170737875Y-123887317D01*
X170730638Y-123896135D01*
X170715497Y-123908561D01*
X170698230Y-123917790D01*
X170679487Y-123923476D01*
X170653860Y-123926000D01*
X170215140Y-123926000D01*
X170189513Y-123923476D01*
X170170770Y-123917790D01*
X170153503Y-123908561D01*
X170138364Y-123896136D01*
X170125939Y-123880997D01*
X170116710Y-123863730D01*
X170111024Y-123844987D01*
X170108500Y-123819360D01*
X170108500Y-122455640D01*
X170111024Y-122430013D01*
X170116710Y-122411270D01*
X170125939Y-122394003D01*
X170138364Y-122378864D01*
X170153503Y-122366439D01*
X170170770Y-122357210D01*
X170189513Y-122351524D01*
X170215140Y-122349000D01*
X170653860Y-122349000D01*
X170679487Y-122351524D01*
G37*
G36*
X169479487Y-113151524D02*
G01*
X169498230Y-113157210D01*
X169515497Y-113166439D01*
X169530636Y-113178864D01*
X169543061Y-113194003D01*
X169552290Y-113211270D01*
X169557976Y-113230013D01*
X169560500Y-113255640D01*
X169560500Y-113694360D01*
X169557976Y-113719987D01*
X169552290Y-113738730D01*
X169543061Y-113755997D01*
X169530635Y-113771138D01*
X169521817Y-113778375D01*
X169504490Y-113795702D01*
X169490877Y-113816076D01*
X169481499Y-113838715D01*
X169476719Y-113862748D01*
X169476719Y-113887252D01*
X169481499Y-113911285D01*
X169490877Y-113933924D01*
X169504491Y-113954299D01*
X169521817Y-113971625D01*
X169530635Y-113978862D01*
X169543061Y-113994003D01*
X169552290Y-114011270D01*
X169557976Y-114030013D01*
X169560500Y-114055640D01*
X169560500Y-114494360D01*
X169557976Y-114519987D01*
X169552290Y-114538730D01*
X169543061Y-114555997D01*
X169530635Y-114571138D01*
X169521817Y-114578375D01*
X169504490Y-114595702D01*
X169490877Y-114616076D01*
X169481499Y-114638715D01*
X169476719Y-114662748D01*
X169476719Y-114687252D01*
X169481499Y-114711285D01*
X169490877Y-114733924D01*
X169504491Y-114754299D01*
X169521817Y-114771625D01*
X169530635Y-114778862D01*
X169543061Y-114794003D01*
X169552290Y-114811270D01*
X169557976Y-114830013D01*
X169560500Y-114855640D01*
X169560500Y-115294360D01*
X169557976Y-115319987D01*
X169552290Y-115338730D01*
X169543061Y-115355997D01*
X169530635Y-115371138D01*
X169521817Y-115378375D01*
X169504490Y-115395702D01*
X169490877Y-115416076D01*
X169481499Y-115438715D01*
X169476719Y-115462748D01*
X169476719Y-115487252D01*
X169481499Y-115511285D01*
X169490877Y-115533924D01*
X169504491Y-115554299D01*
X169521817Y-115571625D01*
X169530635Y-115578862D01*
X169543061Y-115594003D01*
X169552290Y-115611270D01*
X169557976Y-115630013D01*
X169560500Y-115655640D01*
X169560500Y-116094360D01*
X169557976Y-116119987D01*
X169552290Y-116138730D01*
X169543061Y-116155997D01*
X169530635Y-116171138D01*
X169521817Y-116178375D01*
X169504490Y-116195702D01*
X169490877Y-116216076D01*
X169481499Y-116238715D01*
X169476719Y-116262748D01*
X169476719Y-116287252D01*
X169481499Y-116311285D01*
X169490877Y-116333924D01*
X169504491Y-116354299D01*
X169521817Y-116371625D01*
X169530635Y-116378862D01*
X169543061Y-116394003D01*
X169552290Y-116411270D01*
X169557976Y-116430013D01*
X169560500Y-116455640D01*
X169560500Y-116894360D01*
X169557976Y-116919987D01*
X169552290Y-116938730D01*
X169543061Y-116955997D01*
X169530635Y-116971138D01*
X169521817Y-116978375D01*
X169504490Y-116995702D01*
X169490877Y-117016076D01*
X169481499Y-117038715D01*
X169476719Y-117062748D01*
X169476719Y-117087252D01*
X169481499Y-117111285D01*
X169490877Y-117133924D01*
X169504491Y-117154299D01*
X169521817Y-117171625D01*
X169530635Y-117178862D01*
X169543061Y-117194003D01*
X169552290Y-117211270D01*
X169557976Y-117230013D01*
X169560500Y-117255640D01*
X169560500Y-117694360D01*
X169557976Y-117719987D01*
X169552290Y-117738730D01*
X169543061Y-117755997D01*
X169530635Y-117771138D01*
X169521817Y-117778375D01*
X169504490Y-117795702D01*
X169490877Y-117816076D01*
X169481499Y-117838715D01*
X169476719Y-117862748D01*
X169476719Y-117887252D01*
X169481499Y-117911285D01*
X169490877Y-117933924D01*
X169504491Y-117954299D01*
X169521817Y-117971625D01*
X169530635Y-117978862D01*
X169543061Y-117994003D01*
X169552290Y-118011270D01*
X169557976Y-118030013D01*
X169560500Y-118055640D01*
X169560500Y-118494360D01*
X169557976Y-118519987D01*
X169552290Y-118538730D01*
X169543061Y-118555997D01*
X169530635Y-118571138D01*
X169521817Y-118578375D01*
X169504490Y-118595702D01*
X169490877Y-118616076D01*
X169481499Y-118638715D01*
X169476719Y-118662748D01*
X169476719Y-118687252D01*
X169481499Y-118711285D01*
X169490877Y-118733924D01*
X169504491Y-118754299D01*
X169521817Y-118771625D01*
X169530635Y-118778862D01*
X169543061Y-118794003D01*
X169552290Y-118811270D01*
X169557976Y-118830013D01*
X169560500Y-118855640D01*
X169560500Y-119294360D01*
X169557976Y-119319987D01*
X169552290Y-119338730D01*
X169543061Y-119355997D01*
X169530635Y-119371138D01*
X169521817Y-119378375D01*
X169504490Y-119395702D01*
X169490877Y-119416076D01*
X169481499Y-119438715D01*
X169476719Y-119462748D01*
X169476719Y-119487252D01*
X169481499Y-119511285D01*
X169490877Y-119533924D01*
X169504491Y-119554299D01*
X169521817Y-119571625D01*
X169530635Y-119578862D01*
X169543061Y-119594003D01*
X169552290Y-119611270D01*
X169557976Y-119630013D01*
X169560500Y-119655640D01*
X169560500Y-120094360D01*
X169557976Y-120119987D01*
X169552290Y-120138730D01*
X169543061Y-120155997D01*
X169530635Y-120171138D01*
X169521817Y-120178375D01*
X169504490Y-120195702D01*
X169490877Y-120216076D01*
X169481499Y-120238715D01*
X169476719Y-120262748D01*
X169476719Y-120287252D01*
X169481499Y-120311285D01*
X169490877Y-120333924D01*
X169504491Y-120354299D01*
X169521817Y-120371625D01*
X169530635Y-120378862D01*
X169543061Y-120394003D01*
X169552290Y-120411270D01*
X169557976Y-120430013D01*
X169560500Y-120455640D01*
X169560500Y-120894360D01*
X169557976Y-120919987D01*
X169552290Y-120938730D01*
X169543061Y-120955997D01*
X169530635Y-120971138D01*
X169521817Y-120978375D01*
X169504490Y-120995702D01*
X169490877Y-121016076D01*
X169481499Y-121038715D01*
X169476719Y-121062748D01*
X169476719Y-121087252D01*
X169481499Y-121111285D01*
X169490877Y-121133924D01*
X169504491Y-121154299D01*
X169521817Y-121171625D01*
X169530635Y-121178862D01*
X169543061Y-121194003D01*
X169552290Y-121211270D01*
X169557976Y-121230013D01*
X169560500Y-121255640D01*
X169560500Y-121694360D01*
X169557976Y-121719987D01*
X169552290Y-121738730D01*
X169543061Y-121755997D01*
X169530636Y-121771136D01*
X169515497Y-121783561D01*
X169498230Y-121792790D01*
X169479487Y-121798476D01*
X169453860Y-121801000D01*
X168090140Y-121801000D01*
X168064513Y-121798476D01*
X168045770Y-121792790D01*
X168028503Y-121783561D01*
X168013364Y-121771136D01*
X168000939Y-121755997D01*
X167991710Y-121738730D01*
X167986024Y-121719987D01*
X167983500Y-121694360D01*
X167983500Y-121255640D01*
X167986024Y-121230013D01*
X167991710Y-121211270D01*
X168000939Y-121194003D01*
X168013365Y-121178862D01*
X168022183Y-121171625D01*
X168039510Y-121154298D01*
X168053123Y-121133924D01*
X168062501Y-121111285D01*
X168067281Y-121087252D01*
X168067281Y-121062748D01*
X168062501Y-121038715D01*
X168053123Y-121016076D01*
X168039509Y-120995701D01*
X168022183Y-120978375D01*
X168013365Y-120971138D01*
X168000939Y-120955997D01*
X167991710Y-120938730D01*
X167986024Y-120919987D01*
X167983500Y-120894360D01*
X167983500Y-120455640D01*
X167986024Y-120430013D01*
X167991710Y-120411270D01*
X168000939Y-120394003D01*
X168013365Y-120378862D01*
X168022183Y-120371625D01*
X168039510Y-120354298D01*
X168053123Y-120333924D01*
X168062501Y-120311285D01*
X168067281Y-120287252D01*
X168067281Y-120262748D01*
X168062501Y-120238715D01*
X168053123Y-120216076D01*
X168039509Y-120195701D01*
X168022183Y-120178375D01*
X168013365Y-120171138D01*
X168000939Y-120155997D01*
X167991710Y-120138730D01*
X167986024Y-120119987D01*
X167983500Y-120094360D01*
X167983500Y-119655640D01*
X167986024Y-119630013D01*
X167991710Y-119611270D01*
X168000939Y-119594003D01*
X168013365Y-119578862D01*
X168022183Y-119571625D01*
X168039510Y-119554298D01*
X168053123Y-119533924D01*
X168062501Y-119511285D01*
X168067281Y-119487252D01*
X168067281Y-119462748D01*
X168062501Y-119438715D01*
X168053123Y-119416076D01*
X168039509Y-119395701D01*
X168022183Y-119378375D01*
X168013365Y-119371138D01*
X168000939Y-119355997D01*
X167991710Y-119338730D01*
X167986024Y-119319987D01*
X167983500Y-119294360D01*
X167983500Y-118855640D01*
X167986024Y-118830013D01*
X167991710Y-118811270D01*
X168000939Y-118794003D01*
X168013365Y-118778862D01*
X168022183Y-118771625D01*
X168039510Y-118754298D01*
X168053123Y-118733924D01*
X168062501Y-118711285D01*
X168067281Y-118687252D01*
X168067281Y-118662748D01*
X168062501Y-118638715D01*
X168053123Y-118616076D01*
X168039509Y-118595701D01*
X168022183Y-118578375D01*
X168013365Y-118571138D01*
X168000939Y-118555997D01*
X167991710Y-118538730D01*
X167986024Y-118519987D01*
X167983500Y-118494360D01*
X167983500Y-118055640D01*
X167986024Y-118030013D01*
X167991710Y-118011270D01*
X168000939Y-117994003D01*
X168013365Y-117978862D01*
X168022183Y-117971625D01*
X168039510Y-117954298D01*
X168053123Y-117933924D01*
X168062501Y-117911285D01*
X168067281Y-117887252D01*
X168067281Y-117862748D01*
X168062501Y-117838715D01*
X168053123Y-117816076D01*
X168039509Y-117795701D01*
X168022183Y-117778375D01*
X168013365Y-117771138D01*
X168000939Y-117755997D01*
X167991710Y-117738730D01*
X167986024Y-117719987D01*
X167983500Y-117694360D01*
X167983500Y-117255640D01*
X167986024Y-117230013D01*
X167991710Y-117211270D01*
X168000939Y-117194003D01*
X168013365Y-117178862D01*
X168022183Y-117171625D01*
X168039510Y-117154298D01*
X168053123Y-117133924D01*
X168062501Y-117111285D01*
X168067281Y-117087252D01*
X168067281Y-117062748D01*
X168062501Y-117038715D01*
X168053123Y-117016076D01*
X168039509Y-116995701D01*
X168022183Y-116978375D01*
X168013365Y-116971138D01*
X168000939Y-116955997D01*
X167991710Y-116938730D01*
X167986024Y-116919987D01*
X167983500Y-116894360D01*
X167983500Y-116455640D01*
X167986024Y-116430013D01*
X167991710Y-116411270D01*
X168000939Y-116394003D01*
X168013365Y-116378862D01*
X168022183Y-116371625D01*
X168039510Y-116354298D01*
X168053123Y-116333924D01*
X168062501Y-116311285D01*
X168067281Y-116287252D01*
X168067281Y-116262748D01*
X168062501Y-116238715D01*
X168053123Y-116216076D01*
X168039509Y-116195701D01*
X168022183Y-116178375D01*
X168013365Y-116171138D01*
X168000939Y-116155997D01*
X167991710Y-116138730D01*
X167986024Y-116119987D01*
X167983500Y-116094360D01*
X167983500Y-115655640D01*
X167986024Y-115630013D01*
X167991710Y-115611270D01*
X168000939Y-115594003D01*
X168013365Y-115578862D01*
X168022183Y-115571625D01*
X168039510Y-115554298D01*
X168053123Y-115533924D01*
X168062501Y-115511285D01*
X168067281Y-115487252D01*
X168067281Y-115462748D01*
X168062501Y-115438715D01*
X168053123Y-115416076D01*
X168039509Y-115395701D01*
X168022183Y-115378375D01*
X168013365Y-115371138D01*
X168000939Y-115355997D01*
X167991710Y-115338730D01*
X167986024Y-115319987D01*
X167983500Y-115294360D01*
X167983500Y-114855640D01*
X167986024Y-114830013D01*
X167991710Y-114811270D01*
X168000939Y-114794003D01*
X168013365Y-114778862D01*
X168022183Y-114771625D01*
X168039510Y-114754298D01*
X168053123Y-114733924D01*
X168062501Y-114711285D01*
X168067281Y-114687252D01*
X168067281Y-114662748D01*
X168062501Y-114638715D01*
X168053123Y-114616076D01*
X168039509Y-114595701D01*
X168022183Y-114578375D01*
X168013365Y-114571138D01*
X168000939Y-114555997D01*
X167991710Y-114538730D01*
X167986024Y-114519987D01*
X167983500Y-114494360D01*
X167983500Y-114055640D01*
X167986024Y-114030013D01*
X167991710Y-114011270D01*
X168000939Y-113994003D01*
X168013365Y-113978862D01*
X168022183Y-113971625D01*
X168039510Y-113954298D01*
X168053123Y-113933924D01*
X168062501Y-113911285D01*
X168067281Y-113887252D01*
X168067281Y-113862748D01*
X168062501Y-113838715D01*
X168053123Y-113816076D01*
X168039509Y-113795701D01*
X168022183Y-113778375D01*
X168013365Y-113771138D01*
X168000939Y-113755997D01*
X167991710Y-113738730D01*
X167986024Y-113719987D01*
X167983500Y-113694360D01*
X167983500Y-113255640D01*
X167986024Y-113230013D01*
X167991710Y-113211270D01*
X168000939Y-113194003D01*
X168013364Y-113178864D01*
X168028503Y-113166439D01*
X168045770Y-113157210D01*
X168064513Y-113151524D01*
X168090140Y-113149000D01*
X169453860Y-113149000D01*
X169479487Y-113151524D01*
G37*
G36*
X180804487Y-113151524D02*
G01*
X180823230Y-113157210D01*
X180840497Y-113166439D01*
X180855636Y-113178864D01*
X180868061Y-113194003D01*
X180877290Y-113211270D01*
X180882976Y-113230013D01*
X180885500Y-113255640D01*
X180885500Y-113694360D01*
X180882976Y-113719987D01*
X180877290Y-113738730D01*
X180868061Y-113755997D01*
X180855635Y-113771138D01*
X180846817Y-113778375D01*
X180829490Y-113795702D01*
X180815877Y-113816076D01*
X180806499Y-113838715D01*
X180801719Y-113862748D01*
X180801719Y-113887252D01*
X180806499Y-113911285D01*
X180815877Y-113933924D01*
X180829491Y-113954299D01*
X180846817Y-113971625D01*
X180855635Y-113978862D01*
X180868061Y-113994003D01*
X180877290Y-114011270D01*
X180882976Y-114030013D01*
X180885500Y-114055640D01*
X180885500Y-114494360D01*
X180882976Y-114519987D01*
X180877290Y-114538730D01*
X180868061Y-114555997D01*
X180855635Y-114571138D01*
X180846817Y-114578375D01*
X180829490Y-114595702D01*
X180815877Y-114616076D01*
X180806499Y-114638715D01*
X180801719Y-114662748D01*
X180801719Y-114687252D01*
X180806499Y-114711285D01*
X180815877Y-114733924D01*
X180829491Y-114754299D01*
X180846817Y-114771625D01*
X180855635Y-114778862D01*
X180868061Y-114794003D01*
X180877290Y-114811270D01*
X180882976Y-114830013D01*
X180885500Y-114855640D01*
X180885500Y-115294360D01*
X180882976Y-115319987D01*
X180877290Y-115338730D01*
X180868061Y-115355997D01*
X180855635Y-115371138D01*
X180846817Y-115378375D01*
X180829490Y-115395702D01*
X180815877Y-115416076D01*
X180806499Y-115438715D01*
X180801719Y-115462748D01*
X180801719Y-115487252D01*
X180806499Y-115511285D01*
X180815877Y-115533924D01*
X180829491Y-115554299D01*
X180846817Y-115571625D01*
X180855635Y-115578862D01*
X180868061Y-115594003D01*
X180877290Y-115611270D01*
X180882976Y-115630013D01*
X180885500Y-115655640D01*
X180885500Y-116094360D01*
X180882976Y-116119987D01*
X180877290Y-116138730D01*
X180868061Y-116155997D01*
X180855635Y-116171138D01*
X180846817Y-116178375D01*
X180829490Y-116195702D01*
X180815877Y-116216076D01*
X180806499Y-116238715D01*
X180801719Y-116262748D01*
X180801719Y-116287252D01*
X180806499Y-116311285D01*
X180815877Y-116333924D01*
X180829491Y-116354299D01*
X180846817Y-116371625D01*
X180855635Y-116378862D01*
X180868061Y-116394003D01*
X180877290Y-116411270D01*
X180882976Y-116430013D01*
X180885500Y-116455640D01*
X180885500Y-116894360D01*
X180882976Y-116919987D01*
X180877290Y-116938730D01*
X180868061Y-116955997D01*
X180855635Y-116971138D01*
X180846817Y-116978375D01*
X180829490Y-116995702D01*
X180815877Y-117016076D01*
X180806499Y-117038715D01*
X180801719Y-117062748D01*
X180801719Y-117087252D01*
X180806499Y-117111285D01*
X180815877Y-117133924D01*
X180829491Y-117154299D01*
X180846817Y-117171625D01*
X180855635Y-117178862D01*
X180868061Y-117194003D01*
X180877290Y-117211270D01*
X180882976Y-117230013D01*
X180885500Y-117255640D01*
X180885500Y-117694360D01*
X180882976Y-117719987D01*
X180877290Y-117738730D01*
X180868061Y-117755997D01*
X180855635Y-117771138D01*
X180846817Y-117778375D01*
X180829490Y-117795702D01*
X180815877Y-117816076D01*
X180806499Y-117838715D01*
X180801719Y-117862748D01*
X180801719Y-117887252D01*
X180806499Y-117911285D01*
X180815877Y-117933924D01*
X180829491Y-117954299D01*
X180846817Y-117971625D01*
X180855635Y-117978862D01*
X180868061Y-117994003D01*
X180877290Y-118011270D01*
X180882976Y-118030013D01*
X180885500Y-118055640D01*
X180885500Y-118494360D01*
X180882976Y-118519987D01*
X180877290Y-118538730D01*
X180868061Y-118555997D01*
X180855635Y-118571138D01*
X180846817Y-118578375D01*
X180829490Y-118595702D01*
X180815877Y-118616076D01*
X180806499Y-118638715D01*
X180801719Y-118662748D01*
X180801719Y-118687252D01*
X180806499Y-118711285D01*
X180815877Y-118733924D01*
X180829491Y-118754299D01*
X180846817Y-118771625D01*
X180855635Y-118778862D01*
X180868061Y-118794003D01*
X180877290Y-118811270D01*
X180882976Y-118830013D01*
X180885500Y-118855640D01*
X180885500Y-119294360D01*
X180882976Y-119319987D01*
X180877290Y-119338730D01*
X180868061Y-119355997D01*
X180855635Y-119371138D01*
X180846817Y-119378375D01*
X180829490Y-119395702D01*
X180815877Y-119416076D01*
X180806499Y-119438715D01*
X180801719Y-119462748D01*
X180801719Y-119487252D01*
X180806499Y-119511285D01*
X180815877Y-119533924D01*
X180829491Y-119554299D01*
X180846817Y-119571625D01*
X180855635Y-119578862D01*
X180868061Y-119594003D01*
X180877290Y-119611270D01*
X180882976Y-119630013D01*
X180885500Y-119655640D01*
X180885500Y-120094360D01*
X180882976Y-120119987D01*
X180877290Y-120138730D01*
X180868061Y-120155997D01*
X180855635Y-120171138D01*
X180846817Y-120178375D01*
X180829490Y-120195702D01*
X180815877Y-120216076D01*
X180806499Y-120238715D01*
X180801719Y-120262748D01*
X180801719Y-120287252D01*
X180806499Y-120311285D01*
X180815877Y-120333924D01*
X180829491Y-120354299D01*
X180846817Y-120371625D01*
X180855635Y-120378862D01*
X180868061Y-120394003D01*
X180877290Y-120411270D01*
X180882976Y-120430013D01*
X180885500Y-120455640D01*
X180885500Y-120894360D01*
X180882976Y-120919987D01*
X180877290Y-120938730D01*
X180868061Y-120955997D01*
X180855635Y-120971138D01*
X180846817Y-120978375D01*
X180829490Y-120995702D01*
X180815877Y-121016076D01*
X180806499Y-121038715D01*
X180801719Y-121062748D01*
X180801719Y-121087252D01*
X180806499Y-121111285D01*
X180815877Y-121133924D01*
X180829491Y-121154299D01*
X180846817Y-121171625D01*
X180855635Y-121178862D01*
X180868061Y-121194003D01*
X180877290Y-121211270D01*
X180882976Y-121230013D01*
X180885500Y-121255640D01*
X180885500Y-121694360D01*
X180882976Y-121719987D01*
X180877290Y-121738730D01*
X180868061Y-121755997D01*
X180855636Y-121771136D01*
X180840497Y-121783561D01*
X180823230Y-121792790D01*
X180804487Y-121798476D01*
X180778860Y-121801000D01*
X179415140Y-121801000D01*
X179389513Y-121798476D01*
X179370770Y-121792790D01*
X179353503Y-121783561D01*
X179338364Y-121771136D01*
X179325939Y-121755997D01*
X179316710Y-121738730D01*
X179311024Y-121719987D01*
X179308500Y-121694360D01*
X179308500Y-121255640D01*
X179311024Y-121230013D01*
X179316710Y-121211270D01*
X179325939Y-121194003D01*
X179338365Y-121178862D01*
X179347183Y-121171625D01*
X179364510Y-121154298D01*
X179378123Y-121133924D01*
X179387501Y-121111285D01*
X179392281Y-121087252D01*
X179392281Y-121062748D01*
X179387501Y-121038715D01*
X179378123Y-121016076D01*
X179364509Y-120995701D01*
X179347183Y-120978375D01*
X179338365Y-120971138D01*
X179325939Y-120955997D01*
X179316710Y-120938730D01*
X179311024Y-120919987D01*
X179308500Y-120894360D01*
X179308500Y-120455640D01*
X179311024Y-120430013D01*
X179316710Y-120411270D01*
X179325939Y-120394003D01*
X179338365Y-120378862D01*
X179347183Y-120371625D01*
X179364510Y-120354298D01*
X179378123Y-120333924D01*
X179387501Y-120311285D01*
X179392281Y-120287252D01*
X179392281Y-120262748D01*
X179387501Y-120238715D01*
X179378123Y-120216076D01*
X179364509Y-120195701D01*
X179347183Y-120178375D01*
X179338365Y-120171138D01*
X179325939Y-120155997D01*
X179316710Y-120138730D01*
X179311024Y-120119987D01*
X179308500Y-120094360D01*
X179308500Y-119655640D01*
X179311024Y-119630013D01*
X179316710Y-119611270D01*
X179325939Y-119594003D01*
X179338365Y-119578862D01*
X179347183Y-119571625D01*
X179364510Y-119554298D01*
X179378123Y-119533924D01*
X179387501Y-119511285D01*
X179392281Y-119487252D01*
X179392281Y-119462748D01*
X179387501Y-119438715D01*
X179378123Y-119416076D01*
X179364509Y-119395701D01*
X179347183Y-119378375D01*
X179338365Y-119371138D01*
X179325939Y-119355997D01*
X179316710Y-119338730D01*
X179311024Y-119319987D01*
X179308500Y-119294360D01*
X179308500Y-118855640D01*
X179311024Y-118830013D01*
X179316710Y-118811270D01*
X179325939Y-118794003D01*
X179338365Y-118778862D01*
X179347183Y-118771625D01*
X179364510Y-118754298D01*
X179378123Y-118733924D01*
X179387501Y-118711285D01*
X179392281Y-118687252D01*
X179392281Y-118662748D01*
X179387501Y-118638715D01*
X179378123Y-118616076D01*
X179364509Y-118595701D01*
X179347183Y-118578375D01*
X179338365Y-118571138D01*
X179325939Y-118555997D01*
X179316710Y-118538730D01*
X179311024Y-118519987D01*
X179308500Y-118494360D01*
X179308500Y-118055640D01*
X179311024Y-118030013D01*
X179316710Y-118011270D01*
X179325939Y-117994003D01*
X179338365Y-117978862D01*
X179347183Y-117971625D01*
X179364510Y-117954298D01*
X179378123Y-117933924D01*
X179387501Y-117911285D01*
X179392281Y-117887252D01*
X179392281Y-117862748D01*
X179387501Y-117838715D01*
X179378123Y-117816076D01*
X179364509Y-117795701D01*
X179347183Y-117778375D01*
X179338365Y-117771138D01*
X179325939Y-117755997D01*
X179316710Y-117738730D01*
X179311024Y-117719987D01*
X179308500Y-117694360D01*
X179308500Y-117255640D01*
X179311024Y-117230013D01*
X179316710Y-117211270D01*
X179325939Y-117194003D01*
X179338365Y-117178862D01*
X179347183Y-117171625D01*
X179364510Y-117154298D01*
X179378123Y-117133924D01*
X179387501Y-117111285D01*
X179392281Y-117087252D01*
X179392281Y-117062748D01*
X179387501Y-117038715D01*
X179378123Y-117016076D01*
X179364509Y-116995701D01*
X179347183Y-116978375D01*
X179338365Y-116971138D01*
X179325939Y-116955997D01*
X179316710Y-116938730D01*
X179311024Y-116919987D01*
X179308500Y-116894360D01*
X179308500Y-116455640D01*
X179311024Y-116430013D01*
X179316710Y-116411270D01*
X179325939Y-116394003D01*
X179338365Y-116378862D01*
X179347183Y-116371625D01*
X179364510Y-116354298D01*
X179378123Y-116333924D01*
X179387501Y-116311285D01*
X179392281Y-116287252D01*
X179392281Y-116262748D01*
X179387501Y-116238715D01*
X179378123Y-116216076D01*
X179364509Y-116195701D01*
X179347183Y-116178375D01*
X179338365Y-116171138D01*
X179325939Y-116155997D01*
X179316710Y-116138730D01*
X179311024Y-116119987D01*
X179308500Y-116094360D01*
X179308500Y-115655640D01*
X179311024Y-115630013D01*
X179316710Y-115611270D01*
X179325939Y-115594003D01*
X179338365Y-115578862D01*
X179347183Y-115571625D01*
X179364510Y-115554298D01*
X179378123Y-115533924D01*
X179387501Y-115511285D01*
X179392281Y-115487252D01*
X179392281Y-115462748D01*
X179387501Y-115438715D01*
X179378123Y-115416076D01*
X179364509Y-115395701D01*
X179347183Y-115378375D01*
X179338365Y-115371138D01*
X179325939Y-115355997D01*
X179316710Y-115338730D01*
X179311024Y-115319987D01*
X179308500Y-115294360D01*
X179308500Y-114855640D01*
X179311024Y-114830013D01*
X179316710Y-114811270D01*
X179325939Y-114794003D01*
X179338365Y-114778862D01*
X179347183Y-114771625D01*
X179364510Y-114754298D01*
X179378123Y-114733924D01*
X179387501Y-114711285D01*
X179392281Y-114687252D01*
X179392281Y-114662748D01*
X179387501Y-114638715D01*
X179378123Y-114616076D01*
X179364509Y-114595701D01*
X179347183Y-114578375D01*
X179338365Y-114571138D01*
X179325939Y-114555997D01*
X179316710Y-114538730D01*
X179311024Y-114519987D01*
X179308500Y-114494360D01*
X179308500Y-114055640D01*
X179311024Y-114030013D01*
X179316710Y-114011270D01*
X179325939Y-113994003D01*
X179338365Y-113978862D01*
X179347183Y-113971625D01*
X179364510Y-113954298D01*
X179378123Y-113933924D01*
X179387501Y-113911285D01*
X179392281Y-113887252D01*
X179392281Y-113862748D01*
X179387501Y-113838715D01*
X179378123Y-113816076D01*
X179364509Y-113795701D01*
X179347183Y-113778375D01*
X179338365Y-113771138D01*
X179325939Y-113755997D01*
X179316710Y-113738730D01*
X179311024Y-113719987D01*
X179308500Y-113694360D01*
X179308500Y-113255640D01*
X179311024Y-113230013D01*
X179316710Y-113211270D01*
X179325939Y-113194003D01*
X179338364Y-113178864D01*
X179353503Y-113166439D01*
X179370770Y-113157210D01*
X179389513Y-113151524D01*
X179415140Y-113149000D01*
X180778860Y-113149000D01*
X180804487Y-113151524D01*
G37*
G36*
X151140174Y-115966465D02*
G01*
X151177867Y-115977899D01*
X151212603Y-115996466D01*
X151243048Y-116021452D01*
X151268034Y-116051897D01*
X151286601Y-116086633D01*
X151298035Y-116124326D01*
X151302500Y-116169661D01*
X151302500Y-117256339D01*
X151298035Y-117301674D01*
X151286601Y-117339367D01*
X151268034Y-117374103D01*
X151243048Y-117404548D01*
X151212603Y-117429534D01*
X151177867Y-117448101D01*
X151140174Y-117459535D01*
X151094839Y-117464000D01*
X150258161Y-117464000D01*
X150212826Y-117459535D01*
X150175133Y-117448101D01*
X150140397Y-117429534D01*
X150109952Y-117404548D01*
X150084966Y-117374103D01*
X150066399Y-117339367D01*
X150054965Y-117301674D01*
X150050500Y-117256339D01*
X150050500Y-116169661D01*
X150054965Y-116124326D01*
X150066399Y-116086633D01*
X150084966Y-116051897D01*
X150109952Y-116021452D01*
X150140397Y-115996466D01*
X150175133Y-115977899D01*
X150212826Y-115966465D01*
X150258161Y-115962000D01*
X151094839Y-115962000D01*
X151140174Y-115966465D01*
G37*
G36*
X153190174Y-115966465D02*
G01*
X153227867Y-115977899D01*
X153262603Y-115996466D01*
X153293048Y-116021452D01*
X153318034Y-116051897D01*
X153336601Y-116086633D01*
X153348035Y-116124326D01*
X153352500Y-116169661D01*
X153352500Y-117256339D01*
X153348035Y-117301674D01*
X153336601Y-117339367D01*
X153318034Y-117374103D01*
X153293048Y-117404548D01*
X153262603Y-117429534D01*
X153227867Y-117448101D01*
X153190174Y-117459535D01*
X153144839Y-117464000D01*
X152308161Y-117464000D01*
X152262826Y-117459535D01*
X152225133Y-117448101D01*
X152190397Y-117429534D01*
X152159952Y-117404548D01*
X152134966Y-117374103D01*
X152116399Y-117339367D01*
X152104965Y-117301674D01*
X152100500Y-117256339D01*
X152100500Y-116169661D01*
X152104965Y-116124326D01*
X152116399Y-116086633D01*
X152134966Y-116051897D01*
X152159952Y-116021452D01*
X152190397Y-115996466D01*
X152225133Y-115977899D01*
X152262826Y-115966465D01*
X152308161Y-115962000D01*
X153144839Y-115962000D01*
X153190174Y-115966465D01*
G37*
G36*
X146384674Y-115528965D02*
G01*
X146422367Y-115540399D01*
X146457103Y-115558966D01*
X146487548Y-115583952D01*
X146512534Y-115614397D01*
X146531101Y-115649133D01*
X146542535Y-115686826D01*
X146547000Y-115732161D01*
X146547000Y-116568839D01*
X146542535Y-116614174D01*
X146531101Y-116651867D01*
X146512534Y-116686603D01*
X146487548Y-116717048D01*
X146457103Y-116742034D01*
X146422367Y-116760601D01*
X146384674Y-116772035D01*
X146339339Y-116776500D01*
X145252661Y-116776500D01*
X145207326Y-116772035D01*
X145169633Y-116760601D01*
X145134897Y-116742034D01*
X145104452Y-116717048D01*
X145079466Y-116686603D01*
X145060899Y-116651867D01*
X145049465Y-116614174D01*
X145045000Y-116568839D01*
X145045000Y-115732161D01*
X145049465Y-115686826D01*
X145060899Y-115649133D01*
X145079466Y-115614397D01*
X145104452Y-115583952D01*
X145134897Y-115558966D01*
X145169633Y-115540399D01*
X145207326Y-115528965D01*
X145252661Y-115524500D01*
X146339339Y-115524500D01*
X146384674Y-115528965D01*
G37*
G36*
X146384674Y-113478965D02*
G01*
X146422367Y-113490399D01*
X146457103Y-113508966D01*
X146487548Y-113533952D01*
X146512534Y-113564397D01*
X146531101Y-113599133D01*
X146542535Y-113636826D01*
X146547000Y-113682161D01*
X146547000Y-114518839D01*
X146542535Y-114564174D01*
X146531101Y-114601867D01*
X146512534Y-114636603D01*
X146487548Y-114667048D01*
X146457103Y-114692034D01*
X146422367Y-114710601D01*
X146384674Y-114722035D01*
X146339339Y-114726500D01*
X145252661Y-114726500D01*
X145207326Y-114722035D01*
X145169633Y-114710601D01*
X145134897Y-114692034D01*
X145104452Y-114667048D01*
X145079466Y-114636603D01*
X145060899Y-114601867D01*
X145049465Y-114564174D01*
X145045000Y-114518839D01*
X145045000Y-113682161D01*
X145049465Y-113636826D01*
X145060899Y-113599133D01*
X145079466Y-113564397D01*
X145104452Y-113533952D01*
X145134897Y-113508966D01*
X145169633Y-113490399D01*
X145207326Y-113478965D01*
X145252661Y-113474500D01*
X146339339Y-113474500D01*
X146384674Y-113478965D01*
G37*
G36*
X162196174Y-112362965D02*
G01*
X162233867Y-112374399D01*
X162268603Y-112392966D01*
X162299048Y-112417952D01*
X162324034Y-112448397D01*
X162342601Y-112483133D01*
X162354035Y-112520826D01*
X162358500Y-112566161D01*
X162358500Y-113402839D01*
X162354035Y-113448174D01*
X162342601Y-113485867D01*
X162324034Y-113520603D01*
X162299048Y-113551048D01*
X162268603Y-113576034D01*
X162233867Y-113594601D01*
X162196174Y-113606035D01*
X162150839Y-113610500D01*
X161064161Y-113610500D01*
X161018826Y-113606035D01*
X160981133Y-113594601D01*
X160946397Y-113576034D01*
X160915952Y-113551048D01*
X160890966Y-113520603D01*
X160872399Y-113485867D01*
X160860965Y-113448174D01*
X160856500Y-113402839D01*
X160856500Y-112566161D01*
X160860965Y-112520826D01*
X160872399Y-112483133D01*
X160890966Y-112448397D01*
X160915952Y-112417952D01*
X160946397Y-112392966D01*
X160981133Y-112374399D01*
X161018826Y-112362965D01*
X161064161Y-112358500D01*
X162150839Y-112358500D01*
X162196174Y-112362965D01*
G37*
G36*
X170679487Y-111026524D02*
G01*
X170698230Y-111032210D01*
X170715497Y-111041439D01*
X170730638Y-111053865D01*
X170737875Y-111062683D01*
X170755202Y-111080010D01*
X170775576Y-111093623D01*
X170798215Y-111103001D01*
X170822248Y-111107781D01*
X170846752Y-111107781D01*
X170870785Y-111103001D01*
X170893424Y-111093623D01*
X170913799Y-111080009D01*
X170931125Y-111062683D01*
X170938362Y-111053865D01*
X170953503Y-111041439D01*
X170970770Y-111032210D01*
X170989513Y-111026524D01*
X171015140Y-111024000D01*
X171453860Y-111024000D01*
X171479487Y-111026524D01*
X171498230Y-111032210D01*
X171515497Y-111041439D01*
X171530638Y-111053865D01*
X171537875Y-111062683D01*
X171555202Y-111080010D01*
X171575576Y-111093623D01*
X171598215Y-111103001D01*
X171622248Y-111107781D01*
X171646752Y-111107781D01*
X171670785Y-111103001D01*
X171693424Y-111093623D01*
X171713799Y-111080009D01*
X171731125Y-111062683D01*
X171738362Y-111053865D01*
X171753503Y-111041439D01*
X171770770Y-111032210D01*
X171789513Y-111026524D01*
X171815140Y-111024000D01*
X172253860Y-111024000D01*
X172279487Y-111026524D01*
X172298230Y-111032210D01*
X172315497Y-111041439D01*
X172330638Y-111053865D01*
X172337875Y-111062683D01*
X172355202Y-111080010D01*
X172375576Y-111093623D01*
X172398215Y-111103001D01*
X172422248Y-111107781D01*
X172446752Y-111107781D01*
X172470785Y-111103001D01*
X172493424Y-111093623D01*
X172513799Y-111080009D01*
X172531125Y-111062683D01*
X172538362Y-111053865D01*
X172553503Y-111041439D01*
X172570770Y-111032210D01*
X172589513Y-111026524D01*
X172615140Y-111024000D01*
X173053860Y-111024000D01*
X173079487Y-111026524D01*
X173098230Y-111032210D01*
X173115497Y-111041439D01*
X173130638Y-111053865D01*
X173137875Y-111062683D01*
X173155202Y-111080010D01*
X173175576Y-111093623D01*
X173198215Y-111103001D01*
X173222248Y-111107781D01*
X173246752Y-111107781D01*
X173270785Y-111103001D01*
X173293424Y-111093623D01*
X173313799Y-111080009D01*
X173331125Y-111062683D01*
X173338362Y-111053865D01*
X173353503Y-111041439D01*
X173370770Y-111032210D01*
X173389513Y-111026524D01*
X173415140Y-111024000D01*
X173853860Y-111024000D01*
X173879487Y-111026524D01*
X173898230Y-111032210D01*
X173915497Y-111041439D01*
X173930638Y-111053865D01*
X173937875Y-111062683D01*
X173955202Y-111080010D01*
X173975576Y-111093623D01*
X173998215Y-111103001D01*
X174022248Y-111107781D01*
X174046752Y-111107781D01*
X174070785Y-111103001D01*
X174093424Y-111093623D01*
X174113799Y-111080009D01*
X174131125Y-111062683D01*
X174138362Y-111053865D01*
X174153503Y-111041439D01*
X174170770Y-111032210D01*
X174189513Y-111026524D01*
X174215140Y-111024000D01*
X174653860Y-111024000D01*
X174679487Y-111026524D01*
X174698230Y-111032210D01*
X174715497Y-111041439D01*
X174730638Y-111053865D01*
X174737875Y-111062683D01*
X174755202Y-111080010D01*
X174775576Y-111093623D01*
X174798215Y-111103001D01*
X174822248Y-111107781D01*
X174846752Y-111107781D01*
X174870785Y-111103001D01*
X174893424Y-111093623D01*
X174913799Y-111080009D01*
X174931125Y-111062683D01*
X174938362Y-111053865D01*
X174953503Y-111041439D01*
X174970770Y-111032210D01*
X174989513Y-111026524D01*
X175015140Y-111024000D01*
X175453860Y-111024000D01*
X175479487Y-111026524D01*
X175498230Y-111032210D01*
X175515497Y-111041439D01*
X175530638Y-111053865D01*
X175537875Y-111062683D01*
X175555202Y-111080010D01*
X175575576Y-111093623D01*
X175598215Y-111103001D01*
X175622248Y-111107781D01*
X175646752Y-111107781D01*
X175670785Y-111103001D01*
X175693424Y-111093623D01*
X175713799Y-111080009D01*
X175731125Y-111062683D01*
X175738362Y-111053865D01*
X175753503Y-111041439D01*
X175770770Y-111032210D01*
X175789513Y-111026524D01*
X175815140Y-111024000D01*
X176253860Y-111024000D01*
X176279487Y-111026524D01*
X176298230Y-111032210D01*
X176315497Y-111041439D01*
X176330638Y-111053865D01*
X176337875Y-111062683D01*
X176355202Y-111080010D01*
X176375576Y-111093623D01*
X176398215Y-111103001D01*
X176422248Y-111107781D01*
X176446752Y-111107781D01*
X176470785Y-111103001D01*
X176493424Y-111093623D01*
X176513799Y-111080009D01*
X176531125Y-111062683D01*
X176538362Y-111053865D01*
X176553503Y-111041439D01*
X176570770Y-111032210D01*
X176589513Y-111026524D01*
X176615140Y-111024000D01*
X177053860Y-111024000D01*
X177079487Y-111026524D01*
X177098230Y-111032210D01*
X177115497Y-111041439D01*
X177130638Y-111053865D01*
X177137875Y-111062683D01*
X177155202Y-111080010D01*
X177175576Y-111093623D01*
X177198215Y-111103001D01*
X177222248Y-111107781D01*
X177246752Y-111107781D01*
X177270785Y-111103001D01*
X177293424Y-111093623D01*
X177313799Y-111080009D01*
X177331125Y-111062683D01*
X177338362Y-111053865D01*
X177353503Y-111041439D01*
X177370770Y-111032210D01*
X177389513Y-111026524D01*
X177415140Y-111024000D01*
X177853860Y-111024000D01*
X177879487Y-111026524D01*
X177898230Y-111032210D01*
X177915497Y-111041439D01*
X177930638Y-111053865D01*
X177937875Y-111062683D01*
X177955202Y-111080010D01*
X177975576Y-111093623D01*
X177998215Y-111103001D01*
X178022248Y-111107781D01*
X178046752Y-111107781D01*
X178070785Y-111103001D01*
X178093424Y-111093623D01*
X178113799Y-111080009D01*
X178131125Y-111062683D01*
X178138362Y-111053865D01*
X178153503Y-111041439D01*
X178170770Y-111032210D01*
X178189513Y-111026524D01*
X178215140Y-111024000D01*
X178653860Y-111024000D01*
X178679487Y-111026524D01*
X178698230Y-111032210D01*
X178715497Y-111041439D01*
X178730636Y-111053864D01*
X178743061Y-111069003D01*
X178752290Y-111086270D01*
X178757976Y-111105013D01*
X178760500Y-111130640D01*
X178760500Y-112494360D01*
X178757976Y-112519987D01*
X178752290Y-112538730D01*
X178743061Y-112555997D01*
X178730636Y-112571136D01*
X178715497Y-112583561D01*
X178698230Y-112592790D01*
X178679487Y-112598476D01*
X178653860Y-112601000D01*
X178215140Y-112601000D01*
X178189513Y-112598476D01*
X178170770Y-112592790D01*
X178153503Y-112583561D01*
X178138362Y-112571135D01*
X178131125Y-112562317D01*
X178113798Y-112544990D01*
X178093424Y-112531377D01*
X178070785Y-112521999D01*
X178046752Y-112517219D01*
X178022248Y-112517219D01*
X177998215Y-112521999D01*
X177975576Y-112531377D01*
X177955201Y-112544991D01*
X177937875Y-112562317D01*
X177930638Y-112571135D01*
X177915497Y-112583561D01*
X177898230Y-112592790D01*
X177879487Y-112598476D01*
X177853860Y-112601000D01*
X177415140Y-112601000D01*
X177389513Y-112598476D01*
X177370770Y-112592790D01*
X177353503Y-112583561D01*
X177338362Y-112571135D01*
X177331125Y-112562317D01*
X177313798Y-112544990D01*
X177293424Y-112531377D01*
X177270785Y-112521999D01*
X177246752Y-112517219D01*
X177222248Y-112517219D01*
X177198215Y-112521999D01*
X177175576Y-112531377D01*
X177155201Y-112544991D01*
X177137875Y-112562317D01*
X177130638Y-112571135D01*
X177115497Y-112583561D01*
X177098230Y-112592790D01*
X177079487Y-112598476D01*
X177053860Y-112601000D01*
X176615140Y-112601000D01*
X176589513Y-112598476D01*
X176570770Y-112592790D01*
X176553503Y-112583561D01*
X176538362Y-112571135D01*
X176531125Y-112562317D01*
X176513798Y-112544990D01*
X176493424Y-112531377D01*
X176470785Y-112521999D01*
X176446752Y-112517219D01*
X176422248Y-112517219D01*
X176398215Y-112521999D01*
X176375576Y-112531377D01*
X176355201Y-112544991D01*
X176337875Y-112562317D01*
X176330638Y-112571135D01*
X176315497Y-112583561D01*
X176298230Y-112592790D01*
X176279487Y-112598476D01*
X176253860Y-112601000D01*
X175815140Y-112601000D01*
X175789513Y-112598476D01*
X175770770Y-112592790D01*
X175753503Y-112583561D01*
X175738362Y-112571135D01*
X175731125Y-112562317D01*
X175713798Y-112544990D01*
X175693424Y-112531377D01*
X175670785Y-112521999D01*
X175646752Y-112517219D01*
X175622248Y-112517219D01*
X175598215Y-112521999D01*
X175575576Y-112531377D01*
X175555201Y-112544991D01*
X175537875Y-112562317D01*
X175530638Y-112571135D01*
X175515497Y-112583561D01*
X175498230Y-112592790D01*
X175479487Y-112598476D01*
X175453860Y-112601000D01*
X175015140Y-112601000D01*
X174989513Y-112598476D01*
X174970770Y-112592790D01*
X174953503Y-112583561D01*
X174938362Y-112571135D01*
X174931125Y-112562317D01*
X174913798Y-112544990D01*
X174893424Y-112531377D01*
X174870785Y-112521999D01*
X174846752Y-112517219D01*
X174822248Y-112517219D01*
X174798215Y-112521999D01*
X174775576Y-112531377D01*
X174755201Y-112544991D01*
X174737875Y-112562317D01*
X174730638Y-112571135D01*
X174715497Y-112583561D01*
X174698230Y-112592790D01*
X174679487Y-112598476D01*
X174653860Y-112601000D01*
X174215140Y-112601000D01*
X174189513Y-112598476D01*
X174170770Y-112592790D01*
X174153503Y-112583561D01*
X174138362Y-112571135D01*
X174131125Y-112562317D01*
X174113798Y-112544990D01*
X174093424Y-112531377D01*
X174070785Y-112521999D01*
X174046752Y-112517219D01*
X174022248Y-112517219D01*
X173998215Y-112521999D01*
X173975576Y-112531377D01*
X173955201Y-112544991D01*
X173937875Y-112562317D01*
X173930638Y-112571135D01*
X173915497Y-112583561D01*
X173898230Y-112592790D01*
X173879487Y-112598476D01*
X173853860Y-112601000D01*
X173415140Y-112601000D01*
X173389513Y-112598476D01*
X173370770Y-112592790D01*
X173353503Y-112583561D01*
X173338362Y-112571135D01*
X173331125Y-112562317D01*
X173313798Y-112544990D01*
X173293424Y-112531377D01*
X173270785Y-112521999D01*
X173246752Y-112517219D01*
X173222248Y-112517219D01*
X173198215Y-112521999D01*
X173175576Y-112531377D01*
X173155201Y-112544991D01*
X173137875Y-112562317D01*
X173130638Y-112571135D01*
X173115497Y-112583561D01*
X173098230Y-112592790D01*
X173079487Y-112598476D01*
X173053860Y-112601000D01*
X172615140Y-112601000D01*
X172589513Y-112598476D01*
X172570770Y-112592790D01*
X172553503Y-112583561D01*
X172538362Y-112571135D01*
X172531125Y-112562317D01*
X172513798Y-112544990D01*
X172493424Y-112531377D01*
X172470785Y-112521999D01*
X172446752Y-112517219D01*
X172422248Y-112517219D01*
X172398215Y-112521999D01*
X172375576Y-112531377D01*
X172355201Y-112544991D01*
X172337875Y-112562317D01*
X172330638Y-112571135D01*
X172315497Y-112583561D01*
X172298230Y-112592790D01*
X172279487Y-112598476D01*
X172253860Y-112601000D01*
X171815140Y-112601000D01*
X171789513Y-112598476D01*
X171770770Y-112592790D01*
X171753503Y-112583561D01*
X171738362Y-112571135D01*
X171731125Y-112562317D01*
X171713798Y-112544990D01*
X171693424Y-112531377D01*
X171670785Y-112521999D01*
X171646752Y-112517219D01*
X171622248Y-112517219D01*
X171598215Y-112521999D01*
X171575576Y-112531377D01*
X171555201Y-112544991D01*
X171537875Y-112562317D01*
X171530638Y-112571135D01*
X171515497Y-112583561D01*
X171498230Y-112592790D01*
X171479487Y-112598476D01*
X171453860Y-112601000D01*
X171015140Y-112601000D01*
X170989513Y-112598476D01*
X170970770Y-112592790D01*
X170953503Y-112583561D01*
X170938362Y-112571135D01*
X170931125Y-112562317D01*
X170913798Y-112544990D01*
X170893424Y-112531377D01*
X170870785Y-112521999D01*
X170846752Y-112517219D01*
X170822248Y-112517219D01*
X170798215Y-112521999D01*
X170775576Y-112531377D01*
X170755201Y-112544991D01*
X170737875Y-112562317D01*
X170730638Y-112571135D01*
X170715497Y-112583561D01*
X170698230Y-112592790D01*
X170679487Y-112598476D01*
X170653860Y-112601000D01*
X170215140Y-112601000D01*
X170189513Y-112598476D01*
X170170770Y-112592790D01*
X170153503Y-112583561D01*
X170138364Y-112571136D01*
X170125939Y-112555997D01*
X170116710Y-112538730D01*
X170111024Y-112519987D01*
X170108500Y-112494360D01*
X170108500Y-111130640D01*
X170111024Y-111105013D01*
X170116710Y-111086270D01*
X170125939Y-111069003D01*
X170138364Y-111053864D01*
X170153503Y-111041439D01*
X170170770Y-111032210D01*
X170189513Y-111026524D01*
X170215140Y-111024000D01*
X170653860Y-111024000D01*
X170679487Y-111026524D01*
G37*
G36*
X162196174Y-110312965D02*
G01*
X162233867Y-110324399D01*
X162268603Y-110342966D01*
X162299048Y-110367952D01*
X162324034Y-110398397D01*
X162342601Y-110433133D01*
X162354035Y-110470826D01*
X162358500Y-110516161D01*
X162358500Y-111352839D01*
X162354035Y-111398174D01*
X162342601Y-111435867D01*
X162324034Y-111470603D01*
X162299048Y-111501048D01*
X162268603Y-111526034D01*
X162233867Y-111544601D01*
X162196174Y-111556035D01*
X162150839Y-111560500D01*
X161064161Y-111560500D01*
X161018826Y-111556035D01*
X160981133Y-111544601D01*
X160946397Y-111526034D01*
X160915952Y-111501048D01*
X160890966Y-111470603D01*
X160872399Y-111435867D01*
X160860965Y-111398174D01*
X160856500Y-111352839D01*
X160856500Y-110516161D01*
X160860965Y-110470826D01*
X160872399Y-110433133D01*
X160890966Y-110398397D01*
X160915952Y-110367952D01*
X160946397Y-110342966D01*
X160981133Y-110324399D01*
X161018826Y-110312965D01*
X161064161Y-110308500D01*
X162150839Y-110308500D01*
X162196174Y-110312965D01*
G37*
G36*
X166387174Y-108298965D02*
G01*
X166424867Y-108310399D01*
X166459603Y-108328966D01*
X166490048Y-108353952D01*
X166515034Y-108384397D01*
X166533601Y-108419133D01*
X166545035Y-108456826D01*
X166549500Y-108502161D01*
X166549500Y-109338839D01*
X166545035Y-109384174D01*
X166533601Y-109421867D01*
X166515034Y-109456603D01*
X166490048Y-109487048D01*
X166459603Y-109512034D01*
X166424867Y-109530601D01*
X166387174Y-109542035D01*
X166341839Y-109546500D01*
X165255161Y-109546500D01*
X165209826Y-109542035D01*
X165172133Y-109530601D01*
X165137397Y-109512034D01*
X165106952Y-109487048D01*
X165081966Y-109456603D01*
X165063399Y-109421867D01*
X165051965Y-109384174D01*
X165047500Y-109338839D01*
X165047500Y-108502161D01*
X165051965Y-108456826D01*
X165063399Y-108419133D01*
X165081966Y-108384397D01*
X165106952Y-108353952D01*
X165137397Y-108328966D01*
X165172133Y-108310399D01*
X165209826Y-108298965D01*
X165255161Y-108294500D01*
X166341839Y-108294500D01*
X166387174Y-108298965D01*
G37*
G36*
X168673174Y-108289965D02*
G01*
X168710867Y-108301399D01*
X168745603Y-108319966D01*
X168776048Y-108344952D01*
X168801034Y-108375397D01*
X168819601Y-108410133D01*
X168831035Y-108447826D01*
X168835500Y-108493161D01*
X168835500Y-109329839D01*
X168831035Y-109375174D01*
X168819601Y-109412867D01*
X168801034Y-109447603D01*
X168776048Y-109478048D01*
X168745603Y-109503034D01*
X168710867Y-109521601D01*
X168673174Y-109533035D01*
X168627839Y-109537500D01*
X167541161Y-109537500D01*
X167495826Y-109533035D01*
X167458133Y-109521601D01*
X167423397Y-109503034D01*
X167392952Y-109478048D01*
X167367966Y-109447603D01*
X167349399Y-109412867D01*
X167337965Y-109375174D01*
X167333500Y-109329839D01*
X167333500Y-108493161D01*
X167337965Y-108447826D01*
X167349399Y-108410133D01*
X167367966Y-108375397D01*
X167392952Y-108344952D01*
X167423397Y-108319966D01*
X167458133Y-108301399D01*
X167495826Y-108289965D01*
X167541161Y-108285500D01*
X168627839Y-108285500D01*
X168673174Y-108289965D01*
G37*
G36*
X164101174Y-108289965D02*
G01*
X164138867Y-108301399D01*
X164173603Y-108319966D01*
X164204048Y-108344952D01*
X164229034Y-108375397D01*
X164247601Y-108410133D01*
X164259035Y-108447826D01*
X164263500Y-108493161D01*
X164263500Y-109329839D01*
X164259035Y-109375174D01*
X164247601Y-109412867D01*
X164229034Y-109447603D01*
X164204048Y-109478048D01*
X164173603Y-109503034D01*
X164138867Y-109521601D01*
X164101174Y-109533035D01*
X164055839Y-109537500D01*
X162969161Y-109537500D01*
X162923826Y-109533035D01*
X162886133Y-109521601D01*
X162851397Y-109503034D01*
X162820952Y-109478048D01*
X162795966Y-109447603D01*
X162777399Y-109412867D01*
X162765965Y-109375174D01*
X162761500Y-109329839D01*
X162761500Y-108493161D01*
X162765965Y-108447826D01*
X162777399Y-108410133D01*
X162795966Y-108375397D01*
X162820952Y-108344952D01*
X162851397Y-108319966D01*
X162886133Y-108301399D01*
X162923826Y-108289965D01*
X162969161Y-108285500D01*
X164055839Y-108285500D01*
X164101174Y-108289965D01*
G37*
G36*
X173245174Y-108289965D02*
G01*
X173282867Y-108301399D01*
X173317603Y-108319966D01*
X173348048Y-108344952D01*
X173373034Y-108375397D01*
X173391601Y-108410133D01*
X173403035Y-108447826D01*
X173407500Y-108493161D01*
X173407500Y-109329839D01*
X173403035Y-109375174D01*
X173391601Y-109412867D01*
X173373034Y-109447603D01*
X173348048Y-109478048D01*
X173317603Y-109503034D01*
X173282867Y-109521601D01*
X173245174Y-109533035D01*
X173199839Y-109537500D01*
X172113161Y-109537500D01*
X172067826Y-109533035D01*
X172030133Y-109521601D01*
X171995397Y-109503034D01*
X171964952Y-109478048D01*
X171939966Y-109447603D01*
X171921399Y-109412867D01*
X171909965Y-109375174D01*
X171905500Y-109329839D01*
X171905500Y-108493161D01*
X171909965Y-108447826D01*
X171921399Y-108410133D01*
X171939966Y-108375397D01*
X171964952Y-108344952D01*
X171995397Y-108319966D01*
X172030133Y-108301399D01*
X172067826Y-108289965D01*
X172113161Y-108285500D01*
X173199839Y-108285500D01*
X173245174Y-108289965D01*
G37*
G36*
X175531174Y-108289965D02*
G01*
X175568867Y-108301399D01*
X175603603Y-108319966D01*
X175634048Y-108344952D01*
X175659034Y-108375397D01*
X175677601Y-108410133D01*
X175689035Y-108447826D01*
X175693500Y-108493161D01*
X175693500Y-109329839D01*
X175689035Y-109375174D01*
X175677601Y-109412867D01*
X175659034Y-109447603D01*
X175634048Y-109478048D01*
X175603603Y-109503034D01*
X175568867Y-109521601D01*
X175531174Y-109533035D01*
X175485839Y-109537500D01*
X174399161Y-109537500D01*
X174353826Y-109533035D01*
X174316133Y-109521601D01*
X174281397Y-109503034D01*
X174250952Y-109478048D01*
X174225966Y-109447603D01*
X174207399Y-109412867D01*
X174195965Y-109375174D01*
X174191500Y-109329839D01*
X174191500Y-108493161D01*
X174195965Y-108447826D01*
X174207399Y-108410133D01*
X174225966Y-108375397D01*
X174250952Y-108344952D01*
X174281397Y-108319966D01*
X174316133Y-108301399D01*
X174353826Y-108289965D01*
X174399161Y-108285500D01*
X175485839Y-108285500D01*
X175531174Y-108289965D01*
G37*
G36*
X161815174Y-108289965D02*
G01*
X161852867Y-108301399D01*
X161887603Y-108319966D01*
X161918048Y-108344952D01*
X161943034Y-108375397D01*
X161961601Y-108410133D01*
X161973035Y-108447826D01*
X161977500Y-108493161D01*
X161977500Y-109329839D01*
X161973035Y-109375174D01*
X161961601Y-109412867D01*
X161943034Y-109447603D01*
X161918048Y-109478048D01*
X161887603Y-109503034D01*
X161852867Y-109521601D01*
X161815174Y-109533035D01*
X161769839Y-109537500D01*
X160683161Y-109537500D01*
X160637826Y-109533035D01*
X160600133Y-109521601D01*
X160565397Y-109503034D01*
X160534952Y-109478048D01*
X160509966Y-109447603D01*
X160491399Y-109412867D01*
X160479965Y-109375174D01*
X160475500Y-109329839D01*
X160475500Y-108493161D01*
X160479965Y-108447826D01*
X160491399Y-108410133D01*
X160509966Y-108375397D01*
X160534952Y-108344952D01*
X160565397Y-108319966D01*
X160600133Y-108301399D01*
X160637826Y-108289965D01*
X160683161Y-108285500D01*
X161769839Y-108285500D01*
X161815174Y-108289965D01*
G37*
G36*
X170959174Y-108289965D02*
G01*
X170996867Y-108301399D01*
X171031603Y-108319966D01*
X171062048Y-108344952D01*
X171087034Y-108375397D01*
X171105601Y-108410133D01*
X171117035Y-108447826D01*
X171121500Y-108493161D01*
X171121500Y-109329839D01*
X171117035Y-109375174D01*
X171105601Y-109412867D01*
X171087034Y-109447603D01*
X171062048Y-109478048D01*
X171031603Y-109503034D01*
X170996867Y-109521601D01*
X170959174Y-109533035D01*
X170913839Y-109537500D01*
X169827161Y-109537500D01*
X169781826Y-109533035D01*
X169744133Y-109521601D01*
X169709397Y-109503034D01*
X169678952Y-109478048D01*
X169653966Y-109447603D01*
X169635399Y-109412867D01*
X169623965Y-109375174D01*
X169619500Y-109329839D01*
X169619500Y-108493161D01*
X169623965Y-108447826D01*
X169635399Y-108410133D01*
X169653966Y-108375397D01*
X169678952Y-108344952D01*
X169709397Y-108319966D01*
X169744133Y-108301399D01*
X169781826Y-108289965D01*
X169827161Y-108285500D01*
X170913839Y-108285500D01*
X170959174Y-108289965D01*
G37*
G36*
X140669674Y-108099465D02*
G01*
X140707367Y-108110899D01*
X140742103Y-108129466D01*
X140772548Y-108154452D01*
X140797534Y-108184897D01*
X140816101Y-108219633D01*
X140827535Y-108257326D01*
X140832000Y-108302661D01*
X140832000Y-109139339D01*
X140827535Y-109184674D01*
X140816101Y-109222367D01*
X140797534Y-109257103D01*
X140772548Y-109287548D01*
X140742103Y-109312534D01*
X140707367Y-109331101D01*
X140669674Y-109342535D01*
X140624339Y-109347000D01*
X139537661Y-109347000D01*
X139492326Y-109342535D01*
X139454633Y-109331101D01*
X139419897Y-109312534D01*
X139389452Y-109287548D01*
X139364466Y-109257103D01*
X139345899Y-109222367D01*
X139334465Y-109184674D01*
X139330000Y-109139339D01*
X139330000Y-108302661D01*
X139334465Y-108257326D01*
X139345899Y-108219633D01*
X139364466Y-108184897D01*
X139389452Y-108154452D01*
X139419897Y-108129466D01*
X139454633Y-108110899D01*
X139492326Y-108099465D01*
X139537661Y-108095000D01*
X140624339Y-108095000D01*
X140669674Y-108099465D01*
G37*
G36*
X166387174Y-106248965D02*
G01*
X166424867Y-106260399D01*
X166459603Y-106278966D01*
X166490048Y-106303952D01*
X166515034Y-106334397D01*
X166533601Y-106369133D01*
X166545035Y-106406826D01*
X166549500Y-106452161D01*
X166549500Y-107288839D01*
X166545035Y-107334174D01*
X166533601Y-107371867D01*
X166515034Y-107406603D01*
X166490048Y-107437048D01*
X166459603Y-107462034D01*
X166424867Y-107480601D01*
X166387174Y-107492035D01*
X166341839Y-107496500D01*
X165255161Y-107496500D01*
X165209826Y-107492035D01*
X165172133Y-107480601D01*
X165137397Y-107462034D01*
X165106952Y-107437048D01*
X165081966Y-107406603D01*
X165063399Y-107371867D01*
X165051965Y-107334174D01*
X165047500Y-107288839D01*
X165047500Y-106452161D01*
X165051965Y-106406826D01*
X165063399Y-106369133D01*
X165081966Y-106334397D01*
X165106952Y-106303952D01*
X165137397Y-106278966D01*
X165172133Y-106260399D01*
X165209826Y-106248965D01*
X165255161Y-106244500D01*
X166341839Y-106244500D01*
X166387174Y-106248965D01*
G37*
G36*
X168673174Y-106239965D02*
G01*
X168710867Y-106251399D01*
X168745603Y-106269966D01*
X168776048Y-106294952D01*
X168801034Y-106325397D01*
X168819601Y-106360133D01*
X168831035Y-106397826D01*
X168835500Y-106443161D01*
X168835500Y-107279839D01*
X168831035Y-107325174D01*
X168819601Y-107362867D01*
X168801034Y-107397603D01*
X168776048Y-107428048D01*
X168745603Y-107453034D01*
X168710867Y-107471601D01*
X168673174Y-107483035D01*
X168627839Y-107487500D01*
X167541161Y-107487500D01*
X167495826Y-107483035D01*
X167458133Y-107471601D01*
X167423397Y-107453034D01*
X167392952Y-107428048D01*
X167367966Y-107397603D01*
X167349399Y-107362867D01*
X167337965Y-107325174D01*
X167333500Y-107279839D01*
X167333500Y-106443161D01*
X167337965Y-106397826D01*
X167349399Y-106360133D01*
X167367966Y-106325397D01*
X167392952Y-106294952D01*
X167423397Y-106269966D01*
X167458133Y-106251399D01*
X167495826Y-106239965D01*
X167541161Y-106235500D01*
X168627839Y-106235500D01*
X168673174Y-106239965D01*
G37*
G36*
X161815174Y-106239965D02*
G01*
X161852867Y-106251399D01*
X161887603Y-106269966D01*
X161918048Y-106294952D01*
X161943034Y-106325397D01*
X161961601Y-106360133D01*
X161973035Y-106397826D01*
X161977500Y-106443161D01*
X161977500Y-107279839D01*
X161973035Y-107325174D01*
X161961601Y-107362867D01*
X161943034Y-107397603D01*
X161918048Y-107428048D01*
X161887603Y-107453034D01*
X161852867Y-107471601D01*
X161815174Y-107483035D01*
X161769839Y-107487500D01*
X160683161Y-107487500D01*
X160637826Y-107483035D01*
X160600133Y-107471601D01*
X160565397Y-107453034D01*
X160534952Y-107428048D01*
X160509966Y-107397603D01*
X160491399Y-107362867D01*
X160479965Y-107325174D01*
X160475500Y-107279839D01*
X160475500Y-106443161D01*
X160479965Y-106397826D01*
X160491399Y-106360133D01*
X160509966Y-106325397D01*
X160534952Y-106294952D01*
X160565397Y-106269966D01*
X160600133Y-106251399D01*
X160637826Y-106239965D01*
X160683161Y-106235500D01*
X161769839Y-106235500D01*
X161815174Y-106239965D01*
G37*
G36*
X164101174Y-106239965D02*
G01*
X164138867Y-106251399D01*
X164173603Y-106269966D01*
X164204048Y-106294952D01*
X164229034Y-106325397D01*
X164247601Y-106360133D01*
X164259035Y-106397826D01*
X164263500Y-106443161D01*
X164263500Y-107279839D01*
X164259035Y-107325174D01*
X164247601Y-107362867D01*
X164229034Y-107397603D01*
X164204048Y-107428048D01*
X164173603Y-107453034D01*
X164138867Y-107471601D01*
X164101174Y-107483035D01*
X164055839Y-107487500D01*
X162969161Y-107487500D01*
X162923826Y-107483035D01*
X162886133Y-107471601D01*
X162851397Y-107453034D01*
X162820952Y-107428048D01*
X162795966Y-107397603D01*
X162777399Y-107362867D01*
X162765965Y-107325174D01*
X162761500Y-107279839D01*
X162761500Y-106443161D01*
X162765965Y-106397826D01*
X162777399Y-106360133D01*
X162795966Y-106325397D01*
X162820952Y-106294952D01*
X162851397Y-106269966D01*
X162886133Y-106251399D01*
X162923826Y-106239965D01*
X162969161Y-106235500D01*
X164055839Y-106235500D01*
X164101174Y-106239965D01*
G37*
G36*
X170959174Y-106239965D02*
G01*
X170996867Y-106251399D01*
X171031603Y-106269966D01*
X171062048Y-106294952D01*
X171087034Y-106325397D01*
X171105601Y-106360133D01*
X171117035Y-106397826D01*
X171121500Y-106443161D01*
X171121500Y-107279839D01*
X171117035Y-107325174D01*
X171105601Y-107362867D01*
X171087034Y-107397603D01*
X171062048Y-107428048D01*
X171031603Y-107453034D01*
X170996867Y-107471601D01*
X170959174Y-107483035D01*
X170913839Y-107487500D01*
X169827161Y-107487500D01*
X169781826Y-107483035D01*
X169744133Y-107471601D01*
X169709397Y-107453034D01*
X169678952Y-107428048D01*
X169653966Y-107397603D01*
X169635399Y-107362867D01*
X169623965Y-107325174D01*
X169619500Y-107279839D01*
X169619500Y-106443161D01*
X169623965Y-106397826D01*
X169635399Y-106360133D01*
X169653966Y-106325397D01*
X169678952Y-106294952D01*
X169709397Y-106269966D01*
X169744133Y-106251399D01*
X169781826Y-106239965D01*
X169827161Y-106235500D01*
X170913839Y-106235500D01*
X170959174Y-106239965D01*
G37*
G36*
X173245174Y-106239965D02*
G01*
X173282867Y-106251399D01*
X173317603Y-106269966D01*
X173348048Y-106294952D01*
X173373034Y-106325397D01*
X173391601Y-106360133D01*
X173403035Y-106397826D01*
X173407500Y-106443161D01*
X173407500Y-107279839D01*
X173403035Y-107325174D01*
X173391601Y-107362867D01*
X173373034Y-107397603D01*
X173348048Y-107428048D01*
X173317603Y-107453034D01*
X173282867Y-107471601D01*
X173245174Y-107483035D01*
X173199839Y-107487500D01*
X172113161Y-107487500D01*
X172067826Y-107483035D01*
X172030133Y-107471601D01*
X171995397Y-107453034D01*
X171964952Y-107428048D01*
X171939966Y-107397603D01*
X171921399Y-107362867D01*
X171909965Y-107325174D01*
X171905500Y-107279839D01*
X171905500Y-106443161D01*
X171909965Y-106397826D01*
X171921399Y-106360133D01*
X171939966Y-106325397D01*
X171964952Y-106294952D01*
X171995397Y-106269966D01*
X172030133Y-106251399D01*
X172067826Y-106239965D01*
X172113161Y-106235500D01*
X173199839Y-106235500D01*
X173245174Y-106239965D01*
G37*
G36*
X175531174Y-106239965D02*
G01*
X175568867Y-106251399D01*
X175603603Y-106269966D01*
X175634048Y-106294952D01*
X175659034Y-106325397D01*
X175677601Y-106360133D01*
X175689035Y-106397826D01*
X175693500Y-106443161D01*
X175693500Y-107279839D01*
X175689035Y-107325174D01*
X175677601Y-107362867D01*
X175659034Y-107397603D01*
X175634048Y-107428048D01*
X175603603Y-107453034D01*
X175568867Y-107471601D01*
X175531174Y-107483035D01*
X175485839Y-107487500D01*
X174399161Y-107487500D01*
X174353826Y-107483035D01*
X174316133Y-107471601D01*
X174281397Y-107453034D01*
X174250952Y-107428048D01*
X174225966Y-107397603D01*
X174207399Y-107362867D01*
X174195965Y-107325174D01*
X174191500Y-107279839D01*
X174191500Y-106443161D01*
X174195965Y-106397826D01*
X174207399Y-106360133D01*
X174225966Y-106325397D01*
X174250952Y-106294952D01*
X174281397Y-106269966D01*
X174316133Y-106251399D01*
X174353826Y-106239965D01*
X174399161Y-106235500D01*
X175485839Y-106235500D01*
X175531174Y-106239965D01*
G37*
G36*
X140669674Y-106049465D02*
G01*
X140707367Y-106060899D01*
X140742103Y-106079466D01*
X140772548Y-106104452D01*
X140797534Y-106134897D01*
X140816101Y-106169633D01*
X140827535Y-106207326D01*
X140832000Y-106252661D01*
X140832000Y-107089339D01*
X140827535Y-107134674D01*
X140816101Y-107172367D01*
X140797534Y-107207103D01*
X140772548Y-107237548D01*
X140742103Y-107262534D01*
X140707367Y-107281101D01*
X140669674Y-107292535D01*
X140624339Y-107297000D01*
X139537661Y-107297000D01*
X139492326Y-107292535D01*
X139454633Y-107281101D01*
X139419897Y-107262534D01*
X139389452Y-107237548D01*
X139364466Y-107207103D01*
X139345899Y-107172367D01*
X139334465Y-107134674D01*
X139330000Y-107089339D01*
X139330000Y-106252661D01*
X139334465Y-106207326D01*
X139345899Y-106169633D01*
X139364466Y-106134897D01*
X139389452Y-106104452D01*
X139419897Y-106079466D01*
X139454633Y-106060899D01*
X139492326Y-106049465D01*
X139537661Y-106045000D01*
X140624339Y-106045000D01*
X140669674Y-106049465D01*
G37*
G36*
X150006174Y-105361965D02*
G01*
X150043867Y-105373399D01*
X150078603Y-105391966D01*
X150109048Y-105416952D01*
X150134034Y-105447397D01*
X150152601Y-105482133D01*
X150164035Y-105519826D01*
X150168500Y-105565161D01*
X150168500Y-106651839D01*
X150164035Y-106697174D01*
X150152601Y-106734867D01*
X150134034Y-106769603D01*
X150109048Y-106800048D01*
X150078603Y-106825034D01*
X150043867Y-106843601D01*
X150006174Y-106855035D01*
X149960839Y-106859500D01*
X149124161Y-106859500D01*
X149078826Y-106855035D01*
X149041133Y-106843601D01*
X149006397Y-106825034D01*
X148975952Y-106800048D01*
X148950966Y-106769603D01*
X148932399Y-106734867D01*
X148920965Y-106697174D01*
X148916500Y-106651839D01*
X148916500Y-105565161D01*
X148920965Y-105519826D01*
X148932399Y-105482133D01*
X148950966Y-105447397D01*
X148975952Y-105416952D01*
X149006397Y-105391966D01*
X149041133Y-105373399D01*
X149078826Y-105361965D01*
X149124161Y-105357500D01*
X149960839Y-105357500D01*
X150006174Y-105361965D01*
G37*
G36*
X147956174Y-105361965D02*
G01*
X147993867Y-105373399D01*
X148028603Y-105391966D01*
X148059048Y-105416952D01*
X148084034Y-105447397D01*
X148102601Y-105482133D01*
X148114035Y-105519826D01*
X148118500Y-105565161D01*
X148118500Y-106651839D01*
X148114035Y-106697174D01*
X148102601Y-106734867D01*
X148084034Y-106769603D01*
X148059048Y-106800048D01*
X148028603Y-106825034D01*
X147993867Y-106843601D01*
X147956174Y-106855035D01*
X147910839Y-106859500D01*
X147074161Y-106859500D01*
X147028826Y-106855035D01*
X146991133Y-106843601D01*
X146956397Y-106825034D01*
X146925952Y-106800048D01*
X146900966Y-106769603D01*
X146882399Y-106734867D01*
X146870965Y-106697174D01*
X146866500Y-106651839D01*
X146866500Y-105565161D01*
X146870965Y-105519826D01*
X146882399Y-105482133D01*
X146900966Y-105447397D01*
X146925952Y-105416952D01*
X146956397Y-105391966D01*
X146991133Y-105373399D01*
X147028826Y-105361965D01*
X147074161Y-105357500D01*
X147910839Y-105357500D01*
X147956174Y-105361965D01*
G37*
M02*
