M48
; DRILL file {KiCad (5.1.5)-3} date 7/25/2020 10:57:53 PM
; FORMAT={-:-/ absolute / inch / decimal}
; #@! TF.CreationDate,2020-07-25T22:57:53-04:00
; #@! TF.GenerationSoftware,Kicad,Pcbnew,(5.1.5)-3
; #@! TF.FileFunction,Plated,1,2,PTH
FMAT,2
INCH
T1C0.0118
T2C0.0157
T3C0.0315
%
G90
G05
T1
X5.235Y-5.27
X5.2625Y-5.27
X5.4485Y-4.2415
X5.485Y-4.53
X5.4975Y-5.395
X5.5475Y-4.935
X5.5875Y-4.2425
X5.61Y-4.2425
X5.61Y-4.3325
X5.635Y-4.2425
X5.635Y-4.29
X5.6525Y-4.31
X5.6525Y-4.9725
X5.6525Y-5.0075
X5.665Y-5.03
X5.68Y-4.8725
X5.685Y-4.29
X5.6875Y-5.04
X5.6922Y-4.4283
X5.693Y-4.398
X5.6975Y-4.93
X5.7075Y-4.24
X5.715Y-4.6625
X5.725Y-4.925
X5.7375Y-4.62
X5.7475Y-4.91
X5.775Y-4.8925
X5.8859Y-4.4491
X6.225Y-4.315
X6.225Y-4.3575
X6.255Y-5.05
X6.2554Y-5.3096
X6.281Y-5.0515
X6.281Y-5.284
X6.3066Y-5.0491
X6.3066Y-5.2909
X6.3325Y-5.0475
X6.3325Y-5.285
X6.3575Y-5.05
X6.3825Y-5.0525
X6.409Y-5.049
X6.435Y-5.0525
X6.6625Y-4.1775
T2
X5.0313Y-4.1338
X5.0475Y-5.6925
X5.0748Y-4.3998
X5.1325Y-4.2475
X5.1325Y-4.2975
X5.145Y-4.165
X5.1575Y-4.5175
X5.2025Y-4.1925
X5.21Y-4.95
X5.2157Y-4.8993
X5.2375Y-4.21
X5.239Y-4.659
X5.2391Y-4.2841
X5.25Y-5.5003
X5.258Y-4.467
X5.28Y-4.615
X5.2825Y-4.675
X5.3183Y-4.8992
X5.32Y-4.95
X5.325Y-4.785
X5.325Y-5.675
X5.3252Y-4.4673
X5.3375Y-5.595
X5.345Y-5.14
X5.3575Y-4.71
X5.3625Y-5.2071
X5.3625Y-5.31
X5.365Y-4.615
X5.3775Y-4.7475
X5.405Y-4.715
X5.405Y-5.3475
X5.425Y-4.6775
X5.425Y-4.7725
X5.43Y-4.1625
X5.4325Y-4.87
X5.4425Y-4.95
X5.4475Y-5.515
X5.4675Y-5.215
X5.4748Y-4.4073
X5.4789Y-4.5911
X5.4789Y-4.7764
X5.485Y-5.28
X5.49Y-5.6475
X5.5075Y-5.1425
X5.51Y-4.725
X5.5175Y-5.2825
X5.53Y-4.65
X5.5375Y-4.1825
X5.55Y-5.6475
X5.5564Y-4.5011
X5.5575Y-5.16
X5.5677Y-4.8873
X5.5825Y-5.53
X5.585Y-4.76
X5.5875Y-5.255
X5.605Y-5.085
X5.6275Y-4.6575
X5.6325Y-5.255
X5.635Y-4.8225
X5.6425Y-4.685
X5.645Y-4.1625
X5.66Y-4.1875
X5.69Y-5.495
X5.6925Y-5.1575
X5.705Y-5.265
X5.715Y-4.37
X5.7196Y-4.5729
X5.74Y-5.435
X5.7425Y-4.35
X5.76Y-4.48
X5.7662Y-5.0038
X5.7725Y-5.1146
X5.7736Y-5.2161
X5.7875Y-4.7075
X5.795Y-4.195
X5.8025Y-5.3475
X5.83Y-5.675
X5.8325Y-4.6825
X5.8503Y-4.7703
X5.855Y-5.3475
X5.865Y-5.6125
X5.8729Y-4.1629
X5.8875Y-4.7675
X5.905Y-5.3475
X5.905Y-5.6125
X5.91Y-4.3325
X5.91Y-4.495
X5.9175Y-5.675
X5.9283Y-5.0658
X5.9304Y-5.1146
X5.94Y-4.6175
X5.95Y-4.815
X5.955Y-5.3475
X5.955Y-5.6125
X5.96Y-4.3475
X5.9675Y-5.065
X5.9825Y-4.4225
X5.9975Y-5.6725
X6.0Y-4.6125
X6.005Y-5.065
X6.0075Y-5.3475
X6.0075Y-5.6125
X6.055Y-5.5475
X6.06Y-4.65
X6.0725Y-4.93
X6.0875Y-5.675
X6.0975Y-5.355
X6.1Y-4.6125
X6.1Y-4.7225
X6.1Y-4.9825
X6.1Y-5.12
X6.1025Y-4.885
X6.105Y-5.6025
X6.125Y-4.855
X6.165Y-5.6625
X6.2Y-4.6125
X6.2Y-4.8075
X6.2026Y-5.23
X6.2225Y-4.9925
X6.23Y-4.18
X6.2325Y-5.465
X6.24Y-5.15
X6.245Y-5.6075
X6.255Y-5.18
X6.28Y-5.165
X6.2896Y-5.4666
X6.3Y-4.75
X6.31Y-5.165
X6.315Y-5.53
X6.32Y-4.1875
X6.34Y-5.4666
X6.3427Y-5.1652
X6.3475Y-4.2879
X6.3625Y-4.4482
X6.37Y-5.5425
X6.3725Y-5.1625
X6.3904Y-5.4671
X6.3975Y-5.6625
X6.4025Y-5.1625
X6.405Y-4.5925
X6.4325Y-5.1625
X6.4375Y-4.2879
X6.4442Y-5.4683
X6.4625Y-5.165
X6.475Y-4.3675
X6.475Y-5.29
X6.49Y-4.5925
X6.49Y-4.9475
X6.4925Y-5.6675
X6.51Y-5.4825
X6.5225Y-5.6125
X6.535Y-4.9775
X6.5418Y-4.4482
X6.545Y-4.5275
X6.5475Y-4.885
X6.5725Y-4.395
X6.5725Y-4.5025
X6.5775Y-4.5425
X6.58Y-4.855
X6.5825Y-4.5775
X6.5975Y-5.6
X6.605Y-4.285
X6.605Y-4.3575
X6.6375Y-5.4275
X6.64Y-4.3375
X6.6576Y-4.985
X6.6664Y-5.2161
X6.695Y-5.35
X6.6975Y-4.4275
X6.71Y-5.0675
X6.7104Y-5.1679
X6.7125Y-4.1004
X6.7225Y-4.285
X6.7425Y-4.52
X6.7475Y-5.365
X6.7475Y-5.6
X6.7591Y-5.1416
X6.7725Y-4.52
X6.7975Y-4.505
X6.7975Y-5.365
X6.7975Y-5.6
X6.8025Y-4.1004
X6.8125Y-4.3025
X6.83Y-4.5
X6.8475Y-5.365
X6.8475Y-5.6
X6.8675Y-4.45
X6.8914Y-4.3011
X6.8975Y-4.495
X6.9Y-5.365
X6.9Y-5.6
X6.9243Y-4.4582
X6.93Y-4.685
X6.9305Y-4.9095
X6.9475Y-4.195
X6.95Y-4.6025
X6.9625Y-4.25
X6.9625Y-4.495
X6.9725Y-4.315
X6.9775Y-4.6725
X6.9909Y-4.4716
X6.9975Y-5.595
X7.0025Y-5.66
X7.0225Y-4.2125
X7.0315Y-4.7195
X7.0315Y-4.7655
X7.0375Y-4.5775
X7.0575Y-4.2475
X7.0575Y-4.345
X7.0725Y-4.19
X7.09Y-4.4225
X7.095Y-4.8475
X7.0975Y-4.165
X7.1075Y-4.095
X7.11Y-4.4975
X7.1228Y-4.3428
X7.1525Y-4.38
X7.1525Y-5.6975
T3
X5.0641Y-5.2725
X5.1625Y-5.2725
T0
M30
