G04 #@! TF.GenerationSoftware,KiCad,Pcbnew,(5.1.5)-3*
G04 #@! TF.CreationDate,2020-08-18T03:56:32-04:00*
G04 #@! TF.ProjectId,c64-cpm-smd,6336342d-6370-46d2-9d73-6d642e6b6963,rev?*
G04 #@! TF.SameCoordinates,Original*
G04 #@! TF.FileFunction,Legend,Top*
G04 #@! TF.FilePolarity,Positive*
%FSLAX46Y46*%
G04 Gerber Fmt 4.6, Leading zero omitted, Abs format (unit mm)*
G04 Created by KiCad (PCBNEW (5.1.5)-3) date 2020-08-18 03:56:32*
%MOMM*%
%LPD*%
G04 APERTURE LIST*
%ADD10C,0.300000*%
%ADD11C,0.150000*%
%ADD12C,0.450000*%
%ADD13C,0.120000*%
%ADD14C,0.100000*%
G04 APERTURE END LIST*
D10*
X190783928Y-134968333D02*
X192117261Y-134968333D01*
X190022023Y-135444523D02*
X191450595Y-135920714D01*
X191450595Y-134682619D01*
X190974404Y-133635000D02*
X190879166Y-133825476D01*
X190783928Y-133920714D01*
X190593452Y-134015952D01*
X190498214Y-134015952D01*
X190307738Y-133920714D01*
X190212500Y-133825476D01*
X190117261Y-133635000D01*
X190117261Y-133254047D01*
X190212500Y-133063571D01*
X190307738Y-132968333D01*
X190498214Y-132873095D01*
X190593452Y-132873095D01*
X190783928Y-132968333D01*
X190879166Y-133063571D01*
X190974404Y-133254047D01*
X190974404Y-133635000D01*
X191069642Y-133825476D01*
X191164880Y-133920714D01*
X191355357Y-134015952D01*
X191736309Y-134015952D01*
X191926785Y-133920714D01*
X192022023Y-133825476D01*
X192117261Y-133635000D01*
X192117261Y-133254047D01*
X192022023Y-133063571D01*
X191926785Y-132968333D01*
X191736309Y-132873095D01*
X191355357Y-132873095D01*
X191164880Y-132968333D01*
X191069642Y-133063571D01*
X190974404Y-133254047D01*
X191926785Y-132015952D02*
X192022023Y-131920714D01*
X192117261Y-132015952D01*
X192022023Y-132111190D01*
X191926785Y-132015952D01*
X192117261Y-132015952D01*
X190974404Y-130777857D02*
X190879166Y-130968333D01*
X190783928Y-131063571D01*
X190593452Y-131158809D01*
X190498214Y-131158809D01*
X190307738Y-131063571D01*
X190212500Y-130968333D01*
X190117261Y-130777857D01*
X190117261Y-130396904D01*
X190212500Y-130206428D01*
X190307738Y-130111190D01*
X190498214Y-130015952D01*
X190593452Y-130015952D01*
X190783928Y-130111190D01*
X190879166Y-130206428D01*
X190974404Y-130396904D01*
X190974404Y-130777857D01*
X191069642Y-130968333D01*
X191164880Y-131063571D01*
X191355357Y-131158809D01*
X191736309Y-131158809D01*
X191926785Y-131063571D01*
X192022023Y-130968333D01*
X192117261Y-130777857D01*
X192117261Y-130396904D01*
X192022023Y-130206428D01*
X191926785Y-130111190D01*
X191736309Y-130015952D01*
X191355357Y-130015952D01*
X191164880Y-130111190D01*
X191069642Y-130206428D01*
X190974404Y-130396904D01*
X192117261Y-129063571D02*
X192117261Y-128682619D01*
X192022023Y-128492142D01*
X191926785Y-128396904D01*
X191641071Y-128206428D01*
X191260119Y-128111190D01*
X190498214Y-128111190D01*
X190307738Y-128206428D01*
X190212500Y-128301666D01*
X190117261Y-128492142D01*
X190117261Y-128873095D01*
X190212500Y-129063571D01*
X190307738Y-129158809D01*
X190498214Y-129254047D01*
X190974404Y-129254047D01*
X191164880Y-129158809D01*
X191260119Y-129063571D01*
X191355357Y-128873095D01*
X191355357Y-128492142D01*
X191260119Y-128301666D01*
X191164880Y-128206428D01*
X190974404Y-128111190D01*
X190117261Y-126301666D02*
X190117261Y-127254047D01*
X191069642Y-127349285D01*
X190974404Y-127254047D01*
X190879166Y-127063571D01*
X190879166Y-126587380D01*
X190974404Y-126396904D01*
X191069642Y-126301666D01*
X191260119Y-126206428D01*
X191736309Y-126206428D01*
X191926785Y-126301666D01*
X192022023Y-126396904D01*
X192117261Y-126587380D01*
X192117261Y-127063571D01*
X192022023Y-127254047D01*
X191926785Y-127349285D01*
X192117261Y-123825476D02*
X190783928Y-123825476D01*
X190974404Y-123825476D02*
X190879166Y-123730238D01*
X190783928Y-123539761D01*
X190783928Y-123254047D01*
X190879166Y-123063571D01*
X191069642Y-122968333D01*
X192117261Y-122968333D01*
X191069642Y-122968333D02*
X190879166Y-122873095D01*
X190783928Y-122682619D01*
X190783928Y-122396904D01*
X190879166Y-122206428D01*
X191069642Y-122111190D01*
X192117261Y-122111190D01*
X192117261Y-121158809D02*
X190783928Y-121158809D01*
X190974404Y-121158809D02*
X190879166Y-121063571D01*
X190783928Y-120873095D01*
X190783928Y-120587380D01*
X190879166Y-120396904D01*
X191069642Y-120301666D01*
X192117261Y-120301666D01*
X191069642Y-120301666D02*
X190879166Y-120206428D01*
X190783928Y-120015952D01*
X190783928Y-119730238D01*
X190879166Y-119539761D01*
X191069642Y-119444523D01*
X192117261Y-119444523D01*
D11*
X188912500Y-152082500D02*
X188912500Y-103187500D01*
X184150000Y-152082500D02*
X189498921Y-152082500D01*
X184150000Y-103187500D02*
X189498921Y-103187500D01*
X188912500Y-103187500D02*
X189498921Y-104314004D01*
X188912500Y-103187500D02*
X188326079Y-104314004D01*
X188912500Y-152082500D02*
X189498921Y-150955996D01*
X188912500Y-152082500D02*
X188326079Y-150955996D01*
D12*
X137523333Y-144466357D02*
X137392380Y-144585404D01*
X136999523Y-144704452D01*
X136737619Y-144704452D01*
X136344761Y-144585404D01*
X136082857Y-144347309D01*
X135951904Y-144109214D01*
X135820952Y-143633023D01*
X135820952Y-143275880D01*
X135951904Y-142799690D01*
X136082857Y-142561595D01*
X136344761Y-142323500D01*
X136737619Y-142204452D01*
X136999523Y-142204452D01*
X137392380Y-142323500D01*
X137523333Y-142442547D01*
X139225714Y-142204452D02*
X139749523Y-142204452D01*
X140011428Y-142323500D01*
X140273333Y-142561595D01*
X140404285Y-143037785D01*
X140404285Y-143871119D01*
X140273333Y-144347309D01*
X140011428Y-144585404D01*
X139749523Y-144704452D01*
X139225714Y-144704452D01*
X138963809Y-144585404D01*
X138701904Y-144347309D01*
X138570952Y-143871119D01*
X138570952Y-143037785D01*
X138701904Y-142561595D01*
X138963809Y-142323500D01*
X139225714Y-142204452D01*
X141582857Y-144704452D02*
X141582857Y-142204452D01*
X142499523Y-143990166D01*
X143416190Y-142204452D01*
X143416190Y-144704452D01*
X144725714Y-144704452D02*
X144725714Y-142204452D01*
X145642380Y-143990166D01*
X146559047Y-142204452D01*
X146559047Y-144704452D01*
X148392380Y-142204452D02*
X148916190Y-142204452D01*
X149178095Y-142323500D01*
X149440000Y-142561595D01*
X149570952Y-143037785D01*
X149570952Y-143871119D01*
X149440000Y-144347309D01*
X149178095Y-144585404D01*
X148916190Y-144704452D01*
X148392380Y-144704452D01*
X148130476Y-144585404D01*
X147868571Y-144347309D01*
X147737619Y-143871119D01*
X147737619Y-143037785D01*
X147868571Y-142561595D01*
X148130476Y-142323500D01*
X148392380Y-142204452D01*
X150749523Y-144704452D02*
X150749523Y-142204452D01*
X151404285Y-142204452D01*
X151797142Y-142323500D01*
X152059047Y-142561595D01*
X152190000Y-142799690D01*
X152320952Y-143275880D01*
X152320952Y-143633023D01*
X152190000Y-144109214D01*
X152059047Y-144347309D01*
X151797142Y-144585404D01*
X151404285Y-144704452D01*
X150749523Y-144704452D01*
X154023333Y-142204452D02*
X154547142Y-142204452D01*
X154809047Y-142323500D01*
X155070952Y-142561595D01*
X155201904Y-143037785D01*
X155201904Y-143871119D01*
X155070952Y-144347309D01*
X154809047Y-144585404D01*
X154547142Y-144704452D01*
X154023333Y-144704452D01*
X153761428Y-144585404D01*
X153499523Y-144347309D01*
X153368571Y-143871119D01*
X153368571Y-143037785D01*
X153499523Y-142561595D01*
X153761428Y-142323500D01*
X154023333Y-142204452D01*
X157951904Y-144704452D02*
X157035238Y-143513976D01*
X156380476Y-144704452D02*
X156380476Y-142204452D01*
X157428095Y-142204452D01*
X157690000Y-142323500D01*
X157820952Y-142442547D01*
X157951904Y-142680642D01*
X157951904Y-143037785D01*
X157820952Y-143275880D01*
X157690000Y-143394928D01*
X157428095Y-143513976D01*
X156380476Y-143513976D01*
X159130476Y-143394928D02*
X160047142Y-143394928D01*
X160440000Y-144704452D02*
X159130476Y-144704452D01*
X159130476Y-142204452D01*
X160440000Y-142204452D01*
X165285238Y-144466357D02*
X165154285Y-144585404D01*
X164761428Y-144704452D01*
X164499523Y-144704452D01*
X164106666Y-144585404D01*
X163844761Y-144347309D01*
X163713809Y-144109214D01*
X163582857Y-143633023D01*
X163582857Y-143275880D01*
X163713809Y-142799690D01*
X163844761Y-142561595D01*
X164106666Y-142323500D01*
X164499523Y-142204452D01*
X164761428Y-142204452D01*
X165154285Y-142323500D01*
X165285238Y-142442547D01*
X166463809Y-144704452D02*
X166463809Y-142204452D01*
X167511428Y-142204452D01*
X167773333Y-142323500D01*
X167904285Y-142442547D01*
X168035238Y-142680642D01*
X168035238Y-143037785D01*
X167904285Y-143275880D01*
X167773333Y-143394928D01*
X167511428Y-143513976D01*
X166463809Y-143513976D01*
X171178095Y-142085404D02*
X168820952Y-145299690D01*
X172094761Y-144704452D02*
X172094761Y-142204452D01*
X173011428Y-143990166D01*
X173928095Y-142204452D01*
X173928095Y-144704452D01*
D13*
X133147500Y-133921500D02*
G75*
G03X133147500Y-133921500I-3270000J0D01*
G01*
X129877500Y-137151500D02*
X129877500Y-130691500D01*
X129837500Y-137151500D02*
X129837500Y-130691500D01*
X129797500Y-137151500D02*
X129797500Y-130691500D01*
X129757500Y-137149500D02*
X129757500Y-130693500D01*
X129717500Y-137148500D02*
X129717500Y-130694500D01*
X129677500Y-137145500D02*
X129677500Y-130697500D01*
X129637500Y-137143500D02*
X129637500Y-134961500D01*
X129637500Y-132881500D02*
X129637500Y-130699500D01*
X129597500Y-137139500D02*
X129597500Y-134961500D01*
X129597500Y-132881500D02*
X129597500Y-130703500D01*
X129557500Y-137136500D02*
X129557500Y-134961500D01*
X129557500Y-132881500D02*
X129557500Y-130706500D01*
X129517500Y-137132500D02*
X129517500Y-134961500D01*
X129517500Y-132881500D02*
X129517500Y-130710500D01*
X129477500Y-137127500D02*
X129477500Y-134961500D01*
X129477500Y-132881500D02*
X129477500Y-130715500D01*
X129437500Y-137122500D02*
X129437500Y-134961500D01*
X129437500Y-132881500D02*
X129437500Y-130720500D01*
X129397500Y-137116500D02*
X129397500Y-134961500D01*
X129397500Y-132881500D02*
X129397500Y-130726500D01*
X129357500Y-137110500D02*
X129357500Y-134961500D01*
X129357500Y-132881500D02*
X129357500Y-130732500D01*
X129317500Y-137103500D02*
X129317500Y-134961500D01*
X129317500Y-132881500D02*
X129317500Y-130739500D01*
X129277500Y-137096500D02*
X129277500Y-134961500D01*
X129277500Y-132881500D02*
X129277500Y-130746500D01*
X129237500Y-137088500D02*
X129237500Y-134961500D01*
X129237500Y-132881500D02*
X129237500Y-130754500D01*
X129197500Y-137080500D02*
X129197500Y-134961500D01*
X129197500Y-132881500D02*
X129197500Y-130762500D01*
X129156500Y-137071500D02*
X129156500Y-134961500D01*
X129156500Y-132881500D02*
X129156500Y-130771500D01*
X129116500Y-137062500D02*
X129116500Y-134961500D01*
X129116500Y-132881500D02*
X129116500Y-130780500D01*
X129076500Y-137052500D02*
X129076500Y-134961500D01*
X129076500Y-132881500D02*
X129076500Y-130790500D01*
X129036500Y-137042500D02*
X129036500Y-134961500D01*
X129036500Y-132881500D02*
X129036500Y-130800500D01*
X128996500Y-137031500D02*
X128996500Y-134961500D01*
X128996500Y-132881500D02*
X128996500Y-130811500D01*
X128956500Y-137019500D02*
X128956500Y-134961500D01*
X128956500Y-132881500D02*
X128956500Y-130823500D01*
X128916500Y-137007500D02*
X128916500Y-134961500D01*
X128916500Y-132881500D02*
X128916500Y-130835500D01*
X128876500Y-136995500D02*
X128876500Y-134961500D01*
X128876500Y-132881500D02*
X128876500Y-130847500D01*
X128836500Y-136982500D02*
X128836500Y-134961500D01*
X128836500Y-132881500D02*
X128836500Y-130860500D01*
X128796500Y-136968500D02*
X128796500Y-134961500D01*
X128796500Y-132881500D02*
X128796500Y-130874500D01*
X128756500Y-136954500D02*
X128756500Y-134961500D01*
X128756500Y-132881500D02*
X128756500Y-130888500D01*
X128716500Y-136939500D02*
X128716500Y-134961500D01*
X128716500Y-132881500D02*
X128716500Y-130903500D01*
X128676500Y-136923500D02*
X128676500Y-134961500D01*
X128676500Y-132881500D02*
X128676500Y-130919500D01*
X128636500Y-136907500D02*
X128636500Y-134961500D01*
X128636500Y-132881500D02*
X128636500Y-130935500D01*
X128596500Y-136891500D02*
X128596500Y-134961500D01*
X128596500Y-132881500D02*
X128596500Y-130951500D01*
X128556500Y-136873500D02*
X128556500Y-134961500D01*
X128556500Y-132881500D02*
X128556500Y-130969500D01*
X128516500Y-136855500D02*
X128516500Y-134961500D01*
X128516500Y-132881500D02*
X128516500Y-130987500D01*
X128476500Y-136837500D02*
X128476500Y-134961500D01*
X128476500Y-132881500D02*
X128476500Y-131005500D01*
X128436500Y-136817500D02*
X128436500Y-134961500D01*
X128436500Y-132881500D02*
X128436500Y-131025500D01*
X128396500Y-136797500D02*
X128396500Y-134961500D01*
X128396500Y-132881500D02*
X128396500Y-131045500D01*
X128356500Y-136777500D02*
X128356500Y-134961500D01*
X128356500Y-132881500D02*
X128356500Y-131065500D01*
X128316500Y-136755500D02*
X128316500Y-134961500D01*
X128316500Y-132881500D02*
X128316500Y-131087500D01*
X128276500Y-136733500D02*
X128276500Y-134961500D01*
X128276500Y-132881500D02*
X128276500Y-131109500D01*
X128236500Y-136711500D02*
X128236500Y-134961500D01*
X128236500Y-132881500D02*
X128236500Y-131131500D01*
X128196500Y-136687500D02*
X128196500Y-134961500D01*
X128196500Y-132881500D02*
X128196500Y-131155500D01*
X128156500Y-136663500D02*
X128156500Y-134961500D01*
X128156500Y-132881500D02*
X128156500Y-131179500D01*
X128116500Y-136637500D02*
X128116500Y-134961500D01*
X128116500Y-132881500D02*
X128116500Y-131205500D01*
X128076500Y-136611500D02*
X128076500Y-134961500D01*
X128076500Y-132881500D02*
X128076500Y-131231500D01*
X128036500Y-136585500D02*
X128036500Y-134961500D01*
X128036500Y-132881500D02*
X128036500Y-131257500D01*
X127996500Y-136557500D02*
X127996500Y-134961500D01*
X127996500Y-132881500D02*
X127996500Y-131285500D01*
X127956500Y-136528500D02*
X127956500Y-134961500D01*
X127956500Y-132881500D02*
X127956500Y-131314500D01*
X127916500Y-136499500D02*
X127916500Y-134961500D01*
X127916500Y-132881500D02*
X127916500Y-131343500D01*
X127876500Y-136469500D02*
X127876500Y-134961500D01*
X127876500Y-132881500D02*
X127876500Y-131373500D01*
X127836500Y-136437500D02*
X127836500Y-134961500D01*
X127836500Y-132881500D02*
X127836500Y-131405500D01*
X127796500Y-136405500D02*
X127796500Y-134961500D01*
X127796500Y-132881500D02*
X127796500Y-131437500D01*
X127756500Y-136371500D02*
X127756500Y-134961500D01*
X127756500Y-132881500D02*
X127756500Y-131471500D01*
X127716500Y-136337500D02*
X127716500Y-134961500D01*
X127716500Y-132881500D02*
X127716500Y-131505500D01*
X127676500Y-136301500D02*
X127676500Y-134961500D01*
X127676500Y-132881500D02*
X127676500Y-131541500D01*
X127636500Y-136264500D02*
X127636500Y-134961500D01*
X127636500Y-132881500D02*
X127636500Y-131578500D01*
X127596500Y-136226500D02*
X127596500Y-134961500D01*
X127596500Y-132881500D02*
X127596500Y-131616500D01*
X127556500Y-136186500D02*
X127556500Y-131656500D01*
X127516500Y-136145500D02*
X127516500Y-131697500D01*
X127476500Y-136103500D02*
X127476500Y-131739500D01*
X127436500Y-136058500D02*
X127436500Y-131784500D01*
X127396500Y-136013500D02*
X127396500Y-131829500D01*
X127356500Y-135965500D02*
X127356500Y-131877500D01*
X127316500Y-135916500D02*
X127316500Y-131926500D01*
X127276500Y-135865500D02*
X127276500Y-131977500D01*
X127236500Y-135811500D02*
X127236500Y-132031500D01*
X127196500Y-135755500D02*
X127196500Y-132087500D01*
X127156500Y-135697500D02*
X127156500Y-132145500D01*
X127116500Y-135635500D02*
X127116500Y-132207500D01*
X127076500Y-135571500D02*
X127076500Y-132271500D01*
X127036500Y-135502500D02*
X127036500Y-132340500D01*
X126996500Y-135430500D02*
X126996500Y-132412500D01*
X126956500Y-135353500D02*
X126956500Y-132489500D01*
X126916500Y-135271500D02*
X126916500Y-132571500D01*
X126876500Y-135183500D02*
X126876500Y-132659500D01*
X126836500Y-135086500D02*
X126836500Y-132756500D01*
X126796500Y-134980500D02*
X126796500Y-132862500D01*
X126756500Y-134861500D02*
X126756500Y-132981500D01*
X126716500Y-134723500D02*
X126716500Y-133119500D01*
X126676500Y-134554500D02*
X126676500Y-133288500D01*
X126636500Y-134323500D02*
X126636500Y-133519500D01*
X133377741Y-135760500D02*
X132747741Y-135760500D01*
X133062741Y-136075500D02*
X133062741Y-135445500D01*
X136981000Y-115943748D02*
X136981000Y-116466252D01*
X135561000Y-115943748D02*
X135561000Y-116466252D01*
X148900248Y-110692000D02*
X149422752Y-110692000D01*
X148900248Y-109272000D02*
X149422752Y-109272000D01*
X134119252Y-125020000D02*
X133596748Y-125020000D01*
X134119252Y-126440000D02*
X133596748Y-126440000D01*
X129659748Y-111050000D02*
X130182252Y-111050000D01*
X129659748Y-112470000D02*
X130182252Y-112470000D01*
X139819748Y-111240500D02*
X140342252Y-111240500D01*
X139819748Y-112660500D02*
X140342252Y-112660500D01*
X157301000Y-126363252D02*
X157301000Y-125840748D01*
X155881000Y-126363252D02*
X155881000Y-125840748D01*
X155836252Y-133552000D02*
X155313748Y-133552000D01*
X155836252Y-132132000D02*
X155313748Y-132132000D01*
X170426748Y-127329000D02*
X170949252Y-127329000D01*
X170426748Y-125909000D02*
X170949252Y-125909000D01*
X173933752Y-111431000D02*
X173411248Y-111431000D01*
X173933752Y-112851000D02*
X173411248Y-112851000D01*
X145911500Y-131198252D02*
X145911500Y-130675748D01*
X147331500Y-131198252D02*
X147331500Y-130675748D01*
X173493500Y-106609248D02*
X173493500Y-107131752D01*
X172073500Y-106609248D02*
X172073500Y-107131752D01*
X134949000Y-116466252D02*
X134949000Y-115943748D01*
X133529000Y-116466252D02*
X133529000Y-115943748D01*
X154166500Y-137484752D02*
X154166500Y-136962248D01*
X155586500Y-137484752D02*
X155586500Y-136962248D01*
X136727000Y-128961248D02*
X136727000Y-129483752D01*
X135307000Y-128961248D02*
X135307000Y-129483752D01*
X177792748Y-111621500D02*
X178315252Y-111621500D01*
X177792748Y-113041500D02*
X178315252Y-113041500D01*
X178863248Y-115581500D02*
X179385752Y-115581500D01*
X178863248Y-114161500D02*
X179385752Y-114161500D01*
D11*
X134341500Y-110511500D02*
X134341500Y-110386500D01*
X129691500Y-110511500D02*
X129691500Y-110286500D01*
X129691500Y-105261500D02*
X129691500Y-105486500D01*
X134341500Y-105261500D02*
X134341500Y-105486500D01*
X134341500Y-110511500D02*
X129691500Y-110511500D01*
X134341500Y-105261500D02*
X129691500Y-105261500D01*
X134341500Y-110386500D02*
X135691500Y-110386500D01*
X144376500Y-105288500D02*
X139976500Y-105288500D01*
X145951500Y-110813500D02*
X139976500Y-110813500D01*
X157713000Y-133671000D02*
X157713000Y-127696000D01*
X164613000Y-132146000D02*
X164613000Y-127696000D01*
X180315500Y-110448000D02*
X180315500Y-110323000D01*
X175665500Y-110448000D02*
X175665500Y-110223000D01*
X175665500Y-105198000D02*
X175665500Y-105423000D01*
X180315500Y-105198000D02*
X180315500Y-105423000D01*
X180315500Y-110448000D02*
X175665500Y-110448000D01*
X180315500Y-105198000D02*
X175665500Y-105198000D01*
X180315500Y-110323000D02*
X181665500Y-110323000D01*
X137583000Y-127864500D02*
X137708000Y-127864500D01*
X137583000Y-123214500D02*
X137808000Y-123214500D01*
X142833000Y-123214500D02*
X142608000Y-123214500D01*
X142833000Y-127864500D02*
X142608000Y-127864500D01*
X137583000Y-127864500D02*
X137583000Y-123214500D01*
X142833000Y-127864500D02*
X142833000Y-123214500D01*
X137708000Y-127864500D02*
X137708000Y-129214500D01*
X141756500Y-113451000D02*
X140406500Y-113451000D01*
X141756500Y-118576000D02*
X146406500Y-118576000D01*
X141756500Y-113326000D02*
X146406500Y-113326000D01*
X141756500Y-118576000D02*
X141756500Y-118351000D01*
X146406500Y-118576000D02*
X146406500Y-118351000D01*
X146406500Y-113326000D02*
X146406500Y-113551000D01*
X141756500Y-113326000D02*
X141756500Y-113451000D01*
D13*
X160635000Y-118935500D02*
X160635000Y-116985500D01*
X160635000Y-118935500D02*
X160635000Y-120885500D01*
X150515000Y-118935500D02*
X150515000Y-116985500D01*
X150515000Y-118935500D02*
X150515000Y-122385500D01*
D11*
X138392500Y-136753000D02*
X138517500Y-136753000D01*
X138392500Y-133503000D02*
X138617500Y-133503000D01*
X141642500Y-133503000D02*
X141417500Y-133503000D01*
X141642500Y-136753000D02*
X141417500Y-136753000D01*
X138392500Y-136753000D02*
X138392500Y-133503000D01*
X141642500Y-136753000D02*
X141642500Y-133503000D01*
X138517500Y-136753000D02*
X138517500Y-137828000D01*
D13*
X167139500Y-114234500D02*
X168069500Y-114234500D01*
X170299500Y-114234500D02*
X169369500Y-114234500D01*
X170299500Y-114234500D02*
X170299500Y-112074500D01*
X167139500Y-114234500D02*
X167139500Y-112774500D01*
X136917500Y-133025248D02*
X136917500Y-133547752D01*
X135497500Y-133025248D02*
X135497500Y-133547752D01*
D14*
G36*
X125857000Y-140081000D02*
G01*
X125857000Y-141859000D01*
X184023000Y-141859000D01*
X184023000Y-140081000D01*
X125857000Y-140081000D01*
G37*
X125857000Y-140081000D02*
X125857000Y-141859000D01*
X184023000Y-141859000D01*
X184023000Y-140081000D01*
X125857000Y-140081000D01*
D13*
X164306000Y-136300500D02*
X164306000Y-138400500D01*
X157766000Y-136300500D02*
X157766000Y-138400500D01*
D11*
X129710833Y-138678642D02*
X129663214Y-138726261D01*
X129520357Y-138773880D01*
X129425119Y-138773880D01*
X129282261Y-138726261D01*
X129187023Y-138631023D01*
X129139404Y-138535785D01*
X129091785Y-138345309D01*
X129091785Y-138202452D01*
X129139404Y-138011976D01*
X129187023Y-137916738D01*
X129282261Y-137821500D01*
X129425119Y-137773880D01*
X129520357Y-137773880D01*
X129663214Y-137821500D01*
X129710833Y-137869119D01*
X130663214Y-138773880D02*
X130091785Y-138773880D01*
X130377500Y-138773880D02*
X130377500Y-137773880D01*
X130282261Y-137916738D01*
X130187023Y-138011976D01*
X130091785Y-138059595D01*
X136628142Y-116371666D02*
X136675761Y-116419285D01*
X136723380Y-116562142D01*
X136723380Y-116657380D01*
X136675761Y-116800238D01*
X136580523Y-116895476D01*
X136485285Y-116943095D01*
X136294809Y-116990714D01*
X136151952Y-116990714D01*
X135961476Y-116943095D01*
X135866238Y-116895476D01*
X135771000Y-116800238D01*
X135723380Y-116657380D01*
X135723380Y-116562142D01*
X135771000Y-116419285D01*
X135818619Y-116371666D01*
X135818619Y-115990714D02*
X135771000Y-115943095D01*
X135723380Y-115847857D01*
X135723380Y-115609761D01*
X135771000Y-115514523D01*
X135818619Y-115466904D01*
X135913857Y-115419285D01*
X136009095Y-115419285D01*
X136151952Y-115466904D01*
X136723380Y-116038333D01*
X136723380Y-115419285D01*
X148994833Y-110339142D02*
X148947214Y-110386761D01*
X148804357Y-110434380D01*
X148709119Y-110434380D01*
X148566261Y-110386761D01*
X148471023Y-110291523D01*
X148423404Y-110196285D01*
X148375785Y-110005809D01*
X148375785Y-109862952D01*
X148423404Y-109672476D01*
X148471023Y-109577238D01*
X148566261Y-109482000D01*
X148709119Y-109434380D01*
X148804357Y-109434380D01*
X148947214Y-109482000D01*
X148994833Y-109529619D01*
X149328166Y-109434380D02*
X149947214Y-109434380D01*
X149613880Y-109815333D01*
X149756738Y-109815333D01*
X149851976Y-109862952D01*
X149899595Y-109910571D01*
X149947214Y-110005809D01*
X149947214Y-110243904D01*
X149899595Y-110339142D01*
X149851976Y-110386761D01*
X149756738Y-110434380D01*
X149471023Y-110434380D01*
X149375785Y-110386761D01*
X149328166Y-110339142D01*
X133691333Y-126023642D02*
X133643714Y-126071261D01*
X133500857Y-126118880D01*
X133405619Y-126118880D01*
X133262761Y-126071261D01*
X133167523Y-125976023D01*
X133119904Y-125880785D01*
X133072285Y-125690309D01*
X133072285Y-125547452D01*
X133119904Y-125356976D01*
X133167523Y-125261738D01*
X133262761Y-125166500D01*
X133405619Y-125118880D01*
X133500857Y-125118880D01*
X133643714Y-125166500D01*
X133691333Y-125214119D01*
X134596095Y-125118880D02*
X134119904Y-125118880D01*
X134072285Y-125595071D01*
X134119904Y-125547452D01*
X134215142Y-125499833D01*
X134453238Y-125499833D01*
X134548476Y-125547452D01*
X134596095Y-125595071D01*
X134643714Y-125690309D01*
X134643714Y-125928404D01*
X134596095Y-126023642D01*
X134548476Y-126071261D01*
X134453238Y-126118880D01*
X134215142Y-126118880D01*
X134119904Y-126071261D01*
X134072285Y-126023642D01*
X129763333Y-112117142D02*
X129715714Y-112164761D01*
X129572857Y-112212380D01*
X129477619Y-112212380D01*
X129334761Y-112164761D01*
X129239523Y-112069523D01*
X129191904Y-111974285D01*
X129144285Y-111783809D01*
X129144285Y-111640952D01*
X129191904Y-111450476D01*
X129239523Y-111355238D01*
X129334761Y-111260000D01*
X129477619Y-111212380D01*
X129572857Y-111212380D01*
X129715714Y-111260000D01*
X129763333Y-111307619D01*
X130620476Y-111212380D02*
X130430000Y-111212380D01*
X130334761Y-111260000D01*
X130287142Y-111307619D01*
X130191904Y-111450476D01*
X130144285Y-111640952D01*
X130144285Y-112021904D01*
X130191904Y-112117142D01*
X130239523Y-112164761D01*
X130334761Y-112212380D01*
X130525238Y-112212380D01*
X130620476Y-112164761D01*
X130668095Y-112117142D01*
X130715714Y-112021904D01*
X130715714Y-111783809D01*
X130668095Y-111688571D01*
X130620476Y-111640952D01*
X130525238Y-111593333D01*
X130334761Y-111593333D01*
X130239523Y-111640952D01*
X130191904Y-111688571D01*
X130144285Y-111783809D01*
X139914333Y-112307642D02*
X139866714Y-112355261D01*
X139723857Y-112402880D01*
X139628619Y-112402880D01*
X139485761Y-112355261D01*
X139390523Y-112260023D01*
X139342904Y-112164785D01*
X139295285Y-111974309D01*
X139295285Y-111831452D01*
X139342904Y-111640976D01*
X139390523Y-111545738D01*
X139485761Y-111450500D01*
X139628619Y-111402880D01*
X139723857Y-111402880D01*
X139866714Y-111450500D01*
X139914333Y-111498119D01*
X140485761Y-111831452D02*
X140390523Y-111783833D01*
X140342904Y-111736214D01*
X140295285Y-111640976D01*
X140295285Y-111593357D01*
X140342904Y-111498119D01*
X140390523Y-111450500D01*
X140485761Y-111402880D01*
X140676238Y-111402880D01*
X140771476Y-111450500D01*
X140819095Y-111498119D01*
X140866714Y-111593357D01*
X140866714Y-111640976D01*
X140819095Y-111736214D01*
X140771476Y-111783833D01*
X140676238Y-111831452D01*
X140485761Y-111831452D01*
X140390523Y-111879071D01*
X140342904Y-111926690D01*
X140295285Y-112021928D01*
X140295285Y-112212404D01*
X140342904Y-112307642D01*
X140390523Y-112355261D01*
X140485761Y-112402880D01*
X140676238Y-112402880D01*
X140771476Y-112355261D01*
X140819095Y-112307642D01*
X140866714Y-112212404D01*
X140866714Y-112021928D01*
X140819095Y-111926690D01*
X140771476Y-111879071D01*
X140676238Y-111831452D01*
X156948142Y-126744857D02*
X156995761Y-126792476D01*
X157043380Y-126935333D01*
X157043380Y-127030571D01*
X156995761Y-127173428D01*
X156900523Y-127268666D01*
X156805285Y-127316285D01*
X156614809Y-127363904D01*
X156471952Y-127363904D01*
X156281476Y-127316285D01*
X156186238Y-127268666D01*
X156091000Y-127173428D01*
X156043380Y-127030571D01*
X156043380Y-126935333D01*
X156091000Y-126792476D01*
X156138619Y-126744857D01*
X157043380Y-125792476D02*
X157043380Y-126363904D01*
X157043380Y-126078190D02*
X156043380Y-126078190D01*
X156186238Y-126173428D01*
X156281476Y-126268666D01*
X156329095Y-126363904D01*
X156043380Y-125173428D02*
X156043380Y-125078190D01*
X156091000Y-124982952D01*
X156138619Y-124935333D01*
X156233857Y-124887714D01*
X156424333Y-124840095D01*
X156662428Y-124840095D01*
X156852904Y-124887714D01*
X156948142Y-124935333D01*
X156995761Y-124982952D01*
X157043380Y-125078190D01*
X157043380Y-125173428D01*
X156995761Y-125268666D01*
X156948142Y-125316285D01*
X156852904Y-125363904D01*
X156662428Y-125411523D01*
X156424333Y-125411523D01*
X156233857Y-125363904D01*
X156138619Y-125316285D01*
X156091000Y-125268666D01*
X156043380Y-125173428D01*
X154932142Y-133199142D02*
X154884523Y-133246761D01*
X154741666Y-133294380D01*
X154646428Y-133294380D01*
X154503571Y-133246761D01*
X154408333Y-133151523D01*
X154360714Y-133056285D01*
X154313095Y-132865809D01*
X154313095Y-132722952D01*
X154360714Y-132532476D01*
X154408333Y-132437238D01*
X154503571Y-132342000D01*
X154646428Y-132294380D01*
X154741666Y-132294380D01*
X154884523Y-132342000D01*
X154932142Y-132389619D01*
X155884523Y-133294380D02*
X155313095Y-133294380D01*
X155598809Y-133294380D02*
X155598809Y-132294380D01*
X155503571Y-132437238D01*
X155408333Y-132532476D01*
X155313095Y-132580095D01*
X156217857Y-132294380D02*
X156836904Y-132294380D01*
X156503571Y-132675333D01*
X156646428Y-132675333D01*
X156741666Y-132722952D01*
X156789285Y-132770571D01*
X156836904Y-132865809D01*
X156836904Y-133103904D01*
X156789285Y-133199142D01*
X156741666Y-133246761D01*
X156646428Y-133294380D01*
X156360714Y-133294380D01*
X156265476Y-133246761D01*
X156217857Y-133199142D01*
X170045142Y-126976142D02*
X169997523Y-127023761D01*
X169854666Y-127071380D01*
X169759428Y-127071380D01*
X169616571Y-127023761D01*
X169521333Y-126928523D01*
X169473714Y-126833285D01*
X169426095Y-126642809D01*
X169426095Y-126499952D01*
X169473714Y-126309476D01*
X169521333Y-126214238D01*
X169616571Y-126119000D01*
X169759428Y-126071380D01*
X169854666Y-126071380D01*
X169997523Y-126119000D01*
X170045142Y-126166619D01*
X170997523Y-127071380D02*
X170426095Y-127071380D01*
X170711809Y-127071380D02*
X170711809Y-126071380D01*
X170616571Y-126214238D01*
X170521333Y-126309476D01*
X170426095Y-126357095D01*
X171854666Y-126071380D02*
X171664190Y-126071380D01*
X171568952Y-126119000D01*
X171521333Y-126166619D01*
X171426095Y-126309476D01*
X171378476Y-126499952D01*
X171378476Y-126880904D01*
X171426095Y-126976142D01*
X171473714Y-127023761D01*
X171568952Y-127071380D01*
X171759428Y-127071380D01*
X171854666Y-127023761D01*
X171902285Y-126976142D01*
X171949904Y-126880904D01*
X171949904Y-126642809D01*
X171902285Y-126547571D01*
X171854666Y-126499952D01*
X171759428Y-126452333D01*
X171568952Y-126452333D01*
X171473714Y-126499952D01*
X171426095Y-126547571D01*
X171378476Y-126642809D01*
X173029642Y-112498142D02*
X172982023Y-112545761D01*
X172839166Y-112593380D01*
X172743928Y-112593380D01*
X172601071Y-112545761D01*
X172505833Y-112450523D01*
X172458214Y-112355285D01*
X172410595Y-112164809D01*
X172410595Y-112021952D01*
X172458214Y-111831476D01*
X172505833Y-111736238D01*
X172601071Y-111641000D01*
X172743928Y-111593380D01*
X172839166Y-111593380D01*
X172982023Y-111641000D01*
X173029642Y-111688619D01*
X173982023Y-112593380D02*
X173410595Y-112593380D01*
X173696309Y-112593380D02*
X173696309Y-111593380D01*
X173601071Y-111736238D01*
X173505833Y-111831476D01*
X173410595Y-111879095D01*
X174315357Y-111593380D02*
X174982023Y-111593380D01*
X174553452Y-112593380D01*
X147042142Y-131570857D02*
X147089761Y-131618476D01*
X147137380Y-131761333D01*
X147137380Y-131856571D01*
X147089761Y-131999428D01*
X146994523Y-132094666D01*
X146899285Y-132142285D01*
X146708809Y-132189904D01*
X146565952Y-132189904D01*
X146375476Y-132142285D01*
X146280238Y-132094666D01*
X146185000Y-131999428D01*
X146137380Y-131856571D01*
X146137380Y-131761333D01*
X146185000Y-131618476D01*
X146232619Y-131570857D01*
X147137380Y-130618476D02*
X147137380Y-131189904D01*
X147137380Y-130904190D02*
X146137380Y-130904190D01*
X146280238Y-130999428D01*
X146375476Y-131094666D01*
X146423095Y-131189904D01*
X147137380Y-130142285D02*
X147137380Y-129951809D01*
X147089761Y-129856571D01*
X147042142Y-129808952D01*
X146899285Y-129713714D01*
X146708809Y-129666095D01*
X146327857Y-129666095D01*
X146232619Y-129713714D01*
X146185000Y-129761333D01*
X146137380Y-129856571D01*
X146137380Y-130047047D01*
X146185000Y-130142285D01*
X146232619Y-130189904D01*
X146327857Y-130237523D01*
X146565952Y-130237523D01*
X146661190Y-130189904D01*
X146708809Y-130142285D01*
X146756428Y-130047047D01*
X146756428Y-129856571D01*
X146708809Y-129761333D01*
X146661190Y-129713714D01*
X146565952Y-129666095D01*
X173140642Y-107513357D02*
X173188261Y-107560976D01*
X173235880Y-107703833D01*
X173235880Y-107799071D01*
X173188261Y-107941928D01*
X173093023Y-108037166D01*
X172997785Y-108084785D01*
X172807309Y-108132404D01*
X172664452Y-108132404D01*
X172473976Y-108084785D01*
X172378738Y-108037166D01*
X172283500Y-107941928D01*
X172235880Y-107799071D01*
X172235880Y-107703833D01*
X172283500Y-107560976D01*
X172331119Y-107513357D01*
X172331119Y-107132404D02*
X172283500Y-107084785D01*
X172235880Y-106989547D01*
X172235880Y-106751452D01*
X172283500Y-106656214D01*
X172331119Y-106608595D01*
X172426357Y-106560976D01*
X172521595Y-106560976D01*
X172664452Y-106608595D01*
X173235880Y-107180023D01*
X173235880Y-106560976D01*
X172235880Y-105941928D02*
X172235880Y-105846690D01*
X172283500Y-105751452D01*
X172331119Y-105703833D01*
X172426357Y-105656214D01*
X172616833Y-105608595D01*
X172854928Y-105608595D01*
X173045404Y-105656214D01*
X173140642Y-105703833D01*
X173188261Y-105751452D01*
X173235880Y-105846690D01*
X173235880Y-105941928D01*
X173188261Y-106037166D01*
X173140642Y-106084785D01*
X173045404Y-106132404D01*
X172854928Y-106180023D01*
X172616833Y-106180023D01*
X172426357Y-106132404D01*
X172331119Y-106084785D01*
X172283500Y-106037166D01*
X172235880Y-105941928D01*
X134167571Y-117038333D02*
X134167571Y-117371666D01*
X134691380Y-117371666D02*
X133691380Y-117371666D01*
X133691380Y-116895476D01*
X134167571Y-116181190D02*
X134215190Y-116038333D01*
X134262809Y-115990714D01*
X134358047Y-115943095D01*
X134500904Y-115943095D01*
X134596142Y-115990714D01*
X134643761Y-116038333D01*
X134691380Y-116133571D01*
X134691380Y-116514523D01*
X133691380Y-116514523D01*
X133691380Y-116181190D01*
X133739000Y-116085952D01*
X133786619Y-116038333D01*
X133881857Y-115990714D01*
X133977095Y-115990714D01*
X134072333Y-116038333D01*
X134119952Y-116085952D01*
X134167571Y-116181190D01*
X134167571Y-116514523D01*
X134691380Y-114990714D02*
X134691380Y-115562142D01*
X134691380Y-115276428D02*
X133691380Y-115276428D01*
X133834238Y-115371666D01*
X133929476Y-115466904D01*
X133977095Y-115562142D01*
X154805071Y-138056833D02*
X154805071Y-138390166D01*
X155328880Y-138390166D02*
X154328880Y-138390166D01*
X154328880Y-137913976D01*
X154805071Y-137199690D02*
X154852690Y-137056833D01*
X154900309Y-137009214D01*
X154995547Y-136961595D01*
X155138404Y-136961595D01*
X155233642Y-137009214D01*
X155281261Y-137056833D01*
X155328880Y-137152071D01*
X155328880Y-137533023D01*
X154328880Y-137533023D01*
X154328880Y-137199690D01*
X154376500Y-137104452D01*
X154424119Y-137056833D01*
X154519357Y-137009214D01*
X154614595Y-137009214D01*
X154709833Y-137056833D01*
X154757452Y-137104452D01*
X154805071Y-137199690D01*
X154805071Y-137533023D01*
X154424119Y-136580642D02*
X154376500Y-136533023D01*
X154328880Y-136437785D01*
X154328880Y-136199690D01*
X154376500Y-136104452D01*
X154424119Y-136056833D01*
X154519357Y-136009214D01*
X154614595Y-136009214D01*
X154757452Y-136056833D01*
X155328880Y-136628261D01*
X155328880Y-136009214D01*
X135882071Y-130055833D02*
X135882071Y-130389166D01*
X136405880Y-130389166D02*
X135405880Y-130389166D01*
X135405880Y-129912976D01*
X135882071Y-129198690D02*
X135929690Y-129055833D01*
X135977309Y-129008214D01*
X136072547Y-128960595D01*
X136215404Y-128960595D01*
X136310642Y-129008214D01*
X136358261Y-129055833D01*
X136405880Y-129151071D01*
X136405880Y-129532023D01*
X135405880Y-129532023D01*
X135405880Y-129198690D01*
X135453500Y-129103452D01*
X135501119Y-129055833D01*
X135596357Y-129008214D01*
X135691595Y-129008214D01*
X135786833Y-129055833D01*
X135834452Y-129103452D01*
X135882071Y-129198690D01*
X135882071Y-129532023D01*
X135405880Y-128103452D02*
X135405880Y-128293928D01*
X135453500Y-128389166D01*
X135501119Y-128436785D01*
X135643976Y-128532023D01*
X135834452Y-128579642D01*
X136215404Y-128579642D01*
X136310642Y-128532023D01*
X136358261Y-128484404D01*
X136405880Y-128389166D01*
X136405880Y-128198690D01*
X136358261Y-128103452D01*
X136310642Y-128055833D01*
X136215404Y-128008214D01*
X135977309Y-128008214D01*
X135882071Y-128055833D01*
X135834452Y-128103452D01*
X135786833Y-128198690D01*
X135786833Y-128389166D01*
X135834452Y-128484404D01*
X135882071Y-128532023D01*
X135977309Y-128579642D01*
X177887333Y-112783880D02*
X177554000Y-112307690D01*
X177315904Y-112783880D02*
X177315904Y-111783880D01*
X177696857Y-111783880D01*
X177792095Y-111831500D01*
X177839714Y-111879119D01*
X177887333Y-111974357D01*
X177887333Y-112117214D01*
X177839714Y-112212452D01*
X177792095Y-112260071D01*
X177696857Y-112307690D01*
X177315904Y-112307690D01*
X178744476Y-111783880D02*
X178554000Y-111783880D01*
X178458761Y-111831500D01*
X178411142Y-111879119D01*
X178315904Y-112021976D01*
X178268285Y-112212452D01*
X178268285Y-112593404D01*
X178315904Y-112688642D01*
X178363523Y-112736261D01*
X178458761Y-112783880D01*
X178649238Y-112783880D01*
X178744476Y-112736261D01*
X178792095Y-112688642D01*
X178839714Y-112593404D01*
X178839714Y-112355309D01*
X178792095Y-112260071D01*
X178744476Y-112212452D01*
X178649238Y-112164833D01*
X178458761Y-112164833D01*
X178363523Y-112212452D01*
X178315904Y-112260071D01*
X178268285Y-112355309D01*
X178957833Y-115323880D02*
X178624500Y-114847690D01*
X178386404Y-115323880D02*
X178386404Y-114323880D01*
X178767357Y-114323880D01*
X178862595Y-114371500D01*
X178910214Y-114419119D01*
X178957833Y-114514357D01*
X178957833Y-114657214D01*
X178910214Y-114752452D01*
X178862595Y-114800071D01*
X178767357Y-114847690D01*
X178386404Y-114847690D01*
X179291166Y-114323880D02*
X179957833Y-114323880D01*
X179529261Y-115323880D01*
X131254595Y-107719880D02*
X131254595Y-108529404D01*
X131302214Y-108624642D01*
X131349833Y-108672261D01*
X131445071Y-108719880D01*
X131635547Y-108719880D01*
X131730785Y-108672261D01*
X131778404Y-108624642D01*
X131826023Y-108529404D01*
X131826023Y-107719880D01*
X132254595Y-107815119D02*
X132302214Y-107767500D01*
X132397452Y-107719880D01*
X132635547Y-107719880D01*
X132730785Y-107767500D01*
X132778404Y-107815119D01*
X132826023Y-107910357D01*
X132826023Y-108005595D01*
X132778404Y-108148452D01*
X132206976Y-108719880D01*
X132826023Y-108719880D01*
X141478095Y-107402380D02*
X141478095Y-108211904D01*
X141525714Y-108307142D01*
X141573333Y-108354761D01*
X141668571Y-108402380D01*
X141859047Y-108402380D01*
X141954285Y-108354761D01*
X142001904Y-108307142D01*
X142049523Y-108211904D01*
X142049523Y-107402380D01*
X142430476Y-107402380D02*
X143049523Y-107402380D01*
X142716190Y-107783333D01*
X142859047Y-107783333D01*
X142954285Y-107830952D01*
X143001904Y-107878571D01*
X143049523Y-107973809D01*
X143049523Y-108211904D01*
X143001904Y-108307142D01*
X142954285Y-108354761D01*
X142859047Y-108402380D01*
X142573333Y-108402380D01*
X142478095Y-108354761D01*
X142430476Y-108307142D01*
X160528095Y-129373380D02*
X160528095Y-130182904D01*
X160575714Y-130278142D01*
X160623333Y-130325761D01*
X160718571Y-130373380D01*
X160909047Y-130373380D01*
X161004285Y-130325761D01*
X161051904Y-130278142D01*
X161099523Y-130182904D01*
X161099523Y-129373380D01*
X162004285Y-129706714D02*
X162004285Y-130373380D01*
X161766190Y-129325761D02*
X161528095Y-130040047D01*
X162147142Y-130040047D01*
X177228595Y-107275380D02*
X177228595Y-108084904D01*
X177276214Y-108180142D01*
X177323833Y-108227761D01*
X177419071Y-108275380D01*
X177609547Y-108275380D01*
X177704785Y-108227761D01*
X177752404Y-108180142D01*
X177800023Y-108084904D01*
X177800023Y-107275380D01*
X178752404Y-107275380D02*
X178276214Y-107275380D01*
X178228595Y-107751571D01*
X178276214Y-107703952D01*
X178371452Y-107656333D01*
X178609547Y-107656333D01*
X178704785Y-107703952D01*
X178752404Y-107751571D01*
X178800023Y-107846809D01*
X178800023Y-108084904D01*
X178752404Y-108180142D01*
X178704785Y-108227761D01*
X178609547Y-108275380D01*
X178371452Y-108275380D01*
X178276214Y-108227761D01*
X178228595Y-108180142D01*
X139660380Y-126301404D02*
X140469904Y-126301404D01*
X140565142Y-126253785D01*
X140612761Y-126206166D01*
X140660380Y-126110928D01*
X140660380Y-125920452D01*
X140612761Y-125825214D01*
X140565142Y-125777595D01*
X140469904Y-125729976D01*
X139660380Y-125729976D01*
X139660380Y-124825214D02*
X139660380Y-125015690D01*
X139708000Y-125110928D01*
X139755619Y-125158547D01*
X139898476Y-125253785D01*
X140088952Y-125301404D01*
X140469904Y-125301404D01*
X140565142Y-125253785D01*
X140612761Y-125206166D01*
X140660380Y-125110928D01*
X140660380Y-124920452D01*
X140612761Y-124825214D01*
X140565142Y-124777595D01*
X140469904Y-124729976D01*
X140231809Y-124729976D01*
X140136571Y-124777595D01*
X140088952Y-124825214D01*
X140041333Y-124920452D01*
X140041333Y-125110928D01*
X140088952Y-125206166D01*
X140136571Y-125253785D01*
X140231809Y-125301404D01*
X143256095Y-115212880D02*
X143256095Y-116022404D01*
X143303714Y-116117642D01*
X143351333Y-116165261D01*
X143446571Y-116212880D01*
X143637047Y-116212880D01*
X143732285Y-116165261D01*
X143779904Y-116117642D01*
X143827523Y-116022404D01*
X143827523Y-115212880D01*
X144351333Y-116212880D02*
X144541809Y-116212880D01*
X144637047Y-116165261D01*
X144684666Y-116117642D01*
X144779904Y-115974785D01*
X144827523Y-115784309D01*
X144827523Y-115403357D01*
X144779904Y-115308119D01*
X144732285Y-115260500D01*
X144637047Y-115212880D01*
X144446571Y-115212880D01*
X144351333Y-115260500D01*
X144303714Y-115308119D01*
X144256095Y-115403357D01*
X144256095Y-115641452D01*
X144303714Y-115736690D01*
X144351333Y-115784309D01*
X144446571Y-115831928D01*
X144637047Y-115831928D01*
X144732285Y-115784309D01*
X144779904Y-115736690D01*
X144827523Y-115641452D01*
X155027380Y-120173595D02*
X155836904Y-120173595D01*
X155932142Y-120125976D01*
X155979761Y-120078357D01*
X156027380Y-119983119D01*
X156027380Y-119792642D01*
X155979761Y-119697404D01*
X155932142Y-119649785D01*
X155836904Y-119602166D01*
X155027380Y-119602166D01*
X156027380Y-118602166D02*
X156027380Y-119173595D01*
X156027380Y-118887880D02*
X155027380Y-118887880D01*
X155170238Y-118983119D01*
X155265476Y-119078357D01*
X155313095Y-119173595D01*
X155027380Y-117983119D02*
X155027380Y-117887880D01*
X155075000Y-117792642D01*
X155122619Y-117745023D01*
X155217857Y-117697404D01*
X155408333Y-117649785D01*
X155646428Y-117649785D01*
X155836904Y-117697404D01*
X155932142Y-117745023D01*
X155979761Y-117792642D01*
X156027380Y-117887880D01*
X156027380Y-117983119D01*
X155979761Y-118078357D01*
X155932142Y-118125976D01*
X155836904Y-118173595D01*
X155646428Y-118221214D01*
X155408333Y-118221214D01*
X155217857Y-118173595D01*
X155122619Y-118125976D01*
X155075000Y-118078357D01*
X155027380Y-117983119D01*
X139533380Y-136366095D02*
X140342904Y-136366095D01*
X140438142Y-136318476D01*
X140485761Y-136270857D01*
X140533380Y-136175619D01*
X140533380Y-135985142D01*
X140485761Y-135889904D01*
X140438142Y-135842285D01*
X140342904Y-135794666D01*
X139533380Y-135794666D01*
X140533380Y-134794666D02*
X140533380Y-135366095D01*
X140533380Y-135080380D02*
X139533380Y-135080380D01*
X139676238Y-135175619D01*
X139771476Y-135270857D01*
X139819095Y-135366095D01*
X139533380Y-133937523D02*
X139533380Y-134128000D01*
X139581000Y-134223238D01*
X139628619Y-134270857D01*
X139771476Y-134366095D01*
X139961952Y-134413714D01*
X140342904Y-134413714D01*
X140438142Y-134366095D01*
X140485761Y-134318476D01*
X140533380Y-134223238D01*
X140533380Y-134032761D01*
X140485761Y-133937523D01*
X140438142Y-133889904D01*
X140342904Y-133842285D01*
X140104809Y-133842285D01*
X140009571Y-133889904D01*
X139961952Y-133937523D01*
X139914333Y-134032761D01*
X139914333Y-134223238D01*
X139961952Y-134318476D01*
X140009571Y-134366095D01*
X140104809Y-134413714D01*
X169267119Y-113569738D02*
X169219500Y-113664976D01*
X169124261Y-113760214D01*
X168981404Y-113903071D01*
X168933785Y-113998309D01*
X168933785Y-114093547D01*
X169171880Y-114045928D02*
X169124261Y-114141166D01*
X169029023Y-114236404D01*
X168838547Y-114284023D01*
X168505214Y-114284023D01*
X168314738Y-114236404D01*
X168219500Y-114141166D01*
X168171880Y-114045928D01*
X168171880Y-113855452D01*
X168219500Y-113760214D01*
X168314738Y-113664976D01*
X168505214Y-113617357D01*
X168838547Y-113617357D01*
X169029023Y-113664976D01*
X169124261Y-113760214D01*
X169171880Y-113855452D01*
X169171880Y-114045928D01*
X169171880Y-112664976D02*
X169171880Y-113236404D01*
X169171880Y-112950690D02*
X168171880Y-112950690D01*
X168314738Y-113045928D01*
X168409976Y-113141166D01*
X168457595Y-113236404D01*
X136564642Y-133929357D02*
X136612261Y-133976976D01*
X136659880Y-134119833D01*
X136659880Y-134215071D01*
X136612261Y-134357928D01*
X136517023Y-134453166D01*
X136421785Y-134500785D01*
X136231309Y-134548404D01*
X136088452Y-134548404D01*
X135897976Y-134500785D01*
X135802738Y-134453166D01*
X135707500Y-134357928D01*
X135659880Y-134215071D01*
X135659880Y-134119833D01*
X135707500Y-133976976D01*
X135755119Y-133929357D01*
X135755119Y-133548404D02*
X135707500Y-133500785D01*
X135659880Y-133405547D01*
X135659880Y-133167452D01*
X135707500Y-133072214D01*
X135755119Y-133024595D01*
X135850357Y-132976976D01*
X135945595Y-132976976D01*
X136088452Y-133024595D01*
X136659880Y-133596023D01*
X136659880Y-132976976D01*
X136659880Y-132024595D02*
X136659880Y-132596023D01*
X136659880Y-132310309D02*
X135659880Y-132310309D01*
X135802738Y-132405547D01*
X135897976Y-132500785D01*
X135945595Y-132596023D01*
X156288380Y-138112404D02*
X157097904Y-138112404D01*
X157193142Y-138064785D01*
X157240761Y-138017166D01*
X157288380Y-137921928D01*
X157288380Y-137731452D01*
X157240761Y-137636214D01*
X157193142Y-137588595D01*
X157097904Y-137540976D01*
X156288380Y-137540976D01*
X156716952Y-136921928D02*
X156669333Y-137017166D01*
X156621714Y-137064785D01*
X156526476Y-137112404D01*
X156478857Y-137112404D01*
X156383619Y-137064785D01*
X156336000Y-137017166D01*
X156288380Y-136921928D01*
X156288380Y-136731452D01*
X156336000Y-136636214D01*
X156383619Y-136588595D01*
X156478857Y-136540976D01*
X156526476Y-136540976D01*
X156621714Y-136588595D01*
X156669333Y-136636214D01*
X156716952Y-136731452D01*
X156716952Y-136921928D01*
X156764571Y-137017166D01*
X156812190Y-137064785D01*
X156907428Y-137112404D01*
X157097904Y-137112404D01*
X157193142Y-137064785D01*
X157240761Y-137017166D01*
X157288380Y-136921928D01*
X157288380Y-136731452D01*
X157240761Y-136636214D01*
X157193142Y-136588595D01*
X157097904Y-136540976D01*
X156907428Y-136540976D01*
X156812190Y-136588595D01*
X156764571Y-136636214D01*
X156716952Y-136731452D01*
M02*
