M48
; DRILL file {KiCad (5.1.5)-3} date 7/22/2020 7:22:05 PM
; FORMAT={-:-/ absolute / inch / decimal}
; #@! TF.CreationDate,2020-07-22T19:22:05-04:00
; #@! TF.GenerationSoftware,Kicad,Pcbnew,(5.1.5)-3
; #@! TF.FileFunction,Plated,1,2,PTH
FMAT,2
INCH
T1C0.0157
T2C0.0276
T3C0.0315
T4C0.0472
T5C0.0787
T6C0.0984
T7C0.1181
%
G90
G05
T1
X2.56Y-6.3375
X2.5975Y-6.6125
X2.9325Y-2.05
X2.94Y-6.525
X2.95Y-6.0175
X2.9525Y-6.375
X3.0425Y-6.2175
X3.06Y-3.9475
X3.0625Y-6.5275
X3.0975Y-3.99
X3.1125Y-2.45
X3.15Y-2.3
X3.15Y-3.6525
X3.15Y-3.76
X3.1525Y-2.15
X3.16Y-3.5725
X3.16Y-6.1025
X3.1625Y-6.4225
X3.1675Y-3.5
X3.1775Y-3.71
X3.19Y-3.8125
X3.2225Y-3.8575
X3.255Y-2.3975
X3.265Y-6.3875
X3.36Y-6.3925
X3.4Y-2.9
X3.42Y-2.3075
X3.4625Y-6.3975
X3.4975Y-3.15
X3.56Y-6.075
X3.56Y-6.4075
X3.6625Y-6.4375
X3.6875Y-6.24
X3.7Y-2.39
X3.745Y-3.775
X3.7875Y-2.425
X3.8025Y-6.34
X3.84Y-2.61
X3.85Y-2.0525
X3.85Y-2.42
X3.8575Y-3.715
X3.91Y-6.025
X3.935Y-3.815
X3.9375Y-3.45
X3.975Y-5.6
X4.01Y-6.025
X4.0975Y-2.2825
X4.0975Y-3.1
X4.11Y-6.025
X4.115Y-5.5975
X4.1969Y-2.3981
X4.2Y-3.5025
X4.2Y-3.7075
X4.2Y-5.75
X4.21Y-6.025
X4.31Y-6.025
X4.3525Y-2.8025
X4.4025Y-2.4
X4.41Y-6.025
X4.4125Y-2.1225
X4.4387Y-2.2512
X4.51Y-3.7975
X4.51Y-6.025
X4.5125Y-2.0
X4.545Y-3.1
X4.5825Y-2.1675
X4.6075Y-5.9375
X4.61Y-6.025
X4.6425Y-3.65
X4.645Y-2.855
X4.65Y-3.845
X4.65Y-5.425
X4.65Y-5.475
X4.65Y-5.525
X4.65Y-5.575
X4.65Y-5.625
X4.6536Y-5.2689
X4.7275Y-6.6125
X4.755Y-6.2925
X4.84Y-2.1475
X4.8969Y-3.2281
X4.96Y-2.8625
X5.0025Y-2.9675
X5.015Y-2.84
X5.025Y-2.9
X5.035Y-2.7925
X5.045Y-2.9425
X5.095Y-2.945
X5.1075Y-2.99
X5.13Y-2.595
X5.175Y-2.6975
X5.175Y-2.8
X5.22Y-4.65
X5.22Y-4.75
X5.23Y-4.55
X5.2325Y-4.25
X5.2425Y-4.35
X5.2725Y-4.03
X5.285Y-2.705
X5.7775Y-5.0575
X5.9225Y-3.795
X6.24Y-5.205
X6.2625Y-3.45
X6.35Y-3.3
T2
X5.65Y-2.1
X5.65Y-2.6
X5.75Y-2.1
X5.75Y-2.6
X5.75Y-4.4
X5.75Y-4.9
X5.35Y-2.1
X5.35Y-2.6
X3.4Y-5.45
X3.9Y-5.45
X5.75Y-4.05
X6.25Y-4.05
X6.35Y-4.5
X6.35Y-5.0
X6.35Y-3.9
X6.35Y-4.4
X3.7Y-2.0
X3.7Y-2.5
X2.75Y-2.55
X2.75Y-3.05
X3.4Y-5.6
X3.9Y-5.6
X6.45Y-4.5
X6.45Y-5.0
X5.55Y-2.1
X5.55Y-2.6
X2.85Y-2.55
X2.85Y-3.05
X6.45Y-3.9
X6.45Y-4.4
X3.9Y-2.0
X3.9Y-2.5
X6.35Y-3.2
X6.35Y-3.7
X3.4Y-5.75
X3.9Y-5.75
X6.35Y-2.6
X6.35Y-3.1
X3.8Y-2.0
X3.8Y-2.5
X5.45Y-2.1
X5.45Y-2.6
T3
X5.9Y-3.9
X6.0969Y-3.9
X3.85Y-4.1
X3.85Y-4.2
X3.85Y-4.3
X3.85Y-4.4
X3.85Y-4.5
X3.85Y-4.6
X3.85Y-4.7
X3.85Y-4.8
X3.85Y-4.9
X5.3Y-4.1
X5.3Y-4.2
X5.3Y-4.3
X5.3Y-4.4
X5.3Y-4.5
X5.3Y-4.6
X5.3Y-4.7
X5.3Y-4.8
X5.3Y-4.9
X5.3Y-5.0
X5.6Y-4.1
X5.6Y-4.2
X5.6Y-4.3
X5.6Y-4.4
X5.6Y-4.5
X5.6Y-4.6
X5.6Y-4.7
X5.6Y-4.8
X5.6Y-4.9
X5.6Y-5.0
X4.55Y-4.1
X4.55Y-4.2
X4.55Y-4.3
X4.55Y-4.4
X4.55Y-4.5
X4.55Y-4.6
X4.55Y-4.7
X4.55Y-4.8
X4.55Y-4.9
X3.3Y-4.1
X3.3Y-4.2
X3.3Y-4.3
X3.3Y-4.4
X3.3Y-4.5
X3.3Y-4.6
X3.3Y-4.7
X3.3Y-4.8
X3.3Y-4.9
X3.3Y-5.0
X3.6Y-4.1
X3.6Y-4.2
X3.6Y-4.3
X3.6Y-4.4
X3.6Y-4.5
X3.6Y-4.6
X3.6Y-4.7
X3.6Y-4.8
X3.6Y-4.9
X3.6Y-5.0
X3.8Y-2.9
X3.8Y-3.0969
X4.7Y-3.1
X4.7Y-3.2
X4.7Y-3.3
X4.7Y-3.4
X4.7Y-3.5
X4.7Y-3.6
X4.7Y-3.7
X5.0Y-3.1
X5.0Y-3.2
X5.0Y-3.3
X5.0Y-3.4
X5.0Y-3.5
X5.0Y-3.6
X5.0Y-3.7
X4.7Y-4.1
X4.7Y-4.2
X4.7Y-4.3
X4.7Y-4.4
X4.7Y-4.5
X4.7Y-4.6
X4.7Y-4.7
X4.7Y-4.8
X4.7Y-4.9
X4.7Y-5.0
X5.0Y-4.1
X5.0Y-4.2
X5.0Y-4.3
X5.0Y-4.4
X5.0Y-4.5
X5.0Y-4.6
X5.0Y-4.7
X5.0Y-4.8
X5.0Y-4.9
X5.0Y-5.0
X4.0031Y-5.2
X4.2Y-5.2
X5.9Y-2.0
X5.9Y-2.1
X5.9Y-2.2
X5.9Y-2.3
X5.9Y-2.4
X5.9Y-2.5
X5.9Y-2.6
X6.2Y-2.0
X6.2Y-2.1
X6.2Y-2.2
X6.2Y-2.3
X6.2Y-2.4
X6.2Y-2.5
X6.2Y-2.6
X4.0Y-2.8
X4.1969Y-2.8
X4.0Y-3.0
X4.0Y-3.1
X4.0Y-3.2
X4.0Y-3.3
X4.0Y-3.4
X4.0Y-3.5
X4.0Y-3.6
X4.0Y-3.7
X4.3Y-3.0
X4.3Y-3.1
X4.3Y-3.2
X4.3Y-3.3
X4.3Y-3.4
X4.3Y-3.5
X4.3Y-3.6
X4.3Y-3.7
X4.7Y-2.8
X4.8969Y-2.8
X5.9Y-4.3
X5.9Y-4.4
X5.9Y-4.5
X5.9Y-4.6
X5.9Y-4.7
X5.9Y-4.8
X5.9Y-4.9
X5.9Y-5.0
X6.2Y-4.3
X6.2Y-4.4
X6.2Y-4.5
X6.2Y-4.6
X6.2Y-4.7
X6.2Y-4.8
X6.2Y-4.9
X6.2Y-5.0
X3.0Y-2.0
X3.0Y-2.1
X3.0Y-2.2
X3.0Y-2.3
X3.0Y-2.4
X3.0Y-2.5
X3.0Y-2.6
X3.0Y-2.7
X3.0Y-2.8
X3.0Y-2.9
X3.0Y-3.0
X3.0Y-3.1
X3.0Y-3.2
X3.0Y-3.3
X3.0Y-3.4
X3.0Y-3.5
X3.0Y-3.6
X3.0Y-3.7
X3.0Y-3.8
X3.0Y-3.9
X3.6Y-2.0
X3.6Y-2.1
X3.6Y-2.2
X3.6Y-2.3
X3.6Y-2.4
X3.6Y-2.5
X3.6Y-2.6
X3.6Y-2.7
X3.6Y-2.8
X3.6Y-2.9
X3.6Y-3.0
X3.6Y-3.1
X3.6Y-3.2
X3.6Y-3.3
X3.6Y-3.4
X3.6Y-3.5
X3.6Y-3.6
X3.6Y-3.7
X3.6Y-3.8
X3.6Y-3.9
X4.7031Y-5.2
X4.9Y-5.2
X3.15Y-4.1
X3.15Y-4.2
X3.15Y-4.3
X3.15Y-4.4
X3.15Y-4.5
X3.15Y-4.6
X3.15Y-4.7
X3.15Y-4.8
X3.15Y-4.9
X4.0Y-2.0
X4.0Y-2.1
X4.0Y-2.2
X4.0Y-2.3
X4.0Y-2.4
X4.0Y-2.5
X4.0Y-2.6
X4.3Y-2.0
X4.3Y-2.1
X4.3Y-2.2
X4.3Y-2.3
X4.3Y-2.4
X4.3Y-2.5
X4.3Y-2.6
X5.9Y-5.2
X6.0969Y-5.2
X4.7Y-2.0
X4.7Y-2.1
X4.7Y-2.2
X4.7Y-2.3
X4.7Y-2.4
X4.7Y-2.5
X4.7Y-2.6
X5.0Y-2.0
X5.0Y-2.1
X5.0Y-2.2
X5.0Y-2.3
X5.0Y-2.4
X5.0Y-2.5
X5.0Y-2.6
X4.0Y-4.1
X4.0Y-4.2
X4.0Y-4.3
X4.0Y-4.4
X4.0Y-4.5
X4.0Y-4.6
X4.0Y-4.7
X4.0Y-4.8
X4.0Y-4.9
X4.0Y-5.0
X4.3Y-4.1
X4.3Y-4.2
X4.3Y-4.3
X4.3Y-4.4
X4.3Y-4.5
X4.3Y-4.6
X4.3Y-4.7
X4.3Y-4.8
X4.3Y-4.9
X4.3Y-5.0
X4.7Y-3.9
X4.8969Y-3.9
X5.9Y-3.1
X5.9Y-3.2
X5.9Y-3.3
X5.9Y-3.4
X5.9Y-3.5
X5.9Y-3.6
X5.9Y-3.7
X6.2Y-3.1
X6.2Y-3.2
X6.2Y-3.3
X6.2Y-3.4
X6.2Y-3.5
X6.2Y-3.6
X6.2Y-3.7
X3.3Y-5.2
X3.4969Y-5.2
X4.0031Y-3.9
X4.2Y-3.9
X5.3Y-5.2
X5.4969Y-5.2
X5.9Y-2.8
X6.0969Y-2.8
X5.55Y-2.75
X5.65Y-2.75
X5.75Y-2.75
T4
X2.85Y-4.1
X2.85Y-5.0843
T5
X3.2388Y-5.6731
X6.4575Y-1.985
T6
X2.77Y-2.095
X2.77Y-5.9075
T7
X2.74Y-3.595
X5.5056Y-3.595
T0
M30
