%FSLAX45Y45*%
G04 Gerber Fmt 4.5, Leading zero omitted, Abs format (unit mm)*
G04 Created by KiCad (PCBNEW (5.1.5)-3) date 2020-10-06 00:11:38*
%MOMM*%
%LPD*%
G04 APERTURE LIST*
%ADD10C,0.200000*%
%ADD11C,0.300000*%
G04 APERTURE END LIST*
D10*
X6482400Y-16077250D02*
X6522400Y-16117250D01*
X6522400Y-16077250D02*
X6482400Y-16117250D01*
X6577650Y-16775750D02*
X6617650Y-16815750D01*
X6617650Y-16775750D02*
X6577650Y-16815750D01*
X7428550Y-5187000D02*
X7468550Y-5227000D01*
X7468550Y-5187000D02*
X7428550Y-5227000D01*
X7447600Y-16553500D02*
X7487600Y-16593500D01*
X7487600Y-16553500D02*
X7447600Y-16593500D01*
X7473000Y-15264450D02*
X7513000Y-15304450D01*
X7513000Y-15264450D02*
X7473000Y-15304450D01*
X7479350Y-16172500D02*
X7519350Y-16212500D01*
X7519350Y-16172500D02*
X7479350Y-16212500D01*
X7707950Y-15772450D02*
X7747950Y-15812450D01*
X7747950Y-15772450D02*
X7707950Y-15812450D01*
X7752400Y-10006650D02*
X7792400Y-10046650D01*
X7792400Y-10006650D02*
X7752400Y-10046650D01*
X7758750Y-16559850D02*
X7798750Y-16599850D01*
X7798750Y-16559850D02*
X7758750Y-16599850D01*
X7847650Y-10114600D02*
X7887650Y-10154600D01*
X7887650Y-10114600D02*
X7847650Y-10154600D01*
X7885750Y-6203000D02*
X7925750Y-6243000D01*
X7925750Y-6203000D02*
X7885750Y-6243000D01*
X7981000Y-5822000D02*
X8021000Y-5862000D01*
X8021000Y-5822000D02*
X7981000Y-5862000D01*
X7981000Y-9257350D02*
X8021000Y-9297350D01*
X8021000Y-9257350D02*
X7981000Y-9297350D01*
X7981000Y-9530400D02*
X8021000Y-9570400D01*
X8021000Y-9530400D02*
X7981000Y-9570400D01*
X7987350Y-5441000D02*
X8027350Y-5481000D01*
X8027350Y-5441000D02*
X7987350Y-5481000D01*
X8006400Y-9054150D02*
X8046400Y-9094150D01*
X8046400Y-9054150D02*
X8006400Y-9094150D01*
X8006400Y-15480350D02*
X8046400Y-15520350D01*
X8046400Y-15480350D02*
X8006400Y-15520350D01*
X8012750Y-16293150D02*
X8052750Y-16333150D01*
X8052750Y-16293150D02*
X8012750Y-16333150D01*
X8025450Y-8870000D02*
X8065450Y-8910000D01*
X8065450Y-8870000D02*
X8025450Y-8910000D01*
X8050850Y-9403400D02*
X8090850Y-9443400D01*
X8090850Y-9403400D02*
X8050850Y-9443400D01*
X8082600Y-9663750D02*
X8122600Y-9703750D01*
X8122600Y-9663750D02*
X8082600Y-9703750D01*
X8165150Y-9778050D02*
X8205150Y-9818050D01*
X8205150Y-9778050D02*
X8165150Y-9818050D01*
X8247700Y-6069650D02*
X8287700Y-6109650D01*
X8287700Y-6069650D02*
X8247700Y-6109650D01*
X8273100Y-16204250D02*
X8313100Y-16244250D01*
X8313100Y-16204250D02*
X8273100Y-16244250D01*
X8514400Y-16216950D02*
X8554400Y-16256950D01*
X8554400Y-16216950D02*
X8514400Y-16256950D01*
X8616000Y-7346000D02*
X8656000Y-7386000D01*
X8656000Y-7346000D02*
X8616000Y-7386000D01*
X8666800Y-5841050D02*
X8706800Y-5881050D01*
X8706800Y-5841050D02*
X8666800Y-5881050D01*
X8774750Y-16229650D02*
X8814750Y-16269650D01*
X8814750Y-16229650D02*
X8774750Y-16269650D01*
X8863650Y-7981000D02*
X8903650Y-8021000D01*
X8903650Y-7981000D02*
X8863650Y-8021000D01*
X9022400Y-15410500D02*
X9062400Y-15450500D01*
X9062400Y-15410500D02*
X9022400Y-15450500D01*
X9022400Y-16255050D02*
X9062400Y-16295050D01*
X9062400Y-16255050D02*
X9022400Y-16295050D01*
X9282750Y-16331250D02*
X9322750Y-16371250D01*
X9322750Y-16331250D02*
X9282750Y-16371250D01*
X9346250Y-15829600D02*
X9386250Y-15869600D01*
X9386250Y-15829600D02*
X9346250Y-15869600D01*
X9378000Y-6050600D02*
X9418000Y-6090600D01*
X9418000Y-6050600D02*
X9378000Y-6090600D01*
X9492300Y-9568500D02*
X9532300Y-9608500D01*
X9532300Y-9568500D02*
X9492300Y-9608500D01*
X9600250Y-6139500D02*
X9640250Y-6179500D01*
X9640250Y-6139500D02*
X9600250Y-6179500D01*
X9638350Y-16083600D02*
X9678350Y-16123600D01*
X9678350Y-16083600D02*
X9638350Y-16123600D01*
X9733600Y-6609400D02*
X9773600Y-6649400D01*
X9773600Y-6609400D02*
X9733600Y-6649400D01*
X9759000Y-5193350D02*
X9799000Y-5233350D01*
X9799000Y-5193350D02*
X9759000Y-5233350D01*
X9759000Y-6126800D02*
X9799000Y-6166800D01*
X9799000Y-6126800D02*
X9759000Y-6166800D01*
X9778050Y-9416100D02*
X9818050Y-9456100D01*
X9818050Y-9416100D02*
X9778050Y-9456100D01*
X9911400Y-15283500D02*
X9951400Y-15323500D01*
X9951400Y-15283500D02*
X9911400Y-15323500D01*
X9974900Y-9670100D02*
X10014900Y-9710100D01*
X10014900Y-9670100D02*
X9974900Y-9710100D01*
X9981250Y-8743000D02*
X10021250Y-8783000D01*
X10021250Y-8743000D02*
X9981250Y-8783000D01*
X10076500Y-14204000D02*
X10116500Y-14244000D01*
X10116500Y-14204000D02*
X10076500Y-14244000D01*
X10165400Y-15283500D02*
X10205400Y-15323500D01*
X10205400Y-15283500D02*
X10165400Y-15323500D01*
X10387650Y-5777550D02*
X10427650Y-5817550D01*
X10427650Y-5777550D02*
X10387650Y-5817550D01*
X10387650Y-7854000D02*
X10427650Y-7894000D01*
X10427650Y-7854000D02*
X10387650Y-7894000D01*
X10419400Y-15283500D02*
X10459400Y-15323500D01*
X10459400Y-15283500D02*
X10419400Y-15323500D01*
X10432100Y-14197650D02*
X10472100Y-14237650D01*
X10472100Y-14197650D02*
X10432100Y-14237650D01*
X10640000Y-6071300D02*
X10680000Y-6111300D01*
X10680000Y-6071300D02*
X10640000Y-6111300D01*
X10648000Y-8876350D02*
X10688000Y-8916350D01*
X10688000Y-8876350D02*
X10648000Y-8916350D01*
X10648000Y-9397050D02*
X10688000Y-9437050D01*
X10688000Y-9397050D02*
X10648000Y-9437050D01*
X10648000Y-14585000D02*
X10688000Y-14625000D01*
X10688000Y-14585000D02*
X10648000Y-14625000D01*
X10673400Y-15283500D02*
X10713400Y-15323500D01*
X10713400Y-15283500D02*
X10673400Y-15323500D01*
X10927400Y-15283500D02*
X10967400Y-15323500D01*
X10967400Y-15283500D02*
X10927400Y-15323500D01*
X11035350Y-7098350D02*
X11075350Y-7138350D01*
X11075350Y-7098350D02*
X11035350Y-7138350D01*
X11162350Y-6076000D02*
X11202350Y-6116000D01*
X11202350Y-6076000D02*
X11162350Y-6116000D01*
X11181400Y-15283500D02*
X11221400Y-15323500D01*
X11221400Y-15283500D02*
X11181400Y-15323500D01*
X11187750Y-5371150D02*
X11227750Y-5411150D01*
X11227750Y-5371150D02*
X11187750Y-5411150D01*
X11254425Y-5698175D02*
X11294425Y-5738175D01*
X11294425Y-5698175D02*
X11254425Y-5738175D01*
X11435400Y-9625650D02*
X11475400Y-9665650D01*
X11475400Y-9625650D02*
X11435400Y-9665650D01*
X11435400Y-15283500D02*
X11475400Y-15323500D01*
X11475400Y-15283500D02*
X11435400Y-15323500D01*
X11441750Y-5060000D02*
X11481750Y-5100000D01*
X11481750Y-5060000D02*
X11441750Y-5100000D01*
X11524300Y-7854000D02*
X11564300Y-7894000D01*
X11564300Y-7854000D02*
X11524300Y-7894000D01*
X11619550Y-5485450D02*
X11659550Y-5525450D01*
X11659550Y-5485450D02*
X11619550Y-5525450D01*
X11683050Y-15061250D02*
X11723050Y-15101250D01*
X11723050Y-15061250D02*
X11683050Y-15101250D01*
X11689400Y-15283500D02*
X11729400Y-15323500D01*
X11729400Y-15283500D02*
X11689400Y-15323500D01*
X11771950Y-9251000D02*
X11811950Y-9291000D01*
X11811950Y-9251000D02*
X11771950Y-9291000D01*
X11778300Y-7231700D02*
X11818300Y-7271700D01*
X11818300Y-7231700D02*
X11778300Y-7271700D01*
X11791000Y-9746300D02*
X11831000Y-9786300D01*
X11831000Y-9746300D02*
X11791000Y-9786300D01*
X11791000Y-13759500D02*
X11831000Y-13799500D01*
X11831000Y-13759500D02*
X11791000Y-13799500D01*
X11791000Y-13886500D02*
X11831000Y-13926500D01*
X11831000Y-13886500D02*
X11791000Y-13926500D01*
X11791000Y-14013500D02*
X11831000Y-14053500D01*
X11831000Y-14013500D02*
X11791000Y-14053500D01*
X11791000Y-14140500D02*
X11831000Y-14180500D01*
X11831000Y-14140500D02*
X11791000Y-14180500D01*
X11791000Y-14267500D02*
X11831000Y-14307500D01*
X11831000Y-14267500D02*
X11791000Y-14307500D01*
X11800150Y-13363000D02*
X11840150Y-13403000D01*
X11840150Y-13363000D02*
X11800150Y-13403000D01*
X11987850Y-16775750D02*
X12027850Y-16815750D01*
X12027850Y-16775750D02*
X11987850Y-16815750D01*
X12057700Y-15962950D02*
X12097700Y-16002950D01*
X12097700Y-15962950D02*
X12057700Y-16002950D01*
X12273600Y-5434650D02*
X12313600Y-5474650D01*
X12313600Y-5434650D02*
X12273600Y-5474650D01*
X12418000Y-8179500D02*
X12458000Y-8219500D01*
X12458000Y-8179500D02*
X12418000Y-8219500D01*
X12578400Y-7250750D02*
X12618400Y-7290750D01*
X12618400Y-7250750D02*
X12578400Y-7290750D01*
X12686350Y-7517450D02*
X12726350Y-7557450D01*
X12726350Y-7517450D02*
X12686350Y-7557450D01*
X12718100Y-7193600D02*
X12758100Y-7233600D01*
X12758100Y-7193600D02*
X12718100Y-7233600D01*
X12743500Y-7346000D02*
X12783500Y-7386000D01*
X12783500Y-7346000D02*
X12743500Y-7386000D01*
X12768900Y-7072950D02*
X12808900Y-7112950D01*
X12808900Y-7072950D02*
X12768900Y-7112950D01*
X12794300Y-7453950D02*
X12834300Y-7493950D01*
X12834300Y-7453950D02*
X12794300Y-7493950D01*
X12921300Y-7460300D02*
X12961300Y-7500300D01*
X12961300Y-7460300D02*
X12921300Y-7500300D01*
X12953050Y-7574600D02*
X12993050Y-7614600D01*
X12993050Y-7574600D02*
X12953050Y-7614600D01*
X13010200Y-6571300D02*
X13050200Y-6611300D01*
X13050200Y-6571300D02*
X13010200Y-6611300D01*
X13124500Y-6831650D02*
X13164500Y-6871650D01*
X13164500Y-6831650D02*
X13124500Y-6871650D01*
X13124500Y-7092000D02*
X13164500Y-7132000D01*
X13164500Y-7092000D02*
X13124500Y-7132000D01*
X13238800Y-11791000D02*
X13278800Y-11831000D01*
X13278800Y-11791000D02*
X13238800Y-11831000D01*
X13238800Y-12045000D02*
X13278800Y-12085000D01*
X13278800Y-12045000D02*
X13238800Y-12085000D01*
X13264200Y-11537000D02*
X13304200Y-11577000D01*
X13304200Y-11537000D02*
X13264200Y-11577000D01*
X13270550Y-10775000D02*
X13310550Y-10815000D01*
X13310550Y-10775000D02*
X13270550Y-10815000D01*
X13295950Y-11029000D02*
X13335950Y-11069000D01*
X13335950Y-11029000D02*
X13295950Y-11069000D01*
X13372150Y-10216200D02*
X13412150Y-10256200D01*
X13412150Y-10216200D02*
X13372150Y-10256200D01*
X13403900Y-6850700D02*
X13443900Y-6890700D01*
X13443900Y-6850700D02*
X13403900Y-6890700D01*
X14654850Y-12826050D02*
X14694850Y-12866050D01*
X14694850Y-12826050D02*
X14654850Y-12866050D01*
X15023150Y-9619300D02*
X15063150Y-9659300D01*
X15063150Y-9619300D02*
X15023150Y-9659300D01*
X15829600Y-13200700D02*
X15869600Y-13240700D01*
X15869600Y-13200700D02*
X15829600Y-13240700D01*
X15886750Y-8743000D02*
X15926750Y-8783000D01*
X15926750Y-8743000D02*
X15886750Y-8783000D01*
X16109000Y-8362000D02*
X16149000Y-8402000D01*
X16149000Y-8362000D02*
X16109000Y-8402000D01*
X16164000Y-9906000D02*
G75*
G03X16164000Y-9906000I-35000J0D01*
G01*
X16164000Y-11176000D02*
G75*
G03X16164000Y-11176000I-35000J0D01*
G01*
X13878000Y-5334000D02*
G75*
G03X13878000Y-5334000I-35000J0D01*
G01*
X13878000Y-6604000D02*
G75*
G03X13878000Y-6604000I-35000J0D01*
G01*
X13624000Y-5334000D02*
G75*
G03X13624000Y-5334000I-35000J0D01*
G01*
X13624000Y-6604000D02*
G75*
G03X13624000Y-6604000I-35000J0D01*
G01*
X16418000Y-9906000D02*
G75*
G03X16418000Y-9906000I-35000J0D01*
G01*
X16418000Y-11176000D02*
G75*
G03X16418000Y-11176000I-35000J0D01*
G01*
X14640000Y-5334000D02*
G75*
G03X14640000Y-5334000I-35000J0D01*
G01*
X14640000Y-6604000D02*
G75*
G03X14640000Y-6604000I-35000J0D01*
G01*
X14386000Y-5334000D02*
G75*
G03X14386000Y-5334000I-35000J0D01*
G01*
X14386000Y-6604000D02*
G75*
G03X14386000Y-6604000I-35000J0D01*
G01*
X9433000Y-5080000D02*
G75*
G03X9433000Y-5080000I-35000J0D01*
G01*
X9433000Y-6350000D02*
G75*
G03X9433000Y-6350000I-35000J0D01*
G01*
X16164000Y-6604000D02*
G75*
G03X16164000Y-6604000I-35000J0D01*
G01*
X16164000Y-7874000D02*
G75*
G03X16164000Y-7874000I-35000J0D01*
G01*
X7274000Y-6477000D02*
G75*
G03X7274000Y-6477000I-35000J0D01*
G01*
X7274000Y-7747000D02*
G75*
G03X7274000Y-7747000I-35000J0D01*
G01*
X16164000Y-11430000D02*
G75*
G03X16164000Y-11430000I-35000J0D01*
G01*
X16164000Y-12700000D02*
G75*
G03X16164000Y-12700000I-35000J0D01*
G01*
X7020000Y-6477000D02*
G75*
G03X7020000Y-6477000I-35000J0D01*
G01*
X7020000Y-7747000D02*
G75*
G03X7020000Y-7747000I-35000J0D01*
G01*
X14640000Y-11176000D02*
G75*
G03X14640000Y-11176000I-35000J0D01*
G01*
X14640000Y-12446000D02*
G75*
G03X14640000Y-12446000I-35000J0D01*
G01*
X8671000Y-14224000D02*
G75*
G03X8671000Y-14224000I-35000J0D01*
G01*
X9941000Y-14224000D02*
G75*
G03X9941000Y-14224000I-35000J0D01*
G01*
X8671000Y-13843000D02*
G75*
G03X8671000Y-13843000I-35000J0D01*
G01*
X9941000Y-13843000D02*
G75*
G03X9941000Y-13843000I-35000J0D01*
G01*
X8671000Y-14605000D02*
G75*
G03X8671000Y-14605000I-35000J0D01*
G01*
X9941000Y-14605000D02*
G75*
G03X9941000Y-14605000I-35000J0D01*
G01*
X16164000Y-8128000D02*
G75*
G03X16164000Y-8128000I-35000J0D01*
G01*
X16164000Y-9398000D02*
G75*
G03X16164000Y-9398000I-35000J0D01*
G01*
X16418000Y-11430000D02*
G75*
G03X16418000Y-11430000I-35000J0D01*
G01*
X16418000Y-12700000D02*
G75*
G03X16418000Y-12700000I-35000J0D01*
G01*
X14132000Y-5334000D02*
G75*
G03X14132000Y-5334000I-35000J0D01*
G01*
X14132000Y-6604000D02*
G75*
G03X14132000Y-6604000I-35000J0D01*
G01*
X9687000Y-5080000D02*
G75*
G03X9687000Y-5080000I-35000J0D01*
G01*
X9687000Y-6350000D02*
G75*
G03X9687000Y-6350000I-35000J0D01*
G01*
X14640000Y-10287000D02*
G75*
G03X14640000Y-10287000I-35000J0D01*
G01*
X15910000Y-10287000D02*
G75*
G03X15910000Y-10287000I-35000J0D01*
G01*
X9941000Y-5080000D02*
G75*
G03X9941000Y-5080000I-35000J0D01*
G01*
X9941000Y-6350000D02*
G75*
G03X9941000Y-6350000I-35000J0D01*
G01*
X10160000Y-7072000D02*
X10160000Y-7152000D01*
X10120000Y-7112000D02*
X10200000Y-7112000D01*
X10660000Y-7072000D02*
X10660000Y-7152000D01*
X10620000Y-7112000D02*
X10700000Y-7112000D01*
X13462000Y-13168000D02*
X13462000Y-13248000D01*
X13422000Y-13208000D02*
X13502000Y-13208000D01*
X13962000Y-13168000D02*
X13962000Y-13248000D01*
X13922000Y-13208000D02*
X14002000Y-13208000D01*
X14986000Y-7072000D02*
X14986000Y-7152000D01*
X14946000Y-7112000D02*
X15026000Y-7112000D01*
X15486000Y-7072000D02*
X15486000Y-7152000D01*
X15446000Y-7112000D02*
X15526000Y-7112000D01*
X8382000Y-10374000D02*
X8382000Y-10454000D01*
X8342000Y-10414000D02*
X8422000Y-10414000D01*
X8382000Y-10628000D02*
X8382000Y-10708000D01*
X8342000Y-10668000D02*
X8422000Y-10668000D01*
X8382000Y-10882000D02*
X8382000Y-10962000D01*
X8342000Y-10922000D02*
X8422000Y-10922000D01*
X8382000Y-11136000D02*
X8382000Y-11216000D01*
X8342000Y-11176000D02*
X8422000Y-11176000D01*
X8382000Y-11390000D02*
X8382000Y-11470000D01*
X8342000Y-11430000D02*
X8422000Y-11430000D01*
X8382000Y-11644000D02*
X8382000Y-11724000D01*
X8342000Y-11684000D02*
X8422000Y-11684000D01*
X8382000Y-11898000D02*
X8382000Y-11978000D01*
X8342000Y-11938000D02*
X8422000Y-11938000D01*
X8382000Y-12152000D02*
X8382000Y-12232000D01*
X8342000Y-12192000D02*
X8422000Y-12192000D01*
X8382000Y-12406000D02*
X8382000Y-12486000D01*
X8342000Y-12446000D02*
X8422000Y-12446000D01*
X8382000Y-12660000D02*
X8382000Y-12740000D01*
X8342000Y-12700000D02*
X8422000Y-12700000D01*
X9144000Y-10374000D02*
X9144000Y-10454000D01*
X9104000Y-10414000D02*
X9184000Y-10414000D01*
X9144000Y-10628000D02*
X9144000Y-10708000D01*
X9104000Y-10668000D02*
X9184000Y-10668000D01*
X9144000Y-10882000D02*
X9144000Y-10962000D01*
X9104000Y-10922000D02*
X9184000Y-10922000D01*
X9144000Y-11136000D02*
X9144000Y-11216000D01*
X9104000Y-11176000D02*
X9184000Y-11176000D01*
X9144000Y-11390000D02*
X9144000Y-11470000D01*
X9104000Y-11430000D02*
X9184000Y-11430000D01*
X9144000Y-11644000D02*
X9144000Y-11724000D01*
X9104000Y-11684000D02*
X9184000Y-11684000D01*
X9144000Y-11898000D02*
X9144000Y-11978000D01*
X9104000Y-11938000D02*
X9184000Y-11938000D01*
X9144000Y-12152000D02*
X9144000Y-12232000D01*
X9104000Y-12192000D02*
X9184000Y-12192000D01*
X9144000Y-12406000D02*
X9144000Y-12486000D01*
X9104000Y-12446000D02*
X9184000Y-12446000D01*
X9144000Y-12660000D02*
X9144000Y-12740000D01*
X9104000Y-12700000D02*
X9184000Y-12700000D01*
X13462000Y-10374000D02*
X13462000Y-10454000D01*
X13422000Y-10414000D02*
X13502000Y-10414000D01*
X13462000Y-10628000D02*
X13462000Y-10708000D01*
X13422000Y-10668000D02*
X13502000Y-10668000D01*
X13462000Y-10882000D02*
X13462000Y-10962000D01*
X13422000Y-10922000D02*
X13502000Y-10922000D01*
X13462000Y-11136000D02*
X13462000Y-11216000D01*
X13422000Y-11176000D02*
X13502000Y-11176000D01*
X13462000Y-11390000D02*
X13462000Y-11470000D01*
X13422000Y-11430000D02*
X13502000Y-11430000D01*
X13462000Y-11644000D02*
X13462000Y-11724000D01*
X13422000Y-11684000D02*
X13502000Y-11684000D01*
X13462000Y-11898000D02*
X13462000Y-11978000D01*
X13422000Y-11938000D02*
X13502000Y-11938000D01*
X13462000Y-12152000D02*
X13462000Y-12232000D01*
X13422000Y-12192000D02*
X13502000Y-12192000D01*
X13462000Y-12406000D02*
X13462000Y-12486000D01*
X13422000Y-12446000D02*
X13502000Y-12446000D01*
X13462000Y-12660000D02*
X13462000Y-12740000D01*
X13422000Y-12700000D02*
X13502000Y-12700000D01*
X14224000Y-10374000D02*
X14224000Y-10454000D01*
X14184000Y-10414000D02*
X14264000Y-10414000D01*
X14224000Y-10628000D02*
X14224000Y-10708000D01*
X14184000Y-10668000D02*
X14264000Y-10668000D01*
X14224000Y-10882000D02*
X14224000Y-10962000D01*
X14184000Y-10922000D02*
X14264000Y-10922000D01*
X14224000Y-11136000D02*
X14224000Y-11216000D01*
X14184000Y-11176000D02*
X14264000Y-11176000D01*
X14224000Y-11390000D02*
X14224000Y-11470000D01*
X14184000Y-11430000D02*
X14264000Y-11430000D01*
X14224000Y-11644000D02*
X14224000Y-11724000D01*
X14184000Y-11684000D02*
X14264000Y-11684000D01*
X14224000Y-11898000D02*
X14224000Y-11978000D01*
X14184000Y-11938000D02*
X14264000Y-11938000D01*
X14224000Y-12152000D02*
X14224000Y-12232000D01*
X14184000Y-12192000D02*
X14264000Y-12192000D01*
X14224000Y-12406000D02*
X14224000Y-12486000D01*
X14184000Y-12446000D02*
X14264000Y-12446000D01*
X14224000Y-12660000D02*
X14224000Y-12740000D01*
X14184000Y-12700000D02*
X14264000Y-12700000D01*
X7620000Y-5040000D02*
X7620000Y-5120000D01*
X7580000Y-5080000D02*
X7660000Y-5080000D01*
X7620000Y-5294000D02*
X7620000Y-5374000D01*
X7580000Y-5334000D02*
X7660000Y-5334000D01*
X7620000Y-5548000D02*
X7620000Y-5628000D01*
X7580000Y-5588000D02*
X7660000Y-5588000D01*
X7620000Y-5802000D02*
X7620000Y-5882000D01*
X7580000Y-5842000D02*
X7660000Y-5842000D01*
X7620000Y-6056000D02*
X7620000Y-6136000D01*
X7580000Y-6096000D02*
X7660000Y-6096000D01*
X7620000Y-6310000D02*
X7620000Y-6390000D01*
X7580000Y-6350000D02*
X7660000Y-6350000D01*
X7620000Y-6564000D02*
X7620000Y-6644000D01*
X7580000Y-6604000D02*
X7660000Y-6604000D01*
X7620000Y-6818000D02*
X7620000Y-6898000D01*
X7580000Y-6858000D02*
X7660000Y-6858000D01*
X7620000Y-7072000D02*
X7620000Y-7152000D01*
X7580000Y-7112000D02*
X7660000Y-7112000D01*
X7620000Y-7326000D02*
X7620000Y-7406000D01*
X7580000Y-7366000D02*
X7660000Y-7366000D01*
X7620000Y-7580000D02*
X7620000Y-7660000D01*
X7580000Y-7620000D02*
X7660000Y-7620000D01*
X7620000Y-7834000D02*
X7620000Y-7914000D01*
X7580000Y-7874000D02*
X7660000Y-7874000D01*
X7620000Y-8088000D02*
X7620000Y-8168000D01*
X7580000Y-8128000D02*
X7660000Y-8128000D01*
X7620000Y-8342000D02*
X7620000Y-8422000D01*
X7580000Y-8382000D02*
X7660000Y-8382000D01*
X7620000Y-8596000D02*
X7620000Y-8676000D01*
X7580000Y-8636000D02*
X7660000Y-8636000D01*
X7620000Y-8850000D02*
X7620000Y-8930000D01*
X7580000Y-8890000D02*
X7660000Y-8890000D01*
X7620000Y-9104000D02*
X7620000Y-9184000D01*
X7580000Y-9144000D02*
X7660000Y-9144000D01*
X7620000Y-9358000D02*
X7620000Y-9438000D01*
X7580000Y-9398000D02*
X7660000Y-9398000D01*
X7620000Y-9612000D02*
X7620000Y-9692000D01*
X7580000Y-9652000D02*
X7660000Y-9652000D01*
X7620000Y-9866000D02*
X7620000Y-9946000D01*
X7580000Y-9906000D02*
X7660000Y-9906000D01*
X9144000Y-5040000D02*
X9144000Y-5120000D01*
X9104000Y-5080000D02*
X9184000Y-5080000D01*
X9144000Y-5294000D02*
X9144000Y-5374000D01*
X9104000Y-5334000D02*
X9184000Y-5334000D01*
X9144000Y-5548000D02*
X9144000Y-5628000D01*
X9104000Y-5588000D02*
X9184000Y-5588000D01*
X9144000Y-5802000D02*
X9144000Y-5882000D01*
X9104000Y-5842000D02*
X9184000Y-5842000D01*
X9144000Y-6056000D02*
X9144000Y-6136000D01*
X9104000Y-6096000D02*
X9184000Y-6096000D01*
X9144000Y-6310000D02*
X9144000Y-6390000D01*
X9104000Y-6350000D02*
X9184000Y-6350000D01*
X9144000Y-6564000D02*
X9144000Y-6644000D01*
X9104000Y-6604000D02*
X9184000Y-6604000D01*
X9144000Y-6818000D02*
X9144000Y-6898000D01*
X9104000Y-6858000D02*
X9184000Y-6858000D01*
X9144000Y-7072000D02*
X9144000Y-7152000D01*
X9104000Y-7112000D02*
X9184000Y-7112000D01*
X9144000Y-7326000D02*
X9144000Y-7406000D01*
X9104000Y-7366000D02*
X9184000Y-7366000D01*
X9144000Y-7580000D02*
X9144000Y-7660000D01*
X9104000Y-7620000D02*
X9184000Y-7620000D01*
X9144000Y-7834000D02*
X9144000Y-7914000D01*
X9104000Y-7874000D02*
X9184000Y-7874000D01*
X9144000Y-8088000D02*
X9144000Y-8168000D01*
X9104000Y-8128000D02*
X9184000Y-8128000D01*
X9144000Y-8342000D02*
X9144000Y-8422000D01*
X9104000Y-8382000D02*
X9184000Y-8382000D01*
X9144000Y-8596000D02*
X9144000Y-8676000D01*
X9104000Y-8636000D02*
X9184000Y-8636000D01*
X9144000Y-8850000D02*
X9144000Y-8930000D01*
X9104000Y-8890000D02*
X9184000Y-8890000D01*
X9144000Y-9104000D02*
X9144000Y-9184000D01*
X9104000Y-9144000D02*
X9184000Y-9144000D01*
X9144000Y-9358000D02*
X9144000Y-9438000D01*
X9104000Y-9398000D02*
X9184000Y-9398000D01*
X9144000Y-9612000D02*
X9144000Y-9692000D01*
X9104000Y-9652000D02*
X9184000Y-9652000D01*
X9144000Y-9866000D02*
X9144000Y-9946000D01*
X9104000Y-9906000D02*
X9184000Y-9906000D01*
X10160000Y-10374000D02*
X10160000Y-10454000D01*
X10120000Y-10414000D02*
X10200000Y-10414000D01*
X10160000Y-10628000D02*
X10160000Y-10708000D01*
X10120000Y-10668000D02*
X10200000Y-10668000D01*
X10160000Y-10882000D02*
X10160000Y-10962000D01*
X10120000Y-10922000D02*
X10200000Y-10922000D01*
X10160000Y-11136000D02*
X10160000Y-11216000D01*
X10120000Y-11176000D02*
X10200000Y-11176000D01*
X10160000Y-11390000D02*
X10160000Y-11470000D01*
X10120000Y-11430000D02*
X10200000Y-11430000D01*
X10160000Y-11644000D02*
X10160000Y-11724000D01*
X10120000Y-11684000D02*
X10200000Y-11684000D01*
X10160000Y-11898000D02*
X10160000Y-11978000D01*
X10120000Y-11938000D02*
X10200000Y-11938000D01*
X10160000Y-12152000D02*
X10160000Y-12232000D01*
X10120000Y-12192000D02*
X10200000Y-12192000D01*
X10160000Y-12406000D02*
X10160000Y-12486000D01*
X10120000Y-12446000D02*
X10200000Y-12446000D01*
X10160000Y-12660000D02*
X10160000Y-12740000D01*
X10120000Y-12700000D02*
X10200000Y-12700000D01*
X10922000Y-10374000D02*
X10922000Y-10454000D01*
X10882000Y-10414000D02*
X10962000Y-10414000D01*
X10922000Y-10628000D02*
X10922000Y-10708000D01*
X10882000Y-10668000D02*
X10962000Y-10668000D01*
X10922000Y-10882000D02*
X10922000Y-10962000D01*
X10882000Y-10922000D02*
X10962000Y-10922000D01*
X10922000Y-11136000D02*
X10922000Y-11216000D01*
X10882000Y-11176000D02*
X10962000Y-11176000D01*
X10922000Y-11390000D02*
X10922000Y-11470000D01*
X10882000Y-11430000D02*
X10962000Y-11430000D01*
X10922000Y-11644000D02*
X10922000Y-11724000D01*
X10882000Y-11684000D02*
X10962000Y-11684000D01*
X10922000Y-11898000D02*
X10922000Y-11978000D01*
X10882000Y-11938000D02*
X10962000Y-11938000D01*
X10922000Y-12152000D02*
X10922000Y-12232000D01*
X10882000Y-12192000D02*
X10962000Y-12192000D01*
X10922000Y-12406000D02*
X10922000Y-12486000D01*
X10882000Y-12446000D02*
X10962000Y-12446000D01*
X10922000Y-12660000D02*
X10922000Y-12740000D01*
X10882000Y-12700000D02*
X10962000Y-12700000D01*
X10168000Y-9866000D02*
X10168000Y-9946000D01*
X10128000Y-9906000D02*
X10208000Y-9906000D01*
X10668000Y-9866000D02*
X10668000Y-9946000D01*
X10628000Y-9906000D02*
X10708000Y-9906000D01*
X8382000Y-13168000D02*
X8382000Y-13248000D01*
X8342000Y-13208000D02*
X8422000Y-13208000D01*
X8882000Y-13168000D02*
X8882000Y-13248000D01*
X8842000Y-13208000D02*
X8922000Y-13208000D01*
X14986000Y-13168000D02*
X14986000Y-13248000D01*
X14946000Y-13208000D02*
X15026000Y-13208000D01*
X15486000Y-13168000D02*
X15486000Y-13248000D01*
X15446000Y-13208000D02*
X15526000Y-13208000D01*
X10160000Y-5040000D02*
X10160000Y-5120000D01*
X10120000Y-5080000D02*
X10200000Y-5080000D01*
X10160000Y-5294000D02*
X10160000Y-5374000D01*
X10120000Y-5334000D02*
X10200000Y-5334000D01*
X10160000Y-5548000D02*
X10160000Y-5628000D01*
X10120000Y-5588000D02*
X10200000Y-5588000D01*
X10160000Y-5802000D02*
X10160000Y-5882000D01*
X10120000Y-5842000D02*
X10200000Y-5842000D01*
X10160000Y-6056000D02*
X10160000Y-6136000D01*
X10120000Y-6096000D02*
X10200000Y-6096000D01*
X10160000Y-6310000D02*
X10160000Y-6390000D01*
X10120000Y-6350000D02*
X10200000Y-6350000D01*
X10160000Y-6564000D02*
X10160000Y-6644000D01*
X10120000Y-6604000D02*
X10200000Y-6604000D01*
X10922000Y-5040000D02*
X10922000Y-5120000D01*
X10882000Y-5080000D02*
X10962000Y-5080000D01*
X10922000Y-5294000D02*
X10922000Y-5374000D01*
X10882000Y-5334000D02*
X10962000Y-5334000D01*
X10922000Y-5548000D02*
X10922000Y-5628000D01*
X10882000Y-5588000D02*
X10962000Y-5588000D01*
X10922000Y-5802000D02*
X10922000Y-5882000D01*
X10882000Y-5842000D02*
X10962000Y-5842000D01*
X10922000Y-6056000D02*
X10922000Y-6136000D01*
X10882000Y-6096000D02*
X10962000Y-6096000D01*
X10922000Y-6310000D02*
X10922000Y-6390000D01*
X10882000Y-6350000D02*
X10962000Y-6350000D01*
X10922000Y-6564000D02*
X10922000Y-6644000D01*
X10882000Y-6604000D02*
X10962000Y-6604000D01*
X10160000Y-7580000D02*
X10160000Y-7660000D01*
X10120000Y-7620000D02*
X10200000Y-7620000D01*
X10160000Y-7834000D02*
X10160000Y-7914000D01*
X10120000Y-7874000D02*
X10200000Y-7874000D01*
X10160000Y-8088000D02*
X10160000Y-8168000D01*
X10120000Y-8128000D02*
X10200000Y-8128000D01*
X10160000Y-8342000D02*
X10160000Y-8422000D01*
X10120000Y-8382000D02*
X10200000Y-8382000D01*
X10160000Y-8596000D02*
X10160000Y-8676000D01*
X10120000Y-8636000D02*
X10200000Y-8636000D01*
X10160000Y-8850000D02*
X10160000Y-8930000D01*
X10120000Y-8890000D02*
X10200000Y-8890000D01*
X10160000Y-9104000D02*
X10160000Y-9184000D01*
X10120000Y-9144000D02*
X10200000Y-9144000D01*
X10160000Y-9358000D02*
X10160000Y-9438000D01*
X10120000Y-9398000D02*
X10200000Y-9398000D01*
X10922000Y-7580000D02*
X10922000Y-7660000D01*
X10882000Y-7620000D02*
X10962000Y-7620000D01*
X10922000Y-7834000D02*
X10922000Y-7914000D01*
X10882000Y-7874000D02*
X10962000Y-7874000D01*
X10922000Y-8088000D02*
X10922000Y-8168000D01*
X10882000Y-8128000D02*
X10962000Y-8128000D01*
X10922000Y-8342000D02*
X10922000Y-8422000D01*
X10882000Y-8382000D02*
X10962000Y-8382000D01*
X10922000Y-8596000D02*
X10922000Y-8676000D01*
X10882000Y-8636000D02*
X10962000Y-8636000D01*
X10922000Y-8850000D02*
X10922000Y-8930000D01*
X10882000Y-8890000D02*
X10962000Y-8890000D01*
X10922000Y-9104000D02*
X10922000Y-9184000D01*
X10882000Y-9144000D02*
X10962000Y-9144000D01*
X10922000Y-9358000D02*
X10922000Y-9438000D01*
X10882000Y-9398000D02*
X10962000Y-9398000D01*
X11938000Y-9866000D02*
X11938000Y-9946000D01*
X11898000Y-9906000D02*
X11978000Y-9906000D01*
X12438000Y-9866000D02*
X12438000Y-9946000D01*
X12398000Y-9906000D02*
X12478000Y-9906000D01*
X9652000Y-7326000D02*
X9652000Y-7406000D01*
X9612000Y-7366000D02*
X9692000Y-7366000D01*
X9652000Y-7826000D02*
X9652000Y-7906000D01*
X9612000Y-7866000D02*
X9692000Y-7866000D01*
X8001000Y-10374000D02*
X8001000Y-10454000D01*
X7961000Y-10414000D02*
X8041000Y-10414000D01*
X8001000Y-10628000D02*
X8001000Y-10708000D01*
X7961000Y-10668000D02*
X8041000Y-10668000D01*
X8001000Y-10882000D02*
X8001000Y-10962000D01*
X7961000Y-10922000D02*
X8041000Y-10922000D01*
X8001000Y-11136000D02*
X8001000Y-11216000D01*
X7961000Y-11176000D02*
X8041000Y-11176000D01*
X8001000Y-11390000D02*
X8001000Y-11470000D01*
X7961000Y-11430000D02*
X8041000Y-11430000D01*
X8001000Y-11644000D02*
X8001000Y-11724000D01*
X7961000Y-11684000D02*
X8041000Y-11684000D01*
X8001000Y-11898000D02*
X8001000Y-11978000D01*
X7961000Y-11938000D02*
X8041000Y-11938000D01*
X8001000Y-12152000D02*
X8001000Y-12232000D01*
X7961000Y-12192000D02*
X8041000Y-12192000D01*
X8001000Y-12406000D02*
X8001000Y-12486000D01*
X7961000Y-12446000D02*
X8041000Y-12446000D01*
X11938000Y-10374000D02*
X11938000Y-10454000D01*
X11898000Y-10414000D02*
X11978000Y-10414000D01*
X11938000Y-10628000D02*
X11938000Y-10708000D01*
X11898000Y-10668000D02*
X11978000Y-10668000D01*
X11938000Y-10882000D02*
X11938000Y-10962000D01*
X11898000Y-10922000D02*
X11978000Y-10922000D01*
X11938000Y-11136000D02*
X11938000Y-11216000D01*
X11898000Y-11176000D02*
X11978000Y-11176000D01*
X11938000Y-11390000D02*
X11938000Y-11470000D01*
X11898000Y-11430000D02*
X11978000Y-11430000D01*
X11938000Y-11644000D02*
X11938000Y-11724000D01*
X11898000Y-11684000D02*
X11978000Y-11684000D01*
X11938000Y-11898000D02*
X11938000Y-11978000D01*
X11898000Y-11938000D02*
X11978000Y-11938000D01*
X11938000Y-12152000D02*
X11938000Y-12232000D01*
X11898000Y-12192000D02*
X11978000Y-12192000D01*
X11938000Y-12406000D02*
X11938000Y-12486000D01*
X11898000Y-12446000D02*
X11978000Y-12446000D01*
X11938000Y-12660000D02*
X11938000Y-12740000D01*
X11898000Y-12700000D02*
X11978000Y-12700000D01*
X12700000Y-10374000D02*
X12700000Y-10454000D01*
X12660000Y-10414000D02*
X12740000Y-10414000D01*
X12700000Y-10628000D02*
X12700000Y-10708000D01*
X12660000Y-10668000D02*
X12740000Y-10668000D01*
X12700000Y-10882000D02*
X12700000Y-10962000D01*
X12660000Y-10922000D02*
X12740000Y-10922000D01*
X12700000Y-11136000D02*
X12700000Y-11216000D01*
X12660000Y-11176000D02*
X12740000Y-11176000D01*
X12700000Y-11390000D02*
X12700000Y-11470000D01*
X12660000Y-11430000D02*
X12740000Y-11430000D01*
X12700000Y-11644000D02*
X12700000Y-11724000D01*
X12660000Y-11684000D02*
X12740000Y-11684000D01*
X12700000Y-11898000D02*
X12700000Y-11978000D01*
X12660000Y-11938000D02*
X12740000Y-11938000D01*
X12700000Y-12152000D02*
X12700000Y-12232000D01*
X12660000Y-12192000D02*
X12740000Y-12192000D01*
X12700000Y-12406000D02*
X12700000Y-12486000D01*
X12660000Y-12446000D02*
X12740000Y-12446000D01*
X12700000Y-12660000D02*
X12700000Y-12740000D01*
X12660000Y-12700000D02*
X12740000Y-12700000D01*
X11938000Y-7072000D02*
X11938000Y-7152000D01*
X11898000Y-7112000D02*
X11978000Y-7112000D01*
X12438000Y-7072000D02*
X12438000Y-7152000D01*
X12398000Y-7112000D02*
X12478000Y-7112000D01*
X14097000Y-6945000D02*
X14097000Y-7025000D01*
X14057000Y-6985000D02*
X14137000Y-6985000D01*
X14351000Y-6945000D02*
X14351000Y-7025000D01*
X14311000Y-6985000D02*
X14391000Y-6985000D01*
X14605000Y-6945000D02*
X14605000Y-7025000D01*
X14565000Y-6985000D02*
X14645000Y-6985000D01*
X11946000Y-13168000D02*
X11946000Y-13248000D01*
X11906000Y-13208000D02*
X11986000Y-13208000D01*
X12446000Y-13168000D02*
X12446000Y-13248000D01*
X12406000Y-13208000D02*
X12486000Y-13208000D01*
X9779000Y-10374000D02*
X9779000Y-10454000D01*
X9739000Y-10414000D02*
X9819000Y-10414000D01*
X9779000Y-10628000D02*
X9779000Y-10708000D01*
X9739000Y-10668000D02*
X9819000Y-10668000D01*
X9779000Y-10882000D02*
X9779000Y-10962000D01*
X9739000Y-10922000D02*
X9819000Y-10922000D01*
X9779000Y-11136000D02*
X9779000Y-11216000D01*
X9739000Y-11176000D02*
X9819000Y-11176000D01*
X9779000Y-11390000D02*
X9779000Y-11470000D01*
X9739000Y-11430000D02*
X9819000Y-11430000D01*
X9779000Y-11644000D02*
X9779000Y-11724000D01*
X9739000Y-11684000D02*
X9819000Y-11684000D01*
X9779000Y-11898000D02*
X9779000Y-11978000D01*
X9739000Y-11938000D02*
X9819000Y-11938000D01*
X9779000Y-12152000D02*
X9779000Y-12232000D01*
X9739000Y-12192000D02*
X9819000Y-12192000D01*
X9779000Y-12406000D02*
X9779000Y-12486000D01*
X9739000Y-12446000D02*
X9819000Y-12446000D01*
X11938000Y-7834000D02*
X11938000Y-7914000D01*
X11898000Y-7874000D02*
X11978000Y-7874000D01*
X11938000Y-8088000D02*
X11938000Y-8168000D01*
X11898000Y-8128000D02*
X11978000Y-8128000D01*
X11938000Y-8342000D02*
X11938000Y-8422000D01*
X11898000Y-8382000D02*
X11978000Y-8382000D01*
X11938000Y-8596000D02*
X11938000Y-8676000D01*
X11898000Y-8636000D02*
X11978000Y-8636000D01*
X11938000Y-8850000D02*
X11938000Y-8930000D01*
X11898000Y-8890000D02*
X11978000Y-8890000D01*
X11938000Y-9104000D02*
X11938000Y-9184000D01*
X11898000Y-9144000D02*
X11978000Y-9144000D01*
X11938000Y-9358000D02*
X11938000Y-9438000D01*
X11898000Y-9398000D02*
X11978000Y-9398000D01*
X12700000Y-7834000D02*
X12700000Y-7914000D01*
X12660000Y-7874000D02*
X12740000Y-7874000D01*
X12700000Y-8088000D02*
X12700000Y-8168000D01*
X12660000Y-8128000D02*
X12740000Y-8128000D01*
X12700000Y-8342000D02*
X12700000Y-8422000D01*
X12660000Y-8382000D02*
X12740000Y-8382000D01*
X12700000Y-8596000D02*
X12700000Y-8676000D01*
X12660000Y-8636000D02*
X12740000Y-8636000D01*
X12700000Y-8850000D02*
X12700000Y-8930000D01*
X12660000Y-8890000D02*
X12740000Y-8890000D01*
X12700000Y-9104000D02*
X12700000Y-9184000D01*
X12660000Y-9144000D02*
X12740000Y-9144000D01*
X12700000Y-9358000D02*
X12700000Y-9438000D01*
X12660000Y-9398000D02*
X12740000Y-9398000D01*
X14986000Y-5040000D02*
X14986000Y-5120000D01*
X14946000Y-5080000D02*
X15026000Y-5080000D01*
X14986000Y-5294000D02*
X14986000Y-5374000D01*
X14946000Y-5334000D02*
X15026000Y-5334000D01*
X14986000Y-5548000D02*
X14986000Y-5628000D01*
X14946000Y-5588000D02*
X15026000Y-5588000D01*
X14986000Y-5802000D02*
X14986000Y-5882000D01*
X14946000Y-5842000D02*
X15026000Y-5842000D01*
X14986000Y-6056000D02*
X14986000Y-6136000D01*
X14946000Y-6096000D02*
X15026000Y-6096000D01*
X14986000Y-6310000D02*
X14986000Y-6390000D01*
X14946000Y-6350000D02*
X15026000Y-6350000D01*
X14986000Y-6564000D02*
X14986000Y-6644000D01*
X14946000Y-6604000D02*
X15026000Y-6604000D01*
X15748000Y-5040000D02*
X15748000Y-5120000D01*
X15708000Y-5080000D02*
X15788000Y-5080000D01*
X15748000Y-5294000D02*
X15748000Y-5374000D01*
X15708000Y-5334000D02*
X15788000Y-5334000D01*
X15748000Y-5548000D02*
X15748000Y-5628000D01*
X15708000Y-5588000D02*
X15788000Y-5588000D01*
X15748000Y-5802000D02*
X15748000Y-5882000D01*
X15708000Y-5842000D02*
X15788000Y-5842000D01*
X15748000Y-6056000D02*
X15748000Y-6136000D01*
X15708000Y-6096000D02*
X15788000Y-6096000D01*
X15748000Y-6310000D02*
X15748000Y-6390000D01*
X15708000Y-6350000D02*
X15788000Y-6350000D01*
X15748000Y-6564000D02*
X15748000Y-6644000D01*
X15708000Y-6604000D02*
X15788000Y-6604000D01*
X14986000Y-9866000D02*
X14986000Y-9946000D01*
X14946000Y-9906000D02*
X15026000Y-9906000D01*
X15486000Y-9866000D02*
X15486000Y-9946000D01*
X15446000Y-9906000D02*
X15526000Y-9906000D01*
X10168000Y-13168000D02*
X10168000Y-13248000D01*
X10128000Y-13208000D02*
X10208000Y-13208000D01*
X10668000Y-13168000D02*
X10668000Y-13248000D01*
X10628000Y-13208000D02*
X10708000Y-13208000D01*
X11557000Y-10374000D02*
X11557000Y-10454000D01*
X11517000Y-10414000D02*
X11597000Y-10414000D01*
X11557000Y-10628000D02*
X11557000Y-10708000D01*
X11517000Y-10668000D02*
X11597000Y-10668000D01*
X11557000Y-10882000D02*
X11557000Y-10962000D01*
X11517000Y-10922000D02*
X11597000Y-10922000D01*
X11557000Y-11136000D02*
X11557000Y-11216000D01*
X11517000Y-11176000D02*
X11597000Y-11176000D01*
X11557000Y-11390000D02*
X11557000Y-11470000D01*
X11517000Y-11430000D02*
X11597000Y-11430000D01*
X11557000Y-11644000D02*
X11557000Y-11724000D01*
X11517000Y-11684000D02*
X11597000Y-11684000D01*
X11557000Y-11898000D02*
X11557000Y-11978000D01*
X11517000Y-11938000D02*
X11597000Y-11938000D01*
X11557000Y-12152000D02*
X11557000Y-12232000D01*
X11517000Y-12192000D02*
X11597000Y-12192000D01*
X11557000Y-12406000D02*
X11557000Y-12486000D01*
X11517000Y-12446000D02*
X11597000Y-12446000D01*
X14986000Y-10882000D02*
X14986000Y-10962000D01*
X14946000Y-10922000D02*
X15026000Y-10922000D01*
X14986000Y-11136000D02*
X14986000Y-11216000D01*
X14946000Y-11176000D02*
X15026000Y-11176000D01*
X14986000Y-11390000D02*
X14986000Y-11470000D01*
X14946000Y-11430000D02*
X15026000Y-11430000D01*
X14986000Y-11644000D02*
X14986000Y-11724000D01*
X14946000Y-11684000D02*
X15026000Y-11684000D01*
X14986000Y-11898000D02*
X14986000Y-11978000D01*
X14946000Y-11938000D02*
X15026000Y-11938000D01*
X14986000Y-12152000D02*
X14986000Y-12232000D01*
X14946000Y-12192000D02*
X15026000Y-12192000D01*
X14986000Y-12406000D02*
X14986000Y-12486000D01*
X14946000Y-12446000D02*
X15026000Y-12446000D01*
X14986000Y-12660000D02*
X14986000Y-12740000D01*
X14946000Y-12700000D02*
X15026000Y-12700000D01*
X15748000Y-10882000D02*
X15748000Y-10962000D01*
X15708000Y-10922000D02*
X15788000Y-10922000D01*
X15748000Y-11136000D02*
X15748000Y-11216000D01*
X15708000Y-11176000D02*
X15788000Y-11176000D01*
X15748000Y-11390000D02*
X15748000Y-11470000D01*
X15708000Y-11430000D02*
X15788000Y-11430000D01*
X15748000Y-11644000D02*
X15748000Y-11724000D01*
X15708000Y-11684000D02*
X15788000Y-11684000D01*
X15748000Y-11898000D02*
X15748000Y-11978000D01*
X15708000Y-11938000D02*
X15788000Y-11938000D01*
X15748000Y-12152000D02*
X15748000Y-12232000D01*
X15708000Y-12192000D02*
X15788000Y-12192000D01*
X15748000Y-12406000D02*
X15748000Y-12486000D01*
X15708000Y-12446000D02*
X15788000Y-12446000D01*
X15748000Y-12660000D02*
X15748000Y-12740000D01*
X15708000Y-12700000D02*
X15788000Y-12700000D01*
X14986000Y-7834000D02*
X14986000Y-7914000D01*
X14946000Y-7874000D02*
X15026000Y-7874000D01*
X14986000Y-8088000D02*
X14986000Y-8168000D01*
X14946000Y-8128000D02*
X15026000Y-8128000D01*
X14986000Y-8342000D02*
X14986000Y-8422000D01*
X14946000Y-8382000D02*
X15026000Y-8382000D01*
X14986000Y-8596000D02*
X14986000Y-8676000D01*
X14946000Y-8636000D02*
X15026000Y-8636000D01*
X14986000Y-8850000D02*
X14986000Y-8930000D01*
X14946000Y-8890000D02*
X15026000Y-8890000D01*
X14986000Y-9104000D02*
X14986000Y-9184000D01*
X14946000Y-9144000D02*
X15026000Y-9144000D01*
X14986000Y-9358000D02*
X14986000Y-9438000D01*
X14946000Y-9398000D02*
X15026000Y-9398000D01*
X15748000Y-7834000D02*
X15748000Y-7914000D01*
X15708000Y-7874000D02*
X15788000Y-7874000D01*
X15748000Y-8088000D02*
X15748000Y-8168000D01*
X15708000Y-8128000D02*
X15788000Y-8128000D01*
X15748000Y-8342000D02*
X15748000Y-8422000D01*
X15708000Y-8382000D02*
X15788000Y-8382000D01*
X15748000Y-8596000D02*
X15748000Y-8676000D01*
X15708000Y-8636000D02*
X15788000Y-8636000D01*
X15748000Y-8850000D02*
X15748000Y-8930000D01*
X15708000Y-8890000D02*
X15788000Y-8890000D01*
X15748000Y-9104000D02*
X15748000Y-9184000D01*
X15708000Y-9144000D02*
X15788000Y-9144000D01*
X15748000Y-9358000D02*
X15748000Y-9438000D01*
X15708000Y-9398000D02*
X15788000Y-9398000D01*
X11938000Y-5040000D02*
X11938000Y-5120000D01*
X11898000Y-5080000D02*
X11978000Y-5080000D01*
X11938000Y-5294000D02*
X11938000Y-5374000D01*
X11898000Y-5334000D02*
X11978000Y-5334000D01*
X11938000Y-5548000D02*
X11938000Y-5628000D01*
X11898000Y-5588000D02*
X11978000Y-5588000D01*
X11938000Y-5802000D02*
X11938000Y-5882000D01*
X11898000Y-5842000D02*
X11978000Y-5842000D01*
X11938000Y-6056000D02*
X11938000Y-6136000D01*
X11898000Y-6096000D02*
X11978000Y-6096000D01*
X11938000Y-6310000D02*
X11938000Y-6390000D01*
X11898000Y-6350000D02*
X11978000Y-6350000D01*
X11938000Y-6564000D02*
X11938000Y-6644000D01*
X11898000Y-6604000D02*
X11978000Y-6604000D01*
X12700000Y-5040000D02*
X12700000Y-5120000D01*
X12660000Y-5080000D02*
X12740000Y-5080000D01*
X12700000Y-5294000D02*
X12700000Y-5374000D01*
X12660000Y-5334000D02*
X12740000Y-5334000D01*
X12700000Y-5548000D02*
X12700000Y-5628000D01*
X12660000Y-5588000D02*
X12740000Y-5588000D01*
X12700000Y-5802000D02*
X12700000Y-5882000D01*
X12660000Y-5842000D02*
X12740000Y-5842000D01*
X12700000Y-6056000D02*
X12700000Y-6136000D01*
X12660000Y-6096000D02*
X12740000Y-6096000D01*
X12700000Y-6310000D02*
X12700000Y-6390000D01*
X12660000Y-6350000D02*
X12740000Y-6350000D01*
X12700000Y-6564000D02*
X12700000Y-6644000D01*
X12660000Y-6604000D02*
X12740000Y-6604000D01*
X7281427Y-10456427D02*
X7281427Y-10371573D01*
X7196573Y-10371573D01*
X7196573Y-10456427D01*
X7281427Y-10456427D01*
X7281427Y-12956427D02*
X7281427Y-12871573D01*
X7196573Y-12871573D01*
X7196573Y-12956427D01*
X7281427Y-12956427D01*
X8226425Y-14509737D02*
X8326425Y-14409737D01*
X8226425Y-14309737D01*
X8126425Y-14409737D01*
X8226425Y-14509737D01*
X16396400Y-5150800D02*
X16496400Y-5050800D01*
X16396400Y-4950800D01*
X16296400Y-5050800D01*
X16396400Y-5150800D01*
X6910800Y-5196300D02*
X7160800Y-5446300D01*
X7160800Y-5196300D02*
X6910800Y-5446300D01*
X7160800Y-5321300D02*
G75*
G03X7160800Y-5321300I-125000J0D01*
G01*
X6910800Y-14880050D02*
X7160800Y-15130050D01*
X7160800Y-14880050D02*
X6910800Y-15130050D01*
X7160800Y-15005050D02*
G75*
G03X7160800Y-15005050I-125000J0D01*
G01*
X6741400Y-8905800D02*
X7091400Y-9255800D01*
X7091400Y-8905800D02*
X6741400Y-9255800D01*
X6916400Y-8905800D02*
X6916400Y-9255800D01*
X6741400Y-9080800D02*
X7091400Y-9080800D01*
X13711400Y-8905800D02*
X14061400Y-9255800D01*
X14061400Y-8905800D02*
X13711400Y-9255800D01*
X13886400Y-8905800D02*
X13886400Y-9255800D01*
X13711400Y-9080800D02*
X14061400Y-9080800D01*
D11*
X6685958Y-18012034D02*
X6685958Y-17712034D01*
X6757387Y-17712034D01*
X6800244Y-17726320D01*
X6828816Y-17754892D01*
X6843101Y-17783463D01*
X6857387Y-17840606D01*
X6857387Y-17883463D01*
X6843101Y-17940606D01*
X6828816Y-17969177D01*
X6800244Y-17997749D01*
X6757387Y-18012034D01*
X6685958Y-18012034D01*
X6985958Y-18012034D02*
X6985958Y-17812034D01*
X6985958Y-17869177D02*
X7000244Y-17840606D01*
X7014530Y-17826320D01*
X7043101Y-17812034D01*
X7071673Y-17812034D01*
X7171673Y-18012034D02*
X7171673Y-17812034D01*
X7171673Y-17712034D02*
X7157387Y-17726320D01*
X7171673Y-17740606D01*
X7185958Y-17726320D01*
X7171673Y-17712034D01*
X7171673Y-17740606D01*
X7357387Y-18012034D02*
X7328816Y-17997749D01*
X7314530Y-17969177D01*
X7314530Y-17712034D01*
X7514530Y-18012034D02*
X7485958Y-17997749D01*
X7471673Y-17969177D01*
X7471673Y-17712034D01*
X7857387Y-18012034D02*
X7857387Y-17712034D01*
X7957387Y-17926320D01*
X8057387Y-17712034D01*
X8057387Y-18012034D01*
X8328816Y-18012034D02*
X8328816Y-17854892D01*
X8314530Y-17826320D01*
X8285958Y-17812034D01*
X8228816Y-17812034D01*
X8200244Y-17826320D01*
X8328816Y-17997749D02*
X8300244Y-18012034D01*
X8228816Y-18012034D01*
X8200244Y-17997749D01*
X8185958Y-17969177D01*
X8185958Y-17940606D01*
X8200244Y-17912034D01*
X8228816Y-17897749D01*
X8300244Y-17897749D01*
X8328816Y-17883463D01*
X8471673Y-17812034D02*
X8471673Y-18112034D01*
X8471673Y-17826320D02*
X8500244Y-17812034D01*
X8557387Y-17812034D01*
X8585958Y-17826320D01*
X8600244Y-17840606D01*
X8614530Y-17869177D01*
X8614530Y-17954892D01*
X8600244Y-17983463D01*
X8585958Y-17997749D01*
X8557387Y-18012034D01*
X8500244Y-18012034D01*
X8471673Y-17997749D01*
X8743101Y-17983463D02*
X8757387Y-17997749D01*
X8743101Y-18012034D01*
X8728816Y-17997749D01*
X8743101Y-17983463D01*
X8743101Y-18012034D01*
X8743101Y-17826320D02*
X8757387Y-17840606D01*
X8743101Y-17854892D01*
X8728816Y-17840606D01*
X8743101Y-17826320D01*
X8743101Y-17854892D01*
X6359530Y-18486320D02*
X6399530Y-18526320D01*
X6399530Y-18486320D02*
X6359530Y-18526320D01*
X6743101Y-18342034D02*
X6771673Y-18342034D01*
X6800244Y-18356320D01*
X6814530Y-18370606D01*
X6828816Y-18399177D01*
X6843101Y-18456320D01*
X6843101Y-18527749D01*
X6828816Y-18584892D01*
X6814530Y-18613463D01*
X6800244Y-18627749D01*
X6771673Y-18642034D01*
X6743101Y-18642034D01*
X6714530Y-18627749D01*
X6700244Y-18613463D01*
X6685958Y-18584892D01*
X6671673Y-18527749D01*
X6671673Y-18456320D01*
X6685958Y-18399177D01*
X6700244Y-18370606D01*
X6714530Y-18356320D01*
X6743101Y-18342034D01*
X6971673Y-18613463D02*
X6985958Y-18627749D01*
X6971673Y-18642034D01*
X6957387Y-18627749D01*
X6971673Y-18613463D01*
X6971673Y-18642034D01*
X7243101Y-18442034D02*
X7243101Y-18642034D01*
X7171673Y-18327749D02*
X7100244Y-18542034D01*
X7285958Y-18542034D01*
X7457387Y-18342034D02*
X7485958Y-18342034D01*
X7514530Y-18356320D01*
X7528816Y-18370606D01*
X7543101Y-18399177D01*
X7557387Y-18456320D01*
X7557387Y-18527749D01*
X7543101Y-18584892D01*
X7528816Y-18613463D01*
X7514530Y-18627749D01*
X7485958Y-18642034D01*
X7457387Y-18642034D01*
X7428816Y-18627749D01*
X7414530Y-18613463D01*
X7400244Y-18584892D01*
X7385958Y-18527749D01*
X7385958Y-18456320D01*
X7400244Y-18399177D01*
X7414530Y-18370606D01*
X7428816Y-18356320D01*
X7457387Y-18342034D01*
X7685958Y-18642034D02*
X7685958Y-18442034D01*
X7685958Y-18470606D02*
X7700244Y-18456320D01*
X7728816Y-18442034D01*
X7771673Y-18442034D01*
X7800244Y-18456320D01*
X7814530Y-18484892D01*
X7814530Y-18642034D01*
X7814530Y-18484892D02*
X7828816Y-18456320D01*
X7857387Y-18442034D01*
X7900244Y-18442034D01*
X7928816Y-18456320D01*
X7943101Y-18484892D01*
X7943101Y-18642034D01*
X8085958Y-18642034D02*
X8085958Y-18442034D01*
X8085958Y-18470606D02*
X8100244Y-18456320D01*
X8128816Y-18442034D01*
X8171673Y-18442034D01*
X8200244Y-18456320D01*
X8214530Y-18484892D01*
X8214530Y-18642034D01*
X8214530Y-18484892D02*
X8228816Y-18456320D01*
X8257387Y-18442034D01*
X8300244Y-18442034D01*
X8328816Y-18456320D01*
X8343101Y-18484892D01*
X8343101Y-18642034D01*
X8928816Y-18327749D02*
X8671673Y-18713463D01*
X9314530Y-18342034D02*
X9343101Y-18342034D01*
X9371673Y-18356320D01*
X9385958Y-18370606D01*
X9400244Y-18399177D01*
X9414530Y-18456320D01*
X9414530Y-18527749D01*
X9400244Y-18584892D01*
X9385958Y-18613463D01*
X9371673Y-18627749D01*
X9343101Y-18642034D01*
X9314530Y-18642034D01*
X9285958Y-18627749D01*
X9271673Y-18613463D01*
X9257387Y-18584892D01*
X9243101Y-18527749D01*
X9243101Y-18456320D01*
X9257387Y-18399177D01*
X9271673Y-18370606D01*
X9285958Y-18356320D01*
X9314530Y-18342034D01*
X9543101Y-18613463D02*
X9557387Y-18627749D01*
X9543101Y-18642034D01*
X9528816Y-18627749D01*
X9543101Y-18613463D01*
X9543101Y-18642034D01*
X9743101Y-18342034D02*
X9771673Y-18342034D01*
X9800244Y-18356320D01*
X9814530Y-18370606D01*
X9828816Y-18399177D01*
X9843101Y-18456320D01*
X9843101Y-18527749D01*
X9828816Y-18584892D01*
X9814530Y-18613463D01*
X9800244Y-18627749D01*
X9771673Y-18642034D01*
X9743101Y-18642034D01*
X9714530Y-18627749D01*
X9700244Y-18613463D01*
X9685958Y-18584892D01*
X9671673Y-18527749D01*
X9671673Y-18456320D01*
X9685958Y-18399177D01*
X9700244Y-18370606D01*
X9714530Y-18356320D01*
X9743101Y-18342034D01*
X10128816Y-18642034D02*
X9957387Y-18642034D01*
X10043101Y-18642034D02*
X10043101Y-18342034D01*
X10014530Y-18384892D01*
X9985958Y-18413463D01*
X9957387Y-18427749D01*
X10385958Y-18342034D02*
X10328816Y-18342034D01*
X10300244Y-18356320D01*
X10285958Y-18370606D01*
X10257387Y-18413463D01*
X10243101Y-18470606D01*
X10243101Y-18584892D01*
X10257387Y-18613463D01*
X10271673Y-18627749D01*
X10300244Y-18642034D01*
X10357387Y-18642034D01*
X10385958Y-18627749D01*
X10400244Y-18613463D01*
X10414530Y-18584892D01*
X10414530Y-18513463D01*
X10400244Y-18484892D01*
X10385958Y-18470606D01*
X10357387Y-18456320D01*
X10300244Y-18456320D01*
X10271673Y-18470606D01*
X10257387Y-18484892D01*
X10243101Y-18513463D01*
X10528816Y-18342034D02*
X10528816Y-18399177D01*
X10643101Y-18342034D02*
X10643101Y-18399177D01*
X11085958Y-18756320D02*
X11071673Y-18742034D01*
X11043101Y-18699177D01*
X11028816Y-18670606D01*
X11014530Y-18627749D01*
X11000244Y-18556320D01*
X11000244Y-18499177D01*
X11014530Y-18427749D01*
X11028816Y-18384892D01*
X11043101Y-18356320D01*
X11071673Y-18313463D01*
X11085958Y-18299177D01*
X11357387Y-18642034D02*
X11185958Y-18642034D01*
X11271673Y-18642034D02*
X11271673Y-18342034D01*
X11243101Y-18384892D01*
X11214530Y-18413463D01*
X11185958Y-18427749D01*
X11543101Y-18342034D02*
X11571673Y-18342034D01*
X11600244Y-18356320D01*
X11614530Y-18370606D01*
X11628816Y-18399177D01*
X11643101Y-18456320D01*
X11643101Y-18527749D01*
X11628816Y-18584892D01*
X11614530Y-18613463D01*
X11600244Y-18627749D01*
X11571673Y-18642034D01*
X11543101Y-18642034D01*
X11514530Y-18627749D01*
X11500244Y-18613463D01*
X11485958Y-18584892D01*
X11471673Y-18527749D01*
X11471673Y-18456320D01*
X11485958Y-18399177D01*
X11500244Y-18370606D01*
X11514530Y-18356320D01*
X11543101Y-18342034D01*
X11900244Y-18442034D02*
X11900244Y-18642034D01*
X11828816Y-18327749D02*
X11757387Y-18542034D01*
X11943101Y-18542034D01*
X12285958Y-18642034D02*
X12285958Y-18342034D01*
X12414530Y-18642034D02*
X12414530Y-18484892D01*
X12400244Y-18456320D01*
X12371673Y-18442034D01*
X12328816Y-18442034D01*
X12300244Y-18456320D01*
X12285958Y-18470606D01*
X12600244Y-18642034D02*
X12571673Y-18627749D01*
X12557387Y-18613463D01*
X12543101Y-18584892D01*
X12543101Y-18499177D01*
X12557387Y-18470606D01*
X12571673Y-18456320D01*
X12600244Y-18442034D01*
X12643101Y-18442034D01*
X12671673Y-18456320D01*
X12685958Y-18470606D01*
X12700244Y-18499177D01*
X12700244Y-18584892D01*
X12685958Y-18613463D01*
X12671673Y-18627749D01*
X12643101Y-18642034D01*
X12600244Y-18642034D01*
X12871673Y-18642034D02*
X12843101Y-18627749D01*
X12828816Y-18599177D01*
X12828816Y-18342034D01*
X13100244Y-18627749D02*
X13071673Y-18642034D01*
X13014530Y-18642034D01*
X12985958Y-18627749D01*
X12971673Y-18599177D01*
X12971673Y-18484892D01*
X12985958Y-18456320D01*
X13014530Y-18442034D01*
X13071673Y-18442034D01*
X13100244Y-18456320D01*
X13114530Y-18484892D01*
X13114530Y-18513463D01*
X12971673Y-18542034D01*
X13228816Y-18627749D02*
X13257387Y-18642034D01*
X13314530Y-18642034D01*
X13343101Y-18627749D01*
X13357387Y-18599177D01*
X13357387Y-18584892D01*
X13343101Y-18556320D01*
X13314530Y-18542034D01*
X13271673Y-18542034D01*
X13243101Y-18527749D01*
X13228816Y-18499177D01*
X13228816Y-18484892D01*
X13243101Y-18456320D01*
X13271673Y-18442034D01*
X13314530Y-18442034D01*
X13343101Y-18456320D01*
X13457387Y-18756320D02*
X13471673Y-18742034D01*
X13500244Y-18699177D01*
X13514530Y-18670606D01*
X13528816Y-18627749D01*
X13543101Y-18556320D01*
X13543101Y-18499177D01*
X13528816Y-18427749D01*
X13514530Y-18384892D01*
X13500244Y-18356320D01*
X13471673Y-18313463D01*
X13457387Y-18299177D01*
X6399530Y-18902320D02*
G75*
G03X6399530Y-18902320I-35000J0D01*
G01*
X6743101Y-18738034D02*
X6771673Y-18738034D01*
X6800244Y-18752320D01*
X6814530Y-18766606D01*
X6828816Y-18795177D01*
X6843101Y-18852320D01*
X6843101Y-18923749D01*
X6828816Y-18980892D01*
X6814530Y-19009463D01*
X6800244Y-19023749D01*
X6771673Y-19038034D01*
X6743101Y-19038034D01*
X6714530Y-19023749D01*
X6700244Y-19009463D01*
X6685958Y-18980892D01*
X6671673Y-18923749D01*
X6671673Y-18852320D01*
X6685958Y-18795177D01*
X6700244Y-18766606D01*
X6714530Y-18752320D01*
X6743101Y-18738034D01*
X6971673Y-19009463D02*
X6985958Y-19023749D01*
X6971673Y-19038034D01*
X6957387Y-19023749D01*
X6971673Y-19009463D01*
X6971673Y-19038034D01*
X7085958Y-18738034D02*
X7285958Y-18738034D01*
X7157387Y-19038034D01*
X7457387Y-18738034D02*
X7485958Y-18738034D01*
X7514530Y-18752320D01*
X7528816Y-18766606D01*
X7543101Y-18795177D01*
X7557387Y-18852320D01*
X7557387Y-18923749D01*
X7543101Y-18980892D01*
X7528816Y-19009463D01*
X7514530Y-19023749D01*
X7485958Y-19038034D01*
X7457387Y-19038034D01*
X7428816Y-19023749D01*
X7414530Y-19009463D01*
X7400244Y-18980892D01*
X7385958Y-18923749D01*
X7385958Y-18852320D01*
X7400244Y-18795177D01*
X7414530Y-18766606D01*
X7428816Y-18752320D01*
X7457387Y-18738034D01*
X7685958Y-19038034D02*
X7685958Y-18838034D01*
X7685958Y-18866606D02*
X7700244Y-18852320D01*
X7728816Y-18838034D01*
X7771673Y-18838034D01*
X7800244Y-18852320D01*
X7814530Y-18880892D01*
X7814530Y-19038034D01*
X7814530Y-18880892D02*
X7828816Y-18852320D01*
X7857387Y-18838034D01*
X7900244Y-18838034D01*
X7928816Y-18852320D01*
X7943101Y-18880892D01*
X7943101Y-19038034D01*
X8085958Y-19038034D02*
X8085958Y-18838034D01*
X8085958Y-18866606D02*
X8100244Y-18852320D01*
X8128816Y-18838034D01*
X8171673Y-18838034D01*
X8200244Y-18852320D01*
X8214530Y-18880892D01*
X8214530Y-19038034D01*
X8214530Y-18880892D02*
X8228816Y-18852320D01*
X8257387Y-18838034D01*
X8300244Y-18838034D01*
X8328816Y-18852320D01*
X8343101Y-18880892D01*
X8343101Y-19038034D01*
X8928816Y-18723749D02*
X8671673Y-19109463D01*
X9314530Y-18738034D02*
X9343101Y-18738034D01*
X9371673Y-18752320D01*
X9385958Y-18766606D01*
X9400244Y-18795177D01*
X9414530Y-18852320D01*
X9414530Y-18923749D01*
X9400244Y-18980892D01*
X9385958Y-19009463D01*
X9371673Y-19023749D01*
X9343101Y-19038034D01*
X9314530Y-19038034D01*
X9285958Y-19023749D01*
X9271673Y-19009463D01*
X9257387Y-18980892D01*
X9243101Y-18923749D01*
X9243101Y-18852320D01*
X9257387Y-18795177D01*
X9271673Y-18766606D01*
X9285958Y-18752320D01*
X9314530Y-18738034D01*
X9543101Y-19009463D02*
X9557387Y-19023749D01*
X9543101Y-19038034D01*
X9528816Y-19023749D01*
X9543101Y-19009463D01*
X9543101Y-19038034D01*
X9743101Y-18738034D02*
X9771673Y-18738034D01*
X9800244Y-18752320D01*
X9814530Y-18766606D01*
X9828816Y-18795177D01*
X9843101Y-18852320D01*
X9843101Y-18923749D01*
X9828816Y-18980892D01*
X9814530Y-19009463D01*
X9800244Y-19023749D01*
X9771673Y-19038034D01*
X9743101Y-19038034D01*
X9714530Y-19023749D01*
X9700244Y-19009463D01*
X9685958Y-18980892D01*
X9671673Y-18923749D01*
X9671673Y-18852320D01*
X9685958Y-18795177D01*
X9700244Y-18766606D01*
X9714530Y-18752320D01*
X9743101Y-18738034D01*
X9957387Y-18766606D02*
X9971673Y-18752320D01*
X10000244Y-18738034D01*
X10071673Y-18738034D01*
X10100244Y-18752320D01*
X10114530Y-18766606D01*
X10128816Y-18795177D01*
X10128816Y-18823749D01*
X10114530Y-18866606D01*
X9943101Y-19038034D01*
X10128816Y-19038034D01*
X10300244Y-18866606D02*
X10271673Y-18852320D01*
X10257387Y-18838034D01*
X10243101Y-18809463D01*
X10243101Y-18795177D01*
X10257387Y-18766606D01*
X10271673Y-18752320D01*
X10300244Y-18738034D01*
X10357387Y-18738034D01*
X10385958Y-18752320D01*
X10400244Y-18766606D01*
X10414530Y-18795177D01*
X10414530Y-18809463D01*
X10400244Y-18838034D01*
X10385958Y-18852320D01*
X10357387Y-18866606D01*
X10300244Y-18866606D01*
X10271673Y-18880892D01*
X10257387Y-18895177D01*
X10243101Y-18923749D01*
X10243101Y-18980892D01*
X10257387Y-19009463D01*
X10271673Y-19023749D01*
X10300244Y-19038034D01*
X10357387Y-19038034D01*
X10385958Y-19023749D01*
X10400244Y-19009463D01*
X10414530Y-18980892D01*
X10414530Y-18923749D01*
X10400244Y-18895177D01*
X10385958Y-18880892D01*
X10357387Y-18866606D01*
X10528816Y-18738034D02*
X10528816Y-18795177D01*
X10643101Y-18738034D02*
X10643101Y-18795177D01*
X11085958Y-19152320D02*
X11071673Y-19138034D01*
X11043101Y-19095177D01*
X11028816Y-19066606D01*
X11014530Y-19023749D01*
X11000244Y-18952320D01*
X11000244Y-18895177D01*
X11014530Y-18823749D01*
X11028816Y-18780892D01*
X11043101Y-18752320D01*
X11071673Y-18709463D01*
X11085958Y-18695177D01*
X11328816Y-18838034D02*
X11328816Y-19038034D01*
X11257387Y-18723749D02*
X11185958Y-18938034D01*
X11371673Y-18938034D01*
X11471673Y-18766606D02*
X11485958Y-18752320D01*
X11514530Y-18738034D01*
X11585958Y-18738034D01*
X11614530Y-18752320D01*
X11628816Y-18766606D01*
X11643101Y-18795177D01*
X11643101Y-18823749D01*
X11628816Y-18866606D01*
X11457387Y-19038034D01*
X11643101Y-19038034D01*
X12000244Y-19038034D02*
X12000244Y-18738034D01*
X12128816Y-19038034D02*
X12128816Y-18880892D01*
X12114530Y-18852320D01*
X12085958Y-18838034D01*
X12043101Y-18838034D01*
X12014530Y-18852320D01*
X12000244Y-18866606D01*
X12314530Y-19038034D02*
X12285958Y-19023749D01*
X12271673Y-19009463D01*
X12257387Y-18980892D01*
X12257387Y-18895177D01*
X12271673Y-18866606D01*
X12285958Y-18852320D01*
X12314530Y-18838034D01*
X12357387Y-18838034D01*
X12385958Y-18852320D01*
X12400244Y-18866606D01*
X12414530Y-18895177D01*
X12414530Y-18980892D01*
X12400244Y-19009463D01*
X12385958Y-19023749D01*
X12357387Y-19038034D01*
X12314530Y-19038034D01*
X12585958Y-19038034D02*
X12557387Y-19023749D01*
X12543101Y-18995177D01*
X12543101Y-18738034D01*
X12814530Y-19023749D02*
X12785958Y-19038034D01*
X12728816Y-19038034D01*
X12700244Y-19023749D01*
X12685958Y-18995177D01*
X12685958Y-18880892D01*
X12700244Y-18852320D01*
X12728816Y-18838034D01*
X12785958Y-18838034D01*
X12814530Y-18852320D01*
X12828816Y-18880892D01*
X12828816Y-18909463D01*
X12685958Y-18938034D01*
X12943101Y-19023749D02*
X12971673Y-19038034D01*
X13028816Y-19038034D01*
X13057387Y-19023749D01*
X13071673Y-18995177D01*
X13071673Y-18980892D01*
X13057387Y-18952320D01*
X13028816Y-18938034D01*
X12985958Y-18938034D01*
X12957387Y-18923749D01*
X12943101Y-18895177D01*
X12943101Y-18880892D01*
X12957387Y-18852320D01*
X12985958Y-18838034D01*
X13028816Y-18838034D01*
X13057387Y-18852320D01*
X13171673Y-19152320D02*
X13185958Y-19138034D01*
X13214530Y-19095177D01*
X13228816Y-19066606D01*
X13243101Y-19023749D01*
X13257387Y-18952320D01*
X13257387Y-18895177D01*
X13243101Y-18823749D01*
X13228816Y-18780892D01*
X13214530Y-18752320D01*
X13185958Y-18709463D01*
X13171673Y-18695177D01*
X6359530Y-19258320D02*
X6359530Y-19338320D01*
X6319530Y-19298320D02*
X6399530Y-19298320D01*
X6743101Y-19134034D02*
X6771673Y-19134034D01*
X6800244Y-19148320D01*
X6814530Y-19162606D01*
X6828816Y-19191177D01*
X6843101Y-19248320D01*
X6843101Y-19319749D01*
X6828816Y-19376892D01*
X6814530Y-19405463D01*
X6800244Y-19419749D01*
X6771673Y-19434034D01*
X6743101Y-19434034D01*
X6714530Y-19419749D01*
X6700244Y-19405463D01*
X6685958Y-19376892D01*
X6671673Y-19319749D01*
X6671673Y-19248320D01*
X6685958Y-19191177D01*
X6700244Y-19162606D01*
X6714530Y-19148320D01*
X6743101Y-19134034D01*
X6971673Y-19405463D02*
X6985958Y-19419749D01*
X6971673Y-19434034D01*
X6957387Y-19419749D01*
X6971673Y-19405463D01*
X6971673Y-19434034D01*
X7157387Y-19262606D02*
X7128816Y-19248320D01*
X7114530Y-19234034D01*
X7100244Y-19205463D01*
X7100244Y-19191177D01*
X7114530Y-19162606D01*
X7128816Y-19148320D01*
X7157387Y-19134034D01*
X7214530Y-19134034D01*
X7243101Y-19148320D01*
X7257387Y-19162606D01*
X7271673Y-19191177D01*
X7271673Y-19205463D01*
X7257387Y-19234034D01*
X7243101Y-19248320D01*
X7214530Y-19262606D01*
X7157387Y-19262606D01*
X7128816Y-19276892D01*
X7114530Y-19291177D01*
X7100244Y-19319749D01*
X7100244Y-19376892D01*
X7114530Y-19405463D01*
X7128816Y-19419749D01*
X7157387Y-19434034D01*
X7214530Y-19434034D01*
X7243101Y-19419749D01*
X7257387Y-19405463D01*
X7271673Y-19376892D01*
X7271673Y-19319749D01*
X7257387Y-19291177D01*
X7243101Y-19276892D01*
X7214530Y-19262606D01*
X7457387Y-19134034D02*
X7485958Y-19134034D01*
X7514530Y-19148320D01*
X7528816Y-19162606D01*
X7543101Y-19191177D01*
X7557387Y-19248320D01*
X7557387Y-19319749D01*
X7543101Y-19376892D01*
X7528816Y-19405463D01*
X7514530Y-19419749D01*
X7485958Y-19434034D01*
X7457387Y-19434034D01*
X7428816Y-19419749D01*
X7414530Y-19405463D01*
X7400244Y-19376892D01*
X7385958Y-19319749D01*
X7385958Y-19248320D01*
X7400244Y-19191177D01*
X7414530Y-19162606D01*
X7428816Y-19148320D01*
X7457387Y-19134034D01*
X7685958Y-19434034D02*
X7685958Y-19234034D01*
X7685958Y-19262606D02*
X7700244Y-19248320D01*
X7728816Y-19234034D01*
X7771673Y-19234034D01*
X7800244Y-19248320D01*
X7814530Y-19276892D01*
X7814530Y-19434034D01*
X7814530Y-19276892D02*
X7828816Y-19248320D01*
X7857387Y-19234034D01*
X7900244Y-19234034D01*
X7928816Y-19248320D01*
X7943101Y-19276892D01*
X7943101Y-19434034D01*
X8085958Y-19434034D02*
X8085958Y-19234034D01*
X8085958Y-19262606D02*
X8100244Y-19248320D01*
X8128816Y-19234034D01*
X8171673Y-19234034D01*
X8200244Y-19248320D01*
X8214530Y-19276892D01*
X8214530Y-19434034D01*
X8214530Y-19276892D02*
X8228816Y-19248320D01*
X8257387Y-19234034D01*
X8300244Y-19234034D01*
X8328816Y-19248320D01*
X8343101Y-19276892D01*
X8343101Y-19434034D01*
X8928816Y-19119749D02*
X8671673Y-19505463D01*
X9314530Y-19134034D02*
X9343101Y-19134034D01*
X9371673Y-19148320D01*
X9385958Y-19162606D01*
X9400244Y-19191177D01*
X9414530Y-19248320D01*
X9414530Y-19319749D01*
X9400244Y-19376892D01*
X9385958Y-19405463D01*
X9371673Y-19419749D01*
X9343101Y-19434034D01*
X9314530Y-19434034D01*
X9285958Y-19419749D01*
X9271673Y-19405463D01*
X9257387Y-19376892D01*
X9243101Y-19319749D01*
X9243101Y-19248320D01*
X9257387Y-19191177D01*
X9271673Y-19162606D01*
X9285958Y-19148320D01*
X9314530Y-19134034D01*
X9543101Y-19405463D02*
X9557387Y-19419749D01*
X9543101Y-19434034D01*
X9528816Y-19419749D01*
X9543101Y-19405463D01*
X9543101Y-19434034D01*
X9743101Y-19134034D02*
X9771673Y-19134034D01*
X9800244Y-19148320D01*
X9814530Y-19162606D01*
X9828816Y-19191177D01*
X9843101Y-19248320D01*
X9843101Y-19319749D01*
X9828816Y-19376892D01*
X9814530Y-19405463D01*
X9800244Y-19419749D01*
X9771673Y-19434034D01*
X9743101Y-19434034D01*
X9714530Y-19419749D01*
X9700244Y-19405463D01*
X9685958Y-19376892D01*
X9671673Y-19319749D01*
X9671673Y-19248320D01*
X9685958Y-19191177D01*
X9700244Y-19162606D01*
X9714530Y-19148320D01*
X9743101Y-19134034D01*
X9943101Y-19134034D02*
X10128816Y-19134034D01*
X10028816Y-19248320D01*
X10071673Y-19248320D01*
X10100244Y-19262606D01*
X10114530Y-19276892D01*
X10128816Y-19305463D01*
X10128816Y-19376892D01*
X10114530Y-19405463D01*
X10100244Y-19419749D01*
X10071673Y-19434034D01*
X9985958Y-19434034D01*
X9957387Y-19419749D01*
X9943101Y-19405463D01*
X10414530Y-19434034D02*
X10243101Y-19434034D01*
X10328816Y-19434034D02*
X10328816Y-19134034D01*
X10300244Y-19176892D01*
X10271673Y-19205463D01*
X10243101Y-19219749D01*
X10528816Y-19134034D02*
X10528816Y-19191177D01*
X10643101Y-19134034D02*
X10643101Y-19191177D01*
X11085958Y-19548320D02*
X11071673Y-19534034D01*
X11043101Y-19491177D01*
X11028816Y-19462606D01*
X11014530Y-19419749D01*
X11000244Y-19348320D01*
X11000244Y-19291177D01*
X11014530Y-19219749D01*
X11028816Y-19176892D01*
X11043101Y-19148320D01*
X11071673Y-19105463D01*
X11085958Y-19091177D01*
X11185958Y-19162606D02*
X11200244Y-19148320D01*
X11228816Y-19134034D01*
X11300244Y-19134034D01*
X11328816Y-19148320D01*
X11343101Y-19162606D01*
X11357387Y-19191177D01*
X11357387Y-19219749D01*
X11343101Y-19262606D01*
X11171673Y-19434034D01*
X11357387Y-19434034D01*
X11457387Y-19134034D02*
X11657387Y-19134034D01*
X11528816Y-19434034D01*
X11900244Y-19134034D02*
X11843101Y-19134034D01*
X11814530Y-19148320D01*
X11800244Y-19162606D01*
X11771673Y-19205463D01*
X11757387Y-19262606D01*
X11757387Y-19376892D01*
X11771673Y-19405463D01*
X11785958Y-19419749D01*
X11814530Y-19434034D01*
X11871673Y-19434034D01*
X11900244Y-19419749D01*
X11914530Y-19405463D01*
X11928816Y-19376892D01*
X11928816Y-19305463D01*
X11914530Y-19276892D01*
X11900244Y-19262606D01*
X11871673Y-19248320D01*
X11814530Y-19248320D01*
X11785958Y-19262606D01*
X11771673Y-19276892D01*
X11757387Y-19305463D01*
X12285958Y-19434034D02*
X12285958Y-19134034D01*
X12414530Y-19434034D02*
X12414530Y-19276892D01*
X12400244Y-19248320D01*
X12371673Y-19234034D01*
X12328816Y-19234034D01*
X12300244Y-19248320D01*
X12285958Y-19262606D01*
X12600244Y-19434034D02*
X12571673Y-19419749D01*
X12557387Y-19405463D01*
X12543101Y-19376892D01*
X12543101Y-19291177D01*
X12557387Y-19262606D01*
X12571673Y-19248320D01*
X12600244Y-19234034D01*
X12643101Y-19234034D01*
X12671673Y-19248320D01*
X12685958Y-19262606D01*
X12700244Y-19291177D01*
X12700244Y-19376892D01*
X12685958Y-19405463D01*
X12671673Y-19419749D01*
X12643101Y-19434034D01*
X12600244Y-19434034D01*
X12871673Y-19434034D02*
X12843101Y-19419749D01*
X12828816Y-19391177D01*
X12828816Y-19134034D01*
X13100244Y-19419749D02*
X13071673Y-19434034D01*
X13014530Y-19434034D01*
X12985958Y-19419749D01*
X12971673Y-19391177D01*
X12971673Y-19276892D01*
X12985958Y-19248320D01*
X13014530Y-19234034D01*
X13071673Y-19234034D01*
X13100244Y-19248320D01*
X13114530Y-19276892D01*
X13114530Y-19305463D01*
X12971673Y-19334034D01*
X13228816Y-19419749D02*
X13257387Y-19434034D01*
X13314530Y-19434034D01*
X13343101Y-19419749D01*
X13357387Y-19391177D01*
X13357387Y-19376892D01*
X13343101Y-19348320D01*
X13314530Y-19334034D01*
X13271673Y-19334034D01*
X13243101Y-19319749D01*
X13228816Y-19291177D01*
X13228816Y-19276892D01*
X13243101Y-19248320D01*
X13271673Y-19234034D01*
X13314530Y-19234034D01*
X13343101Y-19248320D01*
X13457387Y-19548320D02*
X13471673Y-19534034D01*
X13500244Y-19491177D01*
X13514530Y-19462606D01*
X13528816Y-19419749D01*
X13543101Y-19348320D01*
X13543101Y-19291177D01*
X13528816Y-19219749D01*
X13514530Y-19176892D01*
X13500244Y-19148320D01*
X13471673Y-19105463D01*
X13457387Y-19091177D01*
X6381957Y-19736747D02*
X6381957Y-19651893D01*
X6297103Y-19651893D01*
X6297103Y-19736747D01*
X6381957Y-19736747D01*
X6843101Y-19830034D02*
X6671673Y-19830034D01*
X6757387Y-19830034D02*
X6757387Y-19530034D01*
X6728816Y-19572892D01*
X6700244Y-19601463D01*
X6671673Y-19615749D01*
X6971673Y-19801463D02*
X6985958Y-19815749D01*
X6971673Y-19830034D01*
X6957387Y-19815749D01*
X6971673Y-19801463D01*
X6971673Y-19830034D01*
X7100244Y-19558606D02*
X7114530Y-19544320D01*
X7143101Y-19530034D01*
X7214530Y-19530034D01*
X7243101Y-19544320D01*
X7257387Y-19558606D01*
X7271673Y-19587177D01*
X7271673Y-19615749D01*
X7257387Y-19658606D01*
X7085958Y-19830034D01*
X7271673Y-19830034D01*
X7457387Y-19530034D02*
X7485958Y-19530034D01*
X7514530Y-19544320D01*
X7528816Y-19558606D01*
X7543101Y-19587177D01*
X7557387Y-19644320D01*
X7557387Y-19715749D01*
X7543101Y-19772892D01*
X7528816Y-19801463D01*
X7514530Y-19815749D01*
X7485958Y-19830034D01*
X7457387Y-19830034D01*
X7428816Y-19815749D01*
X7414530Y-19801463D01*
X7400244Y-19772892D01*
X7385958Y-19715749D01*
X7385958Y-19644320D01*
X7400244Y-19587177D01*
X7414530Y-19558606D01*
X7428816Y-19544320D01*
X7457387Y-19530034D01*
X7685958Y-19830034D02*
X7685958Y-19630034D01*
X7685958Y-19658606D02*
X7700244Y-19644320D01*
X7728816Y-19630034D01*
X7771673Y-19630034D01*
X7800244Y-19644320D01*
X7814530Y-19672892D01*
X7814530Y-19830034D01*
X7814530Y-19672892D02*
X7828816Y-19644320D01*
X7857387Y-19630034D01*
X7900244Y-19630034D01*
X7928816Y-19644320D01*
X7943101Y-19672892D01*
X7943101Y-19830034D01*
X8085958Y-19830034D02*
X8085958Y-19630034D01*
X8085958Y-19658606D02*
X8100244Y-19644320D01*
X8128816Y-19630034D01*
X8171673Y-19630034D01*
X8200244Y-19644320D01*
X8214530Y-19672892D01*
X8214530Y-19830034D01*
X8214530Y-19672892D02*
X8228816Y-19644320D01*
X8257387Y-19630034D01*
X8300244Y-19630034D01*
X8328816Y-19644320D01*
X8343101Y-19672892D01*
X8343101Y-19830034D01*
X8928816Y-19515749D02*
X8671673Y-19901463D01*
X9314530Y-19530034D02*
X9343101Y-19530034D01*
X9371673Y-19544320D01*
X9385958Y-19558606D01*
X9400244Y-19587177D01*
X9414530Y-19644320D01*
X9414530Y-19715749D01*
X9400244Y-19772892D01*
X9385958Y-19801463D01*
X9371673Y-19815749D01*
X9343101Y-19830034D01*
X9314530Y-19830034D01*
X9285958Y-19815749D01*
X9271673Y-19801463D01*
X9257387Y-19772892D01*
X9243101Y-19715749D01*
X9243101Y-19644320D01*
X9257387Y-19587177D01*
X9271673Y-19558606D01*
X9285958Y-19544320D01*
X9314530Y-19530034D01*
X9543101Y-19801463D02*
X9557387Y-19815749D01*
X9543101Y-19830034D01*
X9528816Y-19815749D01*
X9543101Y-19801463D01*
X9543101Y-19830034D01*
X9743101Y-19530034D02*
X9771673Y-19530034D01*
X9800244Y-19544320D01*
X9814530Y-19558606D01*
X9828816Y-19587177D01*
X9843101Y-19644320D01*
X9843101Y-19715749D01*
X9828816Y-19772892D01*
X9814530Y-19801463D01*
X9800244Y-19815749D01*
X9771673Y-19830034D01*
X9743101Y-19830034D01*
X9714530Y-19815749D01*
X9700244Y-19801463D01*
X9685958Y-19772892D01*
X9671673Y-19715749D01*
X9671673Y-19644320D01*
X9685958Y-19587177D01*
X9700244Y-19558606D01*
X9714530Y-19544320D01*
X9743101Y-19530034D01*
X10100244Y-19630034D02*
X10100244Y-19830034D01*
X10028816Y-19515749D02*
X9957387Y-19730034D01*
X10143101Y-19730034D01*
X10228816Y-19530034D02*
X10428816Y-19530034D01*
X10300244Y-19830034D01*
X10528816Y-19530034D02*
X10528816Y-19587177D01*
X10643101Y-19530034D02*
X10643101Y-19587177D01*
X11085958Y-19944320D02*
X11071673Y-19930034D01*
X11043101Y-19887177D01*
X11028816Y-19858606D01*
X11014530Y-19815749D01*
X11000244Y-19744320D01*
X11000244Y-19687177D01*
X11014530Y-19615749D01*
X11028816Y-19572892D01*
X11043101Y-19544320D01*
X11071673Y-19501463D01*
X11085958Y-19487177D01*
X11185958Y-19558606D02*
X11200244Y-19544320D01*
X11228816Y-19530034D01*
X11300244Y-19530034D01*
X11328816Y-19544320D01*
X11343101Y-19558606D01*
X11357387Y-19587177D01*
X11357387Y-19615749D01*
X11343101Y-19658606D01*
X11171673Y-19830034D01*
X11357387Y-19830034D01*
X11714530Y-19830034D02*
X11714530Y-19530034D01*
X11843101Y-19830034D02*
X11843101Y-19672892D01*
X11828816Y-19644320D01*
X11800244Y-19630034D01*
X11757387Y-19630034D01*
X11728816Y-19644320D01*
X11714530Y-19658606D01*
X12028816Y-19830034D02*
X12000244Y-19815749D01*
X11985958Y-19801463D01*
X11971673Y-19772892D01*
X11971673Y-19687177D01*
X11985958Y-19658606D01*
X12000244Y-19644320D01*
X12028816Y-19630034D01*
X12071673Y-19630034D01*
X12100244Y-19644320D01*
X12114530Y-19658606D01*
X12128816Y-19687177D01*
X12128816Y-19772892D01*
X12114530Y-19801463D01*
X12100244Y-19815749D01*
X12071673Y-19830034D01*
X12028816Y-19830034D01*
X12300244Y-19830034D02*
X12271673Y-19815749D01*
X12257387Y-19787177D01*
X12257387Y-19530034D01*
X12528816Y-19815749D02*
X12500244Y-19830034D01*
X12443101Y-19830034D01*
X12414530Y-19815749D01*
X12400244Y-19787177D01*
X12400244Y-19672892D01*
X12414530Y-19644320D01*
X12443101Y-19630034D01*
X12500244Y-19630034D01*
X12528816Y-19644320D01*
X12543101Y-19672892D01*
X12543101Y-19701463D01*
X12400244Y-19730034D01*
X12657387Y-19815749D02*
X12685958Y-19830034D01*
X12743101Y-19830034D01*
X12771673Y-19815749D01*
X12785958Y-19787177D01*
X12785958Y-19772892D01*
X12771673Y-19744320D01*
X12743101Y-19730034D01*
X12700244Y-19730034D01*
X12671673Y-19715749D01*
X12657387Y-19687177D01*
X12657387Y-19672892D01*
X12671673Y-19644320D01*
X12700244Y-19630034D01*
X12743101Y-19630034D01*
X12771673Y-19644320D01*
X12885958Y-19944320D02*
X12900244Y-19930034D01*
X12928816Y-19887177D01*
X12943101Y-19858606D01*
X12957387Y-19815749D01*
X12971673Y-19744320D01*
X12971673Y-19687177D01*
X12957387Y-19615749D01*
X12943101Y-19572892D01*
X12928816Y-19544320D01*
X12900244Y-19501463D01*
X12885958Y-19487177D01*
X6299530Y-20190320D02*
X6399530Y-20090320D01*
X6299530Y-19990320D01*
X6199530Y-20090320D01*
X6299530Y-20190320D01*
X6671673Y-19954606D02*
X6685958Y-19940320D01*
X6714530Y-19926034D01*
X6785958Y-19926034D01*
X6814530Y-19940320D01*
X6828816Y-19954606D01*
X6843101Y-19983177D01*
X6843101Y-20011749D01*
X6828816Y-20054606D01*
X6657387Y-20226034D01*
X6843101Y-20226034D01*
X6971673Y-20197463D02*
X6985958Y-20211749D01*
X6971673Y-20226034D01*
X6957387Y-20211749D01*
X6971673Y-20197463D01*
X6971673Y-20226034D01*
X7171673Y-19926034D02*
X7200244Y-19926034D01*
X7228816Y-19940320D01*
X7243101Y-19954606D01*
X7257387Y-19983177D01*
X7271673Y-20040320D01*
X7271673Y-20111749D01*
X7257387Y-20168892D01*
X7243101Y-20197463D01*
X7228816Y-20211749D01*
X7200244Y-20226034D01*
X7171673Y-20226034D01*
X7143101Y-20211749D01*
X7128816Y-20197463D01*
X7114530Y-20168892D01*
X7100244Y-20111749D01*
X7100244Y-20040320D01*
X7114530Y-19983177D01*
X7128816Y-19954606D01*
X7143101Y-19940320D01*
X7171673Y-19926034D01*
X7457387Y-19926034D02*
X7485958Y-19926034D01*
X7514530Y-19940320D01*
X7528816Y-19954606D01*
X7543101Y-19983177D01*
X7557387Y-20040320D01*
X7557387Y-20111749D01*
X7543101Y-20168892D01*
X7528816Y-20197463D01*
X7514530Y-20211749D01*
X7485958Y-20226034D01*
X7457387Y-20226034D01*
X7428816Y-20211749D01*
X7414530Y-20197463D01*
X7400244Y-20168892D01*
X7385958Y-20111749D01*
X7385958Y-20040320D01*
X7400244Y-19983177D01*
X7414530Y-19954606D01*
X7428816Y-19940320D01*
X7457387Y-19926034D01*
X7685958Y-20226034D02*
X7685958Y-20026034D01*
X7685958Y-20054606D02*
X7700244Y-20040320D01*
X7728816Y-20026034D01*
X7771673Y-20026034D01*
X7800244Y-20040320D01*
X7814530Y-20068892D01*
X7814530Y-20226034D01*
X7814530Y-20068892D02*
X7828816Y-20040320D01*
X7857387Y-20026034D01*
X7900244Y-20026034D01*
X7928816Y-20040320D01*
X7943101Y-20068892D01*
X7943101Y-20226034D01*
X8085958Y-20226034D02*
X8085958Y-20026034D01*
X8085958Y-20054606D02*
X8100244Y-20040320D01*
X8128816Y-20026034D01*
X8171673Y-20026034D01*
X8200244Y-20040320D01*
X8214530Y-20068892D01*
X8214530Y-20226034D01*
X8214530Y-20068892D02*
X8228816Y-20040320D01*
X8257387Y-20026034D01*
X8300244Y-20026034D01*
X8328816Y-20040320D01*
X8343101Y-20068892D01*
X8343101Y-20226034D01*
X8928816Y-19911749D02*
X8671673Y-20297463D01*
X9314530Y-19926034D02*
X9343101Y-19926034D01*
X9371673Y-19940320D01*
X9385958Y-19954606D01*
X9400244Y-19983177D01*
X9414530Y-20040320D01*
X9414530Y-20111749D01*
X9400244Y-20168892D01*
X9385958Y-20197463D01*
X9371673Y-20211749D01*
X9343101Y-20226034D01*
X9314530Y-20226034D01*
X9285958Y-20211749D01*
X9271673Y-20197463D01*
X9257387Y-20168892D01*
X9243101Y-20111749D01*
X9243101Y-20040320D01*
X9257387Y-19983177D01*
X9271673Y-19954606D01*
X9285958Y-19940320D01*
X9314530Y-19926034D01*
X9543101Y-20197463D02*
X9557387Y-20211749D01*
X9543101Y-20226034D01*
X9528816Y-20211749D01*
X9543101Y-20197463D01*
X9543101Y-20226034D01*
X9743101Y-19926034D02*
X9771673Y-19926034D01*
X9800244Y-19940320D01*
X9814530Y-19954606D01*
X9828816Y-19983177D01*
X9843101Y-20040320D01*
X9843101Y-20111749D01*
X9828816Y-20168892D01*
X9814530Y-20197463D01*
X9800244Y-20211749D01*
X9771673Y-20226034D01*
X9743101Y-20226034D01*
X9714530Y-20211749D01*
X9700244Y-20197463D01*
X9685958Y-20168892D01*
X9671673Y-20111749D01*
X9671673Y-20040320D01*
X9685958Y-19983177D01*
X9700244Y-19954606D01*
X9714530Y-19940320D01*
X9743101Y-19926034D01*
X9943101Y-19926034D02*
X10143101Y-19926034D01*
X10014530Y-20226034D01*
X10271673Y-20226034D02*
X10328816Y-20226034D01*
X10357387Y-20211749D01*
X10371673Y-20197463D01*
X10400244Y-20154606D01*
X10414530Y-20097463D01*
X10414530Y-19983177D01*
X10400244Y-19954606D01*
X10385958Y-19940320D01*
X10357387Y-19926034D01*
X10300244Y-19926034D01*
X10271673Y-19940320D01*
X10257387Y-19954606D01*
X10243101Y-19983177D01*
X10243101Y-20054606D01*
X10257387Y-20083177D01*
X10271673Y-20097463D01*
X10300244Y-20111749D01*
X10357387Y-20111749D01*
X10385958Y-20097463D01*
X10400244Y-20083177D01*
X10414530Y-20054606D01*
X10528816Y-19926034D02*
X10528816Y-19983177D01*
X10643101Y-19926034D02*
X10643101Y-19983177D01*
X11085958Y-20340320D02*
X11071673Y-20326034D01*
X11043101Y-20283177D01*
X11028816Y-20254606D01*
X11014530Y-20211749D01*
X11000244Y-20140320D01*
X11000244Y-20083177D01*
X11014530Y-20011749D01*
X11028816Y-19968892D01*
X11043101Y-19940320D01*
X11071673Y-19897463D01*
X11085958Y-19883177D01*
X11185958Y-19954606D02*
X11200244Y-19940320D01*
X11228816Y-19926034D01*
X11300244Y-19926034D01*
X11328816Y-19940320D01*
X11343101Y-19954606D01*
X11357387Y-19983177D01*
X11357387Y-20011749D01*
X11343101Y-20054606D01*
X11171673Y-20226034D01*
X11357387Y-20226034D01*
X11714530Y-20226034D02*
X11714530Y-19926034D01*
X11843101Y-20226034D02*
X11843101Y-20068892D01*
X11828816Y-20040320D01*
X11800244Y-20026034D01*
X11757387Y-20026034D01*
X11728816Y-20040320D01*
X11714530Y-20054606D01*
X12028816Y-20226034D02*
X12000244Y-20211749D01*
X11985958Y-20197463D01*
X11971673Y-20168892D01*
X11971673Y-20083177D01*
X11985958Y-20054606D01*
X12000244Y-20040320D01*
X12028816Y-20026034D01*
X12071673Y-20026034D01*
X12100244Y-20040320D01*
X12114530Y-20054606D01*
X12128816Y-20083177D01*
X12128816Y-20168892D01*
X12114530Y-20197463D01*
X12100244Y-20211749D01*
X12071673Y-20226034D01*
X12028816Y-20226034D01*
X12300244Y-20226034D02*
X12271673Y-20211749D01*
X12257387Y-20183177D01*
X12257387Y-19926034D01*
X12528816Y-20211749D02*
X12500244Y-20226034D01*
X12443101Y-20226034D01*
X12414530Y-20211749D01*
X12400244Y-20183177D01*
X12400244Y-20068892D01*
X12414530Y-20040320D01*
X12443101Y-20026034D01*
X12500244Y-20026034D01*
X12528816Y-20040320D01*
X12543101Y-20068892D01*
X12543101Y-20097463D01*
X12400244Y-20126034D01*
X12657387Y-20211749D02*
X12685958Y-20226034D01*
X12743101Y-20226034D01*
X12771673Y-20211749D01*
X12785958Y-20183177D01*
X12785958Y-20168892D01*
X12771673Y-20140320D01*
X12743101Y-20126034D01*
X12700244Y-20126034D01*
X12671673Y-20111749D01*
X12657387Y-20083177D01*
X12657387Y-20068892D01*
X12671673Y-20040320D01*
X12700244Y-20026034D01*
X12743101Y-20026034D01*
X12771673Y-20040320D01*
X12885958Y-20340320D02*
X12900244Y-20326034D01*
X12928816Y-20283177D01*
X12943101Y-20254606D01*
X12957387Y-20211749D01*
X12971673Y-20140320D01*
X12971673Y-20083177D01*
X12957387Y-20011749D01*
X12943101Y-19968892D01*
X12928816Y-19940320D01*
X12900244Y-19897463D01*
X12885958Y-19883177D01*
X6149530Y-20361320D02*
X6399530Y-20611320D01*
X6399530Y-20361320D02*
X6149530Y-20611320D01*
X6399530Y-20486320D02*
G75*
G03X6399530Y-20486320I-125000J0D01*
G01*
X6671673Y-20350606D02*
X6685958Y-20336320D01*
X6714530Y-20322034D01*
X6785958Y-20322034D01*
X6814530Y-20336320D01*
X6828816Y-20350606D01*
X6843101Y-20379177D01*
X6843101Y-20407749D01*
X6828816Y-20450606D01*
X6657387Y-20622034D01*
X6843101Y-20622034D01*
X6971673Y-20593463D02*
X6985958Y-20607749D01*
X6971673Y-20622034D01*
X6957387Y-20607749D01*
X6971673Y-20593463D01*
X6971673Y-20622034D01*
X7257387Y-20322034D02*
X7114530Y-20322034D01*
X7100244Y-20464892D01*
X7114530Y-20450606D01*
X7143101Y-20436320D01*
X7214530Y-20436320D01*
X7243101Y-20450606D01*
X7257387Y-20464892D01*
X7271673Y-20493463D01*
X7271673Y-20564892D01*
X7257387Y-20593463D01*
X7243101Y-20607749D01*
X7214530Y-20622034D01*
X7143101Y-20622034D01*
X7114530Y-20607749D01*
X7100244Y-20593463D01*
X7457387Y-20322034D02*
X7485958Y-20322034D01*
X7514530Y-20336320D01*
X7528816Y-20350606D01*
X7543101Y-20379177D01*
X7557387Y-20436320D01*
X7557387Y-20507749D01*
X7543101Y-20564892D01*
X7528816Y-20593463D01*
X7514530Y-20607749D01*
X7485958Y-20622034D01*
X7457387Y-20622034D01*
X7428816Y-20607749D01*
X7414530Y-20593463D01*
X7400244Y-20564892D01*
X7385958Y-20507749D01*
X7385958Y-20436320D01*
X7400244Y-20379177D01*
X7414530Y-20350606D01*
X7428816Y-20336320D01*
X7457387Y-20322034D01*
X7685958Y-20622034D02*
X7685958Y-20422034D01*
X7685958Y-20450606D02*
X7700244Y-20436320D01*
X7728816Y-20422034D01*
X7771673Y-20422034D01*
X7800244Y-20436320D01*
X7814530Y-20464892D01*
X7814530Y-20622034D01*
X7814530Y-20464892D02*
X7828816Y-20436320D01*
X7857387Y-20422034D01*
X7900244Y-20422034D01*
X7928816Y-20436320D01*
X7943101Y-20464892D01*
X7943101Y-20622034D01*
X8085958Y-20622034D02*
X8085958Y-20422034D01*
X8085958Y-20450606D02*
X8100244Y-20436320D01*
X8128816Y-20422034D01*
X8171673Y-20422034D01*
X8200244Y-20436320D01*
X8214530Y-20464892D01*
X8214530Y-20622034D01*
X8214530Y-20464892D02*
X8228816Y-20436320D01*
X8257387Y-20422034D01*
X8300244Y-20422034D01*
X8328816Y-20436320D01*
X8343101Y-20464892D01*
X8343101Y-20622034D01*
X8928816Y-20307749D02*
X8671673Y-20693463D01*
X9314530Y-20322034D02*
X9343101Y-20322034D01*
X9371673Y-20336320D01*
X9385958Y-20350606D01*
X9400244Y-20379177D01*
X9414530Y-20436320D01*
X9414530Y-20507749D01*
X9400244Y-20564892D01*
X9385958Y-20593463D01*
X9371673Y-20607749D01*
X9343101Y-20622034D01*
X9314530Y-20622034D01*
X9285958Y-20607749D01*
X9271673Y-20593463D01*
X9257387Y-20564892D01*
X9243101Y-20507749D01*
X9243101Y-20436320D01*
X9257387Y-20379177D01*
X9271673Y-20350606D01*
X9285958Y-20336320D01*
X9314530Y-20322034D01*
X9543101Y-20593463D02*
X9557387Y-20607749D01*
X9543101Y-20622034D01*
X9528816Y-20607749D01*
X9543101Y-20593463D01*
X9543101Y-20622034D01*
X9743101Y-20322034D02*
X9771673Y-20322034D01*
X9800244Y-20336320D01*
X9814530Y-20350606D01*
X9828816Y-20379177D01*
X9843101Y-20436320D01*
X9843101Y-20507749D01*
X9828816Y-20564892D01*
X9814530Y-20593463D01*
X9800244Y-20607749D01*
X9771673Y-20622034D01*
X9743101Y-20622034D01*
X9714530Y-20607749D01*
X9700244Y-20593463D01*
X9685958Y-20564892D01*
X9671673Y-20507749D01*
X9671673Y-20436320D01*
X9685958Y-20379177D01*
X9700244Y-20350606D01*
X9714530Y-20336320D01*
X9743101Y-20322034D01*
X9985958Y-20622034D02*
X10043101Y-20622034D01*
X10071673Y-20607749D01*
X10085958Y-20593463D01*
X10114530Y-20550606D01*
X10128816Y-20493463D01*
X10128816Y-20379177D01*
X10114530Y-20350606D01*
X10100244Y-20336320D01*
X10071673Y-20322034D01*
X10014530Y-20322034D01*
X9985958Y-20336320D01*
X9971673Y-20350606D01*
X9957387Y-20379177D01*
X9957387Y-20450606D01*
X9971673Y-20479177D01*
X9985958Y-20493463D01*
X10014530Y-20507749D01*
X10071673Y-20507749D01*
X10100244Y-20493463D01*
X10114530Y-20479177D01*
X10128816Y-20450606D01*
X10300244Y-20450606D02*
X10271673Y-20436320D01*
X10257387Y-20422034D01*
X10243101Y-20393463D01*
X10243101Y-20379177D01*
X10257387Y-20350606D01*
X10271673Y-20336320D01*
X10300244Y-20322034D01*
X10357387Y-20322034D01*
X10385958Y-20336320D01*
X10400244Y-20350606D01*
X10414530Y-20379177D01*
X10414530Y-20393463D01*
X10400244Y-20422034D01*
X10385958Y-20436320D01*
X10357387Y-20450606D01*
X10300244Y-20450606D01*
X10271673Y-20464892D01*
X10257387Y-20479177D01*
X10243101Y-20507749D01*
X10243101Y-20564892D01*
X10257387Y-20593463D01*
X10271673Y-20607749D01*
X10300244Y-20622034D01*
X10357387Y-20622034D01*
X10385958Y-20607749D01*
X10400244Y-20593463D01*
X10414530Y-20564892D01*
X10414530Y-20507749D01*
X10400244Y-20479177D01*
X10385958Y-20464892D01*
X10357387Y-20450606D01*
X10528816Y-20322034D02*
X10528816Y-20379177D01*
X10643101Y-20322034D02*
X10643101Y-20379177D01*
X11085958Y-20736320D02*
X11071673Y-20722034D01*
X11043101Y-20679177D01*
X11028816Y-20650606D01*
X11014530Y-20607749D01*
X11000244Y-20536320D01*
X11000244Y-20479177D01*
X11014530Y-20407749D01*
X11028816Y-20364892D01*
X11043101Y-20336320D01*
X11071673Y-20293463D01*
X11085958Y-20279177D01*
X11185958Y-20350606D02*
X11200244Y-20336320D01*
X11228816Y-20322034D01*
X11300244Y-20322034D01*
X11328816Y-20336320D01*
X11343101Y-20350606D01*
X11357387Y-20379177D01*
X11357387Y-20407749D01*
X11343101Y-20450606D01*
X11171673Y-20622034D01*
X11357387Y-20622034D01*
X11714530Y-20622034D02*
X11714530Y-20322034D01*
X11843101Y-20622034D02*
X11843101Y-20464892D01*
X11828816Y-20436320D01*
X11800244Y-20422034D01*
X11757387Y-20422034D01*
X11728816Y-20436320D01*
X11714530Y-20450606D01*
X12028816Y-20622034D02*
X12000244Y-20607749D01*
X11985958Y-20593463D01*
X11971673Y-20564892D01*
X11971673Y-20479177D01*
X11985958Y-20450606D01*
X12000244Y-20436320D01*
X12028816Y-20422034D01*
X12071673Y-20422034D01*
X12100244Y-20436320D01*
X12114530Y-20450606D01*
X12128816Y-20479177D01*
X12128816Y-20564892D01*
X12114530Y-20593463D01*
X12100244Y-20607749D01*
X12071673Y-20622034D01*
X12028816Y-20622034D01*
X12300244Y-20622034D02*
X12271673Y-20607749D01*
X12257387Y-20579177D01*
X12257387Y-20322034D01*
X12528816Y-20607749D02*
X12500244Y-20622034D01*
X12443101Y-20622034D01*
X12414530Y-20607749D01*
X12400244Y-20579177D01*
X12400244Y-20464892D01*
X12414530Y-20436320D01*
X12443101Y-20422034D01*
X12500244Y-20422034D01*
X12528816Y-20436320D01*
X12543101Y-20464892D01*
X12543101Y-20493463D01*
X12400244Y-20522034D01*
X12657387Y-20607749D02*
X12685958Y-20622034D01*
X12743101Y-20622034D01*
X12771673Y-20607749D01*
X12785958Y-20579177D01*
X12785958Y-20564892D01*
X12771673Y-20536320D01*
X12743101Y-20522034D01*
X12700244Y-20522034D01*
X12671673Y-20507749D01*
X12657387Y-20479177D01*
X12657387Y-20464892D01*
X12671673Y-20436320D01*
X12700244Y-20422034D01*
X12743101Y-20422034D01*
X12771673Y-20436320D01*
X12885958Y-20736320D02*
X12900244Y-20722034D01*
X12928816Y-20679177D01*
X12943101Y-20650606D01*
X12957387Y-20607749D01*
X12971673Y-20536320D01*
X12971673Y-20479177D01*
X12957387Y-20407749D01*
X12943101Y-20364892D01*
X12928816Y-20336320D01*
X12900244Y-20293463D01*
X12885958Y-20279177D01*
X6049530Y-20707320D02*
X6399530Y-21057320D01*
X6399530Y-20707320D02*
X6049530Y-21057320D01*
X6224530Y-20707320D02*
X6224530Y-21057320D01*
X6049530Y-20882320D02*
X6399530Y-20882320D01*
X6657387Y-20718034D02*
X6843101Y-20718034D01*
X6743101Y-20832320D01*
X6785958Y-20832320D01*
X6814530Y-20846606D01*
X6828816Y-20860892D01*
X6843101Y-20889463D01*
X6843101Y-20960892D01*
X6828816Y-20989463D01*
X6814530Y-21003749D01*
X6785958Y-21018034D01*
X6700244Y-21018034D01*
X6671673Y-21003749D01*
X6657387Y-20989463D01*
X6971673Y-20989463D02*
X6985958Y-21003749D01*
X6971673Y-21018034D01*
X6957387Y-21003749D01*
X6971673Y-20989463D01*
X6971673Y-21018034D01*
X7257387Y-20718034D02*
X7114530Y-20718034D01*
X7100244Y-20860892D01*
X7114530Y-20846606D01*
X7143101Y-20832320D01*
X7214530Y-20832320D01*
X7243101Y-20846606D01*
X7257387Y-20860892D01*
X7271673Y-20889463D01*
X7271673Y-20960892D01*
X7257387Y-20989463D01*
X7243101Y-21003749D01*
X7214530Y-21018034D01*
X7143101Y-21018034D01*
X7114530Y-21003749D01*
X7100244Y-20989463D01*
X7457387Y-20718034D02*
X7485958Y-20718034D01*
X7514530Y-20732320D01*
X7528816Y-20746606D01*
X7543101Y-20775177D01*
X7557387Y-20832320D01*
X7557387Y-20903749D01*
X7543101Y-20960892D01*
X7528816Y-20989463D01*
X7514530Y-21003749D01*
X7485958Y-21018034D01*
X7457387Y-21018034D01*
X7428816Y-21003749D01*
X7414530Y-20989463D01*
X7400244Y-20960892D01*
X7385958Y-20903749D01*
X7385958Y-20832320D01*
X7400244Y-20775177D01*
X7414530Y-20746606D01*
X7428816Y-20732320D01*
X7457387Y-20718034D01*
X7685958Y-21018034D02*
X7685958Y-20818034D01*
X7685958Y-20846606D02*
X7700244Y-20832320D01*
X7728816Y-20818034D01*
X7771673Y-20818034D01*
X7800244Y-20832320D01*
X7814530Y-20860892D01*
X7814530Y-21018034D01*
X7814530Y-20860892D02*
X7828816Y-20832320D01*
X7857387Y-20818034D01*
X7900244Y-20818034D01*
X7928816Y-20832320D01*
X7943101Y-20860892D01*
X7943101Y-21018034D01*
X8085958Y-21018034D02*
X8085958Y-20818034D01*
X8085958Y-20846606D02*
X8100244Y-20832320D01*
X8128816Y-20818034D01*
X8171673Y-20818034D01*
X8200244Y-20832320D01*
X8214530Y-20860892D01*
X8214530Y-21018034D01*
X8214530Y-20860892D02*
X8228816Y-20832320D01*
X8257387Y-20818034D01*
X8300244Y-20818034D01*
X8328816Y-20832320D01*
X8343101Y-20860892D01*
X8343101Y-21018034D01*
X8928816Y-20703749D02*
X8671673Y-21089463D01*
X9314530Y-20718034D02*
X9343101Y-20718034D01*
X9371673Y-20732320D01*
X9385958Y-20746606D01*
X9400244Y-20775177D01*
X9414530Y-20832320D01*
X9414530Y-20903749D01*
X9400244Y-20960892D01*
X9385958Y-20989463D01*
X9371673Y-21003749D01*
X9343101Y-21018034D01*
X9314530Y-21018034D01*
X9285958Y-21003749D01*
X9271673Y-20989463D01*
X9257387Y-20960892D01*
X9243101Y-20903749D01*
X9243101Y-20832320D01*
X9257387Y-20775177D01*
X9271673Y-20746606D01*
X9285958Y-20732320D01*
X9314530Y-20718034D01*
X9543101Y-20989463D02*
X9557387Y-21003749D01*
X9543101Y-21018034D01*
X9528816Y-21003749D01*
X9543101Y-20989463D01*
X9543101Y-21018034D01*
X9843101Y-21018034D02*
X9671673Y-21018034D01*
X9757387Y-21018034D02*
X9757387Y-20718034D01*
X9728816Y-20760892D01*
X9700244Y-20789463D01*
X9671673Y-20803749D01*
X9943101Y-20718034D02*
X10128816Y-20718034D01*
X10028816Y-20832320D01*
X10071673Y-20832320D01*
X10100244Y-20846606D01*
X10114530Y-20860892D01*
X10128816Y-20889463D01*
X10128816Y-20960892D01*
X10114530Y-20989463D01*
X10100244Y-21003749D01*
X10071673Y-21018034D01*
X9985958Y-21018034D01*
X9957387Y-21003749D01*
X9943101Y-20989463D01*
X10300244Y-20846606D02*
X10271673Y-20832320D01*
X10257387Y-20818034D01*
X10243101Y-20789463D01*
X10243101Y-20775177D01*
X10257387Y-20746606D01*
X10271673Y-20732320D01*
X10300244Y-20718034D01*
X10357387Y-20718034D01*
X10385958Y-20732320D01*
X10400244Y-20746606D01*
X10414530Y-20775177D01*
X10414530Y-20789463D01*
X10400244Y-20818034D01*
X10385958Y-20832320D01*
X10357387Y-20846606D01*
X10300244Y-20846606D01*
X10271673Y-20860892D01*
X10257387Y-20875177D01*
X10243101Y-20903749D01*
X10243101Y-20960892D01*
X10257387Y-20989463D01*
X10271673Y-21003749D01*
X10300244Y-21018034D01*
X10357387Y-21018034D01*
X10385958Y-21003749D01*
X10400244Y-20989463D01*
X10414530Y-20960892D01*
X10414530Y-20903749D01*
X10400244Y-20875177D01*
X10385958Y-20860892D01*
X10357387Y-20846606D01*
X10528816Y-20718034D02*
X10528816Y-20775177D01*
X10643101Y-20718034D02*
X10643101Y-20775177D01*
X11085958Y-21132320D02*
X11071673Y-21118034D01*
X11043101Y-21075177D01*
X11028816Y-21046606D01*
X11014530Y-21003749D01*
X11000244Y-20932320D01*
X11000244Y-20875177D01*
X11014530Y-20803749D01*
X11028816Y-20760892D01*
X11043101Y-20732320D01*
X11071673Y-20689463D01*
X11085958Y-20675177D01*
X11185958Y-20746606D02*
X11200244Y-20732320D01*
X11228816Y-20718034D01*
X11300244Y-20718034D01*
X11328816Y-20732320D01*
X11343101Y-20746606D01*
X11357387Y-20775177D01*
X11357387Y-20803749D01*
X11343101Y-20846606D01*
X11171673Y-21018034D01*
X11357387Y-21018034D01*
X11714530Y-21018034D02*
X11714530Y-20718034D01*
X11843101Y-21018034D02*
X11843101Y-20860892D01*
X11828816Y-20832320D01*
X11800244Y-20818034D01*
X11757387Y-20818034D01*
X11728816Y-20832320D01*
X11714530Y-20846606D01*
X12028816Y-21018034D02*
X12000244Y-21003749D01*
X11985958Y-20989463D01*
X11971673Y-20960892D01*
X11971673Y-20875177D01*
X11985958Y-20846606D01*
X12000244Y-20832320D01*
X12028816Y-20818034D01*
X12071673Y-20818034D01*
X12100244Y-20832320D01*
X12114530Y-20846606D01*
X12128816Y-20875177D01*
X12128816Y-20960892D01*
X12114530Y-20989463D01*
X12100244Y-21003749D01*
X12071673Y-21018034D01*
X12028816Y-21018034D01*
X12300244Y-21018034D02*
X12271673Y-21003749D01*
X12257387Y-20975177D01*
X12257387Y-20718034D01*
X12528816Y-21003749D02*
X12500244Y-21018034D01*
X12443101Y-21018034D01*
X12414530Y-21003749D01*
X12400244Y-20975177D01*
X12400244Y-20860892D01*
X12414530Y-20832320D01*
X12443101Y-20818034D01*
X12500244Y-20818034D01*
X12528816Y-20832320D01*
X12543101Y-20860892D01*
X12543101Y-20889463D01*
X12400244Y-20918034D01*
X12657387Y-21003749D02*
X12685958Y-21018034D01*
X12743101Y-21018034D01*
X12771673Y-21003749D01*
X12785958Y-20975177D01*
X12785958Y-20960892D01*
X12771673Y-20932320D01*
X12743101Y-20918034D01*
X12700244Y-20918034D01*
X12671673Y-20903749D01*
X12657387Y-20875177D01*
X12657387Y-20860892D01*
X12671673Y-20832320D01*
X12700244Y-20818034D01*
X12743101Y-20818034D01*
X12771673Y-20832320D01*
X12885958Y-21132320D02*
X12900244Y-21118034D01*
X12928816Y-21075177D01*
X12943101Y-21046606D01*
X12957387Y-21003749D01*
X12971673Y-20932320D01*
X12971673Y-20875177D01*
X12957387Y-20803749D01*
X12943101Y-20760892D01*
X12928816Y-20732320D01*
X12900244Y-20689463D01*
X12885958Y-20675177D01*
M02*
