G04 #@! TF.GenerationSoftware,KiCad,Pcbnew,(5.1.5)-3*
G04 #@! TF.CreationDate,2020-10-06T00:11:35-04:00*
G04 #@! TF.ProjectId,c64-cpm-true,6336342d-6370-46d2-9d74-7275652e6b69,B*
G04 #@! TF.SameCoordinates,Original*
G04 #@! TF.FileFunction,Legend,Top*
G04 #@! TF.FilePolarity,Positive*
%FSLAX46Y46*%
G04 Gerber Fmt 4.6, Leading zero omitted, Abs format (unit mm)*
G04 Created by KiCad (PCBNEW (5.1.5)-3) date 2020-10-06 00:11:35*
%MOMM*%
%LPD*%
G04 APERTURE LIST*
%ADD10C,0.300000*%
%ADD11C,0.400000*%
%ADD12C,0.100000*%
%ADD13C,0.120000*%
%ADD14C,0.150000*%
G04 APERTURE END LIST*
D10*
X100870476Y-155783333D02*
X101822857Y-155783333D01*
X100680000Y-156354761D02*
X101346666Y-154354761D01*
X102013333Y-156354761D01*
X102584761Y-156259523D02*
X102870476Y-156354761D01*
X103346666Y-156354761D01*
X103537142Y-156259523D01*
X103632380Y-156164285D01*
X103727619Y-155973809D01*
X103727619Y-155783333D01*
X103632380Y-155592857D01*
X103537142Y-155497619D01*
X103346666Y-155402380D01*
X102965714Y-155307142D01*
X102775238Y-155211904D01*
X102680000Y-155116666D01*
X102584761Y-154926190D01*
X102584761Y-154735714D01*
X102680000Y-154545238D01*
X102775238Y-154450000D01*
X102965714Y-154354761D01*
X103441904Y-154354761D01*
X103727619Y-154450000D01*
X104489523Y-156259523D02*
X104775238Y-156354761D01*
X105251428Y-156354761D01*
X105441904Y-156259523D01*
X105537142Y-156164285D01*
X105632380Y-155973809D01*
X105632380Y-155783333D01*
X105537142Y-155592857D01*
X105441904Y-155497619D01*
X105251428Y-155402380D01*
X104870476Y-155307142D01*
X104680000Y-155211904D01*
X104584761Y-155116666D01*
X104489523Y-154926190D01*
X104489523Y-154735714D01*
X104584761Y-154545238D01*
X104680000Y-154450000D01*
X104870476Y-154354761D01*
X105346666Y-154354761D01*
X105632380Y-154450000D01*
X106870476Y-155402380D02*
X106870476Y-156354761D01*
X106203809Y-154354761D02*
X106870476Y-155402380D01*
X107537142Y-154354761D01*
X108203809Y-156164285D02*
X108299047Y-156259523D01*
X108203809Y-156354761D01*
X108108571Y-156259523D01*
X108203809Y-156164285D01*
X108203809Y-156354761D01*
X109156190Y-156354761D02*
X109156190Y-154354761D01*
X110299047Y-156354761D01*
X110299047Y-154354761D01*
X111632380Y-154354761D02*
X112013333Y-154354761D01*
X112203809Y-154450000D01*
X112394285Y-154640476D01*
X112489523Y-155021428D01*
X112489523Y-155688095D01*
X112394285Y-156069047D01*
X112203809Y-156259523D01*
X112013333Y-156354761D01*
X111632380Y-156354761D01*
X111441904Y-156259523D01*
X111251428Y-156069047D01*
X111156190Y-155688095D01*
X111156190Y-155021428D01*
X111251428Y-154640476D01*
X111441904Y-154450000D01*
X111632380Y-154354761D01*
X101251428Y-157654761D02*
X102489523Y-157654761D01*
X101822857Y-158416666D01*
X102108571Y-158416666D01*
X102299047Y-158511904D01*
X102394285Y-158607142D01*
X102489523Y-158797619D01*
X102489523Y-159273809D01*
X102394285Y-159464285D01*
X102299047Y-159559523D01*
X102108571Y-159654761D01*
X101537142Y-159654761D01*
X101346666Y-159559523D01*
X101251428Y-159464285D01*
X103251428Y-157845238D02*
X103346666Y-157750000D01*
X103537142Y-157654761D01*
X104013333Y-157654761D01*
X104203809Y-157750000D01*
X104299047Y-157845238D01*
X104394285Y-158035714D01*
X104394285Y-158226190D01*
X104299047Y-158511904D01*
X103156190Y-159654761D01*
X104394285Y-159654761D01*
X106108571Y-157654761D02*
X105727619Y-157654761D01*
X105537142Y-157750000D01*
X105441904Y-157845238D01*
X105251428Y-158130952D01*
X105156190Y-158511904D01*
X105156190Y-159273809D01*
X105251428Y-159464285D01*
X105346666Y-159559523D01*
X105537142Y-159654761D01*
X105918095Y-159654761D01*
X106108571Y-159559523D01*
X106203809Y-159464285D01*
X106299047Y-159273809D01*
X106299047Y-158797619D01*
X106203809Y-158607142D01*
X106108571Y-158511904D01*
X105918095Y-158416666D01*
X105537142Y-158416666D01*
X105346666Y-158511904D01*
X105251428Y-158607142D01*
X105156190Y-158797619D01*
X107060952Y-157845238D02*
X107156190Y-157750000D01*
X107346666Y-157654761D01*
X107822857Y-157654761D01*
X108013333Y-157750000D01*
X108108571Y-157845238D01*
X108203809Y-158035714D01*
X108203809Y-158226190D01*
X108108571Y-158511904D01*
X106965714Y-159654761D01*
X108203809Y-159654761D01*
X108870476Y-157654761D02*
X110108571Y-157654761D01*
X109441904Y-158416666D01*
X109727619Y-158416666D01*
X109918095Y-158511904D01*
X110013333Y-158607142D01*
X110108571Y-158797619D01*
X110108571Y-159273809D01*
X110013333Y-159464285D01*
X109918095Y-159559523D01*
X109727619Y-159654761D01*
X109156190Y-159654761D01*
X108965714Y-159559523D01*
X108870476Y-159464285D01*
X110870476Y-157845238D02*
X110965714Y-157750000D01*
X111156190Y-157654761D01*
X111632380Y-157654761D01*
X111822857Y-157750000D01*
X111918095Y-157845238D01*
X112013333Y-158035714D01*
X112013333Y-158226190D01*
X111918095Y-158511904D01*
X110775238Y-159654761D01*
X112013333Y-159654761D01*
X103299047Y-162954761D02*
X102632380Y-162002380D01*
X102156190Y-162954761D02*
X102156190Y-160954761D01*
X102918095Y-160954761D01*
X103108571Y-161050000D01*
X103203809Y-161145238D01*
X103299047Y-161335714D01*
X103299047Y-161621428D01*
X103203809Y-161811904D01*
X103108571Y-161907142D01*
X102918095Y-162002380D01*
X102156190Y-162002380D01*
X104156190Y-161907142D02*
X104822857Y-161907142D01*
X105108571Y-162954761D02*
X104156190Y-162954761D01*
X104156190Y-160954761D01*
X105108571Y-160954761D01*
X105680000Y-160954761D02*
X106346666Y-162954761D01*
X107013333Y-160954761D01*
X107680000Y-162764285D02*
X107775238Y-162859523D01*
X107680000Y-162954761D01*
X107584761Y-162859523D01*
X107680000Y-162764285D01*
X107680000Y-162954761D01*
X110822857Y-161907142D02*
X111108571Y-162002380D01*
X111203809Y-162097619D01*
X111299047Y-162288095D01*
X111299047Y-162573809D01*
X111203809Y-162764285D01*
X111108571Y-162859523D01*
X110918095Y-162954761D01*
X110156190Y-162954761D01*
X110156190Y-160954761D01*
X110822857Y-160954761D01*
X111013333Y-161050000D01*
X111108571Y-161145238D01*
X111203809Y-161335714D01*
X111203809Y-161526190D01*
X111108571Y-161716666D01*
X111013333Y-161811904D01*
X110822857Y-161907142D01*
X110156190Y-161907142D01*
D11*
X73964000Y-167961357D02*
X73821142Y-168080404D01*
X73392571Y-168199452D01*
X73106857Y-168199452D01*
X72678285Y-168080404D01*
X72392571Y-167842309D01*
X72249714Y-167604214D01*
X72106857Y-167128023D01*
X72106857Y-166770880D01*
X72249714Y-166294690D01*
X72392571Y-166056595D01*
X72678285Y-165818500D01*
X73106857Y-165699452D01*
X73392571Y-165699452D01*
X73821142Y-165818500D01*
X73964000Y-165937547D01*
X75821142Y-165699452D02*
X76392571Y-165699452D01*
X76678285Y-165818500D01*
X76964000Y-166056595D01*
X77106857Y-166532785D01*
X77106857Y-167366119D01*
X76964000Y-167842309D01*
X76678285Y-168080404D01*
X76392571Y-168199452D01*
X75821142Y-168199452D01*
X75535428Y-168080404D01*
X75249714Y-167842309D01*
X75106857Y-167366119D01*
X75106857Y-166532785D01*
X75249714Y-166056595D01*
X75535428Y-165818500D01*
X75821142Y-165699452D01*
X78392571Y-168199452D02*
X78392571Y-165699452D01*
X79392571Y-167485166D01*
X80392571Y-165699452D01*
X80392571Y-168199452D01*
X81821142Y-168199452D02*
X81821142Y-165699452D01*
X82821142Y-167485166D01*
X83821142Y-165699452D01*
X83821142Y-168199452D01*
X85821142Y-165699452D02*
X86392571Y-165699452D01*
X86678285Y-165818500D01*
X86964000Y-166056595D01*
X87106857Y-166532785D01*
X87106857Y-167366119D01*
X86964000Y-167842309D01*
X86678285Y-168080404D01*
X86392571Y-168199452D01*
X85821142Y-168199452D01*
X85535428Y-168080404D01*
X85249714Y-167842309D01*
X85106857Y-167366119D01*
X85106857Y-166532785D01*
X85249714Y-166056595D01*
X85535428Y-165818500D01*
X85821142Y-165699452D01*
X88392571Y-168199452D02*
X88392571Y-165699452D01*
X89106857Y-165699452D01*
X89535428Y-165818500D01*
X89821142Y-166056595D01*
X89964000Y-166294690D01*
X90106857Y-166770880D01*
X90106857Y-167128023D01*
X89964000Y-167604214D01*
X89821142Y-167842309D01*
X89535428Y-168080404D01*
X89106857Y-168199452D01*
X88392571Y-168199452D01*
X91964000Y-165699452D02*
X92535428Y-165699452D01*
X92821142Y-165818500D01*
X93106857Y-166056595D01*
X93249714Y-166532785D01*
X93249714Y-167366119D01*
X93106857Y-167842309D01*
X92821142Y-168080404D01*
X92535428Y-168199452D01*
X91964000Y-168199452D01*
X91678285Y-168080404D01*
X91392571Y-167842309D01*
X91249714Y-167366119D01*
X91249714Y-166532785D01*
X91392571Y-166056595D01*
X91678285Y-165818500D01*
X91964000Y-165699452D01*
X96249714Y-168199452D02*
X95249714Y-167008976D01*
X94535428Y-168199452D02*
X94535428Y-165699452D01*
X95678285Y-165699452D01*
X95964000Y-165818500D01*
X96106857Y-165937547D01*
X96249714Y-166175642D01*
X96249714Y-166532785D01*
X96106857Y-166770880D01*
X95964000Y-166889928D01*
X95678285Y-167008976D01*
X94535428Y-167008976D01*
X97535428Y-166889928D02*
X98535428Y-166889928D01*
X98964000Y-168199452D02*
X97535428Y-168199452D01*
X97535428Y-165699452D01*
X98964000Y-165699452D01*
X104249714Y-167961357D02*
X104106857Y-168080404D01*
X103678285Y-168199452D01*
X103392571Y-168199452D01*
X102964000Y-168080404D01*
X102678285Y-167842309D01*
X102535428Y-167604214D01*
X102392571Y-167128023D01*
X102392571Y-166770880D01*
X102535428Y-166294690D01*
X102678285Y-166056595D01*
X102964000Y-165818500D01*
X103392571Y-165699452D01*
X103678285Y-165699452D01*
X104106857Y-165818500D01*
X104249714Y-165937547D01*
X105535428Y-168199452D02*
X105535428Y-165699452D01*
X106678285Y-165699452D01*
X106964000Y-165818500D01*
X107106857Y-165937547D01*
X107249714Y-166175642D01*
X107249714Y-166532785D01*
X107106857Y-166770880D01*
X106964000Y-166889928D01*
X106678285Y-167008976D01*
X105535428Y-167008976D01*
X110678285Y-165580404D02*
X108106857Y-168794690D01*
X111678285Y-168199452D02*
X111678285Y-165699452D01*
X112678285Y-167485166D01*
X113678285Y-165699452D01*
X113678285Y-168199452D01*
D12*
G36*
X63881000Y-163449000D02*
G01*
X63881000Y-165227000D01*
X122047000Y-165227000D01*
X122047000Y-163449000D01*
X63881000Y-163449000D01*
G37*
X63881000Y-163449000D02*
X63881000Y-165227000D01*
X122047000Y-165227000D01*
X122047000Y-163449000D01*
X63881000Y-163449000D01*
D13*
X151020000Y-67370000D02*
X152670000Y-67370000D01*
X151020000Y-49470000D02*
X151020000Y-67370000D01*
X156320000Y-49470000D02*
X151020000Y-49470000D01*
X156320000Y-67370000D02*
X156320000Y-49470000D01*
X154670000Y-67370000D02*
X156320000Y-67370000D01*
X152670000Y-67370000D02*
G75*
G02X154670000Y-67370000I1000000J0D01*
G01*
X152670000Y-95310000D02*
G75*
G02X154670000Y-95310000I1000000J0D01*
G01*
X154670000Y-95310000D02*
X156320000Y-95310000D01*
X156320000Y-95310000D02*
X156320000Y-77410000D01*
X156320000Y-77410000D02*
X151020000Y-77410000D01*
X151020000Y-77410000D02*
X151020000Y-95310000D01*
X151020000Y-95310000D02*
X152670000Y-95310000D01*
X152670000Y-128330000D02*
G75*
G02X154670000Y-128330000I1000000J0D01*
G01*
X154670000Y-128330000D02*
X156320000Y-128330000D01*
X156320000Y-128330000D02*
X156320000Y-107890000D01*
X156320000Y-107890000D02*
X151020000Y-107890000D01*
X151020000Y-107890000D02*
X151020000Y-128330000D01*
X151020000Y-128330000D02*
X152670000Y-128330000D01*
X122190000Y-67370000D02*
G75*
G02X124190000Y-67370000I1000000J0D01*
G01*
X124190000Y-67370000D02*
X125840000Y-67370000D01*
X125840000Y-67370000D02*
X125840000Y-49470000D01*
X125840000Y-49470000D02*
X120540000Y-49470000D01*
X120540000Y-49470000D02*
X120540000Y-67370000D01*
X120540000Y-67370000D02*
X122190000Y-67370000D01*
X122190000Y-95310000D02*
G75*
G02X124190000Y-95310000I1000000J0D01*
G01*
X124190000Y-95310000D02*
X125840000Y-95310000D01*
X125840000Y-95310000D02*
X125840000Y-77410000D01*
X125840000Y-77410000D02*
X120540000Y-77410000D01*
X120540000Y-77410000D02*
X120540000Y-95310000D01*
X120540000Y-95310000D02*
X122190000Y-95310000D01*
X122190000Y-128330000D02*
G75*
G02X124190000Y-128330000I1000000J0D01*
G01*
X124190000Y-128330000D02*
X125840000Y-128330000D01*
X125840000Y-128330000D02*
X125840000Y-102810000D01*
X125840000Y-102810000D02*
X120540000Y-102810000D01*
X120540000Y-102810000D02*
X120540000Y-128330000D01*
X120540000Y-128330000D02*
X122190000Y-128330000D01*
X102760000Y-67370000D02*
X104410000Y-67370000D01*
X102760000Y-49470000D02*
X102760000Y-67370000D01*
X108060000Y-49470000D02*
X102760000Y-49470000D01*
X108060000Y-67370000D02*
X108060000Y-49470000D01*
X106410000Y-67370000D02*
X108060000Y-67370000D01*
X104410000Y-67370000D02*
G75*
G02X106410000Y-67370000I1000000J0D01*
G01*
X102760000Y-95310000D02*
X104410000Y-95310000D01*
X102760000Y-74870000D02*
X102760000Y-95310000D01*
X108060000Y-74870000D02*
X102760000Y-74870000D01*
X108060000Y-95310000D02*
X108060000Y-74870000D01*
X106410000Y-95310000D02*
X108060000Y-95310000D01*
X104410000Y-95310000D02*
G75*
G02X106410000Y-95310000I1000000J0D01*
G01*
X104410000Y-128330000D02*
G75*
G02X106410000Y-128330000I1000000J0D01*
G01*
X106410000Y-128330000D02*
X108060000Y-128330000D01*
X108060000Y-128330000D02*
X108060000Y-102810000D01*
X108060000Y-102810000D02*
X102760000Y-102810000D01*
X102760000Y-102810000D02*
X102760000Y-128330000D01*
X102760000Y-128330000D02*
X104410000Y-128330000D01*
X82820000Y-100390000D02*
G75*
G02X84820000Y-100390000I1000000J0D01*
G01*
X84820000Y-100390000D02*
X90280000Y-100390000D01*
X90280000Y-100390000D02*
X90280000Y-49470000D01*
X90280000Y-49470000D02*
X77360000Y-49470000D01*
X77360000Y-49470000D02*
X77360000Y-100390000D01*
X77360000Y-100390000D02*
X82820000Y-100390000D01*
X84980000Y-128330000D02*
X86630000Y-128330000D01*
X84980000Y-102810000D02*
X84980000Y-128330000D01*
X90280000Y-102810000D02*
X84980000Y-102810000D01*
X90280000Y-128330000D02*
X90280000Y-102810000D01*
X88630000Y-128330000D02*
X90280000Y-128330000D01*
X86630000Y-128330000D02*
G75*
G02X88630000Y-128330000I1000000J0D01*
G01*
X114170000Y-125900000D02*
X116970000Y-125900000D01*
X116970000Y-125900000D02*
X116970000Y-102700000D01*
X116970000Y-102700000D02*
X114170000Y-102700000D01*
X114170000Y-102700000D02*
X114170000Y-125900000D01*
X114170000Y-123190000D02*
X116970000Y-123190000D01*
X96390000Y-125900000D02*
X99190000Y-125900000D01*
X99190000Y-125900000D02*
X99190000Y-102700000D01*
X99190000Y-102700000D02*
X96390000Y-102700000D01*
X96390000Y-102700000D02*
X96390000Y-125900000D01*
X96390000Y-123190000D02*
X99190000Y-123190000D01*
X78610000Y-123190000D02*
X81410000Y-123190000D01*
X78610000Y-102700000D02*
X78610000Y-125900000D01*
X81410000Y-102700000D02*
X78610000Y-102700000D01*
X81410000Y-125900000D02*
X81410000Y-102700000D01*
X78610000Y-125900000D02*
X81410000Y-125900000D01*
X161290000Y-82220000D02*
X161290000Y-83170000D01*
X161290000Y-93040000D02*
X161290000Y-92090000D01*
X160370000Y-83170000D02*
X160370000Y-92090000D01*
X162210000Y-83170000D02*
X160370000Y-83170000D01*
X162210000Y-92090000D02*
X162210000Y-83170000D01*
X160370000Y-92090000D02*
X162210000Y-92090000D01*
X162910000Y-125110000D02*
X164750000Y-125110000D01*
X164750000Y-125110000D02*
X164750000Y-116190000D01*
X164750000Y-116190000D02*
X162910000Y-116190000D01*
X162910000Y-116190000D02*
X162910000Y-125110000D01*
X163830000Y-126060000D02*
X163830000Y-125110000D01*
X163830000Y-115240000D02*
X163830000Y-116190000D01*
X160370000Y-125110000D02*
X162210000Y-125110000D01*
X162210000Y-125110000D02*
X162210000Y-116190000D01*
X162210000Y-116190000D02*
X160370000Y-116190000D01*
X160370000Y-116190000D02*
X160370000Y-125110000D01*
X161290000Y-126060000D02*
X161290000Y-125110000D01*
X161290000Y-115240000D02*
X161290000Y-116190000D01*
X146050000Y-112700000D02*
X146050000Y-113650000D01*
X146050000Y-123520000D02*
X146050000Y-122570000D01*
X145130000Y-113650000D02*
X145130000Y-122570000D01*
X146970000Y-113650000D02*
X145130000Y-113650000D01*
X146970000Y-122570000D02*
X146970000Y-113650000D01*
X145130000Y-122570000D02*
X146970000Y-122570000D01*
X98120000Y-142240000D02*
X97170000Y-142240000D01*
X87300000Y-142240000D02*
X88250000Y-142240000D01*
X97170000Y-141320000D02*
X88250000Y-141320000D01*
X97170000Y-143160000D02*
X97170000Y-141320000D01*
X88250000Y-143160000D02*
X97170000Y-143160000D01*
X88250000Y-141320000D02*
X88250000Y-143160000D01*
X72390000Y-76530000D02*
X72390000Y-75580000D01*
X72390000Y-65710000D02*
X72390000Y-66660000D01*
X73310000Y-75580000D02*
X73310000Y-66660000D01*
X71470000Y-75580000D02*
X73310000Y-75580000D01*
X71470000Y-66660000D02*
X71470000Y-75580000D01*
X73310000Y-66660000D02*
X71470000Y-66660000D01*
X146970000Y-55230000D02*
X145130000Y-55230000D01*
X145130000Y-55230000D02*
X145130000Y-64150000D01*
X145130000Y-64150000D02*
X146970000Y-64150000D01*
X146970000Y-64150000D02*
X146970000Y-55230000D01*
X146050000Y-54280000D02*
X146050000Y-55230000D01*
X146050000Y-65100000D02*
X146050000Y-64150000D01*
X143510000Y-54280000D02*
X143510000Y-55230000D01*
X143510000Y-65100000D02*
X143510000Y-64150000D01*
X142590000Y-55230000D02*
X142590000Y-64150000D01*
X144430000Y-55230000D02*
X142590000Y-55230000D01*
X144430000Y-64150000D02*
X144430000Y-55230000D01*
X142590000Y-64150000D02*
X144430000Y-64150000D01*
X137510000Y-64150000D02*
X139350000Y-64150000D01*
X139350000Y-64150000D02*
X139350000Y-55230000D01*
X139350000Y-55230000D02*
X137510000Y-55230000D01*
X137510000Y-55230000D02*
X137510000Y-64150000D01*
X138430000Y-65100000D02*
X138430000Y-64150000D01*
X138430000Y-54280000D02*
X138430000Y-55230000D01*
X134970000Y-64150000D02*
X136810000Y-64150000D01*
X136810000Y-64150000D02*
X136810000Y-55230000D01*
X136810000Y-55230000D02*
X134970000Y-55230000D01*
X134970000Y-55230000D02*
X134970000Y-64150000D01*
X135890000Y-65100000D02*
X135890000Y-64150000D01*
X135890000Y-54280000D02*
X135890000Y-55230000D01*
X99060000Y-51740000D02*
X99060000Y-52690000D01*
X99060000Y-62560000D02*
X99060000Y-61610000D01*
X98140000Y-52690000D02*
X98140000Y-61610000D01*
X99980000Y-52690000D02*
X98140000Y-52690000D01*
X99980000Y-61610000D02*
X99980000Y-52690000D01*
X98140000Y-61610000D02*
X99980000Y-61610000D01*
X95600000Y-61610000D02*
X97440000Y-61610000D01*
X97440000Y-61610000D02*
X97440000Y-52690000D01*
X97440000Y-52690000D02*
X95600000Y-52690000D01*
X95600000Y-52690000D02*
X95600000Y-61610000D01*
X96520000Y-62560000D02*
X96520000Y-61610000D01*
X96520000Y-51740000D02*
X96520000Y-52690000D01*
X93980000Y-51740000D02*
X93980000Y-52690000D01*
X93980000Y-62560000D02*
X93980000Y-61610000D01*
X93060000Y-52690000D02*
X93060000Y-61610000D01*
X94900000Y-52690000D02*
X93060000Y-52690000D01*
X94900000Y-61610000D02*
X94900000Y-52690000D01*
X93060000Y-61610000D02*
X94900000Y-61610000D01*
X88250000Y-145130000D02*
X88250000Y-146970000D01*
X88250000Y-146970000D02*
X97170000Y-146970000D01*
X97170000Y-146970000D02*
X97170000Y-145130000D01*
X97170000Y-145130000D02*
X88250000Y-145130000D01*
X87300000Y-146050000D02*
X88250000Y-146050000D01*
X98120000Y-146050000D02*
X97170000Y-146050000D01*
X69790000Y-127860000D02*
X69790000Y-126060000D01*
X68890000Y-126960000D02*
X70690000Y-126960000D01*
X68270000Y-125760000D02*
X76510000Y-125760000D01*
X68270000Y-107520000D02*
X76510000Y-107520000D01*
X68270000Y-125760000D02*
X68270000Y-123960000D01*
X68270000Y-123960000D02*
X69170000Y-123060000D01*
X69170000Y-123060000D02*
X68270000Y-122160000D01*
X68270000Y-122160000D02*
X68270000Y-107520000D01*
X76510000Y-125760000D02*
X76510000Y-123960000D01*
X76510000Y-123960000D02*
X75610000Y-123060000D01*
X75610000Y-123060000D02*
X76510000Y-122160000D01*
X76510000Y-122160000D02*
X76510000Y-107520000D01*
X72390000Y-127700000D02*
X72390000Y-125760000D01*
X72390000Y-105580000D02*
X72390000Y-107520000D01*
X160370000Y-76850000D02*
X162210000Y-76850000D01*
X162210000Y-76850000D02*
X162210000Y-67930000D01*
X162210000Y-67930000D02*
X160370000Y-67930000D01*
X160370000Y-67930000D02*
X160370000Y-76850000D01*
X161290000Y-77800000D02*
X161290000Y-76850000D01*
X161290000Y-66980000D02*
X161290000Y-67930000D01*
X163830000Y-100000000D02*
X163830000Y-100950000D01*
X163830000Y-110820000D02*
X163830000Y-109870000D01*
X162910000Y-100950000D02*
X162910000Y-109870000D01*
X164750000Y-100950000D02*
X162910000Y-100950000D01*
X164750000Y-109870000D02*
X164750000Y-100950000D01*
X162910000Y-109870000D02*
X164750000Y-109870000D01*
X160370000Y-109870000D02*
X162210000Y-109870000D01*
X162210000Y-109870000D02*
X162210000Y-100950000D01*
X162210000Y-100950000D02*
X160370000Y-100950000D01*
X160370000Y-100950000D02*
X160370000Y-109870000D01*
X161290000Y-110820000D02*
X161290000Y-109870000D01*
X161290000Y-100000000D02*
X161290000Y-100950000D01*
X157810000Y-102870000D02*
X156860000Y-102870000D01*
X146990000Y-102870000D02*
X147940000Y-102870000D01*
X156860000Y-101950000D02*
X147940000Y-101950000D01*
X156860000Y-103790000D02*
X156860000Y-101950000D01*
X147940000Y-103790000D02*
X156860000Y-103790000D01*
X147940000Y-101950000D02*
X147940000Y-103790000D01*
X140050000Y-64150000D02*
X141890000Y-64150000D01*
X141890000Y-64150000D02*
X141890000Y-55230000D01*
X141890000Y-55230000D02*
X140050000Y-55230000D01*
X140050000Y-55230000D02*
X140050000Y-64150000D01*
X140970000Y-65100000D02*
X140970000Y-64150000D01*
X140970000Y-54280000D02*
X140970000Y-55230000D01*
X87300000Y-138430000D02*
X88250000Y-138430000D01*
X98120000Y-138430000D02*
X97170000Y-138430000D01*
X88250000Y-139350000D02*
X97170000Y-139350000D01*
X88250000Y-137510000D02*
X88250000Y-139350000D01*
X97170000Y-137510000D02*
X88250000Y-137510000D01*
X97170000Y-139350000D02*
X97170000Y-137510000D01*
X68930000Y-75580000D02*
X70770000Y-75580000D01*
X70770000Y-75580000D02*
X70770000Y-66660000D01*
X70770000Y-66660000D02*
X68930000Y-66660000D01*
X68930000Y-66660000D02*
X68930000Y-75580000D01*
X69850000Y-76530000D02*
X69850000Y-75580000D01*
X69850000Y-65710000D02*
X69850000Y-66660000D01*
X150090000Y-70050000D02*
X154630000Y-70050000D01*
X150090000Y-72190000D02*
X154630000Y-72190000D01*
X150090000Y-70050000D02*
X150090000Y-70065000D01*
X150090000Y-72175000D02*
X150090000Y-72190000D01*
X154630000Y-70050000D02*
X154630000Y-70065000D01*
X154630000Y-72175000D02*
X154630000Y-72190000D01*
X154630000Y-100115000D02*
X154630000Y-100130000D01*
X154630000Y-97990000D02*
X154630000Y-98005000D01*
X150090000Y-100115000D02*
X150090000Y-100130000D01*
X150090000Y-97990000D02*
X150090000Y-98005000D01*
X150090000Y-100130000D02*
X154630000Y-100130000D01*
X150090000Y-97990000D02*
X154630000Y-97990000D01*
X134850000Y-131025000D02*
X134850000Y-131010000D01*
X134850000Y-133150000D02*
X134850000Y-133135000D01*
X139390000Y-131025000D02*
X139390000Y-131010000D01*
X139390000Y-133150000D02*
X139390000Y-133135000D01*
X139390000Y-131010000D02*
X134850000Y-131010000D01*
X139390000Y-133150000D02*
X134850000Y-133150000D01*
X119610000Y-70050000D02*
X124150000Y-70050000D01*
X119610000Y-72190000D02*
X124150000Y-72190000D01*
X119610000Y-70050000D02*
X119610000Y-70065000D01*
X119610000Y-72175000D02*
X119610000Y-72190000D01*
X124150000Y-70050000D02*
X124150000Y-70065000D01*
X124150000Y-72175000D02*
X124150000Y-72190000D01*
X124150000Y-100115000D02*
X124150000Y-100130000D01*
X124150000Y-97990000D02*
X124150000Y-98005000D01*
X119610000Y-100115000D02*
X119610000Y-100130000D01*
X119610000Y-97990000D02*
X119610000Y-98005000D01*
X119610000Y-100130000D02*
X124150000Y-100130000D01*
X119610000Y-97990000D02*
X124150000Y-97990000D01*
X124230000Y-133150000D02*
X119690000Y-133150000D01*
X124230000Y-131010000D02*
X119690000Y-131010000D01*
X124230000Y-133150000D02*
X124230000Y-133135000D01*
X124230000Y-131025000D02*
X124230000Y-131010000D01*
X119690000Y-133150000D02*
X119690000Y-133135000D01*
X119690000Y-131025000D02*
X119690000Y-131010000D01*
X101830000Y-70050000D02*
X106370000Y-70050000D01*
X101830000Y-72190000D02*
X106370000Y-72190000D01*
X101830000Y-70050000D02*
X101830000Y-70065000D01*
X101830000Y-72175000D02*
X101830000Y-72190000D01*
X106370000Y-70050000D02*
X106370000Y-70065000D01*
X106370000Y-72175000D02*
X106370000Y-72190000D01*
X101910000Y-98005000D02*
X101910000Y-97990000D01*
X101910000Y-100130000D02*
X101910000Y-100115000D01*
X106450000Y-98005000D02*
X106450000Y-97990000D01*
X106450000Y-100130000D02*
X106450000Y-100115000D01*
X106450000Y-97990000D02*
X101910000Y-97990000D01*
X106450000Y-100130000D02*
X101910000Y-100130000D01*
X101910000Y-131025000D02*
X101910000Y-131010000D01*
X101910000Y-133150000D02*
X101910000Y-133135000D01*
X106450000Y-131025000D02*
X106450000Y-131010000D01*
X106450000Y-133150000D02*
X106450000Y-133135000D01*
X106450000Y-131010000D02*
X101910000Y-131010000D01*
X106450000Y-133150000D02*
X101910000Y-133150000D01*
X95450000Y-78430000D02*
X95450000Y-73890000D01*
X97590000Y-78430000D02*
X97590000Y-73890000D01*
X95450000Y-78430000D02*
X95465000Y-78430000D01*
X97575000Y-78430000D02*
X97590000Y-78430000D01*
X95450000Y-73890000D02*
X95465000Y-73890000D01*
X97575000Y-73890000D02*
X97590000Y-73890000D01*
X88590000Y-133150000D02*
X84050000Y-133150000D01*
X88590000Y-131010000D02*
X84050000Y-131010000D01*
X88590000Y-133150000D02*
X88590000Y-133135000D01*
X88590000Y-131025000D02*
X88590000Y-131010000D01*
X84050000Y-133150000D02*
X84050000Y-133135000D01*
X84050000Y-131025000D02*
X84050000Y-131010000D01*
X150090000Y-131010000D02*
X154630000Y-131010000D01*
X150090000Y-133150000D02*
X154630000Y-133150000D01*
X150090000Y-131010000D02*
X150090000Y-131025000D01*
X150090000Y-133135000D02*
X150090000Y-133150000D01*
X154630000Y-131010000D02*
X154630000Y-131025000D01*
X154630000Y-133135000D02*
X154630000Y-133150000D01*
X137430000Y-128330000D02*
G75*
G02X139430000Y-128330000I1000000J0D01*
G01*
X139430000Y-128330000D02*
X141080000Y-128330000D01*
X141080000Y-128330000D02*
X141080000Y-102810000D01*
X141080000Y-102810000D02*
X135780000Y-102810000D01*
X135780000Y-102810000D02*
X135780000Y-128330000D01*
X135780000Y-128330000D02*
X137430000Y-128330000D01*
X141570000Y-71550000D02*
X145420000Y-71550000D01*
X141187369Y-70972045D02*
G75*
G03X141570000Y-71550000I2322631J1122045D01*
G01*
X141153600Y-68751193D02*
G75*
G02X143510000Y-67250000I2356400J-1098807D01*
G01*
X145866400Y-68751193D02*
G75*
G03X143510000Y-67250000I-2356400J-1098807D01*
G01*
X145812383Y-70962264D02*
G75*
G02X145420000Y-71550000I-2302383J1112264D01*
G01*
D14*
X92154476Y-178260380D02*
X92821142Y-179260380D01*
X92821142Y-178260380D02*
X92154476Y-179260380D01*
X93725904Y-179260380D02*
X93154476Y-179260380D01*
X93440190Y-179260380D02*
X93440190Y-178260380D01*
X93344952Y-178403238D01*
X93249714Y-178498476D01*
X93154476Y-178546095D01*
X152908095Y-67822380D02*
X152908095Y-68631904D01*
X152955714Y-68727142D01*
X153003333Y-68774761D01*
X153098571Y-68822380D01*
X153289047Y-68822380D01*
X153384285Y-68774761D01*
X153431904Y-68727142D01*
X153479523Y-68631904D01*
X153479523Y-67822380D01*
X154479523Y-68822380D02*
X153908095Y-68822380D01*
X154193809Y-68822380D02*
X154193809Y-67822380D01*
X154098571Y-67965238D01*
X154003333Y-68060476D01*
X153908095Y-68108095D01*
X152908095Y-95762380D02*
X152908095Y-96571904D01*
X152955714Y-96667142D01*
X153003333Y-96714761D01*
X153098571Y-96762380D01*
X153289047Y-96762380D01*
X153384285Y-96714761D01*
X153431904Y-96667142D01*
X153479523Y-96571904D01*
X153479523Y-95762380D01*
X153908095Y-95857619D02*
X153955714Y-95810000D01*
X154050952Y-95762380D01*
X154289047Y-95762380D01*
X154384285Y-95810000D01*
X154431904Y-95857619D01*
X154479523Y-95952857D01*
X154479523Y-96048095D01*
X154431904Y-96190952D01*
X153860476Y-96762380D01*
X154479523Y-96762380D01*
X152908095Y-128782380D02*
X152908095Y-129591904D01*
X152955714Y-129687142D01*
X153003333Y-129734761D01*
X153098571Y-129782380D01*
X153289047Y-129782380D01*
X153384285Y-129734761D01*
X153431904Y-129687142D01*
X153479523Y-129591904D01*
X153479523Y-128782380D01*
X153860476Y-128782380D02*
X154479523Y-128782380D01*
X154146190Y-129163333D01*
X154289047Y-129163333D01*
X154384285Y-129210952D01*
X154431904Y-129258571D01*
X154479523Y-129353809D01*
X154479523Y-129591904D01*
X154431904Y-129687142D01*
X154384285Y-129734761D01*
X154289047Y-129782380D01*
X154003333Y-129782380D01*
X153908095Y-129734761D01*
X153860476Y-129687142D01*
X122428095Y-67822380D02*
X122428095Y-68631904D01*
X122475714Y-68727142D01*
X122523333Y-68774761D01*
X122618571Y-68822380D01*
X122809047Y-68822380D01*
X122904285Y-68774761D01*
X122951904Y-68727142D01*
X122999523Y-68631904D01*
X122999523Y-67822380D01*
X123951904Y-67822380D02*
X123475714Y-67822380D01*
X123428095Y-68298571D01*
X123475714Y-68250952D01*
X123570952Y-68203333D01*
X123809047Y-68203333D01*
X123904285Y-68250952D01*
X123951904Y-68298571D01*
X123999523Y-68393809D01*
X123999523Y-68631904D01*
X123951904Y-68727142D01*
X123904285Y-68774761D01*
X123809047Y-68822380D01*
X123570952Y-68822380D01*
X123475714Y-68774761D01*
X123428095Y-68727142D01*
X122428095Y-95762380D02*
X122428095Y-96571904D01*
X122475714Y-96667142D01*
X122523333Y-96714761D01*
X122618571Y-96762380D01*
X122809047Y-96762380D01*
X122904285Y-96714761D01*
X122951904Y-96667142D01*
X122999523Y-96571904D01*
X122999523Y-95762380D01*
X123904285Y-95762380D02*
X123713809Y-95762380D01*
X123618571Y-95810000D01*
X123570952Y-95857619D01*
X123475714Y-96000476D01*
X123428095Y-96190952D01*
X123428095Y-96571904D01*
X123475714Y-96667142D01*
X123523333Y-96714761D01*
X123618571Y-96762380D01*
X123809047Y-96762380D01*
X123904285Y-96714761D01*
X123951904Y-96667142D01*
X123999523Y-96571904D01*
X123999523Y-96333809D01*
X123951904Y-96238571D01*
X123904285Y-96190952D01*
X123809047Y-96143333D01*
X123618571Y-96143333D01*
X123523333Y-96190952D01*
X123475714Y-96238571D01*
X123428095Y-96333809D01*
X122428095Y-128782380D02*
X122428095Y-129591904D01*
X122475714Y-129687142D01*
X122523333Y-129734761D01*
X122618571Y-129782380D01*
X122809047Y-129782380D01*
X122904285Y-129734761D01*
X122951904Y-129687142D01*
X122999523Y-129591904D01*
X122999523Y-128782380D01*
X123380476Y-128782380D02*
X124047142Y-128782380D01*
X123618571Y-129782380D01*
X104648095Y-67822380D02*
X104648095Y-68631904D01*
X104695714Y-68727142D01*
X104743333Y-68774761D01*
X104838571Y-68822380D01*
X105029047Y-68822380D01*
X105124285Y-68774761D01*
X105171904Y-68727142D01*
X105219523Y-68631904D01*
X105219523Y-67822380D01*
X105743333Y-68822380D02*
X105933809Y-68822380D01*
X106029047Y-68774761D01*
X106076666Y-68727142D01*
X106171904Y-68584285D01*
X106219523Y-68393809D01*
X106219523Y-68012857D01*
X106171904Y-67917619D01*
X106124285Y-67870000D01*
X106029047Y-67822380D01*
X105838571Y-67822380D01*
X105743333Y-67870000D01*
X105695714Y-67917619D01*
X105648095Y-68012857D01*
X105648095Y-68250952D01*
X105695714Y-68346190D01*
X105743333Y-68393809D01*
X105838571Y-68441428D01*
X106029047Y-68441428D01*
X106124285Y-68393809D01*
X106171904Y-68346190D01*
X106219523Y-68250952D01*
X104171904Y-95762380D02*
X104171904Y-96571904D01*
X104219523Y-96667142D01*
X104267142Y-96714761D01*
X104362380Y-96762380D01*
X104552857Y-96762380D01*
X104648095Y-96714761D01*
X104695714Y-96667142D01*
X104743333Y-96571904D01*
X104743333Y-95762380D01*
X105743333Y-96762380D02*
X105171904Y-96762380D01*
X105457619Y-96762380D02*
X105457619Y-95762380D01*
X105362380Y-95905238D01*
X105267142Y-96000476D01*
X105171904Y-96048095D01*
X106362380Y-95762380D02*
X106457619Y-95762380D01*
X106552857Y-95810000D01*
X106600476Y-95857619D01*
X106648095Y-95952857D01*
X106695714Y-96143333D01*
X106695714Y-96381428D01*
X106648095Y-96571904D01*
X106600476Y-96667142D01*
X106552857Y-96714761D01*
X106457619Y-96762380D01*
X106362380Y-96762380D01*
X106267142Y-96714761D01*
X106219523Y-96667142D01*
X106171904Y-96571904D01*
X106124285Y-96381428D01*
X106124285Y-96143333D01*
X106171904Y-95952857D01*
X106219523Y-95857619D01*
X106267142Y-95810000D01*
X106362380Y-95762380D01*
X104171904Y-128782380D02*
X104171904Y-129591904D01*
X104219523Y-129687142D01*
X104267142Y-129734761D01*
X104362380Y-129782380D01*
X104552857Y-129782380D01*
X104648095Y-129734761D01*
X104695714Y-129687142D01*
X104743333Y-129591904D01*
X104743333Y-128782380D01*
X105743333Y-129782380D02*
X105171904Y-129782380D01*
X105457619Y-129782380D02*
X105457619Y-128782380D01*
X105362380Y-128925238D01*
X105267142Y-129020476D01*
X105171904Y-129068095D01*
X106695714Y-129782380D02*
X106124285Y-129782380D01*
X106410000Y-129782380D02*
X106410000Y-128782380D01*
X106314761Y-128925238D01*
X106219523Y-129020476D01*
X106124285Y-129068095D01*
X82581904Y-100842380D02*
X82581904Y-101651904D01*
X82629523Y-101747142D01*
X82677142Y-101794761D01*
X82772380Y-101842380D01*
X82962857Y-101842380D01*
X83058095Y-101794761D01*
X83105714Y-101747142D01*
X83153333Y-101651904D01*
X83153333Y-100842380D01*
X84153333Y-101842380D02*
X83581904Y-101842380D01*
X83867619Y-101842380D02*
X83867619Y-100842380D01*
X83772380Y-100985238D01*
X83677142Y-101080476D01*
X83581904Y-101128095D01*
X84486666Y-100842380D02*
X85105714Y-100842380D01*
X84772380Y-101223333D01*
X84915238Y-101223333D01*
X85010476Y-101270952D01*
X85058095Y-101318571D01*
X85105714Y-101413809D01*
X85105714Y-101651904D01*
X85058095Y-101747142D01*
X85010476Y-101794761D01*
X84915238Y-101842380D01*
X84629523Y-101842380D01*
X84534285Y-101794761D01*
X84486666Y-101747142D01*
X86391904Y-128782380D02*
X86391904Y-129591904D01*
X86439523Y-129687142D01*
X86487142Y-129734761D01*
X86582380Y-129782380D01*
X86772857Y-129782380D01*
X86868095Y-129734761D01*
X86915714Y-129687142D01*
X86963333Y-129591904D01*
X86963333Y-128782380D01*
X87963333Y-129782380D02*
X87391904Y-129782380D01*
X87677619Y-129782380D02*
X87677619Y-128782380D01*
X87582380Y-128925238D01*
X87487142Y-129020476D01*
X87391904Y-129068095D01*
X88820476Y-129115714D02*
X88820476Y-129782380D01*
X88582380Y-128734761D02*
X88344285Y-129449047D01*
X88963333Y-129449047D01*
X112622380Y-113791904D02*
X113431904Y-113791904D01*
X113527142Y-113744285D01*
X113574761Y-113696666D01*
X113622380Y-113601428D01*
X113622380Y-113410952D01*
X113574761Y-113315714D01*
X113527142Y-113268095D01*
X113431904Y-113220476D01*
X112622380Y-113220476D01*
X113050952Y-112601428D02*
X113003333Y-112696666D01*
X112955714Y-112744285D01*
X112860476Y-112791904D01*
X112812857Y-112791904D01*
X112717619Y-112744285D01*
X112670000Y-112696666D01*
X112622380Y-112601428D01*
X112622380Y-112410952D01*
X112670000Y-112315714D01*
X112717619Y-112268095D01*
X112812857Y-112220476D01*
X112860476Y-112220476D01*
X112955714Y-112268095D01*
X113003333Y-112315714D01*
X113050952Y-112410952D01*
X113050952Y-112601428D01*
X113098571Y-112696666D01*
X113146190Y-112744285D01*
X113241428Y-112791904D01*
X113431904Y-112791904D01*
X113527142Y-112744285D01*
X113574761Y-112696666D01*
X113622380Y-112601428D01*
X113622380Y-112410952D01*
X113574761Y-112315714D01*
X113527142Y-112268095D01*
X113431904Y-112220476D01*
X113241428Y-112220476D01*
X113146190Y-112268095D01*
X113098571Y-112315714D01*
X113050952Y-112410952D01*
X94842380Y-114268095D02*
X95651904Y-114268095D01*
X95747142Y-114220476D01*
X95794761Y-114172857D01*
X95842380Y-114077619D01*
X95842380Y-113887142D01*
X95794761Y-113791904D01*
X95747142Y-113744285D01*
X95651904Y-113696666D01*
X94842380Y-113696666D01*
X95842380Y-112696666D02*
X95842380Y-113268095D01*
X95842380Y-112982380D02*
X94842380Y-112982380D01*
X94985238Y-113077619D01*
X95080476Y-113172857D01*
X95128095Y-113268095D01*
X94937619Y-112315714D02*
X94890000Y-112268095D01*
X94842380Y-112172857D01*
X94842380Y-111934761D01*
X94890000Y-111839523D01*
X94937619Y-111791904D01*
X95032857Y-111744285D01*
X95128095Y-111744285D01*
X95270952Y-111791904D01*
X95842380Y-112363333D01*
X95842380Y-111744285D01*
X77062380Y-114268095D02*
X77871904Y-114268095D01*
X77967142Y-114220476D01*
X78014761Y-114172857D01*
X78062380Y-114077619D01*
X78062380Y-113887142D01*
X78014761Y-113791904D01*
X77967142Y-113744285D01*
X77871904Y-113696666D01*
X77062380Y-113696666D01*
X78062380Y-112696666D02*
X78062380Y-113268095D01*
X78062380Y-112982380D02*
X77062380Y-112982380D01*
X77205238Y-113077619D01*
X77300476Y-113172857D01*
X77348095Y-113268095D01*
X77062380Y-111791904D02*
X77062380Y-112268095D01*
X77538571Y-112315714D01*
X77490952Y-112268095D01*
X77443333Y-112172857D01*
X77443333Y-111934761D01*
X77490952Y-111839523D01*
X77538571Y-111791904D01*
X77633809Y-111744285D01*
X77871904Y-111744285D01*
X77967142Y-111791904D01*
X78014761Y-111839523D01*
X78062380Y-111934761D01*
X78062380Y-112172857D01*
X78014761Y-112268095D01*
X77967142Y-112315714D01*
X163758571Y-88463333D02*
X163758571Y-88796666D01*
X164282380Y-88796666D02*
X163282380Y-88796666D01*
X163282380Y-88320476D01*
X163758571Y-87606190D02*
X163806190Y-87463333D01*
X163853809Y-87415714D01*
X163949047Y-87368095D01*
X164091904Y-87368095D01*
X164187142Y-87415714D01*
X164234761Y-87463333D01*
X164282380Y-87558571D01*
X164282380Y-87939523D01*
X163282380Y-87939523D01*
X163282380Y-87606190D01*
X163330000Y-87510952D01*
X163377619Y-87463333D01*
X163472857Y-87415714D01*
X163568095Y-87415714D01*
X163663333Y-87463333D01*
X163710952Y-87510952D01*
X163758571Y-87606190D01*
X163758571Y-87939523D01*
X164282380Y-86415714D02*
X164282380Y-86987142D01*
X164282380Y-86701428D02*
X163282380Y-86701428D01*
X163425238Y-86796666D01*
X163520476Y-86891904D01*
X163568095Y-86987142D01*
X163758571Y-130373333D02*
X163758571Y-130706666D01*
X164282380Y-130706666D02*
X163282380Y-130706666D01*
X163282380Y-130230476D01*
X163758571Y-129516190D02*
X163806190Y-129373333D01*
X163853809Y-129325714D01*
X163949047Y-129278095D01*
X164091904Y-129278095D01*
X164187142Y-129325714D01*
X164234761Y-129373333D01*
X164282380Y-129468571D01*
X164282380Y-129849523D01*
X163282380Y-129849523D01*
X163282380Y-129516190D01*
X163330000Y-129420952D01*
X163377619Y-129373333D01*
X163472857Y-129325714D01*
X163568095Y-129325714D01*
X163663333Y-129373333D01*
X163710952Y-129420952D01*
X163758571Y-129516190D01*
X163758571Y-129849523D01*
X163377619Y-128897142D02*
X163330000Y-128849523D01*
X163282380Y-128754285D01*
X163282380Y-128516190D01*
X163330000Y-128420952D01*
X163377619Y-128373333D01*
X163472857Y-128325714D01*
X163568095Y-128325714D01*
X163710952Y-128373333D01*
X164282380Y-128944761D01*
X164282380Y-128325714D01*
X161218571Y-130373333D02*
X161218571Y-130706666D01*
X161742380Y-130706666D02*
X160742380Y-130706666D01*
X160742380Y-130230476D01*
X161218571Y-129516190D02*
X161266190Y-129373333D01*
X161313809Y-129325714D01*
X161409047Y-129278095D01*
X161551904Y-129278095D01*
X161647142Y-129325714D01*
X161694761Y-129373333D01*
X161742380Y-129468571D01*
X161742380Y-129849523D01*
X160742380Y-129849523D01*
X160742380Y-129516190D01*
X160790000Y-129420952D01*
X160837619Y-129373333D01*
X160932857Y-129325714D01*
X161028095Y-129325714D01*
X161123333Y-129373333D01*
X161170952Y-129420952D01*
X161218571Y-129516190D01*
X161218571Y-129849523D01*
X160742380Y-128944761D02*
X160742380Y-128325714D01*
X161123333Y-128659047D01*
X161123333Y-128516190D01*
X161170952Y-128420952D01*
X161218571Y-128373333D01*
X161313809Y-128325714D01*
X161551904Y-128325714D01*
X161647142Y-128373333D01*
X161694761Y-128420952D01*
X161742380Y-128516190D01*
X161742380Y-128801904D01*
X161694761Y-128897142D01*
X161647142Y-128944761D01*
X145978571Y-110053333D02*
X145978571Y-110386666D01*
X146502380Y-110386666D02*
X145502380Y-110386666D01*
X145502380Y-109910476D01*
X145978571Y-109196190D02*
X146026190Y-109053333D01*
X146073809Y-109005714D01*
X146169047Y-108958095D01*
X146311904Y-108958095D01*
X146407142Y-109005714D01*
X146454761Y-109053333D01*
X146502380Y-109148571D01*
X146502380Y-109529523D01*
X145502380Y-109529523D01*
X145502380Y-109196190D01*
X145550000Y-109100952D01*
X145597619Y-109053333D01*
X145692857Y-109005714D01*
X145788095Y-109005714D01*
X145883333Y-109053333D01*
X145930952Y-109100952D01*
X145978571Y-109196190D01*
X145978571Y-109529523D01*
X145835714Y-108100952D02*
X146502380Y-108100952D01*
X145454761Y-108339047D02*
X146169047Y-108577142D01*
X146169047Y-107958095D01*
X91876666Y-142168571D02*
X91543333Y-142168571D01*
X91543333Y-142692380D02*
X91543333Y-141692380D01*
X92019523Y-141692380D01*
X92733809Y-142168571D02*
X92876666Y-142216190D01*
X92924285Y-142263809D01*
X92971904Y-142359047D01*
X92971904Y-142501904D01*
X92924285Y-142597142D01*
X92876666Y-142644761D01*
X92781428Y-142692380D01*
X92400476Y-142692380D01*
X92400476Y-141692380D01*
X92733809Y-141692380D01*
X92829047Y-141740000D01*
X92876666Y-141787619D01*
X92924285Y-141882857D01*
X92924285Y-141978095D01*
X92876666Y-142073333D01*
X92829047Y-142120952D01*
X92733809Y-142168571D01*
X92400476Y-142168571D01*
X93876666Y-141692380D02*
X93400476Y-141692380D01*
X93352857Y-142168571D01*
X93400476Y-142120952D01*
X93495714Y-142073333D01*
X93733809Y-142073333D01*
X93829047Y-142120952D01*
X93876666Y-142168571D01*
X93924285Y-142263809D01*
X93924285Y-142501904D01*
X93876666Y-142597142D01*
X93829047Y-142644761D01*
X93733809Y-142692380D01*
X93495714Y-142692380D01*
X93400476Y-142644761D01*
X93352857Y-142597142D01*
X72318571Y-80843333D02*
X72318571Y-81176666D01*
X72842380Y-81176666D02*
X71842380Y-81176666D01*
X71842380Y-80700476D01*
X72318571Y-79986190D02*
X72366190Y-79843333D01*
X72413809Y-79795714D01*
X72509047Y-79748095D01*
X72651904Y-79748095D01*
X72747142Y-79795714D01*
X72794761Y-79843333D01*
X72842380Y-79938571D01*
X72842380Y-80319523D01*
X71842380Y-80319523D01*
X71842380Y-79986190D01*
X71890000Y-79890952D01*
X71937619Y-79843333D01*
X72032857Y-79795714D01*
X72128095Y-79795714D01*
X72223333Y-79843333D01*
X72270952Y-79890952D01*
X72318571Y-79986190D01*
X72318571Y-80319523D01*
X71842380Y-78890952D02*
X71842380Y-79081428D01*
X71890000Y-79176666D01*
X71937619Y-79224285D01*
X72080476Y-79319523D01*
X72270952Y-79367142D01*
X72651904Y-79367142D01*
X72747142Y-79319523D01*
X72794761Y-79271904D01*
X72842380Y-79176666D01*
X72842380Y-78986190D01*
X72794761Y-78890952D01*
X72747142Y-78843333D01*
X72651904Y-78795714D01*
X72413809Y-78795714D01*
X72318571Y-78843333D01*
X72270952Y-78890952D01*
X72223333Y-78986190D01*
X72223333Y-79176666D01*
X72270952Y-79271904D01*
X72318571Y-79319523D01*
X72413809Y-79367142D01*
X146502380Y-51601666D02*
X146026190Y-51935000D01*
X146502380Y-52173095D02*
X145502380Y-52173095D01*
X145502380Y-51792142D01*
X145550000Y-51696904D01*
X145597619Y-51649285D01*
X145692857Y-51601666D01*
X145835714Y-51601666D01*
X145930952Y-51649285D01*
X145978571Y-51696904D01*
X146026190Y-51792142D01*
X146026190Y-52173095D01*
X146502380Y-50649285D02*
X146502380Y-51220714D01*
X146502380Y-50935000D02*
X145502380Y-50935000D01*
X145645238Y-51030238D01*
X145740476Y-51125476D01*
X145788095Y-51220714D01*
X143962380Y-51601666D02*
X143486190Y-51935000D01*
X143962380Y-52173095D02*
X142962380Y-52173095D01*
X142962380Y-51792142D01*
X143010000Y-51696904D01*
X143057619Y-51649285D01*
X143152857Y-51601666D01*
X143295714Y-51601666D01*
X143390952Y-51649285D01*
X143438571Y-51696904D01*
X143486190Y-51792142D01*
X143486190Y-52173095D01*
X143057619Y-51220714D02*
X143010000Y-51173095D01*
X142962380Y-51077857D01*
X142962380Y-50839761D01*
X143010000Y-50744523D01*
X143057619Y-50696904D01*
X143152857Y-50649285D01*
X143248095Y-50649285D01*
X143390952Y-50696904D01*
X143962380Y-51268333D01*
X143962380Y-50649285D01*
X138882380Y-51601666D02*
X138406190Y-51935000D01*
X138882380Y-52173095D02*
X137882380Y-52173095D01*
X137882380Y-51792142D01*
X137930000Y-51696904D01*
X137977619Y-51649285D01*
X138072857Y-51601666D01*
X138215714Y-51601666D01*
X138310952Y-51649285D01*
X138358571Y-51696904D01*
X138406190Y-51792142D01*
X138406190Y-52173095D01*
X137882380Y-51268333D02*
X137882380Y-50649285D01*
X138263333Y-50982619D01*
X138263333Y-50839761D01*
X138310952Y-50744523D01*
X138358571Y-50696904D01*
X138453809Y-50649285D01*
X138691904Y-50649285D01*
X138787142Y-50696904D01*
X138834761Y-50744523D01*
X138882380Y-50839761D01*
X138882380Y-51125476D01*
X138834761Y-51220714D01*
X138787142Y-51268333D01*
X136342380Y-51601666D02*
X135866190Y-51935000D01*
X136342380Y-52173095D02*
X135342380Y-52173095D01*
X135342380Y-51792142D01*
X135390000Y-51696904D01*
X135437619Y-51649285D01*
X135532857Y-51601666D01*
X135675714Y-51601666D01*
X135770952Y-51649285D01*
X135818571Y-51696904D01*
X135866190Y-51792142D01*
X135866190Y-52173095D01*
X135675714Y-50744523D02*
X136342380Y-50744523D01*
X135294761Y-50982619D02*
X136009047Y-51220714D01*
X136009047Y-50601666D01*
X99512380Y-65571666D02*
X99036190Y-65905000D01*
X99512380Y-66143095D02*
X98512380Y-66143095D01*
X98512380Y-65762142D01*
X98560000Y-65666904D01*
X98607619Y-65619285D01*
X98702857Y-65571666D01*
X98845714Y-65571666D01*
X98940952Y-65619285D01*
X98988571Y-65666904D01*
X99036190Y-65762142D01*
X99036190Y-66143095D01*
X98512380Y-64666904D02*
X98512380Y-65143095D01*
X98988571Y-65190714D01*
X98940952Y-65143095D01*
X98893333Y-65047857D01*
X98893333Y-64809761D01*
X98940952Y-64714523D01*
X98988571Y-64666904D01*
X99083809Y-64619285D01*
X99321904Y-64619285D01*
X99417142Y-64666904D01*
X99464761Y-64714523D01*
X99512380Y-64809761D01*
X99512380Y-65047857D01*
X99464761Y-65143095D01*
X99417142Y-65190714D01*
X96972380Y-65571666D02*
X96496190Y-65905000D01*
X96972380Y-66143095D02*
X95972380Y-66143095D01*
X95972380Y-65762142D01*
X96020000Y-65666904D01*
X96067619Y-65619285D01*
X96162857Y-65571666D01*
X96305714Y-65571666D01*
X96400952Y-65619285D01*
X96448571Y-65666904D01*
X96496190Y-65762142D01*
X96496190Y-66143095D01*
X95972380Y-64714523D02*
X95972380Y-64905000D01*
X96020000Y-65000238D01*
X96067619Y-65047857D01*
X96210476Y-65143095D01*
X96400952Y-65190714D01*
X96781904Y-65190714D01*
X96877142Y-65143095D01*
X96924761Y-65095476D01*
X96972380Y-65000238D01*
X96972380Y-64809761D01*
X96924761Y-64714523D01*
X96877142Y-64666904D01*
X96781904Y-64619285D01*
X96543809Y-64619285D01*
X96448571Y-64666904D01*
X96400952Y-64714523D01*
X96353333Y-64809761D01*
X96353333Y-65000238D01*
X96400952Y-65095476D01*
X96448571Y-65143095D01*
X96543809Y-65190714D01*
X94432380Y-65571666D02*
X93956190Y-65905000D01*
X94432380Y-66143095D02*
X93432380Y-66143095D01*
X93432380Y-65762142D01*
X93480000Y-65666904D01*
X93527619Y-65619285D01*
X93622857Y-65571666D01*
X93765714Y-65571666D01*
X93860952Y-65619285D01*
X93908571Y-65666904D01*
X93956190Y-65762142D01*
X93956190Y-66143095D01*
X93432380Y-65238333D02*
X93432380Y-64571666D01*
X94432380Y-65000238D01*
X92543333Y-146502380D02*
X92210000Y-146026190D01*
X91971904Y-146502380D02*
X91971904Y-145502380D01*
X92352857Y-145502380D01*
X92448095Y-145550000D01*
X92495714Y-145597619D01*
X92543333Y-145692857D01*
X92543333Y-145835714D01*
X92495714Y-145930952D01*
X92448095Y-145978571D01*
X92352857Y-146026190D01*
X91971904Y-146026190D01*
X93114761Y-145930952D02*
X93019523Y-145883333D01*
X92971904Y-145835714D01*
X92924285Y-145740476D01*
X92924285Y-145692857D01*
X92971904Y-145597619D01*
X93019523Y-145550000D01*
X93114761Y-145502380D01*
X93305238Y-145502380D01*
X93400476Y-145550000D01*
X93448095Y-145597619D01*
X93495714Y-145692857D01*
X93495714Y-145740476D01*
X93448095Y-145835714D01*
X93400476Y-145883333D01*
X93305238Y-145930952D01*
X93114761Y-145930952D01*
X93019523Y-145978571D01*
X92971904Y-146026190D01*
X92924285Y-146121428D01*
X92924285Y-146311904D01*
X92971904Y-146407142D01*
X93019523Y-146454761D01*
X93114761Y-146502380D01*
X93305238Y-146502380D01*
X93400476Y-146454761D01*
X93448095Y-146407142D01*
X93495714Y-146311904D01*
X93495714Y-146121428D01*
X93448095Y-146026190D01*
X93400476Y-145978571D01*
X93305238Y-145930952D01*
X67627142Y-116806666D02*
X67674761Y-116854285D01*
X67722380Y-116997142D01*
X67722380Y-117092380D01*
X67674761Y-117235238D01*
X67579523Y-117330476D01*
X67484285Y-117378095D01*
X67293809Y-117425714D01*
X67150952Y-117425714D01*
X66960476Y-117378095D01*
X66865238Y-117330476D01*
X66770000Y-117235238D01*
X66722380Y-117092380D01*
X66722380Y-116997142D01*
X66770000Y-116854285D01*
X66817619Y-116806666D01*
X67722380Y-115854285D02*
X67722380Y-116425714D01*
X67722380Y-116140000D02*
X66722380Y-116140000D01*
X66865238Y-116235238D01*
X66960476Y-116330476D01*
X67008095Y-116425714D01*
X164187142Y-72556666D02*
X164234761Y-72604285D01*
X164282380Y-72747142D01*
X164282380Y-72842380D01*
X164234761Y-72985238D01*
X164139523Y-73080476D01*
X164044285Y-73128095D01*
X163853809Y-73175714D01*
X163710952Y-73175714D01*
X163520476Y-73128095D01*
X163425238Y-73080476D01*
X163330000Y-72985238D01*
X163282380Y-72842380D01*
X163282380Y-72747142D01*
X163330000Y-72604285D01*
X163377619Y-72556666D01*
X163377619Y-72175714D02*
X163330000Y-72128095D01*
X163282380Y-72032857D01*
X163282380Y-71794761D01*
X163330000Y-71699523D01*
X163377619Y-71651904D01*
X163472857Y-71604285D01*
X163568095Y-71604285D01*
X163710952Y-71651904D01*
X164282380Y-72223333D01*
X164282380Y-71604285D01*
X164187142Y-97321666D02*
X164234761Y-97369285D01*
X164282380Y-97512142D01*
X164282380Y-97607380D01*
X164234761Y-97750238D01*
X164139523Y-97845476D01*
X164044285Y-97893095D01*
X163853809Y-97940714D01*
X163710952Y-97940714D01*
X163520476Y-97893095D01*
X163425238Y-97845476D01*
X163330000Y-97750238D01*
X163282380Y-97607380D01*
X163282380Y-97512142D01*
X163330000Y-97369285D01*
X163377619Y-97321666D01*
X163282380Y-96988333D02*
X163282380Y-96369285D01*
X163663333Y-96702619D01*
X163663333Y-96559761D01*
X163710952Y-96464523D01*
X163758571Y-96416904D01*
X163853809Y-96369285D01*
X164091904Y-96369285D01*
X164187142Y-96416904D01*
X164234761Y-96464523D01*
X164282380Y-96559761D01*
X164282380Y-96845476D01*
X164234761Y-96940714D01*
X164187142Y-96988333D01*
X161647142Y-97321666D02*
X161694761Y-97369285D01*
X161742380Y-97512142D01*
X161742380Y-97607380D01*
X161694761Y-97750238D01*
X161599523Y-97845476D01*
X161504285Y-97893095D01*
X161313809Y-97940714D01*
X161170952Y-97940714D01*
X160980476Y-97893095D01*
X160885238Y-97845476D01*
X160790000Y-97750238D01*
X160742380Y-97607380D01*
X160742380Y-97512142D01*
X160790000Y-97369285D01*
X160837619Y-97321666D01*
X161075714Y-96464523D02*
X161742380Y-96464523D01*
X160694761Y-96702619D02*
X161409047Y-96940714D01*
X161409047Y-96321666D01*
X146518333Y-101322142D02*
X146470714Y-101369761D01*
X146327857Y-101417380D01*
X146232619Y-101417380D01*
X146089761Y-101369761D01*
X145994523Y-101274523D01*
X145946904Y-101179285D01*
X145899285Y-100988809D01*
X145899285Y-100845952D01*
X145946904Y-100655476D01*
X145994523Y-100560238D01*
X146089761Y-100465000D01*
X146232619Y-100417380D01*
X146327857Y-100417380D01*
X146470714Y-100465000D01*
X146518333Y-100512619D01*
X146851666Y-100417380D02*
X147518333Y-100417380D01*
X147089761Y-101417380D01*
X141327142Y-51601666D02*
X141374761Y-51649285D01*
X141422380Y-51792142D01*
X141422380Y-51887380D01*
X141374761Y-52030238D01*
X141279523Y-52125476D01*
X141184285Y-52173095D01*
X140993809Y-52220714D01*
X140850952Y-52220714D01*
X140660476Y-52173095D01*
X140565238Y-52125476D01*
X140470000Y-52030238D01*
X140422380Y-51887380D01*
X140422380Y-51792142D01*
X140470000Y-51649285D01*
X140517619Y-51601666D01*
X141422380Y-51125476D02*
X141422380Y-50935000D01*
X141374761Y-50839761D01*
X141327142Y-50792142D01*
X141184285Y-50696904D01*
X140993809Y-50649285D01*
X140612857Y-50649285D01*
X140517619Y-50696904D01*
X140470000Y-50744523D01*
X140422380Y-50839761D01*
X140422380Y-51030238D01*
X140470000Y-51125476D01*
X140517619Y-51173095D01*
X140612857Y-51220714D01*
X140850952Y-51220714D01*
X140946190Y-51173095D01*
X140993809Y-51125476D01*
X141041428Y-51030238D01*
X141041428Y-50839761D01*
X140993809Y-50744523D01*
X140946190Y-50696904D01*
X140850952Y-50649285D01*
X92067142Y-138787142D02*
X92019523Y-138834761D01*
X91876666Y-138882380D01*
X91781428Y-138882380D01*
X91638571Y-138834761D01*
X91543333Y-138739523D01*
X91495714Y-138644285D01*
X91448095Y-138453809D01*
X91448095Y-138310952D01*
X91495714Y-138120476D01*
X91543333Y-138025238D01*
X91638571Y-137930000D01*
X91781428Y-137882380D01*
X91876666Y-137882380D01*
X92019523Y-137930000D01*
X92067142Y-137977619D01*
X93019523Y-138882380D02*
X92448095Y-138882380D01*
X92733809Y-138882380D02*
X92733809Y-137882380D01*
X92638571Y-138025238D01*
X92543333Y-138120476D01*
X92448095Y-138168095D01*
X93590952Y-138310952D02*
X93495714Y-138263333D01*
X93448095Y-138215714D01*
X93400476Y-138120476D01*
X93400476Y-138072857D01*
X93448095Y-137977619D01*
X93495714Y-137930000D01*
X93590952Y-137882380D01*
X93781428Y-137882380D01*
X93876666Y-137930000D01*
X93924285Y-137977619D01*
X93971904Y-138072857D01*
X93971904Y-138120476D01*
X93924285Y-138215714D01*
X93876666Y-138263333D01*
X93781428Y-138310952D01*
X93590952Y-138310952D01*
X93495714Y-138358571D01*
X93448095Y-138406190D01*
X93400476Y-138501428D01*
X93400476Y-138691904D01*
X93448095Y-138787142D01*
X93495714Y-138834761D01*
X93590952Y-138882380D01*
X93781428Y-138882380D01*
X93876666Y-138834761D01*
X93924285Y-138787142D01*
X93971904Y-138691904D01*
X93971904Y-138501428D01*
X93924285Y-138406190D01*
X93876666Y-138358571D01*
X93781428Y-138310952D01*
X70207142Y-62872857D02*
X70254761Y-62920476D01*
X70302380Y-63063333D01*
X70302380Y-63158571D01*
X70254761Y-63301428D01*
X70159523Y-63396666D01*
X70064285Y-63444285D01*
X69873809Y-63491904D01*
X69730952Y-63491904D01*
X69540476Y-63444285D01*
X69445238Y-63396666D01*
X69350000Y-63301428D01*
X69302380Y-63158571D01*
X69302380Y-63063333D01*
X69350000Y-62920476D01*
X69397619Y-62872857D01*
X69397619Y-62491904D02*
X69350000Y-62444285D01*
X69302380Y-62349047D01*
X69302380Y-62110952D01*
X69350000Y-62015714D01*
X69397619Y-61968095D01*
X69492857Y-61920476D01*
X69588095Y-61920476D01*
X69730952Y-61968095D01*
X70302380Y-62539523D01*
X70302380Y-61920476D01*
X69302380Y-61301428D02*
X69302380Y-61206190D01*
X69350000Y-61110952D01*
X69397619Y-61063333D01*
X69492857Y-61015714D01*
X69683333Y-60968095D01*
X69921428Y-60968095D01*
X70111904Y-61015714D01*
X70207142Y-61063333D01*
X70254761Y-61110952D01*
X70302380Y-61206190D01*
X70302380Y-61301428D01*
X70254761Y-61396666D01*
X70207142Y-61444285D01*
X70111904Y-61491904D01*
X69921428Y-61539523D01*
X69683333Y-61539523D01*
X69492857Y-61491904D01*
X69397619Y-61444285D01*
X69350000Y-61396666D01*
X69302380Y-61301428D01*
X152233333Y-74017142D02*
X152185714Y-74064761D01*
X152042857Y-74112380D01*
X151947619Y-74112380D01*
X151804761Y-74064761D01*
X151709523Y-73969523D01*
X151661904Y-73874285D01*
X151614285Y-73683809D01*
X151614285Y-73540952D01*
X151661904Y-73350476D01*
X151709523Y-73255238D01*
X151804761Y-73160000D01*
X151947619Y-73112380D01*
X152042857Y-73112380D01*
X152185714Y-73160000D01*
X152233333Y-73207619D01*
X153138095Y-73112380D02*
X152661904Y-73112380D01*
X152614285Y-73588571D01*
X152661904Y-73540952D01*
X152757142Y-73493333D01*
X152995238Y-73493333D01*
X153090476Y-73540952D01*
X153138095Y-73588571D01*
X153185714Y-73683809D01*
X153185714Y-73921904D01*
X153138095Y-74017142D01*
X153090476Y-74064761D01*
X152995238Y-74112380D01*
X152757142Y-74112380D01*
X152661904Y-74064761D01*
X152614285Y-74017142D01*
X152193333Y-97217142D02*
X152145714Y-97264761D01*
X152002857Y-97312380D01*
X151907619Y-97312380D01*
X151764761Y-97264761D01*
X151669523Y-97169523D01*
X151621904Y-97074285D01*
X151574285Y-96883809D01*
X151574285Y-96740952D01*
X151621904Y-96550476D01*
X151669523Y-96455238D01*
X151764761Y-96360000D01*
X151907619Y-96312380D01*
X152002857Y-96312380D01*
X152145714Y-96360000D01*
X152193333Y-96407619D01*
X153050476Y-96312380D02*
X152860000Y-96312380D01*
X152764761Y-96360000D01*
X152717142Y-96407619D01*
X152621904Y-96550476D01*
X152574285Y-96740952D01*
X152574285Y-97121904D01*
X152621904Y-97217142D01*
X152669523Y-97264761D01*
X152764761Y-97312380D01*
X152955238Y-97312380D01*
X153050476Y-97264761D01*
X153098095Y-97217142D01*
X153145714Y-97121904D01*
X153145714Y-96883809D01*
X153098095Y-96788571D01*
X153050476Y-96740952D01*
X152955238Y-96693333D01*
X152764761Y-96693333D01*
X152669523Y-96740952D01*
X152621904Y-96788571D01*
X152574285Y-96883809D01*
X136437142Y-134977142D02*
X136389523Y-135024761D01*
X136246666Y-135072380D01*
X136151428Y-135072380D01*
X136008571Y-135024761D01*
X135913333Y-134929523D01*
X135865714Y-134834285D01*
X135818095Y-134643809D01*
X135818095Y-134500952D01*
X135865714Y-134310476D01*
X135913333Y-134215238D01*
X136008571Y-134120000D01*
X136151428Y-134072380D01*
X136246666Y-134072380D01*
X136389523Y-134120000D01*
X136437142Y-134167619D01*
X137389523Y-135072380D02*
X136818095Y-135072380D01*
X137103809Y-135072380D02*
X137103809Y-134072380D01*
X137008571Y-134215238D01*
X136913333Y-134310476D01*
X136818095Y-134358095D01*
X138008571Y-134072380D02*
X138103809Y-134072380D01*
X138199047Y-134120000D01*
X138246666Y-134167619D01*
X138294285Y-134262857D01*
X138341904Y-134453333D01*
X138341904Y-134691428D01*
X138294285Y-134881904D01*
X138246666Y-134977142D01*
X138199047Y-135024761D01*
X138103809Y-135072380D01*
X138008571Y-135072380D01*
X137913333Y-135024761D01*
X137865714Y-134977142D01*
X137818095Y-134881904D01*
X137770476Y-134691428D01*
X137770476Y-134453333D01*
X137818095Y-134262857D01*
X137865714Y-134167619D01*
X137913333Y-134120000D01*
X138008571Y-134072380D01*
X126357142Y-71477142D02*
X126309523Y-71524761D01*
X126166666Y-71572380D01*
X126071428Y-71572380D01*
X125928571Y-71524761D01*
X125833333Y-71429523D01*
X125785714Y-71334285D01*
X125738095Y-71143809D01*
X125738095Y-71000952D01*
X125785714Y-70810476D01*
X125833333Y-70715238D01*
X125928571Y-70620000D01*
X126071428Y-70572380D01*
X126166666Y-70572380D01*
X126309523Y-70620000D01*
X126357142Y-70667619D01*
X127309523Y-71572380D02*
X126738095Y-71572380D01*
X127023809Y-71572380D02*
X127023809Y-70572380D01*
X126928571Y-70715238D01*
X126833333Y-70810476D01*
X126738095Y-70858095D01*
X128261904Y-71572380D02*
X127690476Y-71572380D01*
X127976190Y-71572380D02*
X127976190Y-70572380D01*
X127880952Y-70715238D01*
X127785714Y-70810476D01*
X127690476Y-70858095D01*
X126357142Y-99417142D02*
X126309523Y-99464761D01*
X126166666Y-99512380D01*
X126071428Y-99512380D01*
X125928571Y-99464761D01*
X125833333Y-99369523D01*
X125785714Y-99274285D01*
X125738095Y-99083809D01*
X125738095Y-98940952D01*
X125785714Y-98750476D01*
X125833333Y-98655238D01*
X125928571Y-98560000D01*
X126071428Y-98512380D01*
X126166666Y-98512380D01*
X126309523Y-98560000D01*
X126357142Y-98607619D01*
X127309523Y-99512380D02*
X126738095Y-99512380D01*
X127023809Y-99512380D02*
X127023809Y-98512380D01*
X126928571Y-98655238D01*
X126833333Y-98750476D01*
X126738095Y-98798095D01*
X127690476Y-98607619D02*
X127738095Y-98560000D01*
X127833333Y-98512380D01*
X128071428Y-98512380D01*
X128166666Y-98560000D01*
X128214285Y-98607619D01*
X128261904Y-98702857D01*
X128261904Y-98798095D01*
X128214285Y-98940952D01*
X127642857Y-99512380D01*
X128261904Y-99512380D01*
X121317142Y-134977142D02*
X121269523Y-135024761D01*
X121126666Y-135072380D01*
X121031428Y-135072380D01*
X120888571Y-135024761D01*
X120793333Y-134929523D01*
X120745714Y-134834285D01*
X120698095Y-134643809D01*
X120698095Y-134500952D01*
X120745714Y-134310476D01*
X120793333Y-134215238D01*
X120888571Y-134120000D01*
X121031428Y-134072380D01*
X121126666Y-134072380D01*
X121269523Y-134120000D01*
X121317142Y-134167619D01*
X122269523Y-135072380D02*
X121698095Y-135072380D01*
X121983809Y-135072380D02*
X121983809Y-134072380D01*
X121888571Y-134215238D01*
X121793333Y-134310476D01*
X121698095Y-134358095D01*
X122602857Y-134072380D02*
X123221904Y-134072380D01*
X122888571Y-134453333D01*
X123031428Y-134453333D01*
X123126666Y-134500952D01*
X123174285Y-134548571D01*
X123221904Y-134643809D01*
X123221904Y-134881904D01*
X123174285Y-134977142D01*
X123126666Y-135024761D01*
X123031428Y-135072380D01*
X122745714Y-135072380D01*
X122650476Y-135024761D01*
X122602857Y-134977142D01*
X108577142Y-71477142D02*
X108529523Y-71524761D01*
X108386666Y-71572380D01*
X108291428Y-71572380D01*
X108148571Y-71524761D01*
X108053333Y-71429523D01*
X108005714Y-71334285D01*
X107958095Y-71143809D01*
X107958095Y-71000952D01*
X108005714Y-70810476D01*
X108053333Y-70715238D01*
X108148571Y-70620000D01*
X108291428Y-70572380D01*
X108386666Y-70572380D01*
X108529523Y-70620000D01*
X108577142Y-70667619D01*
X109529523Y-71572380D02*
X108958095Y-71572380D01*
X109243809Y-71572380D02*
X109243809Y-70572380D01*
X109148571Y-70715238D01*
X109053333Y-70810476D01*
X108958095Y-70858095D01*
X110386666Y-70905714D02*
X110386666Y-71572380D01*
X110148571Y-70524761D02*
X109910476Y-71239047D01*
X110529523Y-71239047D01*
X108577142Y-99417142D02*
X108529523Y-99464761D01*
X108386666Y-99512380D01*
X108291428Y-99512380D01*
X108148571Y-99464761D01*
X108053333Y-99369523D01*
X108005714Y-99274285D01*
X107958095Y-99083809D01*
X107958095Y-98940952D01*
X108005714Y-98750476D01*
X108053333Y-98655238D01*
X108148571Y-98560000D01*
X108291428Y-98512380D01*
X108386666Y-98512380D01*
X108529523Y-98560000D01*
X108577142Y-98607619D01*
X109529523Y-99512380D02*
X108958095Y-99512380D01*
X109243809Y-99512380D02*
X109243809Y-98512380D01*
X109148571Y-98655238D01*
X109053333Y-98750476D01*
X108958095Y-98798095D01*
X110434285Y-98512380D02*
X109958095Y-98512380D01*
X109910476Y-98988571D01*
X109958095Y-98940952D01*
X110053333Y-98893333D01*
X110291428Y-98893333D01*
X110386666Y-98940952D01*
X110434285Y-98988571D01*
X110481904Y-99083809D01*
X110481904Y-99321904D01*
X110434285Y-99417142D01*
X110386666Y-99464761D01*
X110291428Y-99512380D01*
X110053333Y-99512380D01*
X109958095Y-99464761D01*
X109910476Y-99417142D01*
X103497142Y-134977142D02*
X103449523Y-135024761D01*
X103306666Y-135072380D01*
X103211428Y-135072380D01*
X103068571Y-135024761D01*
X102973333Y-134929523D01*
X102925714Y-134834285D01*
X102878095Y-134643809D01*
X102878095Y-134500952D01*
X102925714Y-134310476D01*
X102973333Y-134215238D01*
X103068571Y-134120000D01*
X103211428Y-134072380D01*
X103306666Y-134072380D01*
X103449523Y-134120000D01*
X103497142Y-134167619D01*
X104449523Y-135072380D02*
X103878095Y-135072380D01*
X104163809Y-135072380D02*
X104163809Y-134072380D01*
X104068571Y-134215238D01*
X103973333Y-134310476D01*
X103878095Y-134358095D01*
X105306666Y-134072380D02*
X105116190Y-134072380D01*
X105020952Y-134120000D01*
X104973333Y-134167619D01*
X104878095Y-134310476D01*
X104830476Y-134500952D01*
X104830476Y-134881904D01*
X104878095Y-134977142D01*
X104925714Y-135024761D01*
X105020952Y-135072380D01*
X105211428Y-135072380D01*
X105306666Y-135024761D01*
X105354285Y-134977142D01*
X105401904Y-134881904D01*
X105401904Y-134643809D01*
X105354285Y-134548571D01*
X105306666Y-134500952D01*
X105211428Y-134453333D01*
X105020952Y-134453333D01*
X104925714Y-134500952D01*
X104878095Y-134548571D01*
X104830476Y-134643809D01*
X99417142Y-76842857D02*
X99464761Y-76890476D01*
X99512380Y-77033333D01*
X99512380Y-77128571D01*
X99464761Y-77271428D01*
X99369523Y-77366666D01*
X99274285Y-77414285D01*
X99083809Y-77461904D01*
X98940952Y-77461904D01*
X98750476Y-77414285D01*
X98655238Y-77366666D01*
X98560000Y-77271428D01*
X98512380Y-77128571D01*
X98512380Y-77033333D01*
X98560000Y-76890476D01*
X98607619Y-76842857D01*
X99512380Y-75890476D02*
X99512380Y-76461904D01*
X99512380Y-76176190D02*
X98512380Y-76176190D01*
X98655238Y-76271428D01*
X98750476Y-76366666D01*
X98798095Y-76461904D01*
X98512380Y-75557142D02*
X98512380Y-74890476D01*
X99512380Y-75319047D01*
X85677142Y-134977142D02*
X85629523Y-135024761D01*
X85486666Y-135072380D01*
X85391428Y-135072380D01*
X85248571Y-135024761D01*
X85153333Y-134929523D01*
X85105714Y-134834285D01*
X85058095Y-134643809D01*
X85058095Y-134500952D01*
X85105714Y-134310476D01*
X85153333Y-134215238D01*
X85248571Y-134120000D01*
X85391428Y-134072380D01*
X85486666Y-134072380D01*
X85629523Y-134120000D01*
X85677142Y-134167619D01*
X86629523Y-135072380D02*
X86058095Y-135072380D01*
X86343809Y-135072380D02*
X86343809Y-134072380D01*
X86248571Y-134215238D01*
X86153333Y-134310476D01*
X86058095Y-134358095D01*
X87105714Y-135072380D02*
X87296190Y-135072380D01*
X87391428Y-135024761D01*
X87439047Y-134977142D01*
X87534285Y-134834285D01*
X87581904Y-134643809D01*
X87581904Y-134262857D01*
X87534285Y-134167619D01*
X87486666Y-134120000D01*
X87391428Y-134072380D01*
X87200952Y-134072380D01*
X87105714Y-134120000D01*
X87058095Y-134167619D01*
X87010476Y-134262857D01*
X87010476Y-134500952D01*
X87058095Y-134596190D01*
X87105714Y-134643809D01*
X87200952Y-134691428D01*
X87391428Y-134691428D01*
X87486666Y-134643809D01*
X87534285Y-134596190D01*
X87581904Y-134500952D01*
X152193333Y-134977142D02*
X152145714Y-135024761D01*
X152002857Y-135072380D01*
X151907619Y-135072380D01*
X151764761Y-135024761D01*
X151669523Y-134929523D01*
X151621904Y-134834285D01*
X151574285Y-134643809D01*
X151574285Y-134500952D01*
X151621904Y-134310476D01*
X151669523Y-134215238D01*
X151764761Y-134120000D01*
X151907619Y-134072380D01*
X152002857Y-134072380D01*
X152145714Y-134120000D01*
X152193333Y-134167619D01*
X152764761Y-134500952D02*
X152669523Y-134453333D01*
X152621904Y-134405714D01*
X152574285Y-134310476D01*
X152574285Y-134262857D01*
X152621904Y-134167619D01*
X152669523Y-134120000D01*
X152764761Y-134072380D01*
X152955238Y-134072380D01*
X153050476Y-134120000D01*
X153098095Y-134167619D01*
X153145714Y-134262857D01*
X153145714Y-134310476D01*
X153098095Y-134405714D01*
X153050476Y-134453333D01*
X152955238Y-134500952D01*
X152764761Y-134500952D01*
X152669523Y-134548571D01*
X152621904Y-134596190D01*
X152574285Y-134691428D01*
X152574285Y-134881904D01*
X152621904Y-134977142D01*
X152669523Y-135024761D01*
X152764761Y-135072380D01*
X152955238Y-135072380D01*
X153050476Y-135024761D01*
X153098095Y-134977142D01*
X153145714Y-134881904D01*
X153145714Y-134691428D01*
X153098095Y-134596190D01*
X153050476Y-134548571D01*
X152955238Y-134500952D01*
X137668095Y-128782380D02*
X137668095Y-129591904D01*
X137715714Y-129687142D01*
X137763333Y-129734761D01*
X137858571Y-129782380D01*
X138049047Y-129782380D01*
X138144285Y-129734761D01*
X138191904Y-129687142D01*
X138239523Y-129591904D01*
X138239523Y-128782380D01*
X139144285Y-129115714D02*
X139144285Y-129782380D01*
X138906190Y-128734761D02*
X138668095Y-129449047D01*
X139287142Y-129449047D01*
X143414761Y-66837619D02*
X143319523Y-66790000D01*
X143224285Y-66694761D01*
X143081428Y-66551904D01*
X142986190Y-66504285D01*
X142890952Y-66504285D01*
X142938571Y-66742380D02*
X142843333Y-66694761D01*
X142748095Y-66599523D01*
X142700476Y-66409047D01*
X142700476Y-66075714D01*
X142748095Y-65885238D01*
X142843333Y-65790000D01*
X142938571Y-65742380D01*
X143129047Y-65742380D01*
X143224285Y-65790000D01*
X143319523Y-65885238D01*
X143367142Y-66075714D01*
X143367142Y-66409047D01*
X143319523Y-66599523D01*
X143224285Y-66694761D01*
X143129047Y-66742380D01*
X142938571Y-66742380D01*
X144319523Y-66742380D02*
X143748095Y-66742380D01*
X144033809Y-66742380D02*
X144033809Y-65742380D01*
X143938571Y-65885238D01*
X143843333Y-65980476D01*
X143748095Y-66028095D01*
M02*
