%FSLAX45Y45*%
G04 Gerber Fmt 4.5, Leading zero omitted, Abs format (unit mm)*
G04 Created by KiCad (PCBNEW (5.1.5)-3) date 2020-10-06 00:11:38*
%MOMM*%
%LPD*%
G04 APERTURE LIST*
%ADD10C,0.200000*%
%ADD11C,0.300000*%
G04 APERTURE END LIST*
D10*
D11*
X6685958Y-18012034D02*
X6685958Y-17712034D01*
X6757387Y-17712034D01*
X6800244Y-17726320D01*
X6828816Y-17754892D01*
X6843101Y-17783463D01*
X6857387Y-17840606D01*
X6857387Y-17883463D01*
X6843101Y-17940606D01*
X6828816Y-17969177D01*
X6800244Y-17997749D01*
X6757387Y-18012034D01*
X6685958Y-18012034D01*
X6985958Y-18012034D02*
X6985958Y-17812034D01*
X6985958Y-17869177D02*
X7000244Y-17840606D01*
X7014530Y-17826320D01*
X7043101Y-17812034D01*
X7071673Y-17812034D01*
X7171673Y-18012034D02*
X7171673Y-17812034D01*
X7171673Y-17712034D02*
X7157387Y-17726320D01*
X7171673Y-17740606D01*
X7185958Y-17726320D01*
X7171673Y-17712034D01*
X7171673Y-17740606D01*
X7357387Y-18012034D02*
X7328816Y-17997749D01*
X7314530Y-17969177D01*
X7314530Y-17712034D01*
X7514530Y-18012034D02*
X7485958Y-17997749D01*
X7471673Y-17969177D01*
X7471673Y-17712034D01*
X7857387Y-18012034D02*
X7857387Y-17712034D01*
X7957387Y-17926320D01*
X8057387Y-17712034D01*
X8057387Y-18012034D01*
X8328816Y-18012034D02*
X8328816Y-17854892D01*
X8314530Y-17826320D01*
X8285958Y-17812034D01*
X8228816Y-17812034D01*
X8200244Y-17826320D01*
X8328816Y-17997749D02*
X8300244Y-18012034D01*
X8228816Y-18012034D01*
X8200244Y-17997749D01*
X8185958Y-17969177D01*
X8185958Y-17940606D01*
X8200244Y-17912034D01*
X8228816Y-17897749D01*
X8300244Y-17897749D01*
X8328816Y-17883463D01*
X8471673Y-17812034D02*
X8471673Y-18112034D01*
X8471673Y-17826320D02*
X8500244Y-17812034D01*
X8557387Y-17812034D01*
X8585958Y-17826320D01*
X8600244Y-17840606D01*
X8614530Y-17869177D01*
X8614530Y-17954892D01*
X8600244Y-17983463D01*
X8585958Y-17997749D01*
X8557387Y-18012034D01*
X8500244Y-18012034D01*
X8471673Y-17997749D01*
X8743101Y-17983463D02*
X8757387Y-17997749D01*
X8743101Y-18012034D01*
X8728816Y-17997749D01*
X8743101Y-17983463D01*
X8743101Y-18012034D01*
X8743101Y-17826320D02*
X8757387Y-17840606D01*
X8743101Y-17854892D01*
X8728816Y-17840606D01*
X8743101Y-17826320D01*
X8743101Y-17854892D01*
M02*
