%TF.GenerationSoftware,KiCad,Pcbnew,(5.1.9)-1*%
%TF.CreationDate,2021-04-20T22:40:55-04:00*%
%TF.ProjectId,ZXSwinSID_RISER,5a585377-696e-4534-9944-5f5249534552,rev?*%
%TF.SameCoordinates,Original*%
%TF.FileFunction,Legend,Top*%
%TF.FilePolarity,Positive*%
%FSLAX46Y46*%
G04 Gerber Fmt 4.6, Leading zero omitted, Abs format (unit mm)*
G04 Created by KiCad (PCBNEW (5.1.9)-1) date 2021-04-20 22:40:55*
%MOMM*%
%LPD*%
G01*
G04 APERTURE LIST*
%ADD10C,0.125000*%
%ADD11C,0.100000*%
G04 APERTURE END LIST*
%TO.C,J2*%
D10*
X127615238Y-141831190D02*
X127615238Y-141331190D01*
X127900952Y-141831190D01*
X127900952Y-141331190D01*
X128496190Y-141307380D02*
X128067619Y-141950238D01*
X128948571Y-141783571D02*
X128924761Y-141807380D01*
X128853333Y-141831190D01*
X128805714Y-141831190D01*
X128734285Y-141807380D01*
X128686666Y-141759761D01*
X128662857Y-141712142D01*
X128639047Y-141616904D01*
X128639047Y-141545476D01*
X128662857Y-141450238D01*
X128686666Y-141402619D01*
X128734285Y-141355000D01*
X128805714Y-141331190D01*
X128853333Y-141331190D01*
X128924761Y-141355000D01*
X128948571Y-141378809D01*
X125134761Y-141688333D02*
X125372857Y-141688333D01*
X125087142Y-141831190D02*
X125253809Y-141331190D01*
X125420476Y-141831190D01*
X125849047Y-141831190D02*
X125563333Y-141831190D01*
X125706190Y-141831190D02*
X125706190Y-141331190D01*
X125658571Y-141402619D01*
X125610952Y-141450238D01*
X125563333Y-141474047D01*
X126158571Y-141331190D02*
X126206190Y-141331190D01*
X126253809Y-141355000D01*
X126277619Y-141378809D01*
X126301428Y-141426428D01*
X126325238Y-141521666D01*
X126325238Y-141640714D01*
X126301428Y-141735952D01*
X126277619Y-141783571D01*
X126253809Y-141807380D01*
X126206190Y-141831190D01*
X126158571Y-141831190D01*
X126110952Y-141807380D01*
X126087142Y-141783571D01*
X126063333Y-141735952D01*
X126039523Y-141640714D01*
X126039523Y-141521666D01*
X126063333Y-141426428D01*
X126087142Y-141378809D01*
X126110952Y-141355000D01*
X126158571Y-141331190D01*
X127674761Y-150578333D02*
X127912857Y-150578333D01*
X127627142Y-150721190D02*
X127793809Y-150221190D01*
X127960476Y-150721190D01*
X128389047Y-150721190D02*
X128103333Y-150721190D01*
X128246190Y-150721190D02*
X128246190Y-150221190D01*
X128198571Y-150292619D01*
X128150952Y-150340238D01*
X128103333Y-150364047D01*
X128865238Y-150721190D02*
X128579523Y-150721190D01*
X128722380Y-150721190D02*
X128722380Y-150221190D01*
X128674761Y-150292619D01*
X128627142Y-150340238D01*
X128579523Y-150364047D01*
X125372857Y-150578333D02*
X125610952Y-150578333D01*
X125325238Y-150721190D02*
X125491904Y-150221190D01*
X125658571Y-150721190D01*
X125849047Y-150721190D02*
X125944285Y-150721190D01*
X125991904Y-150697380D01*
X126015714Y-150673571D01*
X126063333Y-150602142D01*
X126087142Y-150506904D01*
X126087142Y-150316428D01*
X126063333Y-150268809D01*
X126039523Y-150245000D01*
X125991904Y-150221190D01*
X125896666Y-150221190D01*
X125849047Y-150245000D01*
X125825238Y-150268809D01*
X125801428Y-150316428D01*
X125801428Y-150435476D01*
X125825238Y-150483095D01*
X125849047Y-150506904D01*
X125896666Y-150530714D01*
X125991904Y-150530714D01*
X126039523Y-150506904D01*
X126063333Y-150483095D01*
X126087142Y-150435476D01*
X122832857Y-141688333D02*
X123070952Y-141688333D01*
X122785238Y-141831190D02*
X122951904Y-141331190D01*
X123118571Y-141831190D01*
X123356666Y-141545476D02*
X123309047Y-141521666D01*
X123285238Y-141497857D01*
X123261428Y-141450238D01*
X123261428Y-141426428D01*
X123285238Y-141378809D01*
X123309047Y-141355000D01*
X123356666Y-141331190D01*
X123451904Y-141331190D01*
X123499523Y-141355000D01*
X123523333Y-141378809D01*
X123547142Y-141426428D01*
X123547142Y-141450238D01*
X123523333Y-141497857D01*
X123499523Y-141521666D01*
X123451904Y-141545476D01*
X123356666Y-141545476D01*
X123309047Y-141569285D01*
X123285238Y-141593095D01*
X123261428Y-141640714D01*
X123261428Y-141735952D01*
X123285238Y-141783571D01*
X123309047Y-141807380D01*
X123356666Y-141831190D01*
X123451904Y-141831190D01*
X123499523Y-141807380D01*
X123523333Y-141783571D01*
X123547142Y-141735952D01*
X123547142Y-141640714D01*
X123523333Y-141593095D01*
X123499523Y-141569285D01*
X123451904Y-141545476D01*
X119685714Y-141082500D02*
X120185714Y-141082500D01*
X120090476Y-141831190D02*
X119923809Y-141593095D01*
X119804761Y-141831190D02*
X119804761Y-141331190D01*
X119995238Y-141331190D01*
X120042857Y-141355000D01*
X120066666Y-141378809D01*
X120090476Y-141426428D01*
X120090476Y-141497857D01*
X120066666Y-141545476D01*
X120042857Y-141569285D01*
X119995238Y-141593095D01*
X119804761Y-141593095D01*
X120185714Y-141082500D02*
X120614285Y-141082500D01*
X120471428Y-141569285D02*
X120304761Y-141569285D01*
X120304761Y-141831190D02*
X120304761Y-141331190D01*
X120542857Y-141331190D01*
X120614285Y-141082500D02*
X121090476Y-141082500D01*
X120709523Y-141807380D02*
X120780952Y-141831190D01*
X120900000Y-141831190D01*
X120947619Y-141807380D01*
X120971428Y-141783571D01*
X120995238Y-141735952D01*
X120995238Y-141688333D01*
X120971428Y-141640714D01*
X120947619Y-141616904D01*
X120900000Y-141593095D01*
X120804761Y-141569285D01*
X120757142Y-141545476D01*
X120733333Y-141521666D01*
X120709523Y-141474047D01*
X120709523Y-141426428D01*
X120733333Y-141378809D01*
X120757142Y-141355000D01*
X120804761Y-141331190D01*
X120923809Y-141331190D01*
X120995238Y-141355000D01*
X121090476Y-141082500D02*
X121614285Y-141082500D01*
X121209523Y-141831190D02*
X121209523Y-141331190D01*
X121209523Y-141569285D02*
X121495238Y-141569285D01*
X121495238Y-141831190D02*
X121495238Y-141331190D01*
X117586190Y-141082500D02*
X118157619Y-141082500D01*
X117705238Y-141831190D02*
X117705238Y-141331190D01*
X117871904Y-141688333D01*
X118038571Y-141331190D01*
X118038571Y-141831190D01*
X118157619Y-141082500D02*
X118633809Y-141082500D01*
X118538571Y-141831190D02*
X118252857Y-141831190D01*
X118395714Y-141831190D02*
X118395714Y-141331190D01*
X118348095Y-141402619D01*
X118300476Y-141450238D01*
X118252857Y-141474047D01*
X114450952Y-141640714D02*
X114831904Y-141640714D01*
X114641428Y-141831190D02*
X114641428Y-141450238D01*
X115331904Y-141831190D02*
X115046190Y-141831190D01*
X115189047Y-141831190D02*
X115189047Y-141331190D01*
X115141428Y-141402619D01*
X115093809Y-141450238D01*
X115046190Y-141474047D01*
X115522380Y-141378809D02*
X115546190Y-141355000D01*
X115593809Y-141331190D01*
X115712857Y-141331190D01*
X115760476Y-141355000D01*
X115784285Y-141378809D01*
X115808095Y-141426428D01*
X115808095Y-141474047D01*
X115784285Y-141545476D01*
X115498571Y-141831190D01*
X115808095Y-141831190D01*
X115974761Y-141497857D02*
X116093809Y-141831190D01*
X116212857Y-141497857D01*
X116403333Y-141331190D02*
X116403333Y-141735952D01*
X116427142Y-141783571D01*
X116450952Y-141807380D01*
X116498571Y-141831190D01*
X116593809Y-141831190D01*
X116641428Y-141807380D01*
X116665238Y-141783571D01*
X116689047Y-141735952D01*
X116689047Y-141331190D01*
D11*
X122018571Y-150077000D02*
X122418571Y-150077000D01*
X122247142Y-150466428D02*
X122304285Y-150485476D01*
X122323333Y-150504523D01*
X122342380Y-150542619D01*
X122342380Y-150599761D01*
X122323333Y-150637857D01*
X122304285Y-150656904D01*
X122266190Y-150675952D01*
X122113809Y-150675952D01*
X122113809Y-150275952D01*
X122247142Y-150275952D01*
X122285238Y-150295000D01*
X122304285Y-150314047D01*
X122323333Y-150352142D01*
X122323333Y-150390238D01*
X122304285Y-150428333D01*
X122285238Y-150447380D01*
X122247142Y-150466428D01*
X122113809Y-150466428D01*
X122418571Y-150077000D02*
X122837619Y-150077000D01*
X122513809Y-150275952D02*
X122513809Y-150599761D01*
X122532857Y-150637857D01*
X122551904Y-150656904D01*
X122590000Y-150675952D01*
X122666190Y-150675952D01*
X122704285Y-150656904D01*
X122723333Y-150637857D01*
X122742380Y-150599761D01*
X122742380Y-150275952D01*
X122837619Y-150077000D02*
X123218571Y-150077000D01*
X122913809Y-150656904D02*
X122970952Y-150675952D01*
X123066190Y-150675952D01*
X123104285Y-150656904D01*
X123123333Y-150637857D01*
X123142380Y-150599761D01*
X123142380Y-150561666D01*
X123123333Y-150523571D01*
X123104285Y-150504523D01*
X123066190Y-150485476D01*
X122990000Y-150466428D01*
X122951904Y-150447380D01*
X122932857Y-150428333D01*
X122913809Y-150390238D01*
X122913809Y-150352142D01*
X122932857Y-150314047D01*
X122951904Y-150295000D01*
X122990000Y-150275952D01*
X123085238Y-150275952D01*
X123142380Y-150295000D01*
X123218571Y-150077000D02*
X123561428Y-150077000D01*
X123294761Y-150561666D02*
X123485238Y-150561666D01*
X123256666Y-150675952D02*
X123390000Y-150275952D01*
X123523333Y-150675952D01*
X123561428Y-150077000D02*
X123961428Y-150077000D01*
X123885238Y-150637857D02*
X123866190Y-150656904D01*
X123809047Y-150675952D01*
X123770952Y-150675952D01*
X123713809Y-150656904D01*
X123675714Y-150618809D01*
X123656666Y-150580714D01*
X123637619Y-150504523D01*
X123637619Y-150447380D01*
X123656666Y-150371190D01*
X123675714Y-150333095D01*
X123713809Y-150295000D01*
X123770952Y-150275952D01*
X123809047Y-150275952D01*
X123866190Y-150295000D01*
X123885238Y-150314047D01*
X123961428Y-150077000D02*
X124361428Y-150077000D01*
X124056666Y-150675952D02*
X124056666Y-150275952D01*
X124285238Y-150675952D02*
X124113809Y-150447380D01*
X124285238Y-150275952D02*
X124056666Y-150504523D01*
X119621428Y-150077000D02*
X120021428Y-150077000D01*
X119945238Y-150675952D02*
X119811904Y-150485476D01*
X119716666Y-150675952D02*
X119716666Y-150275952D01*
X119869047Y-150275952D01*
X119907142Y-150295000D01*
X119926190Y-150314047D01*
X119945238Y-150352142D01*
X119945238Y-150409285D01*
X119926190Y-150447380D01*
X119907142Y-150466428D01*
X119869047Y-150485476D01*
X119716666Y-150485476D01*
X120021428Y-150077000D02*
X120440476Y-150077000D01*
X120192857Y-150275952D02*
X120269047Y-150275952D01*
X120307142Y-150295000D01*
X120345238Y-150333095D01*
X120364285Y-150409285D01*
X120364285Y-150542619D01*
X120345238Y-150618809D01*
X120307142Y-150656904D01*
X120269047Y-150675952D01*
X120192857Y-150675952D01*
X120154761Y-150656904D01*
X120116666Y-150618809D01*
X120097619Y-150542619D01*
X120097619Y-150409285D01*
X120116666Y-150333095D01*
X120154761Y-150295000D01*
X120192857Y-150275952D01*
X120440476Y-150077000D02*
X120897619Y-150077000D01*
X120535714Y-150675952D02*
X120535714Y-150275952D01*
X120669047Y-150561666D01*
X120802380Y-150275952D01*
X120802380Y-150675952D01*
X120897619Y-150077000D02*
X121297619Y-150077000D01*
X121221428Y-150637857D02*
X121202380Y-150656904D01*
X121145238Y-150675952D01*
X121107142Y-150675952D01*
X121050000Y-150656904D01*
X121011904Y-150618809D01*
X120992857Y-150580714D01*
X120973809Y-150504523D01*
X120973809Y-150447380D01*
X120992857Y-150371190D01*
X121011904Y-150333095D01*
X121050000Y-150295000D01*
X121107142Y-150275952D01*
X121145238Y-150275952D01*
X121202380Y-150295000D01*
X121221428Y-150314047D01*
X121297619Y-150077000D02*
X121678571Y-150077000D01*
X121373809Y-150656904D02*
X121430952Y-150675952D01*
X121526190Y-150675952D01*
X121564285Y-150656904D01*
X121583333Y-150637857D01*
X121602380Y-150599761D01*
X121602380Y-150561666D01*
X121583333Y-150523571D01*
X121564285Y-150504523D01*
X121526190Y-150485476D01*
X121450000Y-150466428D01*
X121411904Y-150447380D01*
X121392857Y-150428333D01*
X121373809Y-150390238D01*
X121373809Y-150352142D01*
X121392857Y-150314047D01*
X121411904Y-150295000D01*
X121450000Y-150275952D01*
X121545238Y-150275952D01*
X121602380Y-150295000D01*
D10*
X117752857Y-150578333D02*
X117990952Y-150578333D01*
X117705238Y-150721190D02*
X117871904Y-150221190D01*
X118038571Y-150721190D01*
X118419523Y-150387857D02*
X118419523Y-150721190D01*
X118300476Y-150197380D02*
X118181428Y-150554523D01*
X118490952Y-150554523D01*
X115212857Y-150578333D02*
X115450952Y-150578333D01*
X115165238Y-150721190D02*
X115331904Y-150221190D01*
X115498571Y-150721190D01*
X115903333Y-150221190D02*
X115665238Y-150221190D01*
X115641428Y-150459285D01*
X115665238Y-150435476D01*
X115712857Y-150411666D01*
X115831904Y-150411666D01*
X115879523Y-150435476D01*
X115903333Y-150459285D01*
X115927142Y-150506904D01*
X115927142Y-150625952D01*
X115903333Y-150673571D01*
X115879523Y-150697380D01*
X115831904Y-150721190D01*
X115712857Y-150721190D01*
X115665238Y-150697380D01*
X115641428Y-150673571D01*
X112172857Y-141640714D02*
X112553809Y-141640714D01*
X112363333Y-141831190D02*
X112363333Y-141450238D01*
X113053809Y-141831190D02*
X112768095Y-141831190D01*
X112910952Y-141831190D02*
X112910952Y-141331190D01*
X112863333Y-141402619D01*
X112815714Y-141450238D01*
X112768095Y-141474047D01*
X113244285Y-141378809D02*
X113268095Y-141355000D01*
X113315714Y-141331190D01*
X113434761Y-141331190D01*
X113482380Y-141355000D01*
X113506190Y-141378809D01*
X113530000Y-141426428D01*
X113530000Y-141474047D01*
X113506190Y-141545476D01*
X113220476Y-141831190D01*
X113530000Y-141831190D01*
X113696666Y-141497857D02*
X113815714Y-141831190D01*
X113934761Y-141497857D01*
X109680476Y-141082500D02*
X110251904Y-141082500D01*
X109751904Y-141331190D02*
X109870952Y-141831190D01*
X109966190Y-141474047D01*
X110061428Y-141831190D01*
X110180476Y-141331190D01*
X110251904Y-141082500D02*
X110680476Y-141082500D01*
X110347142Y-141688333D02*
X110585238Y-141688333D01*
X110299523Y-141831190D02*
X110466190Y-141331190D01*
X110632857Y-141831190D01*
X110680476Y-141082500D02*
X110918571Y-141082500D01*
X110799523Y-141831190D02*
X110799523Y-141331190D01*
X110918571Y-141082500D02*
X111299523Y-141082500D01*
X110966190Y-141331190D02*
X111251904Y-141331190D01*
X111109047Y-141831190D02*
X111109047Y-141331190D01*
X107330952Y-141640714D02*
X107711904Y-141640714D01*
X108188095Y-141331190D02*
X107950000Y-141331190D01*
X107926190Y-141569285D01*
X107950000Y-141545476D01*
X107997619Y-141521666D01*
X108116666Y-141521666D01*
X108164285Y-141545476D01*
X108188095Y-141569285D01*
X108211904Y-141616904D01*
X108211904Y-141735952D01*
X108188095Y-141783571D01*
X108164285Y-141807380D01*
X108116666Y-141831190D01*
X107997619Y-141831190D01*
X107950000Y-141807380D01*
X107926190Y-141783571D01*
X108378571Y-141497857D02*
X108497619Y-141831190D01*
X108616666Y-141497857D01*
X104874285Y-141082500D02*
X105445714Y-141082500D01*
X104945714Y-141331190D02*
X105064761Y-141831190D01*
X105160000Y-141474047D01*
X105255238Y-141831190D01*
X105374285Y-141331190D01*
X105445714Y-141082500D02*
X105945714Y-141082500D01*
X105850476Y-141831190D02*
X105683809Y-141593095D01*
X105564761Y-141831190D02*
X105564761Y-141331190D01*
X105755238Y-141331190D01*
X105802857Y-141355000D01*
X105826666Y-141378809D01*
X105850476Y-141426428D01*
X105850476Y-141497857D01*
X105826666Y-141545476D01*
X105802857Y-141569285D01*
X105755238Y-141593095D01*
X105564761Y-141593095D01*
X112672857Y-150578333D02*
X112910952Y-150578333D01*
X112625238Y-150721190D02*
X112791904Y-150221190D01*
X112958571Y-150721190D01*
X113339523Y-150221190D02*
X113244285Y-150221190D01*
X113196666Y-150245000D01*
X113172857Y-150268809D01*
X113125238Y-150340238D01*
X113101428Y-150435476D01*
X113101428Y-150625952D01*
X113125238Y-150673571D01*
X113149047Y-150697380D01*
X113196666Y-150721190D01*
X113291904Y-150721190D01*
X113339523Y-150697380D01*
X113363333Y-150673571D01*
X113387142Y-150625952D01*
X113387142Y-150506904D01*
X113363333Y-150459285D01*
X113339523Y-150435476D01*
X113291904Y-150411666D01*
X113196666Y-150411666D01*
X113149047Y-150435476D01*
X113125238Y-150459285D01*
X113101428Y-150506904D01*
X110132857Y-150578333D02*
X110370952Y-150578333D01*
X110085238Y-150721190D02*
X110251904Y-150221190D01*
X110418571Y-150721190D01*
X110537619Y-150221190D02*
X110870952Y-150221190D01*
X110656666Y-150721190D01*
X106819047Y-149972500D02*
X107319047Y-149972500D01*
X107223809Y-150721190D02*
X107057142Y-150483095D01*
X106938095Y-150721190D02*
X106938095Y-150221190D01*
X107128571Y-150221190D01*
X107176190Y-150245000D01*
X107200000Y-150268809D01*
X107223809Y-150316428D01*
X107223809Y-150387857D01*
X107200000Y-150435476D01*
X107176190Y-150459285D01*
X107128571Y-150483095D01*
X106938095Y-150483095D01*
X107319047Y-149972500D02*
X107771428Y-149972500D01*
X107438095Y-150459285D02*
X107604761Y-150459285D01*
X107676190Y-150721190D02*
X107438095Y-150721190D01*
X107438095Y-150221190D01*
X107676190Y-150221190D01*
X107771428Y-149972500D02*
X108247619Y-149972500D01*
X107866666Y-150697380D02*
X107938095Y-150721190D01*
X108057142Y-150721190D01*
X108104761Y-150697380D01*
X108128571Y-150673571D01*
X108152380Y-150625952D01*
X108152380Y-150578333D01*
X108128571Y-150530714D01*
X108104761Y-150506904D01*
X108057142Y-150483095D01*
X107961904Y-150459285D01*
X107914285Y-150435476D01*
X107890476Y-150411666D01*
X107866666Y-150364047D01*
X107866666Y-150316428D01*
X107890476Y-150268809D01*
X107914285Y-150245000D01*
X107961904Y-150221190D01*
X108080952Y-150221190D01*
X108152380Y-150245000D01*
X108247619Y-149972500D02*
X108700000Y-149972500D01*
X108366666Y-150459285D02*
X108533333Y-150459285D01*
X108604761Y-150721190D02*
X108366666Y-150721190D01*
X108366666Y-150221190D01*
X108604761Y-150221190D01*
X108700000Y-149972500D02*
X109080952Y-149972500D01*
X108747619Y-150221190D02*
X109033333Y-150221190D01*
X108890476Y-150721190D02*
X108890476Y-150221190D01*
X104148095Y-149972500D02*
X104648095Y-149972500D01*
X104433809Y-150459285D02*
X104505238Y-150483095D01*
X104529047Y-150506904D01*
X104552857Y-150554523D01*
X104552857Y-150625952D01*
X104529047Y-150673571D01*
X104505238Y-150697380D01*
X104457619Y-150721190D01*
X104267142Y-150721190D01*
X104267142Y-150221190D01*
X104433809Y-150221190D01*
X104481428Y-150245000D01*
X104505238Y-150268809D01*
X104529047Y-150316428D01*
X104529047Y-150364047D01*
X104505238Y-150411666D01*
X104481428Y-150435476D01*
X104433809Y-150459285D01*
X104267142Y-150459285D01*
X104648095Y-149972500D02*
X105171904Y-149972500D01*
X104767142Y-150221190D02*
X104767142Y-150625952D01*
X104790952Y-150673571D01*
X104814761Y-150697380D01*
X104862380Y-150721190D01*
X104957619Y-150721190D01*
X105005238Y-150697380D01*
X105029047Y-150673571D01*
X105052857Y-150625952D01*
X105052857Y-150221190D01*
X105171904Y-149972500D02*
X105648095Y-149972500D01*
X105267142Y-150697380D02*
X105338571Y-150721190D01*
X105457619Y-150721190D01*
X105505238Y-150697380D01*
X105529047Y-150673571D01*
X105552857Y-150625952D01*
X105552857Y-150578333D01*
X105529047Y-150530714D01*
X105505238Y-150506904D01*
X105457619Y-150483095D01*
X105362380Y-150459285D01*
X105314761Y-150435476D01*
X105290952Y-150411666D01*
X105267142Y-150364047D01*
X105267142Y-150316428D01*
X105290952Y-150268809D01*
X105314761Y-150245000D01*
X105362380Y-150221190D01*
X105481428Y-150221190D01*
X105552857Y-150245000D01*
X105648095Y-149972500D02*
X106148095Y-149972500D01*
X106052857Y-150721190D02*
X105886190Y-150483095D01*
X105767142Y-150721190D02*
X105767142Y-150221190D01*
X105957619Y-150221190D01*
X106005238Y-150245000D01*
X106029047Y-150268809D01*
X106052857Y-150316428D01*
X106052857Y-150387857D01*
X106029047Y-150435476D01*
X106005238Y-150459285D01*
X105957619Y-150483095D01*
X105767142Y-150483095D01*
X106148095Y-149972500D02*
X106671904Y-149972500D01*
X106600476Y-150768809D02*
X106552857Y-150745000D01*
X106505238Y-150697380D01*
X106433809Y-150625952D01*
X106386190Y-150602142D01*
X106338571Y-150602142D01*
X106362380Y-150721190D02*
X106314761Y-150697380D01*
X106267142Y-150649761D01*
X106243333Y-150554523D01*
X106243333Y-150387857D01*
X106267142Y-150292619D01*
X106314761Y-150245000D01*
X106362380Y-150221190D01*
X106457619Y-150221190D01*
X106505238Y-150245000D01*
X106552857Y-150292619D01*
X106576666Y-150387857D01*
X106576666Y-150554523D01*
X106552857Y-150649761D01*
X106505238Y-150697380D01*
X106457619Y-150721190D01*
X106362380Y-150721190D01*
X102370000Y-141082500D02*
X102870000Y-141082500D01*
X102774761Y-141831190D02*
X102608095Y-141593095D01*
X102489047Y-141831190D02*
X102489047Y-141331190D01*
X102679523Y-141331190D01*
X102727142Y-141355000D01*
X102750952Y-141378809D01*
X102774761Y-141426428D01*
X102774761Y-141497857D01*
X102750952Y-141545476D01*
X102727142Y-141569285D01*
X102679523Y-141593095D01*
X102489047Y-141593095D01*
X102870000Y-141082500D02*
X103370000Y-141082500D01*
X102989047Y-141831190D02*
X102989047Y-141331190D01*
X103108095Y-141331190D01*
X103179523Y-141355000D01*
X103227142Y-141402619D01*
X103250952Y-141450238D01*
X103274761Y-141545476D01*
X103274761Y-141616904D01*
X103250952Y-141712142D01*
X103227142Y-141759761D01*
X103179523Y-141807380D01*
X103108095Y-141831190D01*
X102989047Y-141831190D01*
X99437142Y-141082500D02*
X99675238Y-141082500D01*
X99556190Y-141831190D02*
X99556190Y-141331190D01*
X99675238Y-141082500D02*
X100199047Y-141082500D01*
X99889523Y-141331190D02*
X99984761Y-141331190D01*
X100032380Y-141355000D01*
X100080000Y-141402619D01*
X100103809Y-141497857D01*
X100103809Y-141664523D01*
X100080000Y-141759761D01*
X100032380Y-141807380D01*
X99984761Y-141831190D01*
X99889523Y-141831190D01*
X99841904Y-141807380D01*
X99794285Y-141759761D01*
X99770476Y-141664523D01*
X99770476Y-141497857D01*
X99794285Y-141402619D01*
X99841904Y-141355000D01*
X99889523Y-141331190D01*
X100199047Y-141082500D02*
X100699047Y-141082500D01*
X100603809Y-141831190D02*
X100437142Y-141593095D01*
X100318095Y-141831190D02*
X100318095Y-141331190D01*
X100508571Y-141331190D01*
X100556190Y-141355000D01*
X100580000Y-141378809D01*
X100603809Y-141426428D01*
X100603809Y-141497857D01*
X100580000Y-141545476D01*
X100556190Y-141569285D01*
X100508571Y-141593095D01*
X100318095Y-141593095D01*
X100699047Y-141082500D02*
X101222857Y-141082500D01*
X101151428Y-141878809D02*
X101103809Y-141855000D01*
X101056190Y-141807380D01*
X100984761Y-141735952D01*
X100937142Y-141712142D01*
X100889523Y-141712142D01*
X100913333Y-141831190D02*
X100865714Y-141807380D01*
X100818095Y-141759761D01*
X100794285Y-141664523D01*
X100794285Y-141497857D01*
X100818095Y-141402619D01*
X100865714Y-141355000D01*
X100913333Y-141331190D01*
X101008571Y-141331190D01*
X101056190Y-141355000D01*
X101103809Y-141402619D01*
X101127619Y-141497857D01*
X101127619Y-141664523D01*
X101103809Y-141759761D01*
X101056190Y-141807380D01*
X101008571Y-141831190D01*
X100913333Y-141831190D01*
X96766190Y-141082500D02*
X97337619Y-141082500D01*
X96885238Y-141831190D02*
X96885238Y-141331190D01*
X97051904Y-141688333D01*
X97218571Y-141331190D01*
X97218571Y-141831190D01*
X97337619Y-141082500D02*
X97837619Y-141082500D01*
X97742380Y-141831190D02*
X97575714Y-141593095D01*
X97456666Y-141831190D02*
X97456666Y-141331190D01*
X97647142Y-141331190D01*
X97694761Y-141355000D01*
X97718571Y-141378809D01*
X97742380Y-141426428D01*
X97742380Y-141497857D01*
X97718571Y-141545476D01*
X97694761Y-141569285D01*
X97647142Y-141593095D01*
X97456666Y-141593095D01*
X97837619Y-141082500D02*
X98290000Y-141082500D01*
X97956666Y-141569285D02*
X98123333Y-141569285D01*
X98194761Y-141831190D02*
X97956666Y-141831190D01*
X97956666Y-141331190D01*
X98194761Y-141331190D01*
X98290000Y-141082500D02*
X98813809Y-141082500D01*
X98742380Y-141878809D02*
X98694761Y-141855000D01*
X98647142Y-141807380D01*
X98575714Y-141735952D01*
X98528095Y-141712142D01*
X98480476Y-141712142D01*
X98504285Y-141831190D02*
X98456666Y-141807380D01*
X98409047Y-141759761D01*
X98385238Y-141664523D01*
X98385238Y-141497857D01*
X98409047Y-141402619D01*
X98456666Y-141355000D01*
X98504285Y-141331190D01*
X98599523Y-141331190D01*
X98647142Y-141355000D01*
X98694761Y-141402619D01*
X98718571Y-141497857D01*
X98718571Y-141664523D01*
X98694761Y-141759761D01*
X98647142Y-141807380D01*
X98599523Y-141831190D01*
X98504285Y-141831190D01*
X94380952Y-141082500D02*
X94904761Y-141082500D01*
X94500000Y-141831190D02*
X94500000Y-141331190D01*
X94500000Y-141569285D02*
X94785714Y-141569285D01*
X94785714Y-141831190D02*
X94785714Y-141331190D01*
X94904761Y-141082500D02*
X95333333Y-141082500D01*
X95000000Y-141688333D02*
X95238095Y-141688333D01*
X94952380Y-141831190D02*
X95119047Y-141331190D01*
X95285714Y-141831190D01*
X95333333Y-141082500D02*
X95738095Y-141082500D01*
X95690476Y-141831190D02*
X95452380Y-141831190D01*
X95452380Y-141331190D01*
X95738095Y-141082500D02*
X96119047Y-141082500D01*
X95785714Y-141331190D02*
X96071428Y-141331190D01*
X95928571Y-141831190D02*
X95928571Y-141331190D01*
X102727142Y-150221190D02*
X102727142Y-150625952D01*
X102750952Y-150673571D01*
X102774761Y-150697380D01*
X102822380Y-150721190D01*
X102917619Y-150721190D01*
X102965238Y-150697380D01*
X102989047Y-150673571D01*
X103012857Y-150625952D01*
X103012857Y-150221190D01*
X100163333Y-150221190D02*
X100330000Y-150721190D01*
X100496666Y-150221190D01*
X97790000Y-150483095D02*
X97790000Y-150721190D01*
X97623333Y-150221190D02*
X97790000Y-150483095D01*
X97956666Y-150221190D01*
X94226190Y-150221190D02*
X94392857Y-150721190D01*
X94559523Y-150221190D01*
X94726190Y-150721190D02*
X94726190Y-150221190D01*
X94964285Y-150721190D02*
X94964285Y-150221190D01*
X95083333Y-150221190D01*
X95154761Y-150245000D01*
X95202380Y-150292619D01*
X95226190Y-150340238D01*
X95250000Y-150435476D01*
X95250000Y-150506904D01*
X95226190Y-150602142D01*
X95202380Y-150649761D01*
X95154761Y-150697380D01*
X95083333Y-150721190D01*
X94964285Y-150721190D01*
X95464285Y-150459285D02*
X95630952Y-150459285D01*
X95702380Y-150721190D02*
X95464285Y-150721190D01*
X95464285Y-150221190D01*
X95702380Y-150221190D01*
X96011904Y-150221190D02*
X96107142Y-150221190D01*
X96154761Y-150245000D01*
X96202380Y-150292619D01*
X96226190Y-150387857D01*
X96226190Y-150554523D01*
X96202380Y-150649761D01*
X96154761Y-150697380D01*
X96107142Y-150721190D01*
X96011904Y-150721190D01*
X95964285Y-150697380D01*
X95916666Y-150649761D01*
X95892857Y-150554523D01*
X95892857Y-150387857D01*
X95916666Y-150292619D01*
X95964285Y-150245000D01*
X96011904Y-150221190D01*
X92329047Y-150245000D02*
X92281428Y-150221190D01*
X92210000Y-150221190D01*
X92138571Y-150245000D01*
X92090952Y-150292619D01*
X92067142Y-150340238D01*
X92043333Y-150435476D01*
X92043333Y-150506904D01*
X92067142Y-150602142D01*
X92090952Y-150649761D01*
X92138571Y-150697380D01*
X92210000Y-150721190D01*
X92257619Y-150721190D01*
X92329047Y-150697380D01*
X92352857Y-150673571D01*
X92352857Y-150506904D01*
X92257619Y-150506904D01*
X92567142Y-150721190D02*
X92567142Y-150221190D01*
X92852857Y-150721190D01*
X92852857Y-150221190D01*
X93090952Y-150721190D02*
X93090952Y-150221190D01*
X93210000Y-150221190D01*
X93281428Y-150245000D01*
X93329047Y-150292619D01*
X93352857Y-150340238D01*
X93376666Y-150435476D01*
X93376666Y-150506904D01*
X93352857Y-150602142D01*
X93329047Y-150649761D01*
X93281428Y-150697380D01*
X93210000Y-150721190D01*
X93090952Y-150721190D01*
X88800952Y-149972500D02*
X89039047Y-149972500D01*
X88920000Y-150721190D02*
X88920000Y-150221190D01*
X89039047Y-149972500D02*
X89562857Y-149972500D01*
X89253333Y-150221190D02*
X89348571Y-150221190D01*
X89396190Y-150245000D01*
X89443809Y-150292619D01*
X89467619Y-150387857D01*
X89467619Y-150554523D01*
X89443809Y-150649761D01*
X89396190Y-150697380D01*
X89348571Y-150721190D01*
X89253333Y-150721190D01*
X89205714Y-150697380D01*
X89158095Y-150649761D01*
X89134285Y-150554523D01*
X89134285Y-150387857D01*
X89158095Y-150292619D01*
X89205714Y-150245000D01*
X89253333Y-150221190D01*
X89562857Y-149972500D02*
X90062857Y-149972500D01*
X89967619Y-150721190D02*
X89800952Y-150483095D01*
X89681904Y-150721190D02*
X89681904Y-150221190D01*
X89872380Y-150221190D01*
X89920000Y-150245000D01*
X89943809Y-150268809D01*
X89967619Y-150316428D01*
X89967619Y-150387857D01*
X89943809Y-150435476D01*
X89920000Y-150459285D01*
X89872380Y-150483095D01*
X89681904Y-150483095D01*
X90062857Y-149972500D02*
X90586666Y-149972500D01*
X90515238Y-150768809D02*
X90467619Y-150745000D01*
X90420000Y-150697380D01*
X90348571Y-150625952D01*
X90300952Y-150602142D01*
X90253333Y-150602142D01*
X90277142Y-150721190D02*
X90229523Y-150697380D01*
X90181904Y-150649761D01*
X90158095Y-150554523D01*
X90158095Y-150387857D01*
X90181904Y-150292619D01*
X90229523Y-150245000D01*
X90277142Y-150221190D01*
X90372380Y-150221190D01*
X90420000Y-150245000D01*
X90467619Y-150292619D01*
X90491428Y-150387857D01*
X90491428Y-150554523D01*
X90467619Y-150649761D01*
X90420000Y-150697380D01*
X90372380Y-150721190D01*
X90277142Y-150721190D01*
X90586666Y-149972500D02*
X91086666Y-149972500D01*
X90967619Y-150245000D02*
X90920000Y-150221190D01*
X90848571Y-150221190D01*
X90777142Y-150245000D01*
X90729523Y-150292619D01*
X90705714Y-150340238D01*
X90681904Y-150435476D01*
X90681904Y-150506904D01*
X90705714Y-150602142D01*
X90729523Y-150649761D01*
X90777142Y-150697380D01*
X90848571Y-150721190D01*
X90896190Y-150721190D01*
X90967619Y-150697380D01*
X90991428Y-150673571D01*
X90991428Y-150506904D01*
X90896190Y-150506904D01*
X91086666Y-149972500D02*
X91539047Y-149972500D01*
X91205714Y-150459285D02*
X91372380Y-150459285D01*
X91443809Y-150721190D02*
X91205714Y-150721190D01*
X91205714Y-150221190D01*
X91443809Y-150221190D01*
X87272857Y-150578333D02*
X87510952Y-150578333D01*
X87225238Y-150721190D02*
X87391904Y-150221190D01*
X87558571Y-150721190D01*
X87677619Y-150221190D02*
X87987142Y-150221190D01*
X87820476Y-150411666D01*
X87891904Y-150411666D01*
X87939523Y-150435476D01*
X87963333Y-150459285D01*
X87987142Y-150506904D01*
X87987142Y-150625952D01*
X87963333Y-150673571D01*
X87939523Y-150697380D01*
X87891904Y-150721190D01*
X87749047Y-150721190D01*
X87701428Y-150697380D01*
X87677619Y-150673571D01*
X92043333Y-141082500D02*
X92567142Y-141082500D01*
X92162380Y-141831190D02*
X92162380Y-141331190D01*
X92448095Y-141831190D01*
X92448095Y-141331190D01*
X92567142Y-141082500D02*
X93138571Y-141082500D01*
X92686190Y-141831190D02*
X92686190Y-141331190D01*
X92852857Y-141688333D01*
X93019523Y-141331190D01*
X93019523Y-141831190D01*
X93138571Y-141082500D02*
X93376666Y-141082500D01*
X93257619Y-141831190D02*
X93257619Y-141331190D01*
X89598571Y-141082500D02*
X89836666Y-141082500D01*
X89717619Y-141831190D02*
X89717619Y-141331190D01*
X89836666Y-141082500D02*
X90360476Y-141082500D01*
X89955714Y-141831190D02*
X89955714Y-141331190D01*
X90241428Y-141831190D01*
X90241428Y-141331190D01*
X90360476Y-141082500D02*
X90741428Y-141082500D01*
X90408095Y-141331190D02*
X90693809Y-141331190D01*
X90550952Y-141831190D02*
X90550952Y-141331190D01*
X87260952Y-141831190D02*
X87260952Y-141331190D01*
X87380000Y-141331190D01*
X87451428Y-141355000D01*
X87499047Y-141402619D01*
X87522857Y-141450238D01*
X87546666Y-141545476D01*
X87546666Y-141616904D01*
X87522857Y-141712142D01*
X87499047Y-141759761D01*
X87451428Y-141807380D01*
X87380000Y-141831190D01*
X87260952Y-141831190D01*
X87975238Y-141497857D02*
X87975238Y-141831190D01*
X87856190Y-141307380D02*
X87737142Y-141664523D01*
X88046666Y-141664523D01*
X84720952Y-141831190D02*
X84720952Y-141331190D01*
X84840000Y-141331190D01*
X84911428Y-141355000D01*
X84959047Y-141402619D01*
X84982857Y-141450238D01*
X85006666Y-141545476D01*
X85006666Y-141616904D01*
X84982857Y-141712142D01*
X84959047Y-141759761D01*
X84911428Y-141807380D01*
X84840000Y-141831190D01*
X84720952Y-141831190D01*
X85173333Y-141331190D02*
X85482857Y-141331190D01*
X85316190Y-141521666D01*
X85387619Y-141521666D01*
X85435238Y-141545476D01*
X85459047Y-141569285D01*
X85482857Y-141616904D01*
X85482857Y-141735952D01*
X85459047Y-141783571D01*
X85435238Y-141807380D01*
X85387619Y-141831190D01*
X85244761Y-141831190D01*
X85197142Y-141807380D01*
X85173333Y-141783571D01*
X84732857Y-150578333D02*
X84970952Y-150578333D01*
X84685238Y-150721190D02*
X84851904Y-150221190D01*
X85018571Y-150721190D01*
X85161428Y-150268809D02*
X85185238Y-150245000D01*
X85232857Y-150221190D01*
X85351904Y-150221190D01*
X85399523Y-150245000D01*
X85423333Y-150268809D01*
X85447142Y-150316428D01*
X85447142Y-150364047D01*
X85423333Y-150435476D01*
X85137619Y-150721190D01*
X85447142Y-150721190D01*
X82180952Y-141831190D02*
X82180952Y-141331190D01*
X82300000Y-141331190D01*
X82371428Y-141355000D01*
X82419047Y-141402619D01*
X82442857Y-141450238D01*
X82466666Y-141545476D01*
X82466666Y-141616904D01*
X82442857Y-141712142D01*
X82419047Y-141759761D01*
X82371428Y-141807380D01*
X82300000Y-141831190D01*
X82180952Y-141831190D01*
X82919047Y-141331190D02*
X82680952Y-141331190D01*
X82657142Y-141569285D01*
X82680952Y-141545476D01*
X82728571Y-141521666D01*
X82847619Y-141521666D01*
X82895238Y-141545476D01*
X82919047Y-141569285D01*
X82942857Y-141616904D01*
X82942857Y-141735952D01*
X82919047Y-141783571D01*
X82895238Y-141807380D01*
X82847619Y-141831190D01*
X82728571Y-141831190D01*
X82680952Y-141807380D01*
X82657142Y-141783571D01*
X79640952Y-141831190D02*
X79640952Y-141331190D01*
X79760000Y-141331190D01*
X79831428Y-141355000D01*
X79879047Y-141402619D01*
X79902857Y-141450238D01*
X79926666Y-141545476D01*
X79926666Y-141616904D01*
X79902857Y-141712142D01*
X79879047Y-141759761D01*
X79831428Y-141807380D01*
X79760000Y-141831190D01*
X79640952Y-141831190D01*
X80355238Y-141331190D02*
X80260000Y-141331190D01*
X80212380Y-141355000D01*
X80188571Y-141378809D01*
X80140952Y-141450238D01*
X80117142Y-141545476D01*
X80117142Y-141735952D01*
X80140952Y-141783571D01*
X80164761Y-141807380D01*
X80212380Y-141831190D01*
X80307619Y-141831190D01*
X80355238Y-141807380D01*
X80379047Y-141783571D01*
X80402857Y-141735952D01*
X80402857Y-141616904D01*
X80379047Y-141569285D01*
X80355238Y-141545476D01*
X80307619Y-141521666D01*
X80212380Y-141521666D01*
X80164761Y-141545476D01*
X80140952Y-141569285D01*
X80117142Y-141616904D01*
X77100952Y-141831190D02*
X77100952Y-141331190D01*
X77220000Y-141331190D01*
X77291428Y-141355000D01*
X77339047Y-141402619D01*
X77362857Y-141450238D01*
X77386666Y-141545476D01*
X77386666Y-141616904D01*
X77362857Y-141712142D01*
X77339047Y-141759761D01*
X77291428Y-141807380D01*
X77220000Y-141831190D01*
X77100952Y-141831190D01*
X77577142Y-141378809D02*
X77600952Y-141355000D01*
X77648571Y-141331190D01*
X77767619Y-141331190D01*
X77815238Y-141355000D01*
X77839047Y-141378809D01*
X77862857Y-141426428D01*
X77862857Y-141474047D01*
X77839047Y-141545476D01*
X77553333Y-141831190D01*
X77862857Y-141831190D01*
X82192857Y-150578333D02*
X82430952Y-150578333D01*
X82145238Y-150721190D02*
X82311904Y-150221190D01*
X82478571Y-150721190D01*
X82907142Y-150721190D02*
X82621428Y-150721190D01*
X82764285Y-150721190D02*
X82764285Y-150221190D01*
X82716666Y-150292619D01*
X82669047Y-150340238D01*
X82621428Y-150364047D01*
X79652857Y-150578333D02*
X79890952Y-150578333D01*
X79605238Y-150721190D02*
X79771904Y-150221190D01*
X79938571Y-150721190D01*
X80200476Y-150221190D02*
X80248095Y-150221190D01*
X80295714Y-150245000D01*
X80319523Y-150268809D01*
X80343333Y-150316428D01*
X80367142Y-150411666D01*
X80367142Y-150530714D01*
X80343333Y-150625952D01*
X80319523Y-150673571D01*
X80295714Y-150697380D01*
X80248095Y-150721190D01*
X80200476Y-150721190D01*
X80152857Y-150697380D01*
X80129047Y-150673571D01*
X80105238Y-150625952D01*
X80081428Y-150530714D01*
X80081428Y-150411666D01*
X80105238Y-150316428D01*
X80129047Y-150268809D01*
X80152857Y-150245000D01*
X80200476Y-150221190D01*
X77172380Y-150673571D02*
X77148571Y-150697380D01*
X77077142Y-150721190D01*
X77029523Y-150721190D01*
X76958095Y-150697380D01*
X76910476Y-150649761D01*
X76886666Y-150602142D01*
X76862857Y-150506904D01*
X76862857Y-150435476D01*
X76886666Y-150340238D01*
X76910476Y-150292619D01*
X76958095Y-150245000D01*
X77029523Y-150221190D01*
X77077142Y-150221190D01*
X77148571Y-150245000D01*
X77172380Y-150268809D01*
X77624761Y-150721190D02*
X77386666Y-150721190D01*
X77386666Y-150221190D01*
X77791428Y-150721190D02*
X77791428Y-150221190D01*
X78077142Y-150721190D02*
X77862857Y-150435476D01*
X78077142Y-150221190D02*
X77791428Y-150506904D01*
X74549047Y-150245000D02*
X74501428Y-150221190D01*
X74430000Y-150221190D01*
X74358571Y-150245000D01*
X74310952Y-150292619D01*
X74287142Y-150340238D01*
X74263333Y-150435476D01*
X74263333Y-150506904D01*
X74287142Y-150602142D01*
X74310952Y-150649761D01*
X74358571Y-150697380D01*
X74430000Y-150721190D01*
X74477619Y-150721190D01*
X74549047Y-150697380D01*
X74572857Y-150673571D01*
X74572857Y-150506904D01*
X74477619Y-150506904D01*
X74787142Y-150721190D02*
X74787142Y-150221190D01*
X75072857Y-150721190D01*
X75072857Y-150221190D01*
X75310952Y-150721190D02*
X75310952Y-150221190D01*
X75430000Y-150221190D01*
X75501428Y-150245000D01*
X75549047Y-150292619D01*
X75572857Y-150340238D01*
X75596666Y-150435476D01*
X75596666Y-150506904D01*
X75572857Y-150602142D01*
X75549047Y-150649761D01*
X75501428Y-150697380D01*
X75430000Y-150721190D01*
X75310952Y-150721190D01*
X92329047Y-150245000D02*
X92281428Y-150221190D01*
X92210000Y-150221190D01*
X92138571Y-150245000D01*
X92090952Y-150292619D01*
X92067142Y-150340238D01*
X92043333Y-150435476D01*
X92043333Y-150506904D01*
X92067142Y-150602142D01*
X92090952Y-150649761D01*
X92138571Y-150697380D01*
X92210000Y-150721190D01*
X92257619Y-150721190D01*
X92329047Y-150697380D01*
X92352857Y-150673571D01*
X92352857Y-150506904D01*
X92257619Y-150506904D01*
X92567142Y-150721190D02*
X92567142Y-150221190D01*
X92852857Y-150721190D01*
X92852857Y-150221190D01*
X93090952Y-150721190D02*
X93090952Y-150221190D01*
X93210000Y-150221190D01*
X93281428Y-150245000D01*
X93329047Y-150292619D01*
X93352857Y-150340238D01*
X93376666Y-150435476D01*
X93376666Y-150506904D01*
X93352857Y-150602142D01*
X93329047Y-150649761D01*
X93281428Y-150697380D01*
X93210000Y-150721190D01*
X93090952Y-150721190D01*
X66690952Y-150530714D02*
X67071904Y-150530714D01*
X66881428Y-150721190D02*
X66881428Y-150340238D01*
X67333809Y-150721190D02*
X67429047Y-150721190D01*
X67476666Y-150697380D01*
X67500476Y-150673571D01*
X67548095Y-150602142D01*
X67571904Y-150506904D01*
X67571904Y-150316428D01*
X67548095Y-150268809D01*
X67524285Y-150245000D01*
X67476666Y-150221190D01*
X67381428Y-150221190D01*
X67333809Y-150245000D01*
X67310000Y-150268809D01*
X67286190Y-150316428D01*
X67286190Y-150435476D01*
X67310000Y-150483095D01*
X67333809Y-150506904D01*
X67381428Y-150530714D01*
X67476666Y-150530714D01*
X67524285Y-150506904D01*
X67548095Y-150483095D01*
X67571904Y-150435476D01*
X67738571Y-150387857D02*
X67857619Y-150721190D01*
X67976666Y-150387857D01*
X64150952Y-150530714D02*
X64531904Y-150530714D01*
X64341428Y-150721190D02*
X64341428Y-150340238D01*
X65008095Y-150221190D02*
X64770000Y-150221190D01*
X64746190Y-150459285D01*
X64770000Y-150435476D01*
X64817619Y-150411666D01*
X64936666Y-150411666D01*
X64984285Y-150435476D01*
X65008095Y-150459285D01*
X65031904Y-150506904D01*
X65031904Y-150625952D01*
X65008095Y-150673571D01*
X64984285Y-150697380D01*
X64936666Y-150721190D01*
X64817619Y-150721190D01*
X64770000Y-150697380D01*
X64746190Y-150673571D01*
X65198571Y-150387857D02*
X65317619Y-150721190D01*
X65436666Y-150387857D01*
X61634761Y-150578333D02*
X61872857Y-150578333D01*
X61587142Y-150721190D02*
X61753809Y-150221190D01*
X61920476Y-150721190D01*
X62349047Y-150721190D02*
X62063333Y-150721190D01*
X62206190Y-150721190D02*
X62206190Y-150221190D01*
X62158571Y-150292619D01*
X62110952Y-150340238D01*
X62063333Y-150364047D01*
X62539523Y-150268809D02*
X62563333Y-150245000D01*
X62610952Y-150221190D01*
X62730000Y-150221190D01*
X62777619Y-150245000D01*
X62801428Y-150268809D01*
X62825238Y-150316428D01*
X62825238Y-150364047D01*
X62801428Y-150435476D01*
X62515714Y-150721190D01*
X62825238Y-150721190D01*
X59094761Y-150578333D02*
X59332857Y-150578333D01*
X59047142Y-150721190D02*
X59213809Y-150221190D01*
X59380476Y-150721190D01*
X59809047Y-150721190D02*
X59523333Y-150721190D01*
X59666190Y-150721190D02*
X59666190Y-150221190D01*
X59618571Y-150292619D01*
X59570952Y-150340238D01*
X59523333Y-150364047D01*
X60237619Y-150387857D02*
X60237619Y-150721190D01*
X60118571Y-150197380D02*
X59999523Y-150554523D01*
X60309047Y-150554523D01*
X74560952Y-141831190D02*
X74560952Y-141331190D01*
X74680000Y-141331190D01*
X74751428Y-141355000D01*
X74799047Y-141402619D01*
X74822857Y-141450238D01*
X74846666Y-141545476D01*
X74846666Y-141616904D01*
X74822857Y-141712142D01*
X74799047Y-141759761D01*
X74751428Y-141807380D01*
X74680000Y-141831190D01*
X74560952Y-141831190D01*
X75322857Y-141831190D02*
X75037142Y-141831190D01*
X75180000Y-141831190D02*
X75180000Y-141331190D01*
X75132380Y-141402619D01*
X75084761Y-141450238D01*
X75037142Y-141474047D01*
X72020952Y-141831190D02*
X72020952Y-141331190D01*
X72140000Y-141331190D01*
X72211428Y-141355000D01*
X72259047Y-141402619D01*
X72282857Y-141450238D01*
X72306666Y-141545476D01*
X72306666Y-141616904D01*
X72282857Y-141712142D01*
X72259047Y-141759761D01*
X72211428Y-141807380D01*
X72140000Y-141831190D01*
X72020952Y-141831190D01*
X72616190Y-141331190D02*
X72663809Y-141331190D01*
X72711428Y-141355000D01*
X72735238Y-141378809D01*
X72759047Y-141426428D01*
X72782857Y-141521666D01*
X72782857Y-141640714D01*
X72759047Y-141735952D01*
X72735238Y-141783571D01*
X72711428Y-141807380D01*
X72663809Y-141831190D01*
X72616190Y-141831190D01*
X72568571Y-141807380D01*
X72544761Y-141783571D01*
X72520952Y-141735952D01*
X72497142Y-141640714D01*
X72497142Y-141521666D01*
X72520952Y-141426428D01*
X72544761Y-141378809D01*
X72568571Y-141355000D01*
X72616190Y-141331190D01*
X127615238Y-141831190D02*
X127615238Y-141331190D01*
X127900952Y-141831190D01*
X127900952Y-141331190D01*
X128496190Y-141307380D02*
X128067619Y-141950238D01*
X128948571Y-141783571D02*
X128924761Y-141807380D01*
X128853333Y-141831190D01*
X128805714Y-141831190D01*
X128734285Y-141807380D01*
X128686666Y-141759761D01*
X128662857Y-141712142D01*
X128639047Y-141616904D01*
X128639047Y-141545476D01*
X128662857Y-141450238D01*
X128686666Y-141402619D01*
X128734285Y-141355000D01*
X128805714Y-141331190D01*
X128853333Y-141331190D01*
X128924761Y-141355000D01*
X128948571Y-141378809D01*
X64400952Y-141831190D02*
X64400952Y-141331190D01*
X64520000Y-141331190D01*
X64591428Y-141355000D01*
X64639047Y-141402619D01*
X64662857Y-141450238D01*
X64686666Y-141545476D01*
X64686666Y-141616904D01*
X64662857Y-141712142D01*
X64639047Y-141759761D01*
X64591428Y-141807380D01*
X64520000Y-141831190D01*
X64400952Y-141831190D01*
X64853333Y-141331190D02*
X65186666Y-141331190D01*
X64972380Y-141831190D01*
X61634761Y-141688333D02*
X61872857Y-141688333D01*
X61587142Y-141831190D02*
X61753809Y-141331190D01*
X61920476Y-141831190D01*
X62349047Y-141831190D02*
X62063333Y-141831190D01*
X62206190Y-141831190D02*
X62206190Y-141331190D01*
X62158571Y-141402619D01*
X62110952Y-141450238D01*
X62063333Y-141474047D01*
X62515714Y-141331190D02*
X62825238Y-141331190D01*
X62658571Y-141521666D01*
X62730000Y-141521666D01*
X62777619Y-141545476D01*
X62801428Y-141569285D01*
X62825238Y-141616904D01*
X62825238Y-141735952D01*
X62801428Y-141783571D01*
X62777619Y-141807380D01*
X62730000Y-141831190D01*
X62587142Y-141831190D01*
X62539523Y-141807380D01*
X62515714Y-141783571D01*
X59094761Y-141688333D02*
X59332857Y-141688333D01*
X59047142Y-141831190D02*
X59213809Y-141331190D01*
X59380476Y-141831190D01*
X59809047Y-141831190D02*
X59523333Y-141831190D01*
X59666190Y-141831190D02*
X59666190Y-141331190D01*
X59618571Y-141402619D01*
X59570952Y-141450238D01*
X59523333Y-141474047D01*
X60261428Y-141331190D02*
X60023333Y-141331190D01*
X59999523Y-141569285D01*
X60023333Y-141545476D01*
X60070952Y-141521666D01*
X60190000Y-141521666D01*
X60237619Y-141545476D01*
X60261428Y-141569285D01*
X60285238Y-141616904D01*
X60285238Y-141735952D01*
X60261428Y-141783571D01*
X60237619Y-141807380D01*
X60190000Y-141831190D01*
X60070952Y-141831190D01*
X60023333Y-141807380D01*
X59999523Y-141783571D01*
%TD*%
M02*
