%FSLAX45Y45*%
G04 Gerber Fmt 4.5, Leading zero omitted, Abs format (unit mm)*
G04 Created by KiCad (PCBNEW (5.1.9)-1) date 2021-04-20 22:40:59*
%MOMM*%
%LPD*%
G01*
G04 APERTURE LIST*
%TA.AperFunction,Profile*%
%ADD10C,0.050000*%
%TD*%
%ADD11C,0.200000*%
%ADD12C,0.300000*%
G04 APERTURE END LIST*
D10*
X5829300Y-15087600D02*
X5829300Y-14122400D01*
X12954000Y-15087600D02*
X5829300Y-15087600D01*
X12954000Y-14122400D02*
X12954000Y-15087600D01*
X5829300Y-14122400D02*
X12954000Y-14122400D01*
D11*
X5909000Y-14291000D02*
X6029000Y-14411000D01*
X6029000Y-14291000D02*
X5909000Y-14411000D01*
X5909000Y-14799000D02*
X6029000Y-14919000D01*
X6029000Y-14799000D02*
X5909000Y-14919000D01*
X6163000Y-14291000D02*
X6283000Y-14411000D01*
X6283000Y-14291000D02*
X6163000Y-14411000D01*
X6163000Y-14799000D02*
X6283000Y-14919000D01*
X6283000Y-14799000D02*
X6163000Y-14919000D01*
X6417000Y-14291000D02*
X6537000Y-14411000D01*
X6537000Y-14291000D02*
X6417000Y-14411000D01*
X6417000Y-14799000D02*
X6537000Y-14919000D01*
X6537000Y-14799000D02*
X6417000Y-14919000D01*
X6671000Y-14291000D02*
X6791000Y-14411000D01*
X6791000Y-14291000D02*
X6671000Y-14411000D01*
X6671000Y-14799000D02*
X6791000Y-14919000D01*
X6791000Y-14799000D02*
X6671000Y-14919000D01*
X7179000Y-14291000D02*
X7299000Y-14411000D01*
X7299000Y-14291000D02*
X7179000Y-14411000D01*
X7179000Y-14799000D02*
X7299000Y-14919000D01*
X7299000Y-14799000D02*
X7179000Y-14919000D01*
X7433000Y-14291000D02*
X7553000Y-14411000D01*
X7553000Y-14291000D02*
X7433000Y-14411000D01*
X7433000Y-14799000D02*
X7553000Y-14919000D01*
X7553000Y-14799000D02*
X7433000Y-14919000D01*
X7687000Y-14291000D02*
X7807000Y-14411000D01*
X7807000Y-14291000D02*
X7687000Y-14411000D01*
X7687000Y-14799000D02*
X7807000Y-14919000D01*
X7807000Y-14799000D02*
X7687000Y-14919000D01*
X7941000Y-14291000D02*
X8061000Y-14411000D01*
X8061000Y-14291000D02*
X7941000Y-14411000D01*
X7941000Y-14799000D02*
X8061000Y-14919000D01*
X8061000Y-14799000D02*
X7941000Y-14919000D01*
X8195000Y-14291000D02*
X8315000Y-14411000D01*
X8315000Y-14291000D02*
X8195000Y-14411000D01*
X8195000Y-14799000D02*
X8315000Y-14919000D01*
X8315000Y-14799000D02*
X8195000Y-14919000D01*
X8449000Y-14291000D02*
X8569000Y-14411000D01*
X8569000Y-14291000D02*
X8449000Y-14411000D01*
X8449000Y-14799000D02*
X8569000Y-14919000D01*
X8569000Y-14799000D02*
X8449000Y-14919000D01*
X8703000Y-14291000D02*
X8823000Y-14411000D01*
X8823000Y-14291000D02*
X8703000Y-14411000D01*
X8703000Y-14799000D02*
X8823000Y-14919000D01*
X8823000Y-14799000D02*
X8703000Y-14919000D01*
X8957000Y-14291000D02*
X9077000Y-14411000D01*
X9077000Y-14291000D02*
X8957000Y-14411000D01*
X8957000Y-14799000D02*
X9077000Y-14919000D01*
X9077000Y-14799000D02*
X8957000Y-14919000D01*
X9211000Y-14291000D02*
X9331000Y-14411000D01*
X9331000Y-14291000D02*
X9211000Y-14411000D01*
X9211000Y-14799000D02*
X9331000Y-14919000D01*
X9331000Y-14799000D02*
X9211000Y-14919000D01*
X9465000Y-14291000D02*
X9585000Y-14411000D01*
X9585000Y-14291000D02*
X9465000Y-14411000D01*
X9465000Y-14799000D02*
X9585000Y-14919000D01*
X9585000Y-14799000D02*
X9465000Y-14919000D01*
X9719000Y-14291000D02*
X9839000Y-14411000D01*
X9839000Y-14291000D02*
X9719000Y-14411000D01*
X9719000Y-14799000D02*
X9839000Y-14919000D01*
X9839000Y-14799000D02*
X9719000Y-14919000D01*
X9973000Y-14291000D02*
X10093000Y-14411000D01*
X10093000Y-14291000D02*
X9973000Y-14411000D01*
X9973000Y-14799000D02*
X10093000Y-14919000D01*
X10093000Y-14799000D02*
X9973000Y-14919000D01*
X10227000Y-14291000D02*
X10347000Y-14411000D01*
X10347000Y-14291000D02*
X10227000Y-14411000D01*
X10227000Y-14799000D02*
X10347000Y-14919000D01*
X10347000Y-14799000D02*
X10227000Y-14919000D01*
X10481000Y-14291000D02*
X10601000Y-14411000D01*
X10601000Y-14291000D02*
X10481000Y-14411000D01*
X10481000Y-14799000D02*
X10601000Y-14919000D01*
X10601000Y-14799000D02*
X10481000Y-14919000D01*
X10735000Y-14291000D02*
X10855000Y-14411000D01*
X10855000Y-14291000D02*
X10735000Y-14411000D01*
X10735000Y-14799000D02*
X10855000Y-14919000D01*
X10855000Y-14799000D02*
X10735000Y-14919000D01*
X10989000Y-14291000D02*
X11109000Y-14411000D01*
X11109000Y-14291000D02*
X10989000Y-14411000D01*
X10989000Y-14799000D02*
X11109000Y-14919000D01*
X11109000Y-14799000D02*
X10989000Y-14919000D01*
X11243000Y-14291000D02*
X11363000Y-14411000D01*
X11363000Y-14291000D02*
X11243000Y-14411000D01*
X11243000Y-14799000D02*
X11363000Y-14919000D01*
X11363000Y-14799000D02*
X11243000Y-14919000D01*
X11497000Y-14291000D02*
X11617000Y-14411000D01*
X11617000Y-14291000D02*
X11497000Y-14411000D01*
X11497000Y-14799000D02*
X11617000Y-14919000D01*
X11617000Y-14799000D02*
X11497000Y-14919000D01*
X11751000Y-14291000D02*
X11871000Y-14411000D01*
X11871000Y-14291000D02*
X11751000Y-14411000D01*
X11751000Y-14799000D02*
X11871000Y-14919000D01*
X11871000Y-14799000D02*
X11751000Y-14919000D01*
X12005000Y-14291000D02*
X12125000Y-14411000D01*
X12125000Y-14291000D02*
X12005000Y-14411000D01*
X12005000Y-14799000D02*
X12125000Y-14919000D01*
X12125000Y-14799000D02*
X12005000Y-14919000D01*
X12259000Y-14291000D02*
X12379000Y-14411000D01*
X12379000Y-14291000D02*
X12259000Y-14411000D01*
X12259000Y-14799000D02*
X12379000Y-14919000D01*
X12379000Y-14799000D02*
X12259000Y-14919000D01*
X12513000Y-14291000D02*
X12633000Y-14411000D01*
X12633000Y-14291000D02*
X12513000Y-14411000D01*
X12513000Y-14799000D02*
X12633000Y-14919000D01*
X12633000Y-14799000D02*
X12513000Y-14919000D01*
X12767000Y-14291000D02*
X12887000Y-14411000D01*
X12887000Y-14291000D02*
X12767000Y-14411000D01*
X12767000Y-14799000D02*
X12887000Y-14919000D01*
X12887000Y-14799000D02*
X12767000Y-14919000D01*
D12*
X6005428Y-15574714D02*
X6005428Y-15274714D01*
X6076857Y-15274714D01*
X6119714Y-15289000D01*
X6148286Y-15317571D01*
X6162571Y-15346143D01*
X6176857Y-15403286D01*
X6176857Y-15446143D01*
X6162571Y-15503286D01*
X6148286Y-15531857D01*
X6119714Y-15560428D01*
X6076857Y-15574714D01*
X6005428Y-15574714D01*
X6305428Y-15574714D02*
X6305428Y-15374714D01*
X6305428Y-15431857D02*
X6319714Y-15403286D01*
X6334000Y-15389000D01*
X6362571Y-15374714D01*
X6391143Y-15374714D01*
X6491143Y-15574714D02*
X6491143Y-15374714D01*
X6491143Y-15274714D02*
X6476857Y-15289000D01*
X6491143Y-15303286D01*
X6505428Y-15289000D01*
X6491143Y-15274714D01*
X6491143Y-15303286D01*
X6676857Y-15574714D02*
X6648286Y-15560428D01*
X6634000Y-15531857D01*
X6634000Y-15274714D01*
X6834000Y-15574714D02*
X6805428Y-15560428D01*
X6791143Y-15531857D01*
X6791143Y-15274714D01*
X7176857Y-15574714D02*
X7176857Y-15274714D01*
X7276857Y-15489000D01*
X7376857Y-15274714D01*
X7376857Y-15574714D01*
X7648286Y-15574714D02*
X7648286Y-15417571D01*
X7634000Y-15389000D01*
X7605428Y-15374714D01*
X7548286Y-15374714D01*
X7519714Y-15389000D01*
X7648286Y-15560428D02*
X7619714Y-15574714D01*
X7548286Y-15574714D01*
X7519714Y-15560428D01*
X7505428Y-15531857D01*
X7505428Y-15503286D01*
X7519714Y-15474714D01*
X7548286Y-15460428D01*
X7619714Y-15460428D01*
X7648286Y-15446143D01*
X7791143Y-15374714D02*
X7791143Y-15674714D01*
X7791143Y-15389000D02*
X7819714Y-15374714D01*
X7876857Y-15374714D01*
X7905428Y-15389000D01*
X7919714Y-15403286D01*
X7934000Y-15431857D01*
X7934000Y-15517571D01*
X7919714Y-15546143D01*
X7905428Y-15560428D01*
X7876857Y-15574714D01*
X7819714Y-15574714D01*
X7791143Y-15560428D01*
X8062571Y-15546143D02*
X8076857Y-15560428D01*
X8062571Y-15574714D01*
X8048286Y-15560428D01*
X8062571Y-15546143D01*
X8062571Y-15574714D01*
X8062571Y-15389000D02*
X8076857Y-15403286D01*
X8062571Y-15417571D01*
X8048286Y-15403286D01*
X8062571Y-15389000D01*
X8062571Y-15417571D01*
X5599000Y-16009000D02*
X5719000Y-16129000D01*
X5719000Y-16009000D02*
X5599000Y-16129000D01*
X6162571Y-16204714D02*
X5991143Y-16204714D01*
X6076857Y-16204714D02*
X6076857Y-15904714D01*
X6048286Y-15947571D01*
X6019714Y-15976143D01*
X5991143Y-15990428D01*
X6291143Y-16176143D02*
X6305428Y-16190428D01*
X6291143Y-16204714D01*
X6276857Y-16190428D01*
X6291143Y-16176143D01*
X6291143Y-16204714D01*
X6419714Y-15933286D02*
X6434000Y-15919000D01*
X6462571Y-15904714D01*
X6534000Y-15904714D01*
X6562571Y-15919000D01*
X6576857Y-15933286D01*
X6591143Y-15961857D01*
X6591143Y-15990428D01*
X6576857Y-16033286D01*
X6405428Y-16204714D01*
X6591143Y-16204714D01*
X6776857Y-15904714D02*
X6805428Y-15904714D01*
X6834000Y-15919000D01*
X6848286Y-15933286D01*
X6862571Y-15961857D01*
X6876857Y-16019000D01*
X6876857Y-16090428D01*
X6862571Y-16147571D01*
X6848286Y-16176143D01*
X6834000Y-16190428D01*
X6805428Y-16204714D01*
X6776857Y-16204714D01*
X6748286Y-16190428D01*
X6734000Y-16176143D01*
X6719714Y-16147571D01*
X6705428Y-16090428D01*
X6705428Y-16019000D01*
X6719714Y-15961857D01*
X6734000Y-15933286D01*
X6748286Y-15919000D01*
X6776857Y-15904714D01*
X7005428Y-16204714D02*
X7005428Y-16004714D01*
X7005428Y-16033286D02*
X7019714Y-16019000D01*
X7048286Y-16004714D01*
X7091143Y-16004714D01*
X7119714Y-16019000D01*
X7134000Y-16047571D01*
X7134000Y-16204714D01*
X7134000Y-16047571D02*
X7148286Y-16019000D01*
X7176857Y-16004714D01*
X7219714Y-16004714D01*
X7248286Y-16019000D01*
X7262571Y-16047571D01*
X7262571Y-16204714D01*
X7405428Y-16204714D02*
X7405428Y-16004714D01*
X7405428Y-16033286D02*
X7419714Y-16019000D01*
X7448286Y-16004714D01*
X7491143Y-16004714D01*
X7519714Y-16019000D01*
X7534000Y-16047571D01*
X7534000Y-16204714D01*
X7534000Y-16047571D02*
X7548286Y-16019000D01*
X7576857Y-16004714D01*
X7619714Y-16004714D01*
X7648286Y-16019000D01*
X7662571Y-16047571D01*
X7662571Y-16204714D01*
X8248286Y-15890428D02*
X7991143Y-16276143D01*
X8634000Y-15904714D02*
X8662571Y-15904714D01*
X8691143Y-15919000D01*
X8705429Y-15933286D01*
X8719714Y-15961857D01*
X8734000Y-16019000D01*
X8734000Y-16090428D01*
X8719714Y-16147571D01*
X8705429Y-16176143D01*
X8691143Y-16190428D01*
X8662571Y-16204714D01*
X8634000Y-16204714D01*
X8605429Y-16190428D01*
X8591143Y-16176143D01*
X8576857Y-16147571D01*
X8562571Y-16090428D01*
X8562571Y-16019000D01*
X8576857Y-15961857D01*
X8591143Y-15933286D01*
X8605429Y-15919000D01*
X8634000Y-15904714D01*
X8862571Y-16176143D02*
X8876857Y-16190428D01*
X8862571Y-16204714D01*
X8848286Y-16190428D01*
X8862571Y-16176143D01*
X8862571Y-16204714D01*
X9062571Y-15904714D02*
X9091143Y-15904714D01*
X9119714Y-15919000D01*
X9134000Y-15933286D01*
X9148286Y-15961857D01*
X9162571Y-16019000D01*
X9162571Y-16090428D01*
X9148286Y-16147571D01*
X9134000Y-16176143D01*
X9119714Y-16190428D01*
X9091143Y-16204714D01*
X9062571Y-16204714D01*
X9034000Y-16190428D01*
X9019714Y-16176143D01*
X9005429Y-16147571D01*
X8991143Y-16090428D01*
X8991143Y-16019000D01*
X9005429Y-15961857D01*
X9019714Y-15933286D01*
X9034000Y-15919000D01*
X9062571Y-15904714D01*
X9419714Y-16004714D02*
X9419714Y-16204714D01*
X9348286Y-15890428D02*
X9276857Y-16104714D01*
X9462571Y-16104714D01*
X9548286Y-15904714D02*
X9748286Y-15904714D01*
X9619714Y-16204714D01*
X9848286Y-15904714D02*
X9848286Y-15961857D01*
X9962571Y-15904714D02*
X9962571Y-15961857D01*
X10405429Y-16319000D02*
X10391143Y-16304714D01*
X10362571Y-16261857D01*
X10348286Y-16233286D01*
X10334000Y-16190428D01*
X10319714Y-16119000D01*
X10319714Y-16061857D01*
X10334000Y-15990428D01*
X10348286Y-15947571D01*
X10362571Y-15919000D01*
X10391143Y-15876143D01*
X10405429Y-15861857D01*
X10662571Y-15904714D02*
X10519714Y-15904714D01*
X10505429Y-16047571D01*
X10519714Y-16033286D01*
X10548286Y-16019000D01*
X10619714Y-16019000D01*
X10648286Y-16033286D01*
X10662571Y-16047571D01*
X10676857Y-16076143D01*
X10676857Y-16147571D01*
X10662571Y-16176143D01*
X10648286Y-16190428D01*
X10619714Y-16204714D01*
X10548286Y-16204714D01*
X10519714Y-16190428D01*
X10505429Y-16176143D01*
X10934000Y-16004714D02*
X10934000Y-16204714D01*
X10862571Y-15890428D02*
X10791143Y-16104714D01*
X10976857Y-16104714D01*
X11319714Y-16204714D02*
X11319714Y-15904714D01*
X11448286Y-16204714D02*
X11448286Y-16047571D01*
X11434000Y-16019000D01*
X11405428Y-16004714D01*
X11362571Y-16004714D01*
X11334000Y-16019000D01*
X11319714Y-16033286D01*
X11634000Y-16204714D02*
X11605428Y-16190428D01*
X11591143Y-16176143D01*
X11576857Y-16147571D01*
X11576857Y-16061857D01*
X11591143Y-16033286D01*
X11605428Y-16019000D01*
X11634000Y-16004714D01*
X11676857Y-16004714D01*
X11705428Y-16019000D01*
X11719714Y-16033286D01*
X11734000Y-16061857D01*
X11734000Y-16147571D01*
X11719714Y-16176143D01*
X11705428Y-16190428D01*
X11676857Y-16204714D01*
X11634000Y-16204714D01*
X11905428Y-16204714D02*
X11876857Y-16190428D01*
X11862571Y-16161857D01*
X11862571Y-15904714D01*
X12134000Y-16190428D02*
X12105428Y-16204714D01*
X12048286Y-16204714D01*
X12019714Y-16190428D01*
X12005428Y-16161857D01*
X12005428Y-16047571D01*
X12019714Y-16019000D01*
X12048286Y-16004714D01*
X12105428Y-16004714D01*
X12134000Y-16019000D01*
X12148286Y-16047571D01*
X12148286Y-16076143D01*
X12005428Y-16104714D01*
X12262571Y-16190428D02*
X12291143Y-16204714D01*
X12348286Y-16204714D01*
X12376857Y-16190428D01*
X12391143Y-16161857D01*
X12391143Y-16147571D01*
X12376857Y-16119000D01*
X12348286Y-16104714D01*
X12305428Y-16104714D01*
X12276857Y-16090428D01*
X12262571Y-16061857D01*
X12262571Y-16047571D01*
X12276857Y-16019000D01*
X12305428Y-16004714D01*
X12348286Y-16004714D01*
X12376857Y-16019000D01*
X12491143Y-16319000D02*
X12505428Y-16304714D01*
X12534000Y-16261857D01*
X12548286Y-16233286D01*
X12562571Y-16190428D01*
X12576857Y-16119000D01*
X12576857Y-16061857D01*
X12562571Y-15990428D01*
X12548286Y-15947571D01*
X12534000Y-15919000D01*
X12505428Y-15876143D01*
X12491143Y-15861857D01*
M02*
