M48
; DRILL file {KiCad (5.1.9)-1} date 04/20/21 22:40:59
; FORMAT={-:-/ absolute / inch / decimal}
; #@! TF.CreationDate,2021-04-20T22:40:59-04:00
; #@! TF.GenerationSoftware,Kicad,Pcbnew,(5.1.9)-1
; #@! TF.FileFunction,Plated,1,2,PTH
FMAT,2
INCH
T1C0.0472
%
G90
G05
T1
X2.35Y-5.65
X2.35Y-5.85
X2.45Y-5.65
X2.45Y-5.85
X2.55Y-5.65
X2.55Y-5.85
X2.65Y-5.65
X2.65Y-5.85
X2.85Y-5.65
X2.85Y-5.85
X2.95Y-5.65
X2.95Y-5.85
X3.05Y-5.65
X3.05Y-5.85
X3.15Y-5.65
X3.15Y-5.85
X3.25Y-5.65
X3.25Y-5.85
X3.35Y-5.65
X3.35Y-5.85
X3.45Y-5.65
X3.45Y-5.85
X3.55Y-5.65
X3.55Y-5.85
X3.65Y-5.65
X3.65Y-5.85
X3.75Y-5.65
X3.75Y-5.85
X3.85Y-5.65
X3.85Y-5.85
X3.95Y-5.65
X3.95Y-5.85
X4.05Y-5.65
X4.05Y-5.85
X4.15Y-5.65
X4.15Y-5.85
X4.25Y-5.65
X4.25Y-5.85
X4.35Y-5.65
X4.35Y-5.85
X4.45Y-5.65
X4.45Y-5.85
X4.55Y-5.65
X4.55Y-5.85
X4.65Y-5.65
X4.65Y-5.85
X4.75Y-5.65
X4.75Y-5.85
X4.85Y-5.65
X4.85Y-5.85
X4.95Y-5.65
X4.95Y-5.85
X5.05Y-5.65
X5.05Y-5.85
T0
M30
