%TF.GenerationSoftware,KiCad,Pcbnew,(5.1.9)-1*%
%TF.CreationDate,2021-04-20T22:40:55-04:00*%
%TF.ProjectId,ZXSwinSID_RISER,5a585377-696e-4534-9944-5f5249534552,rev?*%
%TF.SameCoordinates,Original*%
%TF.FileFunction,Copper,L1,Top*%
%TF.FilePolarity,Positive*%
%FSLAX46Y46*%
G04 Gerber Fmt 4.6, Leading zero omitted, Abs format (unit mm)*
G04 Created by KiCad (PCBNEW (5.1.9)-1) date 2021-04-20 22:40:55*
%MOMM*%
%LPD*%
G01*
G04 APERTURE LIST*
%TA.AperFunction,ComponentPad*%
%ADD10O,1.727200X2.800000*%
%TD*%
G04 APERTURE END LIST*
D10*
%TO.P,J2,A28*%
%TO.N,/A11*%
X128270000Y-148590000D03*
%TO.P,J2,A27*%
%TO.N,/A9*%
X125730000Y-148590000D03*
%TO.P,J2,A26*%
%TO.N,Net-(J2-PadA26)*%
X123190000Y-148590000D03*
%TO.P,J2,A25*%
%TO.N,Net-(J2-PadA25)*%
X120650000Y-148590000D03*
%TO.P,J2,A24*%
%TO.N,/A4*%
X118110000Y-148590000D03*
%TO.P,J2,A23*%
%TO.N,/A5*%
X115570000Y-148590000D03*
%TO.P,J2,A22*%
%TO.N,/A6*%
X113030000Y-148590000D03*
%TO.P,J2,A21*%
%TO.N,/A7*%
X110490000Y-148590000D03*
%TO.P,J2,A1*%
%TO.N,/A14*%
X59690000Y-148590000D03*
%TO.P,J2,A2*%
%TO.N,/A12*%
X62230000Y-148590000D03*
%TO.P,J2,A3*%
%TO.N,+5V*%
X64770000Y-148590000D03*
%TO.P,J2,A4*%
%TO.N,+9V*%
X67310000Y-148590000D03*
%TO.P,J2,A6*%
%TO.N,GND*%
X72390000Y-148590000D03*
%TO.P,J2,A7*%
X74930000Y-148590000D03*
%TO.P,J2,A8*%
%TO.N,/~CLKCPU*%
X77470000Y-148590000D03*
%TO.P,J2,A9*%
%TO.N,/A0*%
X80010000Y-148590000D03*
%TO.P,J2,A10*%
%TO.N,/A1*%
X82550000Y-148590000D03*
%TO.P,J2,A11*%
%TO.N,/A2*%
X85090000Y-148590000D03*
%TO.P,J2,A12*%
%TO.N,/A3*%
X87630000Y-148590000D03*
%TO.P,J2,A13*%
%TO.N,/~IORQGE*%
X90170000Y-148590000D03*
%TO.P,J2,A14*%
%TO.N,GND*%
X92710000Y-148590000D03*
%TO.P,J2,A15*%
%TO.N,Net-(J2-PadA15)*%
X95250000Y-148590000D03*
%TO.P,J2,A16*%
%TO.N,Net-(J2-PadA16)*%
X97790000Y-148590000D03*
%TO.P,J2,A17*%
%TO.N,Net-(J2-PadA17)*%
X100330000Y-148590000D03*
%TO.P,J2,A18*%
%TO.N,Net-(J2-PadA18)*%
X102870000Y-148590000D03*
%TO.P,J2,A19*%
%TO.N,Net-(J2-PadA19)*%
X105410000Y-148590000D03*
%TO.P,J2,A20*%
%TO.N,/~RST*%
X107950000Y-148590000D03*
%TO.P,J2,B28*%
%TO.N,Net-(J2-PadB28)*%
X128270000Y-143510000D03*
%TO.P,J2,B27*%
%TO.N,/A10*%
X125730000Y-143510000D03*
%TO.P,J2,B26*%
%TO.N,/A8*%
X123190000Y-143510000D03*
%TO.P,J2,B25*%
%TO.N,Net-(J2-PadB25)*%
X120650000Y-143510000D03*
%TO.P,J2,B24*%
%TO.N,Net-(J2-PadB24)*%
X118110000Y-143510000D03*
%TO.P,J2,B23*%
%TO.N,Net-(J2-PadB23)*%
X115570000Y-143510000D03*
%TO.P,J2,B22*%
%TO.N,+12V*%
X113030000Y-143510000D03*
%TO.P,J2,B21*%
%TO.N,/~WAIT*%
X110490000Y-143510000D03*
%TO.P,J2,B1*%
%TO.N,/A15*%
X59690000Y-143510000D03*
%TO.P,J2,B2*%
%TO.N,/A13*%
X62230000Y-143510000D03*
%TO.P,J2,B3*%
%TO.N,/D7*%
X64770000Y-143510000D03*
%TO.P,J2,B4*%
%TO.N,Net-(J2-PadB4)*%
X67310000Y-143510000D03*
%TO.P,J2,B6*%
%TO.N,/D0*%
X72390000Y-143510000D03*
%TO.P,J2,B7*%
%TO.N,/D1*%
X74930000Y-143510000D03*
%TO.P,J2,B8*%
%TO.N,/D2*%
X77470000Y-143510000D03*
%TO.P,J2,B9*%
%TO.N,/D6*%
X80010000Y-143510000D03*
%TO.P,J2,B10*%
%TO.N,/D5*%
X82550000Y-143510000D03*
%TO.P,J2,B11*%
%TO.N,/D3*%
X85090000Y-143510000D03*
%TO.P,J2,B12*%
%TO.N,/D4*%
X87630000Y-143510000D03*
%TO.P,J2,B13*%
%TO.N,Net-(J2-PadB13)*%
X90170000Y-143510000D03*
%TO.P,J2,B14*%
%TO.N,Net-(J2-PadB14)*%
X92710000Y-143510000D03*
%TO.P,J2,B15*%
%TO.N,Net-(J2-PadB15)*%
X95250000Y-143510000D03*
%TO.P,J2,B16*%
%TO.N,Net-(J2-PadB16)*%
X97790000Y-143510000D03*
%TO.P,J2,B17*%
%TO.N,/~IORQ*%
X100330000Y-143510000D03*
%TO.P,J2,B18*%
%TO.N,/~RD*%
X102870000Y-143510000D03*
%TO.P,J2,B19*%
%TO.N,/~WR*%
X105410000Y-143510000D03*
%TO.P,J2,B20*%
%TO.N,Net-(J2-PadB20)*%
X107950000Y-143510000D03*
%TD*%
M02*
