%FSLAX45Y45*%
G04 Gerber Fmt 4.5, Leading zero omitted, Abs format (unit mm)*
G04 Created by KiCad (PCBNEW (5.1.9)-1) date 2021-04-20 22:41:00*
%MOMM*%
%LPD*%
G01*
G04 APERTURE LIST*
%TA.AperFunction,Profile*%
%ADD10C,0.050000*%
%TD*%
%ADD11C,0.200000*%
%ADD12C,0.300000*%
G04 APERTURE END LIST*
D10*
X5829300Y-15087600D02*
X5829300Y-14122400D01*
X12954000Y-15087600D02*
X5829300Y-15087600D01*
X12954000Y-14122400D02*
X12954000Y-15087600D01*
X5829300Y-14122400D02*
X12954000Y-14122400D01*
D11*
D12*
X6005428Y-15574714D02*
X6005428Y-15274714D01*
X6076857Y-15274714D01*
X6119714Y-15289000D01*
X6148286Y-15317571D01*
X6162571Y-15346143D01*
X6176857Y-15403286D01*
X6176857Y-15446143D01*
X6162571Y-15503286D01*
X6148286Y-15531857D01*
X6119714Y-15560428D01*
X6076857Y-15574714D01*
X6005428Y-15574714D01*
X6305428Y-15574714D02*
X6305428Y-15374714D01*
X6305428Y-15431857D02*
X6319714Y-15403286D01*
X6334000Y-15389000D01*
X6362571Y-15374714D01*
X6391143Y-15374714D01*
X6491143Y-15574714D02*
X6491143Y-15374714D01*
X6491143Y-15274714D02*
X6476857Y-15289000D01*
X6491143Y-15303286D01*
X6505428Y-15289000D01*
X6491143Y-15274714D01*
X6491143Y-15303286D01*
X6676857Y-15574714D02*
X6648286Y-15560428D01*
X6634000Y-15531857D01*
X6634000Y-15274714D01*
X6834000Y-15574714D02*
X6805428Y-15560428D01*
X6791143Y-15531857D01*
X6791143Y-15274714D01*
X7176857Y-15574714D02*
X7176857Y-15274714D01*
X7276857Y-15489000D01*
X7376857Y-15274714D01*
X7376857Y-15574714D01*
X7648286Y-15574714D02*
X7648286Y-15417571D01*
X7634000Y-15389000D01*
X7605428Y-15374714D01*
X7548286Y-15374714D01*
X7519714Y-15389000D01*
X7648286Y-15560428D02*
X7619714Y-15574714D01*
X7548286Y-15574714D01*
X7519714Y-15560428D01*
X7505428Y-15531857D01*
X7505428Y-15503286D01*
X7519714Y-15474714D01*
X7548286Y-15460428D01*
X7619714Y-15460428D01*
X7648286Y-15446143D01*
X7791143Y-15374714D02*
X7791143Y-15674714D01*
X7791143Y-15389000D02*
X7819714Y-15374714D01*
X7876857Y-15374714D01*
X7905428Y-15389000D01*
X7919714Y-15403286D01*
X7934000Y-15431857D01*
X7934000Y-15517571D01*
X7919714Y-15546143D01*
X7905428Y-15560428D01*
X7876857Y-15574714D01*
X7819714Y-15574714D01*
X7791143Y-15560428D01*
X8062571Y-15546143D02*
X8076857Y-15560428D01*
X8062571Y-15574714D01*
X8048286Y-15560428D01*
X8062571Y-15546143D01*
X8062571Y-15574714D01*
X8062571Y-15389000D02*
X8076857Y-15403286D01*
X8062571Y-15417571D01*
X8048286Y-15403286D01*
X8062571Y-15389000D01*
X8062571Y-15417571D01*
M02*
