M48
; DRILL file {KiCad (5.1.9)-1} date 06/11/21 00:57:44
; FORMAT={-:-/ absolute / inch / decimal}
; #@! TF.CreationDate,2021-06-11T00:57:44-04:00
; #@! TF.GenerationSoftware,Kicad,Pcbnew,(5.1.9)-1
; #@! TF.FileFunction,Plated,1,2,PTH
FMAT,2
INCH
T1C0.0157
T2C0.0236
T3C0.0315
%
G90
G05
T1
X4.575Y-4.315
X4.9525Y-4.37
X5.1625Y-3.2325
X5.205Y-2.47
X5.205Y-2.6775
X5.2475Y-3.4125
X5.27Y-2.975
X5.3275Y-3.2225
X5.35Y-2.9825
X5.4Y-3.61
X5.5Y-3.61
X5.5Y-3.8925
X5.5475Y-2.935
X5.55Y-3.27
X5.57Y-3.56
X5.6Y-3.89
X5.625Y-2.9375
X5.6375Y-3.575
X5.6475Y-3.84
X5.66Y-2.9825
X5.7Y-3.285
X5.7Y-3.89
X5.755Y-3.625
X5.765Y-2.92
X5.765Y-3.855
X5.8Y-3.89
X5.84Y-3.8575
X5.855Y-4.3525
X5.87Y-3.6475
X5.9Y-3.89
X5.9025Y-3.5825
X5.9125Y-3.78
X5.9375Y-3.08
X5.94Y-3.85
X5.99Y-3.565
X5.9975Y-3.8
X6.0Y-3.89
X6.03Y-2.5825
X6.03Y-2.9875
X6.0425Y-3.6725
X6.0425Y-3.7975
X6.0825Y-2.775
X6.09Y-3.2725
X6.1025Y-3.555
X6.1325Y-3.6425
X6.145Y-2.65
X6.18Y-4.2825
X6.1825Y-2.5475
X6.1825Y-2.775
X6.2Y-3.89
X6.2125Y-3.2725
X6.2325Y-2.635
X6.2575Y-3.89
X6.2625Y-4.2575
X6.2925Y-3.41
X6.31Y-3.6625
X6.3125Y-3.2725
X6.3125Y-3.89
X6.3175Y-2.775
X6.3225Y-2.615
X6.33Y-2.65
X6.33Y-3.5575
X6.3425Y-2.445
X6.3775Y-4.275
X6.41Y-3.89
X6.4125Y-2.5075
X6.4175Y-3.6325
X6.42Y-2.775
X6.4375Y-2.65
X6.4625Y-3.8775
X6.5Y-2.46
X6.5Y-3.825
X6.5125Y-2.6175
X6.5125Y-2.905
X6.5275Y-4.2275
X6.6125Y-4.215
X6.625Y-2.475
T2
X4.2125Y-4.37
X4.6775Y-4.095
X4.8275Y-4.25
X4.9346Y-3.3254
X4.9675Y-3.83
X4.99Y-2.4875
X5.0627Y-2.8473
X5.0825Y-3.375
X5.105Y-4.2575
X5.185Y-2.84
X5.185Y-2.98
X5.255Y-3.815
X5.295Y-4.3375
X5.41Y-3.7175
X5.79Y-3.11
X5.9275Y-2.8375
X6.025Y-3.08
X6.6489Y-3.3164
X7.05Y-3.77
X7.6075Y-4.3425
T3
X4.95Y-3.5
X4.95Y-4.1
X5.05Y-3.5
X5.05Y-4.1
X5.15Y-3.5
X5.15Y-4.1
X5.25Y-2.725
X5.25Y-3.325
X5.25Y-3.5
X5.25Y-4.1
X5.35Y-2.725
X5.35Y-3.325
X5.35Y-3.5
X5.35Y-4.1
X5.45Y-2.725
X5.45Y-3.325
X5.45Y-3.5
X5.45Y-4.1
X5.55Y-2.725
X5.55Y-3.325
X5.55Y-3.5
X5.55Y-4.1
X5.65Y-2.725
X5.65Y-3.325
X5.65Y-3.5
X5.65Y-4.1
X5.75Y-2.725
X5.75Y-3.325
X5.75Y-3.5
X5.75Y-4.1
X5.85Y-2.725
X5.85Y-3.325
X5.85Y-3.5
X5.85Y-4.1
X5.95Y-2.725
X5.95Y-3.325
X5.95Y-3.5
X5.95Y-4.1
X6.05Y-2.725
X6.05Y-3.325
X6.05Y-3.5
X6.05Y-4.1
X6.15Y-2.725
X6.15Y-3.325
X6.15Y-3.5
X6.15Y-4.1
X6.25Y-2.725
X6.25Y-3.325
X6.25Y-3.5
X6.25Y-4.1
X6.35Y-2.725
X6.35Y-3.325
X6.35Y-3.5
X6.35Y-4.1
X6.45Y-2.725
X6.45Y-3.325
X6.45Y-3.5
X6.45Y-4.1
X6.55Y-2.725
X6.55Y-3.325
X6.55Y-3.5
X6.55Y-4.1
X6.65Y-3.5
X6.65Y-4.1
X6.75Y-3.5
X6.75Y-4.1
X6.85Y-3.5
X6.85Y-4.1
T0
M30
