%FSLAX45Y45*%
G04 Gerber Fmt 4.5, Leading zero omitted, Abs format (unit mm)*
G04 Created by KiCad (PCBNEW (5.1.9)-1) date 2021-06-11 00:57:44*
%MOMM*%
%LPD*%
G01*
G04 APERTURE LIST*
%TA.AperFunction,Profile*%
%ADD10C,0.050000*%
%TD*%
%ADD11C,0.200000*%
%ADD12C,0.300000*%
G04 APERTURE END LIST*
D10*
X19494500Y-6488000D02*
X17459101Y-6488000D01*
X19494500Y-11226800D02*
X19494500Y-6488000D01*
X10477500Y-6488000D02*
X12512899Y-6488000D01*
X10477500Y-11226800D02*
X10477500Y-6488000D01*
X10560050Y-11372850D02*
X10479162Y-11374025D01*
X10560050Y-11226800D02*
X10560050Y-11372850D01*
X10560050Y-11226800D02*
X10477500Y-11226800D01*
X19494500Y-11226800D02*
X19411950Y-11226800D01*
X19411950Y-11372850D02*
X19411950Y-11226800D01*
X19492625Y-11374000D02*
X19411950Y-11372850D01*
D11*
X11600500Y-10940100D02*
X11640500Y-10980100D01*
X11640500Y-10940100D02*
X11600500Y-10980100D01*
X12559350Y-11079800D02*
X12599350Y-11119800D01*
X12599350Y-11079800D02*
X12559350Y-11119800D01*
X13092750Y-8190550D02*
X13132750Y-8230550D01*
X13132750Y-8190550D02*
X13092750Y-8230550D01*
X13200700Y-6253800D02*
X13240700Y-6293800D01*
X13240700Y-6253800D02*
X13200700Y-6293800D01*
X13200700Y-6780850D02*
X13240700Y-6820850D01*
X13240700Y-6780850D02*
X13200700Y-6820850D01*
X13308650Y-8647750D02*
X13348650Y-8687750D01*
X13348650Y-8647750D02*
X13308650Y-8687750D01*
X13365800Y-7536500D02*
X13405800Y-7576500D01*
X13405800Y-7536500D02*
X13365800Y-7576500D01*
X13511850Y-8165150D02*
X13551850Y-8205150D01*
X13551850Y-8165150D02*
X13511850Y-8205150D01*
X13569000Y-7555550D02*
X13609000Y-7595550D01*
X13609000Y-7555550D02*
X13569000Y-7595550D01*
X13696000Y-9149400D02*
X13736000Y-9189400D01*
X13736000Y-9149400D02*
X13696000Y-9189400D01*
X13950000Y-9149400D02*
X13990000Y-9189400D01*
X13990000Y-9149400D02*
X13950000Y-9189400D01*
X13950000Y-9866950D02*
X13990000Y-9906950D01*
X13990000Y-9866950D02*
X13950000Y-9906950D01*
X14070650Y-7434900D02*
X14110650Y-7474900D01*
X14110650Y-7434900D02*
X14070650Y-7474900D01*
X14077000Y-8285800D02*
X14117000Y-8325800D01*
X14117000Y-8285800D02*
X14077000Y-8325800D01*
X14127800Y-9022400D02*
X14167800Y-9062400D01*
X14167800Y-9022400D02*
X14127800Y-9062400D01*
X14204000Y-9860600D02*
X14244000Y-9900600D01*
X14244000Y-9860600D02*
X14204000Y-9900600D01*
X14267500Y-7441250D02*
X14307500Y-7481250D01*
X14307500Y-7441250D02*
X14267500Y-7481250D01*
X14299250Y-9060500D02*
X14339250Y-9100500D01*
X14339250Y-9060500D02*
X14299250Y-9100500D01*
X14324650Y-9733600D02*
X14364650Y-9773600D01*
X14364650Y-9733600D02*
X14324650Y-9773600D01*
X14356400Y-7555550D02*
X14396400Y-7595550D01*
X14396400Y-7555550D02*
X14356400Y-7595550D01*
X14458000Y-8323900D02*
X14498000Y-8363900D01*
X14498000Y-8323900D02*
X14458000Y-8363900D01*
X14458000Y-9860600D02*
X14498000Y-9900600D01*
X14498000Y-9860600D02*
X14458000Y-9900600D01*
X14597700Y-9187500D02*
X14637700Y-9227500D01*
X14637700Y-9187500D02*
X14597700Y-9227500D01*
X14623100Y-7396800D02*
X14663100Y-7436800D01*
X14663100Y-7396800D02*
X14623100Y-7436800D01*
X14623100Y-9771700D02*
X14663100Y-9811700D01*
X14663100Y-9771700D02*
X14623100Y-9811700D01*
X14712000Y-9860600D02*
X14752000Y-9900600D01*
X14752000Y-9860600D02*
X14712000Y-9900600D01*
X14813600Y-9778050D02*
X14853600Y-9818050D01*
X14853600Y-9778050D02*
X14813600Y-9818050D01*
X14851700Y-11035350D02*
X14891700Y-11075350D01*
X14891700Y-11035350D02*
X14851700Y-11075350D01*
X14889800Y-9244650D02*
X14929800Y-9284650D01*
X14929800Y-9244650D02*
X14889800Y-9284650D01*
X14966000Y-9860600D02*
X15006000Y-9900600D01*
X15006000Y-9860600D02*
X14966000Y-9900600D01*
X14972350Y-9079550D02*
X15012350Y-9119550D01*
X15012350Y-9079550D02*
X14972350Y-9119550D01*
X14997750Y-9581200D02*
X15037750Y-9621200D01*
X15037750Y-9581200D02*
X14997750Y-9621200D01*
X15061250Y-7803200D02*
X15101250Y-7843200D01*
X15101250Y-7803200D02*
X15061250Y-7843200D01*
X15067600Y-9759000D02*
X15107600Y-9799000D01*
X15107600Y-9759000D02*
X15067600Y-9799000D01*
X15194600Y-9035100D02*
X15234600Y-9075100D01*
X15234600Y-9035100D02*
X15194600Y-9075100D01*
X15213650Y-9632000D02*
X15253650Y-9672000D01*
X15253650Y-9632000D02*
X15213650Y-9672000D01*
X15220000Y-9860600D02*
X15260000Y-9900600D01*
X15260000Y-9860600D02*
X15220000Y-9900600D01*
X15296200Y-6539550D02*
X15336200Y-6579550D01*
X15336200Y-6539550D02*
X15296200Y-6579550D01*
X15296200Y-7568250D02*
X15336200Y-7608250D01*
X15336200Y-7568250D02*
X15296200Y-7608250D01*
X15327950Y-9308150D02*
X15367950Y-9348150D01*
X15367950Y-9308150D02*
X15327950Y-9348150D01*
X15327950Y-9625650D02*
X15367950Y-9665650D01*
X15367950Y-9625650D02*
X15327950Y-9665650D01*
X15429550Y-7028500D02*
X15469550Y-7068500D01*
X15469550Y-7028500D02*
X15429550Y-7068500D01*
X15448600Y-8292150D02*
X15488600Y-8332150D01*
X15488600Y-8292150D02*
X15448600Y-8332150D01*
X15480350Y-9009700D02*
X15520350Y-9049700D01*
X15520350Y-9009700D02*
X15480350Y-9049700D01*
X15556550Y-9231950D02*
X15596550Y-9271950D01*
X15596550Y-9231950D02*
X15556550Y-9271950D01*
X15588300Y-6711000D02*
X15628300Y-6751000D01*
X15628300Y-6711000D02*
X15588300Y-6751000D01*
X15677200Y-10857550D02*
X15717200Y-10897550D01*
X15717200Y-10857550D02*
X15677200Y-10897550D01*
X15683550Y-6450650D02*
X15723550Y-6490650D01*
X15723550Y-6450650D02*
X15683550Y-6490650D01*
X15683550Y-7028500D02*
X15723550Y-7068500D01*
X15723550Y-7028500D02*
X15683550Y-7068500D01*
X15728000Y-9860600D02*
X15768000Y-9900600D01*
X15768000Y-9860600D02*
X15728000Y-9900600D01*
X15759750Y-8292150D02*
X15799750Y-8332150D01*
X15799750Y-8292150D02*
X15759750Y-8332150D01*
X15810550Y-6672900D02*
X15850550Y-6712900D01*
X15850550Y-6672900D02*
X15810550Y-6712900D01*
X15874050Y-9860600D02*
X15914050Y-9900600D01*
X15914050Y-9860600D02*
X15874050Y-9900600D01*
X15886750Y-10794050D02*
X15926750Y-10834050D01*
X15926750Y-10794050D02*
X15886750Y-10834050D01*
X15962950Y-8641400D02*
X16002950Y-8681400D01*
X16002950Y-8641400D02*
X15962950Y-8681400D01*
X16007400Y-9282750D02*
X16047400Y-9322750D01*
X16047400Y-9282750D02*
X16007400Y-9322750D01*
X16013750Y-8292150D02*
X16053750Y-8332150D01*
X16053750Y-8292150D02*
X16013750Y-8332150D01*
X16013750Y-9860600D02*
X16053750Y-9900600D01*
X16053750Y-9860600D02*
X16013750Y-9900600D01*
X16026450Y-7028500D02*
X16066450Y-7068500D01*
X16066450Y-7028500D02*
X16026450Y-7068500D01*
X16039150Y-6622100D02*
X16079150Y-6662100D01*
X16079150Y-6622100D02*
X16039150Y-6662100D01*
X16058200Y-6711000D02*
X16098200Y-6751000D01*
X16098200Y-6711000D02*
X16058200Y-6751000D01*
X16058200Y-9016050D02*
X16098200Y-9056050D01*
X16098200Y-9016050D02*
X16058200Y-9056050D01*
X16089950Y-6190300D02*
X16129950Y-6230300D01*
X16129950Y-6190300D02*
X16089950Y-6230300D01*
X16178850Y-10838500D02*
X16218850Y-10878500D01*
X16218850Y-10838500D02*
X16178850Y-10878500D01*
X16261400Y-9860600D02*
X16301400Y-9900600D01*
X16301400Y-9860600D02*
X16261400Y-9900600D01*
X16267750Y-6349050D02*
X16307750Y-6389050D01*
X16307750Y-6349050D02*
X16267750Y-6389050D01*
X16280450Y-9206550D02*
X16320450Y-9246550D01*
X16320450Y-9206550D02*
X16280450Y-9246550D01*
X16286800Y-7028500D02*
X16326800Y-7068500D01*
X16326800Y-7028500D02*
X16286800Y-7068500D01*
X16331250Y-6711000D02*
X16371250Y-6751000D01*
X16371250Y-6711000D02*
X16331250Y-6751000D01*
X16394750Y-9828850D02*
X16434750Y-9868850D01*
X16434750Y-9828850D02*
X16394750Y-9868850D01*
X16490000Y-6228400D02*
X16530000Y-6268400D01*
X16530000Y-6228400D02*
X16490000Y-6268400D01*
X16490000Y-9695500D02*
X16530000Y-9735500D01*
X16530000Y-9695500D02*
X16490000Y-9735500D01*
X16521750Y-6628450D02*
X16561750Y-6668450D01*
X16561750Y-6628450D02*
X16521750Y-6668450D01*
X16521750Y-7358700D02*
X16561750Y-7398700D01*
X16561750Y-7358700D02*
X16521750Y-7398700D01*
X16559850Y-10717850D02*
X16599850Y-10757850D01*
X16599850Y-10717850D02*
X16559850Y-10757850D01*
X16775750Y-10686100D02*
X16815750Y-10726100D01*
X16815750Y-10686100D02*
X16775750Y-10726100D01*
X16807500Y-6266500D02*
X16847500Y-6306500D01*
X16847500Y-6266500D02*
X16807500Y-6306500D01*
X10729750Y-11099800D02*
G75*
G03*
X10729750Y-11099800I-30000J0D01*
G01*
X11910850Y-10401300D02*
G75*
G03*
X11910850Y-10401300I-30000J0D01*
G01*
X12291850Y-10795000D02*
G75*
G03*
X12291850Y-10795000I-30000J0D01*
G01*
X12564000Y-8446400D02*
G75*
G03*
X12564000Y-8446400I-30000J0D01*
G01*
X12647450Y-9728200D02*
G75*
G03*
X12647450Y-9728200I-30000J0D01*
G01*
X12704600Y-6318250D02*
G75*
G03*
X12704600Y-6318250I-30000J0D01*
G01*
X12889200Y-7232200D02*
G75*
G03*
X12889200Y-7232200I-30000J0D01*
G01*
X12939550Y-8572500D02*
G75*
G03*
X12939550Y-8572500I-30000J0D01*
G01*
X12996700Y-10814050D02*
G75*
G03*
X12996700Y-10814050I-30000J0D01*
G01*
X13199900Y-7213600D02*
G75*
G03*
X13199900Y-7213600I-30000J0D01*
G01*
X13199900Y-7569200D02*
G75*
G03*
X13199900Y-7569200I-30000J0D01*
G01*
X13377700Y-9690100D02*
G75*
G03*
X13377700Y-9690100I-30000J0D01*
G01*
X13479300Y-11017250D02*
G75*
G03*
X13479300Y-11017250I-30000J0D01*
G01*
X13771400Y-9442450D02*
G75*
G03*
X13771400Y-9442450I-30000J0D01*
G01*
X14736600Y-7899400D02*
G75*
G03*
X14736600Y-7899400I-30000J0D01*
G01*
X15085850Y-7207250D02*
G75*
G03*
X15085850Y-7207250I-30000J0D01*
G01*
X15333500Y-7823200D02*
G75*
G03*
X15333500Y-7823200I-30000J0D01*
G01*
X16918275Y-8423725D02*
G75*
G03*
X16918275Y-8423725I-30000J0D01*
G01*
X17937000Y-9575800D02*
G75*
G03*
X17937000Y-9575800I-30000J0D01*
G01*
X19353050Y-11029950D02*
G75*
G03*
X19353050Y-11029950I-30000J0D01*
G01*
X12573000Y-8850000D02*
X12573000Y-8930000D01*
X12533000Y-8890000D02*
X12613000Y-8890000D01*
X12573000Y-10374000D02*
X12573000Y-10454000D01*
X12533000Y-10414000D02*
X12613000Y-10414000D01*
X12827000Y-8850000D02*
X12827000Y-8930000D01*
X12787000Y-8890000D02*
X12867000Y-8890000D01*
X12827000Y-10374000D02*
X12827000Y-10454000D01*
X12787000Y-10414000D02*
X12867000Y-10414000D01*
X13081000Y-8850000D02*
X13081000Y-8930000D01*
X13041000Y-8890000D02*
X13121000Y-8890000D01*
X13081000Y-10374000D02*
X13081000Y-10454000D01*
X13041000Y-10414000D02*
X13121000Y-10414000D01*
X13335000Y-6881500D02*
X13335000Y-6961500D01*
X13295000Y-6921500D02*
X13375000Y-6921500D01*
X13335000Y-8405500D02*
X13335000Y-8485500D01*
X13295000Y-8445500D02*
X13375000Y-8445500D01*
X13335000Y-8850000D02*
X13335000Y-8930000D01*
X13295000Y-8890000D02*
X13375000Y-8890000D01*
X13335000Y-10374000D02*
X13335000Y-10454000D01*
X13295000Y-10414000D02*
X13375000Y-10414000D01*
X13589000Y-6881500D02*
X13589000Y-6961500D01*
X13549000Y-6921500D02*
X13629000Y-6921500D01*
X13589000Y-8405500D02*
X13589000Y-8485500D01*
X13549000Y-8445500D02*
X13629000Y-8445500D01*
X13589000Y-8850000D02*
X13589000Y-8930000D01*
X13549000Y-8890000D02*
X13629000Y-8890000D01*
X13589000Y-10374000D02*
X13589000Y-10454000D01*
X13549000Y-10414000D02*
X13629000Y-10414000D01*
X13843000Y-6881500D02*
X13843000Y-6961500D01*
X13803000Y-6921500D02*
X13883000Y-6921500D01*
X13843000Y-8405500D02*
X13843000Y-8485500D01*
X13803000Y-8445500D02*
X13883000Y-8445500D01*
X13843000Y-8850000D02*
X13843000Y-8930000D01*
X13803000Y-8890000D02*
X13883000Y-8890000D01*
X13843000Y-10374000D02*
X13843000Y-10454000D01*
X13803000Y-10414000D02*
X13883000Y-10414000D01*
X14097000Y-6881500D02*
X14097000Y-6961500D01*
X14057000Y-6921500D02*
X14137000Y-6921500D01*
X14097000Y-8405500D02*
X14097000Y-8485500D01*
X14057000Y-8445500D02*
X14137000Y-8445500D01*
X14097000Y-8850000D02*
X14097000Y-8930000D01*
X14057000Y-8890000D02*
X14137000Y-8890000D01*
X14097000Y-10374000D02*
X14097000Y-10454000D01*
X14057000Y-10414000D02*
X14137000Y-10414000D01*
X14351000Y-6881500D02*
X14351000Y-6961500D01*
X14311000Y-6921500D02*
X14391000Y-6921500D01*
X14351000Y-8405500D02*
X14351000Y-8485500D01*
X14311000Y-8445500D02*
X14391000Y-8445500D01*
X14351000Y-8850000D02*
X14351000Y-8930000D01*
X14311000Y-8890000D02*
X14391000Y-8890000D01*
X14351000Y-10374000D02*
X14351000Y-10454000D01*
X14311000Y-10414000D02*
X14391000Y-10414000D01*
X14605000Y-6881500D02*
X14605000Y-6961500D01*
X14565000Y-6921500D02*
X14645000Y-6921500D01*
X14605000Y-8405500D02*
X14605000Y-8485500D01*
X14565000Y-8445500D02*
X14645000Y-8445500D01*
X14605000Y-8850000D02*
X14605000Y-8930000D01*
X14565000Y-8890000D02*
X14645000Y-8890000D01*
X14605000Y-10374000D02*
X14605000Y-10454000D01*
X14565000Y-10414000D02*
X14645000Y-10414000D01*
X14859000Y-6881500D02*
X14859000Y-6961500D01*
X14819000Y-6921500D02*
X14899000Y-6921500D01*
X14859000Y-8405500D02*
X14859000Y-8485500D01*
X14819000Y-8445500D02*
X14899000Y-8445500D01*
X14859000Y-8850000D02*
X14859000Y-8930000D01*
X14819000Y-8890000D02*
X14899000Y-8890000D01*
X14859000Y-10374000D02*
X14859000Y-10454000D01*
X14819000Y-10414000D02*
X14899000Y-10414000D01*
X15113000Y-6881500D02*
X15113000Y-6961500D01*
X15073000Y-6921500D02*
X15153000Y-6921500D01*
X15113000Y-8405500D02*
X15113000Y-8485500D01*
X15073000Y-8445500D02*
X15153000Y-8445500D01*
X15113000Y-8850000D02*
X15113000Y-8930000D01*
X15073000Y-8890000D02*
X15153000Y-8890000D01*
X15113000Y-10374000D02*
X15113000Y-10454000D01*
X15073000Y-10414000D02*
X15153000Y-10414000D01*
X15367000Y-6881500D02*
X15367000Y-6961500D01*
X15327000Y-6921500D02*
X15407000Y-6921500D01*
X15367000Y-8405500D02*
X15367000Y-8485500D01*
X15327000Y-8445500D02*
X15407000Y-8445500D01*
X15367000Y-8850000D02*
X15367000Y-8930000D01*
X15327000Y-8890000D02*
X15407000Y-8890000D01*
X15367000Y-10374000D02*
X15367000Y-10454000D01*
X15327000Y-10414000D02*
X15407000Y-10414000D01*
X15621000Y-6881500D02*
X15621000Y-6961500D01*
X15581000Y-6921500D02*
X15661000Y-6921500D01*
X15621000Y-8405500D02*
X15621000Y-8485500D01*
X15581000Y-8445500D02*
X15661000Y-8445500D01*
X15621000Y-8850000D02*
X15621000Y-8930000D01*
X15581000Y-8890000D02*
X15661000Y-8890000D01*
X15621000Y-10374000D02*
X15621000Y-10454000D01*
X15581000Y-10414000D02*
X15661000Y-10414000D01*
X15875000Y-6881500D02*
X15875000Y-6961500D01*
X15835000Y-6921500D02*
X15915000Y-6921500D01*
X15875000Y-8405500D02*
X15875000Y-8485500D01*
X15835000Y-8445500D02*
X15915000Y-8445500D01*
X15875000Y-8850000D02*
X15875000Y-8930000D01*
X15835000Y-8890000D02*
X15915000Y-8890000D01*
X15875000Y-10374000D02*
X15875000Y-10454000D01*
X15835000Y-10414000D02*
X15915000Y-10414000D01*
X16129000Y-6881500D02*
X16129000Y-6961500D01*
X16089000Y-6921500D02*
X16169000Y-6921500D01*
X16129000Y-8405500D02*
X16129000Y-8485500D01*
X16089000Y-8445500D02*
X16169000Y-8445500D01*
X16129000Y-8850000D02*
X16129000Y-8930000D01*
X16089000Y-8890000D02*
X16169000Y-8890000D01*
X16129000Y-10374000D02*
X16129000Y-10454000D01*
X16089000Y-10414000D02*
X16169000Y-10414000D01*
X16383000Y-6881500D02*
X16383000Y-6961500D01*
X16343000Y-6921500D02*
X16423000Y-6921500D01*
X16383000Y-8405500D02*
X16383000Y-8485500D01*
X16343000Y-8445500D02*
X16423000Y-8445500D01*
X16383000Y-8850000D02*
X16383000Y-8930000D01*
X16343000Y-8890000D02*
X16423000Y-8890000D01*
X16383000Y-10374000D02*
X16383000Y-10454000D01*
X16343000Y-10414000D02*
X16423000Y-10414000D01*
X16637000Y-6881500D02*
X16637000Y-6961500D01*
X16597000Y-6921500D02*
X16677000Y-6921500D01*
X16637000Y-8405500D02*
X16637000Y-8485500D01*
X16597000Y-8445500D02*
X16677000Y-8445500D01*
X16637000Y-8850000D02*
X16637000Y-8930000D01*
X16597000Y-8890000D02*
X16677000Y-8890000D01*
X16637000Y-10374000D02*
X16637000Y-10454000D01*
X16597000Y-10414000D02*
X16677000Y-10414000D01*
X16891000Y-8850000D02*
X16891000Y-8930000D01*
X16851000Y-8890000D02*
X16931000Y-8890000D01*
X16891000Y-10374000D02*
X16891000Y-10454000D01*
X16851000Y-10414000D02*
X16931000Y-10414000D01*
X17145000Y-8850000D02*
X17145000Y-8930000D01*
X17105000Y-8890000D02*
X17185000Y-8890000D01*
X17145000Y-10374000D02*
X17145000Y-10454000D01*
X17105000Y-10414000D02*
X17185000Y-10414000D01*
X17399000Y-8850000D02*
X17399000Y-8930000D01*
X17359000Y-8890000D02*
X17439000Y-8890000D01*
X17399000Y-10374000D02*
X17399000Y-10454000D01*
X17359000Y-10414000D02*
X17439000Y-10414000D01*
D12*
X10761428Y-12840246D02*
X10761428Y-12540246D01*
X10832857Y-12540246D01*
X10875714Y-12554532D01*
X10904286Y-12583103D01*
X10918571Y-12611675D01*
X10932857Y-12668818D01*
X10932857Y-12711675D01*
X10918571Y-12768818D01*
X10904286Y-12797389D01*
X10875714Y-12825961D01*
X10832857Y-12840246D01*
X10761428Y-12840246D01*
X11061428Y-12840246D02*
X11061428Y-12640246D01*
X11061428Y-12697389D02*
X11075714Y-12668818D01*
X11090000Y-12654532D01*
X11118571Y-12640246D01*
X11147143Y-12640246D01*
X11247143Y-12840246D02*
X11247143Y-12640246D01*
X11247143Y-12540246D02*
X11232857Y-12554532D01*
X11247143Y-12568818D01*
X11261428Y-12554532D01*
X11247143Y-12540246D01*
X11247143Y-12568818D01*
X11432857Y-12840246D02*
X11404286Y-12825961D01*
X11390000Y-12797389D01*
X11390000Y-12540246D01*
X11590000Y-12840246D02*
X11561428Y-12825961D01*
X11547143Y-12797389D01*
X11547143Y-12540246D01*
X11932857Y-12840246D02*
X11932857Y-12540246D01*
X12032857Y-12754532D01*
X12132857Y-12540246D01*
X12132857Y-12840246D01*
X12404286Y-12840246D02*
X12404286Y-12683103D01*
X12390000Y-12654532D01*
X12361428Y-12640246D01*
X12304286Y-12640246D01*
X12275714Y-12654532D01*
X12404286Y-12825961D02*
X12375714Y-12840246D01*
X12304286Y-12840246D01*
X12275714Y-12825961D01*
X12261428Y-12797389D01*
X12261428Y-12768818D01*
X12275714Y-12740246D01*
X12304286Y-12725961D01*
X12375714Y-12725961D01*
X12404286Y-12711675D01*
X12547143Y-12640246D02*
X12547143Y-12940246D01*
X12547143Y-12654532D02*
X12575714Y-12640246D01*
X12632857Y-12640246D01*
X12661428Y-12654532D01*
X12675714Y-12668818D01*
X12690000Y-12697389D01*
X12690000Y-12783103D01*
X12675714Y-12811675D01*
X12661428Y-12825961D01*
X12632857Y-12840246D01*
X12575714Y-12840246D01*
X12547143Y-12825961D01*
X12818571Y-12811675D02*
X12832857Y-12825961D01*
X12818571Y-12840246D01*
X12804286Y-12825961D01*
X12818571Y-12811675D01*
X12818571Y-12840246D01*
X12818571Y-12654532D02*
X12832857Y-12668818D01*
X12818571Y-12683103D01*
X12804286Y-12668818D01*
X12818571Y-12654532D01*
X12818571Y-12683103D01*
X10435000Y-13314532D02*
X10475000Y-13354532D01*
X10475000Y-13314532D02*
X10435000Y-13354532D01*
X10818571Y-13170246D02*
X10847143Y-13170246D01*
X10875714Y-13184532D01*
X10890000Y-13198818D01*
X10904286Y-13227389D01*
X10918571Y-13284532D01*
X10918571Y-13355961D01*
X10904286Y-13413103D01*
X10890000Y-13441675D01*
X10875714Y-13455961D01*
X10847143Y-13470246D01*
X10818571Y-13470246D01*
X10790000Y-13455961D01*
X10775714Y-13441675D01*
X10761428Y-13413103D01*
X10747143Y-13355961D01*
X10747143Y-13284532D01*
X10761428Y-13227389D01*
X10775714Y-13198818D01*
X10790000Y-13184532D01*
X10818571Y-13170246D01*
X11047143Y-13441675D02*
X11061428Y-13455961D01*
X11047143Y-13470246D01*
X11032857Y-13455961D01*
X11047143Y-13441675D01*
X11047143Y-13470246D01*
X11318571Y-13270246D02*
X11318571Y-13470246D01*
X11247143Y-13155961D02*
X11175714Y-13370246D01*
X11361428Y-13370246D01*
X11532857Y-13170246D02*
X11561428Y-13170246D01*
X11590000Y-13184532D01*
X11604286Y-13198818D01*
X11618571Y-13227389D01*
X11632857Y-13284532D01*
X11632857Y-13355961D01*
X11618571Y-13413103D01*
X11604286Y-13441675D01*
X11590000Y-13455961D01*
X11561428Y-13470246D01*
X11532857Y-13470246D01*
X11504286Y-13455961D01*
X11490000Y-13441675D01*
X11475714Y-13413103D01*
X11461428Y-13355961D01*
X11461428Y-13284532D01*
X11475714Y-13227389D01*
X11490000Y-13198818D01*
X11504286Y-13184532D01*
X11532857Y-13170246D01*
X11761428Y-13470246D02*
X11761428Y-13270246D01*
X11761428Y-13298818D02*
X11775714Y-13284532D01*
X11804286Y-13270246D01*
X11847143Y-13270246D01*
X11875714Y-13284532D01*
X11890000Y-13313103D01*
X11890000Y-13470246D01*
X11890000Y-13313103D02*
X11904286Y-13284532D01*
X11932857Y-13270246D01*
X11975714Y-13270246D01*
X12004286Y-13284532D01*
X12018571Y-13313103D01*
X12018571Y-13470246D01*
X12161428Y-13470246D02*
X12161428Y-13270246D01*
X12161428Y-13298818D02*
X12175714Y-13284532D01*
X12204286Y-13270246D01*
X12247143Y-13270246D01*
X12275714Y-13284532D01*
X12290000Y-13313103D01*
X12290000Y-13470246D01*
X12290000Y-13313103D02*
X12304286Y-13284532D01*
X12332857Y-13270246D01*
X12375714Y-13270246D01*
X12404286Y-13284532D01*
X12418571Y-13313103D01*
X12418571Y-13470246D01*
X13004286Y-13155961D02*
X12747143Y-13541675D01*
X13390000Y-13170246D02*
X13418571Y-13170246D01*
X13447143Y-13184532D01*
X13461428Y-13198818D01*
X13475714Y-13227389D01*
X13490000Y-13284532D01*
X13490000Y-13355961D01*
X13475714Y-13413103D01*
X13461428Y-13441675D01*
X13447143Y-13455961D01*
X13418571Y-13470246D01*
X13390000Y-13470246D01*
X13361428Y-13455961D01*
X13347143Y-13441675D01*
X13332857Y-13413103D01*
X13318571Y-13355961D01*
X13318571Y-13284532D01*
X13332857Y-13227389D01*
X13347143Y-13198818D01*
X13361428Y-13184532D01*
X13390000Y-13170246D01*
X13618571Y-13441675D02*
X13632857Y-13455961D01*
X13618571Y-13470246D01*
X13604286Y-13455961D01*
X13618571Y-13441675D01*
X13618571Y-13470246D01*
X13818571Y-13170246D02*
X13847143Y-13170246D01*
X13875714Y-13184532D01*
X13890000Y-13198818D01*
X13904286Y-13227389D01*
X13918571Y-13284532D01*
X13918571Y-13355961D01*
X13904286Y-13413103D01*
X13890000Y-13441675D01*
X13875714Y-13455961D01*
X13847143Y-13470246D01*
X13818571Y-13470246D01*
X13790000Y-13455961D01*
X13775714Y-13441675D01*
X13761428Y-13413103D01*
X13747143Y-13355961D01*
X13747143Y-13284532D01*
X13761428Y-13227389D01*
X13775714Y-13198818D01*
X13790000Y-13184532D01*
X13818571Y-13170246D01*
X14204286Y-13470246D02*
X14032857Y-13470246D01*
X14118571Y-13470246D02*
X14118571Y-13170246D01*
X14090000Y-13213103D01*
X14061428Y-13241675D01*
X14032857Y-13255961D01*
X14461428Y-13170246D02*
X14404286Y-13170246D01*
X14375714Y-13184532D01*
X14361428Y-13198818D01*
X14332857Y-13241675D01*
X14318571Y-13298818D01*
X14318571Y-13413103D01*
X14332857Y-13441675D01*
X14347143Y-13455961D01*
X14375714Y-13470246D01*
X14432857Y-13470246D01*
X14461428Y-13455961D01*
X14475714Y-13441675D01*
X14490000Y-13413103D01*
X14490000Y-13341675D01*
X14475714Y-13313103D01*
X14461428Y-13298818D01*
X14432857Y-13284532D01*
X14375714Y-13284532D01*
X14347143Y-13298818D01*
X14332857Y-13313103D01*
X14318571Y-13341675D01*
X14604286Y-13170246D02*
X14604286Y-13227389D01*
X14718571Y-13170246D02*
X14718571Y-13227389D01*
X15161428Y-13584532D02*
X15147143Y-13570246D01*
X15118571Y-13527389D01*
X15104286Y-13498818D01*
X15090000Y-13455961D01*
X15075714Y-13384532D01*
X15075714Y-13327389D01*
X15090000Y-13255961D01*
X15104286Y-13213103D01*
X15118571Y-13184532D01*
X15147143Y-13141675D01*
X15161428Y-13127389D01*
X15247143Y-13170246D02*
X15447143Y-13170246D01*
X15318571Y-13470246D01*
X15532857Y-13170246D02*
X15732857Y-13170246D01*
X15604286Y-13470246D01*
X16075714Y-13470246D02*
X16075714Y-13170246D01*
X16204286Y-13470246D02*
X16204286Y-13313103D01*
X16190000Y-13284532D01*
X16161428Y-13270246D01*
X16118571Y-13270246D01*
X16090000Y-13284532D01*
X16075714Y-13298818D01*
X16390000Y-13470246D02*
X16361428Y-13455961D01*
X16347143Y-13441675D01*
X16332857Y-13413103D01*
X16332857Y-13327389D01*
X16347143Y-13298818D01*
X16361428Y-13284532D01*
X16390000Y-13270246D01*
X16432857Y-13270246D01*
X16461428Y-13284532D01*
X16475714Y-13298818D01*
X16490000Y-13327389D01*
X16490000Y-13413103D01*
X16475714Y-13441675D01*
X16461428Y-13455961D01*
X16432857Y-13470246D01*
X16390000Y-13470246D01*
X16661428Y-13470246D02*
X16632857Y-13455961D01*
X16618571Y-13427389D01*
X16618571Y-13170246D01*
X16890000Y-13455961D02*
X16861428Y-13470246D01*
X16804286Y-13470246D01*
X16775714Y-13455961D01*
X16761428Y-13427389D01*
X16761428Y-13313103D01*
X16775714Y-13284532D01*
X16804286Y-13270246D01*
X16861428Y-13270246D01*
X16890000Y-13284532D01*
X16904286Y-13313103D01*
X16904286Y-13341675D01*
X16761428Y-13370246D01*
X17018571Y-13455961D02*
X17047143Y-13470246D01*
X17104286Y-13470246D01*
X17132857Y-13455961D01*
X17147143Y-13427389D01*
X17147143Y-13413103D01*
X17132857Y-13384532D01*
X17104286Y-13370246D01*
X17061428Y-13370246D01*
X17032857Y-13355961D01*
X17018571Y-13327389D01*
X17018571Y-13313103D01*
X17032857Y-13284532D01*
X17061428Y-13270246D01*
X17104286Y-13270246D01*
X17132857Y-13284532D01*
X17247143Y-13584532D02*
X17261428Y-13570246D01*
X17290000Y-13527389D01*
X17304286Y-13498818D01*
X17318571Y-13455961D01*
X17332857Y-13384532D01*
X17332857Y-13327389D01*
X17318571Y-13255961D01*
X17304286Y-13213103D01*
X17290000Y-13184532D01*
X17261428Y-13141675D01*
X17247143Y-13127389D01*
X10475000Y-13730532D02*
G75*
G03*
X10475000Y-13730532I-30000J0D01*
G01*
X10818571Y-13566246D02*
X10847143Y-13566246D01*
X10875714Y-13580532D01*
X10890000Y-13594818D01*
X10904286Y-13623389D01*
X10918571Y-13680532D01*
X10918571Y-13751961D01*
X10904286Y-13809103D01*
X10890000Y-13837675D01*
X10875714Y-13851961D01*
X10847143Y-13866246D01*
X10818571Y-13866246D01*
X10790000Y-13851961D01*
X10775714Y-13837675D01*
X10761428Y-13809103D01*
X10747143Y-13751961D01*
X10747143Y-13680532D01*
X10761428Y-13623389D01*
X10775714Y-13594818D01*
X10790000Y-13580532D01*
X10818571Y-13566246D01*
X11047143Y-13837675D02*
X11061428Y-13851961D01*
X11047143Y-13866246D01*
X11032857Y-13851961D01*
X11047143Y-13837675D01*
X11047143Y-13866246D01*
X11318571Y-13566246D02*
X11261428Y-13566246D01*
X11232857Y-13580532D01*
X11218571Y-13594818D01*
X11190000Y-13637675D01*
X11175714Y-13694818D01*
X11175714Y-13809103D01*
X11190000Y-13837675D01*
X11204286Y-13851961D01*
X11232857Y-13866246D01*
X11290000Y-13866246D01*
X11318571Y-13851961D01*
X11332857Y-13837675D01*
X11347143Y-13809103D01*
X11347143Y-13737675D01*
X11332857Y-13709103D01*
X11318571Y-13694818D01*
X11290000Y-13680532D01*
X11232857Y-13680532D01*
X11204286Y-13694818D01*
X11190000Y-13709103D01*
X11175714Y-13737675D01*
X11532857Y-13566246D02*
X11561428Y-13566246D01*
X11590000Y-13580532D01*
X11604286Y-13594818D01*
X11618571Y-13623389D01*
X11632857Y-13680532D01*
X11632857Y-13751961D01*
X11618571Y-13809103D01*
X11604286Y-13837675D01*
X11590000Y-13851961D01*
X11561428Y-13866246D01*
X11532857Y-13866246D01*
X11504286Y-13851961D01*
X11490000Y-13837675D01*
X11475714Y-13809103D01*
X11461428Y-13751961D01*
X11461428Y-13680532D01*
X11475714Y-13623389D01*
X11490000Y-13594818D01*
X11504286Y-13580532D01*
X11532857Y-13566246D01*
X11761428Y-13866246D02*
X11761428Y-13666246D01*
X11761428Y-13694818D02*
X11775714Y-13680532D01*
X11804286Y-13666246D01*
X11847143Y-13666246D01*
X11875714Y-13680532D01*
X11890000Y-13709103D01*
X11890000Y-13866246D01*
X11890000Y-13709103D02*
X11904286Y-13680532D01*
X11932857Y-13666246D01*
X11975714Y-13666246D01*
X12004286Y-13680532D01*
X12018571Y-13709103D01*
X12018571Y-13866246D01*
X12161428Y-13866246D02*
X12161428Y-13666246D01*
X12161428Y-13694818D02*
X12175714Y-13680532D01*
X12204286Y-13666246D01*
X12247143Y-13666246D01*
X12275714Y-13680532D01*
X12290000Y-13709103D01*
X12290000Y-13866246D01*
X12290000Y-13709103D02*
X12304286Y-13680532D01*
X12332857Y-13666246D01*
X12375714Y-13666246D01*
X12404286Y-13680532D01*
X12418571Y-13709103D01*
X12418571Y-13866246D01*
X13004286Y-13551961D02*
X12747143Y-13937675D01*
X13390000Y-13566246D02*
X13418571Y-13566246D01*
X13447143Y-13580532D01*
X13461428Y-13594818D01*
X13475714Y-13623389D01*
X13490000Y-13680532D01*
X13490000Y-13751961D01*
X13475714Y-13809103D01*
X13461428Y-13837675D01*
X13447143Y-13851961D01*
X13418571Y-13866246D01*
X13390000Y-13866246D01*
X13361428Y-13851961D01*
X13347143Y-13837675D01*
X13332857Y-13809103D01*
X13318571Y-13751961D01*
X13318571Y-13680532D01*
X13332857Y-13623389D01*
X13347143Y-13594818D01*
X13361428Y-13580532D01*
X13390000Y-13566246D01*
X13618571Y-13837675D02*
X13632857Y-13851961D01*
X13618571Y-13866246D01*
X13604286Y-13851961D01*
X13618571Y-13837675D01*
X13618571Y-13866246D01*
X13818571Y-13566246D02*
X13847143Y-13566246D01*
X13875714Y-13580532D01*
X13890000Y-13594818D01*
X13904286Y-13623389D01*
X13918571Y-13680532D01*
X13918571Y-13751961D01*
X13904286Y-13809103D01*
X13890000Y-13837675D01*
X13875714Y-13851961D01*
X13847143Y-13866246D01*
X13818571Y-13866246D01*
X13790000Y-13851961D01*
X13775714Y-13837675D01*
X13761428Y-13809103D01*
X13747143Y-13751961D01*
X13747143Y-13680532D01*
X13761428Y-13623389D01*
X13775714Y-13594818D01*
X13790000Y-13580532D01*
X13818571Y-13566246D01*
X14032857Y-13594818D02*
X14047143Y-13580532D01*
X14075714Y-13566246D01*
X14147143Y-13566246D01*
X14175714Y-13580532D01*
X14190000Y-13594818D01*
X14204286Y-13623389D01*
X14204286Y-13651961D01*
X14190000Y-13694818D01*
X14018571Y-13866246D01*
X14204286Y-13866246D01*
X14461428Y-13666246D02*
X14461428Y-13866246D01*
X14390000Y-13551961D02*
X14318571Y-13766246D01*
X14504286Y-13766246D01*
X14604286Y-13566246D02*
X14604286Y-13623389D01*
X14718571Y-13566246D02*
X14718571Y-13623389D01*
X15161428Y-13980532D02*
X15147143Y-13966246D01*
X15118571Y-13923389D01*
X15104286Y-13894818D01*
X15090000Y-13851961D01*
X15075714Y-13780532D01*
X15075714Y-13723389D01*
X15090000Y-13651961D01*
X15104286Y-13609103D01*
X15118571Y-13580532D01*
X15147143Y-13537675D01*
X15161428Y-13523389D01*
X15261428Y-13594818D02*
X15275714Y-13580532D01*
X15304286Y-13566246D01*
X15375714Y-13566246D01*
X15404286Y-13580532D01*
X15418571Y-13594818D01*
X15432857Y-13623389D01*
X15432857Y-13651961D01*
X15418571Y-13694818D01*
X15247143Y-13866246D01*
X15432857Y-13866246D01*
X15618571Y-13566246D02*
X15647143Y-13566246D01*
X15675714Y-13580532D01*
X15690000Y-13594818D01*
X15704286Y-13623389D01*
X15718571Y-13680532D01*
X15718571Y-13751961D01*
X15704286Y-13809103D01*
X15690000Y-13837675D01*
X15675714Y-13851961D01*
X15647143Y-13866246D01*
X15618571Y-13866246D01*
X15590000Y-13851961D01*
X15575714Y-13837675D01*
X15561428Y-13809103D01*
X15547143Y-13751961D01*
X15547143Y-13680532D01*
X15561428Y-13623389D01*
X15575714Y-13594818D01*
X15590000Y-13580532D01*
X15618571Y-13566246D01*
X16075714Y-13866246D02*
X16075714Y-13566246D01*
X16204286Y-13866246D02*
X16204286Y-13709103D01*
X16190000Y-13680532D01*
X16161428Y-13666246D01*
X16118571Y-13666246D01*
X16090000Y-13680532D01*
X16075714Y-13694818D01*
X16390000Y-13866246D02*
X16361428Y-13851961D01*
X16347143Y-13837675D01*
X16332857Y-13809103D01*
X16332857Y-13723389D01*
X16347143Y-13694818D01*
X16361428Y-13680532D01*
X16390000Y-13666246D01*
X16432857Y-13666246D01*
X16461428Y-13680532D01*
X16475714Y-13694818D01*
X16490000Y-13723389D01*
X16490000Y-13809103D01*
X16475714Y-13837675D01*
X16461428Y-13851961D01*
X16432857Y-13866246D01*
X16390000Y-13866246D01*
X16661428Y-13866246D02*
X16632857Y-13851961D01*
X16618571Y-13823389D01*
X16618571Y-13566246D01*
X16890000Y-13851961D02*
X16861428Y-13866246D01*
X16804286Y-13866246D01*
X16775714Y-13851961D01*
X16761428Y-13823389D01*
X16761428Y-13709103D01*
X16775714Y-13680532D01*
X16804286Y-13666246D01*
X16861428Y-13666246D01*
X16890000Y-13680532D01*
X16904286Y-13709103D01*
X16904286Y-13737675D01*
X16761428Y-13766246D01*
X17018571Y-13851961D02*
X17047143Y-13866246D01*
X17104286Y-13866246D01*
X17132857Y-13851961D01*
X17147143Y-13823389D01*
X17147143Y-13809103D01*
X17132857Y-13780532D01*
X17104286Y-13766246D01*
X17061428Y-13766246D01*
X17032857Y-13751961D01*
X17018571Y-13723389D01*
X17018571Y-13709103D01*
X17032857Y-13680532D01*
X17061428Y-13666246D01*
X17104286Y-13666246D01*
X17132857Y-13680532D01*
X17247143Y-13980532D02*
X17261428Y-13966246D01*
X17290000Y-13923389D01*
X17304286Y-13894818D01*
X17318571Y-13851961D01*
X17332857Y-13780532D01*
X17332857Y-13723389D01*
X17318571Y-13651961D01*
X17304286Y-13609103D01*
X17290000Y-13580532D01*
X17261428Y-13537675D01*
X17247143Y-13523389D01*
X10435000Y-14086532D02*
X10435000Y-14166532D01*
X10395000Y-14126532D02*
X10475000Y-14126532D01*
X10818571Y-13962246D02*
X10847143Y-13962246D01*
X10875714Y-13976532D01*
X10890000Y-13990818D01*
X10904286Y-14019389D01*
X10918571Y-14076532D01*
X10918571Y-14147961D01*
X10904286Y-14205103D01*
X10890000Y-14233675D01*
X10875714Y-14247961D01*
X10847143Y-14262246D01*
X10818571Y-14262246D01*
X10790000Y-14247961D01*
X10775714Y-14233675D01*
X10761428Y-14205103D01*
X10747143Y-14147961D01*
X10747143Y-14076532D01*
X10761428Y-14019389D01*
X10775714Y-13990818D01*
X10790000Y-13976532D01*
X10818571Y-13962246D01*
X11047143Y-14233675D02*
X11061428Y-14247961D01*
X11047143Y-14262246D01*
X11032857Y-14247961D01*
X11047143Y-14233675D01*
X11047143Y-14262246D01*
X11232857Y-14090818D02*
X11204286Y-14076532D01*
X11190000Y-14062246D01*
X11175714Y-14033675D01*
X11175714Y-14019389D01*
X11190000Y-13990818D01*
X11204286Y-13976532D01*
X11232857Y-13962246D01*
X11290000Y-13962246D01*
X11318571Y-13976532D01*
X11332857Y-13990818D01*
X11347143Y-14019389D01*
X11347143Y-14033675D01*
X11332857Y-14062246D01*
X11318571Y-14076532D01*
X11290000Y-14090818D01*
X11232857Y-14090818D01*
X11204286Y-14105103D01*
X11190000Y-14119389D01*
X11175714Y-14147961D01*
X11175714Y-14205103D01*
X11190000Y-14233675D01*
X11204286Y-14247961D01*
X11232857Y-14262246D01*
X11290000Y-14262246D01*
X11318571Y-14247961D01*
X11332857Y-14233675D01*
X11347143Y-14205103D01*
X11347143Y-14147961D01*
X11332857Y-14119389D01*
X11318571Y-14105103D01*
X11290000Y-14090818D01*
X11532857Y-13962246D02*
X11561428Y-13962246D01*
X11590000Y-13976532D01*
X11604286Y-13990818D01*
X11618571Y-14019389D01*
X11632857Y-14076532D01*
X11632857Y-14147961D01*
X11618571Y-14205103D01*
X11604286Y-14233675D01*
X11590000Y-14247961D01*
X11561428Y-14262246D01*
X11532857Y-14262246D01*
X11504286Y-14247961D01*
X11490000Y-14233675D01*
X11475714Y-14205103D01*
X11461428Y-14147961D01*
X11461428Y-14076532D01*
X11475714Y-14019389D01*
X11490000Y-13990818D01*
X11504286Y-13976532D01*
X11532857Y-13962246D01*
X11761428Y-14262246D02*
X11761428Y-14062246D01*
X11761428Y-14090818D02*
X11775714Y-14076532D01*
X11804286Y-14062246D01*
X11847143Y-14062246D01*
X11875714Y-14076532D01*
X11890000Y-14105103D01*
X11890000Y-14262246D01*
X11890000Y-14105103D02*
X11904286Y-14076532D01*
X11932857Y-14062246D01*
X11975714Y-14062246D01*
X12004286Y-14076532D01*
X12018571Y-14105103D01*
X12018571Y-14262246D01*
X12161428Y-14262246D02*
X12161428Y-14062246D01*
X12161428Y-14090818D02*
X12175714Y-14076532D01*
X12204286Y-14062246D01*
X12247143Y-14062246D01*
X12275714Y-14076532D01*
X12290000Y-14105103D01*
X12290000Y-14262246D01*
X12290000Y-14105103D02*
X12304286Y-14076532D01*
X12332857Y-14062246D01*
X12375714Y-14062246D01*
X12404286Y-14076532D01*
X12418571Y-14105103D01*
X12418571Y-14262246D01*
X13004286Y-13947961D02*
X12747143Y-14333675D01*
X13390000Y-13962246D02*
X13418571Y-13962246D01*
X13447143Y-13976532D01*
X13461428Y-13990818D01*
X13475714Y-14019389D01*
X13490000Y-14076532D01*
X13490000Y-14147961D01*
X13475714Y-14205103D01*
X13461428Y-14233675D01*
X13447143Y-14247961D01*
X13418571Y-14262246D01*
X13390000Y-14262246D01*
X13361428Y-14247961D01*
X13347143Y-14233675D01*
X13332857Y-14205103D01*
X13318571Y-14147961D01*
X13318571Y-14076532D01*
X13332857Y-14019389D01*
X13347143Y-13990818D01*
X13361428Y-13976532D01*
X13390000Y-13962246D01*
X13618571Y-14233675D02*
X13632857Y-14247961D01*
X13618571Y-14262246D01*
X13604286Y-14247961D01*
X13618571Y-14233675D01*
X13618571Y-14262246D01*
X13818571Y-13962246D02*
X13847143Y-13962246D01*
X13875714Y-13976532D01*
X13890000Y-13990818D01*
X13904286Y-14019389D01*
X13918571Y-14076532D01*
X13918571Y-14147961D01*
X13904286Y-14205103D01*
X13890000Y-14233675D01*
X13875714Y-14247961D01*
X13847143Y-14262246D01*
X13818571Y-14262246D01*
X13790000Y-14247961D01*
X13775714Y-14233675D01*
X13761428Y-14205103D01*
X13747143Y-14147961D01*
X13747143Y-14076532D01*
X13761428Y-14019389D01*
X13775714Y-13990818D01*
X13790000Y-13976532D01*
X13818571Y-13962246D01*
X14018571Y-13962246D02*
X14204286Y-13962246D01*
X14104286Y-14076532D01*
X14147143Y-14076532D01*
X14175714Y-14090818D01*
X14190000Y-14105103D01*
X14204286Y-14133675D01*
X14204286Y-14205103D01*
X14190000Y-14233675D01*
X14175714Y-14247961D01*
X14147143Y-14262246D01*
X14061428Y-14262246D01*
X14032857Y-14247961D01*
X14018571Y-14233675D01*
X14490000Y-14262246D02*
X14318571Y-14262246D01*
X14404286Y-14262246D02*
X14404286Y-13962246D01*
X14375714Y-14005103D01*
X14347143Y-14033675D01*
X14318571Y-14047961D01*
X14604286Y-13962246D02*
X14604286Y-14019389D01*
X14718571Y-13962246D02*
X14718571Y-14019389D01*
X15161428Y-14376532D02*
X15147143Y-14362246D01*
X15118571Y-14319389D01*
X15104286Y-14290818D01*
X15090000Y-14247961D01*
X15075714Y-14176532D01*
X15075714Y-14119389D01*
X15090000Y-14047961D01*
X15104286Y-14005103D01*
X15118571Y-13976532D01*
X15147143Y-13933675D01*
X15161428Y-13919389D01*
X15404286Y-13962246D02*
X15347143Y-13962246D01*
X15318571Y-13976532D01*
X15304286Y-13990818D01*
X15275714Y-14033675D01*
X15261428Y-14090818D01*
X15261428Y-14205103D01*
X15275714Y-14233675D01*
X15290000Y-14247961D01*
X15318571Y-14262246D01*
X15375714Y-14262246D01*
X15404286Y-14247961D01*
X15418571Y-14233675D01*
X15432857Y-14205103D01*
X15432857Y-14133675D01*
X15418571Y-14105103D01*
X15404286Y-14090818D01*
X15375714Y-14076532D01*
X15318571Y-14076532D01*
X15290000Y-14090818D01*
X15275714Y-14105103D01*
X15261428Y-14133675D01*
X15604286Y-14090818D02*
X15575714Y-14076532D01*
X15561428Y-14062246D01*
X15547143Y-14033675D01*
X15547143Y-14019389D01*
X15561428Y-13990818D01*
X15575714Y-13976532D01*
X15604286Y-13962246D01*
X15661428Y-13962246D01*
X15690000Y-13976532D01*
X15704286Y-13990818D01*
X15718571Y-14019389D01*
X15718571Y-14033675D01*
X15704286Y-14062246D01*
X15690000Y-14076532D01*
X15661428Y-14090818D01*
X15604286Y-14090818D01*
X15575714Y-14105103D01*
X15561428Y-14119389D01*
X15547143Y-14147961D01*
X15547143Y-14205103D01*
X15561428Y-14233675D01*
X15575714Y-14247961D01*
X15604286Y-14262246D01*
X15661428Y-14262246D01*
X15690000Y-14247961D01*
X15704286Y-14233675D01*
X15718571Y-14205103D01*
X15718571Y-14147961D01*
X15704286Y-14119389D01*
X15690000Y-14105103D01*
X15661428Y-14090818D01*
X16075714Y-14262246D02*
X16075714Y-13962246D01*
X16204286Y-14262246D02*
X16204286Y-14105103D01*
X16190000Y-14076532D01*
X16161428Y-14062246D01*
X16118571Y-14062246D01*
X16090000Y-14076532D01*
X16075714Y-14090818D01*
X16390000Y-14262246D02*
X16361428Y-14247961D01*
X16347143Y-14233675D01*
X16332857Y-14205103D01*
X16332857Y-14119389D01*
X16347143Y-14090818D01*
X16361428Y-14076532D01*
X16390000Y-14062246D01*
X16432857Y-14062246D01*
X16461428Y-14076532D01*
X16475714Y-14090818D01*
X16490000Y-14119389D01*
X16490000Y-14205103D01*
X16475714Y-14233675D01*
X16461428Y-14247961D01*
X16432857Y-14262246D01*
X16390000Y-14262246D01*
X16661428Y-14262246D02*
X16632857Y-14247961D01*
X16618571Y-14219389D01*
X16618571Y-13962246D01*
X16890000Y-14247961D02*
X16861428Y-14262246D01*
X16804286Y-14262246D01*
X16775714Y-14247961D01*
X16761428Y-14219389D01*
X16761428Y-14105103D01*
X16775714Y-14076532D01*
X16804286Y-14062246D01*
X16861428Y-14062246D01*
X16890000Y-14076532D01*
X16904286Y-14105103D01*
X16904286Y-14133675D01*
X16761428Y-14162246D01*
X17018571Y-14247961D02*
X17047143Y-14262246D01*
X17104286Y-14262246D01*
X17132857Y-14247961D01*
X17147143Y-14219389D01*
X17147143Y-14205103D01*
X17132857Y-14176532D01*
X17104286Y-14162246D01*
X17061428Y-14162246D01*
X17032857Y-14147961D01*
X17018571Y-14119389D01*
X17018571Y-14105103D01*
X17032857Y-14076532D01*
X17061428Y-14062246D01*
X17104286Y-14062246D01*
X17132857Y-14076532D01*
X17247143Y-14376532D02*
X17261428Y-14362246D01*
X17290000Y-14319389D01*
X17304286Y-14290818D01*
X17318571Y-14247961D01*
X17332857Y-14176532D01*
X17332857Y-14119389D01*
X17318571Y-14047961D01*
X17304286Y-14005103D01*
X17290000Y-13976532D01*
X17261428Y-13933675D01*
X17247143Y-13919389D01*
M02*
