%FSLAX45Y45*%
G04 Gerber Fmt 4.5, Leading zero omitted, Abs format (unit mm)*
G04 Created by KiCad (PCBNEW (5.1.9)-1) date 2021-06-11 00:57:44*
%MOMM*%
%LPD*%
G01*
G04 APERTURE LIST*
%TA.AperFunction,Profile*%
%ADD10C,0.050000*%
%TD*%
%ADD11C,0.200000*%
%ADD12C,0.300000*%
G04 APERTURE END LIST*
D10*
X19494500Y-6488000D02*
X17459101Y-6488000D01*
X19494500Y-11226800D02*
X19494500Y-6488000D01*
X10477500Y-6488000D02*
X12512899Y-6488000D01*
X10477500Y-11226800D02*
X10477500Y-6488000D01*
X10560050Y-11372850D02*
X10479162Y-11374025D01*
X10560050Y-11226800D02*
X10560050Y-11372850D01*
X10560050Y-11226800D02*
X10477500Y-11226800D01*
X19494500Y-11226800D02*
X19411950Y-11226800D01*
X19411950Y-11372850D02*
X19411950Y-11226800D01*
X19492625Y-11374000D02*
X19411950Y-11372850D01*
D11*
X11744700Y-7632700D02*
X12227300Y-8115300D01*
X12227300Y-7632700D02*
X11744700Y-8115300D01*
X17744700Y-7632700D02*
X18227300Y-8115300D01*
X18227300Y-7632700D02*
X17744700Y-8115300D01*
D12*
X10761428Y-12840246D02*
X10761428Y-12540246D01*
X10832857Y-12540246D01*
X10875714Y-12554532D01*
X10904286Y-12583103D01*
X10918571Y-12611675D01*
X10932857Y-12668818D01*
X10932857Y-12711675D01*
X10918571Y-12768818D01*
X10904286Y-12797389D01*
X10875714Y-12825961D01*
X10832857Y-12840246D01*
X10761428Y-12840246D01*
X11061428Y-12840246D02*
X11061428Y-12640246D01*
X11061428Y-12697389D02*
X11075714Y-12668818D01*
X11090000Y-12654532D01*
X11118571Y-12640246D01*
X11147143Y-12640246D01*
X11247143Y-12840246D02*
X11247143Y-12640246D01*
X11247143Y-12540246D02*
X11232857Y-12554532D01*
X11247143Y-12568818D01*
X11261428Y-12554532D01*
X11247143Y-12540246D01*
X11247143Y-12568818D01*
X11432857Y-12840246D02*
X11404286Y-12825961D01*
X11390000Y-12797389D01*
X11390000Y-12540246D01*
X11590000Y-12840246D02*
X11561428Y-12825961D01*
X11547143Y-12797389D01*
X11547143Y-12540246D01*
X11932857Y-12840246D02*
X11932857Y-12540246D01*
X12032857Y-12754532D01*
X12132857Y-12540246D01*
X12132857Y-12840246D01*
X12404286Y-12840246D02*
X12404286Y-12683103D01*
X12390000Y-12654532D01*
X12361428Y-12640246D01*
X12304286Y-12640246D01*
X12275714Y-12654532D01*
X12404286Y-12825961D02*
X12375714Y-12840246D01*
X12304286Y-12840246D01*
X12275714Y-12825961D01*
X12261428Y-12797389D01*
X12261428Y-12768818D01*
X12275714Y-12740246D01*
X12304286Y-12725961D01*
X12375714Y-12725961D01*
X12404286Y-12711675D01*
X12547143Y-12640246D02*
X12547143Y-12940246D01*
X12547143Y-12654532D02*
X12575714Y-12640246D01*
X12632857Y-12640246D01*
X12661428Y-12654532D01*
X12675714Y-12668818D01*
X12690000Y-12697389D01*
X12690000Y-12783103D01*
X12675714Y-12811675D01*
X12661428Y-12825961D01*
X12632857Y-12840246D01*
X12575714Y-12840246D01*
X12547143Y-12825961D01*
X12818571Y-12811675D02*
X12832857Y-12825961D01*
X12818571Y-12840246D01*
X12804286Y-12825961D01*
X12818571Y-12811675D01*
X12818571Y-12840246D01*
X12818571Y-12654532D02*
X12832857Y-12668818D01*
X12818571Y-12683103D01*
X12804286Y-12668818D01*
X12818571Y-12654532D01*
X12818571Y-12683103D01*
X9992400Y-13093232D02*
X10475000Y-13575832D01*
X10475000Y-13093232D02*
X9992400Y-13575832D01*
X10890000Y-13270246D02*
X10890000Y-13470246D01*
X10818571Y-13155961D02*
X10747143Y-13370246D01*
X10932857Y-13370246D01*
X11047143Y-13441675D02*
X11061428Y-13455961D01*
X11047143Y-13470246D01*
X11032857Y-13455961D01*
X11047143Y-13441675D01*
X11047143Y-13470246D01*
X11232857Y-13298818D02*
X11204286Y-13284532D01*
X11190000Y-13270246D01*
X11175714Y-13241675D01*
X11175714Y-13227389D01*
X11190000Y-13198818D01*
X11204286Y-13184532D01*
X11232857Y-13170246D01*
X11290000Y-13170246D01*
X11318571Y-13184532D01*
X11332857Y-13198818D01*
X11347143Y-13227389D01*
X11347143Y-13241675D01*
X11332857Y-13270246D01*
X11318571Y-13284532D01*
X11290000Y-13298818D01*
X11232857Y-13298818D01*
X11204286Y-13313103D01*
X11190000Y-13327389D01*
X11175714Y-13355961D01*
X11175714Y-13413103D01*
X11190000Y-13441675D01*
X11204286Y-13455961D01*
X11232857Y-13470246D01*
X11290000Y-13470246D01*
X11318571Y-13455961D01*
X11332857Y-13441675D01*
X11347143Y-13413103D01*
X11347143Y-13355961D01*
X11332857Y-13327389D01*
X11318571Y-13313103D01*
X11290000Y-13298818D01*
X11447143Y-13170246D02*
X11632857Y-13170246D01*
X11532857Y-13284532D01*
X11575714Y-13284532D01*
X11604286Y-13298818D01*
X11618571Y-13313103D01*
X11632857Y-13341675D01*
X11632857Y-13413103D01*
X11618571Y-13441675D01*
X11604286Y-13455961D01*
X11575714Y-13470246D01*
X11490000Y-13470246D01*
X11461428Y-13455961D01*
X11447143Y-13441675D01*
X11761428Y-13470246D02*
X11761428Y-13270246D01*
X11761428Y-13298818D02*
X11775714Y-13284532D01*
X11804286Y-13270246D01*
X11847143Y-13270246D01*
X11875714Y-13284532D01*
X11890000Y-13313103D01*
X11890000Y-13470246D01*
X11890000Y-13313103D02*
X11904286Y-13284532D01*
X11932857Y-13270246D01*
X11975714Y-13270246D01*
X12004286Y-13284532D01*
X12018571Y-13313103D01*
X12018571Y-13470246D01*
X12161428Y-13470246D02*
X12161428Y-13270246D01*
X12161428Y-13298818D02*
X12175714Y-13284532D01*
X12204286Y-13270246D01*
X12247143Y-13270246D01*
X12275714Y-13284532D01*
X12290000Y-13313103D01*
X12290000Y-13470246D01*
X12290000Y-13313103D02*
X12304286Y-13284532D01*
X12332857Y-13270246D01*
X12375714Y-13270246D01*
X12404286Y-13284532D01*
X12418571Y-13313103D01*
X12418571Y-13470246D01*
X13004286Y-13155961D02*
X12747143Y-13541675D01*
X13390000Y-13170246D02*
X13418571Y-13170246D01*
X13447143Y-13184532D01*
X13461428Y-13198818D01*
X13475714Y-13227389D01*
X13490000Y-13284532D01*
X13490000Y-13355961D01*
X13475714Y-13413103D01*
X13461428Y-13441675D01*
X13447143Y-13455961D01*
X13418571Y-13470246D01*
X13390000Y-13470246D01*
X13361428Y-13455961D01*
X13347143Y-13441675D01*
X13332857Y-13413103D01*
X13318571Y-13355961D01*
X13318571Y-13284532D01*
X13332857Y-13227389D01*
X13347143Y-13198818D01*
X13361428Y-13184532D01*
X13390000Y-13170246D01*
X13618571Y-13441675D02*
X13632857Y-13455961D01*
X13618571Y-13470246D01*
X13604286Y-13455961D01*
X13618571Y-13441675D01*
X13618571Y-13470246D01*
X13918571Y-13470246D02*
X13747143Y-13470246D01*
X13832857Y-13470246D02*
X13832857Y-13170246D01*
X13804286Y-13213103D01*
X13775714Y-13241675D01*
X13747143Y-13255961D01*
X14061428Y-13470246D02*
X14118571Y-13470246D01*
X14147143Y-13455961D01*
X14161428Y-13441675D01*
X14190000Y-13398818D01*
X14204286Y-13341675D01*
X14204286Y-13227389D01*
X14190000Y-13198818D01*
X14175714Y-13184532D01*
X14147143Y-13170246D01*
X14090000Y-13170246D01*
X14061428Y-13184532D01*
X14047143Y-13198818D01*
X14032857Y-13227389D01*
X14032857Y-13298818D01*
X14047143Y-13327389D01*
X14061428Y-13341675D01*
X14090000Y-13355961D01*
X14147143Y-13355961D01*
X14175714Y-13341675D01*
X14190000Y-13327389D01*
X14204286Y-13298818D01*
X14390000Y-13170246D02*
X14418571Y-13170246D01*
X14447143Y-13184532D01*
X14461428Y-13198818D01*
X14475714Y-13227389D01*
X14490000Y-13284532D01*
X14490000Y-13355961D01*
X14475714Y-13413103D01*
X14461428Y-13441675D01*
X14447143Y-13455961D01*
X14418571Y-13470246D01*
X14390000Y-13470246D01*
X14361428Y-13455961D01*
X14347143Y-13441675D01*
X14332857Y-13413103D01*
X14318571Y-13355961D01*
X14318571Y-13284532D01*
X14332857Y-13227389D01*
X14347143Y-13198818D01*
X14361428Y-13184532D01*
X14390000Y-13170246D01*
X14604286Y-13170246D02*
X14604286Y-13227389D01*
X14718571Y-13170246D02*
X14718571Y-13227389D01*
X15161428Y-13584532D02*
X15147143Y-13570246D01*
X15118571Y-13527389D01*
X15104286Y-13498818D01*
X15090000Y-13455961D01*
X15075714Y-13384532D01*
X15075714Y-13327389D01*
X15090000Y-13255961D01*
X15104286Y-13213103D01*
X15118571Y-13184532D01*
X15147143Y-13141675D01*
X15161428Y-13127389D01*
X15261428Y-13198818D02*
X15275714Y-13184532D01*
X15304286Y-13170246D01*
X15375714Y-13170246D01*
X15404286Y-13184532D01*
X15418571Y-13198818D01*
X15432857Y-13227389D01*
X15432857Y-13255961D01*
X15418571Y-13298818D01*
X15247143Y-13470246D01*
X15432857Y-13470246D01*
X15790000Y-13470246D02*
X15790000Y-13170246D01*
X15918571Y-13470246D02*
X15918571Y-13313103D01*
X15904286Y-13284532D01*
X15875714Y-13270246D01*
X15832857Y-13270246D01*
X15804286Y-13284532D01*
X15790000Y-13298818D01*
X16104286Y-13470246D02*
X16075714Y-13455961D01*
X16061428Y-13441675D01*
X16047143Y-13413103D01*
X16047143Y-13327389D01*
X16061428Y-13298818D01*
X16075714Y-13284532D01*
X16104286Y-13270246D01*
X16147143Y-13270246D01*
X16175714Y-13284532D01*
X16190000Y-13298818D01*
X16204286Y-13327389D01*
X16204286Y-13413103D01*
X16190000Y-13441675D01*
X16175714Y-13455961D01*
X16147143Y-13470246D01*
X16104286Y-13470246D01*
X16375714Y-13470246D02*
X16347143Y-13455961D01*
X16332857Y-13427389D01*
X16332857Y-13170246D01*
X16604286Y-13455961D02*
X16575714Y-13470246D01*
X16518571Y-13470246D01*
X16490000Y-13455961D01*
X16475714Y-13427389D01*
X16475714Y-13313103D01*
X16490000Y-13284532D01*
X16518571Y-13270246D01*
X16575714Y-13270246D01*
X16604286Y-13284532D01*
X16618571Y-13313103D01*
X16618571Y-13341675D01*
X16475714Y-13370246D01*
X16732857Y-13455961D02*
X16761428Y-13470246D01*
X16818571Y-13470246D01*
X16847143Y-13455961D01*
X16861428Y-13427389D01*
X16861428Y-13413103D01*
X16847143Y-13384532D01*
X16818571Y-13370246D01*
X16775714Y-13370246D01*
X16747143Y-13355961D01*
X16732857Y-13327389D01*
X16732857Y-13313103D01*
X16747143Y-13284532D01*
X16775714Y-13270246D01*
X16818571Y-13270246D01*
X16847143Y-13284532D01*
X16961428Y-13584532D02*
X16975714Y-13570246D01*
X17004286Y-13527389D01*
X17018571Y-13498818D01*
X17032857Y-13455961D01*
X17047143Y-13384532D01*
X17047143Y-13327389D01*
X17032857Y-13255961D01*
X17018571Y-13213103D01*
X17004286Y-13184532D01*
X16975714Y-13141675D01*
X16961428Y-13127389D01*
X17504286Y-13584532D02*
X17490000Y-13570246D01*
X17461428Y-13527389D01*
X17447143Y-13498818D01*
X17432857Y-13455961D01*
X17418571Y-13384532D01*
X17418571Y-13327389D01*
X17432857Y-13255961D01*
X17447143Y-13213103D01*
X17461428Y-13184532D01*
X17490000Y-13141675D01*
X17504286Y-13127389D01*
X17618571Y-13270246D02*
X17618571Y-13470246D01*
X17618571Y-13298818D02*
X17632857Y-13284532D01*
X17661428Y-13270246D01*
X17704286Y-13270246D01*
X17732857Y-13284532D01*
X17747143Y-13313103D01*
X17747143Y-13470246D01*
X17932857Y-13470246D02*
X17904286Y-13455961D01*
X17890000Y-13441675D01*
X17875714Y-13413103D01*
X17875714Y-13327389D01*
X17890000Y-13298818D01*
X17904286Y-13284532D01*
X17932857Y-13270246D01*
X17975714Y-13270246D01*
X18004286Y-13284532D01*
X18018571Y-13298818D01*
X18032857Y-13327389D01*
X18032857Y-13413103D01*
X18018571Y-13441675D01*
X18004286Y-13455961D01*
X17975714Y-13470246D01*
X17932857Y-13470246D01*
X18118571Y-13270246D02*
X18232857Y-13270246D01*
X18161428Y-13170246D02*
X18161428Y-13427389D01*
X18175714Y-13455961D01*
X18204286Y-13470246D01*
X18232857Y-13470246D01*
X18561428Y-13270246D02*
X18561428Y-13570246D01*
X18561428Y-13284532D02*
X18590000Y-13270246D01*
X18647143Y-13270246D01*
X18675714Y-13284532D01*
X18690000Y-13298818D01*
X18704286Y-13327389D01*
X18704286Y-13413103D01*
X18690000Y-13441675D01*
X18675714Y-13455961D01*
X18647143Y-13470246D01*
X18590000Y-13470246D01*
X18561428Y-13455961D01*
X18875714Y-13470246D02*
X18847143Y-13455961D01*
X18832857Y-13427389D01*
X18832857Y-13170246D01*
X19118571Y-13470246D02*
X19118571Y-13313103D01*
X19104286Y-13284532D01*
X19075714Y-13270246D01*
X19018571Y-13270246D01*
X18990000Y-13284532D01*
X19118571Y-13455961D02*
X19090000Y-13470246D01*
X19018571Y-13470246D01*
X18990000Y-13455961D01*
X18975714Y-13427389D01*
X18975714Y-13398818D01*
X18990000Y-13370246D01*
X19018571Y-13355961D01*
X19090000Y-13355961D01*
X19118571Y-13341675D01*
X19218571Y-13270246D02*
X19332857Y-13270246D01*
X19261428Y-13170246D02*
X19261428Y-13427389D01*
X19275714Y-13455961D01*
X19304286Y-13470246D01*
X19332857Y-13470246D01*
X19547143Y-13455961D02*
X19518571Y-13470246D01*
X19461428Y-13470246D01*
X19432857Y-13455961D01*
X19418571Y-13427389D01*
X19418571Y-13313103D01*
X19432857Y-13284532D01*
X19461428Y-13270246D01*
X19518571Y-13270246D01*
X19547143Y-13284532D01*
X19561428Y-13313103D01*
X19561428Y-13341675D01*
X19418571Y-13370246D01*
X19818571Y-13470246D02*
X19818571Y-13170246D01*
X19818571Y-13455961D02*
X19790000Y-13470246D01*
X19732857Y-13470246D01*
X19704286Y-13455961D01*
X19690000Y-13441675D01*
X19675714Y-13413103D01*
X19675714Y-13327389D01*
X19690000Y-13298818D01*
X19704286Y-13284532D01*
X19732857Y-13270246D01*
X19790000Y-13270246D01*
X19818571Y-13284532D01*
X19932857Y-13584532D02*
X19947143Y-13570246D01*
X19975714Y-13527389D01*
X19990000Y-13498818D01*
X20004286Y-13455961D01*
X20018571Y-13384532D01*
X20018571Y-13327389D01*
X20004286Y-13255961D01*
X19990000Y-13213103D01*
X19975714Y-13184532D01*
X19947143Y-13141675D01*
X19932857Y-13127389D01*
M02*
