%TF.GenerationSoftware,KiCad,Pcbnew,(5.1.9)-1*%
%TF.CreationDate,2021-06-11T00:57:41-04:00*%
%TF.ProjectId,IEEE488-VIE,49454545-3438-4382-9d56-49452e6b6963,rev?*%
%TF.SameCoordinates,Original*%
%TF.FileFunction,Soldermask,Top*%
%TF.FilePolarity,Negative*%
%FSLAX46Y46*%
G04 Gerber Fmt 4.6, Leading zero omitted, Abs format (unit mm)*
G04 Created by KiCad (PCBNEW (5.1.9)-1) date 2021-06-11 00:57:41*
%MOMM*%
%LPD*%
G01*
G04 APERTURE LIST*
%ADD10C,0.100000*%
%ADD11R,2.250000X10.000000*%
%ADD12R,1.600000X1.600000*%
%ADD13O,1.600000X1.600000*%
G04 APERTURE END LIST*
D10*
%TO.C,X1*%
G36*
X104760000Y-123740000D02*
G01*
X194960000Y-123740000D01*
X194960000Y-113790000D01*
X104760000Y-113790000D01*
X104760000Y-123740000D01*
G37*
X104760000Y-123740000D02*
X194960000Y-123740000D01*
X194960000Y-113790000D01*
X104760000Y-113790000D01*
X104760000Y-123740000D01*
%TO.C,MEDGE1*%
G36*
X125120400Y-60811400D02*
G01*
X125120400Y-50880000D01*
X174599600Y-50880000D01*
X174599600Y-60836800D01*
X125120400Y-60811400D01*
G37*
X125120400Y-60811400D02*
X125120400Y-50880000D01*
X174599600Y-50880000D01*
X174599600Y-60836800D01*
X125120400Y-60811400D01*
%TD*%
D11*
%TO.C,X1*%
X187480000Y-118740000D03*
X183520000Y-118740000D03*
X179560000Y-118740000D03*
X175600000Y-118740000D03*
X171640000Y-118740000D03*
X167680000Y-118740000D03*
X163720000Y-118740000D03*
X159760000Y-118740000D03*
X155800000Y-118740000D03*
X151840000Y-118740000D03*
X147880000Y-118740000D03*
X143920000Y-118740000D03*
X139960000Y-118740000D03*
X136000000Y-118740000D03*
X132040000Y-118740000D03*
X128080000Y-118740000D03*
X124120000Y-118740000D03*
X120160000Y-118740000D03*
X116200000Y-118740000D03*
X112240000Y-118740000D03*
D10*
G36*
X194869755Y-106538461D02*
G01*
X194879134Y-106541306D01*
X194887779Y-106545927D01*
X194895355Y-106552145D01*
X194901573Y-106559721D01*
X194906194Y-106568366D01*
X194909039Y-106577745D01*
X194910000Y-106587500D01*
X194910000Y-122716500D01*
X194909961Y-122718467D01*
X194899961Y-122972467D01*
X194898618Y-122982176D01*
X194894233Y-122993811D01*
X194694233Y-123373311D01*
X194688836Y-123381493D01*
X194680219Y-123389835D01*
X194390219Y-123609835D01*
X194381867Y-123614965D01*
X194375425Y-123617561D01*
X194005425Y-123737561D01*
X193995850Y-123739657D01*
X193990000Y-123740000D01*
X190315000Y-123740000D01*
X190315000Y-113740000D01*
X190454164Y-113740000D01*
X193416788Y-106568410D01*
X193421400Y-106559761D01*
X193427611Y-106552178D01*
X193435182Y-106545953D01*
X193443822Y-106541324D01*
X193453199Y-106538470D01*
X193463000Y-106537500D01*
X194860000Y-106537500D01*
X194869755Y-106538461D01*
G37*
%TD*%
D11*
%TO.C,MEDGE1*%
X171640000Y-55880000D03*
X167680000Y-55880000D03*
X163720000Y-55880000D03*
X159760000Y-55880000D03*
X155800000Y-55880000D03*
X151840000Y-55880000D03*
X147880000Y-55880000D03*
X143920000Y-55880000D03*
X139960000Y-55880000D03*
X136000000Y-55880000D03*
X132040000Y-55880000D03*
X128080000Y-55880000D03*
%TD*%
%TO.C,R1*%
G36*
G01*
X124765000Y-83635001D02*
X124765000Y-82734999D01*
G75*
G02*
X125014999Y-82485000I249999J0D01*
G01*
X125665001Y-82485000D01*
G75*
G02*
X125915000Y-82734999I0J-249999D01*
G01*
X125915000Y-83635001D01*
G75*
G02*
X125665001Y-83885000I-249999J0D01*
G01*
X125014999Y-83885000D01*
G75*
G02*
X124765000Y-83635001I0J249999D01*
G01*
G37*
G36*
G01*
X126815000Y-83635001D02*
X126815000Y-82734999D01*
G75*
G02*
X127064999Y-82485000I249999J0D01*
G01*
X127715001Y-82485000D01*
G75*
G02*
X127965000Y-82734999I0J-249999D01*
G01*
X127965000Y-83635001D01*
G75*
G02*
X127715001Y-83885000I-249999J0D01*
G01*
X127064999Y-83885000D01*
G75*
G02*
X126815000Y-83635001I0J249999D01*
G01*
G37*
%TD*%
D12*
%TO.C,U1*%
X133350000Y-84455000D03*
D13*
X166370000Y-69215000D03*
X135890000Y-84455000D03*
X163830000Y-69215000D03*
X138430000Y-84455000D03*
X161290000Y-69215000D03*
X140970000Y-84455000D03*
X158750000Y-69215000D03*
X143510000Y-84455000D03*
X156210000Y-69215000D03*
X146050000Y-84455000D03*
X153670000Y-69215000D03*
X148590000Y-84455000D03*
X151130000Y-69215000D03*
X151130000Y-84455000D03*
X148590000Y-69215000D03*
X153670000Y-84455000D03*
X146050000Y-69215000D03*
X156210000Y-84455000D03*
X143510000Y-69215000D03*
X158750000Y-84455000D03*
X140970000Y-69215000D03*
X161290000Y-84455000D03*
X138430000Y-69215000D03*
X163830000Y-84455000D03*
X135890000Y-69215000D03*
X166370000Y-84455000D03*
X133350000Y-69215000D03*
%TD*%
D12*
%TO.C,U2*%
X173990000Y-88900000D03*
D13*
X125730000Y-104140000D03*
X171450000Y-88900000D03*
X128270000Y-104140000D03*
X168910000Y-88900000D03*
X130810000Y-104140000D03*
X166370000Y-88900000D03*
X133350000Y-104140000D03*
X163830000Y-88900000D03*
X135890000Y-104140000D03*
X161290000Y-88900000D03*
X138430000Y-104140000D03*
X158750000Y-88900000D03*
X140970000Y-104140000D03*
X156210000Y-88900000D03*
X143510000Y-104140000D03*
X153670000Y-88900000D03*
X146050000Y-104140000D03*
X151130000Y-88900000D03*
X148590000Y-104140000D03*
X148590000Y-88900000D03*
X151130000Y-104140000D03*
X146050000Y-88900000D03*
X153670000Y-104140000D03*
X143510000Y-88900000D03*
X156210000Y-104140000D03*
X140970000Y-88900000D03*
X158750000Y-104140000D03*
X138430000Y-88900000D03*
X161290000Y-104140000D03*
X135890000Y-88900000D03*
X163830000Y-104140000D03*
X133350000Y-88900000D03*
X166370000Y-104140000D03*
X130810000Y-88900000D03*
X168910000Y-104140000D03*
X128270000Y-88900000D03*
X171450000Y-104140000D03*
X125730000Y-88900000D03*
X173990000Y-104140000D03*
%TD*%
%TO.C,U3*%
G36*
G01*
X164315000Y-71160000D02*
X164615000Y-71160000D01*
G75*
G02*
X164765000Y-71310000I0J-150000D01*
G01*
X164765000Y-73060000D01*
G75*
G02*
X164615000Y-73210000I-150000J0D01*
G01*
X164315000Y-73210000D01*
G75*
G02*
X164165000Y-73060000I0J150000D01*
G01*
X164165000Y-71310000D01*
G75*
G02*
X164315000Y-71160000I150000J0D01*
G01*
G37*
G36*
G01*
X163045000Y-71160000D02*
X163345000Y-71160000D01*
G75*
G02*
X163495000Y-71310000I0J-150000D01*
G01*
X163495000Y-73060000D01*
G75*
G02*
X163345000Y-73210000I-150000J0D01*
G01*
X163045000Y-73210000D01*
G75*
G02*
X162895000Y-73060000I0J150000D01*
G01*
X162895000Y-71310000D01*
G75*
G02*
X163045000Y-71160000I150000J0D01*
G01*
G37*
G36*
G01*
X161775000Y-71160000D02*
X162075000Y-71160000D01*
G75*
G02*
X162225000Y-71310000I0J-150000D01*
G01*
X162225000Y-73060000D01*
G75*
G02*
X162075000Y-73210000I-150000J0D01*
G01*
X161775000Y-73210000D01*
G75*
G02*
X161625000Y-73060000I0J150000D01*
G01*
X161625000Y-71310000D01*
G75*
G02*
X161775000Y-71160000I150000J0D01*
G01*
G37*
G36*
G01*
X160505000Y-71160000D02*
X160805000Y-71160000D01*
G75*
G02*
X160955000Y-71310000I0J-150000D01*
G01*
X160955000Y-73060000D01*
G75*
G02*
X160805000Y-73210000I-150000J0D01*
G01*
X160505000Y-73210000D01*
G75*
G02*
X160355000Y-73060000I0J150000D01*
G01*
X160355000Y-71310000D01*
G75*
G02*
X160505000Y-71160000I150000J0D01*
G01*
G37*
G36*
G01*
X159235000Y-71160000D02*
X159535000Y-71160000D01*
G75*
G02*
X159685000Y-71310000I0J-150000D01*
G01*
X159685000Y-73060000D01*
G75*
G02*
X159535000Y-73210000I-150000J0D01*
G01*
X159235000Y-73210000D01*
G75*
G02*
X159085000Y-73060000I0J150000D01*
G01*
X159085000Y-71310000D01*
G75*
G02*
X159235000Y-71160000I150000J0D01*
G01*
G37*
G36*
G01*
X157965000Y-71160000D02*
X158265000Y-71160000D01*
G75*
G02*
X158415000Y-71310000I0J-150000D01*
G01*
X158415000Y-73060000D01*
G75*
G02*
X158265000Y-73210000I-150000J0D01*
G01*
X157965000Y-73210000D01*
G75*
G02*
X157815000Y-73060000I0J150000D01*
G01*
X157815000Y-71310000D01*
G75*
G02*
X157965000Y-71160000I150000J0D01*
G01*
G37*
G36*
G01*
X156695000Y-71160000D02*
X156995000Y-71160000D01*
G75*
G02*
X157145000Y-71310000I0J-150000D01*
G01*
X157145000Y-73060000D01*
G75*
G02*
X156995000Y-73210000I-150000J0D01*
G01*
X156695000Y-73210000D01*
G75*
G02*
X156545000Y-73060000I0J150000D01*
G01*
X156545000Y-71310000D01*
G75*
G02*
X156695000Y-71160000I150000J0D01*
G01*
G37*
G36*
G01*
X155425000Y-71160000D02*
X155725000Y-71160000D01*
G75*
G02*
X155875000Y-71310000I0J-150000D01*
G01*
X155875000Y-73060000D01*
G75*
G02*
X155725000Y-73210000I-150000J0D01*
G01*
X155425000Y-73210000D01*
G75*
G02*
X155275000Y-73060000I0J150000D01*
G01*
X155275000Y-71310000D01*
G75*
G02*
X155425000Y-71160000I150000J0D01*
G01*
G37*
G36*
G01*
X154155000Y-71160000D02*
X154455000Y-71160000D01*
G75*
G02*
X154605000Y-71310000I0J-150000D01*
G01*
X154605000Y-73060000D01*
G75*
G02*
X154455000Y-73210000I-150000J0D01*
G01*
X154155000Y-73210000D01*
G75*
G02*
X154005000Y-73060000I0J150000D01*
G01*
X154005000Y-71310000D01*
G75*
G02*
X154155000Y-71160000I150000J0D01*
G01*
G37*
G36*
G01*
X152885000Y-71160000D02*
X153185000Y-71160000D01*
G75*
G02*
X153335000Y-71310000I0J-150000D01*
G01*
X153335000Y-73060000D01*
G75*
G02*
X153185000Y-73210000I-150000J0D01*
G01*
X152885000Y-73210000D01*
G75*
G02*
X152735000Y-73060000I0J150000D01*
G01*
X152735000Y-71310000D01*
G75*
G02*
X152885000Y-71160000I150000J0D01*
G01*
G37*
G36*
G01*
X152885000Y-80460000D02*
X153185000Y-80460000D01*
G75*
G02*
X153335000Y-80610000I0J-150000D01*
G01*
X153335000Y-82360000D01*
G75*
G02*
X153185000Y-82510000I-150000J0D01*
G01*
X152885000Y-82510000D01*
G75*
G02*
X152735000Y-82360000I0J150000D01*
G01*
X152735000Y-80610000D01*
G75*
G02*
X152885000Y-80460000I150000J0D01*
G01*
G37*
G36*
G01*
X154155000Y-80460000D02*
X154455000Y-80460000D01*
G75*
G02*
X154605000Y-80610000I0J-150000D01*
G01*
X154605000Y-82360000D01*
G75*
G02*
X154455000Y-82510000I-150000J0D01*
G01*
X154155000Y-82510000D01*
G75*
G02*
X154005000Y-82360000I0J150000D01*
G01*
X154005000Y-80610000D01*
G75*
G02*
X154155000Y-80460000I150000J0D01*
G01*
G37*
G36*
G01*
X155425000Y-80460000D02*
X155725000Y-80460000D01*
G75*
G02*
X155875000Y-80610000I0J-150000D01*
G01*
X155875000Y-82360000D01*
G75*
G02*
X155725000Y-82510000I-150000J0D01*
G01*
X155425000Y-82510000D01*
G75*
G02*
X155275000Y-82360000I0J150000D01*
G01*
X155275000Y-80610000D01*
G75*
G02*
X155425000Y-80460000I150000J0D01*
G01*
G37*
G36*
G01*
X156695000Y-80460000D02*
X156995000Y-80460000D01*
G75*
G02*
X157145000Y-80610000I0J-150000D01*
G01*
X157145000Y-82360000D01*
G75*
G02*
X156995000Y-82510000I-150000J0D01*
G01*
X156695000Y-82510000D01*
G75*
G02*
X156545000Y-82360000I0J150000D01*
G01*
X156545000Y-80610000D01*
G75*
G02*
X156695000Y-80460000I150000J0D01*
G01*
G37*
G36*
G01*
X157965000Y-80460000D02*
X158265000Y-80460000D01*
G75*
G02*
X158415000Y-80610000I0J-150000D01*
G01*
X158415000Y-82360000D01*
G75*
G02*
X158265000Y-82510000I-150000J0D01*
G01*
X157965000Y-82510000D01*
G75*
G02*
X157815000Y-82360000I0J150000D01*
G01*
X157815000Y-80610000D01*
G75*
G02*
X157965000Y-80460000I150000J0D01*
G01*
G37*
G36*
G01*
X159235000Y-80460000D02*
X159535000Y-80460000D01*
G75*
G02*
X159685000Y-80610000I0J-150000D01*
G01*
X159685000Y-82360000D01*
G75*
G02*
X159535000Y-82510000I-150000J0D01*
G01*
X159235000Y-82510000D01*
G75*
G02*
X159085000Y-82360000I0J150000D01*
G01*
X159085000Y-80610000D01*
G75*
G02*
X159235000Y-80460000I150000J0D01*
G01*
G37*
G36*
G01*
X160505000Y-80460000D02*
X160805000Y-80460000D01*
G75*
G02*
X160955000Y-80610000I0J-150000D01*
G01*
X160955000Y-82360000D01*
G75*
G02*
X160805000Y-82510000I-150000J0D01*
G01*
X160505000Y-82510000D01*
G75*
G02*
X160355000Y-82360000I0J150000D01*
G01*
X160355000Y-80610000D01*
G75*
G02*
X160505000Y-80460000I150000J0D01*
G01*
G37*
G36*
G01*
X161775000Y-80460000D02*
X162075000Y-80460000D01*
G75*
G02*
X162225000Y-80610000I0J-150000D01*
G01*
X162225000Y-82360000D01*
G75*
G02*
X162075000Y-82510000I-150000J0D01*
G01*
X161775000Y-82510000D01*
G75*
G02*
X161625000Y-82360000I0J150000D01*
G01*
X161625000Y-80610000D01*
G75*
G02*
X161775000Y-80460000I150000J0D01*
G01*
G37*
G36*
G01*
X163045000Y-80460000D02*
X163345000Y-80460000D01*
G75*
G02*
X163495000Y-80610000I0J-150000D01*
G01*
X163495000Y-82360000D01*
G75*
G02*
X163345000Y-82510000I-150000J0D01*
G01*
X163045000Y-82510000D01*
G75*
G02*
X162895000Y-82360000I0J150000D01*
G01*
X162895000Y-80610000D01*
G75*
G02*
X163045000Y-80460000I150000J0D01*
G01*
G37*
G36*
G01*
X164315000Y-80460000D02*
X164615000Y-80460000D01*
G75*
G02*
X164765000Y-80610000I0J-150000D01*
G01*
X164765000Y-82360000D01*
G75*
G02*
X164615000Y-82510000I-150000J0D01*
G01*
X164315000Y-82510000D01*
G75*
G02*
X164165000Y-82360000I0J150000D01*
G01*
X164165000Y-80610000D01*
G75*
G02*
X164315000Y-80460000I150000J0D01*
G01*
G37*
%TD*%
%TO.C,U4*%
G36*
G01*
X136675000Y-73210000D02*
X136375000Y-73210000D01*
G75*
G02*
X136225000Y-73060000I0J150000D01*
G01*
X136225000Y-71310000D01*
G75*
G02*
X136375000Y-71160000I150000J0D01*
G01*
X136675000Y-71160000D01*
G75*
G02*
X136825000Y-71310000I0J-150000D01*
G01*
X136825000Y-73060000D01*
G75*
G02*
X136675000Y-73210000I-150000J0D01*
G01*
G37*
G36*
G01*
X137945000Y-73210000D02*
X137645000Y-73210000D01*
G75*
G02*
X137495000Y-73060000I0J150000D01*
G01*
X137495000Y-71310000D01*
G75*
G02*
X137645000Y-71160000I150000J0D01*
G01*
X137945000Y-71160000D01*
G75*
G02*
X138095000Y-71310000I0J-150000D01*
G01*
X138095000Y-73060000D01*
G75*
G02*
X137945000Y-73210000I-150000J0D01*
G01*
G37*
G36*
G01*
X139215000Y-73210000D02*
X138915000Y-73210000D01*
G75*
G02*
X138765000Y-73060000I0J150000D01*
G01*
X138765000Y-71310000D01*
G75*
G02*
X138915000Y-71160000I150000J0D01*
G01*
X139215000Y-71160000D01*
G75*
G02*
X139365000Y-71310000I0J-150000D01*
G01*
X139365000Y-73060000D01*
G75*
G02*
X139215000Y-73210000I-150000J0D01*
G01*
G37*
G36*
G01*
X140485000Y-73210000D02*
X140185000Y-73210000D01*
G75*
G02*
X140035000Y-73060000I0J150000D01*
G01*
X140035000Y-71310000D01*
G75*
G02*
X140185000Y-71160000I150000J0D01*
G01*
X140485000Y-71160000D01*
G75*
G02*
X140635000Y-71310000I0J-150000D01*
G01*
X140635000Y-73060000D01*
G75*
G02*
X140485000Y-73210000I-150000J0D01*
G01*
G37*
G36*
G01*
X141755000Y-73210000D02*
X141455000Y-73210000D01*
G75*
G02*
X141305000Y-73060000I0J150000D01*
G01*
X141305000Y-71310000D01*
G75*
G02*
X141455000Y-71160000I150000J0D01*
G01*
X141755000Y-71160000D01*
G75*
G02*
X141905000Y-71310000I0J-150000D01*
G01*
X141905000Y-73060000D01*
G75*
G02*
X141755000Y-73210000I-150000J0D01*
G01*
G37*
G36*
G01*
X143025000Y-73210000D02*
X142725000Y-73210000D01*
G75*
G02*
X142575000Y-73060000I0J150000D01*
G01*
X142575000Y-71310000D01*
G75*
G02*
X142725000Y-71160000I150000J0D01*
G01*
X143025000Y-71160000D01*
G75*
G02*
X143175000Y-71310000I0J-150000D01*
G01*
X143175000Y-73060000D01*
G75*
G02*
X143025000Y-73210000I-150000J0D01*
G01*
G37*
G36*
G01*
X144295000Y-73210000D02*
X143995000Y-73210000D01*
G75*
G02*
X143845000Y-73060000I0J150000D01*
G01*
X143845000Y-71310000D01*
G75*
G02*
X143995000Y-71160000I150000J0D01*
G01*
X144295000Y-71160000D01*
G75*
G02*
X144445000Y-71310000I0J-150000D01*
G01*
X144445000Y-73060000D01*
G75*
G02*
X144295000Y-73210000I-150000J0D01*
G01*
G37*
G36*
G01*
X145565000Y-73210000D02*
X145265000Y-73210000D01*
G75*
G02*
X145115000Y-73060000I0J150000D01*
G01*
X145115000Y-71310000D01*
G75*
G02*
X145265000Y-71160000I150000J0D01*
G01*
X145565000Y-71160000D01*
G75*
G02*
X145715000Y-71310000I0J-150000D01*
G01*
X145715000Y-73060000D01*
G75*
G02*
X145565000Y-73210000I-150000J0D01*
G01*
G37*
G36*
G01*
X146835000Y-73210000D02*
X146535000Y-73210000D01*
G75*
G02*
X146385000Y-73060000I0J150000D01*
G01*
X146385000Y-71310000D01*
G75*
G02*
X146535000Y-71160000I150000J0D01*
G01*
X146835000Y-71160000D01*
G75*
G02*
X146985000Y-71310000I0J-150000D01*
G01*
X146985000Y-73060000D01*
G75*
G02*
X146835000Y-73210000I-150000J0D01*
G01*
G37*
G36*
G01*
X148105000Y-73210000D02*
X147805000Y-73210000D01*
G75*
G02*
X147655000Y-73060000I0J150000D01*
G01*
X147655000Y-71310000D01*
G75*
G02*
X147805000Y-71160000I150000J0D01*
G01*
X148105000Y-71160000D01*
G75*
G02*
X148255000Y-71310000I0J-150000D01*
G01*
X148255000Y-73060000D01*
G75*
G02*
X148105000Y-73210000I-150000J0D01*
G01*
G37*
G36*
G01*
X148105000Y-82510000D02*
X147805000Y-82510000D01*
G75*
G02*
X147655000Y-82360000I0J150000D01*
G01*
X147655000Y-80610000D01*
G75*
G02*
X147805000Y-80460000I150000J0D01*
G01*
X148105000Y-80460000D01*
G75*
G02*
X148255000Y-80610000I0J-150000D01*
G01*
X148255000Y-82360000D01*
G75*
G02*
X148105000Y-82510000I-150000J0D01*
G01*
G37*
G36*
G01*
X146835000Y-82510000D02*
X146535000Y-82510000D01*
G75*
G02*
X146385000Y-82360000I0J150000D01*
G01*
X146385000Y-80610000D01*
G75*
G02*
X146535000Y-80460000I150000J0D01*
G01*
X146835000Y-80460000D01*
G75*
G02*
X146985000Y-80610000I0J-150000D01*
G01*
X146985000Y-82360000D01*
G75*
G02*
X146835000Y-82510000I-150000J0D01*
G01*
G37*
G36*
G01*
X145565000Y-82510000D02*
X145265000Y-82510000D01*
G75*
G02*
X145115000Y-82360000I0J150000D01*
G01*
X145115000Y-80610000D01*
G75*
G02*
X145265000Y-80460000I150000J0D01*
G01*
X145565000Y-80460000D01*
G75*
G02*
X145715000Y-80610000I0J-150000D01*
G01*
X145715000Y-82360000D01*
G75*
G02*
X145565000Y-82510000I-150000J0D01*
G01*
G37*
G36*
G01*
X144295000Y-82510000D02*
X143995000Y-82510000D01*
G75*
G02*
X143845000Y-82360000I0J150000D01*
G01*
X143845000Y-80610000D01*
G75*
G02*
X143995000Y-80460000I150000J0D01*
G01*
X144295000Y-80460000D01*
G75*
G02*
X144445000Y-80610000I0J-150000D01*
G01*
X144445000Y-82360000D01*
G75*
G02*
X144295000Y-82510000I-150000J0D01*
G01*
G37*
G36*
G01*
X143025000Y-82510000D02*
X142725000Y-82510000D01*
G75*
G02*
X142575000Y-82360000I0J150000D01*
G01*
X142575000Y-80610000D01*
G75*
G02*
X142725000Y-80460000I150000J0D01*
G01*
X143025000Y-80460000D01*
G75*
G02*
X143175000Y-80610000I0J-150000D01*
G01*
X143175000Y-82360000D01*
G75*
G02*
X143025000Y-82510000I-150000J0D01*
G01*
G37*
G36*
G01*
X141755000Y-82510000D02*
X141455000Y-82510000D01*
G75*
G02*
X141305000Y-82360000I0J150000D01*
G01*
X141305000Y-80610000D01*
G75*
G02*
X141455000Y-80460000I150000J0D01*
G01*
X141755000Y-80460000D01*
G75*
G02*
X141905000Y-80610000I0J-150000D01*
G01*
X141905000Y-82360000D01*
G75*
G02*
X141755000Y-82510000I-150000J0D01*
G01*
G37*
G36*
G01*
X140485000Y-82510000D02*
X140185000Y-82510000D01*
G75*
G02*
X140035000Y-82360000I0J150000D01*
G01*
X140035000Y-80610000D01*
G75*
G02*
X140185000Y-80460000I150000J0D01*
G01*
X140485000Y-80460000D01*
G75*
G02*
X140635000Y-80610000I0J-150000D01*
G01*
X140635000Y-82360000D01*
G75*
G02*
X140485000Y-82510000I-150000J0D01*
G01*
G37*
G36*
G01*
X139215000Y-82510000D02*
X138915000Y-82510000D01*
G75*
G02*
X138765000Y-82360000I0J150000D01*
G01*
X138765000Y-80610000D01*
G75*
G02*
X138915000Y-80460000I150000J0D01*
G01*
X139215000Y-80460000D01*
G75*
G02*
X139365000Y-80610000I0J-150000D01*
G01*
X139365000Y-82360000D01*
G75*
G02*
X139215000Y-82510000I-150000J0D01*
G01*
G37*
G36*
G01*
X137945000Y-82510000D02*
X137645000Y-82510000D01*
G75*
G02*
X137495000Y-82360000I0J150000D01*
G01*
X137495000Y-80610000D01*
G75*
G02*
X137645000Y-80460000I150000J0D01*
G01*
X137945000Y-80460000D01*
G75*
G02*
X138095000Y-80610000I0J-150000D01*
G01*
X138095000Y-82360000D01*
G75*
G02*
X137945000Y-82510000I-150000J0D01*
G01*
G37*
G36*
G01*
X136675000Y-82510000D02*
X136375000Y-82510000D01*
G75*
G02*
X136225000Y-82360000I0J150000D01*
G01*
X136225000Y-80610000D01*
G75*
G02*
X136375000Y-80460000I150000J0D01*
G01*
X136675000Y-80460000D01*
G75*
G02*
X136825000Y-80610000I0J-150000D01*
G01*
X136825000Y-82360000D01*
G75*
G02*
X136675000Y-82510000I-150000J0D01*
G01*
G37*
%TD*%
%TO.C,C1*%
G36*
G01*
X113403000Y-108358499D02*
X113403000Y-110208501D01*
G75*
G02*
X113153001Y-110458500I-249999J0D01*
G01*
X111402999Y-110458500D01*
G75*
G02*
X111153000Y-110208501I0J249999D01*
G01*
X111153000Y-108358499D01*
G75*
G02*
X111402999Y-108108500I249999J0D01*
G01*
X113153001Y-108108500D01*
G75*
G02*
X113403000Y-108358499I0J-249999D01*
G01*
G37*
G36*
G01*
X108303000Y-108358499D02*
X108303000Y-110208501D01*
G75*
G02*
X108053001Y-110458500I-249999J0D01*
G01*
X106302999Y-110458500D01*
G75*
G02*
X106053000Y-110208501I0J249999D01*
G01*
X106053000Y-108358499D01*
G75*
G02*
X106302999Y-108108500I249999J0D01*
G01*
X108053001Y-108108500D01*
G75*
G02*
X108303000Y-108358499I0J-249999D01*
G01*
G37*
%TD*%
%TO.C,C2*%
G36*
G01*
X124765000Y-86175001D02*
X124765000Y-85274999D01*
G75*
G02*
X125014999Y-85025000I249999J0D01*
G01*
X125665001Y-85025000D01*
G75*
G02*
X125915000Y-85274999I0J-249999D01*
G01*
X125915000Y-86175001D01*
G75*
G02*
X125665001Y-86425000I-249999J0D01*
G01*
X125014999Y-86425000D01*
G75*
G02*
X124765000Y-86175001I0J249999D01*
G01*
G37*
G36*
G01*
X126815000Y-86175001D02*
X126815000Y-85274999D01*
G75*
G02*
X127064999Y-85025000I249999J0D01*
G01*
X127715001Y-85025000D01*
G75*
G02*
X127965000Y-85274999I0J-249999D01*
G01*
X127965000Y-86175001D01*
G75*
G02*
X127715001Y-86425000I-249999J0D01*
G01*
X127064999Y-86425000D01*
G75*
G02*
X126815000Y-86175001I0J249999D01*
G01*
G37*
%TD*%
%TO.C,C3*%
G36*
G01*
X129724999Y-75380000D02*
X130625001Y-75380000D01*
G75*
G02*
X130875000Y-75629999I0J-249999D01*
G01*
X130875000Y-76280001D01*
G75*
G02*
X130625001Y-76530000I-249999J0D01*
G01*
X129724999Y-76530000D01*
G75*
G02*
X129475000Y-76280001I0J249999D01*
G01*
X129475000Y-75629999D01*
G75*
G02*
X129724999Y-75380000I249999J0D01*
G01*
G37*
G36*
G01*
X129724999Y-73330000D02*
X130625001Y-73330000D01*
G75*
G02*
X130875000Y-73579999I0J-249999D01*
G01*
X130875000Y-74230001D01*
G75*
G02*
X130625001Y-74480000I-249999J0D01*
G01*
X129724999Y-74480000D01*
G75*
G02*
X129475000Y-74230001I0J249999D01*
G01*
X129475000Y-73579999D01*
G75*
G02*
X129724999Y-73330000I249999J0D01*
G01*
G37*
%TD*%
%TO.C,C4*%
G36*
G01*
X169729999Y-80315000D02*
X170630001Y-80315000D01*
G75*
G02*
X170880000Y-80564999I0J-249999D01*
G01*
X170880000Y-81215001D01*
G75*
G02*
X170630001Y-81465000I-249999J0D01*
G01*
X169729999Y-81465000D01*
G75*
G02*
X169480000Y-81215001I0J249999D01*
G01*
X169480000Y-80564999D01*
G75*
G02*
X169729999Y-80315000I249999J0D01*
G01*
G37*
G36*
G01*
X169729999Y-82365000D02*
X170630001Y-82365000D01*
G75*
G02*
X170880000Y-82614999I0J-249999D01*
G01*
X170880000Y-83265001D01*
G75*
G02*
X170630001Y-83515000I-249999J0D01*
G01*
X169729999Y-83515000D01*
G75*
G02*
X169480000Y-83265001I0J249999D01*
G01*
X169480000Y-82614999D01*
G75*
G02*
X169729999Y-82365000I249999J0D01*
G01*
G37*
%TD*%
%TO.C,C5*%
G36*
G01*
X129724999Y-70300000D02*
X130625001Y-70300000D01*
G75*
G02*
X130875000Y-70549999I0J-249999D01*
G01*
X130875000Y-71200001D01*
G75*
G02*
X130625001Y-71450000I-249999J0D01*
G01*
X129724999Y-71450000D01*
G75*
G02*
X129475000Y-71200001I0J249999D01*
G01*
X129475000Y-70549999D01*
G75*
G02*
X129724999Y-70300000I249999J0D01*
G01*
G37*
G36*
G01*
X129724999Y-68250000D02*
X130625001Y-68250000D01*
G75*
G02*
X130875000Y-68499999I0J-249999D01*
G01*
X130875000Y-69150001D01*
G75*
G02*
X130625001Y-69400000I-249999J0D01*
G01*
X129724999Y-69400000D01*
G75*
G02*
X129475000Y-69150001I0J249999D01*
G01*
X129475000Y-68499999D01*
G75*
G02*
X129724999Y-68250000I249999J0D01*
G01*
G37*
%TD*%
M02*
