%TF.GenerationSoftware,KiCad,Pcbnew,(5.1.9)-1*%
%TF.CreationDate,2021-06-11T00:57:41-04:00*%
%TF.ProjectId,IEEE488-VIE,49454545-3438-4382-9d56-49452e6b6963,rev?*%
%TF.SameCoordinates,Original*%
%TF.FileFunction,Legend,Top*%
%TF.FilePolarity,Positive*%
%FSLAX46Y46*%
G04 Gerber Fmt 4.6, Leading zero omitted, Abs format (unit mm)*
G04 Created by KiCad (PCBNEW (5.1.9)-1) date 2021-06-11 00:57:41*
%MOMM*%
%LPD*%
G01*
G04 APERTURE LIST*
%ADD10C,1.000000*%
%ADD11C,0.100000*%
%ADD12C,0.120000*%
%ADD13C,0.150000*%
%ADD14C,0.600000*%
G04 APERTURE END LIST*
D10*
X115764761Y-107029523D02*
X117098095Y-111029523D01*
X118431428Y-107029523D01*
X119764761Y-111029523D02*
X119764761Y-107029523D01*
X123955238Y-110648571D02*
X123764761Y-110839047D01*
X123193333Y-111029523D01*
X122812380Y-111029523D01*
X122240952Y-110839047D01*
X121860000Y-110458095D01*
X121669523Y-110077142D01*
X121479047Y-109315238D01*
X121479047Y-108743809D01*
X121669523Y-107981904D01*
X121860000Y-107600952D01*
X122240952Y-107220000D01*
X122812380Y-107029523D01*
X123193333Y-107029523D01*
X123764761Y-107220000D01*
X123955238Y-107410476D01*
X125669523Y-109505714D02*
X128717142Y-109505714D01*
X130431428Y-107410476D02*
X130621904Y-107220000D01*
X131002857Y-107029523D01*
X131955238Y-107029523D01*
X132336190Y-107220000D01*
X132526666Y-107410476D01*
X132717142Y-107791428D01*
X132717142Y-108172380D01*
X132526666Y-108743809D01*
X130240952Y-111029523D01*
X132717142Y-111029523D01*
X135193333Y-107029523D02*
X135574285Y-107029523D01*
X135955238Y-107220000D01*
X136145714Y-107410476D01*
X136336190Y-107791428D01*
X136526666Y-108553333D01*
X136526666Y-109505714D01*
X136336190Y-110267619D01*
X136145714Y-110648571D01*
X135955238Y-110839047D01*
X135574285Y-111029523D01*
X135193333Y-111029523D01*
X134812380Y-110839047D01*
X134621904Y-110648571D01*
X134431428Y-110267619D01*
X134240952Y-109505714D01*
X134240952Y-108553333D01*
X134431428Y-107791428D01*
X134621904Y-107410476D01*
X134812380Y-107220000D01*
X135193333Y-107029523D01*
X140717142Y-107029523D02*
X142050476Y-111029523D01*
X143383809Y-107029523D01*
X144717142Y-111029523D02*
X144717142Y-107029523D01*
X146621904Y-108934285D02*
X147955238Y-108934285D01*
X148526666Y-111029523D02*
X146621904Y-111029523D01*
X146621904Y-107029523D01*
X148526666Y-107029523D01*
X155574285Y-110648571D02*
X155383809Y-110839047D01*
X154812380Y-111029523D01*
X154431428Y-111029523D01*
X153860000Y-110839047D01*
X153479047Y-110458095D01*
X153288571Y-110077142D01*
X153098095Y-109315238D01*
X153098095Y-108743809D01*
X153288571Y-107981904D01*
X153479047Y-107600952D01*
X153860000Y-107220000D01*
X154431428Y-107029523D01*
X154812380Y-107029523D01*
X155383809Y-107220000D01*
X155574285Y-107410476D01*
X157098095Y-109886666D02*
X159002857Y-109886666D01*
X156717142Y-111029523D02*
X158050476Y-107029523D01*
X159383809Y-111029523D01*
X163002857Y-111029523D02*
X161669523Y-109124761D01*
X160717142Y-111029523D02*
X160717142Y-107029523D01*
X162240952Y-107029523D01*
X162621904Y-107220000D01*
X162812380Y-107410476D01*
X163002857Y-107791428D01*
X163002857Y-108362857D01*
X162812380Y-108743809D01*
X162621904Y-108934285D01*
X162240952Y-109124761D01*
X160717142Y-109124761D01*
X164145714Y-107029523D02*
X166431428Y-107029523D01*
X165288571Y-111029523D02*
X165288571Y-107029523D01*
X170050476Y-111029523D02*
X168717142Y-109124761D01*
X167764761Y-111029523D02*
X167764761Y-107029523D01*
X169288571Y-107029523D01*
X169669523Y-107220000D01*
X169860000Y-107410476D01*
X170050476Y-107791428D01*
X170050476Y-108362857D01*
X169860000Y-108743809D01*
X169669523Y-108934285D01*
X169288571Y-109124761D01*
X167764761Y-109124761D01*
X171764761Y-111029523D02*
X171764761Y-107029523D01*
X173669523Y-111029523D02*
X173669523Y-107029523D01*
X174621904Y-107029523D01*
X175193333Y-107220000D01*
X175574285Y-107600952D01*
X175764761Y-107981904D01*
X175955238Y-108743809D01*
X175955238Y-109315238D01*
X175764761Y-110077142D01*
X175574285Y-110458095D01*
X175193333Y-110839047D01*
X174621904Y-111029523D01*
X173669523Y-111029523D01*
X179764761Y-107220000D02*
X179383809Y-107029523D01*
X178812380Y-107029523D01*
X178240952Y-107220000D01*
X177860000Y-107600952D01*
X177669523Y-107981904D01*
X177479047Y-108743809D01*
X177479047Y-109315238D01*
X177669523Y-110077142D01*
X177860000Y-110458095D01*
X178240952Y-110839047D01*
X178812380Y-111029523D01*
X179193333Y-111029523D01*
X179764761Y-110839047D01*
X179955238Y-110648571D01*
X179955238Y-109315238D01*
X179193333Y-109315238D01*
X181669523Y-108934285D02*
X183002857Y-108934285D01*
X183574285Y-111029523D02*
X181669523Y-111029523D01*
X181669523Y-107029523D01*
X183574285Y-107029523D01*
D11*
%TO.C,X1*%
G36*
X194860000Y-111740000D02*
G01*
X194860000Y-113740000D01*
X104860000Y-113740000D01*
X104860000Y-111740000D01*
X194860000Y-111740000D01*
G37*
X194860000Y-111740000D02*
X194860000Y-113740000D01*
X104860000Y-113740000D01*
X104860000Y-111740000D01*
X194860000Y-111740000D01*
D12*
%TO.C,MEDGE1*%
X174498000Y-60913000D02*
X125222000Y-60913000D01*
X125222000Y-64850000D02*
X125222000Y-60913000D01*
X174498000Y-64850000D02*
X125222000Y-64850000D01*
X174498000Y-60913000D02*
X174498000Y-64850000D01*
%TO.C,R1*%
X126103748Y-82475000D02*
X126626252Y-82475000D01*
X126103748Y-83895000D02*
X126626252Y-83895000D01*
%TO.C,U1*%
X132020000Y-77835000D02*
X132020000Y-83295000D01*
X132020000Y-83295000D02*
X167700000Y-83295000D01*
X167700000Y-83295000D02*
X167700000Y-70375000D01*
X167700000Y-70375000D02*
X132020000Y-70375000D01*
X132020000Y-70375000D02*
X132020000Y-75835000D01*
X132020000Y-75835000D02*
G75*
G02*
X132020000Y-77835000I0J-1000000D01*
G01*
%TO.C,U2*%
X175320000Y-95520000D02*
X175320000Y-90060000D01*
X175320000Y-90060000D02*
X124400000Y-90060000D01*
X124400000Y-90060000D02*
X124400000Y-102980000D01*
X124400000Y-102980000D02*
X175320000Y-102980000D01*
X175320000Y-102980000D02*
X175320000Y-97520000D01*
X175320000Y-97520000D02*
G75*
G02*
X175320000Y-95520000I0J1000000D01*
G01*
%TO.C,U3*%
X152240000Y-76835000D02*
X152240000Y-80695000D01*
X152240000Y-80695000D02*
X152475000Y-80695000D01*
X152240000Y-76835000D02*
X152240000Y-72975000D01*
X152240000Y-72975000D02*
X152475000Y-72975000D01*
X165260000Y-76835000D02*
X165260000Y-80695000D01*
X165260000Y-80695000D02*
X165025000Y-80695000D01*
X165260000Y-76835000D02*
X165260000Y-72975000D01*
X165260000Y-72975000D02*
X165025000Y-72975000D01*
X165025000Y-72975000D02*
X165025000Y-71160000D01*
%TO.C,U4*%
X135965000Y-80695000D02*
X135965000Y-82510000D01*
X135730000Y-80695000D02*
X135965000Y-80695000D01*
X135730000Y-76835000D02*
X135730000Y-80695000D01*
X135730000Y-72975000D02*
X135965000Y-72975000D01*
X135730000Y-76835000D02*
X135730000Y-72975000D01*
X148750000Y-80695000D02*
X148515000Y-80695000D01*
X148750000Y-76835000D02*
X148750000Y-80695000D01*
X148750000Y-72975000D02*
X148515000Y-72975000D01*
X148750000Y-76835000D02*
X148750000Y-72975000D01*
%TO.C,C1*%
X113663000Y-107573500D02*
X106728000Y-107573500D01*
X113663000Y-110993500D02*
X113663000Y-107573500D01*
X106728000Y-110993500D02*
X113663000Y-110993500D01*
%TO.C,C2*%
X126103748Y-86435000D02*
X126626252Y-86435000D01*
X126103748Y-85015000D02*
X126626252Y-85015000D01*
%TO.C,C3*%
X130885000Y-74668748D02*
X130885000Y-75191252D01*
X129465000Y-74668748D02*
X129465000Y-75191252D01*
%TO.C,C4*%
X169470000Y-81653748D02*
X169470000Y-82176252D01*
X170890000Y-81653748D02*
X170890000Y-82176252D01*
%TO.C,C5*%
X130885000Y-69588748D02*
X130885000Y-70111252D01*
X129465000Y-69588748D02*
X129465000Y-70111252D01*
%TO.C,MEDGE1*%
D13*
X148526666Y-65972940D02*
X148193333Y-65496750D01*
X147955238Y-65972940D02*
X147955238Y-64972940D01*
X148336190Y-64972940D01*
X148431428Y-65020560D01*
X148479047Y-65068179D01*
X148526666Y-65163417D01*
X148526666Y-65306274D01*
X148479047Y-65401512D01*
X148431428Y-65449131D01*
X148336190Y-65496750D01*
X147955238Y-65496750D01*
X148955238Y-65449131D02*
X149288571Y-65449131D01*
X149431428Y-65972940D02*
X148955238Y-65972940D01*
X148955238Y-64972940D01*
X149431428Y-64972940D01*
X150193333Y-65449131D02*
X149860000Y-65449131D01*
X149860000Y-65972940D02*
X149860000Y-64972940D01*
X150336190Y-64972940D01*
X150860000Y-64972940D02*
X150860000Y-65211036D01*
X150621904Y-65115798D02*
X150860000Y-65211036D01*
X151098095Y-65115798D01*
X150717142Y-65401512D02*
X150860000Y-65211036D01*
X151002857Y-65401512D01*
X151621904Y-64972940D02*
X151621904Y-65211036D01*
X151383809Y-65115798D02*
X151621904Y-65211036D01*
X151860000Y-65115798D01*
X151479047Y-65401512D02*
X151621904Y-65211036D01*
X151764761Y-65401512D01*
D14*
X136240952Y-64236047D02*
X136240952Y-61486047D01*
X138145714Y-62795571D02*
X139479047Y-62795571D01*
X140050476Y-64236047D02*
X138145714Y-64236047D01*
X138145714Y-61486047D01*
X140050476Y-61486047D01*
X141764761Y-62795571D02*
X143098095Y-62795571D01*
X143669523Y-64236047D02*
X141764761Y-64236047D01*
X141764761Y-61486047D01*
X143669523Y-61486047D01*
X145383809Y-62795571D02*
X146717142Y-62795571D01*
X147288571Y-64236047D02*
X145383809Y-64236047D01*
X145383809Y-61486047D01*
X147288571Y-61486047D01*
X149002857Y-63188428D02*
X152050476Y-63188428D01*
X155669523Y-62402714D02*
X155669523Y-64236047D01*
X154717142Y-61355095D02*
X153764761Y-63319380D01*
X156240952Y-63319380D01*
X158336190Y-62664619D02*
X157955238Y-62533666D01*
X157764761Y-62402714D01*
X157574285Y-62140809D01*
X157574285Y-62009857D01*
X157764761Y-61747952D01*
X157955238Y-61617000D01*
X158336190Y-61486047D01*
X159098095Y-61486047D01*
X159479047Y-61617000D01*
X159669523Y-61747952D01*
X159860000Y-62009857D01*
X159860000Y-62140809D01*
X159669523Y-62402714D01*
X159479047Y-62533666D01*
X159098095Y-62664619D01*
X158336190Y-62664619D01*
X157955238Y-62795571D01*
X157764761Y-62926523D01*
X157574285Y-63188428D01*
X157574285Y-63712238D01*
X157764761Y-63974142D01*
X157955238Y-64105095D01*
X158336190Y-64236047D01*
X159098095Y-64236047D01*
X159479047Y-64105095D01*
X159669523Y-63974142D01*
X159860000Y-63712238D01*
X159860000Y-63188428D01*
X159669523Y-62926523D01*
X159479047Y-62795571D01*
X159098095Y-62664619D01*
X162145714Y-62664619D02*
X161764761Y-62533666D01*
X161574285Y-62402714D01*
X161383809Y-62140809D01*
X161383809Y-62009857D01*
X161574285Y-61747952D01*
X161764761Y-61617000D01*
X162145714Y-61486047D01*
X162907619Y-61486047D01*
X163288571Y-61617000D01*
X163479047Y-61747952D01*
X163669523Y-62009857D01*
X163669523Y-62140809D01*
X163479047Y-62402714D01*
X163288571Y-62533666D01*
X162907619Y-62664619D01*
X162145714Y-62664619D01*
X161764761Y-62795571D01*
X161574285Y-62926523D01*
X161383809Y-63188428D01*
X161383809Y-63712238D01*
X161574285Y-63974142D01*
X161764761Y-64105095D01*
X162145714Y-64236047D01*
X162907619Y-64236047D01*
X163288571Y-64105095D01*
X163479047Y-63974142D01*
X163669523Y-63712238D01*
X163669523Y-63188428D01*
X163479047Y-62926523D01*
X163288571Y-62795571D01*
X162907619Y-62664619D01*
%TO.C,R1*%
D13*
X126198333Y-81987380D02*
X125865000Y-81511190D01*
X125626904Y-81987380D02*
X125626904Y-80987380D01*
X126007857Y-80987380D01*
X126103095Y-81035000D01*
X126150714Y-81082619D01*
X126198333Y-81177857D01*
X126198333Y-81320714D01*
X126150714Y-81415952D01*
X126103095Y-81463571D01*
X126007857Y-81511190D01*
X125626904Y-81511190D01*
X127150714Y-81987380D02*
X126579285Y-81987380D01*
X126865000Y-81987380D02*
X126865000Y-80987380D01*
X126769761Y-81130238D01*
X126674523Y-81225476D01*
X126579285Y-81273095D01*
%TO.C,U1*%
X132802380Y-79501904D02*
X133611904Y-79501904D01*
X133707142Y-79454285D01*
X133754761Y-79406666D01*
X133802380Y-79311428D01*
X133802380Y-79120952D01*
X133754761Y-79025714D01*
X133707142Y-78978095D01*
X133611904Y-78930476D01*
X132802380Y-78930476D01*
X133802380Y-77930476D02*
X133802380Y-78501904D01*
X133802380Y-78216190D02*
X132802380Y-78216190D01*
X132945238Y-78311428D01*
X133040476Y-78406666D01*
X133088095Y-78501904D01*
%TO.C,U2*%
X175772380Y-97281904D02*
X176581904Y-97281904D01*
X176677142Y-97234285D01*
X176724761Y-97186666D01*
X176772380Y-97091428D01*
X176772380Y-96900952D01*
X176724761Y-96805714D01*
X176677142Y-96758095D01*
X176581904Y-96710476D01*
X175772380Y-96710476D01*
X175867619Y-96281904D02*
X175820000Y-96234285D01*
X175772380Y-96139047D01*
X175772380Y-95900952D01*
X175820000Y-95805714D01*
X175867619Y-95758095D01*
X175962857Y-95710476D01*
X176058095Y-95710476D01*
X176200952Y-95758095D01*
X176772380Y-96329523D01*
X176772380Y-95710476D01*
%TO.C,U3*%
X165552380Y-77596904D02*
X166361904Y-77596904D01*
X166457142Y-77549285D01*
X166504761Y-77501666D01*
X166552380Y-77406428D01*
X166552380Y-77215952D01*
X166504761Y-77120714D01*
X166457142Y-77073095D01*
X166361904Y-77025476D01*
X165552380Y-77025476D01*
X165552380Y-76644523D02*
X165552380Y-76025476D01*
X165933333Y-76358809D01*
X165933333Y-76215952D01*
X165980952Y-76120714D01*
X166028571Y-76073095D01*
X166123809Y-76025476D01*
X166361904Y-76025476D01*
X166457142Y-76073095D01*
X166504761Y-76120714D01*
X166552380Y-76215952D01*
X166552380Y-76501666D01*
X166504761Y-76596904D01*
X166457142Y-76644523D01*
%TO.C,U4*%
X134342380Y-77596904D02*
X135151904Y-77596904D01*
X135247142Y-77549285D01*
X135294761Y-77501666D01*
X135342380Y-77406428D01*
X135342380Y-77215952D01*
X135294761Y-77120714D01*
X135247142Y-77073095D01*
X135151904Y-77025476D01*
X134342380Y-77025476D01*
X134675714Y-76120714D02*
X135342380Y-76120714D01*
X134294761Y-76358809D02*
X135009047Y-76596904D01*
X135009047Y-75977857D01*
%TO.C,C1*%
X109561333Y-112190642D02*
X109513714Y-112238261D01*
X109370857Y-112285880D01*
X109275619Y-112285880D01*
X109132761Y-112238261D01*
X109037523Y-112143023D01*
X108989904Y-112047785D01*
X108942285Y-111857309D01*
X108942285Y-111714452D01*
X108989904Y-111523976D01*
X109037523Y-111428738D01*
X109132761Y-111333500D01*
X109275619Y-111285880D01*
X109370857Y-111285880D01*
X109513714Y-111333500D01*
X109561333Y-111381119D01*
X110513714Y-112285880D02*
X109942285Y-112285880D01*
X110228000Y-112285880D02*
X110228000Y-111285880D01*
X110132761Y-111428738D01*
X110037523Y-111523976D01*
X109942285Y-111571595D01*
%TO.C,C2*%
X123150333Y-86082142D02*
X123102714Y-86129761D01*
X122959857Y-86177380D01*
X122864619Y-86177380D01*
X122721761Y-86129761D01*
X122626523Y-86034523D01*
X122578904Y-85939285D01*
X122531285Y-85748809D01*
X122531285Y-85605952D01*
X122578904Y-85415476D01*
X122626523Y-85320238D01*
X122721761Y-85225000D01*
X122864619Y-85177380D01*
X122959857Y-85177380D01*
X123102714Y-85225000D01*
X123150333Y-85272619D01*
X123531285Y-85272619D02*
X123578904Y-85225000D01*
X123674142Y-85177380D01*
X123912238Y-85177380D01*
X124007476Y-85225000D01*
X124055095Y-85272619D01*
X124102714Y-85367857D01*
X124102714Y-85463095D01*
X124055095Y-85605952D01*
X123483666Y-86177380D01*
X124102714Y-86177380D01*
%TO.C,C3*%
X128881142Y-75096666D02*
X128928761Y-75144285D01*
X128976380Y-75287142D01*
X128976380Y-75382380D01*
X128928761Y-75525238D01*
X128833523Y-75620476D01*
X128738285Y-75668095D01*
X128547809Y-75715714D01*
X128404952Y-75715714D01*
X128214476Y-75668095D01*
X128119238Y-75620476D01*
X128024000Y-75525238D01*
X127976380Y-75382380D01*
X127976380Y-75287142D01*
X128024000Y-75144285D01*
X128071619Y-75096666D01*
X127976380Y-74763333D02*
X127976380Y-74144285D01*
X128357333Y-74477619D01*
X128357333Y-74334761D01*
X128404952Y-74239523D01*
X128452571Y-74191904D01*
X128547809Y-74144285D01*
X128785904Y-74144285D01*
X128881142Y-74191904D01*
X128928761Y-74239523D01*
X128976380Y-74334761D01*
X128976380Y-74620476D01*
X128928761Y-74715714D01*
X128881142Y-74763333D01*
%TO.C,C4*%
X172187142Y-82081666D02*
X172234761Y-82129285D01*
X172282380Y-82272142D01*
X172282380Y-82367380D01*
X172234761Y-82510238D01*
X172139523Y-82605476D01*
X172044285Y-82653095D01*
X171853809Y-82700714D01*
X171710952Y-82700714D01*
X171520476Y-82653095D01*
X171425238Y-82605476D01*
X171330000Y-82510238D01*
X171282380Y-82367380D01*
X171282380Y-82272142D01*
X171330000Y-82129285D01*
X171377619Y-82081666D01*
X171615714Y-81224523D02*
X172282380Y-81224523D01*
X171234761Y-81462619D02*
X171949047Y-81700714D01*
X171949047Y-81081666D01*
%TO.C,C5*%
X128881142Y-70016666D02*
X128928761Y-70064285D01*
X128976380Y-70207142D01*
X128976380Y-70302380D01*
X128928761Y-70445238D01*
X128833523Y-70540476D01*
X128738285Y-70588095D01*
X128547809Y-70635714D01*
X128404952Y-70635714D01*
X128214476Y-70588095D01*
X128119238Y-70540476D01*
X128024000Y-70445238D01*
X127976380Y-70302380D01*
X127976380Y-70207142D01*
X128024000Y-70064285D01*
X128071619Y-70016666D01*
X127976380Y-69111904D02*
X127976380Y-69588095D01*
X128452571Y-69635714D01*
X128404952Y-69588095D01*
X128357333Y-69492857D01*
X128357333Y-69254761D01*
X128404952Y-69159523D01*
X128452571Y-69111904D01*
X128547809Y-69064285D01*
X128785904Y-69064285D01*
X128881142Y-69111904D01*
X128928761Y-69159523D01*
X128976380Y-69254761D01*
X128976380Y-69492857D01*
X128928761Y-69588095D01*
X128881142Y-69635714D01*
%TD*%
M02*
