%FSLAX45Y45*%
G04 Gerber Fmt 4.5, Leading zero omitted, Abs format (unit mm)*
G04 Created by KiCad (PCBNEW (5.1.5)-3) date 2020-07-26 20:47:41*
%MOMM*%
%LPD*%
G04 APERTURE LIST*
%ADD10C,0.200000*%
%ADD11C,0.300000*%
G04 APERTURE END LIST*
D10*
X6556700Y-12360600D02*
X6576700Y-12380600D01*
X6576700Y-12360600D02*
X6556700Y-12380600D01*
X6556700Y-12460600D02*
X6576700Y-12480600D01*
X6576700Y-12460600D02*
X6556700Y-12480600D01*
X6656700Y-12360600D02*
X6676700Y-12380600D01*
X6676700Y-12360600D02*
X6656700Y-12380600D01*
X6656700Y-12460600D02*
X6676700Y-12480600D01*
X6676700Y-12460600D02*
X6656700Y-12480600D01*
X5831600Y-13165836D02*
G75*
G03X5831600Y-13165836I-15000J0D01*
G01*
X5985450Y-11022150D02*
G75*
G03X5985450Y-11022150I-15000J0D01*
G01*
X5997208Y-13279882D02*
G75*
G03X5997208Y-13279882I-15000J0D01*
G01*
X6186300Y-10535550D02*
G75*
G03X6186300Y-10535550I-15000J0D01*
G01*
X6320550Y-10807700D02*
G75*
G03X6320550Y-10807700I-15000J0D01*
G01*
X6320550Y-12236450D02*
G75*
G03X6320550Y-12236450I-15000J0D01*
G01*
X6492000Y-13150850D02*
G75*
G03X6492000Y-13150850I-15000J0D01*
G01*
X6498350Y-11861800D02*
G75*
G03X6498350Y-11861800I-15000J0D01*
G01*
X6643130Y-13131800D02*
G75*
G03X6643130Y-13131800I-15000J0D01*
G01*
X7029210Y-13025120D02*
G75*
G03X7029210Y-13025120I-15000J0D01*
G01*
X7254000Y-13150850D02*
G75*
G03X7254000Y-13150850I-15000J0D01*
G01*
X7306070Y-12989560D02*
G75*
G03X7306070Y-12989560I-15000J0D01*
G01*
X7342900Y-12147550D02*
G75*
G03X7342900Y-12147550I-15000J0D01*
G01*
X7406400Y-12973701D02*
G75*
G03X7406400Y-12973701I-15000J0D01*
G01*
X7496570Y-12984480D02*
G75*
G03X7496570Y-12984480I-15000J0D01*
G01*
X7590550Y-11461750D02*
G75*
G03X7590550Y-11461750I-15000J0D01*
G01*
X7590550Y-11588750D02*
G75*
G03X7590550Y-11588750I-15000J0D01*
G01*
X7590550Y-11671300D02*
G75*
G03X7590550Y-11671300I-15000J0D01*
G01*
X7590550Y-11837670D02*
G75*
G03X7590550Y-11837670I-15000J0D01*
G01*
X7598170Y-11907520D02*
G75*
G03X7598170Y-11907520I-15000J0D01*
G01*
X7641350Y-11430000D02*
G75*
G03X7641350Y-11430000I-15000J0D01*
G01*
X7673100Y-11922760D02*
G75*
G03X7673100Y-11922760I-15000J0D01*
G01*
X7819150Y-11493500D02*
G75*
G03X7819150Y-11493500I-15000J0D01*
G01*
X7939800Y-11493500D02*
G75*
G03X7939800Y-11493500I-15000J0D01*
G01*
X7947420Y-12241530D02*
G75*
G03X7947420Y-12241530I-15000J0D01*
G01*
X8003300Y-11398250D02*
G75*
G03X8003300Y-11398250I-15000J0D01*
G01*
X8022350Y-11233150D02*
G75*
G03X8022350Y-11233150I-15000J0D01*
G01*
X8047750Y-10293350D02*
G75*
G03X8047750Y-10293350I-15000J0D01*
G01*
X8054100Y-10769600D02*
G75*
G03X8054100Y-10769600I-15000J0D01*
G01*
X8104900Y-8610600D02*
G75*
G03X8104900Y-8610600I-15000J0D01*
G01*
X8173480Y-12073890D02*
G75*
G03X8173480Y-12073890I-15000J0D01*
G01*
X8206500Y-12312650D02*
G75*
G03X8206500Y-12312650I-15000J0D01*
G01*
X8242869Y-10877550D02*
G75*
G03X8242869Y-10877550I-15000J0D01*
G01*
X8327150Y-10941050D02*
G75*
G03X8327150Y-10941050I-15000J0D01*
G01*
X8384300Y-10985500D02*
G75*
G03X8384300Y-10985500I-15000J0D01*
G01*
X8432695Y-11036300D02*
G75*
G03X8432695Y-11036300I-15000J0D01*
G01*
X8447800Y-11252200D02*
G75*
G03X8447800Y-11252200I-15000J0D01*
G01*
X8466850Y-12179300D02*
G75*
G03X8466850Y-12179300I-15000J0D01*
G01*
X8479550Y-11068050D02*
G75*
G03X8479550Y-11068050I-15000J0D01*
G01*
X8498600Y-9025890D02*
G75*
G03X8498600Y-9025890I-15000J0D01*
G01*
X8515872Y-11893804D02*
G75*
G03X8515872Y-11893804I-15000J0D01*
G01*
X8519100Y-12198350D02*
G75*
G03X8519100Y-12198350I-15000J0D01*
G01*
X8546225Y-11191875D02*
G75*
G03X8546225Y-11191875I-15000J0D01*
G01*
X8574800Y-12179300D02*
G75*
G03X8574800Y-12179300I-15000J0D01*
G01*
X8587500Y-10528300D02*
G75*
G03X8587500Y-10528300I-15000J0D01*
G01*
X8631950Y-11188700D02*
G75*
G03X8631950Y-11188700I-15000J0D01*
G01*
X8631950Y-12179300D02*
G75*
G03X8631950Y-12179300I-15000J0D01*
G01*
X8670050Y-12757150D02*
G75*
G03X8670050Y-12757150I-15000J0D01*
G01*
X8689100Y-12179300D02*
G75*
G03X8689100Y-12179300I-15000J0D01*
G01*
X8720000Y-11043500D02*
G75*
G03X8720000Y-11043500I-15000J0D01*
G01*
X8724914Y-10846054D02*
G75*
G03X8724914Y-10846054I-15000J0D01*
G01*
X8739900Y-12757150D02*
G75*
G03X8739900Y-12757150I-15000J0D01*
G01*
X8771650Y-11734800D02*
G75*
G03X8771650Y-11734800I-15000J0D01*
G01*
X8792986Y-11242434D02*
G75*
G03X8792986Y-11242434I-15000J0D01*
G01*
X8809750Y-12757150D02*
G75*
G03X8809750Y-12757150I-15000J0D01*
G01*
X8847850Y-11264900D02*
G75*
G03X8847850Y-11264900I-15000J0D01*
G01*
X8850302Y-10505352D02*
G75*
G03X8850302Y-10505352I-15000J0D01*
G01*
X8850302Y-10703648D02*
G75*
G03X8850302Y-10703648I-15000J0D01*
G01*
X8860550Y-12725400D02*
G75*
G03X8860550Y-12725400I-15000J0D01*
G01*
X8864360Y-11941810D02*
G75*
G03X8864360Y-11941810I-15000J0D01*
G01*
X8905000Y-10458450D02*
G75*
G03X8905000Y-10458450I-15000J0D01*
G01*
X8905000Y-10725150D02*
G75*
G03X8905000Y-10725150I-15000J0D01*
G01*
X8905000Y-11239500D02*
G75*
G03X8905000Y-11239500I-15000J0D01*
G01*
X8917700Y-11976100D02*
G75*
G03X8917700Y-11976100I-15000J0D01*
G01*
X8968500Y-12014200D02*
G75*
G03X8968500Y-12014200I-15000J0D01*
G01*
X8993900Y-12369800D02*
G75*
G03X8993900Y-12369800I-15000J0D01*
G01*
X9012950Y-11264900D02*
G75*
G03X9012950Y-11264900I-15000J0D01*
G01*
X9032000Y-12433300D02*
G75*
G03X9032000Y-12433300I-15000J0D01*
G01*
X9045970Y-12238990D02*
G75*
G03X9045970Y-12238990I-15000J0D01*
G01*
X9057400Y-11772900D02*
G75*
G03X9057400Y-11772900I-15000J0D01*
G01*
X9057400Y-12033250D02*
G75*
G03X9057400Y-12033250I-15000J0D01*
G01*
X9070100Y-11239500D02*
G75*
G03X9070100Y-11239500I-15000J0D01*
G01*
X9114550Y-11842750D02*
G75*
G03X9114550Y-11842750I-15000J0D01*
G01*
X9114550Y-12071350D02*
G75*
G03X9114550Y-12071350I-15000J0D01*
G01*
X9127250Y-11264900D02*
G75*
G03X9127250Y-11264900I-15000J0D01*
G01*
X9190750Y-11239500D02*
G75*
G03X9190750Y-11239500I-15000J0D01*
G01*
X9190750Y-11893550D02*
G75*
G03X9190750Y-11893550I-15000J0D01*
G01*
X9241550Y-11957050D02*
G75*
G03X9241550Y-11957050I-15000J0D01*
G01*
X9247900Y-11283950D02*
G75*
G03X9247900Y-11283950I-15000J0D01*
G01*
X9286000Y-12001500D02*
G75*
G03X9286000Y-12001500I-15000J0D01*
G01*
X9292350Y-10610850D02*
G75*
G03X9292350Y-10610850I-15000J0D01*
G01*
X9355850Y-12071350D02*
G75*
G03X9355850Y-12071350I-15000J0D01*
G01*
X9362200Y-10668000D02*
G75*
G03X9362200Y-10668000I-15000J0D01*
G01*
X9393840Y-11682840D02*
G75*
G03X9393840Y-11682840I-15000J0D01*
G01*
X9413000Y-13025120D02*
G75*
G03X9413000Y-13025120I-15000J0D01*
G01*
X9495550Y-10902950D02*
G75*
G03X9495550Y-10902950I-15000J0D01*
G01*
X9590800Y-12712700D02*
G75*
G03X9590800Y-12712700I-15000J0D01*
G01*
X9598000Y-12261000D02*
G75*
G03X9598000Y-12261000I-15000J0D01*
G01*
X9609850Y-12420600D02*
G75*
G03X9609850Y-12420600I-15000J0D01*
G01*
X9628900Y-10922000D02*
G75*
G03X9628900Y-10922000I-15000J0D01*
G01*
X9688480Y-11977480D02*
G75*
G03X9688480Y-11977480I-15000J0D01*
G01*
X9692400Y-11518900D02*
G75*
G03X9692400Y-11518900I-15000J0D01*
G01*
X9711450Y-11576050D02*
G75*
G03X9711450Y-11576050I-15000J0D01*
G01*
X9727249Y-11465001D02*
G75*
G03X9727249Y-11465001I-15000J0D01*
G01*
X9730500Y-8172450D02*
G75*
G03X9730500Y-8172450I-15000J0D01*
G01*
X9730500Y-11341100D02*
G75*
G03X9730500Y-11341100I-15000J0D01*
G01*
X9749550Y-10922000D02*
G75*
G03X9749550Y-10922000I-15000J0D01*
G01*
X9774950Y-12515850D02*
G75*
G03X9774950Y-12515850I-15000J0D01*
G01*
X9799080Y-12867640D02*
G75*
G03X9799080Y-12867640I-15000J0D01*
G01*
X9844800Y-11118850D02*
G75*
G03X9844800Y-11118850I-15000J0D01*
G01*
X9889250Y-12687300D02*
G75*
G03X9889250Y-12687300I-15000J0D01*
G01*
X9952440Y-10712760D02*
G75*
G03X9952440Y-10712760I-15000J0D01*
G01*
X9965450Y-12687300D02*
G75*
G03X9965450Y-12687300I-15000J0D01*
G01*
X9990850Y-11785600D02*
G75*
G03X9990850Y-11785600I-15000J0D01*
G01*
X10003321Y-10997971D02*
G75*
G03X10003321Y-10997971I-15000J0D01*
G01*
X10021958Y-11835757D02*
G75*
G03X10021958Y-11835757I-15000J0D01*
G01*
X10048000Y-12687300D02*
G75*
G03X10048000Y-12687300I-15000J0D01*
G01*
X10060700Y-11944350D02*
G75*
G03X10060700Y-11944350I-15000J0D01*
G01*
X10086100Y-8242300D02*
G75*
G03X10086100Y-8242300I-15000J0D01*
G01*
X10098800Y-12001500D02*
G75*
G03X10098800Y-12001500I-15000J0D01*
G01*
X10111500Y-12065000D02*
G75*
G03X10111500Y-12065000I-15000J0D01*
G01*
X10111500Y-12128500D02*
G75*
G03X10111500Y-12128500I-15000J0D01*
G01*
X10111500Y-12192000D02*
G75*
G03X10111500Y-12192000I-15000J0D01*
G01*
X10168650Y-11049000D02*
G75*
G03X10168650Y-11049000I-15000J0D01*
G01*
X10169949Y-8749001D02*
G75*
G03X10169949Y-8749001I-15000J0D01*
G01*
X10175000Y-12782550D02*
G75*
G03X10175000Y-12782550I-15000J0D01*
G01*
X10181350Y-12325350D02*
G75*
G03X10181350Y-12325350I-15000J0D01*
G01*
X10321050Y-9099550D02*
G75*
G03X10321050Y-9099550I-15000J0D01*
G01*
X10371850Y-12153900D02*
G75*
G03X10371850Y-12153900I-15000J0D01*
G01*
X10397250Y-10636250D02*
G75*
G03X10397250Y-10636250I-15000J0D01*
G01*
X10429000Y-10579100D02*
G75*
G03X10429000Y-10579100I-15000J0D01*
G01*
X10454400Y-9544050D02*
G75*
G03X10454400Y-9544050I-15000J0D01*
G01*
X10467100Y-11329670D02*
G75*
G03X10467100Y-11329670I-15000J0D01*
G01*
X10511550Y-11207750D02*
G75*
G03X10511550Y-11207750I-15000J0D01*
G01*
X10638550Y-12446000D02*
G75*
G03X10638550Y-12446000I-15000J0D01*
G01*
X10854450Y-12325350D02*
G75*
G03X10854450Y-12325350I-15000J0D01*
G01*
X10860800Y-10591800D02*
G75*
G03X10860800Y-10591800I-15000J0D01*
G01*
X10860800Y-11576050D02*
G75*
G03X10860800Y-11576050I-15000J0D01*
G01*
X10886200Y-13004800D02*
G75*
G03X10886200Y-13004800I-15000J0D01*
G01*
X10898900Y-8661400D02*
G75*
G03X10898900Y-8661400I-15000J0D01*
G01*
X10898900Y-9734550D02*
G75*
G03X10898900Y-9734550I-15000J0D01*
G01*
X10917950Y-10477500D02*
G75*
G03X10917950Y-10477500I-15000J0D01*
G01*
X10917950Y-11499850D02*
G75*
G03X10917950Y-11499850I-15000J0D01*
G01*
X10924300Y-8756650D02*
G75*
G03X10924300Y-8756650I-15000J0D01*
G01*
X10972850Y-10257500D02*
G75*
G03X10972850Y-10257500I-15000J0D01*
G01*
X10972850Y-11781500D02*
G75*
G03X10972850Y-11781500I-15000J0D01*
G01*
X11013200Y-9817100D02*
G75*
G03X11013200Y-9817100I-15000J0D01*
G01*
X11025900Y-10039350D02*
G75*
G03X11025900Y-10039350I-15000J0D01*
G01*
X11025900Y-11836400D02*
G75*
G03X11025900Y-11836400I-15000J0D01*
G01*
X11079549Y-11046151D02*
G75*
G03X11079549Y-11046151I-15000J0D01*
G01*
X11121150Y-13030200D02*
G75*
G03X11121150Y-13030200I-15000J0D01*
G01*
X5835650Y-9898700D02*
X5835650Y-9938700D01*
X5815650Y-9918700D02*
X5855650Y-9918700D01*
X5836671Y-11180379D02*
X5836671Y-11220379D01*
X5816671Y-11200379D02*
X5856671Y-11200379D01*
X5836671Y-11524300D02*
X5836671Y-11564300D01*
X5816671Y-11544300D02*
X5856671Y-11544300D01*
X5836671Y-11688379D02*
X5836671Y-11728379D01*
X5816671Y-11708379D02*
X5856671Y-11708379D01*
X5836671Y-11936029D02*
X5836671Y-11976029D01*
X5816671Y-11956029D02*
X5856671Y-11956029D01*
X5836671Y-12393229D02*
X5836671Y-12433229D01*
X5816671Y-12413229D02*
X5856671Y-12413229D01*
X5836671Y-12666279D02*
X5836671Y-12706279D01*
X5816671Y-12686279D02*
X5856671Y-12686279D01*
X5949950Y-11492550D02*
X5949950Y-11532550D01*
X5929950Y-11512550D02*
X5969950Y-11512550D01*
X5962650Y-11302050D02*
X5962650Y-11342050D01*
X5942650Y-11322050D02*
X5982650Y-11322050D01*
X6057900Y-12038650D02*
X6057900Y-12078650D01*
X6037900Y-12058650D02*
X6077900Y-12058650D01*
X6210300Y-12489500D02*
X6210300Y-12529500D01*
X6190300Y-12509500D02*
X6230300Y-12509500D01*
X6223000Y-9898700D02*
X6223000Y-9938700D01*
X6203000Y-9918700D02*
X6243000Y-9918700D01*
X6242050Y-11981500D02*
X6242050Y-12021500D01*
X6222050Y-12001500D02*
X6262050Y-12001500D01*
X6318250Y-11263950D02*
X6318250Y-11303950D01*
X6298250Y-11283950D02*
X6338250Y-11283950D01*
X6350000Y-11429050D02*
X6350000Y-11469050D01*
X6330000Y-11449050D02*
X6370000Y-11449050D01*
X6356350Y-12616500D02*
X6356350Y-12656500D01*
X6336350Y-12636500D02*
X6376350Y-12636500D01*
X6375400Y-11111550D02*
X6375400Y-11151550D01*
X6355400Y-11131550D02*
X6395400Y-11131550D01*
X6534150Y-11949750D02*
X6534150Y-11989750D01*
X6514150Y-11969750D02*
X6554150Y-11969750D01*
X6604900Y-11346500D02*
X6604900Y-11386500D01*
X6584900Y-11366500D02*
X6624900Y-11366500D01*
X6635750Y-9987600D02*
X6635750Y-10027600D01*
X6615750Y-10007600D02*
X6655750Y-10007600D01*
X6692900Y-11752900D02*
X6692900Y-11792900D01*
X6672900Y-11772900D02*
X6712900Y-11772900D01*
X6769100Y-12165650D02*
X6769100Y-12205650D01*
X6749100Y-12185650D02*
X6789100Y-12185650D01*
X6877050Y-11346500D02*
X6877050Y-11386500D01*
X6857050Y-11366500D02*
X6897050Y-11366500D01*
X6960500Y-12399700D02*
X6960500Y-12439700D01*
X6940500Y-12419700D02*
X6980500Y-12419700D01*
X6979231Y-11003600D02*
X6979231Y-11043600D01*
X6959231Y-11023600D02*
X6999231Y-11023600D01*
X7029450Y-8196900D02*
X7029450Y-8236900D01*
X7009450Y-8216900D02*
X7049450Y-8216900D01*
X7061200Y-11029000D02*
X7061200Y-11069000D01*
X7041200Y-11049000D02*
X7081200Y-11049000D01*
X7137400Y-11054400D02*
X7137400Y-11094400D01*
X7117400Y-11074400D02*
X7157400Y-11074400D01*
X7151000Y-7777800D02*
X7151000Y-7817800D01*
X7131000Y-7797800D02*
X7171000Y-7797800D01*
X7232650Y-8082600D02*
X7232650Y-8122600D01*
X7212650Y-8102600D02*
X7252650Y-8102600D01*
X7378700Y-8082600D02*
X7378700Y-8122600D01*
X7358700Y-8102600D02*
X7398700Y-8102600D01*
X7493000Y-12127550D02*
X7493000Y-12167550D01*
X7473000Y-12147550D02*
X7513000Y-12147550D01*
X7531100Y-9905050D02*
X7531100Y-9945050D01*
X7511100Y-9925050D02*
X7551100Y-9925050D01*
X7607300Y-9098600D02*
X7607300Y-9138600D01*
X7587300Y-9118600D02*
X7627300Y-9118600D01*
X7651750Y-12616500D02*
X7651750Y-12656500D01*
X7631750Y-12636500D02*
X7671750Y-12636500D01*
X7771500Y-7777800D02*
X7771500Y-7817800D01*
X7751500Y-7797800D02*
X7791500Y-7797800D01*
X7977524Y-12466024D02*
X7977524Y-12506024D01*
X7957524Y-12486024D02*
X7997524Y-12486024D01*
X8007350Y-7574600D02*
X8007350Y-7614600D01*
X7987350Y-7594600D02*
X8027350Y-7594600D01*
X8102600Y-12286300D02*
X8102600Y-12326300D01*
X8082600Y-12306300D02*
X8122600Y-12306300D01*
X8485050Y-11326000D02*
X8485050Y-11366000D01*
X8465050Y-11346000D02*
X8505050Y-11346000D01*
X8636000Y-10273350D02*
X8636000Y-10313350D01*
X8616000Y-10293350D02*
X8656000Y-10293350D01*
X8699500Y-10197150D02*
X8699500Y-10237150D01*
X8679500Y-10217150D02*
X8719500Y-10217150D01*
X8724900Y-11325651D02*
X8724900Y-11365651D01*
X8704900Y-11345651D02*
X8744900Y-11345651D01*
X8897799Y-8608201D02*
X8897799Y-8648201D01*
X8877799Y-8628201D02*
X8917799Y-8628201D01*
X8897799Y-8989201D02*
X8897799Y-9029201D01*
X8877799Y-9009201D02*
X8917799Y-9009201D01*
X8902700Y-10311450D02*
X8902700Y-10351450D01*
X8882700Y-10331450D02*
X8922700Y-10331450D01*
X8972550Y-10717850D02*
X8972550Y-10757850D01*
X8952550Y-10737850D02*
X8992550Y-10737850D01*
X8985250Y-7911150D02*
X8985250Y-7951150D01*
X8965250Y-7931150D02*
X9005250Y-7931150D01*
X9048750Y-10324150D02*
X9048750Y-10364150D01*
X9028750Y-10344150D02*
X9068750Y-10344150D01*
X9271000Y-8819200D02*
X9271000Y-8859200D01*
X9251000Y-8839200D02*
X9291000Y-8839200D01*
X9353550Y-10257799D02*
X9353550Y-10297799D01*
X9333550Y-10277799D02*
X9373550Y-10277799D01*
X9385300Y-11181400D02*
X9385300Y-11221400D01*
X9365300Y-11201400D02*
X9405300Y-11201400D01*
X9513266Y-12037684D02*
X9513266Y-12077684D01*
X9493266Y-12057684D02*
X9533266Y-12057684D01*
X9514350Y-9915700D02*
X9514350Y-9955700D01*
X9494350Y-9935700D02*
X9534350Y-9935700D01*
X9518650Y-10140000D02*
X9518650Y-10180000D01*
X9498650Y-10160000D02*
X9538650Y-10160000D01*
X9518650Y-11314750D02*
X9518650Y-11354750D01*
X9498650Y-11334750D02*
X9538650Y-11334750D01*
X9525000Y-11524300D02*
X9525000Y-11564300D01*
X9505000Y-11544300D02*
X9545000Y-11544300D01*
X9679940Y-10607360D02*
X9679940Y-10647360D01*
X9659940Y-10627360D02*
X9699940Y-10627360D01*
X9734550Y-10082850D02*
X9734550Y-10122850D01*
X9714550Y-10102850D02*
X9754550Y-10102850D01*
X10132060Y-10844850D02*
X10132060Y-10884850D01*
X10112060Y-10864850D02*
X10152060Y-10864850D01*
X10242550Y-10698800D02*
X10242550Y-10738800D01*
X10222550Y-10718800D02*
X10262550Y-10718800D01*
X10356850Y-12641900D02*
X10356850Y-12681900D01*
X10336850Y-12661900D02*
X10376850Y-12661900D01*
X10431225Y-9858775D02*
X10431225Y-9898775D01*
X10411225Y-9878775D02*
X10451225Y-9878775D01*
X10610850Y-11403650D02*
X10610850Y-11443650D01*
X10590850Y-11423650D02*
X10630850Y-11423650D01*
X10655300Y-11029000D02*
X10655300Y-11069000D01*
X10635300Y-11049000D02*
X10675300Y-11049000D01*
X10839450Y-12635550D02*
X10839450Y-12675550D01*
X10819450Y-12655550D02*
X10859450Y-12655550D01*
X10845800Y-9339900D02*
X10845800Y-9379900D01*
X10825800Y-9359900D02*
X10865800Y-9359900D01*
X10871200Y-8838250D02*
X10871200Y-8878250D01*
X10851200Y-8858250D02*
X10891200Y-8858250D01*
X10928550Y-10127500D02*
X10928550Y-10167500D01*
X10908550Y-10147500D02*
X10948550Y-10147500D01*
X11174300Y-9557500D02*
X11174300Y-9597500D01*
X11154300Y-9577500D02*
X11194300Y-9577500D01*
X11175400Y-10737500D02*
X11175400Y-10777500D01*
X11155400Y-10757500D02*
X11195400Y-10757500D01*
X11177500Y-9907500D02*
X11177500Y-9947500D01*
X11157500Y-9927500D02*
X11197500Y-9927500D01*
X11424062Y-11028588D02*
X11424062Y-11068588D01*
X11404062Y-11048588D02*
X11444062Y-11048588D01*
X11461750Y-12413300D02*
X11461750Y-12453300D01*
X11441750Y-12433300D02*
X11481750Y-12433300D01*
X11461750Y-12667300D02*
X11461750Y-12707300D01*
X11441750Y-12687300D02*
X11481750Y-12687300D01*
X10734313Y-8373413D02*
X10734313Y-8330987D01*
X10691887Y-8330987D01*
X10691887Y-8373413D01*
X10734313Y-8373413D01*
X10768100Y-8332200D02*
X10658100Y-8332200D01*
X10768100Y-8372200D02*
X10658100Y-8372200D01*
X10658100Y-8332200D02*
G75*
G03X10658100Y-8372200I0J-20000D01*
G01*
X10768100Y-8372200D02*
G75*
G03X10768100Y-8332200I0J20000D01*
G01*
X10734313Y-9093413D02*
X10734313Y-9050987D01*
X10691887Y-9050987D01*
X10691887Y-9093413D01*
X10734313Y-9093413D01*
X10768100Y-9052200D02*
X10658100Y-9052200D01*
X10768100Y-9092200D02*
X10658100Y-9092200D01*
X10658100Y-9052200D02*
G75*
G03X10658100Y-9092200I0J-20000D01*
G01*
X10768100Y-9092200D02*
G75*
G03X10768100Y-9052200I0J20000D01*
G01*
X11089313Y-8373413D02*
X11089313Y-8330987D01*
X11046887Y-8330987D01*
X11046887Y-8373413D01*
X11089313Y-8373413D01*
X11123100Y-8332200D02*
X11013100Y-8332200D01*
X11123100Y-8372200D02*
X11013100Y-8372200D01*
X11013100Y-8332200D02*
G75*
G03X11013100Y-8372200I0J-20000D01*
G01*
X11123100Y-8372200D02*
G75*
G03X11123100Y-8332200I0J20000D01*
G01*
X11089313Y-9093413D02*
X11089313Y-9050987D01*
X11046887Y-9050987D01*
X11046887Y-9093413D01*
X11089313Y-9093413D01*
X11123100Y-9052200D02*
X11013100Y-9052200D01*
X11123100Y-9092200D02*
X11013100Y-9092200D01*
X11013100Y-9052200D02*
G75*
G03X11013100Y-9092200I0J-20000D01*
G01*
X11123100Y-9092200D02*
G75*
G03X11123100Y-9052200I0J20000D01*
G01*
X9810750Y-7442750D02*
X9855750Y-7397750D01*
X9810750Y-7352750D01*
X9765750Y-7397750D01*
X9810750Y-7442750D01*
X9810750Y-7696750D02*
X9855750Y-7651750D01*
X9810750Y-7606750D01*
X9765750Y-7651750D01*
X9810750Y-7696750D01*
X9284500Y-10414800D02*
X9384500Y-10514800D01*
X9384500Y-10414800D02*
X9284500Y-10514800D01*
X9384500Y-10464800D02*
G75*
G03X9384500Y-10464800I-50000J0D01*
G01*
X9538500Y-10414800D02*
X9638500Y-10514800D01*
X9638500Y-10414800D02*
X9538500Y-10514800D01*
X9638500Y-10464800D02*
G75*
G03X9638500Y-10464800I-50000J0D01*
G01*
X9792500Y-10414800D02*
X9892500Y-10514800D01*
X9892500Y-10414800D02*
X9792500Y-10514800D01*
X9892500Y-10464800D02*
G75*
G03X9892500Y-10464800I-50000J0D01*
G01*
X8459000Y-8192300D02*
X8559000Y-8292300D01*
X8559000Y-8192300D02*
X8459000Y-8292300D01*
X8559000Y-8242300D02*
G75*
G03X8559000Y-8242300I-50000J0D01*
G01*
X8713000Y-8192300D02*
X8813000Y-8292300D01*
X8813000Y-8192300D02*
X8713000Y-8292300D01*
X8813000Y-8242300D02*
G75*
G03X8813000Y-8242300I-50000J0D01*
G01*
X8967000Y-8192300D02*
X9067000Y-8292300D01*
X9067000Y-8192300D02*
X8967000Y-8292300D01*
X9067000Y-8242300D02*
G75*
G03X9067000Y-8242300I-50000J0D01*
G01*
X9221000Y-8192300D02*
X9321000Y-8292300D01*
X9321000Y-8192300D02*
X9221000Y-8292300D01*
X9321000Y-8242300D02*
G75*
G03X9321000Y-8242300I-50000J0D01*
G01*
X9475000Y-8192300D02*
X9575000Y-8292300D01*
X9575000Y-8192300D02*
X9475000Y-8292300D01*
X9575000Y-8242300D02*
G75*
G03X9575000Y-8242300I-50000J0D01*
G01*
X9284500Y-9151150D02*
X9384500Y-9251150D01*
X9384500Y-9151150D02*
X9284500Y-9251150D01*
X9384500Y-9201150D02*
G75*
G03X9384500Y-9201150I-50000J0D01*
G01*
X9284500Y-9405150D02*
X9384500Y-9505150D01*
X9384500Y-9405150D02*
X9284500Y-9505150D01*
X9384500Y-9455150D02*
G75*
G03X9384500Y-9455150I-50000J0D01*
G01*
X9538500Y-9151150D02*
X9638500Y-9251150D01*
X9638500Y-9151150D02*
X9538500Y-9251150D01*
X9638500Y-9201150D02*
G75*
G03X9638500Y-9201150I-50000J0D01*
G01*
X9538500Y-9405150D02*
X9638500Y-9505150D01*
X9638500Y-9405150D02*
X9538500Y-9505150D01*
X9638500Y-9455150D02*
G75*
G03X9638500Y-9455150I-50000J0D01*
G01*
X9792500Y-9151150D02*
X9892500Y-9251150D01*
X9892500Y-9151150D02*
X9792500Y-9251150D01*
X9892500Y-9201150D02*
G75*
G03X9892500Y-9201150I-50000J0D01*
G01*
X9792500Y-9405150D02*
X9892500Y-9505150D01*
X9892500Y-9405150D02*
X9792500Y-9505150D01*
X9892500Y-9455150D02*
G75*
G03X9892500Y-9455150I-50000J0D01*
G01*
X6046000Y-10351300D02*
X6146000Y-10451300D01*
X6146000Y-10351300D02*
X6046000Y-10451300D01*
X6146000Y-10401300D02*
G75*
G03X6146000Y-10401300I-50000J0D01*
G01*
X6046000Y-10605300D02*
X6146000Y-10705300D01*
X6146000Y-10605300D02*
X6046000Y-10705300D01*
X6146000Y-10655300D02*
G75*
G03X6146000Y-10655300I-50000J0D01*
G01*
X6300000Y-10351300D02*
X6400000Y-10451300D01*
X6400000Y-10351300D02*
X6300000Y-10451300D01*
X6400000Y-10401300D02*
G75*
G03X6400000Y-10401300I-50000J0D01*
G01*
X6300000Y-10605300D02*
X6400000Y-10705300D01*
X6400000Y-10605300D02*
X6300000Y-10705300D01*
X6400000Y-10655300D02*
G75*
G03X6400000Y-10655300I-50000J0D01*
G01*
X6554000Y-10351300D02*
X6654000Y-10451300D01*
X6654000Y-10351300D02*
X6554000Y-10451300D01*
X6654000Y-10401300D02*
G75*
G03X6654000Y-10401300I-50000J0D01*
G01*
X6554000Y-10605300D02*
X6654000Y-10705300D01*
X6654000Y-10605300D02*
X6554000Y-10705300D01*
X6654000Y-10655300D02*
G75*
G03X6654000Y-10655300I-50000J0D01*
G01*
X6808000Y-10351300D02*
X6908000Y-10451300D01*
X6908000Y-10351300D02*
X6808000Y-10451300D01*
X6908000Y-10401300D02*
G75*
G03X6908000Y-10401300I-50000J0D01*
G01*
X6808000Y-10605300D02*
X6908000Y-10705300D01*
X6908000Y-10605300D02*
X6808000Y-10705300D01*
X6908000Y-10655300D02*
G75*
G03X6908000Y-10655300I-50000J0D01*
G01*
X7062000Y-10351300D02*
X7162000Y-10451300D01*
X7162000Y-10351300D02*
X7062000Y-10451300D01*
X7162000Y-10401300D02*
G75*
G03X7162000Y-10401300I-50000J0D01*
G01*
X7062000Y-10605300D02*
X7162000Y-10705300D01*
X7162000Y-10605300D02*
X7062000Y-10705300D01*
X7162000Y-10655300D02*
G75*
G03X7162000Y-10655300I-50000J0D01*
G01*
X7316000Y-10351300D02*
X7416000Y-10451300D01*
X7416000Y-10351300D02*
X7316000Y-10451300D01*
X7416000Y-10401300D02*
G75*
G03X7416000Y-10401300I-50000J0D01*
G01*
X7316000Y-10605300D02*
X7416000Y-10705300D01*
X7416000Y-10605300D02*
X7316000Y-10705300D01*
X7416000Y-10655300D02*
G75*
G03X7416000Y-10655300I-50000J0D01*
G01*
X7570000Y-10351300D02*
X7670000Y-10451300D01*
X7670000Y-10351300D02*
X7570000Y-10451300D01*
X7670000Y-10401300D02*
G75*
G03X7670000Y-10401300I-50000J0D01*
G01*
X7570000Y-10605300D02*
X7670000Y-10705300D01*
X7670000Y-10605300D02*
X7570000Y-10705300D01*
X7670000Y-10655300D02*
G75*
G03X7670000Y-10655300I-50000J0D01*
G01*
X7824000Y-10351300D02*
X7924000Y-10451300D01*
X7924000Y-10351300D02*
X7824000Y-10451300D01*
X7924000Y-10401300D02*
G75*
G03X7924000Y-10401300I-50000J0D01*
G01*
X7824000Y-10605300D02*
X7924000Y-10705300D01*
X7924000Y-10605300D02*
X7824000Y-10705300D01*
X7924000Y-10655300D02*
G75*
G03X7924000Y-10655300I-50000J0D01*
G01*
X8078000Y-10351300D02*
X8178000Y-10451300D01*
X8178000Y-10351300D02*
X8078000Y-10451300D01*
X8178000Y-10401300D02*
G75*
G03X8178000Y-10401300I-50000J0D01*
G01*
X8078000Y-10605300D02*
X8178000Y-10705300D01*
X8178000Y-10605300D02*
X8078000Y-10705300D01*
X8178000Y-10655300D02*
G75*
G03X8178000Y-10655300I-50000J0D01*
G01*
X8332000Y-10351300D02*
X8432000Y-10451300D01*
X8432000Y-10351300D02*
X8332000Y-10451300D01*
X8432000Y-10401300D02*
G75*
G03X8432000Y-10401300I-50000J0D01*
G01*
X8332000Y-10605300D02*
X8432000Y-10705300D01*
X8432000Y-10605300D02*
X8332000Y-10705300D01*
X8432000Y-10655300D02*
G75*
G03X8432000Y-10655300I-50000J0D01*
G01*
X7570000Y-8052600D02*
X7670000Y-8152600D01*
X7670000Y-8052600D02*
X7570000Y-8152600D01*
X7670000Y-8102600D02*
G75*
G03X7670000Y-8102600I-50000J0D01*
G01*
X7824000Y-8052600D02*
X7924000Y-8152600D01*
X7924000Y-8052600D02*
X7824000Y-8152600D01*
X7924000Y-8102600D02*
G75*
G03X7924000Y-8102600I-50000J0D01*
G01*
X6046000Y-8052600D02*
X6146000Y-8152600D01*
X6146000Y-8052600D02*
X6046000Y-8152600D01*
X6146000Y-8102600D02*
G75*
G03X6146000Y-8102600I-50000J0D01*
G01*
X6300000Y-8052600D02*
X6400000Y-8152600D01*
X6400000Y-8052600D02*
X6300000Y-8152600D01*
X6400000Y-8102600D02*
G75*
G03X6400000Y-8102600I-50000J0D01*
G01*
X10281450Y-8535200D02*
X10381450Y-8635200D01*
X10381450Y-8535200D02*
X10281450Y-8635200D01*
X10381450Y-8585200D02*
G75*
G03X10381450Y-8585200I-50000J0D01*
G01*
X10281450Y-8789200D02*
X10381450Y-8889200D01*
X10381450Y-8789200D02*
X10281450Y-8889200D01*
X10381450Y-8839200D02*
G75*
G03X10381450Y-8839200I-50000J0D01*
G01*
X10600300Y-7247500D02*
X10710300Y-7357500D01*
X10710300Y-7247500D02*
X10600300Y-7357500D01*
X10655300Y-7247500D02*
X10655300Y-7357500D01*
X10600300Y-7302500D02*
X10710300Y-7302500D01*
X10600300Y-7697500D02*
X10710300Y-7807500D01*
X10710300Y-7697500D02*
X10600300Y-7807500D01*
X10655300Y-7697500D02*
X10655300Y-7807500D01*
X10600300Y-7752500D02*
X10710300Y-7752500D01*
X11250300Y-7247500D02*
X11360300Y-7357500D01*
X11360300Y-7247500D02*
X11250300Y-7357500D01*
X11305300Y-7247500D02*
X11305300Y-7357500D01*
X11250300Y-7302500D02*
X11360300Y-7302500D01*
X11250300Y-7697500D02*
X11360300Y-7807500D01*
X11360300Y-7697500D02*
X11250300Y-7807500D01*
X11305300Y-7697500D02*
X11305300Y-7807500D01*
X11250300Y-7752500D02*
X11360300Y-7752500D01*
X5914000Y-7247500D02*
X6024000Y-7357500D01*
X6024000Y-7247500D02*
X5914000Y-7357500D01*
X5969000Y-7247500D02*
X5969000Y-7357500D01*
X5914000Y-7302500D02*
X6024000Y-7302500D01*
X5914000Y-7697500D02*
X6024000Y-7807500D01*
X6024000Y-7697500D02*
X5914000Y-7807500D01*
X5969000Y-7697500D02*
X5969000Y-7807500D01*
X5914000Y-7752500D02*
X6024000Y-7752500D01*
X6564000Y-7247500D02*
X6674000Y-7357500D01*
X6674000Y-7247500D02*
X6564000Y-7357500D01*
X6619000Y-7247500D02*
X6619000Y-7357500D01*
X6564000Y-7302500D02*
X6674000Y-7302500D01*
X6564000Y-7697500D02*
X6674000Y-7807500D01*
X6674000Y-7697500D02*
X6564000Y-7807500D01*
X6619000Y-7697500D02*
X6619000Y-7807500D01*
X6564000Y-7752500D02*
X6674000Y-7752500D01*
X8257150Y-7247500D02*
X8367150Y-7357500D01*
X8367150Y-7247500D02*
X8257150Y-7357500D01*
X8312150Y-7247500D02*
X8312150Y-7357500D01*
X8257150Y-7302500D02*
X8367150Y-7302500D01*
X8257150Y-7697500D02*
X8367150Y-7807500D01*
X8367150Y-7697500D02*
X8257150Y-7807500D01*
X8312150Y-7697500D02*
X8312150Y-7807500D01*
X8257150Y-7752500D02*
X8367150Y-7752500D01*
X8907150Y-7247500D02*
X9017150Y-7357500D01*
X9017150Y-7247500D02*
X8907150Y-7357500D01*
X8962150Y-7247500D02*
X8962150Y-7357500D01*
X8907150Y-7302500D02*
X9017150Y-7302500D01*
X8907150Y-7697500D02*
X9017150Y-7807500D01*
X9017150Y-7697500D02*
X8907150Y-7807500D01*
X8962150Y-7697500D02*
X8962150Y-7807500D01*
X8907150Y-7752500D02*
X9017150Y-7752500D01*
D11*
X6025558Y-14405234D02*
X6025558Y-14105234D01*
X6096987Y-14105234D01*
X6139844Y-14119520D01*
X6168416Y-14148091D01*
X6182701Y-14176663D01*
X6196987Y-14233806D01*
X6196987Y-14276663D01*
X6182701Y-14333806D01*
X6168416Y-14362377D01*
X6139844Y-14390949D01*
X6096987Y-14405234D01*
X6025558Y-14405234D01*
X6325558Y-14405234D02*
X6325558Y-14205234D01*
X6325558Y-14262377D02*
X6339844Y-14233806D01*
X6354130Y-14219520D01*
X6382701Y-14205234D01*
X6411273Y-14205234D01*
X6511273Y-14405234D02*
X6511273Y-14205234D01*
X6511273Y-14105234D02*
X6496987Y-14119520D01*
X6511273Y-14133806D01*
X6525558Y-14119520D01*
X6511273Y-14105234D01*
X6511273Y-14133806D01*
X6696987Y-14405234D02*
X6668416Y-14390949D01*
X6654130Y-14362377D01*
X6654130Y-14105234D01*
X6854130Y-14405234D02*
X6825558Y-14390949D01*
X6811273Y-14362377D01*
X6811273Y-14105234D01*
X7196987Y-14405234D02*
X7196987Y-14105234D01*
X7296987Y-14319520D01*
X7396987Y-14105234D01*
X7396987Y-14405234D01*
X7668416Y-14405234D02*
X7668416Y-14248091D01*
X7654130Y-14219520D01*
X7625558Y-14205234D01*
X7568416Y-14205234D01*
X7539844Y-14219520D01*
X7668416Y-14390949D02*
X7639844Y-14405234D01*
X7568416Y-14405234D01*
X7539844Y-14390949D01*
X7525558Y-14362377D01*
X7525558Y-14333806D01*
X7539844Y-14305234D01*
X7568416Y-14290949D01*
X7639844Y-14290949D01*
X7668416Y-14276663D01*
X7811273Y-14205234D02*
X7811273Y-14505234D01*
X7811273Y-14219520D02*
X7839844Y-14205234D01*
X7896987Y-14205234D01*
X7925558Y-14219520D01*
X7939844Y-14233806D01*
X7954130Y-14262377D01*
X7954130Y-14348091D01*
X7939844Y-14376663D01*
X7925558Y-14390949D01*
X7896987Y-14405234D01*
X7839844Y-14405234D01*
X7811273Y-14390949D01*
X8082701Y-14376663D02*
X8096987Y-14390949D01*
X8082701Y-14405234D01*
X8068416Y-14390949D01*
X8082701Y-14376663D01*
X8082701Y-14405234D01*
X8082701Y-14219520D02*
X8096987Y-14233806D01*
X8082701Y-14248091D01*
X8068416Y-14233806D01*
X8082701Y-14219520D01*
X8082701Y-14248091D01*
X5719130Y-14889520D02*
X5739130Y-14909520D01*
X5739130Y-14889520D02*
X5719130Y-14909520D01*
X6082701Y-14735234D02*
X6111273Y-14735234D01*
X6139844Y-14749520D01*
X6154130Y-14763806D01*
X6168416Y-14792377D01*
X6182701Y-14849520D01*
X6182701Y-14920949D01*
X6168416Y-14978091D01*
X6154130Y-15006663D01*
X6139844Y-15020949D01*
X6111273Y-15035234D01*
X6082701Y-15035234D01*
X6054130Y-15020949D01*
X6039844Y-15006663D01*
X6025558Y-14978091D01*
X6011273Y-14920949D01*
X6011273Y-14849520D01*
X6025558Y-14792377D01*
X6039844Y-14763806D01*
X6054130Y-14749520D01*
X6082701Y-14735234D01*
X6311273Y-15006663D02*
X6325558Y-15020949D01*
X6311273Y-15035234D01*
X6296987Y-15020949D01*
X6311273Y-15006663D01*
X6311273Y-15035234D01*
X6439844Y-14763806D02*
X6454130Y-14749520D01*
X6482701Y-14735234D01*
X6554130Y-14735234D01*
X6582701Y-14749520D01*
X6596987Y-14763806D01*
X6611273Y-14792377D01*
X6611273Y-14820949D01*
X6596987Y-14863806D01*
X6425558Y-15035234D01*
X6611273Y-15035234D01*
X6796987Y-14735234D02*
X6825558Y-14735234D01*
X6854130Y-14749520D01*
X6868416Y-14763806D01*
X6882701Y-14792377D01*
X6896987Y-14849520D01*
X6896987Y-14920949D01*
X6882701Y-14978091D01*
X6868416Y-15006663D01*
X6854130Y-15020949D01*
X6825558Y-15035234D01*
X6796987Y-15035234D01*
X6768416Y-15020949D01*
X6754130Y-15006663D01*
X6739844Y-14978091D01*
X6725558Y-14920949D01*
X6725558Y-14849520D01*
X6739844Y-14792377D01*
X6754130Y-14763806D01*
X6768416Y-14749520D01*
X6796987Y-14735234D01*
X7025558Y-15035234D02*
X7025558Y-14835234D01*
X7025558Y-14863806D02*
X7039844Y-14849520D01*
X7068416Y-14835234D01*
X7111273Y-14835234D01*
X7139844Y-14849520D01*
X7154130Y-14878091D01*
X7154130Y-15035234D01*
X7154130Y-14878091D02*
X7168416Y-14849520D01*
X7196987Y-14835234D01*
X7239844Y-14835234D01*
X7268416Y-14849520D01*
X7282701Y-14878091D01*
X7282701Y-15035234D01*
X7425558Y-15035234D02*
X7425558Y-14835234D01*
X7425558Y-14863806D02*
X7439844Y-14849520D01*
X7468416Y-14835234D01*
X7511273Y-14835234D01*
X7539844Y-14849520D01*
X7554130Y-14878091D01*
X7554130Y-15035234D01*
X7554130Y-14878091D02*
X7568416Y-14849520D01*
X7596987Y-14835234D01*
X7639844Y-14835234D01*
X7668416Y-14849520D01*
X7682701Y-14878091D01*
X7682701Y-15035234D01*
X8268416Y-14720949D02*
X8011273Y-15106663D01*
X8654130Y-14735234D02*
X8682701Y-14735234D01*
X8711273Y-14749520D01*
X8725558Y-14763806D01*
X8739844Y-14792377D01*
X8754130Y-14849520D01*
X8754130Y-14920949D01*
X8739844Y-14978091D01*
X8725558Y-15006663D01*
X8711273Y-15020949D01*
X8682701Y-15035234D01*
X8654130Y-15035234D01*
X8625558Y-15020949D01*
X8611273Y-15006663D01*
X8596987Y-14978091D01*
X8582701Y-14920949D01*
X8582701Y-14849520D01*
X8596987Y-14792377D01*
X8611273Y-14763806D01*
X8625558Y-14749520D01*
X8654130Y-14735234D01*
X8882701Y-15006663D02*
X8896987Y-15020949D01*
X8882701Y-15035234D01*
X8868416Y-15020949D01*
X8882701Y-15006663D01*
X8882701Y-15035234D01*
X9082701Y-14735234D02*
X9111273Y-14735234D01*
X9139844Y-14749520D01*
X9154130Y-14763806D01*
X9168416Y-14792377D01*
X9182701Y-14849520D01*
X9182701Y-14920949D01*
X9168416Y-14978091D01*
X9154130Y-15006663D01*
X9139844Y-15020949D01*
X9111273Y-15035234D01*
X9082701Y-15035234D01*
X9054130Y-15020949D01*
X9039844Y-15006663D01*
X9025558Y-14978091D01*
X9011273Y-14920949D01*
X9011273Y-14849520D01*
X9025558Y-14792377D01*
X9039844Y-14763806D01*
X9054130Y-14749520D01*
X9082701Y-14735234D01*
X9368416Y-14735234D02*
X9396987Y-14735234D01*
X9425558Y-14749520D01*
X9439844Y-14763806D01*
X9454130Y-14792377D01*
X9468416Y-14849520D01*
X9468416Y-14920949D01*
X9454130Y-14978091D01*
X9439844Y-15006663D01*
X9425558Y-15020949D01*
X9396987Y-15035234D01*
X9368416Y-15035234D01*
X9339844Y-15020949D01*
X9325558Y-15006663D01*
X9311273Y-14978091D01*
X9296987Y-14920949D01*
X9296987Y-14849520D01*
X9311273Y-14792377D01*
X9325558Y-14763806D01*
X9339844Y-14749520D01*
X9368416Y-14735234D01*
X9639844Y-14863806D02*
X9611273Y-14849520D01*
X9596987Y-14835234D01*
X9582701Y-14806663D01*
X9582701Y-14792377D01*
X9596987Y-14763806D01*
X9611273Y-14749520D01*
X9639844Y-14735234D01*
X9696987Y-14735234D01*
X9725558Y-14749520D01*
X9739844Y-14763806D01*
X9754130Y-14792377D01*
X9754130Y-14806663D01*
X9739844Y-14835234D01*
X9725558Y-14849520D01*
X9696987Y-14863806D01*
X9639844Y-14863806D01*
X9611273Y-14878091D01*
X9596987Y-14892377D01*
X9582701Y-14920949D01*
X9582701Y-14978091D01*
X9596987Y-15006663D01*
X9611273Y-15020949D01*
X9639844Y-15035234D01*
X9696987Y-15035234D01*
X9725558Y-15020949D01*
X9739844Y-15006663D01*
X9754130Y-14978091D01*
X9754130Y-14920949D01*
X9739844Y-14892377D01*
X9725558Y-14878091D01*
X9696987Y-14863806D01*
X9868416Y-14735234D02*
X9868416Y-14792377D01*
X9982701Y-14735234D02*
X9982701Y-14792377D01*
X10425558Y-15149520D02*
X10411273Y-15135234D01*
X10382701Y-15092377D01*
X10368416Y-15063806D01*
X10354130Y-15020949D01*
X10339844Y-14949520D01*
X10339844Y-14892377D01*
X10354130Y-14820949D01*
X10368416Y-14778091D01*
X10382701Y-14749520D01*
X10411273Y-14706663D01*
X10425558Y-14692377D01*
X10668416Y-14835234D02*
X10668416Y-15035234D01*
X10596987Y-14720949D02*
X10525558Y-14935234D01*
X10711273Y-14935234D01*
X11054130Y-15035234D02*
X11054130Y-14735234D01*
X11182701Y-15035234D02*
X11182701Y-14878091D01*
X11168416Y-14849520D01*
X11139844Y-14835234D01*
X11096987Y-14835234D01*
X11068416Y-14849520D01*
X11054130Y-14863806D01*
X11368416Y-15035234D02*
X11339844Y-15020949D01*
X11325558Y-15006663D01*
X11311273Y-14978091D01*
X11311273Y-14892377D01*
X11325558Y-14863806D01*
X11339844Y-14849520D01*
X11368416Y-14835234D01*
X11411273Y-14835234D01*
X11439844Y-14849520D01*
X11454130Y-14863806D01*
X11468416Y-14892377D01*
X11468416Y-14978091D01*
X11454130Y-15006663D01*
X11439844Y-15020949D01*
X11411273Y-15035234D01*
X11368416Y-15035234D01*
X11639844Y-15035234D02*
X11611273Y-15020949D01*
X11596987Y-14992377D01*
X11596987Y-14735234D01*
X11868416Y-15020949D02*
X11839844Y-15035234D01*
X11782701Y-15035234D01*
X11754130Y-15020949D01*
X11739844Y-14992377D01*
X11739844Y-14878091D01*
X11754130Y-14849520D01*
X11782701Y-14835234D01*
X11839844Y-14835234D01*
X11868416Y-14849520D01*
X11882701Y-14878091D01*
X11882701Y-14906663D01*
X11739844Y-14935234D01*
X11996987Y-15020949D02*
X12025558Y-15035234D01*
X12082701Y-15035234D01*
X12111273Y-15020949D01*
X12125558Y-14992377D01*
X12125558Y-14978091D01*
X12111273Y-14949520D01*
X12082701Y-14935234D01*
X12039844Y-14935234D01*
X12011273Y-14920949D01*
X11996987Y-14892377D01*
X11996987Y-14878091D01*
X12011273Y-14849520D01*
X12039844Y-14835234D01*
X12082701Y-14835234D01*
X12111273Y-14849520D01*
X12225558Y-15149520D02*
X12239844Y-15135234D01*
X12268416Y-15092377D01*
X12282701Y-15063806D01*
X12296987Y-15020949D01*
X12311273Y-14949520D01*
X12311273Y-14892377D01*
X12296987Y-14820949D01*
X12282701Y-14778091D01*
X12268416Y-14749520D01*
X12239844Y-14706663D01*
X12225558Y-14692377D01*
X5739130Y-15295520D02*
G75*
G03X5739130Y-15295520I-15000J0D01*
G01*
X6082701Y-15131234D02*
X6111273Y-15131234D01*
X6139844Y-15145520D01*
X6154130Y-15159806D01*
X6168416Y-15188377D01*
X6182701Y-15245520D01*
X6182701Y-15316949D01*
X6168416Y-15374091D01*
X6154130Y-15402663D01*
X6139844Y-15416949D01*
X6111273Y-15431234D01*
X6082701Y-15431234D01*
X6054130Y-15416949D01*
X6039844Y-15402663D01*
X6025558Y-15374091D01*
X6011273Y-15316949D01*
X6011273Y-15245520D01*
X6025558Y-15188377D01*
X6039844Y-15159806D01*
X6054130Y-15145520D01*
X6082701Y-15131234D01*
X6311273Y-15402663D02*
X6325558Y-15416949D01*
X6311273Y-15431234D01*
X6296987Y-15416949D01*
X6311273Y-15402663D01*
X6311273Y-15431234D01*
X6425558Y-15131234D02*
X6611273Y-15131234D01*
X6511273Y-15245520D01*
X6554130Y-15245520D01*
X6582701Y-15259806D01*
X6596987Y-15274091D01*
X6611273Y-15302663D01*
X6611273Y-15374091D01*
X6596987Y-15402663D01*
X6582701Y-15416949D01*
X6554130Y-15431234D01*
X6468416Y-15431234D01*
X6439844Y-15416949D01*
X6425558Y-15402663D01*
X6796987Y-15131234D02*
X6825558Y-15131234D01*
X6854130Y-15145520D01*
X6868416Y-15159806D01*
X6882701Y-15188377D01*
X6896987Y-15245520D01*
X6896987Y-15316949D01*
X6882701Y-15374091D01*
X6868416Y-15402663D01*
X6854130Y-15416949D01*
X6825558Y-15431234D01*
X6796987Y-15431234D01*
X6768416Y-15416949D01*
X6754130Y-15402663D01*
X6739844Y-15374091D01*
X6725558Y-15316949D01*
X6725558Y-15245520D01*
X6739844Y-15188377D01*
X6754130Y-15159806D01*
X6768416Y-15145520D01*
X6796987Y-15131234D01*
X7025558Y-15431234D02*
X7025558Y-15231234D01*
X7025558Y-15259806D02*
X7039844Y-15245520D01*
X7068416Y-15231234D01*
X7111273Y-15231234D01*
X7139844Y-15245520D01*
X7154130Y-15274091D01*
X7154130Y-15431234D01*
X7154130Y-15274091D02*
X7168416Y-15245520D01*
X7196987Y-15231234D01*
X7239844Y-15231234D01*
X7268416Y-15245520D01*
X7282701Y-15274091D01*
X7282701Y-15431234D01*
X7425558Y-15431234D02*
X7425558Y-15231234D01*
X7425558Y-15259806D02*
X7439844Y-15245520D01*
X7468416Y-15231234D01*
X7511273Y-15231234D01*
X7539844Y-15245520D01*
X7554130Y-15274091D01*
X7554130Y-15431234D01*
X7554130Y-15274091D02*
X7568416Y-15245520D01*
X7596987Y-15231234D01*
X7639844Y-15231234D01*
X7668416Y-15245520D01*
X7682701Y-15274091D01*
X7682701Y-15431234D01*
X8268416Y-15116949D02*
X8011273Y-15502663D01*
X8654130Y-15131234D02*
X8682701Y-15131234D01*
X8711273Y-15145520D01*
X8725558Y-15159806D01*
X8739844Y-15188377D01*
X8754130Y-15245520D01*
X8754130Y-15316949D01*
X8739844Y-15374091D01*
X8725558Y-15402663D01*
X8711273Y-15416949D01*
X8682701Y-15431234D01*
X8654130Y-15431234D01*
X8625558Y-15416949D01*
X8611273Y-15402663D01*
X8596987Y-15374091D01*
X8582701Y-15316949D01*
X8582701Y-15245520D01*
X8596987Y-15188377D01*
X8611273Y-15159806D01*
X8625558Y-15145520D01*
X8654130Y-15131234D01*
X8882701Y-15402663D02*
X8896987Y-15416949D01*
X8882701Y-15431234D01*
X8868416Y-15416949D01*
X8882701Y-15402663D01*
X8882701Y-15431234D01*
X9082701Y-15131234D02*
X9111273Y-15131234D01*
X9139844Y-15145520D01*
X9154130Y-15159806D01*
X9168416Y-15188377D01*
X9182701Y-15245520D01*
X9182701Y-15316949D01*
X9168416Y-15374091D01*
X9154130Y-15402663D01*
X9139844Y-15416949D01*
X9111273Y-15431234D01*
X9082701Y-15431234D01*
X9054130Y-15416949D01*
X9039844Y-15402663D01*
X9025558Y-15374091D01*
X9011273Y-15316949D01*
X9011273Y-15245520D01*
X9025558Y-15188377D01*
X9039844Y-15159806D01*
X9054130Y-15145520D01*
X9082701Y-15131234D01*
X9468416Y-15431234D02*
X9296987Y-15431234D01*
X9382701Y-15431234D02*
X9382701Y-15131234D01*
X9354130Y-15174091D01*
X9325558Y-15202663D01*
X9296987Y-15216949D01*
X9582701Y-15159806D02*
X9596987Y-15145520D01*
X9625558Y-15131234D01*
X9696987Y-15131234D01*
X9725558Y-15145520D01*
X9739844Y-15159806D01*
X9754130Y-15188377D01*
X9754130Y-15216949D01*
X9739844Y-15259806D01*
X9568416Y-15431234D01*
X9754130Y-15431234D01*
X9868416Y-15131234D02*
X9868416Y-15188377D01*
X9982701Y-15131234D02*
X9982701Y-15188377D01*
X10425558Y-15545520D02*
X10411273Y-15531234D01*
X10382701Y-15488377D01*
X10368416Y-15459806D01*
X10354130Y-15416949D01*
X10339844Y-15345520D01*
X10339844Y-15288377D01*
X10354130Y-15216949D01*
X10368416Y-15174091D01*
X10382701Y-15145520D01*
X10411273Y-15102663D01*
X10425558Y-15088377D01*
X10696987Y-15431234D02*
X10525558Y-15431234D01*
X10611273Y-15431234D02*
X10611273Y-15131234D01*
X10582701Y-15174091D01*
X10554130Y-15202663D01*
X10525558Y-15216949D01*
X10954130Y-15231234D02*
X10954130Y-15431234D01*
X10882701Y-15116949D02*
X10811273Y-15331234D01*
X10996987Y-15331234D01*
X11268416Y-15431234D02*
X11096987Y-15431234D01*
X11182701Y-15431234D02*
X11182701Y-15131234D01*
X11154130Y-15174091D01*
X11125558Y-15202663D01*
X11096987Y-15216949D01*
X11625558Y-15431234D02*
X11625558Y-15131234D01*
X11754130Y-15431234D02*
X11754130Y-15274091D01*
X11739844Y-15245520D01*
X11711273Y-15231234D01*
X11668416Y-15231234D01*
X11639844Y-15245520D01*
X11625558Y-15259806D01*
X11939844Y-15431234D02*
X11911273Y-15416949D01*
X11896987Y-15402663D01*
X11882701Y-15374091D01*
X11882701Y-15288377D01*
X11896987Y-15259806D01*
X11911273Y-15245520D01*
X11939844Y-15231234D01*
X11982701Y-15231234D01*
X12011273Y-15245520D01*
X12025558Y-15259806D01*
X12039844Y-15288377D01*
X12039844Y-15374091D01*
X12025558Y-15402663D01*
X12011273Y-15416949D01*
X11982701Y-15431234D01*
X11939844Y-15431234D01*
X12211273Y-15431234D02*
X12182701Y-15416949D01*
X12168416Y-15388377D01*
X12168416Y-15131234D01*
X12439844Y-15416949D02*
X12411273Y-15431234D01*
X12354130Y-15431234D01*
X12325558Y-15416949D01*
X12311273Y-15388377D01*
X12311273Y-15274091D01*
X12325558Y-15245520D01*
X12354130Y-15231234D01*
X12411273Y-15231234D01*
X12439844Y-15245520D01*
X12454130Y-15274091D01*
X12454130Y-15302663D01*
X12311273Y-15331234D01*
X12568416Y-15416949D02*
X12596987Y-15431234D01*
X12654130Y-15431234D01*
X12682701Y-15416949D01*
X12696987Y-15388377D01*
X12696987Y-15374091D01*
X12682701Y-15345520D01*
X12654130Y-15331234D01*
X12611273Y-15331234D01*
X12582701Y-15316949D01*
X12568416Y-15288377D01*
X12568416Y-15274091D01*
X12582701Y-15245520D01*
X12611273Y-15231234D01*
X12654130Y-15231234D01*
X12682701Y-15245520D01*
X12796987Y-15545520D02*
X12811273Y-15531234D01*
X12839844Y-15488377D01*
X12854130Y-15459806D01*
X12868416Y-15416949D01*
X12882701Y-15345520D01*
X12882701Y-15288377D01*
X12868416Y-15216949D01*
X12854130Y-15174091D01*
X12839844Y-15145520D01*
X12811273Y-15102663D01*
X12796987Y-15088377D01*
X5719130Y-15671520D02*
X5719130Y-15711520D01*
X5699130Y-15691520D02*
X5739130Y-15691520D01*
X6082701Y-15527234D02*
X6111273Y-15527234D01*
X6139844Y-15541520D01*
X6154130Y-15555806D01*
X6168416Y-15584377D01*
X6182701Y-15641520D01*
X6182701Y-15712949D01*
X6168416Y-15770091D01*
X6154130Y-15798663D01*
X6139844Y-15812949D01*
X6111273Y-15827234D01*
X6082701Y-15827234D01*
X6054130Y-15812949D01*
X6039844Y-15798663D01*
X6025558Y-15770091D01*
X6011273Y-15712949D01*
X6011273Y-15641520D01*
X6025558Y-15584377D01*
X6039844Y-15555806D01*
X6054130Y-15541520D01*
X6082701Y-15527234D01*
X6311273Y-15798663D02*
X6325558Y-15812949D01*
X6311273Y-15827234D01*
X6296987Y-15812949D01*
X6311273Y-15798663D01*
X6311273Y-15827234D01*
X6582701Y-15627234D02*
X6582701Y-15827234D01*
X6511273Y-15512949D02*
X6439844Y-15727234D01*
X6625558Y-15727234D01*
X6796987Y-15527234D02*
X6825558Y-15527234D01*
X6854130Y-15541520D01*
X6868416Y-15555806D01*
X6882701Y-15584377D01*
X6896987Y-15641520D01*
X6896987Y-15712949D01*
X6882701Y-15770091D01*
X6868416Y-15798663D01*
X6854130Y-15812949D01*
X6825558Y-15827234D01*
X6796987Y-15827234D01*
X6768416Y-15812949D01*
X6754130Y-15798663D01*
X6739844Y-15770091D01*
X6725558Y-15712949D01*
X6725558Y-15641520D01*
X6739844Y-15584377D01*
X6754130Y-15555806D01*
X6768416Y-15541520D01*
X6796987Y-15527234D01*
X7025558Y-15827234D02*
X7025558Y-15627234D01*
X7025558Y-15655806D02*
X7039844Y-15641520D01*
X7068416Y-15627234D01*
X7111273Y-15627234D01*
X7139844Y-15641520D01*
X7154130Y-15670091D01*
X7154130Y-15827234D01*
X7154130Y-15670091D02*
X7168416Y-15641520D01*
X7196987Y-15627234D01*
X7239844Y-15627234D01*
X7268416Y-15641520D01*
X7282701Y-15670091D01*
X7282701Y-15827234D01*
X7425558Y-15827234D02*
X7425558Y-15627234D01*
X7425558Y-15655806D02*
X7439844Y-15641520D01*
X7468416Y-15627234D01*
X7511273Y-15627234D01*
X7539844Y-15641520D01*
X7554130Y-15670091D01*
X7554130Y-15827234D01*
X7554130Y-15670091D02*
X7568416Y-15641520D01*
X7596987Y-15627234D01*
X7639844Y-15627234D01*
X7668416Y-15641520D01*
X7682701Y-15670091D01*
X7682701Y-15827234D01*
X8268416Y-15512949D02*
X8011273Y-15898663D01*
X8654130Y-15527234D02*
X8682701Y-15527234D01*
X8711273Y-15541520D01*
X8725558Y-15555806D01*
X8739844Y-15584377D01*
X8754130Y-15641520D01*
X8754130Y-15712949D01*
X8739844Y-15770091D01*
X8725558Y-15798663D01*
X8711273Y-15812949D01*
X8682701Y-15827234D01*
X8654130Y-15827234D01*
X8625558Y-15812949D01*
X8611273Y-15798663D01*
X8596987Y-15770091D01*
X8582701Y-15712949D01*
X8582701Y-15641520D01*
X8596987Y-15584377D01*
X8611273Y-15555806D01*
X8625558Y-15541520D01*
X8654130Y-15527234D01*
X8882701Y-15798663D02*
X8896987Y-15812949D01*
X8882701Y-15827234D01*
X8868416Y-15812949D01*
X8882701Y-15798663D01*
X8882701Y-15827234D01*
X9082701Y-15527234D02*
X9111273Y-15527234D01*
X9139844Y-15541520D01*
X9154130Y-15555806D01*
X9168416Y-15584377D01*
X9182701Y-15641520D01*
X9182701Y-15712949D01*
X9168416Y-15770091D01*
X9154130Y-15798663D01*
X9139844Y-15812949D01*
X9111273Y-15827234D01*
X9082701Y-15827234D01*
X9054130Y-15812949D01*
X9039844Y-15798663D01*
X9025558Y-15770091D01*
X9011273Y-15712949D01*
X9011273Y-15641520D01*
X9025558Y-15584377D01*
X9039844Y-15555806D01*
X9054130Y-15541520D01*
X9082701Y-15527234D01*
X9468416Y-15827234D02*
X9296987Y-15827234D01*
X9382701Y-15827234D02*
X9382701Y-15527234D01*
X9354130Y-15570091D01*
X9325558Y-15598663D01*
X9296987Y-15612949D01*
X9725558Y-15527234D02*
X9668416Y-15527234D01*
X9639844Y-15541520D01*
X9625558Y-15555806D01*
X9596987Y-15598663D01*
X9582701Y-15655806D01*
X9582701Y-15770091D01*
X9596987Y-15798663D01*
X9611273Y-15812949D01*
X9639844Y-15827234D01*
X9696987Y-15827234D01*
X9725558Y-15812949D01*
X9739844Y-15798663D01*
X9754130Y-15770091D01*
X9754130Y-15698663D01*
X9739844Y-15670091D01*
X9725558Y-15655806D01*
X9696987Y-15641520D01*
X9639844Y-15641520D01*
X9611273Y-15655806D01*
X9596987Y-15670091D01*
X9582701Y-15698663D01*
X9868416Y-15527234D02*
X9868416Y-15584377D01*
X9982701Y-15527234D02*
X9982701Y-15584377D01*
X10425558Y-15941520D02*
X10411273Y-15927234D01*
X10382701Y-15884377D01*
X10368416Y-15855806D01*
X10354130Y-15812949D01*
X10339844Y-15741520D01*
X10339844Y-15684377D01*
X10354130Y-15612949D01*
X10368416Y-15570091D01*
X10382701Y-15541520D01*
X10411273Y-15498663D01*
X10425558Y-15484377D01*
X10511273Y-15527234D02*
X10711273Y-15527234D01*
X10582701Y-15827234D01*
X10968416Y-15527234D02*
X10825558Y-15527234D01*
X10811273Y-15670091D01*
X10825558Y-15655806D01*
X10854130Y-15641520D01*
X10925558Y-15641520D01*
X10954130Y-15655806D01*
X10968416Y-15670091D01*
X10982701Y-15698663D01*
X10982701Y-15770091D01*
X10968416Y-15798663D01*
X10954130Y-15812949D01*
X10925558Y-15827234D01*
X10854130Y-15827234D01*
X10825558Y-15812949D01*
X10811273Y-15798663D01*
X11339844Y-15827234D02*
X11339844Y-15527234D01*
X11468416Y-15827234D02*
X11468416Y-15670091D01*
X11454130Y-15641520D01*
X11425558Y-15627234D01*
X11382701Y-15627234D01*
X11354130Y-15641520D01*
X11339844Y-15655806D01*
X11654130Y-15827234D02*
X11625558Y-15812949D01*
X11611273Y-15798663D01*
X11596987Y-15770091D01*
X11596987Y-15684377D01*
X11611273Y-15655806D01*
X11625558Y-15641520D01*
X11654130Y-15627234D01*
X11696987Y-15627234D01*
X11725558Y-15641520D01*
X11739844Y-15655806D01*
X11754130Y-15684377D01*
X11754130Y-15770091D01*
X11739844Y-15798663D01*
X11725558Y-15812949D01*
X11696987Y-15827234D01*
X11654130Y-15827234D01*
X11925558Y-15827234D02*
X11896987Y-15812949D01*
X11882701Y-15784377D01*
X11882701Y-15527234D01*
X12154130Y-15812949D02*
X12125558Y-15827234D01*
X12068416Y-15827234D01*
X12039844Y-15812949D01*
X12025558Y-15784377D01*
X12025558Y-15670091D01*
X12039844Y-15641520D01*
X12068416Y-15627234D01*
X12125558Y-15627234D01*
X12154130Y-15641520D01*
X12168416Y-15670091D01*
X12168416Y-15698663D01*
X12025558Y-15727234D01*
X12282701Y-15812949D02*
X12311273Y-15827234D01*
X12368416Y-15827234D01*
X12396987Y-15812949D01*
X12411273Y-15784377D01*
X12411273Y-15770091D01*
X12396987Y-15741520D01*
X12368416Y-15727234D01*
X12325558Y-15727234D01*
X12296987Y-15712949D01*
X12282701Y-15684377D01*
X12282701Y-15670091D01*
X12296987Y-15641520D01*
X12325558Y-15627234D01*
X12368416Y-15627234D01*
X12396987Y-15641520D01*
X12511273Y-15941520D02*
X12525558Y-15927234D01*
X12554130Y-15884377D01*
X12568416Y-15855806D01*
X12582701Y-15812949D01*
X12596987Y-15741520D01*
X12596987Y-15684377D01*
X12582701Y-15612949D01*
X12568416Y-15570091D01*
X12554130Y-15541520D01*
X12525558Y-15498663D01*
X12511273Y-15484377D01*
X5730343Y-16108733D02*
X5730343Y-16066307D01*
X5687916Y-16066307D01*
X5687916Y-16108733D01*
X5730343Y-16108733D01*
X6082701Y-15923234D02*
X6111273Y-15923234D01*
X6139844Y-15937520D01*
X6154130Y-15951806D01*
X6168416Y-15980377D01*
X6182701Y-16037520D01*
X6182701Y-16108949D01*
X6168416Y-16166091D01*
X6154130Y-16194663D01*
X6139844Y-16208949D01*
X6111273Y-16223234D01*
X6082701Y-16223234D01*
X6054130Y-16208949D01*
X6039844Y-16194663D01*
X6025558Y-16166091D01*
X6011273Y-16108949D01*
X6011273Y-16037520D01*
X6025558Y-15980377D01*
X6039844Y-15951806D01*
X6054130Y-15937520D01*
X6082701Y-15923234D01*
X6311273Y-16194663D02*
X6325558Y-16208949D01*
X6311273Y-16223234D01*
X6296987Y-16208949D01*
X6311273Y-16194663D01*
X6311273Y-16223234D01*
X6582701Y-15923234D02*
X6525558Y-15923234D01*
X6496987Y-15937520D01*
X6482701Y-15951806D01*
X6454130Y-15994663D01*
X6439844Y-16051806D01*
X6439844Y-16166091D01*
X6454130Y-16194663D01*
X6468416Y-16208949D01*
X6496987Y-16223234D01*
X6554130Y-16223234D01*
X6582701Y-16208949D01*
X6596987Y-16194663D01*
X6611273Y-16166091D01*
X6611273Y-16094663D01*
X6596987Y-16066091D01*
X6582701Y-16051806D01*
X6554130Y-16037520D01*
X6496987Y-16037520D01*
X6468416Y-16051806D01*
X6454130Y-16066091D01*
X6439844Y-16094663D01*
X6796987Y-15923234D02*
X6825558Y-15923234D01*
X6854130Y-15937520D01*
X6868416Y-15951806D01*
X6882701Y-15980377D01*
X6896987Y-16037520D01*
X6896987Y-16108949D01*
X6882701Y-16166091D01*
X6868416Y-16194663D01*
X6854130Y-16208949D01*
X6825558Y-16223234D01*
X6796987Y-16223234D01*
X6768416Y-16208949D01*
X6754130Y-16194663D01*
X6739844Y-16166091D01*
X6725558Y-16108949D01*
X6725558Y-16037520D01*
X6739844Y-15980377D01*
X6754130Y-15951806D01*
X6768416Y-15937520D01*
X6796987Y-15923234D01*
X7025558Y-16223234D02*
X7025558Y-16023234D01*
X7025558Y-16051806D02*
X7039844Y-16037520D01*
X7068416Y-16023234D01*
X7111273Y-16023234D01*
X7139844Y-16037520D01*
X7154130Y-16066091D01*
X7154130Y-16223234D01*
X7154130Y-16066091D02*
X7168416Y-16037520D01*
X7196987Y-16023234D01*
X7239844Y-16023234D01*
X7268416Y-16037520D01*
X7282701Y-16066091D01*
X7282701Y-16223234D01*
X7425558Y-16223234D02*
X7425558Y-16023234D01*
X7425558Y-16051806D02*
X7439844Y-16037520D01*
X7468416Y-16023234D01*
X7511273Y-16023234D01*
X7539844Y-16037520D01*
X7554130Y-16066091D01*
X7554130Y-16223234D01*
X7554130Y-16066091D02*
X7568416Y-16037520D01*
X7596987Y-16023234D01*
X7639844Y-16023234D01*
X7668416Y-16037520D01*
X7682701Y-16066091D01*
X7682701Y-16223234D01*
X8268416Y-15908949D02*
X8011273Y-16294663D01*
X8654130Y-15923234D02*
X8682701Y-15923234D01*
X8711273Y-15937520D01*
X8725558Y-15951806D01*
X8739844Y-15980377D01*
X8754130Y-16037520D01*
X8754130Y-16108949D01*
X8739844Y-16166091D01*
X8725558Y-16194663D01*
X8711273Y-16208949D01*
X8682701Y-16223234D01*
X8654130Y-16223234D01*
X8625558Y-16208949D01*
X8611273Y-16194663D01*
X8596987Y-16166091D01*
X8582701Y-16108949D01*
X8582701Y-16037520D01*
X8596987Y-15980377D01*
X8611273Y-15951806D01*
X8625558Y-15937520D01*
X8654130Y-15923234D01*
X8882701Y-16194663D02*
X8896987Y-16208949D01*
X8882701Y-16223234D01*
X8868416Y-16208949D01*
X8882701Y-16194663D01*
X8882701Y-16223234D01*
X9082701Y-15923234D02*
X9111273Y-15923234D01*
X9139844Y-15937520D01*
X9154130Y-15951806D01*
X9168416Y-15980377D01*
X9182701Y-16037520D01*
X9182701Y-16108949D01*
X9168416Y-16166091D01*
X9154130Y-16194663D01*
X9139844Y-16208949D01*
X9111273Y-16223234D01*
X9082701Y-16223234D01*
X9054130Y-16208949D01*
X9039844Y-16194663D01*
X9025558Y-16166091D01*
X9011273Y-16108949D01*
X9011273Y-16037520D01*
X9025558Y-15980377D01*
X9039844Y-15951806D01*
X9054130Y-15937520D01*
X9082701Y-15923234D01*
X9296987Y-15951806D02*
X9311273Y-15937520D01*
X9339844Y-15923234D01*
X9411273Y-15923234D01*
X9439844Y-15937520D01*
X9454130Y-15951806D01*
X9468416Y-15980377D01*
X9468416Y-16008949D01*
X9454130Y-16051806D01*
X9282701Y-16223234D01*
X9468416Y-16223234D01*
X9725558Y-16023234D02*
X9725558Y-16223234D01*
X9654130Y-15908949D02*
X9582701Y-16123234D01*
X9768416Y-16123234D01*
X9868416Y-15923234D02*
X9868416Y-15980377D01*
X9982701Y-15923234D02*
X9982701Y-15980377D01*
X10425558Y-16337520D02*
X10411273Y-16323234D01*
X10382701Y-16280377D01*
X10368416Y-16251806D01*
X10354130Y-16208949D01*
X10339844Y-16137520D01*
X10339844Y-16080377D01*
X10354130Y-16008949D01*
X10368416Y-15966091D01*
X10382701Y-15937520D01*
X10411273Y-15894663D01*
X10425558Y-15880377D01*
X10596987Y-15923234D02*
X10625558Y-15923234D01*
X10654130Y-15937520D01*
X10668416Y-15951806D01*
X10682701Y-15980377D01*
X10696987Y-16037520D01*
X10696987Y-16108949D01*
X10682701Y-16166091D01*
X10668416Y-16194663D01*
X10654130Y-16208949D01*
X10625558Y-16223234D01*
X10596987Y-16223234D01*
X10568416Y-16208949D01*
X10554130Y-16194663D01*
X10539844Y-16166091D01*
X10525558Y-16108949D01*
X10525558Y-16037520D01*
X10539844Y-15980377D01*
X10554130Y-15951806D01*
X10568416Y-15937520D01*
X10596987Y-15923234D01*
X11054130Y-16223234D02*
X11054130Y-15923234D01*
X11182701Y-16223234D02*
X11182701Y-16066091D01*
X11168416Y-16037520D01*
X11139844Y-16023234D01*
X11096987Y-16023234D01*
X11068416Y-16037520D01*
X11054130Y-16051806D01*
X11368416Y-16223234D02*
X11339844Y-16208949D01*
X11325558Y-16194663D01*
X11311273Y-16166091D01*
X11311273Y-16080377D01*
X11325558Y-16051806D01*
X11339844Y-16037520D01*
X11368416Y-16023234D01*
X11411273Y-16023234D01*
X11439844Y-16037520D01*
X11454130Y-16051806D01*
X11468416Y-16080377D01*
X11468416Y-16166091D01*
X11454130Y-16194663D01*
X11439844Y-16208949D01*
X11411273Y-16223234D01*
X11368416Y-16223234D01*
X11639844Y-16223234D02*
X11611273Y-16208949D01*
X11596987Y-16180377D01*
X11596987Y-15923234D01*
X11868416Y-16208949D02*
X11839844Y-16223234D01*
X11782701Y-16223234D01*
X11754130Y-16208949D01*
X11739844Y-16180377D01*
X11739844Y-16066091D01*
X11754130Y-16037520D01*
X11782701Y-16023234D01*
X11839844Y-16023234D01*
X11868416Y-16037520D01*
X11882701Y-16066091D01*
X11882701Y-16094663D01*
X11739844Y-16123234D01*
X11996987Y-16208949D02*
X12025558Y-16223234D01*
X12082701Y-16223234D01*
X12111273Y-16208949D01*
X12125558Y-16180377D01*
X12125558Y-16166091D01*
X12111273Y-16137520D01*
X12082701Y-16123234D01*
X12039844Y-16123234D01*
X12011273Y-16108949D01*
X11996987Y-16080377D01*
X11996987Y-16066091D01*
X12011273Y-16037520D01*
X12039844Y-16023234D01*
X12082701Y-16023234D01*
X12111273Y-16037520D01*
X12482701Y-16108949D02*
X12711273Y-16108949D01*
X12596987Y-16223234D02*
X12596987Y-15994663D01*
X13211273Y-16023234D02*
X13211273Y-16223234D01*
X13139844Y-15908949D02*
X13068416Y-16123234D01*
X13254130Y-16123234D01*
X13582701Y-16208949D02*
X13611273Y-16223234D01*
X13668416Y-16223234D01*
X13696987Y-16208949D01*
X13711273Y-16180377D01*
X13711273Y-16166091D01*
X13696987Y-16137520D01*
X13668416Y-16123234D01*
X13625558Y-16123234D01*
X13596987Y-16108949D01*
X13582701Y-16080377D01*
X13582701Y-16066091D01*
X13596987Y-16037520D01*
X13625558Y-16023234D01*
X13668416Y-16023234D01*
X13696987Y-16037520D01*
X13882701Y-16223234D02*
X13854130Y-16208949D01*
X13839844Y-16180377D01*
X13839844Y-15923234D01*
X14039844Y-16223234D02*
X14011273Y-16208949D01*
X13996987Y-16194663D01*
X13982701Y-16166091D01*
X13982701Y-16080377D01*
X13996987Y-16051806D01*
X14011273Y-16037520D01*
X14039844Y-16023234D01*
X14082701Y-16023234D01*
X14111273Y-16037520D01*
X14125558Y-16051806D01*
X14139844Y-16080377D01*
X14139844Y-16166091D01*
X14125558Y-16194663D01*
X14111273Y-16208949D01*
X14082701Y-16223234D01*
X14039844Y-16223234D01*
X14225558Y-16023234D02*
X14339844Y-16023234D01*
X14268416Y-15923234D02*
X14268416Y-16180377D01*
X14282701Y-16208949D01*
X14311273Y-16223234D01*
X14339844Y-16223234D01*
X14425558Y-16208949D02*
X14454130Y-16223234D01*
X14511273Y-16223234D01*
X14539844Y-16208949D01*
X14554130Y-16180377D01*
X14554130Y-16166091D01*
X14539844Y-16137520D01*
X14511273Y-16123234D01*
X14468416Y-16123234D01*
X14439844Y-16108949D01*
X14425558Y-16080377D01*
X14425558Y-16066091D01*
X14439844Y-16037520D01*
X14468416Y-16023234D01*
X14511273Y-16023234D01*
X14539844Y-16037520D01*
X14654130Y-16337520D02*
X14668416Y-16323234D01*
X14696987Y-16280377D01*
X14711273Y-16251806D01*
X14725558Y-16208949D01*
X14739844Y-16137520D01*
X14739844Y-16080377D01*
X14725558Y-16008949D01*
X14711273Y-15966091D01*
X14696987Y-15937520D01*
X14668416Y-15894663D01*
X14654130Y-15880377D01*
X5694130Y-16528520D02*
X5739130Y-16483520D01*
X5694130Y-16438520D01*
X5649130Y-16483520D01*
X5694130Y-16528520D01*
X6082701Y-16319234D02*
X6111273Y-16319234D01*
X6139844Y-16333520D01*
X6154130Y-16347806D01*
X6168416Y-16376377D01*
X6182701Y-16433520D01*
X6182701Y-16504949D01*
X6168416Y-16562091D01*
X6154130Y-16590663D01*
X6139844Y-16604949D01*
X6111273Y-16619234D01*
X6082701Y-16619234D01*
X6054130Y-16604949D01*
X6039844Y-16590663D01*
X6025558Y-16562091D01*
X6011273Y-16504949D01*
X6011273Y-16433520D01*
X6025558Y-16376377D01*
X6039844Y-16347806D01*
X6054130Y-16333520D01*
X6082701Y-16319234D01*
X6311273Y-16590663D02*
X6325558Y-16604949D01*
X6311273Y-16619234D01*
X6296987Y-16604949D01*
X6311273Y-16590663D01*
X6311273Y-16619234D01*
X6468416Y-16619234D02*
X6525558Y-16619234D01*
X6554130Y-16604949D01*
X6568416Y-16590663D01*
X6596987Y-16547806D01*
X6611273Y-16490663D01*
X6611273Y-16376377D01*
X6596987Y-16347806D01*
X6582701Y-16333520D01*
X6554130Y-16319234D01*
X6496987Y-16319234D01*
X6468416Y-16333520D01*
X6454130Y-16347806D01*
X6439844Y-16376377D01*
X6439844Y-16447806D01*
X6454130Y-16476377D01*
X6468416Y-16490663D01*
X6496987Y-16504949D01*
X6554130Y-16504949D01*
X6582701Y-16490663D01*
X6596987Y-16476377D01*
X6611273Y-16447806D01*
X6796987Y-16319234D02*
X6825558Y-16319234D01*
X6854130Y-16333520D01*
X6868416Y-16347806D01*
X6882701Y-16376377D01*
X6896987Y-16433520D01*
X6896987Y-16504949D01*
X6882701Y-16562091D01*
X6868416Y-16590663D01*
X6854130Y-16604949D01*
X6825558Y-16619234D01*
X6796987Y-16619234D01*
X6768416Y-16604949D01*
X6754130Y-16590663D01*
X6739844Y-16562091D01*
X6725558Y-16504949D01*
X6725558Y-16433520D01*
X6739844Y-16376377D01*
X6754130Y-16347806D01*
X6768416Y-16333520D01*
X6796987Y-16319234D01*
X7025558Y-16619234D02*
X7025558Y-16419234D01*
X7025558Y-16447806D02*
X7039844Y-16433520D01*
X7068416Y-16419234D01*
X7111273Y-16419234D01*
X7139844Y-16433520D01*
X7154130Y-16462091D01*
X7154130Y-16619234D01*
X7154130Y-16462091D02*
X7168416Y-16433520D01*
X7196987Y-16419234D01*
X7239844Y-16419234D01*
X7268416Y-16433520D01*
X7282701Y-16462091D01*
X7282701Y-16619234D01*
X7425558Y-16619234D02*
X7425558Y-16419234D01*
X7425558Y-16447806D02*
X7439844Y-16433520D01*
X7468416Y-16419234D01*
X7511273Y-16419234D01*
X7539844Y-16433520D01*
X7554130Y-16462091D01*
X7554130Y-16619234D01*
X7554130Y-16462091D02*
X7568416Y-16433520D01*
X7596987Y-16419234D01*
X7639844Y-16419234D01*
X7668416Y-16433520D01*
X7682701Y-16462091D01*
X7682701Y-16619234D01*
X8268416Y-16304949D02*
X8011273Y-16690663D01*
X8654130Y-16319234D02*
X8682701Y-16319234D01*
X8711273Y-16333520D01*
X8725558Y-16347806D01*
X8739844Y-16376377D01*
X8754130Y-16433520D01*
X8754130Y-16504949D01*
X8739844Y-16562091D01*
X8725558Y-16590663D01*
X8711273Y-16604949D01*
X8682701Y-16619234D01*
X8654130Y-16619234D01*
X8625558Y-16604949D01*
X8611273Y-16590663D01*
X8596987Y-16562091D01*
X8582701Y-16504949D01*
X8582701Y-16433520D01*
X8596987Y-16376377D01*
X8611273Y-16347806D01*
X8625558Y-16333520D01*
X8654130Y-16319234D01*
X8882701Y-16590663D02*
X8896987Y-16604949D01*
X8882701Y-16619234D01*
X8868416Y-16604949D01*
X8882701Y-16590663D01*
X8882701Y-16619234D01*
X9082701Y-16319234D02*
X9111273Y-16319234D01*
X9139844Y-16333520D01*
X9154130Y-16347806D01*
X9168416Y-16376377D01*
X9182701Y-16433520D01*
X9182701Y-16504949D01*
X9168416Y-16562091D01*
X9154130Y-16590663D01*
X9139844Y-16604949D01*
X9111273Y-16619234D01*
X9082701Y-16619234D01*
X9054130Y-16604949D01*
X9039844Y-16590663D01*
X9025558Y-16562091D01*
X9011273Y-16504949D01*
X9011273Y-16433520D01*
X9025558Y-16376377D01*
X9039844Y-16347806D01*
X9054130Y-16333520D01*
X9082701Y-16319234D01*
X9282701Y-16319234D02*
X9468416Y-16319234D01*
X9368416Y-16433520D01*
X9411273Y-16433520D01*
X9439844Y-16447806D01*
X9454130Y-16462091D01*
X9468416Y-16490663D01*
X9468416Y-16562091D01*
X9454130Y-16590663D01*
X9439844Y-16604949D01*
X9411273Y-16619234D01*
X9325558Y-16619234D01*
X9296987Y-16604949D01*
X9282701Y-16590663D01*
X9739844Y-16319234D02*
X9596987Y-16319234D01*
X9582701Y-16462091D01*
X9596987Y-16447806D01*
X9625558Y-16433520D01*
X9696987Y-16433520D01*
X9725558Y-16447806D01*
X9739844Y-16462091D01*
X9754130Y-16490663D01*
X9754130Y-16562091D01*
X9739844Y-16590663D01*
X9725558Y-16604949D01*
X9696987Y-16619234D01*
X9625558Y-16619234D01*
X9596987Y-16604949D01*
X9582701Y-16590663D01*
X9868416Y-16319234D02*
X9868416Y-16376377D01*
X9982701Y-16319234D02*
X9982701Y-16376377D01*
X10425558Y-16733520D02*
X10411273Y-16719234D01*
X10382701Y-16676377D01*
X10368416Y-16647806D01*
X10354130Y-16604949D01*
X10339844Y-16533520D01*
X10339844Y-16476377D01*
X10354130Y-16404949D01*
X10368416Y-16362091D01*
X10382701Y-16333520D01*
X10411273Y-16290663D01*
X10425558Y-16276377D01*
X10525558Y-16347806D02*
X10539844Y-16333520D01*
X10568416Y-16319234D01*
X10639844Y-16319234D01*
X10668416Y-16333520D01*
X10682701Y-16347806D01*
X10696987Y-16376377D01*
X10696987Y-16404949D01*
X10682701Y-16447806D01*
X10511273Y-16619234D01*
X10696987Y-16619234D01*
X11054130Y-16619234D02*
X11054130Y-16319234D01*
X11182701Y-16619234D02*
X11182701Y-16462091D01*
X11168416Y-16433520D01*
X11139844Y-16419234D01*
X11096987Y-16419234D01*
X11068416Y-16433520D01*
X11054130Y-16447806D01*
X11368416Y-16619234D02*
X11339844Y-16604949D01*
X11325558Y-16590663D01*
X11311273Y-16562091D01*
X11311273Y-16476377D01*
X11325558Y-16447806D01*
X11339844Y-16433520D01*
X11368416Y-16419234D01*
X11411273Y-16419234D01*
X11439844Y-16433520D01*
X11454130Y-16447806D01*
X11468416Y-16476377D01*
X11468416Y-16562091D01*
X11454130Y-16590663D01*
X11439844Y-16604949D01*
X11411273Y-16619234D01*
X11368416Y-16619234D01*
X11639844Y-16619234D02*
X11611273Y-16604949D01*
X11596987Y-16576377D01*
X11596987Y-16319234D01*
X11868416Y-16604949D02*
X11839844Y-16619234D01*
X11782701Y-16619234D01*
X11754130Y-16604949D01*
X11739844Y-16576377D01*
X11739844Y-16462091D01*
X11754130Y-16433520D01*
X11782701Y-16419234D01*
X11839844Y-16419234D01*
X11868416Y-16433520D01*
X11882701Y-16462091D01*
X11882701Y-16490663D01*
X11739844Y-16519234D01*
X11996987Y-16604949D02*
X12025558Y-16619234D01*
X12082701Y-16619234D01*
X12111273Y-16604949D01*
X12125558Y-16576377D01*
X12125558Y-16562091D01*
X12111273Y-16533520D01*
X12082701Y-16519234D01*
X12039844Y-16519234D01*
X12011273Y-16504949D01*
X11996987Y-16476377D01*
X11996987Y-16462091D01*
X12011273Y-16433520D01*
X12039844Y-16419234D01*
X12082701Y-16419234D01*
X12111273Y-16433520D01*
X12225558Y-16733520D02*
X12239844Y-16719234D01*
X12268416Y-16676377D01*
X12282701Y-16647806D01*
X12296987Y-16604949D01*
X12311273Y-16533520D01*
X12311273Y-16476377D01*
X12296987Y-16404949D01*
X12282701Y-16362091D01*
X12268416Y-16333520D01*
X12239844Y-16290663D01*
X12225558Y-16276377D01*
X5639130Y-16829520D02*
X5739130Y-16929520D01*
X5739130Y-16829520D02*
X5639130Y-16929520D01*
X5739130Y-16879520D02*
G75*
G03X5739130Y-16879520I-50000J0D01*
G01*
X6182701Y-17015234D02*
X6011273Y-17015234D01*
X6096987Y-17015234D02*
X6096987Y-16715234D01*
X6068416Y-16758091D01*
X6039844Y-16786663D01*
X6011273Y-16800949D01*
X6311273Y-16986663D02*
X6325558Y-17000949D01*
X6311273Y-17015234D01*
X6296987Y-17000949D01*
X6311273Y-16986663D01*
X6311273Y-17015234D01*
X6511273Y-16715234D02*
X6539844Y-16715234D01*
X6568416Y-16729520D01*
X6582701Y-16743806D01*
X6596987Y-16772377D01*
X6611273Y-16829520D01*
X6611273Y-16900949D01*
X6596987Y-16958092D01*
X6582701Y-16986663D01*
X6568416Y-17000949D01*
X6539844Y-17015234D01*
X6511273Y-17015234D01*
X6482701Y-17000949D01*
X6468416Y-16986663D01*
X6454130Y-16958092D01*
X6439844Y-16900949D01*
X6439844Y-16829520D01*
X6454130Y-16772377D01*
X6468416Y-16743806D01*
X6482701Y-16729520D01*
X6511273Y-16715234D01*
X6796987Y-16715234D02*
X6825558Y-16715234D01*
X6854130Y-16729520D01*
X6868416Y-16743806D01*
X6882701Y-16772377D01*
X6896987Y-16829520D01*
X6896987Y-16900949D01*
X6882701Y-16958092D01*
X6868416Y-16986663D01*
X6854130Y-17000949D01*
X6825558Y-17015234D01*
X6796987Y-17015234D01*
X6768416Y-17000949D01*
X6754130Y-16986663D01*
X6739844Y-16958092D01*
X6725558Y-16900949D01*
X6725558Y-16829520D01*
X6739844Y-16772377D01*
X6754130Y-16743806D01*
X6768416Y-16729520D01*
X6796987Y-16715234D01*
X7025558Y-17015234D02*
X7025558Y-16815234D01*
X7025558Y-16843806D02*
X7039844Y-16829520D01*
X7068416Y-16815234D01*
X7111273Y-16815234D01*
X7139844Y-16829520D01*
X7154130Y-16858092D01*
X7154130Y-17015234D01*
X7154130Y-16858092D02*
X7168416Y-16829520D01*
X7196987Y-16815234D01*
X7239844Y-16815234D01*
X7268416Y-16829520D01*
X7282701Y-16858092D01*
X7282701Y-17015234D01*
X7425558Y-17015234D02*
X7425558Y-16815234D01*
X7425558Y-16843806D02*
X7439844Y-16829520D01*
X7468416Y-16815234D01*
X7511273Y-16815234D01*
X7539844Y-16829520D01*
X7554130Y-16858092D01*
X7554130Y-17015234D01*
X7554130Y-16858092D02*
X7568416Y-16829520D01*
X7596987Y-16815234D01*
X7639844Y-16815234D01*
X7668416Y-16829520D01*
X7682701Y-16858092D01*
X7682701Y-17015234D01*
X8268416Y-16700949D02*
X8011273Y-17086663D01*
X8654130Y-16715234D02*
X8682701Y-16715234D01*
X8711273Y-16729520D01*
X8725558Y-16743806D01*
X8739844Y-16772377D01*
X8754130Y-16829520D01*
X8754130Y-16900949D01*
X8739844Y-16958092D01*
X8725558Y-16986663D01*
X8711273Y-17000949D01*
X8682701Y-17015234D01*
X8654130Y-17015234D01*
X8625558Y-17000949D01*
X8611273Y-16986663D01*
X8596987Y-16958092D01*
X8582701Y-16900949D01*
X8582701Y-16829520D01*
X8596987Y-16772377D01*
X8611273Y-16743806D01*
X8625558Y-16729520D01*
X8654130Y-16715234D01*
X8882701Y-16986663D02*
X8896987Y-17000949D01*
X8882701Y-17015234D01*
X8868416Y-17000949D01*
X8882701Y-16986663D01*
X8882701Y-17015234D01*
X9082701Y-16715234D02*
X9111273Y-16715234D01*
X9139844Y-16729520D01*
X9154130Y-16743806D01*
X9168416Y-16772377D01*
X9182701Y-16829520D01*
X9182701Y-16900949D01*
X9168416Y-16958092D01*
X9154130Y-16986663D01*
X9139844Y-17000949D01*
X9111273Y-17015234D01*
X9082701Y-17015234D01*
X9054130Y-17000949D01*
X9039844Y-16986663D01*
X9025558Y-16958092D01*
X9011273Y-16900949D01*
X9011273Y-16829520D01*
X9025558Y-16772377D01*
X9039844Y-16743806D01*
X9054130Y-16729520D01*
X9082701Y-16715234D01*
X9282701Y-16715234D02*
X9468416Y-16715234D01*
X9368416Y-16829520D01*
X9411273Y-16829520D01*
X9439844Y-16843806D01*
X9454130Y-16858092D01*
X9468416Y-16886663D01*
X9468416Y-16958092D01*
X9454130Y-16986663D01*
X9439844Y-17000949D01*
X9411273Y-17015234D01*
X9325558Y-17015234D01*
X9296987Y-17000949D01*
X9282701Y-16986663D01*
X9611273Y-17015234D02*
X9668416Y-17015234D01*
X9696987Y-17000949D01*
X9711273Y-16986663D01*
X9739844Y-16943806D01*
X9754130Y-16886663D01*
X9754130Y-16772377D01*
X9739844Y-16743806D01*
X9725558Y-16729520D01*
X9696987Y-16715234D01*
X9639844Y-16715234D01*
X9611273Y-16729520D01*
X9596987Y-16743806D01*
X9582701Y-16772377D01*
X9582701Y-16843806D01*
X9596987Y-16872377D01*
X9611273Y-16886663D01*
X9639844Y-16900949D01*
X9696987Y-16900949D01*
X9725558Y-16886663D01*
X9739844Y-16872377D01*
X9754130Y-16843806D01*
X9868416Y-16715234D02*
X9868416Y-16772377D01*
X9982701Y-16715234D02*
X9982701Y-16772377D01*
X10425558Y-17129520D02*
X10411273Y-17115234D01*
X10382701Y-17072377D01*
X10368416Y-17043806D01*
X10354130Y-17000949D01*
X10339844Y-16929520D01*
X10339844Y-16872377D01*
X10354130Y-16800949D01*
X10368416Y-16758091D01*
X10382701Y-16729520D01*
X10411273Y-16686663D01*
X10425558Y-16672377D01*
X10668416Y-16815234D02*
X10668416Y-17015234D01*
X10596987Y-16700949D02*
X10525558Y-16915234D01*
X10711273Y-16915234D01*
X10882701Y-16715234D02*
X10911273Y-16715234D01*
X10939844Y-16729520D01*
X10954130Y-16743806D01*
X10968416Y-16772377D01*
X10982701Y-16829520D01*
X10982701Y-16900949D01*
X10968416Y-16958092D01*
X10954130Y-16986663D01*
X10939844Y-17000949D01*
X10911273Y-17015234D01*
X10882701Y-17015234D01*
X10854130Y-17000949D01*
X10839844Y-16986663D01*
X10825558Y-16958092D01*
X10811273Y-16900949D01*
X10811273Y-16829520D01*
X10825558Y-16772377D01*
X10839844Y-16743806D01*
X10854130Y-16729520D01*
X10882701Y-16715234D01*
X11339844Y-17015234D02*
X11339844Y-16715234D01*
X11468416Y-17015234D02*
X11468416Y-16858092D01*
X11454130Y-16829520D01*
X11425558Y-16815234D01*
X11382701Y-16815234D01*
X11354130Y-16829520D01*
X11339844Y-16843806D01*
X11654130Y-17015234D02*
X11625558Y-17000949D01*
X11611273Y-16986663D01*
X11596987Y-16958092D01*
X11596987Y-16872377D01*
X11611273Y-16843806D01*
X11625558Y-16829520D01*
X11654130Y-16815234D01*
X11696987Y-16815234D01*
X11725558Y-16829520D01*
X11739844Y-16843806D01*
X11754130Y-16872377D01*
X11754130Y-16958092D01*
X11739844Y-16986663D01*
X11725558Y-17000949D01*
X11696987Y-17015234D01*
X11654130Y-17015234D01*
X11925558Y-17015234D02*
X11896987Y-17000949D01*
X11882701Y-16972377D01*
X11882701Y-16715234D01*
X12154130Y-17000949D02*
X12125558Y-17015234D01*
X12068416Y-17015234D01*
X12039844Y-17000949D01*
X12025558Y-16972377D01*
X12025558Y-16858092D01*
X12039844Y-16829520D01*
X12068416Y-16815234D01*
X12125558Y-16815234D01*
X12154130Y-16829520D01*
X12168416Y-16858092D01*
X12168416Y-16886663D01*
X12025558Y-16915234D01*
X12282701Y-17000949D02*
X12311273Y-17015234D01*
X12368416Y-17015234D01*
X12396987Y-17000949D01*
X12411273Y-16972377D01*
X12411273Y-16958092D01*
X12396987Y-16929520D01*
X12368416Y-16915234D01*
X12325558Y-16915234D01*
X12296987Y-16900949D01*
X12282701Y-16872377D01*
X12282701Y-16858092D01*
X12296987Y-16829520D01*
X12325558Y-16815234D01*
X12368416Y-16815234D01*
X12396987Y-16829520D01*
X12511273Y-17129520D02*
X12525558Y-17115234D01*
X12554130Y-17072377D01*
X12568416Y-17043806D01*
X12582701Y-17000949D01*
X12596987Y-16929520D01*
X12596987Y-16872377D01*
X12582701Y-16800949D01*
X12568416Y-16758091D01*
X12554130Y-16729520D01*
X12525558Y-16686663D01*
X12511273Y-16672377D01*
X5629130Y-17220520D02*
X5739130Y-17330520D01*
X5739130Y-17220520D02*
X5629130Y-17330520D01*
X5684130Y-17220520D02*
X5684130Y-17330520D01*
X5629130Y-17275520D02*
X5739130Y-17275520D01*
X6182701Y-17411234D02*
X6011273Y-17411234D01*
X6096987Y-17411234D02*
X6096987Y-17111234D01*
X6068416Y-17154092D01*
X6039844Y-17182663D01*
X6011273Y-17196949D01*
X6311273Y-17382663D02*
X6325558Y-17396949D01*
X6311273Y-17411234D01*
X6296987Y-17396949D01*
X6311273Y-17382663D01*
X6311273Y-17411234D01*
X6611273Y-17411234D02*
X6439844Y-17411234D01*
X6525558Y-17411234D02*
X6525558Y-17111234D01*
X6496987Y-17154092D01*
X6468416Y-17182663D01*
X6439844Y-17196949D01*
X6796987Y-17111234D02*
X6825558Y-17111234D01*
X6854130Y-17125520D01*
X6868416Y-17139806D01*
X6882701Y-17168377D01*
X6896987Y-17225520D01*
X6896987Y-17296949D01*
X6882701Y-17354092D01*
X6868416Y-17382663D01*
X6854130Y-17396949D01*
X6825558Y-17411234D01*
X6796987Y-17411234D01*
X6768416Y-17396949D01*
X6754130Y-17382663D01*
X6739844Y-17354092D01*
X6725558Y-17296949D01*
X6725558Y-17225520D01*
X6739844Y-17168377D01*
X6754130Y-17139806D01*
X6768416Y-17125520D01*
X6796987Y-17111234D01*
X7025558Y-17411234D02*
X7025558Y-17211234D01*
X7025558Y-17239806D02*
X7039844Y-17225520D01*
X7068416Y-17211234D01*
X7111273Y-17211234D01*
X7139844Y-17225520D01*
X7154130Y-17254092D01*
X7154130Y-17411234D01*
X7154130Y-17254092D02*
X7168416Y-17225520D01*
X7196987Y-17211234D01*
X7239844Y-17211234D01*
X7268416Y-17225520D01*
X7282701Y-17254092D01*
X7282701Y-17411234D01*
X7425558Y-17411234D02*
X7425558Y-17211234D01*
X7425558Y-17239806D02*
X7439844Y-17225520D01*
X7468416Y-17211234D01*
X7511273Y-17211234D01*
X7539844Y-17225520D01*
X7554130Y-17254092D01*
X7554130Y-17411234D01*
X7554130Y-17254092D02*
X7568416Y-17225520D01*
X7596987Y-17211234D01*
X7639844Y-17211234D01*
X7668416Y-17225520D01*
X7682701Y-17254092D01*
X7682701Y-17411234D01*
X8268416Y-17096949D02*
X8011273Y-17482663D01*
X8654130Y-17111234D02*
X8682701Y-17111234D01*
X8711273Y-17125520D01*
X8725558Y-17139806D01*
X8739844Y-17168377D01*
X8754130Y-17225520D01*
X8754130Y-17296949D01*
X8739844Y-17354092D01*
X8725558Y-17382663D01*
X8711273Y-17396949D01*
X8682701Y-17411234D01*
X8654130Y-17411234D01*
X8625558Y-17396949D01*
X8611273Y-17382663D01*
X8596987Y-17354092D01*
X8582701Y-17296949D01*
X8582701Y-17225520D01*
X8596987Y-17168377D01*
X8611273Y-17139806D01*
X8625558Y-17125520D01*
X8654130Y-17111234D01*
X8882701Y-17382663D02*
X8896987Y-17396949D01*
X8882701Y-17411234D01*
X8868416Y-17396949D01*
X8882701Y-17382663D01*
X8882701Y-17411234D01*
X9082701Y-17111234D02*
X9111273Y-17111234D01*
X9139844Y-17125520D01*
X9154130Y-17139806D01*
X9168416Y-17168377D01*
X9182701Y-17225520D01*
X9182701Y-17296949D01*
X9168416Y-17354092D01*
X9154130Y-17382663D01*
X9139844Y-17396949D01*
X9111273Y-17411234D01*
X9082701Y-17411234D01*
X9054130Y-17396949D01*
X9039844Y-17382663D01*
X9025558Y-17354092D01*
X9011273Y-17296949D01*
X9011273Y-17225520D01*
X9025558Y-17168377D01*
X9039844Y-17139806D01*
X9054130Y-17125520D01*
X9082701Y-17111234D01*
X9439844Y-17211234D02*
X9439844Y-17411234D01*
X9368416Y-17096949D02*
X9296987Y-17311234D01*
X9482701Y-17311234D01*
X9568416Y-17111234D02*
X9754130Y-17111234D01*
X9654130Y-17225520D01*
X9696987Y-17225520D01*
X9725558Y-17239806D01*
X9739844Y-17254092D01*
X9754130Y-17282663D01*
X9754130Y-17354092D01*
X9739844Y-17382663D01*
X9725558Y-17396949D01*
X9696987Y-17411234D01*
X9611273Y-17411234D01*
X9582701Y-17396949D01*
X9568416Y-17382663D01*
X9868416Y-17111234D02*
X9868416Y-17168377D01*
X9982701Y-17111234D02*
X9982701Y-17168377D01*
X10425558Y-17525520D02*
X10411273Y-17511234D01*
X10382701Y-17468377D01*
X10368416Y-17439806D01*
X10354130Y-17396949D01*
X10339844Y-17325520D01*
X10339844Y-17268377D01*
X10354130Y-17196949D01*
X10368416Y-17154092D01*
X10382701Y-17125520D01*
X10411273Y-17082663D01*
X10425558Y-17068377D01*
X10696987Y-17411234D02*
X10525558Y-17411234D01*
X10611273Y-17411234D02*
X10611273Y-17111234D01*
X10582701Y-17154092D01*
X10554130Y-17182663D01*
X10525558Y-17196949D01*
X10811273Y-17139806D02*
X10825558Y-17125520D01*
X10854130Y-17111234D01*
X10925558Y-17111234D01*
X10954130Y-17125520D01*
X10968416Y-17139806D01*
X10982701Y-17168377D01*
X10982701Y-17196949D01*
X10968416Y-17239806D01*
X10796987Y-17411234D01*
X10982701Y-17411234D01*
X11339844Y-17411234D02*
X11339844Y-17111234D01*
X11468416Y-17411234D02*
X11468416Y-17254092D01*
X11454130Y-17225520D01*
X11425558Y-17211234D01*
X11382701Y-17211234D01*
X11354130Y-17225520D01*
X11339844Y-17239806D01*
X11654130Y-17411234D02*
X11625558Y-17396949D01*
X11611273Y-17382663D01*
X11596987Y-17354092D01*
X11596987Y-17268377D01*
X11611273Y-17239806D01*
X11625558Y-17225520D01*
X11654130Y-17211234D01*
X11696987Y-17211234D01*
X11725558Y-17225520D01*
X11739844Y-17239806D01*
X11754130Y-17268377D01*
X11754130Y-17354092D01*
X11739844Y-17382663D01*
X11725558Y-17396949D01*
X11696987Y-17411234D01*
X11654130Y-17411234D01*
X11925558Y-17411234D02*
X11896987Y-17396949D01*
X11882701Y-17368377D01*
X11882701Y-17111234D01*
X12154130Y-17396949D02*
X12125558Y-17411234D01*
X12068416Y-17411234D01*
X12039844Y-17396949D01*
X12025558Y-17368377D01*
X12025558Y-17254092D01*
X12039844Y-17225520D01*
X12068416Y-17211234D01*
X12125558Y-17211234D01*
X12154130Y-17225520D01*
X12168416Y-17254092D01*
X12168416Y-17282663D01*
X12025558Y-17311234D01*
X12282701Y-17396949D02*
X12311273Y-17411234D01*
X12368416Y-17411234D01*
X12396987Y-17396949D01*
X12411273Y-17368377D01*
X12411273Y-17354092D01*
X12396987Y-17325520D01*
X12368416Y-17311234D01*
X12325558Y-17311234D01*
X12296987Y-17296949D01*
X12282701Y-17268377D01*
X12282701Y-17254092D01*
X12296987Y-17225520D01*
X12325558Y-17211234D01*
X12368416Y-17211234D01*
X12396987Y-17225520D01*
X12511273Y-17525520D02*
X12525558Y-17511234D01*
X12554130Y-17468377D01*
X12568416Y-17439806D01*
X12582701Y-17396949D01*
X12596987Y-17325520D01*
X12596987Y-17268377D01*
X12582701Y-17196949D01*
X12568416Y-17154092D01*
X12554130Y-17125520D01*
X12525558Y-17082663D01*
X12511273Y-17068377D01*
M02*
