%FSLAX45Y45*%
G04 Gerber Fmt 4.5, Leading zero omitted, Abs format (unit mm)*
G04 Created by KiCad (PCBNEW (5.1.5)-3) date 2020-07-17 21:41:51*
%MOMM*%
%LPD*%
G04 APERTURE LIST*
%ADD10C,0.200000*%
%ADD11C,0.300000*%
G04 APERTURE END LIST*
D10*
X5801600Y-13150836D02*
X5831600Y-13180836D01*
X5831600Y-13150836D02*
X5801600Y-13180836D01*
X5955450Y-11007150D02*
X5985450Y-11037150D01*
X5985450Y-11007150D02*
X5955450Y-11037150D01*
X5967208Y-13264882D02*
X5997208Y-13294882D01*
X5997208Y-13264882D02*
X5967208Y-13294882D01*
X6156300Y-10520550D02*
X6186300Y-10550550D01*
X6186300Y-10520550D02*
X6156300Y-10550550D01*
X6398500Y-12107150D02*
X6428500Y-12137150D01*
X6428500Y-12107150D02*
X6398500Y-12137150D01*
X6411200Y-10792700D02*
X6441200Y-10822700D01*
X6441200Y-10792700D02*
X6411200Y-10822700D01*
X6462000Y-13135850D02*
X6492000Y-13165850D01*
X6492000Y-13135850D02*
X6462000Y-13165850D01*
X6517880Y-11594070D02*
X6547880Y-11624070D01*
X6547880Y-11594070D02*
X6517880Y-11624070D01*
X6613130Y-13116800D02*
X6643130Y-13146800D01*
X6643130Y-13116800D02*
X6613130Y-13146800D01*
X7224000Y-13135850D02*
X7254000Y-13165850D01*
X7254000Y-13135850D02*
X7224000Y-13165850D01*
X7382750Y-12951700D02*
X7412750Y-12981700D01*
X7412750Y-12951700D02*
X7382750Y-12981700D01*
X7414500Y-11789650D02*
X7444500Y-11819650D01*
X7444500Y-11789650D02*
X7414500Y-11819650D01*
X7433550Y-11415000D02*
X7463550Y-11445000D01*
X7463550Y-11415000D02*
X7433550Y-11445000D01*
X7560550Y-11415000D02*
X7590550Y-11445000D01*
X7590550Y-11415000D02*
X7560550Y-11445000D01*
X7611350Y-11681700D02*
X7641350Y-11711700D01*
X7641350Y-11681700D02*
X7611350Y-11711700D01*
X7668500Y-11478500D02*
X7698500Y-11508500D01*
X7698500Y-11478500D02*
X7668500Y-11508500D01*
X7668500Y-11661520D02*
X7698500Y-11691520D01*
X7698500Y-11661520D02*
X7668500Y-11691520D01*
X7789150Y-11478500D02*
X7819150Y-11508500D01*
X7819150Y-11478500D02*
X7789150Y-11508500D01*
X7808200Y-12037300D02*
X7838200Y-12067300D01*
X7838200Y-12037300D02*
X7808200Y-12067300D01*
X7852650Y-12145250D02*
X7882650Y-12175250D01*
X7882650Y-12145250D02*
X7852650Y-12175250D01*
X7865350Y-11980150D02*
X7895350Y-12010150D01*
X7895350Y-11980150D02*
X7865350Y-12010150D01*
X7909800Y-11478500D02*
X7939800Y-11508500D01*
X7939800Y-11478500D02*
X7909800Y-11508500D01*
X7935200Y-11948400D02*
X7965200Y-11978400D01*
X7965200Y-11948400D02*
X7935200Y-11978400D01*
X7973300Y-11383250D02*
X8003300Y-11413250D01*
X8003300Y-11383250D02*
X7973300Y-11413250D01*
X8087600Y-11237200D02*
X8117600Y-11267200D01*
X8117600Y-11237200D02*
X8087600Y-11267200D01*
X8135860Y-9957040D02*
X8165860Y-9987040D01*
X8165860Y-9957040D02*
X8135860Y-9987040D01*
X8143480Y-12058890D02*
X8173480Y-12088890D01*
X8173480Y-12058890D02*
X8143480Y-12088890D01*
X8176500Y-12297650D02*
X8206500Y-12327650D01*
X8206500Y-12297650D02*
X8176500Y-12327650D01*
X8212869Y-10862550D02*
X8242869Y-10892550D01*
X8242869Y-10862550D02*
X8212869Y-10892550D01*
X8297150Y-10926050D02*
X8327150Y-10956050D01*
X8327150Y-10926050D02*
X8297150Y-10956050D01*
X8354300Y-10970500D02*
X8384300Y-11000500D01*
X8384300Y-10970500D02*
X8354300Y-11000500D01*
X8402695Y-11021300D02*
X8432695Y-11051300D01*
X8432695Y-11021300D02*
X8402695Y-11051300D01*
X8417800Y-11237200D02*
X8447800Y-11267200D01*
X8447800Y-11237200D02*
X8417800Y-11267200D01*
X8436850Y-11726150D02*
X8466850Y-11756150D01*
X8466850Y-11726150D02*
X8436850Y-11756150D01*
X8436850Y-12164300D02*
X8466850Y-12194300D01*
X8466850Y-12164300D02*
X8436850Y-12194300D01*
X8449550Y-11053050D02*
X8479550Y-11083050D01*
X8479550Y-11053050D02*
X8449550Y-11083050D01*
X8468600Y-9010890D02*
X8498600Y-9040890D01*
X8498600Y-9010890D02*
X8468600Y-9040890D01*
X8473680Y-8670530D02*
X8503680Y-8700530D01*
X8503680Y-8670530D02*
X8473680Y-8700530D01*
X8485872Y-11878804D02*
X8515872Y-11908804D01*
X8515872Y-11878804D02*
X8485872Y-11908804D01*
X8489100Y-12183350D02*
X8519100Y-12213350D01*
X8519100Y-12183350D02*
X8489100Y-12213350D01*
X8516225Y-11176875D02*
X8546225Y-11206875D01*
X8546225Y-11176875D02*
X8516225Y-11206875D01*
X8544800Y-12164300D02*
X8574800Y-12194300D01*
X8574800Y-12164300D02*
X8544800Y-12194300D01*
X8557500Y-10513300D02*
X8587500Y-10543300D01*
X8587500Y-10513300D02*
X8557500Y-10543300D01*
X8601950Y-11173700D02*
X8631950Y-11203700D01*
X8631950Y-11173700D02*
X8601950Y-11203700D01*
X8601950Y-12164300D02*
X8631950Y-12194300D01*
X8631950Y-12164300D02*
X8601950Y-12194300D01*
X8640050Y-12742150D02*
X8670050Y-12772150D01*
X8670050Y-12742150D02*
X8640050Y-12772150D01*
X8659100Y-12164300D02*
X8689100Y-12194300D01*
X8689100Y-12164300D02*
X8659100Y-12194300D01*
X8690000Y-11028500D02*
X8720000Y-11058500D01*
X8720000Y-11028500D02*
X8690000Y-11058500D01*
X8694914Y-10831054D02*
X8724914Y-10861054D01*
X8724914Y-10831054D02*
X8694914Y-10861054D01*
X8709900Y-12742150D02*
X8739900Y-12772150D01*
X8739900Y-12742150D02*
X8709900Y-12772150D01*
X8741650Y-11719800D02*
X8771650Y-11749800D01*
X8771650Y-11719800D02*
X8741650Y-11749800D01*
X8762986Y-11227434D02*
X8792986Y-11257434D01*
X8792986Y-11227434D02*
X8762986Y-11257434D01*
X8779750Y-12742150D02*
X8809750Y-12772150D01*
X8809750Y-12742150D02*
X8779750Y-12772150D01*
X8817850Y-11249900D02*
X8847850Y-11279900D01*
X8847850Y-11249900D02*
X8817850Y-11279900D01*
X8820302Y-10490352D02*
X8850302Y-10520352D01*
X8850302Y-10490352D02*
X8820302Y-10520352D01*
X8820302Y-10688648D02*
X8850302Y-10718648D01*
X8850302Y-10688648D02*
X8820302Y-10718648D01*
X8830550Y-12710400D02*
X8860550Y-12740400D01*
X8860550Y-12710400D02*
X8830550Y-12740400D01*
X8834360Y-11926810D02*
X8864360Y-11956810D01*
X8864360Y-11926810D02*
X8834360Y-11956810D01*
X8875000Y-10443450D02*
X8905000Y-10473450D01*
X8905000Y-10443450D02*
X8875000Y-10473450D01*
X8875000Y-10710150D02*
X8905000Y-10740150D01*
X8905000Y-10710150D02*
X8875000Y-10740150D01*
X8875000Y-11224500D02*
X8905000Y-11254500D01*
X8905000Y-11224500D02*
X8875000Y-11254500D01*
X8887700Y-11961100D02*
X8917700Y-11991100D01*
X8917700Y-11961100D02*
X8887700Y-11991100D01*
X8938500Y-11999200D02*
X8968500Y-12029200D01*
X8968500Y-11999200D02*
X8938500Y-12029200D01*
X8963900Y-12354800D02*
X8993900Y-12384800D01*
X8993900Y-12354800D02*
X8963900Y-12384800D01*
X8982950Y-11249900D02*
X9012950Y-11279900D01*
X9012950Y-11249900D02*
X8982950Y-11279900D01*
X9002000Y-12418300D02*
X9032000Y-12448300D01*
X9032000Y-12418300D02*
X9002000Y-12448300D01*
X9015970Y-12223990D02*
X9045970Y-12253990D01*
X9045970Y-12223990D02*
X9015970Y-12253990D01*
X9027400Y-11757900D02*
X9057400Y-11787900D01*
X9057400Y-11757900D02*
X9027400Y-11787900D01*
X9027400Y-12018250D02*
X9057400Y-12048250D01*
X9057400Y-12018250D02*
X9027400Y-12048250D01*
X9040100Y-11224500D02*
X9070100Y-11254500D01*
X9070100Y-11224500D02*
X9040100Y-11254500D01*
X9084550Y-11827750D02*
X9114550Y-11857750D01*
X9114550Y-11827750D02*
X9084550Y-11857750D01*
X9084550Y-12056350D02*
X9114550Y-12086350D01*
X9114550Y-12056350D02*
X9084550Y-12086350D01*
X9097250Y-11249900D02*
X9127250Y-11279900D01*
X9127250Y-11249900D02*
X9097250Y-11279900D01*
X9160750Y-11224500D02*
X9190750Y-11254500D01*
X9190750Y-11224500D02*
X9160750Y-11254500D01*
X9160750Y-11878550D02*
X9190750Y-11908550D01*
X9190750Y-11878550D02*
X9160750Y-11908550D01*
X9211550Y-11942050D02*
X9241550Y-11972050D01*
X9241550Y-11942050D02*
X9211550Y-11972050D01*
X9217900Y-11268950D02*
X9247900Y-11298950D01*
X9247900Y-11268950D02*
X9217900Y-11298950D01*
X9256000Y-11986500D02*
X9286000Y-12016500D01*
X9286000Y-11986500D02*
X9256000Y-12016500D01*
X9262350Y-10595850D02*
X9292350Y-10625850D01*
X9292350Y-10595850D02*
X9262350Y-10625850D01*
X9325850Y-12056350D02*
X9355850Y-12086350D01*
X9355850Y-12056350D02*
X9325850Y-12086350D01*
X9332200Y-10653000D02*
X9362200Y-10683000D01*
X9362200Y-10653000D02*
X9332200Y-10683000D01*
X9363840Y-11667840D02*
X9393840Y-11697840D01*
X9393840Y-11667840D02*
X9363840Y-11697840D01*
X9383000Y-13010120D02*
X9413000Y-13040120D01*
X9413000Y-13010120D02*
X9383000Y-13040120D01*
X9465550Y-10887950D02*
X9495550Y-10917950D01*
X9495550Y-10887950D02*
X9465550Y-10917950D01*
X9560800Y-12697700D02*
X9590800Y-12727700D01*
X9590800Y-12697700D02*
X9560800Y-12727700D01*
X9568000Y-12246000D02*
X9598000Y-12276000D01*
X9598000Y-12246000D02*
X9568000Y-12276000D01*
X9579850Y-12405600D02*
X9609850Y-12435600D01*
X9609850Y-12405600D02*
X9579850Y-12435600D01*
X9598900Y-10907000D02*
X9628900Y-10937000D01*
X9628900Y-10907000D02*
X9598900Y-10937000D01*
X9658480Y-11962480D02*
X9688480Y-11992480D01*
X9688480Y-11962480D02*
X9658480Y-11992480D01*
X9662400Y-11503900D02*
X9692400Y-11533900D01*
X9692400Y-11503900D02*
X9662400Y-11533900D01*
X9681450Y-11561050D02*
X9711450Y-11591050D01*
X9711450Y-11561050D02*
X9681450Y-11591050D01*
X9697249Y-11450001D02*
X9727249Y-11480001D01*
X9727249Y-11450001D02*
X9697249Y-11480001D01*
X9700500Y-11326100D02*
X9730500Y-11356100D01*
X9730500Y-11326100D02*
X9700500Y-11356100D01*
X9719550Y-10907000D02*
X9749550Y-10937000D01*
X9749550Y-10907000D02*
X9719550Y-10937000D01*
X9744950Y-12500850D02*
X9774950Y-12530850D01*
X9774950Y-12500850D02*
X9744950Y-12530850D01*
X9769080Y-12852640D02*
X9799080Y-12882640D01*
X9799080Y-12852640D02*
X9769080Y-12882640D01*
X9814800Y-11103850D02*
X9844800Y-11133850D01*
X9844800Y-11103850D02*
X9814800Y-11133850D01*
X9859250Y-12672300D02*
X9889250Y-12702300D01*
X9889250Y-12672300D02*
X9859250Y-12702300D01*
X9922440Y-10697760D02*
X9952440Y-10727760D01*
X9952440Y-10697760D02*
X9922440Y-10727760D01*
X9935450Y-12672300D02*
X9965450Y-12702300D01*
X9965450Y-12672300D02*
X9935450Y-12702300D01*
X9960850Y-11770600D02*
X9990850Y-11800600D01*
X9990850Y-11770600D02*
X9960850Y-11800600D01*
X9991958Y-11820757D02*
X10021958Y-11850757D01*
X10021958Y-11820757D02*
X9991958Y-11850757D01*
X10018000Y-12672300D02*
X10048000Y-12702300D01*
X10048000Y-12672300D02*
X10018000Y-12702300D01*
X10030700Y-11929350D02*
X10060700Y-11959350D01*
X10060700Y-11929350D02*
X10030700Y-11959350D01*
X10056100Y-8227300D02*
X10086100Y-8257300D01*
X10086100Y-8227300D02*
X10056100Y-8257300D01*
X10068800Y-11986500D02*
X10098800Y-12016500D01*
X10098800Y-11986500D02*
X10068800Y-12016500D01*
X10081500Y-12050000D02*
X10111500Y-12080000D01*
X10111500Y-12050000D02*
X10081500Y-12080000D01*
X10081500Y-12113500D02*
X10111500Y-12143500D01*
X10111500Y-12113500D02*
X10081500Y-12143500D01*
X10081500Y-12177000D02*
X10111500Y-12207000D01*
X10111500Y-12177000D02*
X10081500Y-12207000D01*
X10138650Y-11034000D02*
X10168650Y-11064000D01*
X10168650Y-11034000D02*
X10138650Y-11064000D01*
X10147540Y-12425920D02*
X10177540Y-12455920D01*
X10177540Y-12425920D02*
X10147540Y-12455920D01*
X10367250Y-10621250D02*
X10397250Y-10651250D01*
X10397250Y-10621250D02*
X10367250Y-10651250D01*
X10399000Y-10564100D02*
X10429000Y-10594100D01*
X10429000Y-10564100D02*
X10399000Y-10594100D01*
X10424400Y-9637000D02*
X10454400Y-9667000D01*
X10454400Y-9637000D02*
X10424400Y-9667000D01*
X10437100Y-11314670D02*
X10467100Y-11344670D01*
X10467100Y-11314670D02*
X10437100Y-11344670D01*
X10481550Y-11192750D02*
X10511550Y-11222750D01*
X10511550Y-11192750D02*
X10481550Y-11222750D01*
X10830800Y-10576800D02*
X10860800Y-10606800D01*
X10860800Y-10576800D02*
X10830800Y-10606800D01*
X10830800Y-11561050D02*
X10860800Y-11591050D01*
X10860800Y-11561050D02*
X10830800Y-11591050D01*
X10868900Y-9719550D02*
X10898900Y-9749550D01*
X10898900Y-9719550D02*
X10868900Y-9749550D01*
X10887950Y-10462500D02*
X10917950Y-10492500D01*
X10917950Y-10462500D02*
X10887950Y-10492500D01*
X10887950Y-11484850D02*
X10917950Y-11514850D01*
X10917950Y-11484850D02*
X10887950Y-11514850D01*
X10942850Y-10242500D02*
X10972850Y-10272500D01*
X10972850Y-10242500D02*
X10942850Y-10272500D01*
X10942850Y-11766500D02*
X10972850Y-11796500D01*
X10972850Y-11766500D02*
X10942850Y-11796500D01*
X10983200Y-9802100D02*
X11013200Y-9832100D01*
X11013200Y-9802100D02*
X10983200Y-9832100D01*
X10995900Y-10024350D02*
X11025900Y-10054350D01*
X11025900Y-10024350D02*
X10995900Y-10054350D01*
X10995900Y-11821400D02*
X11025900Y-11851400D01*
X11025900Y-11821400D02*
X10995900Y-11851400D01*
X11049549Y-11031151D02*
X11079549Y-11061151D01*
X11079549Y-11031151D02*
X11049549Y-11061151D01*
X5856671Y-11200379D02*
G75*
G03X5856671Y-11200379I-20000J0D01*
G01*
X5856671Y-11544300D02*
G75*
G03X5856671Y-11544300I-20000J0D01*
G01*
X5856671Y-11708379D02*
G75*
G03X5856671Y-11708379I-20000J0D01*
G01*
X5856671Y-11956029D02*
G75*
G03X5856671Y-11956029I-20000J0D01*
G01*
X5856671Y-12413229D02*
G75*
G03X5856671Y-12413229I-20000J0D01*
G01*
X5856671Y-12686279D02*
G75*
G03X5856671Y-12686279I-20000J0D01*
G01*
X5969950Y-11512550D02*
G75*
G03X5969950Y-11512550I-20000J0D01*
G01*
X5982650Y-11322050D02*
G75*
G03X5982650Y-11322050I-20000J0D01*
G01*
X6077900Y-12058650D02*
G75*
G03X6077900Y-12058650I-20000J0D01*
G01*
X6230300Y-12509500D02*
G75*
G03X6230300Y-12509500I-20000J0D01*
G01*
X6243000Y-9918700D02*
G75*
G03X6243000Y-9918700I-20000J0D01*
G01*
X6282000Y-12001500D02*
G75*
G03X6282000Y-12001500I-20000J0D01*
G01*
X6338250Y-11283950D02*
G75*
G03X6338250Y-11283950I-20000J0D01*
G01*
X6370000Y-11449050D02*
G75*
G03X6370000Y-11449050I-20000J0D01*
G01*
X6395400Y-11131550D02*
G75*
G03X6395400Y-11131550I-20000J0D01*
G01*
X6497000Y-12636500D02*
G75*
G03X6497000Y-12636500I-20000J0D01*
G01*
X6521500Y-12084950D02*
G75*
G03X6521500Y-12084950I-20000J0D01*
G01*
X6674800Y-12255500D02*
G75*
G03X6674800Y-12255500I-20000J0D01*
G01*
X6681150Y-12077700D02*
G75*
G03X6681150Y-12077700I-20000J0D01*
G01*
X6681150Y-12160250D02*
G75*
G03X6681150Y-12160250I-20000J0D01*
G01*
X6757641Y-12394909D02*
G75*
G03X6757641Y-12394909I-20000J0D01*
G01*
X6814500Y-11176000D02*
G75*
G03X6814500Y-11176000I-20000J0D01*
G01*
X6814500Y-11303000D02*
G75*
G03X6814500Y-11303000I-20000J0D01*
G01*
X6814500Y-11430000D02*
G75*
G03X6814500Y-11430000I-20000J0D01*
G01*
X6814500Y-11969750D02*
G75*
G03X6814500Y-11969750I-20000J0D01*
G01*
X6879250Y-11898650D02*
G75*
G03X6879250Y-11898650I-20000J0D01*
G01*
X6944000Y-12164100D02*
G75*
G03X6944000Y-12164100I-20000J0D01*
G01*
X7091000Y-12258400D02*
G75*
G03X7091000Y-12258400I-20000J0D01*
G01*
X7171000Y-7797800D02*
G75*
G03X7171000Y-7797800I-20000J0D01*
G01*
X7257900Y-11837500D02*
G75*
G03X7257900Y-11837500I-20000J0D01*
G01*
X7297100Y-11201400D02*
G75*
G03X7297100Y-11201400I-20000J0D01*
G01*
X7435900Y-12485000D02*
G75*
G03X7435900Y-12485000I-20000J0D01*
G01*
X7518450Y-12485000D02*
G75*
G03X7518450Y-12485000I-20000J0D01*
G01*
X7557450Y-11836400D02*
G75*
G03X7557450Y-11836400I-20000J0D01*
G01*
X7681000Y-12258950D02*
G75*
G03X7681000Y-12258950I-20000J0D01*
G01*
X7791500Y-7797800D02*
G75*
G03X7791500Y-7797800I-20000J0D01*
G01*
X8021000Y-7543800D02*
G75*
G03X8021000Y-7543800I-20000J0D01*
G01*
X8122600Y-12306300D02*
G75*
G03X8122600Y-12306300I-20000J0D01*
G01*
X8130874Y-12486024D02*
G75*
G03X8130874Y-12486024I-20000J0D01*
G01*
X8505050Y-11346000D02*
G75*
G03X8505050Y-11346000I-20000J0D01*
G01*
X8656000Y-10293350D02*
G75*
G03X8656000Y-10293350I-20000J0D01*
G01*
X8716826Y-8448174D02*
G75*
G03X8716826Y-8448174I-20000J0D01*
G01*
X8716826Y-9210174D02*
G75*
G03X8716826Y-9210174I-20000J0D01*
G01*
X8719500Y-10217150D02*
G75*
G03X8719500Y-10217150I-20000J0D01*
G01*
X8744900Y-11345651D02*
G75*
G03X8744900Y-11345651I-20000J0D01*
G01*
X8917799Y-8628201D02*
G75*
G03X8917799Y-8628201I-20000J0D01*
G01*
X8917799Y-9009201D02*
G75*
G03X8917799Y-9009201I-20000J0D01*
G01*
X8936670Y-10351770D02*
G75*
G03X8936670Y-10351770I-20000J0D01*
G01*
X8988740Y-10751820D02*
G75*
G03X8988740Y-10751820I-20000J0D01*
G01*
X9005250Y-7931150D02*
G75*
G03X9005250Y-7931150I-20000J0D01*
G01*
X9056050Y-10133330D02*
G75*
G03X9056050Y-10133330I-20000J0D01*
G01*
X9068750Y-10344150D02*
G75*
G03X9068750Y-10344150I-20000J0D01*
G01*
X9373550Y-10277799D02*
G75*
G03X9373550Y-10277799I-20000J0D01*
G01*
X9405300Y-11201400D02*
G75*
G03X9405300Y-11201400I-20000J0D01*
G01*
X9456100Y-7797800D02*
G75*
G03X9456100Y-7797800I-20000J0D01*
G01*
X9533266Y-12057684D02*
G75*
G03X9533266Y-12057684I-20000J0D01*
G01*
X9534350Y-9935700D02*
G75*
G03X9534350Y-9935700I-20000J0D01*
G01*
X9538650Y-10160000D02*
G75*
G03X9538650Y-10160000I-20000J0D01*
G01*
X9538650Y-11334750D02*
G75*
G03X9538650Y-11334750I-20000J0D01*
G01*
X9545000Y-11544300D02*
G75*
G03X9545000Y-11544300I-20000J0D01*
G01*
X9699940Y-10627360D02*
G75*
G03X9699940Y-10627360I-20000J0D01*
G01*
X9754550Y-10102850D02*
G75*
G03X9754550Y-10102850I-20000J0D01*
G01*
X10152060Y-10864850D02*
G75*
G03X10152060Y-10864850I-20000J0D01*
G01*
X10262550Y-10718800D02*
G75*
G03X10262550Y-10718800I-20000J0D01*
G01*
X10374310Y-12440920D02*
G75*
G03X10374310Y-12440920I-20000J0D01*
G01*
X10451225Y-9878775D02*
G75*
G03X10451225Y-9878775I-20000J0D01*
G01*
X10630850Y-11423650D02*
G75*
G03X10630850Y-11423650I-20000J0D01*
G01*
X10653710Y-12440920D02*
G75*
G03X10653710Y-12440920I-20000J0D01*
G01*
X10675300Y-11049000D02*
G75*
G03X10675300Y-11049000I-20000J0D01*
G01*
X10891200Y-8858250D02*
G75*
G03X10891200Y-8858250I-20000J0D01*
G01*
X10898820Y-12442190D02*
G75*
G03X10898820Y-12442190I-20000J0D01*
G01*
X10948550Y-10147500D02*
G75*
G03X10948550Y-10147500I-20000J0D01*
G01*
X11194300Y-9577500D02*
G75*
G03X11194300Y-9577500I-20000J0D01*
G01*
X11195400Y-10757500D02*
G75*
G03X11195400Y-10757500I-20000J0D01*
G01*
X11197500Y-9927500D02*
G75*
G03X11197500Y-9927500I-20000J0D01*
G01*
X11481750Y-12433300D02*
G75*
G03X11481750Y-12433300I-20000J0D01*
G01*
X11481750Y-12687300D02*
G75*
G03X11481750Y-12687300I-20000J0D01*
G01*
X10713100Y-8322200D02*
X10713100Y-8382200D01*
X10683100Y-8352200D02*
X10743100Y-8352200D01*
X10768100Y-8332200D02*
X10658100Y-8332200D01*
X10768100Y-8372200D02*
X10658100Y-8372200D01*
X10658100Y-8332200D02*
G75*
G03X10658100Y-8372200I0J-20000D01*
G01*
X10768100Y-8372200D02*
G75*
G03X10768100Y-8332200I0J20000D01*
G01*
X10713100Y-9042200D02*
X10713100Y-9102200D01*
X10683100Y-9072200D02*
X10743100Y-9072200D01*
X10768100Y-9052200D02*
X10658100Y-9052200D01*
X10768100Y-9092200D02*
X10658100Y-9092200D01*
X10658100Y-9052200D02*
G75*
G03X10658100Y-9092200I0J-20000D01*
G01*
X10768100Y-9092200D02*
G75*
G03X10768100Y-9052200I0J20000D01*
G01*
X11068100Y-8322200D02*
X11068100Y-8382200D01*
X11038100Y-8352200D02*
X11098100Y-8352200D01*
X11123100Y-8332200D02*
X11013100Y-8332200D01*
X11123100Y-8372200D02*
X11013100Y-8372200D01*
X11013100Y-8332200D02*
G75*
G03X11013100Y-8372200I0J-20000D01*
G01*
X11123100Y-8372200D02*
G75*
G03X11123100Y-8332200I0J20000D01*
G01*
X11068100Y-9042200D02*
X11068100Y-9102200D01*
X11038100Y-9072200D02*
X11098100Y-9072200D01*
X11123100Y-9052200D02*
X11013100Y-9052200D01*
X11123100Y-9092200D02*
X11013100Y-9092200D01*
X11013100Y-9052200D02*
G75*
G03X11013100Y-9092200I0J-20000D01*
G01*
X11123100Y-9092200D02*
G75*
G03X11123100Y-9052200I0J20000D01*
G01*
X9842570Y-7429570D02*
X9842570Y-7365930D01*
X9778930Y-7365930D01*
X9778930Y-7429570D01*
X9842570Y-7429570D01*
X9842570Y-7683570D02*
X9842570Y-7619930D01*
X9778930Y-7619930D01*
X9778930Y-7683570D01*
X9842570Y-7683570D01*
X6096000Y-10451300D02*
X6146000Y-10401300D01*
X6096000Y-10351300D01*
X6046000Y-10401300D01*
X6096000Y-10451300D01*
X6096000Y-10705300D02*
X6146000Y-10655300D01*
X6096000Y-10605300D01*
X6046000Y-10655300D01*
X6096000Y-10705300D01*
X6350000Y-10451300D02*
X6400000Y-10401300D01*
X6350000Y-10351300D01*
X6300000Y-10401300D01*
X6350000Y-10451300D01*
X6350000Y-10705300D02*
X6400000Y-10655300D01*
X6350000Y-10605300D01*
X6300000Y-10655300D01*
X6350000Y-10705300D01*
X6604000Y-10451300D02*
X6654000Y-10401300D01*
X6604000Y-10351300D01*
X6554000Y-10401300D01*
X6604000Y-10451300D01*
X6604000Y-10705300D02*
X6654000Y-10655300D01*
X6604000Y-10605300D01*
X6554000Y-10655300D01*
X6604000Y-10705300D01*
X6858000Y-10451300D02*
X6908000Y-10401300D01*
X6858000Y-10351300D01*
X6808000Y-10401300D01*
X6858000Y-10451300D01*
X6858000Y-10705300D02*
X6908000Y-10655300D01*
X6858000Y-10605300D01*
X6808000Y-10655300D01*
X6858000Y-10705300D01*
X7112000Y-10451300D02*
X7162000Y-10401300D01*
X7112000Y-10351300D01*
X7062000Y-10401300D01*
X7112000Y-10451300D01*
X7112000Y-10705300D02*
X7162000Y-10655300D01*
X7112000Y-10605300D01*
X7062000Y-10655300D01*
X7112000Y-10705300D01*
X7366000Y-10451300D02*
X7416000Y-10401300D01*
X7366000Y-10351300D01*
X7316000Y-10401300D01*
X7366000Y-10451300D01*
X7366000Y-10705300D02*
X7416000Y-10655300D01*
X7366000Y-10605300D01*
X7316000Y-10655300D01*
X7366000Y-10705300D01*
X7620000Y-10451300D02*
X7670000Y-10401300D01*
X7620000Y-10351300D01*
X7570000Y-10401300D01*
X7620000Y-10451300D01*
X7620000Y-10705300D02*
X7670000Y-10655300D01*
X7620000Y-10605300D01*
X7570000Y-10655300D01*
X7620000Y-10705300D01*
X7874000Y-10451300D02*
X7924000Y-10401300D01*
X7874000Y-10351300D01*
X7824000Y-10401300D01*
X7874000Y-10451300D01*
X7874000Y-10705300D02*
X7924000Y-10655300D01*
X7874000Y-10605300D01*
X7824000Y-10655300D01*
X7874000Y-10705300D01*
X8128000Y-10451300D02*
X8178000Y-10401300D01*
X8128000Y-10351300D01*
X8078000Y-10401300D01*
X8128000Y-10451300D01*
X8128000Y-10705300D02*
X8178000Y-10655300D01*
X8128000Y-10605300D01*
X8078000Y-10655300D01*
X8128000Y-10705300D01*
X8382000Y-10451300D02*
X8432000Y-10401300D01*
X8382000Y-10351300D01*
X8332000Y-10401300D01*
X8382000Y-10451300D01*
X8382000Y-10705300D02*
X8432000Y-10655300D01*
X8382000Y-10605300D01*
X8332000Y-10655300D01*
X8382000Y-10705300D01*
X10331450Y-8635200D02*
X10381450Y-8585200D01*
X10331450Y-8535200D01*
X10281450Y-8585200D01*
X10331450Y-8635200D01*
X10331450Y-8889200D02*
X10381450Y-8839200D01*
X10331450Y-8789200D01*
X10281450Y-8839200D01*
X10331450Y-8889200D01*
X9334500Y-10514800D02*
X9384500Y-10464800D01*
X9334500Y-10414800D01*
X9284500Y-10464800D01*
X9334500Y-10514800D01*
X9588500Y-10514800D02*
X9638500Y-10464800D01*
X9588500Y-10414800D01*
X9538500Y-10464800D01*
X9588500Y-10514800D01*
X9842500Y-10514800D02*
X9892500Y-10464800D01*
X9842500Y-10414800D01*
X9792500Y-10464800D01*
X9842500Y-10514800D01*
X8509000Y-8292300D02*
X8559000Y-8242300D01*
X8509000Y-8192300D01*
X8459000Y-8242300D01*
X8509000Y-8292300D01*
X8763000Y-8292300D02*
X8813000Y-8242300D01*
X8763000Y-8192300D01*
X8713000Y-8242300D01*
X8763000Y-8292300D01*
X9017000Y-8292300D02*
X9067000Y-8242300D01*
X9017000Y-8192300D01*
X8967000Y-8242300D01*
X9017000Y-8292300D01*
X9271000Y-8292300D02*
X9321000Y-8242300D01*
X9271000Y-8192300D01*
X9221000Y-8242300D01*
X9271000Y-8292300D01*
X9525000Y-8292300D02*
X9575000Y-8242300D01*
X9525000Y-8192300D01*
X9475000Y-8242300D01*
X9525000Y-8292300D01*
X7620000Y-8152600D02*
X7670000Y-8102600D01*
X7620000Y-8052600D01*
X7570000Y-8102600D01*
X7620000Y-8152600D01*
X7874000Y-8152600D02*
X7924000Y-8102600D01*
X7874000Y-8052600D01*
X7824000Y-8102600D01*
X7874000Y-8152600D01*
X6096000Y-8152600D02*
X6146000Y-8102600D01*
X6096000Y-8052600D01*
X6046000Y-8102600D01*
X6096000Y-8152600D01*
X6350000Y-8152600D02*
X6400000Y-8102600D01*
X6350000Y-8052600D01*
X6300000Y-8102600D01*
X6350000Y-8152600D01*
X9334500Y-9251150D02*
X9384500Y-9201150D01*
X9334500Y-9151150D01*
X9284500Y-9201150D01*
X9334500Y-9251150D01*
X9334500Y-9505150D02*
X9384500Y-9455150D01*
X9334500Y-9405150D01*
X9284500Y-9455150D01*
X9334500Y-9505150D01*
X9588500Y-9251150D02*
X9638500Y-9201150D01*
X9588500Y-9151150D01*
X9538500Y-9201150D01*
X9588500Y-9251150D01*
X9588500Y-9505150D02*
X9638500Y-9455150D01*
X9588500Y-9405150D01*
X9538500Y-9455150D01*
X9588500Y-9505150D01*
X9842500Y-9251150D02*
X9892500Y-9201150D01*
X9842500Y-9151150D01*
X9792500Y-9201150D01*
X9842500Y-9251150D01*
X9842500Y-9505150D02*
X9892500Y-9455150D01*
X9842500Y-9405150D01*
X9792500Y-9455150D01*
X9842500Y-9505150D01*
X8257150Y-7247500D02*
X8367150Y-7357500D01*
X8367150Y-7247500D02*
X8257150Y-7357500D01*
X8367150Y-7302500D02*
G75*
G03X8367150Y-7302500I-55000J0D01*
G01*
X8257150Y-7697500D02*
X8367150Y-7807500D01*
X8367150Y-7697500D02*
X8257150Y-7807500D01*
X8367150Y-7752500D02*
G75*
G03X8367150Y-7752500I-55000J0D01*
G01*
X8907150Y-7247500D02*
X9017150Y-7357500D01*
X9017150Y-7247500D02*
X8907150Y-7357500D01*
X9017150Y-7302500D02*
G75*
G03X9017150Y-7302500I-55000J0D01*
G01*
X8907150Y-7697500D02*
X9017150Y-7807500D01*
X9017150Y-7697500D02*
X8907150Y-7807500D01*
X9017150Y-7752500D02*
G75*
G03X9017150Y-7752500I-55000J0D01*
G01*
X10600300Y-7247500D02*
X10710300Y-7357500D01*
X10710300Y-7247500D02*
X10600300Y-7357500D01*
X10710300Y-7302500D02*
G75*
G03X10710300Y-7302500I-55000J0D01*
G01*
X10600300Y-7697500D02*
X10710300Y-7807500D01*
X10710300Y-7697500D02*
X10600300Y-7807500D01*
X10710300Y-7752500D02*
G75*
G03X10710300Y-7752500I-55000J0D01*
G01*
X11250300Y-7247500D02*
X11360300Y-7357500D01*
X11360300Y-7247500D02*
X11250300Y-7357500D01*
X11360300Y-7302500D02*
G75*
G03X11360300Y-7302500I-55000J0D01*
G01*
X11250300Y-7697500D02*
X11360300Y-7807500D01*
X11360300Y-7697500D02*
X11250300Y-7807500D01*
X11360300Y-7752500D02*
G75*
G03X11360300Y-7752500I-55000J0D01*
G01*
X5914000Y-7247500D02*
X6024000Y-7357500D01*
X6024000Y-7247500D02*
X5914000Y-7357500D01*
X6024000Y-7302500D02*
G75*
G03X6024000Y-7302500I-55000J0D01*
G01*
X5914000Y-7697500D02*
X6024000Y-7807500D01*
X6024000Y-7697500D02*
X5914000Y-7807500D01*
X6024000Y-7752500D02*
G75*
G03X6024000Y-7752500I-55000J0D01*
G01*
X6564000Y-7247500D02*
X6674000Y-7357500D01*
X6674000Y-7247500D02*
X6564000Y-7357500D01*
X6674000Y-7302500D02*
G75*
G03X6674000Y-7302500I-55000J0D01*
G01*
X6564000Y-7697500D02*
X6674000Y-7807500D01*
X6674000Y-7697500D02*
X6564000Y-7807500D01*
X6674000Y-7752500D02*
G75*
G03X6674000Y-7752500I-55000J0D01*
G01*
D11*
X6132428Y-11117014D02*
X6132428Y-10817014D01*
X6203857Y-10817014D01*
X6246714Y-10831300D01*
X6275286Y-10859871D01*
X6289571Y-10888443D01*
X6303857Y-10945586D01*
X6303857Y-10988443D01*
X6289571Y-11045586D01*
X6275286Y-11074157D01*
X6246714Y-11102729D01*
X6203857Y-11117014D01*
X6132428Y-11117014D01*
X6432428Y-11117014D02*
X6432428Y-10917014D01*
X6432428Y-10974157D02*
X6446714Y-10945586D01*
X6461000Y-10931300D01*
X6489571Y-10917014D01*
X6518143Y-10917014D01*
X6618143Y-11117014D02*
X6618143Y-10917014D01*
X6618143Y-10817014D02*
X6603857Y-10831300D01*
X6618143Y-10845586D01*
X6632428Y-10831300D01*
X6618143Y-10817014D01*
X6618143Y-10845586D01*
X6803857Y-11117014D02*
X6775286Y-11102729D01*
X6761000Y-11074157D01*
X6761000Y-10817014D01*
X6961000Y-11117014D02*
X6932428Y-11102729D01*
X6918143Y-11074157D01*
X6918143Y-10817014D01*
X7303857Y-11117014D02*
X7303857Y-10817014D01*
X7403857Y-11031300D01*
X7503857Y-10817014D01*
X7503857Y-11117014D01*
X7775286Y-11117014D02*
X7775286Y-10959871D01*
X7761000Y-10931300D01*
X7732428Y-10917014D01*
X7675286Y-10917014D01*
X7646714Y-10931300D01*
X7775286Y-11102729D02*
X7746714Y-11117014D01*
X7675286Y-11117014D01*
X7646714Y-11102729D01*
X7632428Y-11074157D01*
X7632428Y-11045586D01*
X7646714Y-11017014D01*
X7675286Y-11002729D01*
X7746714Y-11002729D01*
X7775286Y-10988443D01*
X7918143Y-10917014D02*
X7918143Y-11217014D01*
X7918143Y-10931300D02*
X7946714Y-10917014D01*
X8003857Y-10917014D01*
X8032428Y-10931300D01*
X8046714Y-10945586D01*
X8061000Y-10974157D01*
X8061000Y-11059871D01*
X8046714Y-11088443D01*
X8032428Y-11102729D01*
X8003857Y-11117014D01*
X7946714Y-11117014D01*
X7918143Y-11102729D01*
X8189571Y-11088443D02*
X8203857Y-11102729D01*
X8189571Y-11117014D01*
X8175286Y-11102729D01*
X8189571Y-11088443D01*
X8189571Y-11117014D01*
X8189571Y-10931300D02*
X8203857Y-10945586D01*
X8189571Y-10959871D01*
X8175286Y-10945586D01*
X8189571Y-10931300D01*
X8189571Y-10959871D01*
X5816000Y-11596300D02*
X5846000Y-11626300D01*
X5846000Y-11596300D02*
X5816000Y-11626300D01*
X6189571Y-11447014D02*
X6218143Y-11447014D01*
X6246714Y-11461300D01*
X6261000Y-11475586D01*
X6275286Y-11504157D01*
X6289571Y-11561300D01*
X6289571Y-11632728D01*
X6275286Y-11689871D01*
X6261000Y-11718443D01*
X6246714Y-11732728D01*
X6218143Y-11747014D01*
X6189571Y-11747014D01*
X6161000Y-11732728D01*
X6146714Y-11718443D01*
X6132428Y-11689871D01*
X6118143Y-11632728D01*
X6118143Y-11561300D01*
X6132428Y-11504157D01*
X6146714Y-11475586D01*
X6161000Y-11461300D01*
X6189571Y-11447014D01*
X6418143Y-11718443D02*
X6432428Y-11732728D01*
X6418143Y-11747014D01*
X6403857Y-11732728D01*
X6418143Y-11718443D01*
X6418143Y-11747014D01*
X6532428Y-11447014D02*
X6718143Y-11447014D01*
X6618143Y-11561300D01*
X6661000Y-11561300D01*
X6689571Y-11575586D01*
X6703857Y-11589871D01*
X6718143Y-11618443D01*
X6718143Y-11689871D01*
X6703857Y-11718443D01*
X6689571Y-11732728D01*
X6661000Y-11747014D01*
X6575286Y-11747014D01*
X6546714Y-11732728D01*
X6532428Y-11718443D01*
X6903857Y-11447014D02*
X6932428Y-11447014D01*
X6961000Y-11461300D01*
X6975286Y-11475586D01*
X6989571Y-11504157D01*
X7003857Y-11561300D01*
X7003857Y-11632728D01*
X6989571Y-11689871D01*
X6975286Y-11718443D01*
X6961000Y-11732728D01*
X6932428Y-11747014D01*
X6903857Y-11747014D01*
X6875286Y-11732728D01*
X6861000Y-11718443D01*
X6846714Y-11689871D01*
X6832428Y-11632728D01*
X6832428Y-11561300D01*
X6846714Y-11504157D01*
X6861000Y-11475586D01*
X6875286Y-11461300D01*
X6903857Y-11447014D01*
X7132428Y-11747014D02*
X7132428Y-11547014D01*
X7132428Y-11575586D02*
X7146714Y-11561300D01*
X7175286Y-11547014D01*
X7218143Y-11547014D01*
X7246714Y-11561300D01*
X7261000Y-11589871D01*
X7261000Y-11747014D01*
X7261000Y-11589871D02*
X7275286Y-11561300D01*
X7303857Y-11547014D01*
X7346714Y-11547014D01*
X7375286Y-11561300D01*
X7389571Y-11589871D01*
X7389571Y-11747014D01*
X7532428Y-11747014D02*
X7532428Y-11547014D01*
X7532428Y-11575586D02*
X7546714Y-11561300D01*
X7575286Y-11547014D01*
X7618143Y-11547014D01*
X7646714Y-11561300D01*
X7661000Y-11589871D01*
X7661000Y-11747014D01*
X7661000Y-11589871D02*
X7675286Y-11561300D01*
X7703857Y-11547014D01*
X7746714Y-11547014D01*
X7775286Y-11561300D01*
X7789571Y-11589871D01*
X7789571Y-11747014D01*
X8375286Y-11432728D02*
X8118143Y-11818443D01*
X8761000Y-11447014D02*
X8789571Y-11447014D01*
X8818143Y-11461300D01*
X8832429Y-11475586D01*
X8846714Y-11504157D01*
X8861000Y-11561300D01*
X8861000Y-11632728D01*
X8846714Y-11689871D01*
X8832429Y-11718443D01*
X8818143Y-11732728D01*
X8789571Y-11747014D01*
X8761000Y-11747014D01*
X8732429Y-11732728D01*
X8718143Y-11718443D01*
X8703857Y-11689871D01*
X8689571Y-11632728D01*
X8689571Y-11561300D01*
X8703857Y-11504157D01*
X8718143Y-11475586D01*
X8732429Y-11461300D01*
X8761000Y-11447014D01*
X8989571Y-11718443D02*
X9003857Y-11732728D01*
X8989571Y-11747014D01*
X8975286Y-11732728D01*
X8989571Y-11718443D01*
X8989571Y-11747014D01*
X9189571Y-11447014D02*
X9218143Y-11447014D01*
X9246714Y-11461300D01*
X9261000Y-11475586D01*
X9275286Y-11504157D01*
X9289571Y-11561300D01*
X9289571Y-11632728D01*
X9275286Y-11689871D01*
X9261000Y-11718443D01*
X9246714Y-11732728D01*
X9218143Y-11747014D01*
X9189571Y-11747014D01*
X9161000Y-11732728D01*
X9146714Y-11718443D01*
X9132429Y-11689871D01*
X9118143Y-11632728D01*
X9118143Y-11561300D01*
X9132429Y-11504157D01*
X9146714Y-11475586D01*
X9161000Y-11461300D01*
X9189571Y-11447014D01*
X9575286Y-11747014D02*
X9403857Y-11747014D01*
X9489571Y-11747014D02*
X9489571Y-11447014D01*
X9461000Y-11489871D01*
X9432429Y-11518443D01*
X9403857Y-11532728D01*
X9689571Y-11475586D02*
X9703857Y-11461300D01*
X9732429Y-11447014D01*
X9803857Y-11447014D01*
X9832429Y-11461300D01*
X9846714Y-11475586D01*
X9861000Y-11504157D01*
X9861000Y-11532728D01*
X9846714Y-11575586D01*
X9675286Y-11747014D01*
X9861000Y-11747014D01*
X9975286Y-11447014D02*
X9975286Y-11504157D01*
X10089571Y-11447014D02*
X10089571Y-11504157D01*
X10532429Y-11861300D02*
X10518143Y-11847014D01*
X10489571Y-11804157D01*
X10475286Y-11775586D01*
X10461000Y-11732728D01*
X10446714Y-11661300D01*
X10446714Y-11604157D01*
X10461000Y-11532728D01*
X10475286Y-11489871D01*
X10489571Y-11461300D01*
X10518143Y-11418443D01*
X10532429Y-11404157D01*
X10803857Y-11747014D02*
X10632429Y-11747014D01*
X10718143Y-11747014D02*
X10718143Y-11447014D01*
X10689571Y-11489871D01*
X10661000Y-11518443D01*
X10632429Y-11532728D01*
X10918143Y-11475586D02*
X10932429Y-11461300D01*
X10961000Y-11447014D01*
X11032429Y-11447014D01*
X11061000Y-11461300D01*
X11075286Y-11475586D01*
X11089571Y-11504157D01*
X11089571Y-11532728D01*
X11075286Y-11575586D01*
X10903857Y-11747014D01*
X11089571Y-11747014D01*
X11189571Y-11447014D02*
X11389571Y-11447014D01*
X11261000Y-11747014D01*
X11732428Y-11747014D02*
X11732428Y-11447014D01*
X11861000Y-11747014D02*
X11861000Y-11589871D01*
X11846714Y-11561300D01*
X11818143Y-11547014D01*
X11775286Y-11547014D01*
X11746714Y-11561300D01*
X11732428Y-11575586D01*
X12046714Y-11747014D02*
X12018143Y-11732728D01*
X12003857Y-11718443D01*
X11989571Y-11689871D01*
X11989571Y-11604157D01*
X12003857Y-11575586D01*
X12018143Y-11561300D01*
X12046714Y-11547014D01*
X12089571Y-11547014D01*
X12118143Y-11561300D01*
X12132428Y-11575586D01*
X12146714Y-11604157D01*
X12146714Y-11689871D01*
X12132428Y-11718443D01*
X12118143Y-11732728D01*
X12089571Y-11747014D01*
X12046714Y-11747014D01*
X12318143Y-11747014D02*
X12289571Y-11732728D01*
X12275286Y-11704157D01*
X12275286Y-11447014D01*
X12546714Y-11732728D02*
X12518143Y-11747014D01*
X12461000Y-11747014D01*
X12432428Y-11732728D01*
X12418143Y-11704157D01*
X12418143Y-11589871D01*
X12432428Y-11561300D01*
X12461000Y-11547014D01*
X12518143Y-11547014D01*
X12546714Y-11561300D01*
X12561000Y-11589871D01*
X12561000Y-11618443D01*
X12418143Y-11647014D01*
X12675286Y-11732728D02*
X12703857Y-11747014D01*
X12761000Y-11747014D01*
X12789571Y-11732728D01*
X12803857Y-11704157D01*
X12803857Y-11689871D01*
X12789571Y-11661300D01*
X12761000Y-11647014D01*
X12718143Y-11647014D01*
X12689571Y-11632728D01*
X12675286Y-11604157D01*
X12675286Y-11589871D01*
X12689571Y-11561300D01*
X12718143Y-11547014D01*
X12761000Y-11547014D01*
X12789571Y-11561300D01*
X12903857Y-11861300D02*
X12918143Y-11847014D01*
X12946714Y-11804157D01*
X12961000Y-11775586D01*
X12975286Y-11732728D01*
X12989571Y-11661300D01*
X12989571Y-11604157D01*
X12975286Y-11532728D01*
X12961000Y-11489871D01*
X12946714Y-11461300D01*
X12918143Y-11418443D01*
X12903857Y-11404157D01*
X5846000Y-12007300D02*
G75*
G03X5846000Y-12007300I-20000J0D01*
G01*
X6189571Y-11843014D02*
X6218143Y-11843014D01*
X6246714Y-11857300D01*
X6261000Y-11871586D01*
X6275286Y-11900157D01*
X6289571Y-11957300D01*
X6289571Y-12028728D01*
X6275286Y-12085871D01*
X6261000Y-12114443D01*
X6246714Y-12128728D01*
X6218143Y-12143014D01*
X6189571Y-12143014D01*
X6161000Y-12128728D01*
X6146714Y-12114443D01*
X6132428Y-12085871D01*
X6118143Y-12028728D01*
X6118143Y-11957300D01*
X6132428Y-11900157D01*
X6146714Y-11871586D01*
X6161000Y-11857300D01*
X6189571Y-11843014D01*
X6418143Y-12114443D02*
X6432428Y-12128728D01*
X6418143Y-12143014D01*
X6403857Y-12128728D01*
X6418143Y-12114443D01*
X6418143Y-12143014D01*
X6689571Y-11943014D02*
X6689571Y-12143014D01*
X6618143Y-11828728D02*
X6546714Y-12043014D01*
X6732428Y-12043014D01*
X6903857Y-11843014D02*
X6932428Y-11843014D01*
X6961000Y-11857300D01*
X6975286Y-11871586D01*
X6989571Y-11900157D01*
X7003857Y-11957300D01*
X7003857Y-12028728D01*
X6989571Y-12085871D01*
X6975286Y-12114443D01*
X6961000Y-12128728D01*
X6932428Y-12143014D01*
X6903857Y-12143014D01*
X6875286Y-12128728D01*
X6861000Y-12114443D01*
X6846714Y-12085871D01*
X6832428Y-12028728D01*
X6832428Y-11957300D01*
X6846714Y-11900157D01*
X6861000Y-11871586D01*
X6875286Y-11857300D01*
X6903857Y-11843014D01*
X7132428Y-12143014D02*
X7132428Y-11943014D01*
X7132428Y-11971586D02*
X7146714Y-11957300D01*
X7175286Y-11943014D01*
X7218143Y-11943014D01*
X7246714Y-11957300D01*
X7261000Y-11985871D01*
X7261000Y-12143014D01*
X7261000Y-11985871D02*
X7275286Y-11957300D01*
X7303857Y-11943014D01*
X7346714Y-11943014D01*
X7375286Y-11957300D01*
X7389571Y-11985871D01*
X7389571Y-12143014D01*
X7532428Y-12143014D02*
X7532428Y-11943014D01*
X7532428Y-11971586D02*
X7546714Y-11957300D01*
X7575286Y-11943014D01*
X7618143Y-11943014D01*
X7646714Y-11957300D01*
X7661000Y-11985871D01*
X7661000Y-12143014D01*
X7661000Y-11985871D02*
X7675286Y-11957300D01*
X7703857Y-11943014D01*
X7746714Y-11943014D01*
X7775286Y-11957300D01*
X7789571Y-11985871D01*
X7789571Y-12143014D01*
X8375286Y-11828728D02*
X8118143Y-12214443D01*
X8761000Y-11843014D02*
X8789571Y-11843014D01*
X8818143Y-11857300D01*
X8832429Y-11871586D01*
X8846714Y-11900157D01*
X8861000Y-11957300D01*
X8861000Y-12028728D01*
X8846714Y-12085871D01*
X8832429Y-12114443D01*
X8818143Y-12128728D01*
X8789571Y-12143014D01*
X8761000Y-12143014D01*
X8732429Y-12128728D01*
X8718143Y-12114443D01*
X8703857Y-12085871D01*
X8689571Y-12028728D01*
X8689571Y-11957300D01*
X8703857Y-11900157D01*
X8718143Y-11871586D01*
X8732429Y-11857300D01*
X8761000Y-11843014D01*
X8989571Y-12114443D02*
X9003857Y-12128728D01*
X8989571Y-12143014D01*
X8975286Y-12128728D01*
X8989571Y-12114443D01*
X8989571Y-12143014D01*
X9189571Y-11843014D02*
X9218143Y-11843014D01*
X9246714Y-11857300D01*
X9261000Y-11871586D01*
X9275286Y-11900157D01*
X9289571Y-11957300D01*
X9289571Y-12028728D01*
X9275286Y-12085871D01*
X9261000Y-12114443D01*
X9246714Y-12128728D01*
X9218143Y-12143014D01*
X9189571Y-12143014D01*
X9161000Y-12128728D01*
X9146714Y-12114443D01*
X9132429Y-12085871D01*
X9118143Y-12028728D01*
X9118143Y-11957300D01*
X9132429Y-11900157D01*
X9146714Y-11871586D01*
X9161000Y-11857300D01*
X9189571Y-11843014D01*
X9575286Y-12143014D02*
X9403857Y-12143014D01*
X9489571Y-12143014D02*
X9489571Y-11843014D01*
X9461000Y-11885871D01*
X9432429Y-11914443D01*
X9403857Y-11928728D01*
X9832429Y-11843014D02*
X9775286Y-11843014D01*
X9746714Y-11857300D01*
X9732429Y-11871586D01*
X9703857Y-11914443D01*
X9689571Y-11971586D01*
X9689571Y-12085871D01*
X9703857Y-12114443D01*
X9718143Y-12128728D01*
X9746714Y-12143014D01*
X9803857Y-12143014D01*
X9832429Y-12128728D01*
X9846714Y-12114443D01*
X9861000Y-12085871D01*
X9861000Y-12014443D01*
X9846714Y-11985871D01*
X9832429Y-11971586D01*
X9803857Y-11957300D01*
X9746714Y-11957300D01*
X9718143Y-11971586D01*
X9703857Y-11985871D01*
X9689571Y-12014443D01*
X9975286Y-11843014D02*
X9975286Y-11900157D01*
X10089571Y-11843014D02*
X10089571Y-11900157D01*
X10532429Y-12257300D02*
X10518143Y-12243014D01*
X10489571Y-12200157D01*
X10475286Y-12171586D01*
X10461000Y-12128728D01*
X10446714Y-12057300D01*
X10446714Y-12000157D01*
X10461000Y-11928728D01*
X10475286Y-11885871D01*
X10489571Y-11857300D01*
X10518143Y-11814443D01*
X10532429Y-11800157D01*
X10618143Y-11843014D02*
X10818143Y-11843014D01*
X10689571Y-12143014D01*
X10903857Y-11843014D02*
X11103857Y-11843014D01*
X10975286Y-12143014D01*
X11446714Y-12143014D02*
X11446714Y-11843014D01*
X11575286Y-12143014D02*
X11575286Y-11985871D01*
X11561000Y-11957300D01*
X11532428Y-11943014D01*
X11489571Y-11943014D01*
X11461000Y-11957300D01*
X11446714Y-11971586D01*
X11761000Y-12143014D02*
X11732428Y-12128728D01*
X11718143Y-12114443D01*
X11703857Y-12085871D01*
X11703857Y-12000157D01*
X11718143Y-11971586D01*
X11732428Y-11957300D01*
X11761000Y-11943014D01*
X11803857Y-11943014D01*
X11832428Y-11957300D01*
X11846714Y-11971586D01*
X11861000Y-12000157D01*
X11861000Y-12085871D01*
X11846714Y-12114443D01*
X11832428Y-12128728D01*
X11803857Y-12143014D01*
X11761000Y-12143014D01*
X12032428Y-12143014D02*
X12003857Y-12128728D01*
X11989571Y-12100157D01*
X11989571Y-11843014D01*
X12261000Y-12128728D02*
X12232428Y-12143014D01*
X12175286Y-12143014D01*
X12146714Y-12128728D01*
X12132428Y-12100157D01*
X12132428Y-11985871D01*
X12146714Y-11957300D01*
X12175286Y-11943014D01*
X12232428Y-11943014D01*
X12261000Y-11957300D01*
X12275286Y-11985871D01*
X12275286Y-12014443D01*
X12132428Y-12043014D01*
X12389571Y-12128728D02*
X12418143Y-12143014D01*
X12475286Y-12143014D01*
X12503857Y-12128728D01*
X12518143Y-12100157D01*
X12518143Y-12085871D01*
X12503857Y-12057300D01*
X12475286Y-12043014D01*
X12432428Y-12043014D01*
X12403857Y-12028728D01*
X12389571Y-12000157D01*
X12389571Y-11985871D01*
X12403857Y-11957300D01*
X12432428Y-11943014D01*
X12475286Y-11943014D01*
X12503857Y-11957300D01*
X12618143Y-12257300D02*
X12632428Y-12243014D01*
X12661000Y-12200157D01*
X12675286Y-12171586D01*
X12689571Y-12128728D01*
X12703857Y-12057300D01*
X12703857Y-12000157D01*
X12689571Y-11928728D01*
X12675286Y-11885871D01*
X12661000Y-11857300D01*
X12632428Y-11814443D01*
X12618143Y-11800157D01*
X5816000Y-12373300D02*
X5816000Y-12433300D01*
X5786000Y-12403300D02*
X5846000Y-12403300D01*
X6189571Y-12239014D02*
X6218143Y-12239014D01*
X6246714Y-12253300D01*
X6261000Y-12267586D01*
X6275286Y-12296157D01*
X6289571Y-12353300D01*
X6289571Y-12424728D01*
X6275286Y-12481871D01*
X6261000Y-12510443D01*
X6246714Y-12524728D01*
X6218143Y-12539014D01*
X6189571Y-12539014D01*
X6161000Y-12524728D01*
X6146714Y-12510443D01*
X6132428Y-12481871D01*
X6118143Y-12424728D01*
X6118143Y-12353300D01*
X6132428Y-12296157D01*
X6146714Y-12267586D01*
X6161000Y-12253300D01*
X6189571Y-12239014D01*
X6418143Y-12510443D02*
X6432428Y-12524728D01*
X6418143Y-12539014D01*
X6403857Y-12524728D01*
X6418143Y-12510443D01*
X6418143Y-12539014D01*
X6689571Y-12239014D02*
X6632428Y-12239014D01*
X6603857Y-12253300D01*
X6589571Y-12267586D01*
X6561000Y-12310443D01*
X6546714Y-12367586D01*
X6546714Y-12481871D01*
X6561000Y-12510443D01*
X6575286Y-12524728D01*
X6603857Y-12539014D01*
X6661000Y-12539014D01*
X6689571Y-12524728D01*
X6703857Y-12510443D01*
X6718143Y-12481871D01*
X6718143Y-12410443D01*
X6703857Y-12381871D01*
X6689571Y-12367586D01*
X6661000Y-12353300D01*
X6603857Y-12353300D01*
X6575286Y-12367586D01*
X6561000Y-12381871D01*
X6546714Y-12410443D01*
X6903857Y-12239014D02*
X6932428Y-12239014D01*
X6961000Y-12253300D01*
X6975286Y-12267586D01*
X6989571Y-12296157D01*
X7003857Y-12353300D01*
X7003857Y-12424728D01*
X6989571Y-12481871D01*
X6975286Y-12510443D01*
X6961000Y-12524728D01*
X6932428Y-12539014D01*
X6903857Y-12539014D01*
X6875286Y-12524728D01*
X6861000Y-12510443D01*
X6846714Y-12481871D01*
X6832428Y-12424728D01*
X6832428Y-12353300D01*
X6846714Y-12296157D01*
X6861000Y-12267586D01*
X6875286Y-12253300D01*
X6903857Y-12239014D01*
X7132428Y-12539014D02*
X7132428Y-12339014D01*
X7132428Y-12367586D02*
X7146714Y-12353300D01*
X7175286Y-12339014D01*
X7218143Y-12339014D01*
X7246714Y-12353300D01*
X7261000Y-12381871D01*
X7261000Y-12539014D01*
X7261000Y-12381871D02*
X7275286Y-12353300D01*
X7303857Y-12339014D01*
X7346714Y-12339014D01*
X7375286Y-12353300D01*
X7389571Y-12381871D01*
X7389571Y-12539014D01*
X7532428Y-12539014D02*
X7532428Y-12339014D01*
X7532428Y-12367586D02*
X7546714Y-12353300D01*
X7575286Y-12339014D01*
X7618143Y-12339014D01*
X7646714Y-12353300D01*
X7661000Y-12381871D01*
X7661000Y-12539014D01*
X7661000Y-12381871D02*
X7675286Y-12353300D01*
X7703857Y-12339014D01*
X7746714Y-12339014D01*
X7775286Y-12353300D01*
X7789571Y-12381871D01*
X7789571Y-12539014D01*
X8375286Y-12224728D02*
X8118143Y-12610443D01*
X8761000Y-12239014D02*
X8789571Y-12239014D01*
X8818143Y-12253300D01*
X8832429Y-12267586D01*
X8846714Y-12296157D01*
X8861000Y-12353300D01*
X8861000Y-12424728D01*
X8846714Y-12481871D01*
X8832429Y-12510443D01*
X8818143Y-12524728D01*
X8789571Y-12539014D01*
X8761000Y-12539014D01*
X8732429Y-12524728D01*
X8718143Y-12510443D01*
X8703857Y-12481871D01*
X8689571Y-12424728D01*
X8689571Y-12353300D01*
X8703857Y-12296157D01*
X8718143Y-12267586D01*
X8732429Y-12253300D01*
X8761000Y-12239014D01*
X8989571Y-12510443D02*
X9003857Y-12524728D01*
X8989571Y-12539014D01*
X8975286Y-12524728D01*
X8989571Y-12510443D01*
X8989571Y-12539014D01*
X9189571Y-12239014D02*
X9218143Y-12239014D01*
X9246714Y-12253300D01*
X9261000Y-12267586D01*
X9275286Y-12296157D01*
X9289571Y-12353300D01*
X9289571Y-12424728D01*
X9275286Y-12481871D01*
X9261000Y-12510443D01*
X9246714Y-12524728D01*
X9218143Y-12539014D01*
X9189571Y-12539014D01*
X9161000Y-12524728D01*
X9146714Y-12510443D01*
X9132429Y-12481871D01*
X9118143Y-12424728D01*
X9118143Y-12353300D01*
X9132429Y-12296157D01*
X9146714Y-12267586D01*
X9161000Y-12253300D01*
X9189571Y-12239014D01*
X9403857Y-12267586D02*
X9418143Y-12253300D01*
X9446714Y-12239014D01*
X9518143Y-12239014D01*
X9546714Y-12253300D01*
X9561000Y-12267586D01*
X9575286Y-12296157D01*
X9575286Y-12324728D01*
X9561000Y-12367586D01*
X9389571Y-12539014D01*
X9575286Y-12539014D01*
X9832429Y-12339014D02*
X9832429Y-12539014D01*
X9761000Y-12224728D02*
X9689571Y-12439014D01*
X9875286Y-12439014D01*
X9975286Y-12239014D02*
X9975286Y-12296157D01*
X10089571Y-12239014D02*
X10089571Y-12296157D01*
X10532429Y-12653300D02*
X10518143Y-12639014D01*
X10489571Y-12596157D01*
X10475286Y-12567586D01*
X10461000Y-12524728D01*
X10446714Y-12453300D01*
X10446714Y-12396157D01*
X10461000Y-12324728D01*
X10475286Y-12281871D01*
X10489571Y-12253300D01*
X10518143Y-12210443D01*
X10532429Y-12196157D01*
X10703857Y-12239014D02*
X10732429Y-12239014D01*
X10761000Y-12253300D01*
X10775286Y-12267586D01*
X10789571Y-12296157D01*
X10803857Y-12353300D01*
X10803857Y-12424728D01*
X10789571Y-12481871D01*
X10775286Y-12510443D01*
X10761000Y-12524728D01*
X10732429Y-12539014D01*
X10703857Y-12539014D01*
X10675286Y-12524728D01*
X10661000Y-12510443D01*
X10646714Y-12481871D01*
X10632429Y-12424728D01*
X10632429Y-12353300D01*
X10646714Y-12296157D01*
X10661000Y-12267586D01*
X10675286Y-12253300D01*
X10703857Y-12239014D01*
X11161000Y-12539014D02*
X11161000Y-12239014D01*
X11289571Y-12539014D02*
X11289571Y-12381871D01*
X11275286Y-12353300D01*
X11246714Y-12339014D01*
X11203857Y-12339014D01*
X11175286Y-12353300D01*
X11161000Y-12367586D01*
X11475286Y-12539014D02*
X11446714Y-12524728D01*
X11432428Y-12510443D01*
X11418143Y-12481871D01*
X11418143Y-12396157D01*
X11432428Y-12367586D01*
X11446714Y-12353300D01*
X11475286Y-12339014D01*
X11518143Y-12339014D01*
X11546714Y-12353300D01*
X11561000Y-12367586D01*
X11575286Y-12396157D01*
X11575286Y-12481871D01*
X11561000Y-12510443D01*
X11546714Y-12524728D01*
X11518143Y-12539014D01*
X11475286Y-12539014D01*
X11746714Y-12539014D02*
X11718143Y-12524728D01*
X11703857Y-12496157D01*
X11703857Y-12239014D01*
X11975286Y-12524728D02*
X11946714Y-12539014D01*
X11889571Y-12539014D01*
X11861000Y-12524728D01*
X11846714Y-12496157D01*
X11846714Y-12381871D01*
X11861000Y-12353300D01*
X11889571Y-12339014D01*
X11946714Y-12339014D01*
X11975286Y-12353300D01*
X11989571Y-12381871D01*
X11989571Y-12410443D01*
X11846714Y-12439014D01*
X12103857Y-12524728D02*
X12132428Y-12539014D01*
X12189571Y-12539014D01*
X12218143Y-12524728D01*
X12232428Y-12496157D01*
X12232428Y-12481871D01*
X12218143Y-12453300D01*
X12189571Y-12439014D01*
X12146714Y-12439014D01*
X12118143Y-12424728D01*
X12103857Y-12396157D01*
X12103857Y-12381871D01*
X12118143Y-12353300D01*
X12146714Y-12339014D01*
X12189571Y-12339014D01*
X12218143Y-12353300D01*
X12589571Y-12424728D02*
X12818143Y-12424728D01*
X12703857Y-12539014D02*
X12703857Y-12310443D01*
X13318143Y-12339014D02*
X13318143Y-12539014D01*
X13246714Y-12224728D02*
X13175286Y-12439014D01*
X13361000Y-12439014D01*
X13689571Y-12524728D02*
X13718143Y-12539014D01*
X13775286Y-12539014D01*
X13803857Y-12524728D01*
X13818143Y-12496157D01*
X13818143Y-12481871D01*
X13803857Y-12453300D01*
X13775286Y-12439014D01*
X13732428Y-12439014D01*
X13703857Y-12424728D01*
X13689571Y-12396157D01*
X13689571Y-12381871D01*
X13703857Y-12353300D01*
X13732428Y-12339014D01*
X13775286Y-12339014D01*
X13803857Y-12353300D01*
X13989571Y-12539014D02*
X13961000Y-12524728D01*
X13946714Y-12496157D01*
X13946714Y-12239014D01*
X14146714Y-12539014D02*
X14118143Y-12524728D01*
X14103857Y-12510443D01*
X14089571Y-12481871D01*
X14089571Y-12396157D01*
X14103857Y-12367586D01*
X14118143Y-12353300D01*
X14146714Y-12339014D01*
X14189571Y-12339014D01*
X14218143Y-12353300D01*
X14232428Y-12367586D01*
X14246714Y-12396157D01*
X14246714Y-12481871D01*
X14232428Y-12510443D01*
X14218143Y-12524728D01*
X14189571Y-12539014D01*
X14146714Y-12539014D01*
X14332428Y-12339014D02*
X14446714Y-12339014D01*
X14375286Y-12239014D02*
X14375286Y-12496157D01*
X14389571Y-12524728D01*
X14418143Y-12539014D01*
X14446714Y-12539014D01*
X14532428Y-12524728D02*
X14561000Y-12539014D01*
X14618143Y-12539014D01*
X14646714Y-12524728D01*
X14661000Y-12496157D01*
X14661000Y-12481871D01*
X14646714Y-12453300D01*
X14618143Y-12439014D01*
X14575286Y-12439014D01*
X14546714Y-12424728D01*
X14532428Y-12396157D01*
X14532428Y-12381871D01*
X14546714Y-12353300D01*
X14575286Y-12339014D01*
X14618143Y-12339014D01*
X14646714Y-12353300D01*
X14761000Y-12653300D02*
X14775286Y-12639014D01*
X14803857Y-12596157D01*
X14818143Y-12567586D01*
X14832428Y-12524728D01*
X14846714Y-12453300D01*
X14846714Y-12396157D01*
X14832428Y-12324728D01*
X14818143Y-12281871D01*
X14803857Y-12253300D01*
X14775286Y-12210443D01*
X14761000Y-12196157D01*
X5832820Y-12831120D02*
X5832820Y-12767480D01*
X5769180Y-12767480D01*
X5769180Y-12831120D01*
X5832820Y-12831120D01*
X6189571Y-12635014D02*
X6218143Y-12635014D01*
X6246714Y-12649300D01*
X6261000Y-12663586D01*
X6275286Y-12692157D01*
X6289571Y-12749300D01*
X6289571Y-12820728D01*
X6275286Y-12877871D01*
X6261000Y-12906443D01*
X6246714Y-12920728D01*
X6218143Y-12935014D01*
X6189571Y-12935014D01*
X6161000Y-12920728D01*
X6146714Y-12906443D01*
X6132428Y-12877871D01*
X6118143Y-12820728D01*
X6118143Y-12749300D01*
X6132428Y-12692157D01*
X6146714Y-12663586D01*
X6161000Y-12649300D01*
X6189571Y-12635014D01*
X6418143Y-12906443D02*
X6432428Y-12920728D01*
X6418143Y-12935014D01*
X6403857Y-12920728D01*
X6418143Y-12906443D01*
X6418143Y-12935014D01*
X6575286Y-12935014D02*
X6632428Y-12935014D01*
X6661000Y-12920728D01*
X6675286Y-12906443D01*
X6703857Y-12863586D01*
X6718143Y-12806443D01*
X6718143Y-12692157D01*
X6703857Y-12663586D01*
X6689571Y-12649300D01*
X6661000Y-12635014D01*
X6603857Y-12635014D01*
X6575286Y-12649300D01*
X6561000Y-12663586D01*
X6546714Y-12692157D01*
X6546714Y-12763586D01*
X6561000Y-12792157D01*
X6575286Y-12806443D01*
X6603857Y-12820728D01*
X6661000Y-12820728D01*
X6689571Y-12806443D01*
X6703857Y-12792157D01*
X6718143Y-12763586D01*
X6903857Y-12635014D02*
X6932428Y-12635014D01*
X6961000Y-12649300D01*
X6975286Y-12663586D01*
X6989571Y-12692157D01*
X7003857Y-12749300D01*
X7003857Y-12820728D01*
X6989571Y-12877871D01*
X6975286Y-12906443D01*
X6961000Y-12920728D01*
X6932428Y-12935014D01*
X6903857Y-12935014D01*
X6875286Y-12920728D01*
X6861000Y-12906443D01*
X6846714Y-12877871D01*
X6832428Y-12820728D01*
X6832428Y-12749300D01*
X6846714Y-12692157D01*
X6861000Y-12663586D01*
X6875286Y-12649300D01*
X6903857Y-12635014D01*
X7132428Y-12935014D02*
X7132428Y-12735014D01*
X7132428Y-12763586D02*
X7146714Y-12749300D01*
X7175286Y-12735014D01*
X7218143Y-12735014D01*
X7246714Y-12749300D01*
X7261000Y-12777871D01*
X7261000Y-12935014D01*
X7261000Y-12777871D02*
X7275286Y-12749300D01*
X7303857Y-12735014D01*
X7346714Y-12735014D01*
X7375286Y-12749300D01*
X7389571Y-12777871D01*
X7389571Y-12935014D01*
X7532428Y-12935014D02*
X7532428Y-12735014D01*
X7532428Y-12763586D02*
X7546714Y-12749300D01*
X7575286Y-12735014D01*
X7618143Y-12735014D01*
X7646714Y-12749300D01*
X7661000Y-12777871D01*
X7661000Y-12935014D01*
X7661000Y-12777871D02*
X7675286Y-12749300D01*
X7703857Y-12735014D01*
X7746714Y-12735014D01*
X7775286Y-12749300D01*
X7789571Y-12777871D01*
X7789571Y-12935014D01*
X8375286Y-12620728D02*
X8118143Y-13006443D01*
X8761000Y-12635014D02*
X8789571Y-12635014D01*
X8818143Y-12649300D01*
X8832429Y-12663586D01*
X8846714Y-12692157D01*
X8861000Y-12749300D01*
X8861000Y-12820728D01*
X8846714Y-12877871D01*
X8832429Y-12906443D01*
X8818143Y-12920728D01*
X8789571Y-12935014D01*
X8761000Y-12935014D01*
X8732429Y-12920728D01*
X8718143Y-12906443D01*
X8703857Y-12877871D01*
X8689571Y-12820728D01*
X8689571Y-12749300D01*
X8703857Y-12692157D01*
X8718143Y-12663586D01*
X8732429Y-12649300D01*
X8761000Y-12635014D01*
X8989571Y-12906443D02*
X9003857Y-12920728D01*
X8989571Y-12935014D01*
X8975286Y-12920728D01*
X8989571Y-12906443D01*
X8989571Y-12935014D01*
X9189571Y-12635014D02*
X9218143Y-12635014D01*
X9246714Y-12649300D01*
X9261000Y-12663586D01*
X9275286Y-12692157D01*
X9289571Y-12749300D01*
X9289571Y-12820728D01*
X9275286Y-12877871D01*
X9261000Y-12906443D01*
X9246714Y-12920728D01*
X9218143Y-12935014D01*
X9189571Y-12935014D01*
X9161000Y-12920728D01*
X9146714Y-12906443D01*
X9132429Y-12877871D01*
X9118143Y-12820728D01*
X9118143Y-12749300D01*
X9132429Y-12692157D01*
X9146714Y-12663586D01*
X9161000Y-12649300D01*
X9189571Y-12635014D01*
X9389571Y-12635014D02*
X9575286Y-12635014D01*
X9475286Y-12749300D01*
X9518143Y-12749300D01*
X9546714Y-12763586D01*
X9561000Y-12777871D01*
X9575286Y-12806443D01*
X9575286Y-12877871D01*
X9561000Y-12906443D01*
X9546714Y-12920728D01*
X9518143Y-12935014D01*
X9432429Y-12935014D01*
X9403857Y-12920728D01*
X9389571Y-12906443D01*
X9846714Y-12635014D02*
X9703857Y-12635014D01*
X9689571Y-12777871D01*
X9703857Y-12763586D01*
X9732429Y-12749300D01*
X9803857Y-12749300D01*
X9832429Y-12763586D01*
X9846714Y-12777871D01*
X9861000Y-12806443D01*
X9861000Y-12877871D01*
X9846714Y-12906443D01*
X9832429Y-12920728D01*
X9803857Y-12935014D01*
X9732429Y-12935014D01*
X9703857Y-12920728D01*
X9689571Y-12906443D01*
X9975286Y-12635014D02*
X9975286Y-12692157D01*
X10089571Y-12635014D02*
X10089571Y-12692157D01*
X10532429Y-13049300D02*
X10518143Y-13035014D01*
X10489571Y-12992157D01*
X10475286Y-12963586D01*
X10461000Y-12920728D01*
X10446714Y-12849300D01*
X10446714Y-12792157D01*
X10461000Y-12720728D01*
X10475286Y-12677871D01*
X10489571Y-12649300D01*
X10518143Y-12606443D01*
X10532429Y-12592157D01*
X10632429Y-12663586D02*
X10646714Y-12649300D01*
X10675286Y-12635014D01*
X10746714Y-12635014D01*
X10775286Y-12649300D01*
X10789571Y-12663586D01*
X10803857Y-12692157D01*
X10803857Y-12720728D01*
X10789571Y-12763586D01*
X10618143Y-12935014D01*
X10803857Y-12935014D01*
X11161000Y-12935014D02*
X11161000Y-12635014D01*
X11289571Y-12935014D02*
X11289571Y-12777871D01*
X11275286Y-12749300D01*
X11246714Y-12735014D01*
X11203857Y-12735014D01*
X11175286Y-12749300D01*
X11161000Y-12763586D01*
X11475286Y-12935014D02*
X11446714Y-12920728D01*
X11432428Y-12906443D01*
X11418143Y-12877871D01*
X11418143Y-12792157D01*
X11432428Y-12763586D01*
X11446714Y-12749300D01*
X11475286Y-12735014D01*
X11518143Y-12735014D01*
X11546714Y-12749300D01*
X11561000Y-12763586D01*
X11575286Y-12792157D01*
X11575286Y-12877871D01*
X11561000Y-12906443D01*
X11546714Y-12920728D01*
X11518143Y-12935014D01*
X11475286Y-12935014D01*
X11746714Y-12935014D02*
X11718143Y-12920728D01*
X11703857Y-12892157D01*
X11703857Y-12635014D01*
X11975286Y-12920728D02*
X11946714Y-12935014D01*
X11889571Y-12935014D01*
X11861000Y-12920728D01*
X11846714Y-12892157D01*
X11846714Y-12777871D01*
X11861000Y-12749300D01*
X11889571Y-12735014D01*
X11946714Y-12735014D01*
X11975286Y-12749300D01*
X11989571Y-12777871D01*
X11989571Y-12806443D01*
X11846714Y-12835014D01*
X12103857Y-12920728D02*
X12132428Y-12935014D01*
X12189571Y-12935014D01*
X12218143Y-12920728D01*
X12232428Y-12892157D01*
X12232428Y-12877871D01*
X12218143Y-12849300D01*
X12189571Y-12835014D01*
X12146714Y-12835014D01*
X12118143Y-12820728D01*
X12103857Y-12792157D01*
X12103857Y-12777871D01*
X12118143Y-12749300D01*
X12146714Y-12735014D01*
X12189571Y-12735014D01*
X12218143Y-12749300D01*
X12332428Y-13049300D02*
X12346714Y-13035014D01*
X12375286Y-12992157D01*
X12389571Y-12963586D01*
X12403857Y-12920728D01*
X12418143Y-12849300D01*
X12418143Y-12792157D01*
X12403857Y-12720728D01*
X12389571Y-12677871D01*
X12375286Y-12649300D01*
X12346714Y-12606443D01*
X12332428Y-12592157D01*
X5796000Y-13245300D02*
X5846000Y-13195300D01*
X5796000Y-13145300D01*
X5746000Y-13195300D01*
X5796000Y-13245300D01*
X6289571Y-13331014D02*
X6118143Y-13331014D01*
X6203857Y-13331014D02*
X6203857Y-13031014D01*
X6175286Y-13073871D01*
X6146714Y-13102443D01*
X6118143Y-13116728D01*
X6418143Y-13302443D02*
X6432428Y-13316728D01*
X6418143Y-13331014D01*
X6403857Y-13316728D01*
X6418143Y-13302443D01*
X6418143Y-13331014D01*
X6618143Y-13031014D02*
X6646714Y-13031014D01*
X6675286Y-13045300D01*
X6689571Y-13059586D01*
X6703857Y-13088157D01*
X6718143Y-13145300D01*
X6718143Y-13216728D01*
X6703857Y-13273871D01*
X6689571Y-13302443D01*
X6675286Y-13316728D01*
X6646714Y-13331014D01*
X6618143Y-13331014D01*
X6589571Y-13316728D01*
X6575286Y-13302443D01*
X6561000Y-13273871D01*
X6546714Y-13216728D01*
X6546714Y-13145300D01*
X6561000Y-13088157D01*
X6575286Y-13059586D01*
X6589571Y-13045300D01*
X6618143Y-13031014D01*
X6903857Y-13031014D02*
X6932428Y-13031014D01*
X6961000Y-13045300D01*
X6975286Y-13059586D01*
X6989571Y-13088157D01*
X7003857Y-13145300D01*
X7003857Y-13216728D01*
X6989571Y-13273871D01*
X6975286Y-13302443D01*
X6961000Y-13316728D01*
X6932428Y-13331014D01*
X6903857Y-13331014D01*
X6875286Y-13316728D01*
X6861000Y-13302443D01*
X6846714Y-13273871D01*
X6832428Y-13216728D01*
X6832428Y-13145300D01*
X6846714Y-13088157D01*
X6861000Y-13059586D01*
X6875286Y-13045300D01*
X6903857Y-13031014D01*
X7132428Y-13331014D02*
X7132428Y-13131014D01*
X7132428Y-13159586D02*
X7146714Y-13145300D01*
X7175286Y-13131014D01*
X7218143Y-13131014D01*
X7246714Y-13145300D01*
X7261000Y-13173871D01*
X7261000Y-13331014D01*
X7261000Y-13173871D02*
X7275286Y-13145300D01*
X7303857Y-13131014D01*
X7346714Y-13131014D01*
X7375286Y-13145300D01*
X7389571Y-13173871D01*
X7389571Y-13331014D01*
X7532428Y-13331014D02*
X7532428Y-13131014D01*
X7532428Y-13159586D02*
X7546714Y-13145300D01*
X7575286Y-13131014D01*
X7618143Y-13131014D01*
X7646714Y-13145300D01*
X7661000Y-13173871D01*
X7661000Y-13331014D01*
X7661000Y-13173871D02*
X7675286Y-13145300D01*
X7703857Y-13131014D01*
X7746714Y-13131014D01*
X7775286Y-13145300D01*
X7789571Y-13173871D01*
X7789571Y-13331014D01*
X8375286Y-13016728D02*
X8118143Y-13402443D01*
X8761000Y-13031014D02*
X8789571Y-13031014D01*
X8818143Y-13045300D01*
X8832429Y-13059586D01*
X8846714Y-13088157D01*
X8861000Y-13145300D01*
X8861000Y-13216728D01*
X8846714Y-13273871D01*
X8832429Y-13302443D01*
X8818143Y-13316728D01*
X8789571Y-13331014D01*
X8761000Y-13331014D01*
X8732429Y-13316728D01*
X8718143Y-13302443D01*
X8703857Y-13273871D01*
X8689571Y-13216728D01*
X8689571Y-13145300D01*
X8703857Y-13088157D01*
X8718143Y-13059586D01*
X8732429Y-13045300D01*
X8761000Y-13031014D01*
X8989571Y-13302443D02*
X9003857Y-13316728D01*
X8989571Y-13331014D01*
X8975286Y-13316728D01*
X8989571Y-13302443D01*
X8989571Y-13331014D01*
X9189571Y-13031014D02*
X9218143Y-13031014D01*
X9246714Y-13045300D01*
X9261000Y-13059586D01*
X9275286Y-13088157D01*
X9289571Y-13145300D01*
X9289571Y-13216728D01*
X9275286Y-13273871D01*
X9261000Y-13302443D01*
X9246714Y-13316728D01*
X9218143Y-13331014D01*
X9189571Y-13331014D01*
X9161000Y-13316728D01*
X9146714Y-13302443D01*
X9132429Y-13273871D01*
X9118143Y-13216728D01*
X9118143Y-13145300D01*
X9132429Y-13088157D01*
X9146714Y-13059586D01*
X9161000Y-13045300D01*
X9189571Y-13031014D01*
X9389571Y-13031014D02*
X9575286Y-13031014D01*
X9475286Y-13145300D01*
X9518143Y-13145300D01*
X9546714Y-13159586D01*
X9561000Y-13173871D01*
X9575286Y-13202443D01*
X9575286Y-13273871D01*
X9561000Y-13302443D01*
X9546714Y-13316728D01*
X9518143Y-13331014D01*
X9432429Y-13331014D01*
X9403857Y-13316728D01*
X9389571Y-13302443D01*
X9718143Y-13331014D02*
X9775286Y-13331014D01*
X9803857Y-13316728D01*
X9818143Y-13302443D01*
X9846714Y-13259586D01*
X9861000Y-13202443D01*
X9861000Y-13088157D01*
X9846714Y-13059586D01*
X9832429Y-13045300D01*
X9803857Y-13031014D01*
X9746714Y-13031014D01*
X9718143Y-13045300D01*
X9703857Y-13059586D01*
X9689571Y-13088157D01*
X9689571Y-13159586D01*
X9703857Y-13188157D01*
X9718143Y-13202443D01*
X9746714Y-13216728D01*
X9803857Y-13216728D01*
X9832429Y-13202443D01*
X9846714Y-13188157D01*
X9861000Y-13159586D01*
X9975286Y-13031014D02*
X9975286Y-13088157D01*
X10089571Y-13031014D02*
X10089571Y-13088157D01*
X10532429Y-13445300D02*
X10518143Y-13431014D01*
X10489571Y-13388157D01*
X10475286Y-13359586D01*
X10461000Y-13316728D01*
X10446714Y-13245300D01*
X10446714Y-13188157D01*
X10461000Y-13116728D01*
X10475286Y-13073871D01*
X10489571Y-13045300D01*
X10518143Y-13002443D01*
X10532429Y-12988157D01*
X10775286Y-13131014D02*
X10775286Y-13331014D01*
X10703857Y-13016728D02*
X10632429Y-13231014D01*
X10818143Y-13231014D01*
X10989571Y-13031014D02*
X11018143Y-13031014D01*
X11046714Y-13045300D01*
X11061000Y-13059586D01*
X11075286Y-13088157D01*
X11089571Y-13145300D01*
X11089571Y-13216728D01*
X11075286Y-13273871D01*
X11061000Y-13302443D01*
X11046714Y-13316728D01*
X11018143Y-13331014D01*
X10989571Y-13331014D01*
X10961000Y-13316728D01*
X10946714Y-13302443D01*
X10932429Y-13273871D01*
X10918143Y-13216728D01*
X10918143Y-13145300D01*
X10932429Y-13088157D01*
X10946714Y-13059586D01*
X10961000Y-13045300D01*
X10989571Y-13031014D01*
X11446714Y-13331014D02*
X11446714Y-13031014D01*
X11575286Y-13331014D02*
X11575286Y-13173871D01*
X11561000Y-13145300D01*
X11532428Y-13131014D01*
X11489571Y-13131014D01*
X11461000Y-13145300D01*
X11446714Y-13159586D01*
X11761000Y-13331014D02*
X11732428Y-13316728D01*
X11718143Y-13302443D01*
X11703857Y-13273871D01*
X11703857Y-13188157D01*
X11718143Y-13159586D01*
X11732428Y-13145300D01*
X11761000Y-13131014D01*
X11803857Y-13131014D01*
X11832428Y-13145300D01*
X11846714Y-13159586D01*
X11861000Y-13188157D01*
X11861000Y-13273871D01*
X11846714Y-13302443D01*
X11832428Y-13316728D01*
X11803857Y-13331014D01*
X11761000Y-13331014D01*
X12032428Y-13331014D02*
X12003857Y-13316728D01*
X11989571Y-13288157D01*
X11989571Y-13031014D01*
X12261000Y-13316728D02*
X12232428Y-13331014D01*
X12175286Y-13331014D01*
X12146714Y-13316728D01*
X12132428Y-13288157D01*
X12132428Y-13173871D01*
X12146714Y-13145300D01*
X12175286Y-13131014D01*
X12232428Y-13131014D01*
X12261000Y-13145300D01*
X12275286Y-13173871D01*
X12275286Y-13202443D01*
X12132428Y-13231014D01*
X12389571Y-13316728D02*
X12418143Y-13331014D01*
X12475286Y-13331014D01*
X12503857Y-13316728D01*
X12518143Y-13288157D01*
X12518143Y-13273871D01*
X12503857Y-13245300D01*
X12475286Y-13231014D01*
X12432428Y-13231014D01*
X12403857Y-13216728D01*
X12389571Y-13188157D01*
X12389571Y-13173871D01*
X12403857Y-13145300D01*
X12432428Y-13131014D01*
X12475286Y-13131014D01*
X12503857Y-13145300D01*
X12618143Y-13445300D02*
X12632428Y-13431014D01*
X12661000Y-13388157D01*
X12675286Y-13359586D01*
X12689571Y-13316728D01*
X12703857Y-13245300D01*
X12703857Y-13188157D01*
X12689571Y-13116728D01*
X12675286Y-13073871D01*
X12661000Y-13045300D01*
X12632428Y-13002443D01*
X12618143Y-12988157D01*
X5736000Y-13536300D02*
X5846000Y-13646300D01*
X5846000Y-13536300D02*
X5736000Y-13646300D01*
X5846000Y-13591300D02*
G75*
G03X5846000Y-13591300I-55000J0D01*
G01*
X6289571Y-13727014D02*
X6118143Y-13727014D01*
X6203857Y-13727014D02*
X6203857Y-13427014D01*
X6175286Y-13469871D01*
X6146714Y-13498443D01*
X6118143Y-13512728D01*
X6418143Y-13698443D02*
X6432428Y-13712728D01*
X6418143Y-13727014D01*
X6403857Y-13712728D01*
X6418143Y-13698443D01*
X6418143Y-13727014D01*
X6718143Y-13727014D02*
X6546714Y-13727014D01*
X6632428Y-13727014D02*
X6632428Y-13427014D01*
X6603857Y-13469871D01*
X6575286Y-13498443D01*
X6546714Y-13512728D01*
X6903857Y-13427014D02*
X6932428Y-13427014D01*
X6961000Y-13441300D01*
X6975286Y-13455586D01*
X6989571Y-13484157D01*
X7003857Y-13541300D01*
X7003857Y-13612728D01*
X6989571Y-13669871D01*
X6975286Y-13698443D01*
X6961000Y-13712728D01*
X6932428Y-13727014D01*
X6903857Y-13727014D01*
X6875286Y-13712728D01*
X6861000Y-13698443D01*
X6846714Y-13669871D01*
X6832428Y-13612728D01*
X6832428Y-13541300D01*
X6846714Y-13484157D01*
X6861000Y-13455586D01*
X6875286Y-13441300D01*
X6903857Y-13427014D01*
X7132428Y-13727014D02*
X7132428Y-13527014D01*
X7132428Y-13555586D02*
X7146714Y-13541300D01*
X7175286Y-13527014D01*
X7218143Y-13527014D01*
X7246714Y-13541300D01*
X7261000Y-13569871D01*
X7261000Y-13727014D01*
X7261000Y-13569871D02*
X7275286Y-13541300D01*
X7303857Y-13527014D01*
X7346714Y-13527014D01*
X7375286Y-13541300D01*
X7389571Y-13569871D01*
X7389571Y-13727014D01*
X7532428Y-13727014D02*
X7532428Y-13527014D01*
X7532428Y-13555586D02*
X7546714Y-13541300D01*
X7575286Y-13527014D01*
X7618143Y-13527014D01*
X7646714Y-13541300D01*
X7661000Y-13569871D01*
X7661000Y-13727014D01*
X7661000Y-13569871D02*
X7675286Y-13541300D01*
X7703857Y-13527014D01*
X7746714Y-13527014D01*
X7775286Y-13541300D01*
X7789571Y-13569871D01*
X7789571Y-13727014D01*
X8375286Y-13412728D02*
X8118143Y-13798443D01*
X8761000Y-13427014D02*
X8789571Y-13427014D01*
X8818143Y-13441300D01*
X8832429Y-13455586D01*
X8846714Y-13484157D01*
X8861000Y-13541300D01*
X8861000Y-13612728D01*
X8846714Y-13669871D01*
X8832429Y-13698443D01*
X8818143Y-13712728D01*
X8789571Y-13727014D01*
X8761000Y-13727014D01*
X8732429Y-13712728D01*
X8718143Y-13698443D01*
X8703857Y-13669871D01*
X8689571Y-13612728D01*
X8689571Y-13541300D01*
X8703857Y-13484157D01*
X8718143Y-13455586D01*
X8732429Y-13441300D01*
X8761000Y-13427014D01*
X8989571Y-13698443D02*
X9003857Y-13712728D01*
X8989571Y-13727014D01*
X8975286Y-13712728D01*
X8989571Y-13698443D01*
X8989571Y-13727014D01*
X9189571Y-13427014D02*
X9218143Y-13427014D01*
X9246714Y-13441300D01*
X9261000Y-13455586D01*
X9275286Y-13484157D01*
X9289571Y-13541300D01*
X9289571Y-13612728D01*
X9275286Y-13669871D01*
X9261000Y-13698443D01*
X9246714Y-13712728D01*
X9218143Y-13727014D01*
X9189571Y-13727014D01*
X9161000Y-13712728D01*
X9146714Y-13698443D01*
X9132429Y-13669871D01*
X9118143Y-13612728D01*
X9118143Y-13541300D01*
X9132429Y-13484157D01*
X9146714Y-13455586D01*
X9161000Y-13441300D01*
X9189571Y-13427014D01*
X9546714Y-13527014D02*
X9546714Y-13727014D01*
X9475286Y-13412728D02*
X9403857Y-13627014D01*
X9589571Y-13627014D01*
X9675286Y-13427014D02*
X9861000Y-13427014D01*
X9761000Y-13541300D01*
X9803857Y-13541300D01*
X9832429Y-13555586D01*
X9846714Y-13569871D01*
X9861000Y-13598443D01*
X9861000Y-13669871D01*
X9846714Y-13698443D01*
X9832429Y-13712728D01*
X9803857Y-13727014D01*
X9718143Y-13727014D01*
X9689571Y-13712728D01*
X9675286Y-13698443D01*
X9975286Y-13427014D02*
X9975286Y-13484157D01*
X10089571Y-13427014D02*
X10089571Y-13484157D01*
X10532429Y-13841300D02*
X10518143Y-13827014D01*
X10489571Y-13784157D01*
X10475286Y-13755586D01*
X10461000Y-13712728D01*
X10446714Y-13641300D01*
X10446714Y-13584157D01*
X10461000Y-13512728D01*
X10475286Y-13469871D01*
X10489571Y-13441300D01*
X10518143Y-13398443D01*
X10532429Y-13384157D01*
X10803857Y-13727014D02*
X10632429Y-13727014D01*
X10718143Y-13727014D02*
X10718143Y-13427014D01*
X10689571Y-13469871D01*
X10661000Y-13498443D01*
X10632429Y-13512728D01*
X10918143Y-13455586D02*
X10932429Y-13441300D01*
X10961000Y-13427014D01*
X11032429Y-13427014D01*
X11061000Y-13441300D01*
X11075286Y-13455586D01*
X11089571Y-13484157D01*
X11089571Y-13512728D01*
X11075286Y-13555586D01*
X10903857Y-13727014D01*
X11089571Y-13727014D01*
X11446714Y-13727014D02*
X11446714Y-13427014D01*
X11575286Y-13727014D02*
X11575286Y-13569871D01*
X11561000Y-13541300D01*
X11532428Y-13527014D01*
X11489571Y-13527014D01*
X11461000Y-13541300D01*
X11446714Y-13555586D01*
X11761000Y-13727014D02*
X11732428Y-13712728D01*
X11718143Y-13698443D01*
X11703857Y-13669871D01*
X11703857Y-13584157D01*
X11718143Y-13555586D01*
X11732428Y-13541300D01*
X11761000Y-13527014D01*
X11803857Y-13527014D01*
X11832428Y-13541300D01*
X11846714Y-13555586D01*
X11861000Y-13584157D01*
X11861000Y-13669871D01*
X11846714Y-13698443D01*
X11832428Y-13712728D01*
X11803857Y-13727014D01*
X11761000Y-13727014D01*
X12032428Y-13727014D02*
X12003857Y-13712728D01*
X11989571Y-13684157D01*
X11989571Y-13427014D01*
X12261000Y-13712728D02*
X12232428Y-13727014D01*
X12175286Y-13727014D01*
X12146714Y-13712728D01*
X12132428Y-13684157D01*
X12132428Y-13569871D01*
X12146714Y-13541300D01*
X12175286Y-13527014D01*
X12232428Y-13527014D01*
X12261000Y-13541300D01*
X12275286Y-13569871D01*
X12275286Y-13598443D01*
X12132428Y-13627014D01*
X12389571Y-13712728D02*
X12418143Y-13727014D01*
X12475286Y-13727014D01*
X12503857Y-13712728D01*
X12518143Y-13684157D01*
X12518143Y-13669871D01*
X12503857Y-13641300D01*
X12475286Y-13627014D01*
X12432428Y-13627014D01*
X12403857Y-13612728D01*
X12389571Y-13584157D01*
X12389571Y-13569871D01*
X12403857Y-13541300D01*
X12432428Y-13527014D01*
X12475286Y-13527014D01*
X12503857Y-13541300D01*
X12618143Y-13841300D02*
X12632428Y-13827014D01*
X12661000Y-13784157D01*
X12675286Y-13755586D01*
X12689571Y-13712728D01*
X12703857Y-13641300D01*
X12703857Y-13584157D01*
X12689571Y-13512728D01*
X12675286Y-13469871D01*
X12661000Y-13441300D01*
X12632428Y-13398443D01*
X12618143Y-13384157D01*
M02*
