%FSLAX45Y45*%
G04 Gerber Fmt 4.5, Leading zero omitted, Abs format (unit mm)*
G04 Created by KiCad (PCBNEW (5.1.5)-3) date 2020-09-09 22:03:04*
%MOMM*%
%LPD*%
G04 APERTURE LIST*
%ADD10C,0.200000*%
%ADD11C,0.300000*%
G04 APERTURE END LIST*
D10*
X8394700Y-9315450D02*
X8877300Y-9798050D01*
X8877300Y-9315450D02*
X8394700Y-9798050D01*
D11*
X6132428Y-13156634D02*
X6132428Y-12856634D01*
X6203857Y-12856634D01*
X6246714Y-12870920D01*
X6275286Y-12899491D01*
X6289571Y-12928063D01*
X6303857Y-12985206D01*
X6303857Y-13028063D01*
X6289571Y-13085206D01*
X6275286Y-13113777D01*
X6246714Y-13142348D01*
X6203857Y-13156634D01*
X6132428Y-13156634D01*
X6432428Y-13156634D02*
X6432428Y-12956634D01*
X6432428Y-13013777D02*
X6446714Y-12985206D01*
X6461000Y-12970920D01*
X6489571Y-12956634D01*
X6518143Y-12956634D01*
X6618143Y-13156634D02*
X6618143Y-12956634D01*
X6618143Y-12856634D02*
X6603857Y-12870920D01*
X6618143Y-12885206D01*
X6632428Y-12870920D01*
X6618143Y-12856634D01*
X6618143Y-12885206D01*
X6803857Y-13156634D02*
X6775286Y-13142348D01*
X6761000Y-13113777D01*
X6761000Y-12856634D01*
X6961000Y-13156634D02*
X6932428Y-13142348D01*
X6918143Y-13113777D01*
X6918143Y-12856634D01*
X7303857Y-13156634D02*
X7303857Y-12856634D01*
X7403857Y-13070920D01*
X7503857Y-12856634D01*
X7503857Y-13156634D01*
X7775286Y-13156634D02*
X7775286Y-12999491D01*
X7761000Y-12970920D01*
X7732428Y-12956634D01*
X7675286Y-12956634D01*
X7646714Y-12970920D01*
X7775286Y-13142348D02*
X7746714Y-13156634D01*
X7675286Y-13156634D01*
X7646714Y-13142348D01*
X7632428Y-13113777D01*
X7632428Y-13085206D01*
X7646714Y-13056634D01*
X7675286Y-13042348D01*
X7746714Y-13042348D01*
X7775286Y-13028063D01*
X7918143Y-12956634D02*
X7918143Y-13256634D01*
X7918143Y-12970920D02*
X7946714Y-12956634D01*
X8003857Y-12956634D01*
X8032428Y-12970920D01*
X8046714Y-12985206D01*
X8061000Y-13013777D01*
X8061000Y-13099491D01*
X8046714Y-13128063D01*
X8032428Y-13142348D01*
X8003857Y-13156634D01*
X7946714Y-13156634D01*
X7918143Y-13142348D01*
X8189571Y-13128063D02*
X8203857Y-13142348D01*
X8189571Y-13156634D01*
X8175286Y-13142348D01*
X8189571Y-13128063D01*
X8189571Y-13156634D01*
X8189571Y-12970920D02*
X8203857Y-12985206D01*
X8189571Y-12999491D01*
X8175286Y-12985206D01*
X8189571Y-12970920D01*
X8189571Y-12999491D01*
X5363400Y-13409620D02*
X5846000Y-13892220D01*
X5846000Y-13409620D02*
X5363400Y-13892220D01*
X6261000Y-13586634D02*
X6261000Y-13786634D01*
X6189571Y-13472348D02*
X6118143Y-13686634D01*
X6303857Y-13686634D01*
X6418143Y-13758063D02*
X6432428Y-13772348D01*
X6418143Y-13786634D01*
X6403857Y-13772348D01*
X6418143Y-13758063D01*
X6418143Y-13786634D01*
X6603857Y-13615206D02*
X6575286Y-13600920D01*
X6561000Y-13586634D01*
X6546714Y-13558063D01*
X6546714Y-13543777D01*
X6561000Y-13515206D01*
X6575286Y-13500920D01*
X6603857Y-13486634D01*
X6661000Y-13486634D01*
X6689571Y-13500920D01*
X6703857Y-13515206D01*
X6718143Y-13543777D01*
X6718143Y-13558063D01*
X6703857Y-13586634D01*
X6689571Y-13600920D01*
X6661000Y-13615206D01*
X6603857Y-13615206D01*
X6575286Y-13629491D01*
X6561000Y-13643777D01*
X6546714Y-13672348D01*
X6546714Y-13729491D01*
X6561000Y-13758063D01*
X6575286Y-13772348D01*
X6603857Y-13786634D01*
X6661000Y-13786634D01*
X6689571Y-13772348D01*
X6703857Y-13758063D01*
X6718143Y-13729491D01*
X6718143Y-13672348D01*
X6703857Y-13643777D01*
X6689571Y-13629491D01*
X6661000Y-13615206D01*
X6818143Y-13486634D02*
X7003857Y-13486634D01*
X6903857Y-13600920D01*
X6946714Y-13600920D01*
X6975286Y-13615206D01*
X6989571Y-13629491D01*
X7003857Y-13658063D01*
X7003857Y-13729491D01*
X6989571Y-13758063D01*
X6975286Y-13772348D01*
X6946714Y-13786634D01*
X6861000Y-13786634D01*
X6832428Y-13772348D01*
X6818143Y-13758063D01*
X7132428Y-13786634D02*
X7132428Y-13586634D01*
X7132428Y-13615206D02*
X7146714Y-13600920D01*
X7175286Y-13586634D01*
X7218143Y-13586634D01*
X7246714Y-13600920D01*
X7261000Y-13629491D01*
X7261000Y-13786634D01*
X7261000Y-13629491D02*
X7275286Y-13600920D01*
X7303857Y-13586634D01*
X7346714Y-13586634D01*
X7375286Y-13600920D01*
X7389571Y-13629491D01*
X7389571Y-13786634D01*
X7532428Y-13786634D02*
X7532428Y-13586634D01*
X7532428Y-13615206D02*
X7546714Y-13600920D01*
X7575286Y-13586634D01*
X7618143Y-13586634D01*
X7646714Y-13600920D01*
X7661000Y-13629491D01*
X7661000Y-13786634D01*
X7661000Y-13629491D02*
X7675286Y-13600920D01*
X7703857Y-13586634D01*
X7746714Y-13586634D01*
X7775286Y-13600920D01*
X7789571Y-13629491D01*
X7789571Y-13786634D01*
X8375286Y-13472348D02*
X8118143Y-13858063D01*
X8761000Y-13486634D02*
X8789571Y-13486634D01*
X8818143Y-13500920D01*
X8832429Y-13515206D01*
X8846714Y-13543777D01*
X8861000Y-13600920D01*
X8861000Y-13672348D01*
X8846714Y-13729491D01*
X8832429Y-13758063D01*
X8818143Y-13772348D01*
X8789571Y-13786634D01*
X8761000Y-13786634D01*
X8732429Y-13772348D01*
X8718143Y-13758063D01*
X8703857Y-13729491D01*
X8689571Y-13672348D01*
X8689571Y-13600920D01*
X8703857Y-13543777D01*
X8718143Y-13515206D01*
X8732429Y-13500920D01*
X8761000Y-13486634D01*
X8989571Y-13758063D02*
X9003857Y-13772348D01*
X8989571Y-13786634D01*
X8975286Y-13772348D01*
X8989571Y-13758063D01*
X8989571Y-13786634D01*
X9289571Y-13786634D02*
X9118143Y-13786634D01*
X9203857Y-13786634D02*
X9203857Y-13486634D01*
X9175286Y-13529491D01*
X9146714Y-13558063D01*
X9118143Y-13572348D01*
X9432429Y-13786634D02*
X9489571Y-13786634D01*
X9518143Y-13772348D01*
X9532429Y-13758063D01*
X9561000Y-13715206D01*
X9575286Y-13658063D01*
X9575286Y-13543777D01*
X9561000Y-13515206D01*
X9546714Y-13500920D01*
X9518143Y-13486634D01*
X9461000Y-13486634D01*
X9432429Y-13500920D01*
X9418143Y-13515206D01*
X9403857Y-13543777D01*
X9403857Y-13615206D01*
X9418143Y-13643777D01*
X9432429Y-13658063D01*
X9461000Y-13672348D01*
X9518143Y-13672348D01*
X9546714Y-13658063D01*
X9561000Y-13643777D01*
X9575286Y-13615206D01*
X9761000Y-13486634D02*
X9789571Y-13486634D01*
X9818143Y-13500920D01*
X9832429Y-13515206D01*
X9846714Y-13543777D01*
X9861000Y-13600920D01*
X9861000Y-13672348D01*
X9846714Y-13729491D01*
X9832429Y-13758063D01*
X9818143Y-13772348D01*
X9789571Y-13786634D01*
X9761000Y-13786634D01*
X9732429Y-13772348D01*
X9718143Y-13758063D01*
X9703857Y-13729491D01*
X9689571Y-13672348D01*
X9689571Y-13600920D01*
X9703857Y-13543777D01*
X9718143Y-13515206D01*
X9732429Y-13500920D01*
X9761000Y-13486634D01*
X9975286Y-13486634D02*
X9975286Y-13543777D01*
X10089571Y-13486634D02*
X10089571Y-13543777D01*
X10532429Y-13900920D02*
X10518143Y-13886634D01*
X10489571Y-13843777D01*
X10475286Y-13815206D01*
X10461000Y-13772348D01*
X10446714Y-13700920D01*
X10446714Y-13643777D01*
X10461000Y-13572348D01*
X10475286Y-13529491D01*
X10489571Y-13500920D01*
X10518143Y-13458063D01*
X10532429Y-13443777D01*
X10803857Y-13786634D02*
X10632429Y-13786634D01*
X10718143Y-13786634D02*
X10718143Y-13486634D01*
X10689571Y-13529491D01*
X10661000Y-13558063D01*
X10632429Y-13572348D01*
X11161000Y-13786634D02*
X11161000Y-13486634D01*
X11289571Y-13786634D02*
X11289571Y-13629491D01*
X11275286Y-13600920D01*
X11246714Y-13586634D01*
X11203857Y-13586634D01*
X11175286Y-13600920D01*
X11161000Y-13615206D01*
X11475286Y-13786634D02*
X11446714Y-13772348D01*
X11432428Y-13758063D01*
X11418143Y-13729491D01*
X11418143Y-13643777D01*
X11432428Y-13615206D01*
X11446714Y-13600920D01*
X11475286Y-13586634D01*
X11518143Y-13586634D01*
X11546714Y-13600920D01*
X11561000Y-13615206D01*
X11575286Y-13643777D01*
X11575286Y-13729491D01*
X11561000Y-13758063D01*
X11546714Y-13772348D01*
X11518143Y-13786634D01*
X11475286Y-13786634D01*
X11746714Y-13786634D02*
X11718143Y-13772348D01*
X11703857Y-13743777D01*
X11703857Y-13486634D01*
X11975286Y-13772348D02*
X11946714Y-13786634D01*
X11889571Y-13786634D01*
X11861000Y-13772348D01*
X11846714Y-13743777D01*
X11846714Y-13629491D01*
X11861000Y-13600920D01*
X11889571Y-13586634D01*
X11946714Y-13586634D01*
X11975286Y-13600920D01*
X11989571Y-13629491D01*
X11989571Y-13658063D01*
X11846714Y-13686634D01*
X12089571Y-13900920D02*
X12103857Y-13886634D01*
X12132428Y-13843777D01*
X12146714Y-13815206D01*
X12161000Y-13772348D01*
X12175286Y-13700920D01*
X12175286Y-13643777D01*
X12161000Y-13572348D01*
X12146714Y-13529491D01*
X12132428Y-13500920D01*
X12103857Y-13458063D01*
X12089571Y-13443777D01*
X12632428Y-13900920D02*
X12618143Y-13886634D01*
X12589571Y-13843777D01*
X12575286Y-13815206D01*
X12561000Y-13772348D01*
X12546714Y-13700920D01*
X12546714Y-13643777D01*
X12561000Y-13572348D01*
X12575286Y-13529491D01*
X12589571Y-13500920D01*
X12618143Y-13458063D01*
X12632428Y-13443777D01*
X12746714Y-13586634D02*
X12746714Y-13786634D01*
X12746714Y-13615206D02*
X12761000Y-13600920D01*
X12789571Y-13586634D01*
X12832428Y-13586634D01*
X12861000Y-13600920D01*
X12875286Y-13629491D01*
X12875286Y-13786634D01*
X13061000Y-13786634D02*
X13032428Y-13772348D01*
X13018143Y-13758063D01*
X13003857Y-13729491D01*
X13003857Y-13643777D01*
X13018143Y-13615206D01*
X13032428Y-13600920D01*
X13061000Y-13586634D01*
X13103857Y-13586634D01*
X13132428Y-13600920D01*
X13146714Y-13615206D01*
X13161000Y-13643777D01*
X13161000Y-13729491D01*
X13146714Y-13758063D01*
X13132428Y-13772348D01*
X13103857Y-13786634D01*
X13061000Y-13786634D01*
X13246714Y-13586634D02*
X13361000Y-13586634D01*
X13289571Y-13486634D02*
X13289571Y-13743777D01*
X13303857Y-13772348D01*
X13332428Y-13786634D01*
X13361000Y-13786634D01*
X13689571Y-13586634D02*
X13689571Y-13886634D01*
X13689571Y-13600920D02*
X13718143Y-13586634D01*
X13775286Y-13586634D01*
X13803857Y-13600920D01*
X13818143Y-13615206D01*
X13832428Y-13643777D01*
X13832428Y-13729491D01*
X13818143Y-13758063D01*
X13803857Y-13772348D01*
X13775286Y-13786634D01*
X13718143Y-13786634D01*
X13689571Y-13772348D01*
X14003857Y-13786634D02*
X13975286Y-13772348D01*
X13961000Y-13743777D01*
X13961000Y-13486634D01*
X14246714Y-13786634D02*
X14246714Y-13629491D01*
X14232428Y-13600920D01*
X14203857Y-13586634D01*
X14146714Y-13586634D01*
X14118143Y-13600920D01*
X14246714Y-13772348D02*
X14218143Y-13786634D01*
X14146714Y-13786634D01*
X14118143Y-13772348D01*
X14103857Y-13743777D01*
X14103857Y-13715206D01*
X14118143Y-13686634D01*
X14146714Y-13672348D01*
X14218143Y-13672348D01*
X14246714Y-13658063D01*
X14346714Y-13586634D02*
X14461000Y-13586634D01*
X14389571Y-13486634D02*
X14389571Y-13743777D01*
X14403857Y-13772348D01*
X14432428Y-13786634D01*
X14461000Y-13786634D01*
X14675286Y-13772348D02*
X14646714Y-13786634D01*
X14589571Y-13786634D01*
X14561000Y-13772348D01*
X14546714Y-13743777D01*
X14546714Y-13629491D01*
X14561000Y-13600920D01*
X14589571Y-13586634D01*
X14646714Y-13586634D01*
X14675286Y-13600920D01*
X14689571Y-13629491D01*
X14689571Y-13658063D01*
X14546714Y-13686634D01*
X14946714Y-13786634D02*
X14946714Y-13486634D01*
X14946714Y-13772348D02*
X14918143Y-13786634D01*
X14861000Y-13786634D01*
X14832428Y-13772348D01*
X14818143Y-13758063D01*
X14803857Y-13729491D01*
X14803857Y-13643777D01*
X14818143Y-13615206D01*
X14832428Y-13600920D01*
X14861000Y-13586634D01*
X14918143Y-13586634D01*
X14946714Y-13600920D01*
X15061000Y-13900920D02*
X15075286Y-13886634D01*
X15103857Y-13843777D01*
X15118143Y-13815206D01*
X15132428Y-13772348D01*
X15146714Y-13700920D01*
X15146714Y-13643777D01*
X15132428Y-13572348D01*
X15118143Y-13529491D01*
X15103857Y-13500920D01*
X15075286Y-13458063D01*
X15061000Y-13443777D01*
M02*
