G04 #@! TF.GenerationSoftware,KiCad,Pcbnew,(5.1.5)-3*
G04 #@! TF.CreationDate,2020-07-18T04:54:50-04:00*
G04 #@! TF.ProjectId,MONster64 - NetModule,4d4f4e73-7465-4723-9634-202d204e6574,rev?*
G04 #@! TF.SameCoordinates,Original*
G04 #@! TF.FileFunction,Copper,L5,Inr*
G04 #@! TF.FilePolarity,Positive*
%FSLAX46Y46*%
G04 Gerber Fmt 4.6, Leading zero omitted, Abs format (unit mm)*
G04 Created by KiCad (PCBNEW (5.1.5)-3) date 2020-07-18 04:54:50*
%MOMM*%
%LPD*%
G04 APERTURE LIST*
%ADD10R,1.900000X1.900000*%
%ADD11C,1.900000*%
%ADD12C,1.890000*%
%ADD13C,2.600000*%
%ADD14R,1.700000X1.700000*%
%ADD15O,1.700000X1.700000*%
%ADD16C,0.600000*%
%ADD17C,0.350000*%
%ADD18C,8.100000*%
%ADD19C,0.800000*%
%ADD20C,0.295000*%
G04 APERTURE END LIST*
D10*
X147955000Y-98679000D03*
D11*
X150495000Y-97409000D03*
X147955000Y-96139000D03*
X150495000Y-94869000D03*
X147955000Y-93599000D03*
X150495000Y-92329000D03*
X147955000Y-91059000D03*
X150495000Y-89789000D03*
D12*
X138235000Y-87909000D03*
X136715000Y-90449000D03*
X138235000Y-98019000D03*
X136715000Y-100559000D03*
D13*
X144665000Y-102009000D03*
X144665000Y-86459000D03*
D14*
X137160000Y-82740500D03*
D15*
X139700000Y-82740500D03*
X154940000Y-82740500D03*
D14*
X152400000Y-82740500D03*
X137160000Y-105727500D03*
D15*
X137160000Y-108267500D03*
X139700000Y-105727500D03*
X139700000Y-108267500D03*
X142240000Y-105727500D03*
X142240000Y-108267500D03*
X144780000Y-105727500D03*
X144780000Y-108267500D03*
X147320000Y-105727500D03*
X147320000Y-108267500D03*
X149860000Y-105727500D03*
X149860000Y-108267500D03*
X152400000Y-105727500D03*
X152400000Y-108267500D03*
X154940000Y-105727500D03*
X154940000Y-108267500D03*
X157480000Y-105727500D03*
X157480000Y-108267500D03*
X160020000Y-105727500D03*
X160020000Y-108267500D03*
D16*
X139192000Y-95123000D03*
D17*
X173736000Y-105854500D03*
X178498500Y-102743000D03*
D18*
X162496500Y-97282000D03*
D19*
X172593000Y-96139000D03*
X174625000Y-98171000D03*
X172593000Y-98171000D03*
X174625000Y-96139000D03*
D16*
X154940000Y-91884500D03*
X154940000Y-85979000D03*
X154822000Y-97844500D03*
D19*
X144136000Y-95640000D03*
D16*
X174117000Y-101092000D03*
D17*
X170065000Y-97905000D03*
D19*
X177936000Y-97146000D03*
X177927000Y-91249500D03*
X152772000Y-85026500D03*
X170878500Y-87122000D03*
D17*
X166814500Y-101790500D03*
X155321000Y-101917500D03*
X155321000Y-100774500D03*
X166751000Y-100838000D03*
X148429999Y-101679501D03*
X158686500Y-102298500D03*
D16*
X155384500Y-94869000D03*
D17*
X166370000Y-94869000D03*
X162877500Y-103441500D03*
X176339500Y-100901500D03*
X166687500Y-102806500D03*
X168148000Y-102425500D03*
D16*
X166687500Y-99504500D03*
X170053000Y-100076000D03*
D17*
X156273500Y-88963500D03*
X178054000Y-100901500D03*
X176911000Y-100901500D03*
X168084500Y-104076500D03*
X166814500Y-104076500D03*
X153670000Y-105219500D03*
X177482500Y-100901500D03*
X162242500Y-88582500D03*
X173672500Y-89471500D03*
X162320501Y-89295501D03*
X161798000Y-90170000D03*
X178625500Y-100901500D03*
X172593000Y-107251500D03*
X165989000Y-90614500D03*
X166751000Y-90932000D03*
X159194500Y-91694000D03*
X167322500Y-91694000D03*
D16*
X167449500Y-93789500D03*
X167449500Y-108267500D03*
D20*
X144780000Y-105727500D02*
X145986500Y-104521000D01*
X147826452Y-104521000D02*
X148321461Y-104025990D01*
X145986500Y-104521000D02*
X147826452Y-104521000D01*
X148321461Y-104025990D02*
X154368500Y-104025990D01*
X155143490Y-104025990D02*
X157480000Y-101689480D01*
X154368500Y-104025990D02*
X155143490Y-104025990D01*
X157480000Y-101689480D02*
X157480000Y-94805500D01*
X157480000Y-94805500D02*
X158559500Y-93726000D01*
X158559500Y-93726000D02*
X160210500Y-92075000D01*
X160210500Y-92075000D02*
X163068000Y-92075000D01*
X163068000Y-92075000D02*
X163449000Y-91694000D01*
X163449000Y-91694000D02*
X163449000Y-89090500D01*
X163449000Y-89090500D02*
X162941000Y-88582500D01*
X162941000Y-88582500D02*
X162242500Y-88582500D01*
X162242500Y-88582500D02*
X162242500Y-88582500D01*
X166009301Y-106925001D02*
X173672500Y-99261802D01*
X142240000Y-108267500D02*
X143582499Y-106925001D01*
X143582499Y-106925001D02*
X166009301Y-106925001D01*
X173672500Y-99261802D02*
X173672500Y-89471500D01*
X143857697Y-104877501D02*
X144214198Y-104521000D01*
X142240000Y-105727500D02*
X143089999Y-104877501D01*
X143089999Y-104877501D02*
X143857697Y-104877501D01*
X145286452Y-104521000D02*
X145781460Y-104025992D01*
X144214198Y-104521000D02*
X145286452Y-104521000D01*
X145781460Y-104025992D02*
X147243508Y-104025992D01*
X147256500Y-104013000D02*
X147634402Y-104013000D01*
X147243508Y-104025992D02*
X147256500Y-104013000D01*
X147634402Y-104013000D02*
X148116422Y-103530980D01*
X148116422Y-103530980D02*
X154163461Y-103530980D01*
X154163461Y-103530980D02*
X154938452Y-103530980D01*
X156984990Y-101484442D02*
X156984990Y-93522510D01*
X154938452Y-103530980D02*
X156984990Y-101484442D01*
X156984990Y-93522510D02*
X157480000Y-93027500D01*
X157480000Y-93027500D02*
X158305500Y-92202000D01*
X158305500Y-92202000D02*
X158305500Y-91503500D01*
X158305500Y-91503500D02*
X158940500Y-90868500D01*
X158940500Y-90868500D02*
X162052000Y-90868500D01*
X162320501Y-90599999D02*
X162320501Y-89295501D01*
X162052000Y-90868500D02*
X162320501Y-90599999D01*
X162320501Y-89295501D02*
X162320501Y-89295501D01*
X139700000Y-105727500D02*
X140906500Y-104521000D01*
X142746451Y-104521000D02*
X142884960Y-104382491D01*
X140906500Y-104521000D02*
X142746451Y-104521000D01*
X143652659Y-104382491D02*
X144009159Y-104025990D01*
X142884960Y-104382491D02*
X143652659Y-104382491D01*
X145081414Y-104025990D02*
X145589414Y-103517990D01*
X144009159Y-104025990D02*
X145081414Y-104025990D01*
X145589414Y-103517990D02*
X147051461Y-103517990D01*
X147429364Y-103517990D02*
X147911383Y-103035970D01*
X147051461Y-103517990D02*
X147429364Y-103517990D01*
X147911383Y-103035970D02*
X153543000Y-103035970D01*
X153543000Y-103035970D02*
X153631030Y-103035970D01*
X153631030Y-103035970D02*
X154622500Y-102044500D01*
X154622500Y-102044500D02*
X154622500Y-100647500D01*
X156489980Y-98780020D02*
X156489980Y-92303020D01*
X154622500Y-100647500D02*
X156489980Y-98780020D01*
X156489980Y-92303020D02*
X156781500Y-92011500D01*
X156781500Y-92011500D02*
X158369000Y-90424000D01*
X158369000Y-90424000D02*
X158623000Y-90170000D01*
X158623000Y-90170000D02*
X161798000Y-90170000D01*
X161798000Y-90170000D02*
X161798000Y-90170000D01*
X140897501Y-109465001D02*
X170379499Y-109465001D01*
X139700000Y-108267500D02*
X140897501Y-109465001D01*
X170379499Y-109465001D02*
X172593000Y-107251500D01*
X172593000Y-107251500D02*
X172593000Y-107251500D01*
X146657499Y-91594501D02*
X146657499Y-90436199D01*
X146657499Y-90436199D02*
X149273198Y-87820500D01*
X137160000Y-108267500D02*
X138357501Y-107069999D01*
X138357501Y-99894499D02*
X146657499Y-91594501D01*
X138357501Y-107069999D02*
X138357501Y-99894499D01*
X149273198Y-87820500D02*
X163195000Y-87820500D01*
X163195000Y-87820500D02*
X165989000Y-90614500D01*
X165989000Y-90614500D02*
X165989000Y-90614500D01*
X147320000Y-105727500D02*
X148526500Y-104521000D01*
X148526500Y-104521000D02*
X154813000Y-104521000D01*
X167335001Y-99815301D02*
X167335001Y-94633303D01*
X167335001Y-94633303D02*
X166751000Y-94049302D01*
X166998301Y-100152001D02*
X167335001Y-99815301D01*
X166663697Y-100152001D02*
X166998301Y-100152001D01*
X154821999Y-104529999D02*
X163301699Y-104529999D01*
X154813000Y-104521000D02*
X154821999Y-104529999D01*
X166228499Y-100587199D02*
X166663697Y-100152001D01*
X163301699Y-104529999D02*
X166228499Y-101603199D01*
X166228499Y-101603199D02*
X166228499Y-100587199D01*
X166751000Y-94049302D02*
X166751000Y-90932000D01*
X166751000Y-90932000D02*
X166751000Y-90932000D01*
M02*
