G04 #@! TF.GenerationSoftware,KiCad,Pcbnew,(5.1.5)-3*
G04 #@! TF.CreationDate,2020-07-18T04:54:50-04:00*
G04 #@! TF.ProjectId,MONster64 - NetModule,4d4f4e73-7465-4723-9634-202d204e6574,rev?*
G04 #@! TF.SameCoordinates,Original*
G04 #@! TF.FileFunction,Copper,L6,Bot*
G04 #@! TF.FilePolarity,Positive*
%FSLAX46Y46*%
G04 Gerber Fmt 4.6, Leading zero omitted, Abs format (unit mm)*
G04 Created by KiCad (PCBNEW (5.1.5)-3) date 2020-07-18 04:54:50*
%MOMM*%
%LPD*%
G04 APERTURE LIST*
%ADD10C,0.100000*%
%ADD11R,1.900000X1.900000*%
%ADD12C,1.900000*%
%ADD13C,1.890000*%
%ADD14C,2.600000*%
%ADD15R,1.700000X1.700000*%
%ADD16O,1.700000X1.700000*%
%ADD17C,0.600000*%
%ADD18C,0.350000*%
%ADD19C,8.100000*%
%ADD20C,0.800000*%
%ADD21C,1.500000*%
%ADD22C,0.380000*%
%ADD23C,0.239000*%
G04 APERTURE END LIST*
G04 #@! TA.AperFunction,SMDPad,CuDef*
D10*
G36*
X178285505Y-90550704D02*
G01*
X178309773Y-90554304D01*
X178333572Y-90560265D01*
X178356671Y-90568530D01*
X178378850Y-90579020D01*
X178399893Y-90591632D01*
X178419599Y-90606247D01*
X178437777Y-90622723D01*
X178454253Y-90640901D01*
X178468868Y-90660607D01*
X178481480Y-90681650D01*
X178491970Y-90703829D01*
X178500235Y-90726928D01*
X178506196Y-90750727D01*
X178509796Y-90774995D01*
X178511000Y-90799499D01*
X178511000Y-91699501D01*
X178509796Y-91724005D01*
X178506196Y-91748273D01*
X178500235Y-91772072D01*
X178491970Y-91795171D01*
X178481480Y-91817350D01*
X178468868Y-91838393D01*
X178454253Y-91858099D01*
X178437777Y-91876277D01*
X178419599Y-91892753D01*
X178399893Y-91907368D01*
X178378850Y-91919980D01*
X178356671Y-91930470D01*
X178333572Y-91938735D01*
X178309773Y-91944696D01*
X178285505Y-91948296D01*
X178261001Y-91949500D01*
X177610999Y-91949500D01*
X177586495Y-91948296D01*
X177562227Y-91944696D01*
X177538428Y-91938735D01*
X177515329Y-91930470D01*
X177493150Y-91919980D01*
X177472107Y-91907368D01*
X177452401Y-91892753D01*
X177434223Y-91876277D01*
X177417747Y-91858099D01*
X177403132Y-91838393D01*
X177390520Y-91817350D01*
X177380030Y-91795171D01*
X177371765Y-91772072D01*
X177365804Y-91748273D01*
X177362204Y-91724005D01*
X177361000Y-91699501D01*
X177361000Y-90799499D01*
X177362204Y-90774995D01*
X177365804Y-90750727D01*
X177371765Y-90726928D01*
X177380030Y-90703829D01*
X177390520Y-90681650D01*
X177403132Y-90660607D01*
X177417747Y-90640901D01*
X177434223Y-90622723D01*
X177452401Y-90606247D01*
X177472107Y-90591632D01*
X177493150Y-90579020D01*
X177515329Y-90568530D01*
X177538428Y-90560265D01*
X177562227Y-90554304D01*
X177586495Y-90550704D01*
X177610999Y-90549500D01*
X178261001Y-90549500D01*
X178285505Y-90550704D01*
G37*
G04 #@! TD.AperFunction*
G04 #@! TA.AperFunction,SMDPad,CuDef*
G36*
X176235505Y-90550704D02*
G01*
X176259773Y-90554304D01*
X176283572Y-90560265D01*
X176306671Y-90568530D01*
X176328850Y-90579020D01*
X176349893Y-90591632D01*
X176369599Y-90606247D01*
X176387777Y-90622723D01*
X176404253Y-90640901D01*
X176418868Y-90660607D01*
X176431480Y-90681650D01*
X176441970Y-90703829D01*
X176450235Y-90726928D01*
X176456196Y-90750727D01*
X176459796Y-90774995D01*
X176461000Y-90799499D01*
X176461000Y-91699501D01*
X176459796Y-91724005D01*
X176456196Y-91748273D01*
X176450235Y-91772072D01*
X176441970Y-91795171D01*
X176431480Y-91817350D01*
X176418868Y-91838393D01*
X176404253Y-91858099D01*
X176387777Y-91876277D01*
X176369599Y-91892753D01*
X176349893Y-91907368D01*
X176328850Y-91919980D01*
X176306671Y-91930470D01*
X176283572Y-91938735D01*
X176259773Y-91944696D01*
X176235505Y-91948296D01*
X176211001Y-91949500D01*
X175560999Y-91949500D01*
X175536495Y-91948296D01*
X175512227Y-91944696D01*
X175488428Y-91938735D01*
X175465329Y-91930470D01*
X175443150Y-91919980D01*
X175422107Y-91907368D01*
X175402401Y-91892753D01*
X175384223Y-91876277D01*
X175367747Y-91858099D01*
X175353132Y-91838393D01*
X175340520Y-91817350D01*
X175330030Y-91795171D01*
X175321765Y-91772072D01*
X175315804Y-91748273D01*
X175312204Y-91724005D01*
X175311000Y-91699501D01*
X175311000Y-90799499D01*
X175312204Y-90774995D01*
X175315804Y-90750727D01*
X175321765Y-90726928D01*
X175330030Y-90703829D01*
X175340520Y-90681650D01*
X175353132Y-90660607D01*
X175367747Y-90640901D01*
X175384223Y-90622723D01*
X175402401Y-90606247D01*
X175422107Y-90591632D01*
X175443150Y-90579020D01*
X175465329Y-90568530D01*
X175488428Y-90560265D01*
X175512227Y-90554304D01*
X175536495Y-90550704D01*
X175560999Y-90549500D01*
X176211001Y-90549500D01*
X176235505Y-90550704D01*
G37*
G04 #@! TD.AperFunction*
G04 #@! TA.AperFunction,SMDPad,CuDef*
G36*
X176235505Y-92836704D02*
G01*
X176259773Y-92840304D01*
X176283572Y-92846265D01*
X176306671Y-92854530D01*
X176328850Y-92865020D01*
X176349893Y-92877632D01*
X176369599Y-92892247D01*
X176387777Y-92908723D01*
X176404253Y-92926901D01*
X176418868Y-92946607D01*
X176431480Y-92967650D01*
X176441970Y-92989829D01*
X176450235Y-93012928D01*
X176456196Y-93036727D01*
X176459796Y-93060995D01*
X176461000Y-93085499D01*
X176461000Y-93985501D01*
X176459796Y-94010005D01*
X176456196Y-94034273D01*
X176450235Y-94058072D01*
X176441970Y-94081171D01*
X176431480Y-94103350D01*
X176418868Y-94124393D01*
X176404253Y-94144099D01*
X176387777Y-94162277D01*
X176369599Y-94178753D01*
X176349893Y-94193368D01*
X176328850Y-94205980D01*
X176306671Y-94216470D01*
X176283572Y-94224735D01*
X176259773Y-94230696D01*
X176235505Y-94234296D01*
X176211001Y-94235500D01*
X175560999Y-94235500D01*
X175536495Y-94234296D01*
X175512227Y-94230696D01*
X175488428Y-94224735D01*
X175465329Y-94216470D01*
X175443150Y-94205980D01*
X175422107Y-94193368D01*
X175402401Y-94178753D01*
X175384223Y-94162277D01*
X175367747Y-94144099D01*
X175353132Y-94124393D01*
X175340520Y-94103350D01*
X175330030Y-94081171D01*
X175321765Y-94058072D01*
X175315804Y-94034273D01*
X175312204Y-94010005D01*
X175311000Y-93985501D01*
X175311000Y-93085499D01*
X175312204Y-93060995D01*
X175315804Y-93036727D01*
X175321765Y-93012928D01*
X175330030Y-92989829D01*
X175340520Y-92967650D01*
X175353132Y-92946607D01*
X175367747Y-92926901D01*
X175384223Y-92908723D01*
X175402401Y-92892247D01*
X175422107Y-92877632D01*
X175443150Y-92865020D01*
X175465329Y-92854530D01*
X175488428Y-92846265D01*
X175512227Y-92840304D01*
X175536495Y-92836704D01*
X175560999Y-92835500D01*
X176211001Y-92835500D01*
X176235505Y-92836704D01*
G37*
G04 #@! TD.AperFunction*
G04 #@! TA.AperFunction,SMDPad,CuDef*
G36*
X178285505Y-92836704D02*
G01*
X178309773Y-92840304D01*
X178333572Y-92846265D01*
X178356671Y-92854530D01*
X178378850Y-92865020D01*
X178399893Y-92877632D01*
X178419599Y-92892247D01*
X178437777Y-92908723D01*
X178454253Y-92926901D01*
X178468868Y-92946607D01*
X178481480Y-92967650D01*
X178491970Y-92989829D01*
X178500235Y-93012928D01*
X178506196Y-93036727D01*
X178509796Y-93060995D01*
X178511000Y-93085499D01*
X178511000Y-93985501D01*
X178509796Y-94010005D01*
X178506196Y-94034273D01*
X178500235Y-94058072D01*
X178491970Y-94081171D01*
X178481480Y-94103350D01*
X178468868Y-94124393D01*
X178454253Y-94144099D01*
X178437777Y-94162277D01*
X178419599Y-94178753D01*
X178399893Y-94193368D01*
X178378850Y-94205980D01*
X178356671Y-94216470D01*
X178333572Y-94224735D01*
X178309773Y-94230696D01*
X178285505Y-94234296D01*
X178261001Y-94235500D01*
X177610999Y-94235500D01*
X177586495Y-94234296D01*
X177562227Y-94230696D01*
X177538428Y-94224735D01*
X177515329Y-94216470D01*
X177493150Y-94205980D01*
X177472107Y-94193368D01*
X177452401Y-94178753D01*
X177434223Y-94162277D01*
X177417747Y-94144099D01*
X177403132Y-94124393D01*
X177390520Y-94103350D01*
X177380030Y-94081171D01*
X177371765Y-94058072D01*
X177365804Y-94034273D01*
X177362204Y-94010005D01*
X177361000Y-93985501D01*
X177361000Y-93085499D01*
X177362204Y-93060995D01*
X177365804Y-93036727D01*
X177371765Y-93012928D01*
X177380030Y-92989829D01*
X177390520Y-92967650D01*
X177403132Y-92946607D01*
X177417747Y-92926901D01*
X177434223Y-92908723D01*
X177452401Y-92892247D01*
X177472107Y-92877632D01*
X177493150Y-92865020D01*
X177515329Y-92854530D01*
X177538428Y-92846265D01*
X177562227Y-92840304D01*
X177586495Y-92836704D01*
X177610999Y-92835500D01*
X178261001Y-92835500D01*
X178285505Y-92836704D01*
G37*
G04 #@! TD.AperFunction*
G04 #@! TA.AperFunction,SMDPad,CuDef*
G36*
X178285505Y-95122704D02*
G01*
X178309773Y-95126304D01*
X178333572Y-95132265D01*
X178356671Y-95140530D01*
X178378850Y-95151020D01*
X178399893Y-95163632D01*
X178419599Y-95178247D01*
X178437777Y-95194723D01*
X178454253Y-95212901D01*
X178468868Y-95232607D01*
X178481480Y-95253650D01*
X178491970Y-95275829D01*
X178500235Y-95298928D01*
X178506196Y-95322727D01*
X178509796Y-95346995D01*
X178511000Y-95371499D01*
X178511000Y-96271501D01*
X178509796Y-96296005D01*
X178506196Y-96320273D01*
X178500235Y-96344072D01*
X178491970Y-96367171D01*
X178481480Y-96389350D01*
X178468868Y-96410393D01*
X178454253Y-96430099D01*
X178437777Y-96448277D01*
X178419599Y-96464753D01*
X178399893Y-96479368D01*
X178378850Y-96491980D01*
X178356671Y-96502470D01*
X178333572Y-96510735D01*
X178309773Y-96516696D01*
X178285505Y-96520296D01*
X178261001Y-96521500D01*
X177610999Y-96521500D01*
X177586495Y-96520296D01*
X177562227Y-96516696D01*
X177538428Y-96510735D01*
X177515329Y-96502470D01*
X177493150Y-96491980D01*
X177472107Y-96479368D01*
X177452401Y-96464753D01*
X177434223Y-96448277D01*
X177417747Y-96430099D01*
X177403132Y-96410393D01*
X177390520Y-96389350D01*
X177380030Y-96367171D01*
X177371765Y-96344072D01*
X177365804Y-96320273D01*
X177362204Y-96296005D01*
X177361000Y-96271501D01*
X177361000Y-95371499D01*
X177362204Y-95346995D01*
X177365804Y-95322727D01*
X177371765Y-95298928D01*
X177380030Y-95275829D01*
X177390520Y-95253650D01*
X177403132Y-95232607D01*
X177417747Y-95212901D01*
X177434223Y-95194723D01*
X177452401Y-95178247D01*
X177472107Y-95163632D01*
X177493150Y-95151020D01*
X177515329Y-95140530D01*
X177538428Y-95132265D01*
X177562227Y-95126304D01*
X177586495Y-95122704D01*
X177610999Y-95121500D01*
X178261001Y-95121500D01*
X178285505Y-95122704D01*
G37*
G04 #@! TD.AperFunction*
G04 #@! TA.AperFunction,SMDPad,CuDef*
G36*
X176235505Y-95122704D02*
G01*
X176259773Y-95126304D01*
X176283572Y-95132265D01*
X176306671Y-95140530D01*
X176328850Y-95151020D01*
X176349893Y-95163632D01*
X176369599Y-95178247D01*
X176387777Y-95194723D01*
X176404253Y-95212901D01*
X176418868Y-95232607D01*
X176431480Y-95253650D01*
X176441970Y-95275829D01*
X176450235Y-95298928D01*
X176456196Y-95322727D01*
X176459796Y-95346995D01*
X176461000Y-95371499D01*
X176461000Y-96271501D01*
X176459796Y-96296005D01*
X176456196Y-96320273D01*
X176450235Y-96344072D01*
X176441970Y-96367171D01*
X176431480Y-96389350D01*
X176418868Y-96410393D01*
X176404253Y-96430099D01*
X176387777Y-96448277D01*
X176369599Y-96464753D01*
X176349893Y-96479368D01*
X176328850Y-96491980D01*
X176306671Y-96502470D01*
X176283572Y-96510735D01*
X176259773Y-96516696D01*
X176235505Y-96520296D01*
X176211001Y-96521500D01*
X175560999Y-96521500D01*
X175536495Y-96520296D01*
X175512227Y-96516696D01*
X175488428Y-96510735D01*
X175465329Y-96502470D01*
X175443150Y-96491980D01*
X175422107Y-96479368D01*
X175402401Y-96464753D01*
X175384223Y-96448277D01*
X175367747Y-96430099D01*
X175353132Y-96410393D01*
X175340520Y-96389350D01*
X175330030Y-96367171D01*
X175321765Y-96344072D01*
X175315804Y-96320273D01*
X175312204Y-96296005D01*
X175311000Y-96271501D01*
X175311000Y-95371499D01*
X175312204Y-95346995D01*
X175315804Y-95322727D01*
X175321765Y-95298928D01*
X175330030Y-95275829D01*
X175340520Y-95253650D01*
X175353132Y-95232607D01*
X175367747Y-95212901D01*
X175384223Y-95194723D01*
X175402401Y-95178247D01*
X175422107Y-95163632D01*
X175443150Y-95151020D01*
X175465329Y-95140530D01*
X175488428Y-95132265D01*
X175512227Y-95126304D01*
X175536495Y-95122704D01*
X175560999Y-95121500D01*
X176211001Y-95121500D01*
X176235505Y-95122704D01*
G37*
G04 #@! TD.AperFunction*
G04 #@! TA.AperFunction,SMDPad,CuDef*
G36*
X178285505Y-97408704D02*
G01*
X178309773Y-97412304D01*
X178333572Y-97418265D01*
X178356671Y-97426530D01*
X178378850Y-97437020D01*
X178399893Y-97449632D01*
X178419599Y-97464247D01*
X178437777Y-97480723D01*
X178454253Y-97498901D01*
X178468868Y-97518607D01*
X178481480Y-97539650D01*
X178491970Y-97561829D01*
X178500235Y-97584928D01*
X178506196Y-97608727D01*
X178509796Y-97632995D01*
X178511000Y-97657499D01*
X178511000Y-98557501D01*
X178509796Y-98582005D01*
X178506196Y-98606273D01*
X178500235Y-98630072D01*
X178491970Y-98653171D01*
X178481480Y-98675350D01*
X178468868Y-98696393D01*
X178454253Y-98716099D01*
X178437777Y-98734277D01*
X178419599Y-98750753D01*
X178399893Y-98765368D01*
X178378850Y-98777980D01*
X178356671Y-98788470D01*
X178333572Y-98796735D01*
X178309773Y-98802696D01*
X178285505Y-98806296D01*
X178261001Y-98807500D01*
X177610999Y-98807500D01*
X177586495Y-98806296D01*
X177562227Y-98802696D01*
X177538428Y-98796735D01*
X177515329Y-98788470D01*
X177493150Y-98777980D01*
X177472107Y-98765368D01*
X177452401Y-98750753D01*
X177434223Y-98734277D01*
X177417747Y-98716099D01*
X177403132Y-98696393D01*
X177390520Y-98675350D01*
X177380030Y-98653171D01*
X177371765Y-98630072D01*
X177365804Y-98606273D01*
X177362204Y-98582005D01*
X177361000Y-98557501D01*
X177361000Y-97657499D01*
X177362204Y-97632995D01*
X177365804Y-97608727D01*
X177371765Y-97584928D01*
X177380030Y-97561829D01*
X177390520Y-97539650D01*
X177403132Y-97518607D01*
X177417747Y-97498901D01*
X177434223Y-97480723D01*
X177452401Y-97464247D01*
X177472107Y-97449632D01*
X177493150Y-97437020D01*
X177515329Y-97426530D01*
X177538428Y-97418265D01*
X177562227Y-97412304D01*
X177586495Y-97408704D01*
X177610999Y-97407500D01*
X178261001Y-97407500D01*
X178285505Y-97408704D01*
G37*
G04 #@! TD.AperFunction*
G04 #@! TA.AperFunction,SMDPad,CuDef*
G36*
X176235505Y-97408704D02*
G01*
X176259773Y-97412304D01*
X176283572Y-97418265D01*
X176306671Y-97426530D01*
X176328850Y-97437020D01*
X176349893Y-97449632D01*
X176369599Y-97464247D01*
X176387777Y-97480723D01*
X176404253Y-97498901D01*
X176418868Y-97518607D01*
X176431480Y-97539650D01*
X176441970Y-97561829D01*
X176450235Y-97584928D01*
X176456196Y-97608727D01*
X176459796Y-97632995D01*
X176461000Y-97657499D01*
X176461000Y-98557501D01*
X176459796Y-98582005D01*
X176456196Y-98606273D01*
X176450235Y-98630072D01*
X176441970Y-98653171D01*
X176431480Y-98675350D01*
X176418868Y-98696393D01*
X176404253Y-98716099D01*
X176387777Y-98734277D01*
X176369599Y-98750753D01*
X176349893Y-98765368D01*
X176328850Y-98777980D01*
X176306671Y-98788470D01*
X176283572Y-98796735D01*
X176259773Y-98802696D01*
X176235505Y-98806296D01*
X176211001Y-98807500D01*
X175560999Y-98807500D01*
X175536495Y-98806296D01*
X175512227Y-98802696D01*
X175488428Y-98796735D01*
X175465329Y-98788470D01*
X175443150Y-98777980D01*
X175422107Y-98765368D01*
X175402401Y-98750753D01*
X175384223Y-98734277D01*
X175367747Y-98716099D01*
X175353132Y-98696393D01*
X175340520Y-98675350D01*
X175330030Y-98653171D01*
X175321765Y-98630072D01*
X175315804Y-98606273D01*
X175312204Y-98582005D01*
X175311000Y-98557501D01*
X175311000Y-97657499D01*
X175312204Y-97632995D01*
X175315804Y-97608727D01*
X175321765Y-97584928D01*
X175330030Y-97561829D01*
X175340520Y-97539650D01*
X175353132Y-97518607D01*
X175367747Y-97498901D01*
X175384223Y-97480723D01*
X175402401Y-97464247D01*
X175422107Y-97449632D01*
X175443150Y-97437020D01*
X175465329Y-97426530D01*
X175488428Y-97418265D01*
X175512227Y-97412304D01*
X175536495Y-97408704D01*
X175560999Y-97407500D01*
X176211001Y-97407500D01*
X176235505Y-97408704D01*
G37*
G04 #@! TD.AperFunction*
G04 #@! TA.AperFunction,SMDPad,CuDef*
G36*
X169123505Y-90550704D02*
G01*
X169147773Y-90554304D01*
X169171572Y-90560265D01*
X169194671Y-90568530D01*
X169216850Y-90579020D01*
X169237893Y-90591632D01*
X169257599Y-90606247D01*
X169275777Y-90622723D01*
X169292253Y-90640901D01*
X169306868Y-90660607D01*
X169319480Y-90681650D01*
X169329970Y-90703829D01*
X169338235Y-90726928D01*
X169344196Y-90750727D01*
X169347796Y-90774995D01*
X169349000Y-90799499D01*
X169349000Y-91699501D01*
X169347796Y-91724005D01*
X169344196Y-91748273D01*
X169338235Y-91772072D01*
X169329970Y-91795171D01*
X169319480Y-91817350D01*
X169306868Y-91838393D01*
X169292253Y-91858099D01*
X169275777Y-91876277D01*
X169257599Y-91892753D01*
X169237893Y-91907368D01*
X169216850Y-91919980D01*
X169194671Y-91930470D01*
X169171572Y-91938735D01*
X169147773Y-91944696D01*
X169123505Y-91948296D01*
X169099001Y-91949500D01*
X168448999Y-91949500D01*
X168424495Y-91948296D01*
X168400227Y-91944696D01*
X168376428Y-91938735D01*
X168353329Y-91930470D01*
X168331150Y-91919980D01*
X168310107Y-91907368D01*
X168290401Y-91892753D01*
X168272223Y-91876277D01*
X168255747Y-91858099D01*
X168241132Y-91838393D01*
X168228520Y-91817350D01*
X168218030Y-91795171D01*
X168209765Y-91772072D01*
X168203804Y-91748273D01*
X168200204Y-91724005D01*
X168199000Y-91699501D01*
X168199000Y-90799499D01*
X168200204Y-90774995D01*
X168203804Y-90750727D01*
X168209765Y-90726928D01*
X168218030Y-90703829D01*
X168228520Y-90681650D01*
X168241132Y-90660607D01*
X168255747Y-90640901D01*
X168272223Y-90622723D01*
X168290401Y-90606247D01*
X168310107Y-90591632D01*
X168331150Y-90579020D01*
X168353329Y-90568530D01*
X168376428Y-90560265D01*
X168400227Y-90554304D01*
X168424495Y-90550704D01*
X168448999Y-90549500D01*
X169099001Y-90549500D01*
X169123505Y-90550704D01*
G37*
G04 #@! TD.AperFunction*
G04 #@! TA.AperFunction,SMDPad,CuDef*
G36*
X171173505Y-90550704D02*
G01*
X171197773Y-90554304D01*
X171221572Y-90560265D01*
X171244671Y-90568530D01*
X171266850Y-90579020D01*
X171287893Y-90591632D01*
X171307599Y-90606247D01*
X171325777Y-90622723D01*
X171342253Y-90640901D01*
X171356868Y-90660607D01*
X171369480Y-90681650D01*
X171379970Y-90703829D01*
X171388235Y-90726928D01*
X171394196Y-90750727D01*
X171397796Y-90774995D01*
X171399000Y-90799499D01*
X171399000Y-91699501D01*
X171397796Y-91724005D01*
X171394196Y-91748273D01*
X171388235Y-91772072D01*
X171379970Y-91795171D01*
X171369480Y-91817350D01*
X171356868Y-91838393D01*
X171342253Y-91858099D01*
X171325777Y-91876277D01*
X171307599Y-91892753D01*
X171287893Y-91907368D01*
X171266850Y-91919980D01*
X171244671Y-91930470D01*
X171221572Y-91938735D01*
X171197773Y-91944696D01*
X171173505Y-91948296D01*
X171149001Y-91949500D01*
X170498999Y-91949500D01*
X170474495Y-91948296D01*
X170450227Y-91944696D01*
X170426428Y-91938735D01*
X170403329Y-91930470D01*
X170381150Y-91919980D01*
X170360107Y-91907368D01*
X170340401Y-91892753D01*
X170322223Y-91876277D01*
X170305747Y-91858099D01*
X170291132Y-91838393D01*
X170278520Y-91817350D01*
X170268030Y-91795171D01*
X170259765Y-91772072D01*
X170253804Y-91748273D01*
X170250204Y-91724005D01*
X170249000Y-91699501D01*
X170249000Y-90799499D01*
X170250204Y-90774995D01*
X170253804Y-90750727D01*
X170259765Y-90726928D01*
X170268030Y-90703829D01*
X170278520Y-90681650D01*
X170291132Y-90660607D01*
X170305747Y-90640901D01*
X170322223Y-90622723D01*
X170340401Y-90606247D01*
X170360107Y-90591632D01*
X170381150Y-90579020D01*
X170403329Y-90568530D01*
X170426428Y-90560265D01*
X170450227Y-90554304D01*
X170474495Y-90550704D01*
X170498999Y-90549500D01*
X171149001Y-90549500D01*
X171173505Y-90550704D01*
G37*
G04 #@! TD.AperFunction*
G04 #@! TA.AperFunction,SMDPad,CuDef*
G36*
X171173505Y-92836704D02*
G01*
X171197773Y-92840304D01*
X171221572Y-92846265D01*
X171244671Y-92854530D01*
X171266850Y-92865020D01*
X171287893Y-92877632D01*
X171307599Y-92892247D01*
X171325777Y-92908723D01*
X171342253Y-92926901D01*
X171356868Y-92946607D01*
X171369480Y-92967650D01*
X171379970Y-92989829D01*
X171388235Y-93012928D01*
X171394196Y-93036727D01*
X171397796Y-93060995D01*
X171399000Y-93085499D01*
X171399000Y-93985501D01*
X171397796Y-94010005D01*
X171394196Y-94034273D01*
X171388235Y-94058072D01*
X171379970Y-94081171D01*
X171369480Y-94103350D01*
X171356868Y-94124393D01*
X171342253Y-94144099D01*
X171325777Y-94162277D01*
X171307599Y-94178753D01*
X171287893Y-94193368D01*
X171266850Y-94205980D01*
X171244671Y-94216470D01*
X171221572Y-94224735D01*
X171197773Y-94230696D01*
X171173505Y-94234296D01*
X171149001Y-94235500D01*
X170498999Y-94235500D01*
X170474495Y-94234296D01*
X170450227Y-94230696D01*
X170426428Y-94224735D01*
X170403329Y-94216470D01*
X170381150Y-94205980D01*
X170360107Y-94193368D01*
X170340401Y-94178753D01*
X170322223Y-94162277D01*
X170305747Y-94144099D01*
X170291132Y-94124393D01*
X170278520Y-94103350D01*
X170268030Y-94081171D01*
X170259765Y-94058072D01*
X170253804Y-94034273D01*
X170250204Y-94010005D01*
X170249000Y-93985501D01*
X170249000Y-93085499D01*
X170250204Y-93060995D01*
X170253804Y-93036727D01*
X170259765Y-93012928D01*
X170268030Y-92989829D01*
X170278520Y-92967650D01*
X170291132Y-92946607D01*
X170305747Y-92926901D01*
X170322223Y-92908723D01*
X170340401Y-92892247D01*
X170360107Y-92877632D01*
X170381150Y-92865020D01*
X170403329Y-92854530D01*
X170426428Y-92846265D01*
X170450227Y-92840304D01*
X170474495Y-92836704D01*
X170498999Y-92835500D01*
X171149001Y-92835500D01*
X171173505Y-92836704D01*
G37*
G04 #@! TD.AperFunction*
G04 #@! TA.AperFunction,SMDPad,CuDef*
G36*
X169123505Y-92836704D02*
G01*
X169147773Y-92840304D01*
X169171572Y-92846265D01*
X169194671Y-92854530D01*
X169216850Y-92865020D01*
X169237893Y-92877632D01*
X169257599Y-92892247D01*
X169275777Y-92908723D01*
X169292253Y-92926901D01*
X169306868Y-92946607D01*
X169319480Y-92967650D01*
X169329970Y-92989829D01*
X169338235Y-93012928D01*
X169344196Y-93036727D01*
X169347796Y-93060995D01*
X169349000Y-93085499D01*
X169349000Y-93985501D01*
X169347796Y-94010005D01*
X169344196Y-94034273D01*
X169338235Y-94058072D01*
X169329970Y-94081171D01*
X169319480Y-94103350D01*
X169306868Y-94124393D01*
X169292253Y-94144099D01*
X169275777Y-94162277D01*
X169257599Y-94178753D01*
X169237893Y-94193368D01*
X169216850Y-94205980D01*
X169194671Y-94216470D01*
X169171572Y-94224735D01*
X169147773Y-94230696D01*
X169123505Y-94234296D01*
X169099001Y-94235500D01*
X168448999Y-94235500D01*
X168424495Y-94234296D01*
X168400227Y-94230696D01*
X168376428Y-94224735D01*
X168353329Y-94216470D01*
X168331150Y-94205980D01*
X168310107Y-94193368D01*
X168290401Y-94178753D01*
X168272223Y-94162277D01*
X168255747Y-94144099D01*
X168241132Y-94124393D01*
X168228520Y-94103350D01*
X168218030Y-94081171D01*
X168209765Y-94058072D01*
X168203804Y-94034273D01*
X168200204Y-94010005D01*
X168199000Y-93985501D01*
X168199000Y-93085499D01*
X168200204Y-93060995D01*
X168203804Y-93036727D01*
X168209765Y-93012928D01*
X168218030Y-92989829D01*
X168228520Y-92967650D01*
X168241132Y-92946607D01*
X168255747Y-92926901D01*
X168272223Y-92908723D01*
X168290401Y-92892247D01*
X168310107Y-92877632D01*
X168331150Y-92865020D01*
X168353329Y-92854530D01*
X168376428Y-92846265D01*
X168400227Y-92840304D01*
X168424495Y-92836704D01*
X168448999Y-92835500D01*
X169099001Y-92835500D01*
X169123505Y-92836704D01*
G37*
G04 #@! TD.AperFunction*
G04 #@! TA.AperFunction,SMDPad,CuDef*
G36*
X169123505Y-95122704D02*
G01*
X169147773Y-95126304D01*
X169171572Y-95132265D01*
X169194671Y-95140530D01*
X169216850Y-95151020D01*
X169237893Y-95163632D01*
X169257599Y-95178247D01*
X169275777Y-95194723D01*
X169292253Y-95212901D01*
X169306868Y-95232607D01*
X169319480Y-95253650D01*
X169329970Y-95275829D01*
X169338235Y-95298928D01*
X169344196Y-95322727D01*
X169347796Y-95346995D01*
X169349000Y-95371499D01*
X169349000Y-96271501D01*
X169347796Y-96296005D01*
X169344196Y-96320273D01*
X169338235Y-96344072D01*
X169329970Y-96367171D01*
X169319480Y-96389350D01*
X169306868Y-96410393D01*
X169292253Y-96430099D01*
X169275777Y-96448277D01*
X169257599Y-96464753D01*
X169237893Y-96479368D01*
X169216850Y-96491980D01*
X169194671Y-96502470D01*
X169171572Y-96510735D01*
X169147773Y-96516696D01*
X169123505Y-96520296D01*
X169099001Y-96521500D01*
X168448999Y-96521500D01*
X168424495Y-96520296D01*
X168400227Y-96516696D01*
X168376428Y-96510735D01*
X168353329Y-96502470D01*
X168331150Y-96491980D01*
X168310107Y-96479368D01*
X168290401Y-96464753D01*
X168272223Y-96448277D01*
X168255747Y-96430099D01*
X168241132Y-96410393D01*
X168228520Y-96389350D01*
X168218030Y-96367171D01*
X168209765Y-96344072D01*
X168203804Y-96320273D01*
X168200204Y-96296005D01*
X168199000Y-96271501D01*
X168199000Y-95371499D01*
X168200204Y-95346995D01*
X168203804Y-95322727D01*
X168209765Y-95298928D01*
X168218030Y-95275829D01*
X168228520Y-95253650D01*
X168241132Y-95232607D01*
X168255747Y-95212901D01*
X168272223Y-95194723D01*
X168290401Y-95178247D01*
X168310107Y-95163632D01*
X168331150Y-95151020D01*
X168353329Y-95140530D01*
X168376428Y-95132265D01*
X168400227Y-95126304D01*
X168424495Y-95122704D01*
X168448999Y-95121500D01*
X169099001Y-95121500D01*
X169123505Y-95122704D01*
G37*
G04 #@! TD.AperFunction*
G04 #@! TA.AperFunction,SMDPad,CuDef*
G36*
X171173505Y-95122704D02*
G01*
X171197773Y-95126304D01*
X171221572Y-95132265D01*
X171244671Y-95140530D01*
X171266850Y-95151020D01*
X171287893Y-95163632D01*
X171307599Y-95178247D01*
X171325777Y-95194723D01*
X171342253Y-95212901D01*
X171356868Y-95232607D01*
X171369480Y-95253650D01*
X171379970Y-95275829D01*
X171388235Y-95298928D01*
X171394196Y-95322727D01*
X171397796Y-95346995D01*
X171399000Y-95371499D01*
X171399000Y-96271501D01*
X171397796Y-96296005D01*
X171394196Y-96320273D01*
X171388235Y-96344072D01*
X171379970Y-96367171D01*
X171369480Y-96389350D01*
X171356868Y-96410393D01*
X171342253Y-96430099D01*
X171325777Y-96448277D01*
X171307599Y-96464753D01*
X171287893Y-96479368D01*
X171266850Y-96491980D01*
X171244671Y-96502470D01*
X171221572Y-96510735D01*
X171197773Y-96516696D01*
X171173505Y-96520296D01*
X171149001Y-96521500D01*
X170498999Y-96521500D01*
X170474495Y-96520296D01*
X170450227Y-96516696D01*
X170426428Y-96510735D01*
X170403329Y-96502470D01*
X170381150Y-96491980D01*
X170360107Y-96479368D01*
X170340401Y-96464753D01*
X170322223Y-96448277D01*
X170305747Y-96430099D01*
X170291132Y-96410393D01*
X170278520Y-96389350D01*
X170268030Y-96367171D01*
X170259765Y-96344072D01*
X170253804Y-96320273D01*
X170250204Y-96296005D01*
X170249000Y-96271501D01*
X170249000Y-95371499D01*
X170250204Y-95346995D01*
X170253804Y-95322727D01*
X170259765Y-95298928D01*
X170268030Y-95275829D01*
X170278520Y-95253650D01*
X170291132Y-95232607D01*
X170305747Y-95212901D01*
X170322223Y-95194723D01*
X170340401Y-95178247D01*
X170360107Y-95163632D01*
X170381150Y-95151020D01*
X170403329Y-95140530D01*
X170426428Y-95132265D01*
X170450227Y-95126304D01*
X170474495Y-95122704D01*
X170498999Y-95121500D01*
X171149001Y-95121500D01*
X171173505Y-95122704D01*
G37*
G04 #@! TD.AperFunction*
G04 #@! TA.AperFunction,SMDPad,CuDef*
G36*
X171173505Y-97408704D02*
G01*
X171197773Y-97412304D01*
X171221572Y-97418265D01*
X171244671Y-97426530D01*
X171266850Y-97437020D01*
X171287893Y-97449632D01*
X171307599Y-97464247D01*
X171325777Y-97480723D01*
X171342253Y-97498901D01*
X171356868Y-97518607D01*
X171369480Y-97539650D01*
X171379970Y-97561829D01*
X171388235Y-97584928D01*
X171394196Y-97608727D01*
X171397796Y-97632995D01*
X171399000Y-97657499D01*
X171399000Y-98557501D01*
X171397796Y-98582005D01*
X171394196Y-98606273D01*
X171388235Y-98630072D01*
X171379970Y-98653171D01*
X171369480Y-98675350D01*
X171356868Y-98696393D01*
X171342253Y-98716099D01*
X171325777Y-98734277D01*
X171307599Y-98750753D01*
X171287893Y-98765368D01*
X171266850Y-98777980D01*
X171244671Y-98788470D01*
X171221572Y-98796735D01*
X171197773Y-98802696D01*
X171173505Y-98806296D01*
X171149001Y-98807500D01*
X170498999Y-98807500D01*
X170474495Y-98806296D01*
X170450227Y-98802696D01*
X170426428Y-98796735D01*
X170403329Y-98788470D01*
X170381150Y-98777980D01*
X170360107Y-98765368D01*
X170340401Y-98750753D01*
X170322223Y-98734277D01*
X170305747Y-98716099D01*
X170291132Y-98696393D01*
X170278520Y-98675350D01*
X170268030Y-98653171D01*
X170259765Y-98630072D01*
X170253804Y-98606273D01*
X170250204Y-98582005D01*
X170249000Y-98557501D01*
X170249000Y-97657499D01*
X170250204Y-97632995D01*
X170253804Y-97608727D01*
X170259765Y-97584928D01*
X170268030Y-97561829D01*
X170278520Y-97539650D01*
X170291132Y-97518607D01*
X170305747Y-97498901D01*
X170322223Y-97480723D01*
X170340401Y-97464247D01*
X170360107Y-97449632D01*
X170381150Y-97437020D01*
X170403329Y-97426530D01*
X170426428Y-97418265D01*
X170450227Y-97412304D01*
X170474495Y-97408704D01*
X170498999Y-97407500D01*
X171149001Y-97407500D01*
X171173505Y-97408704D01*
G37*
G04 #@! TD.AperFunction*
G04 #@! TA.AperFunction,SMDPad,CuDef*
G36*
X169123505Y-97408704D02*
G01*
X169147773Y-97412304D01*
X169171572Y-97418265D01*
X169194671Y-97426530D01*
X169216850Y-97437020D01*
X169237893Y-97449632D01*
X169257599Y-97464247D01*
X169275777Y-97480723D01*
X169292253Y-97498901D01*
X169306868Y-97518607D01*
X169319480Y-97539650D01*
X169329970Y-97561829D01*
X169338235Y-97584928D01*
X169344196Y-97608727D01*
X169347796Y-97632995D01*
X169349000Y-97657499D01*
X169349000Y-98557501D01*
X169347796Y-98582005D01*
X169344196Y-98606273D01*
X169338235Y-98630072D01*
X169329970Y-98653171D01*
X169319480Y-98675350D01*
X169306868Y-98696393D01*
X169292253Y-98716099D01*
X169275777Y-98734277D01*
X169257599Y-98750753D01*
X169237893Y-98765368D01*
X169216850Y-98777980D01*
X169194671Y-98788470D01*
X169171572Y-98796735D01*
X169147773Y-98802696D01*
X169123505Y-98806296D01*
X169099001Y-98807500D01*
X168448999Y-98807500D01*
X168424495Y-98806296D01*
X168400227Y-98802696D01*
X168376428Y-98796735D01*
X168353329Y-98788470D01*
X168331150Y-98777980D01*
X168310107Y-98765368D01*
X168290401Y-98750753D01*
X168272223Y-98734277D01*
X168255747Y-98716099D01*
X168241132Y-98696393D01*
X168228520Y-98675350D01*
X168218030Y-98653171D01*
X168209765Y-98630072D01*
X168203804Y-98606273D01*
X168200204Y-98582005D01*
X168199000Y-98557501D01*
X168199000Y-97657499D01*
X168200204Y-97632995D01*
X168203804Y-97608727D01*
X168209765Y-97584928D01*
X168218030Y-97561829D01*
X168228520Y-97539650D01*
X168241132Y-97518607D01*
X168255747Y-97498901D01*
X168272223Y-97480723D01*
X168290401Y-97464247D01*
X168310107Y-97449632D01*
X168331150Y-97437020D01*
X168353329Y-97426530D01*
X168376428Y-97418265D01*
X168400227Y-97412304D01*
X168424495Y-97408704D01*
X168448999Y-97407500D01*
X169099001Y-97407500D01*
X169123505Y-97408704D01*
G37*
G04 #@! TD.AperFunction*
D11*
X147955000Y-98679000D03*
D12*
X150495000Y-97409000D03*
X147955000Y-96139000D03*
X150495000Y-94869000D03*
X147955000Y-93599000D03*
X150495000Y-92329000D03*
X147955000Y-91059000D03*
X150495000Y-89789000D03*
D13*
X138235000Y-87909000D03*
X136715000Y-90449000D03*
X138235000Y-98019000D03*
X136715000Y-100559000D03*
D14*
X144665000Y-102009000D03*
X144665000Y-86459000D03*
D15*
X137160000Y-82740500D03*
D16*
X139700000Y-82740500D03*
X154940000Y-82740500D03*
D15*
X152400000Y-82740500D03*
X137160000Y-105727500D03*
D16*
X137160000Y-108267500D03*
X139700000Y-105727500D03*
X139700000Y-108267500D03*
X142240000Y-105727500D03*
X142240000Y-108267500D03*
X144780000Y-105727500D03*
X144780000Y-108267500D03*
X147320000Y-105727500D03*
X147320000Y-108267500D03*
X149860000Y-105727500D03*
X149860000Y-108267500D03*
X152400000Y-105727500D03*
X152400000Y-108267500D03*
X154940000Y-105727500D03*
X154940000Y-108267500D03*
X157480000Y-105727500D03*
X157480000Y-108267500D03*
X160020000Y-105727500D03*
X160020000Y-108267500D03*
D17*
X139192000Y-95123000D03*
D18*
X173736000Y-105854500D03*
X178498500Y-102743000D03*
D19*
X162496500Y-97282000D03*
D20*
X172593000Y-96139000D03*
X174625000Y-98171000D03*
X172593000Y-98171000D03*
X174625000Y-96139000D03*
D17*
X154940000Y-91884500D03*
X154940000Y-85979000D03*
X154822000Y-97844500D03*
D20*
X144136000Y-95640000D03*
D17*
X174117000Y-101092000D03*
D18*
X170065000Y-97905000D03*
D20*
X177936000Y-97146000D03*
X177927000Y-91249500D03*
X152772000Y-85026500D03*
X170878500Y-87122000D03*
D18*
X166814500Y-101790500D03*
X155321000Y-101917500D03*
X155321000Y-100774500D03*
X166751000Y-100838000D03*
X148429999Y-101679501D03*
X158686500Y-102298500D03*
D17*
X155384500Y-94869000D03*
D18*
X166370000Y-94869000D03*
X162877500Y-103441500D03*
X176339500Y-100901500D03*
X166687500Y-102806500D03*
X168148000Y-102425500D03*
D17*
X166687500Y-99504500D03*
X170053000Y-100076000D03*
D18*
X156273500Y-88963500D03*
X178054000Y-100901500D03*
X176911000Y-100901500D03*
X168084500Y-104076500D03*
X166814500Y-104076500D03*
X153670000Y-105219500D03*
X177482500Y-100901500D03*
X162242500Y-88582500D03*
X173672500Y-89471500D03*
X162320501Y-89295501D03*
X161798000Y-90170000D03*
X178625500Y-100901500D03*
X172593000Y-107251500D03*
X165989000Y-90614500D03*
X166751000Y-90932000D03*
X159194500Y-91694000D03*
X167322500Y-91694000D03*
D17*
X167449500Y-93789500D03*
X167449500Y-108267500D03*
D21*
X175886000Y-98107500D02*
X175886000Y-91249500D01*
X168774000Y-98107500D02*
X168774000Y-91249500D01*
X154940000Y-85979000D02*
X154940000Y-91884500D01*
X154640001Y-92184499D02*
X154940000Y-91884500D01*
X154134499Y-92690001D02*
X154640001Y-92184499D01*
X154134499Y-96732735D02*
X154134499Y-92690001D01*
X154822000Y-97420236D02*
X154134499Y-96732735D01*
X154822000Y-97844500D02*
X154822000Y-97420236D01*
X168774000Y-91249500D02*
X168774000Y-86750000D01*
X164764500Y-82740500D02*
X154940000Y-82740500D01*
X168774000Y-86750000D02*
X164764500Y-82740500D01*
X147165000Y-86459000D02*
X144665000Y-86459000D01*
X150495000Y-89789000D02*
X147165000Y-86459000D01*
X144665000Y-95111000D02*
X144665000Y-86459000D01*
X144136000Y-95640000D02*
X144665000Y-95111000D01*
X144058000Y-102616000D02*
X144665000Y-102009000D01*
X137160000Y-105727500D02*
X137160000Y-105603498D01*
X140147498Y-102616000D02*
X144058000Y-102616000D01*
X137160000Y-105603498D02*
X140147498Y-102616000D01*
X177936000Y-98107500D02*
X177936000Y-97146000D01*
X170824000Y-98107500D02*
X170824000Y-91249500D01*
D22*
X170621500Y-97905000D02*
X170824000Y-98107500D01*
X170065000Y-97905000D02*
X170621500Y-97905000D01*
D21*
X177936000Y-97146000D02*
X177936000Y-91249500D01*
X170878500Y-91195000D02*
X170824000Y-91249500D01*
X170878500Y-87122000D02*
X170878500Y-91195000D01*
D23*
G36*
X135949766Y-83590500D02*
G01*
X135956688Y-83660778D01*
X135977187Y-83728356D01*
X136010476Y-83790635D01*
X136055276Y-83845224D01*
X136109865Y-83890024D01*
X136172144Y-83923313D01*
X136239722Y-83943812D01*
X136310000Y-83950734D01*
X138010000Y-83950734D01*
X138080278Y-83943812D01*
X138147856Y-83923313D01*
X138210135Y-83890024D01*
X138264724Y-83845224D01*
X138309524Y-83790635D01*
X138342813Y-83728356D01*
X138363312Y-83660778D01*
X138370234Y-83590500D01*
X138370234Y-82006000D01*
X138737327Y-82006000D01*
X138629042Y-82168061D01*
X138537942Y-82387994D01*
X138491500Y-82621473D01*
X138491500Y-82859527D01*
X138537942Y-83093006D01*
X138629042Y-83312939D01*
X138761297Y-83510874D01*
X138929626Y-83679203D01*
X139127561Y-83811458D01*
X139347494Y-83902558D01*
X139580973Y-83949000D01*
X139819027Y-83949000D01*
X140052506Y-83902558D01*
X140272439Y-83811458D01*
X140470374Y-83679203D01*
X140559077Y-83590500D01*
X150919464Y-83590500D01*
X150931580Y-83713511D01*
X150967461Y-83831796D01*
X151025728Y-83940807D01*
X151104144Y-84036356D01*
X151199693Y-84114772D01*
X151308704Y-84173039D01*
X151426989Y-84208920D01*
X151550000Y-84221036D01*
X152108625Y-84218000D01*
X152265500Y-84061125D01*
X152265500Y-82875000D01*
X152534500Y-82875000D01*
X152534500Y-84061125D01*
X152691375Y-84218000D01*
X153250000Y-84221036D01*
X153373011Y-84208920D01*
X153491296Y-84173039D01*
X153600307Y-84114772D01*
X153695856Y-84036356D01*
X153774272Y-83940807D01*
X153832539Y-83831796D01*
X153860659Y-83739094D01*
X153950839Y-83838034D01*
X154183964Y-84009921D01*
X154446143Y-84133025D01*
X154576984Y-84172710D01*
X154805500Y-84054258D01*
X154805500Y-82875000D01*
X155074500Y-82875000D01*
X155074500Y-84054258D01*
X155303016Y-84172710D01*
X155433857Y-84133025D01*
X155696036Y-84009921D01*
X155929161Y-83838034D01*
X156124273Y-83623969D01*
X156273874Y-83375953D01*
X156372215Y-83103517D01*
X156254495Y-82875000D01*
X155074500Y-82875000D01*
X154805500Y-82875000D01*
X152534500Y-82875000D01*
X152265500Y-82875000D01*
X151079375Y-82875000D01*
X150922500Y-83031875D01*
X150919464Y-83590500D01*
X140559077Y-83590500D01*
X140638703Y-83510874D01*
X140770958Y-83312939D01*
X140862058Y-83093006D01*
X140908500Y-82859527D01*
X140908500Y-82621473D01*
X140862058Y-82387994D01*
X140770958Y-82168061D01*
X140662673Y-82006000D01*
X150920092Y-82006000D01*
X150922500Y-82449125D01*
X151079375Y-82606000D01*
X152265500Y-82606000D01*
X152265500Y-82586000D01*
X152534500Y-82586000D01*
X152534500Y-82606000D01*
X154805500Y-82606000D01*
X154805500Y-82586000D01*
X155074500Y-82586000D01*
X155074500Y-82606000D01*
X156254495Y-82606000D01*
X156372215Y-82377483D01*
X156273874Y-82105047D01*
X156214130Y-82006000D01*
X179233001Y-82006000D01*
X179233000Y-109291000D01*
X160663465Y-109291000D01*
X160790374Y-109206203D01*
X160958703Y-109037874D01*
X161090958Y-108839939D01*
X161182058Y-108620006D01*
X161228500Y-108386527D01*
X161228500Y-108202643D01*
X166791000Y-108202643D01*
X166791000Y-108332357D01*
X166816306Y-108459577D01*
X166865945Y-108579417D01*
X166938010Y-108687269D01*
X167029731Y-108778990D01*
X167137583Y-108851055D01*
X167257423Y-108900694D01*
X167384643Y-108926000D01*
X167514357Y-108926000D01*
X167641577Y-108900694D01*
X167761417Y-108851055D01*
X167869269Y-108778990D01*
X167960990Y-108687269D01*
X168033055Y-108579417D01*
X168082694Y-108459577D01*
X168108000Y-108332357D01*
X168108000Y-108202643D01*
X168082694Y-108075423D01*
X168033055Y-107955583D01*
X167960990Y-107847731D01*
X167869269Y-107756010D01*
X167761417Y-107683945D01*
X167641577Y-107634306D01*
X167514357Y-107609000D01*
X167384643Y-107609000D01*
X167257423Y-107634306D01*
X167137583Y-107683945D01*
X167029731Y-107756010D01*
X166938010Y-107847731D01*
X166865945Y-107955583D01*
X166816306Y-108075423D01*
X166791000Y-108202643D01*
X161228500Y-108202643D01*
X161228500Y-108148473D01*
X161182058Y-107914994D01*
X161090958Y-107695061D01*
X160958703Y-107497126D01*
X160790374Y-107328797D01*
X160596051Y-107198955D01*
X172059500Y-107198955D01*
X172059500Y-107304045D01*
X172080002Y-107407116D01*
X172120219Y-107504207D01*
X172178604Y-107591586D01*
X172252914Y-107665896D01*
X172340293Y-107724281D01*
X172437384Y-107764498D01*
X172540455Y-107785000D01*
X172645545Y-107785000D01*
X172748616Y-107764498D01*
X172845707Y-107724281D01*
X172933086Y-107665896D01*
X173007396Y-107591586D01*
X173065781Y-107504207D01*
X173105998Y-107407116D01*
X173126500Y-107304045D01*
X173126500Y-107198955D01*
X173105998Y-107095884D01*
X173065781Y-106998793D01*
X173007396Y-106911414D01*
X172933086Y-106837104D01*
X172845707Y-106778719D01*
X172748616Y-106738502D01*
X172645545Y-106718000D01*
X172540455Y-106718000D01*
X172437384Y-106738502D01*
X172340293Y-106778719D01*
X172252914Y-106837104D01*
X172178604Y-106911414D01*
X172120219Y-106998793D01*
X172080002Y-107095884D01*
X172059500Y-107198955D01*
X160596051Y-107198955D01*
X160592439Y-107196542D01*
X160372506Y-107105442D01*
X160139027Y-107059000D01*
X159900973Y-107059000D01*
X159667494Y-107105442D01*
X159447561Y-107196542D01*
X159249626Y-107328797D01*
X159081297Y-107497126D01*
X158949042Y-107695061D01*
X158857942Y-107914994D01*
X158811500Y-108148473D01*
X158811500Y-108386527D01*
X158857942Y-108620006D01*
X158949042Y-108839939D01*
X159081297Y-109037874D01*
X159249626Y-109206203D01*
X159376535Y-109291000D01*
X158123465Y-109291000D01*
X158250374Y-109206203D01*
X158418703Y-109037874D01*
X158550958Y-108839939D01*
X158642058Y-108620006D01*
X158688500Y-108386527D01*
X158688500Y-108148473D01*
X158642058Y-107914994D01*
X158550958Y-107695061D01*
X158418703Y-107497126D01*
X158250374Y-107328797D01*
X158052439Y-107196542D01*
X157832506Y-107105442D01*
X157599027Y-107059000D01*
X157360973Y-107059000D01*
X157127494Y-107105442D01*
X156907561Y-107196542D01*
X156709626Y-107328797D01*
X156541297Y-107497126D01*
X156409042Y-107695061D01*
X156317942Y-107914994D01*
X156271500Y-108148473D01*
X156271500Y-108386527D01*
X156317942Y-108620006D01*
X156409042Y-108839939D01*
X156541297Y-109037874D01*
X156709626Y-109206203D01*
X156836535Y-109291000D01*
X155583465Y-109291000D01*
X155710374Y-109206203D01*
X155878703Y-109037874D01*
X156010958Y-108839939D01*
X156102058Y-108620006D01*
X156148500Y-108386527D01*
X156148500Y-108148473D01*
X156102058Y-107914994D01*
X156010958Y-107695061D01*
X155878703Y-107497126D01*
X155710374Y-107328797D01*
X155512439Y-107196542D01*
X155292506Y-107105442D01*
X155059027Y-107059000D01*
X154820973Y-107059000D01*
X154587494Y-107105442D01*
X154367561Y-107196542D01*
X154169626Y-107328797D01*
X154001297Y-107497126D01*
X153869042Y-107695061D01*
X153777942Y-107914994D01*
X153731500Y-108148473D01*
X153731500Y-108386527D01*
X153777942Y-108620006D01*
X153869042Y-108839939D01*
X154001297Y-109037874D01*
X154169626Y-109206203D01*
X154296535Y-109291000D01*
X153043465Y-109291000D01*
X153170374Y-109206203D01*
X153338703Y-109037874D01*
X153470958Y-108839939D01*
X153562058Y-108620006D01*
X153608500Y-108386527D01*
X153608500Y-108148473D01*
X153562058Y-107914994D01*
X153470958Y-107695061D01*
X153338703Y-107497126D01*
X153170374Y-107328797D01*
X152972439Y-107196542D01*
X152752506Y-107105442D01*
X152519027Y-107059000D01*
X152280973Y-107059000D01*
X152047494Y-107105442D01*
X151827561Y-107196542D01*
X151629626Y-107328797D01*
X151461297Y-107497126D01*
X151329042Y-107695061D01*
X151237942Y-107914994D01*
X151191500Y-108148473D01*
X151191500Y-108386527D01*
X151237942Y-108620006D01*
X151329042Y-108839939D01*
X151461297Y-109037874D01*
X151629626Y-109206203D01*
X151756535Y-109291000D01*
X150503465Y-109291000D01*
X150630374Y-109206203D01*
X150798703Y-109037874D01*
X150930958Y-108839939D01*
X151022058Y-108620006D01*
X151068500Y-108386527D01*
X151068500Y-108148473D01*
X151022058Y-107914994D01*
X150930958Y-107695061D01*
X150798703Y-107497126D01*
X150630374Y-107328797D01*
X150432439Y-107196542D01*
X150212506Y-107105442D01*
X149979027Y-107059000D01*
X149740973Y-107059000D01*
X149507494Y-107105442D01*
X149287561Y-107196542D01*
X149089626Y-107328797D01*
X148921297Y-107497126D01*
X148789042Y-107695061D01*
X148697942Y-107914994D01*
X148651500Y-108148473D01*
X148651500Y-108386527D01*
X148697942Y-108620006D01*
X148789042Y-108839939D01*
X148921297Y-109037874D01*
X149089626Y-109206203D01*
X149216535Y-109291000D01*
X147963465Y-109291000D01*
X148090374Y-109206203D01*
X148258703Y-109037874D01*
X148390958Y-108839939D01*
X148482058Y-108620006D01*
X148528500Y-108386527D01*
X148528500Y-108148473D01*
X148482058Y-107914994D01*
X148390958Y-107695061D01*
X148258703Y-107497126D01*
X148090374Y-107328797D01*
X147892439Y-107196542D01*
X147672506Y-107105442D01*
X147439027Y-107059000D01*
X147200973Y-107059000D01*
X146967494Y-107105442D01*
X146747561Y-107196542D01*
X146549626Y-107328797D01*
X146381297Y-107497126D01*
X146249042Y-107695061D01*
X146157942Y-107914994D01*
X146111500Y-108148473D01*
X146111500Y-108386527D01*
X146157942Y-108620006D01*
X146249042Y-108839939D01*
X146381297Y-109037874D01*
X146549626Y-109206203D01*
X146676535Y-109291000D01*
X145423465Y-109291000D01*
X145550374Y-109206203D01*
X145718703Y-109037874D01*
X145850958Y-108839939D01*
X145942058Y-108620006D01*
X145988500Y-108386527D01*
X145988500Y-108148473D01*
X145942058Y-107914994D01*
X145850958Y-107695061D01*
X145718703Y-107497126D01*
X145550374Y-107328797D01*
X145352439Y-107196542D01*
X145132506Y-107105442D01*
X144899027Y-107059000D01*
X144660973Y-107059000D01*
X144427494Y-107105442D01*
X144207561Y-107196542D01*
X144009626Y-107328797D01*
X143841297Y-107497126D01*
X143709042Y-107695061D01*
X143617942Y-107914994D01*
X143571500Y-108148473D01*
X143571500Y-108386527D01*
X143617942Y-108620006D01*
X143709042Y-108839939D01*
X143841297Y-109037874D01*
X144009626Y-109206203D01*
X144136535Y-109291000D01*
X142883465Y-109291000D01*
X143010374Y-109206203D01*
X143178703Y-109037874D01*
X143310958Y-108839939D01*
X143402058Y-108620006D01*
X143448500Y-108386527D01*
X143448500Y-108148473D01*
X143402058Y-107914994D01*
X143310958Y-107695061D01*
X143178703Y-107497126D01*
X143010374Y-107328797D01*
X142812439Y-107196542D01*
X142592506Y-107105442D01*
X142359027Y-107059000D01*
X142120973Y-107059000D01*
X141887494Y-107105442D01*
X141667561Y-107196542D01*
X141469626Y-107328797D01*
X141301297Y-107497126D01*
X141169042Y-107695061D01*
X141077942Y-107914994D01*
X141031500Y-108148473D01*
X141031500Y-108386527D01*
X141077942Y-108620006D01*
X141169042Y-108839939D01*
X141301297Y-109037874D01*
X141469626Y-109206203D01*
X141596535Y-109291000D01*
X140343465Y-109291000D01*
X140470374Y-109206203D01*
X140638703Y-109037874D01*
X140770958Y-108839939D01*
X140862058Y-108620006D01*
X140908500Y-108386527D01*
X140908500Y-108148473D01*
X140862058Y-107914994D01*
X140770958Y-107695061D01*
X140638703Y-107497126D01*
X140470374Y-107328797D01*
X140272439Y-107196542D01*
X140052506Y-107105442D01*
X139819027Y-107059000D01*
X139580973Y-107059000D01*
X139347494Y-107105442D01*
X139127561Y-107196542D01*
X138929626Y-107328797D01*
X138761297Y-107497126D01*
X138629042Y-107695061D01*
X138537942Y-107914994D01*
X138491500Y-108148473D01*
X138491500Y-108386527D01*
X138537942Y-108620006D01*
X138629042Y-108839939D01*
X138761297Y-109037874D01*
X138929626Y-109206203D01*
X139056535Y-109291000D01*
X137803465Y-109291000D01*
X137930374Y-109206203D01*
X138098703Y-109037874D01*
X138230958Y-108839939D01*
X138322058Y-108620006D01*
X138368500Y-108386527D01*
X138368500Y-108148473D01*
X138322058Y-107914994D01*
X138230958Y-107695061D01*
X138098703Y-107497126D01*
X137930374Y-107328797D01*
X137747506Y-107206609D01*
X138010000Y-107208036D01*
X138133011Y-107195920D01*
X138251296Y-107160039D01*
X138360307Y-107101772D01*
X138455856Y-107023356D01*
X138534272Y-106927807D01*
X138592539Y-106818796D01*
X138628420Y-106700511D01*
X138640536Y-106577500D01*
X138639109Y-106315006D01*
X138761297Y-106497874D01*
X138929626Y-106666203D01*
X139127561Y-106798458D01*
X139347494Y-106889558D01*
X139580973Y-106936000D01*
X139819027Y-106936000D01*
X140052506Y-106889558D01*
X140272439Y-106798458D01*
X140470374Y-106666203D01*
X140638703Y-106497874D01*
X140770958Y-106299939D01*
X140862058Y-106080006D01*
X140908500Y-105846527D01*
X140908500Y-105608473D01*
X141031500Y-105608473D01*
X141031500Y-105846527D01*
X141077942Y-106080006D01*
X141169042Y-106299939D01*
X141301297Y-106497874D01*
X141469626Y-106666203D01*
X141667561Y-106798458D01*
X141887494Y-106889558D01*
X142120973Y-106936000D01*
X142359027Y-106936000D01*
X142592506Y-106889558D01*
X142812439Y-106798458D01*
X143010374Y-106666203D01*
X143178703Y-106497874D01*
X143310958Y-106299939D01*
X143402058Y-106080006D01*
X143448500Y-105846527D01*
X143448500Y-105608473D01*
X143571500Y-105608473D01*
X143571500Y-105846527D01*
X143617942Y-106080006D01*
X143709042Y-106299939D01*
X143841297Y-106497874D01*
X144009626Y-106666203D01*
X144207561Y-106798458D01*
X144427494Y-106889558D01*
X144660973Y-106936000D01*
X144899027Y-106936000D01*
X145132506Y-106889558D01*
X145352439Y-106798458D01*
X145550374Y-106666203D01*
X145718703Y-106497874D01*
X145850958Y-106299939D01*
X145942058Y-106080006D01*
X145988500Y-105846527D01*
X145988500Y-105608473D01*
X146111500Y-105608473D01*
X146111500Y-105846527D01*
X146157942Y-106080006D01*
X146249042Y-106299939D01*
X146381297Y-106497874D01*
X146549626Y-106666203D01*
X146747561Y-106798458D01*
X146967494Y-106889558D01*
X147200973Y-106936000D01*
X147439027Y-106936000D01*
X147672506Y-106889558D01*
X147892439Y-106798458D01*
X148090374Y-106666203D01*
X148258703Y-106497874D01*
X148390958Y-106299939D01*
X148482058Y-106080006D01*
X148528500Y-105846527D01*
X148528500Y-105608473D01*
X148651500Y-105608473D01*
X148651500Y-105846527D01*
X148697942Y-106080006D01*
X148789042Y-106299939D01*
X148921297Y-106497874D01*
X149089626Y-106666203D01*
X149287561Y-106798458D01*
X149507494Y-106889558D01*
X149740973Y-106936000D01*
X149979027Y-106936000D01*
X150212506Y-106889558D01*
X150432439Y-106798458D01*
X150630374Y-106666203D01*
X150798703Y-106497874D01*
X150930958Y-106299939D01*
X151022058Y-106080006D01*
X151068500Y-105846527D01*
X151068500Y-105608473D01*
X151191500Y-105608473D01*
X151191500Y-105846527D01*
X151237942Y-106080006D01*
X151329042Y-106299939D01*
X151461297Y-106497874D01*
X151629626Y-106666203D01*
X151827561Y-106798458D01*
X152047494Y-106889558D01*
X152280973Y-106936000D01*
X152519027Y-106936000D01*
X152752506Y-106889558D01*
X152972439Y-106798458D01*
X153170374Y-106666203D01*
X153338703Y-106497874D01*
X153470958Y-106299939D01*
X153562058Y-106080006D01*
X153608500Y-105846527D01*
X153608500Y-105751219D01*
X153617455Y-105753000D01*
X153722545Y-105753000D01*
X153731500Y-105751219D01*
X153731500Y-105846527D01*
X153777942Y-106080006D01*
X153869042Y-106299939D01*
X154001297Y-106497874D01*
X154169626Y-106666203D01*
X154367561Y-106798458D01*
X154587494Y-106889558D01*
X154820973Y-106936000D01*
X155059027Y-106936000D01*
X155292506Y-106889558D01*
X155512439Y-106798458D01*
X155710374Y-106666203D01*
X155878703Y-106497874D01*
X156010958Y-106299939D01*
X156102058Y-106080006D01*
X156148500Y-105846527D01*
X156148500Y-105608473D01*
X156271500Y-105608473D01*
X156271500Y-105846527D01*
X156317942Y-106080006D01*
X156409042Y-106299939D01*
X156541297Y-106497874D01*
X156709626Y-106666203D01*
X156907561Y-106798458D01*
X157127494Y-106889558D01*
X157360973Y-106936000D01*
X157599027Y-106936000D01*
X157832506Y-106889558D01*
X158052439Y-106798458D01*
X158250374Y-106666203D01*
X158418703Y-106497874D01*
X158550958Y-106299939D01*
X158642058Y-106080006D01*
X158688500Y-105846527D01*
X158688500Y-105608473D01*
X158811500Y-105608473D01*
X158811500Y-105846527D01*
X158857942Y-106080006D01*
X158949042Y-106299939D01*
X159081297Y-106497874D01*
X159249626Y-106666203D01*
X159447561Y-106798458D01*
X159667494Y-106889558D01*
X159900973Y-106936000D01*
X160139027Y-106936000D01*
X160372506Y-106889558D01*
X160592439Y-106798458D01*
X160790374Y-106666203D01*
X160958703Y-106497874D01*
X161090958Y-106299939D01*
X161182058Y-106080006D01*
X161228500Y-105846527D01*
X161228500Y-105608473D01*
X161182058Y-105374994D01*
X161090958Y-105155061D01*
X160958703Y-104957126D01*
X160790374Y-104788797D01*
X160592439Y-104656542D01*
X160372506Y-104565442D01*
X160139027Y-104519000D01*
X159900973Y-104519000D01*
X159667494Y-104565442D01*
X159447561Y-104656542D01*
X159249626Y-104788797D01*
X159081297Y-104957126D01*
X158949042Y-105155061D01*
X158857942Y-105374994D01*
X158811500Y-105608473D01*
X158688500Y-105608473D01*
X158642058Y-105374994D01*
X158550958Y-105155061D01*
X158418703Y-104957126D01*
X158250374Y-104788797D01*
X158052439Y-104656542D01*
X157832506Y-104565442D01*
X157599027Y-104519000D01*
X157360973Y-104519000D01*
X157127494Y-104565442D01*
X156907561Y-104656542D01*
X156709626Y-104788797D01*
X156541297Y-104957126D01*
X156409042Y-105155061D01*
X156317942Y-105374994D01*
X156271500Y-105608473D01*
X156148500Y-105608473D01*
X156102058Y-105374994D01*
X156010958Y-105155061D01*
X155878703Y-104957126D01*
X155710374Y-104788797D01*
X155512439Y-104656542D01*
X155292506Y-104565442D01*
X155059027Y-104519000D01*
X154820973Y-104519000D01*
X154587494Y-104565442D01*
X154367561Y-104656542D01*
X154169626Y-104788797D01*
X154081703Y-104876721D01*
X154010086Y-104805104D01*
X153922707Y-104746719D01*
X153825616Y-104706502D01*
X153722545Y-104686000D01*
X153617455Y-104686000D01*
X153514384Y-104706502D01*
X153417293Y-104746719D01*
X153329914Y-104805104D01*
X153258298Y-104876721D01*
X153170374Y-104788797D01*
X152972439Y-104656542D01*
X152752506Y-104565442D01*
X152519027Y-104519000D01*
X152280973Y-104519000D01*
X152047494Y-104565442D01*
X151827561Y-104656542D01*
X151629626Y-104788797D01*
X151461297Y-104957126D01*
X151329042Y-105155061D01*
X151237942Y-105374994D01*
X151191500Y-105608473D01*
X151068500Y-105608473D01*
X151022058Y-105374994D01*
X150930958Y-105155061D01*
X150798703Y-104957126D01*
X150630374Y-104788797D01*
X150432439Y-104656542D01*
X150212506Y-104565442D01*
X149979027Y-104519000D01*
X149740973Y-104519000D01*
X149507494Y-104565442D01*
X149287561Y-104656542D01*
X149089626Y-104788797D01*
X148921297Y-104957126D01*
X148789042Y-105155061D01*
X148697942Y-105374994D01*
X148651500Y-105608473D01*
X148528500Y-105608473D01*
X148482058Y-105374994D01*
X148390958Y-105155061D01*
X148258703Y-104957126D01*
X148090374Y-104788797D01*
X147892439Y-104656542D01*
X147672506Y-104565442D01*
X147439027Y-104519000D01*
X147200973Y-104519000D01*
X146967494Y-104565442D01*
X146747561Y-104656542D01*
X146549626Y-104788797D01*
X146381297Y-104957126D01*
X146249042Y-105155061D01*
X146157942Y-105374994D01*
X146111500Y-105608473D01*
X145988500Y-105608473D01*
X145942058Y-105374994D01*
X145850958Y-105155061D01*
X145718703Y-104957126D01*
X145550374Y-104788797D01*
X145352439Y-104656542D01*
X145132506Y-104565442D01*
X144899027Y-104519000D01*
X144660973Y-104519000D01*
X144427494Y-104565442D01*
X144207561Y-104656542D01*
X144009626Y-104788797D01*
X143841297Y-104957126D01*
X143709042Y-105155061D01*
X143617942Y-105374994D01*
X143571500Y-105608473D01*
X143448500Y-105608473D01*
X143402058Y-105374994D01*
X143310958Y-105155061D01*
X143178703Y-104957126D01*
X143010374Y-104788797D01*
X142812439Y-104656542D01*
X142592506Y-104565442D01*
X142359027Y-104519000D01*
X142120973Y-104519000D01*
X141887494Y-104565442D01*
X141667561Y-104656542D01*
X141469626Y-104788797D01*
X141301297Y-104957126D01*
X141169042Y-105155061D01*
X141077942Y-105374994D01*
X141031500Y-105608473D01*
X140908500Y-105608473D01*
X140862058Y-105374994D01*
X140770958Y-105155061D01*
X140638703Y-104957126D01*
X140470374Y-104788797D01*
X140272439Y-104656542D01*
X140052506Y-104565442D01*
X139819027Y-104519000D01*
X139580973Y-104519000D01*
X139347494Y-104565442D01*
X139127561Y-104656542D01*
X138929626Y-104788797D01*
X138761297Y-104957126D01*
X138639109Y-105139994D01*
X138640536Y-104877500D01*
X138628420Y-104754489D01*
X138592539Y-104636204D01*
X138534272Y-104527193D01*
X138455856Y-104431644D01*
X138360307Y-104353228D01*
X138251296Y-104294961D01*
X138133011Y-104259080D01*
X138010000Y-104246964D01*
X137451375Y-104250000D01*
X137294500Y-104406875D01*
X137294500Y-105593000D01*
X137314500Y-105593000D01*
X137314500Y-105862000D01*
X137294500Y-105862000D01*
X137294500Y-105882000D01*
X137025500Y-105882000D01*
X137025500Y-105862000D01*
X135839375Y-105862000D01*
X135682500Y-106018875D01*
X135679464Y-106577500D01*
X135691580Y-106700511D01*
X135727461Y-106818796D01*
X135785728Y-106927807D01*
X135864144Y-107023356D01*
X135959693Y-107101772D01*
X136068704Y-107160039D01*
X136186989Y-107195920D01*
X136310000Y-107208036D01*
X136572494Y-107206609D01*
X136389626Y-107328797D01*
X136221297Y-107497126D01*
X136089042Y-107695061D01*
X135997942Y-107914994D01*
X135951500Y-108148473D01*
X135951500Y-108386527D01*
X135997942Y-108620006D01*
X136089042Y-108839939D01*
X136221297Y-109037874D01*
X136389626Y-109206203D01*
X136516535Y-109291000D01*
X134012500Y-109291000D01*
X134012500Y-104877500D01*
X135679464Y-104877500D01*
X135682500Y-105436125D01*
X135839375Y-105593000D01*
X137025500Y-105593000D01*
X137025500Y-104406875D01*
X136868625Y-104250000D01*
X136310000Y-104246964D01*
X136186989Y-104259080D01*
X136068704Y-104294961D01*
X135959693Y-104353228D01*
X135864144Y-104431644D01*
X135785728Y-104527193D01*
X135727461Y-104636204D01*
X135691580Y-104754489D01*
X135679464Y-104877500D01*
X134012500Y-104877500D01*
X134012500Y-104023955D01*
X166281000Y-104023955D01*
X166281000Y-104129045D01*
X166301502Y-104232116D01*
X166341719Y-104329207D01*
X166400104Y-104416586D01*
X166474414Y-104490896D01*
X166561793Y-104549281D01*
X166658884Y-104589498D01*
X166761955Y-104610000D01*
X166867045Y-104610000D01*
X166970116Y-104589498D01*
X167067207Y-104549281D01*
X167154586Y-104490896D01*
X167228896Y-104416586D01*
X167287281Y-104329207D01*
X167327498Y-104232116D01*
X167348000Y-104129045D01*
X167348000Y-104023955D01*
X167551000Y-104023955D01*
X167551000Y-104129045D01*
X167571502Y-104232116D01*
X167611719Y-104329207D01*
X167670104Y-104416586D01*
X167744414Y-104490896D01*
X167831793Y-104549281D01*
X167928884Y-104589498D01*
X168031955Y-104610000D01*
X168137045Y-104610000D01*
X168240116Y-104589498D01*
X168337207Y-104549281D01*
X168424586Y-104490896D01*
X168498896Y-104416586D01*
X168557281Y-104329207D01*
X168597498Y-104232116D01*
X168618000Y-104129045D01*
X168618000Y-104023955D01*
X168597498Y-103920884D01*
X168557281Y-103823793D01*
X168498896Y-103736414D01*
X168424586Y-103662104D01*
X168337207Y-103603719D01*
X168240116Y-103563502D01*
X168137045Y-103543000D01*
X168031955Y-103543000D01*
X167928884Y-103563502D01*
X167831793Y-103603719D01*
X167744414Y-103662104D01*
X167670104Y-103736414D01*
X167611719Y-103823793D01*
X167571502Y-103920884D01*
X167551000Y-104023955D01*
X167348000Y-104023955D01*
X167327498Y-103920884D01*
X167287281Y-103823793D01*
X167228896Y-103736414D01*
X167154586Y-103662104D01*
X167067207Y-103603719D01*
X166970116Y-103563502D01*
X166867045Y-103543000D01*
X166761955Y-103543000D01*
X166658884Y-103563502D01*
X166561793Y-103603719D01*
X166474414Y-103662104D01*
X166400104Y-103736414D01*
X166341719Y-103823793D01*
X166301502Y-103920884D01*
X166281000Y-104023955D01*
X134012500Y-104023955D01*
X134012500Y-103359123D01*
X143505089Y-103359123D01*
X143638123Y-103651200D01*
X143978232Y-103819979D01*
X144344732Y-103919163D01*
X144723541Y-103944942D01*
X145100099Y-103896322D01*
X145459937Y-103775175D01*
X145691877Y-103651200D01*
X145811323Y-103388955D01*
X162344000Y-103388955D01*
X162344000Y-103494045D01*
X162364502Y-103597116D01*
X162404719Y-103694207D01*
X162463104Y-103781586D01*
X162537414Y-103855896D01*
X162624793Y-103914281D01*
X162721884Y-103954498D01*
X162824955Y-103975000D01*
X162930045Y-103975000D01*
X163033116Y-103954498D01*
X163130207Y-103914281D01*
X163217586Y-103855896D01*
X163291896Y-103781586D01*
X163350281Y-103694207D01*
X163390498Y-103597116D01*
X163411000Y-103494045D01*
X163411000Y-103388955D01*
X163390498Y-103285884D01*
X163350281Y-103188793D01*
X163291896Y-103101414D01*
X163217586Y-103027104D01*
X163130207Y-102968719D01*
X163033116Y-102928502D01*
X162930045Y-102908000D01*
X162824955Y-102908000D01*
X162721884Y-102928502D01*
X162624793Y-102968719D01*
X162537414Y-103027104D01*
X162463104Y-103101414D01*
X162404719Y-103188793D01*
X162364502Y-103285884D01*
X162344000Y-103388955D01*
X145811323Y-103388955D01*
X145824911Y-103359123D01*
X144665000Y-102199212D01*
X143505089Y-103359123D01*
X134012500Y-103359123D01*
X134012500Y-100430616D01*
X135411500Y-100430616D01*
X135411500Y-100687384D01*
X135461593Y-100939217D01*
X135559853Y-101176439D01*
X135702505Y-101389933D01*
X135884067Y-101571495D01*
X136097561Y-101714147D01*
X136334783Y-101812407D01*
X136586616Y-101862500D01*
X136843384Y-101862500D01*
X137095217Y-101812407D01*
X137332439Y-101714147D01*
X137545933Y-101571495D01*
X137727495Y-101389933D01*
X137870147Y-101176439D01*
X137968407Y-100939217D01*
X138018500Y-100687384D01*
X138018500Y-100430616D01*
X137968407Y-100178783D01*
X137870147Y-99941561D01*
X137744584Y-99753642D01*
X139631500Y-99753642D01*
X139631500Y-100144358D01*
X139707725Y-100527566D01*
X139857245Y-100888539D01*
X140074315Y-101213407D01*
X140350593Y-101489685D01*
X140675461Y-101706755D01*
X141036434Y-101856275D01*
X141419642Y-101932500D01*
X141810358Y-101932500D01*
X142193566Y-101856275D01*
X142554539Y-101706755D01*
X142793097Y-101547356D01*
X142754837Y-101688732D01*
X142729058Y-102067541D01*
X142777678Y-102444099D01*
X142898825Y-102803937D01*
X143022800Y-103035877D01*
X143314877Y-103168911D01*
X144474788Y-102009000D01*
X144855212Y-102009000D01*
X146015123Y-103168911D01*
X146307200Y-103035877D01*
X146475979Y-102695768D01*
X146575163Y-102329268D01*
X146600942Y-101950459D01*
X146559173Y-101626956D01*
X147896499Y-101626956D01*
X147896499Y-101732046D01*
X147917001Y-101835117D01*
X147957218Y-101932208D01*
X148015603Y-102019587D01*
X148089913Y-102093897D01*
X148177292Y-102152282D01*
X148274383Y-102192499D01*
X148377454Y-102213001D01*
X148482544Y-102213001D01*
X148585615Y-102192499D01*
X148682706Y-102152282D01*
X148770085Y-102093897D01*
X148844395Y-102019587D01*
X148902780Y-101932208D01*
X148930637Y-101864955D01*
X154787500Y-101864955D01*
X154787500Y-101970045D01*
X154808002Y-102073116D01*
X154848219Y-102170207D01*
X154906604Y-102257586D01*
X154980914Y-102331896D01*
X155068293Y-102390281D01*
X155165384Y-102430498D01*
X155268455Y-102451000D01*
X155373545Y-102451000D01*
X155476616Y-102430498D01*
X155573707Y-102390281D01*
X155661086Y-102331896D01*
X155735396Y-102257586D01*
X155743167Y-102245955D01*
X158153000Y-102245955D01*
X158153000Y-102351045D01*
X158173502Y-102454116D01*
X158213719Y-102551207D01*
X158272104Y-102638586D01*
X158346414Y-102712896D01*
X158433793Y-102771281D01*
X158530884Y-102811498D01*
X158633955Y-102832000D01*
X158739045Y-102832000D01*
X158842116Y-102811498D01*
X158939207Y-102771281D01*
X158965137Y-102753955D01*
X166154000Y-102753955D01*
X166154000Y-102859045D01*
X166174502Y-102962116D01*
X166214719Y-103059207D01*
X166273104Y-103146586D01*
X166347414Y-103220896D01*
X166434793Y-103279281D01*
X166531884Y-103319498D01*
X166634955Y-103340000D01*
X166740045Y-103340000D01*
X166843116Y-103319498D01*
X166940207Y-103279281D01*
X167027586Y-103220896D01*
X167101896Y-103146586D01*
X167160281Y-103059207D01*
X167200498Y-102962116D01*
X167221000Y-102859045D01*
X167221000Y-102753955D01*
X167200498Y-102650884D01*
X167160281Y-102553793D01*
X167101896Y-102466414D01*
X167027586Y-102392104D01*
X166998928Y-102372955D01*
X167614500Y-102372955D01*
X167614500Y-102478045D01*
X167635002Y-102581116D01*
X167675219Y-102678207D01*
X167733604Y-102765586D01*
X167807914Y-102839896D01*
X167895293Y-102898281D01*
X167992384Y-102938498D01*
X168095455Y-102959000D01*
X168200545Y-102959000D01*
X168303616Y-102938498D01*
X168400707Y-102898281D01*
X168488086Y-102839896D01*
X168562396Y-102765586D01*
X168620781Y-102678207D01*
X168660998Y-102581116D01*
X168681500Y-102478045D01*
X168681500Y-102372955D01*
X168660998Y-102269884D01*
X168620781Y-102172793D01*
X168562396Y-102085414D01*
X168488086Y-102011104D01*
X168400707Y-101952719D01*
X168303616Y-101912502D01*
X168200545Y-101892000D01*
X168095455Y-101892000D01*
X167992384Y-101912502D01*
X167895293Y-101952719D01*
X167807914Y-102011104D01*
X167733604Y-102085414D01*
X167675219Y-102172793D01*
X167635002Y-102269884D01*
X167614500Y-102372955D01*
X166998928Y-102372955D01*
X166940207Y-102333719D01*
X166900620Y-102317321D01*
X166970116Y-102303498D01*
X167067207Y-102263281D01*
X167154586Y-102204896D01*
X167228896Y-102130586D01*
X167287281Y-102043207D01*
X167327498Y-101946116D01*
X167348000Y-101843045D01*
X167348000Y-101737955D01*
X167327498Y-101634884D01*
X167287281Y-101537793D01*
X167228896Y-101450414D01*
X167154586Y-101376104D01*
X167067207Y-101317719D01*
X167021598Y-101298827D01*
X167091086Y-101252396D01*
X167165396Y-101178086D01*
X167223781Y-101090707D01*
X167250110Y-101027143D01*
X173458500Y-101027143D01*
X173458500Y-101156857D01*
X173483806Y-101284077D01*
X173533445Y-101403917D01*
X173605510Y-101511769D01*
X173697231Y-101603490D01*
X173805083Y-101675555D01*
X173924923Y-101725194D01*
X174052143Y-101750500D01*
X174181857Y-101750500D01*
X174309077Y-101725194D01*
X174428917Y-101675555D01*
X174536769Y-101603490D01*
X174628490Y-101511769D01*
X174700555Y-101403917D01*
X174750194Y-101284077D01*
X174775500Y-101156857D01*
X174775500Y-101027143D01*
X174750194Y-100899923D01*
X174729083Y-100848955D01*
X175806000Y-100848955D01*
X175806000Y-100954045D01*
X175826502Y-101057116D01*
X175866719Y-101154207D01*
X175925104Y-101241586D01*
X175999414Y-101315896D01*
X176086793Y-101374281D01*
X176183884Y-101414498D01*
X176286955Y-101435000D01*
X176392045Y-101435000D01*
X176495116Y-101414498D01*
X176592207Y-101374281D01*
X176625250Y-101352202D01*
X176658293Y-101374281D01*
X176755384Y-101414498D01*
X176858455Y-101435000D01*
X176963545Y-101435000D01*
X177066616Y-101414498D01*
X177163707Y-101374281D01*
X177196750Y-101352202D01*
X177229793Y-101374281D01*
X177326884Y-101414498D01*
X177429955Y-101435000D01*
X177535045Y-101435000D01*
X177638116Y-101414498D01*
X177735207Y-101374281D01*
X177768250Y-101352202D01*
X177801293Y-101374281D01*
X177898384Y-101414498D01*
X178001455Y-101435000D01*
X178106545Y-101435000D01*
X178209616Y-101414498D01*
X178306707Y-101374281D01*
X178339750Y-101352202D01*
X178372793Y-101374281D01*
X178469884Y-101414498D01*
X178572955Y-101435000D01*
X178678045Y-101435000D01*
X178781116Y-101414498D01*
X178878207Y-101374281D01*
X178965586Y-101315896D01*
X179039896Y-101241586D01*
X179098281Y-101154207D01*
X179138498Y-101057116D01*
X179159000Y-100954045D01*
X179159000Y-100848955D01*
X179138498Y-100745884D01*
X179098281Y-100648793D01*
X179039896Y-100561414D01*
X178965586Y-100487104D01*
X178878207Y-100428719D01*
X178781116Y-100388502D01*
X178678045Y-100368000D01*
X178572955Y-100368000D01*
X178469884Y-100388502D01*
X178372793Y-100428719D01*
X178339750Y-100450798D01*
X178306707Y-100428719D01*
X178209616Y-100388502D01*
X178106545Y-100368000D01*
X178001455Y-100368000D01*
X177898384Y-100388502D01*
X177801293Y-100428719D01*
X177768250Y-100450798D01*
X177735207Y-100428719D01*
X177638116Y-100388502D01*
X177535045Y-100368000D01*
X177429955Y-100368000D01*
X177326884Y-100388502D01*
X177229793Y-100428719D01*
X177196750Y-100450798D01*
X177163707Y-100428719D01*
X177066616Y-100388502D01*
X176963545Y-100368000D01*
X176858455Y-100368000D01*
X176755384Y-100388502D01*
X176658293Y-100428719D01*
X176625250Y-100450798D01*
X176592207Y-100428719D01*
X176495116Y-100388502D01*
X176392045Y-100368000D01*
X176286955Y-100368000D01*
X176183884Y-100388502D01*
X176086793Y-100428719D01*
X175999414Y-100487104D01*
X175925104Y-100561414D01*
X175866719Y-100648793D01*
X175826502Y-100745884D01*
X175806000Y-100848955D01*
X174729083Y-100848955D01*
X174700555Y-100780083D01*
X174628490Y-100672231D01*
X174536769Y-100580510D01*
X174428917Y-100508445D01*
X174309077Y-100458806D01*
X174181857Y-100433500D01*
X174052143Y-100433500D01*
X173924923Y-100458806D01*
X173805083Y-100508445D01*
X173697231Y-100580510D01*
X173605510Y-100672231D01*
X173533445Y-100780083D01*
X173483806Y-100899923D01*
X173458500Y-101027143D01*
X167250110Y-101027143D01*
X167263998Y-100993616D01*
X167284500Y-100890545D01*
X167284500Y-100785455D01*
X167263998Y-100682384D01*
X167223781Y-100585293D01*
X167165396Y-100497914D01*
X167091086Y-100423604D01*
X167003707Y-100365219D01*
X166906616Y-100325002D01*
X166803545Y-100304500D01*
X166698455Y-100304500D01*
X166595384Y-100325002D01*
X166498293Y-100365219D01*
X166410914Y-100423604D01*
X166336604Y-100497914D01*
X166278219Y-100585293D01*
X166238002Y-100682384D01*
X166217500Y-100785455D01*
X166217500Y-100890545D01*
X166238002Y-100993616D01*
X166278219Y-101090707D01*
X166336604Y-101178086D01*
X166410914Y-101252396D01*
X166498293Y-101310781D01*
X166543902Y-101329673D01*
X166474414Y-101376104D01*
X166400104Y-101450414D01*
X166341719Y-101537793D01*
X166301502Y-101634884D01*
X166281000Y-101737955D01*
X166281000Y-101843045D01*
X166301502Y-101946116D01*
X166341719Y-102043207D01*
X166400104Y-102130586D01*
X166474414Y-102204896D01*
X166561793Y-102263281D01*
X166601380Y-102279679D01*
X166531884Y-102293502D01*
X166434793Y-102333719D01*
X166347414Y-102392104D01*
X166273104Y-102466414D01*
X166214719Y-102553793D01*
X166174502Y-102650884D01*
X166154000Y-102753955D01*
X158965137Y-102753955D01*
X159026586Y-102712896D01*
X159100896Y-102638586D01*
X159159281Y-102551207D01*
X159199498Y-102454116D01*
X159220000Y-102351045D01*
X159220000Y-102245955D01*
X159199498Y-102142884D01*
X159159281Y-102045793D01*
X159100896Y-101958414D01*
X159026586Y-101884104D01*
X158939207Y-101825719D01*
X158842116Y-101785502D01*
X158739045Y-101765000D01*
X158633955Y-101765000D01*
X158530884Y-101785502D01*
X158433793Y-101825719D01*
X158346414Y-101884104D01*
X158272104Y-101958414D01*
X158213719Y-102045793D01*
X158173502Y-102142884D01*
X158153000Y-102245955D01*
X155743167Y-102245955D01*
X155793781Y-102170207D01*
X155833998Y-102073116D01*
X155854500Y-101970045D01*
X155854500Y-101864955D01*
X155833998Y-101761884D01*
X155793781Y-101664793D01*
X155735396Y-101577414D01*
X155661086Y-101503104D01*
X155573707Y-101444719D01*
X155476616Y-101404502D01*
X155373545Y-101384000D01*
X155268455Y-101384000D01*
X155165384Y-101404502D01*
X155068293Y-101444719D01*
X154980914Y-101503104D01*
X154906604Y-101577414D01*
X154848219Y-101664793D01*
X154808002Y-101761884D01*
X154787500Y-101864955D01*
X148930637Y-101864955D01*
X148942997Y-101835117D01*
X148963499Y-101732046D01*
X148963499Y-101626956D01*
X148942997Y-101523885D01*
X148902780Y-101426794D01*
X148844395Y-101339415D01*
X148770085Y-101265105D01*
X148682706Y-101206720D01*
X148585615Y-101166503D01*
X148482544Y-101146001D01*
X148377454Y-101146001D01*
X148274383Y-101166503D01*
X148177292Y-101206720D01*
X148089913Y-101265105D01*
X148015603Y-101339415D01*
X147957218Y-101426794D01*
X147917001Y-101523885D01*
X147896499Y-101626956D01*
X146559173Y-101626956D01*
X146552322Y-101573901D01*
X146431175Y-101214063D01*
X146307200Y-100982123D01*
X146015123Y-100849089D01*
X144855212Y-102009000D01*
X144474788Y-102009000D01*
X144460646Y-101994858D01*
X144650858Y-101804646D01*
X144665000Y-101818788D01*
X145761833Y-100721955D01*
X154787500Y-100721955D01*
X154787500Y-100827045D01*
X154808002Y-100930116D01*
X154848219Y-101027207D01*
X154906604Y-101114586D01*
X154980914Y-101188896D01*
X155068293Y-101247281D01*
X155165384Y-101287498D01*
X155268455Y-101308000D01*
X155373545Y-101308000D01*
X155476616Y-101287498D01*
X155573707Y-101247281D01*
X155661086Y-101188896D01*
X155735396Y-101114586D01*
X155793781Y-101027207D01*
X155833998Y-100930116D01*
X155854500Y-100827045D01*
X155854500Y-100721955D01*
X155833998Y-100618884D01*
X155793781Y-100521793D01*
X155735396Y-100434414D01*
X155661086Y-100360104D01*
X155573707Y-100301719D01*
X155476616Y-100261502D01*
X155373545Y-100241000D01*
X155268455Y-100241000D01*
X155165384Y-100261502D01*
X155068293Y-100301719D01*
X154980914Y-100360104D01*
X154906604Y-100434414D01*
X154848219Y-100521793D01*
X154808002Y-100618884D01*
X154787500Y-100721955D01*
X145761833Y-100721955D01*
X145824911Y-100658877D01*
X145691877Y-100366800D01*
X145351768Y-100198021D01*
X144985268Y-100098837D01*
X144606459Y-100073058D01*
X144229901Y-100121678D01*
X143870063Y-100242825D01*
X143638123Y-100366800D01*
X143505090Y-100658876D01*
X143478782Y-100632568D01*
X143522275Y-100527566D01*
X143598500Y-100144358D01*
X143598500Y-99753642D01*
X143522275Y-99370434D01*
X143372755Y-99009461D01*
X143155685Y-98684593D01*
X142879407Y-98408315D01*
X142554539Y-98191245D01*
X142193566Y-98041725D01*
X141810358Y-97965500D01*
X141419642Y-97965500D01*
X141036434Y-98041725D01*
X140675461Y-98191245D01*
X140350593Y-98408315D01*
X140074315Y-98684593D01*
X139857245Y-99009461D01*
X139707725Y-99370434D01*
X139631500Y-99753642D01*
X137744584Y-99753642D01*
X137727495Y-99728067D01*
X137545933Y-99546505D01*
X137332439Y-99403853D01*
X137095217Y-99305593D01*
X136843384Y-99255500D01*
X136586616Y-99255500D01*
X136334783Y-99305593D01*
X136097561Y-99403853D01*
X135884067Y-99546505D01*
X135702505Y-99728067D01*
X135559853Y-99941561D01*
X135461593Y-100178783D01*
X135411500Y-100430616D01*
X134012500Y-100430616D01*
X134012500Y-97890616D01*
X136931500Y-97890616D01*
X136931500Y-98147384D01*
X136981593Y-98399217D01*
X137079853Y-98636439D01*
X137222505Y-98849933D01*
X137404067Y-99031495D01*
X137617561Y-99174147D01*
X137854783Y-99272407D01*
X138106616Y-99322500D01*
X138363384Y-99322500D01*
X138615217Y-99272407D01*
X138852439Y-99174147D01*
X139065933Y-99031495D01*
X139247495Y-98849933D01*
X139390147Y-98636439D01*
X139488407Y-98399217D01*
X139538500Y-98147384D01*
X139538500Y-97890616D01*
X139506353Y-97729000D01*
X146644766Y-97729000D01*
X146644766Y-99629000D01*
X146651688Y-99699278D01*
X146672187Y-99766856D01*
X146705476Y-99829135D01*
X146750276Y-99883724D01*
X146804865Y-99928524D01*
X146867144Y-99961813D01*
X146934722Y-99982312D01*
X147005000Y-99989234D01*
X148905000Y-99989234D01*
X148975278Y-99982312D01*
X149042856Y-99961813D01*
X149105135Y-99928524D01*
X149159724Y-99883724D01*
X149204524Y-99829135D01*
X149237813Y-99766856D01*
X149258312Y-99699278D01*
X149265234Y-99629000D01*
X149265234Y-99439643D01*
X166029000Y-99439643D01*
X166029000Y-99569357D01*
X166054306Y-99696577D01*
X166103945Y-99816417D01*
X166176010Y-99924269D01*
X166267731Y-100015990D01*
X166375583Y-100088055D01*
X166495423Y-100137694D01*
X166622643Y-100163000D01*
X166752357Y-100163000D01*
X166879577Y-100137694D01*
X166999417Y-100088055D01*
X167107269Y-100015990D01*
X167112116Y-100011143D01*
X169394500Y-100011143D01*
X169394500Y-100140857D01*
X169419806Y-100268077D01*
X169469445Y-100387917D01*
X169541510Y-100495769D01*
X169633231Y-100587490D01*
X169741083Y-100659555D01*
X169860923Y-100709194D01*
X169988143Y-100734500D01*
X170117857Y-100734500D01*
X170245077Y-100709194D01*
X170364917Y-100659555D01*
X170472769Y-100587490D01*
X170564490Y-100495769D01*
X170636555Y-100387917D01*
X170686194Y-100268077D01*
X170711500Y-100140857D01*
X170711500Y-100011143D01*
X170686194Y-99883923D01*
X170636555Y-99764083D01*
X170564490Y-99656231D01*
X170472769Y-99564510D01*
X170364917Y-99492445D01*
X170245077Y-99442806D01*
X170117857Y-99417500D01*
X169988143Y-99417500D01*
X169860923Y-99442806D01*
X169741083Y-99492445D01*
X169633231Y-99564510D01*
X169541510Y-99656231D01*
X169469445Y-99764083D01*
X169419806Y-99883923D01*
X169394500Y-100011143D01*
X167112116Y-100011143D01*
X167198990Y-99924269D01*
X167271055Y-99816417D01*
X167320694Y-99696577D01*
X167346000Y-99569357D01*
X167346000Y-99439643D01*
X167320694Y-99312423D01*
X167271055Y-99192583D01*
X167198990Y-99084731D01*
X167107269Y-98993010D01*
X166999417Y-98920945D01*
X166879577Y-98871306D01*
X166752357Y-98846000D01*
X166622643Y-98846000D01*
X166495423Y-98871306D01*
X166375583Y-98920945D01*
X166267731Y-98993010D01*
X166176010Y-99084731D01*
X166103945Y-99192583D01*
X166054306Y-99312423D01*
X166029000Y-99439643D01*
X149265234Y-99439643D01*
X149265234Y-98807500D01*
X167568464Y-98807500D01*
X167580580Y-98930511D01*
X167616461Y-99048796D01*
X167674728Y-99157807D01*
X167753144Y-99253356D01*
X167848693Y-99331772D01*
X167957704Y-99390039D01*
X168075989Y-99425920D01*
X168199000Y-99438036D01*
X168482625Y-99435000D01*
X168639500Y-99278125D01*
X168639500Y-98242000D01*
X167728375Y-98242000D01*
X167571500Y-98398875D01*
X167568464Y-98807500D01*
X149265234Y-98807500D01*
X149265234Y-97859357D01*
X149335423Y-98028807D01*
X149478622Y-98243120D01*
X149660880Y-98425378D01*
X149875193Y-98568577D01*
X150113325Y-98667215D01*
X150366124Y-98717500D01*
X150623876Y-98717500D01*
X150876675Y-98667215D01*
X151114807Y-98568577D01*
X151329120Y-98425378D01*
X151511378Y-98243120D01*
X151654577Y-98028807D01*
X151753215Y-97790675D01*
X151803500Y-97537876D01*
X151803500Y-97280124D01*
X151753215Y-97027325D01*
X151654577Y-96789193D01*
X151511378Y-96574880D01*
X151457998Y-96521500D01*
X167568464Y-96521500D01*
X167580580Y-96644511D01*
X167616461Y-96762796D01*
X167674728Y-96871807D01*
X167750800Y-96964500D01*
X167674728Y-97057193D01*
X167616461Y-97166204D01*
X167580580Y-97284489D01*
X167568464Y-97407500D01*
X167571500Y-97816125D01*
X167728375Y-97973000D01*
X168639500Y-97973000D01*
X168639500Y-95956000D01*
X167728375Y-95956000D01*
X167571500Y-96112875D01*
X167568464Y-96521500D01*
X151457998Y-96521500D01*
X151329120Y-96392622D01*
X151114807Y-96249423D01*
X150876675Y-96150785D01*
X150817428Y-96139000D01*
X150876675Y-96127215D01*
X151114807Y-96028577D01*
X151329120Y-95885378D01*
X151511378Y-95703120D01*
X151654577Y-95488807D01*
X151753215Y-95250675D01*
X151803500Y-94997876D01*
X151803500Y-94804143D01*
X154726000Y-94804143D01*
X154726000Y-94933857D01*
X154751306Y-95061077D01*
X154800945Y-95180917D01*
X154873010Y-95288769D01*
X154964731Y-95380490D01*
X155072583Y-95452555D01*
X155192423Y-95502194D01*
X155319643Y-95527500D01*
X155449357Y-95527500D01*
X155576577Y-95502194D01*
X155696417Y-95452555D01*
X155804269Y-95380490D01*
X155895990Y-95288769D01*
X155968055Y-95180917D01*
X156017694Y-95061077D01*
X156043000Y-94933857D01*
X156043000Y-94816455D01*
X165836500Y-94816455D01*
X165836500Y-94921545D01*
X165857002Y-95024616D01*
X165897219Y-95121707D01*
X165955604Y-95209086D01*
X166029914Y-95283396D01*
X166117293Y-95341781D01*
X166214384Y-95381998D01*
X166317455Y-95402500D01*
X166422545Y-95402500D01*
X166525616Y-95381998D01*
X166622707Y-95341781D01*
X166710086Y-95283396D01*
X166784396Y-95209086D01*
X166842781Y-95121707D01*
X166882998Y-95024616D01*
X166903500Y-94921545D01*
X166903500Y-94816455D01*
X166882998Y-94713384D01*
X166842781Y-94616293D01*
X166784396Y-94528914D01*
X166710086Y-94454604D01*
X166622707Y-94396219D01*
X166525616Y-94356002D01*
X166422545Y-94335500D01*
X166317455Y-94335500D01*
X166214384Y-94356002D01*
X166117293Y-94396219D01*
X166029914Y-94454604D01*
X165955604Y-94528914D01*
X165897219Y-94616293D01*
X165857002Y-94713384D01*
X165836500Y-94816455D01*
X156043000Y-94816455D01*
X156043000Y-94804143D01*
X156017694Y-94676923D01*
X155968055Y-94557083D01*
X155895990Y-94449231D01*
X155804269Y-94357510D01*
X155696417Y-94285445D01*
X155576577Y-94235806D01*
X155449357Y-94210500D01*
X155319643Y-94210500D01*
X155192423Y-94235806D01*
X155072583Y-94285445D01*
X154964731Y-94357510D01*
X154873010Y-94449231D01*
X154800945Y-94557083D01*
X154751306Y-94676923D01*
X154726000Y-94804143D01*
X151803500Y-94804143D01*
X151803500Y-94740124D01*
X151753215Y-94487325D01*
X151654577Y-94249193D01*
X151511378Y-94034880D01*
X151329120Y-93852622D01*
X151114807Y-93709423D01*
X150876675Y-93610785D01*
X150817428Y-93599000D01*
X150876675Y-93587215D01*
X151114807Y-93488577D01*
X151329120Y-93345378D01*
X151511378Y-93163120D01*
X151654577Y-92948807D01*
X151753215Y-92710675D01*
X151803500Y-92457876D01*
X151803500Y-92200124D01*
X151753215Y-91947325D01*
X151654577Y-91709193D01*
X151609317Y-91641455D01*
X158661000Y-91641455D01*
X158661000Y-91746545D01*
X158681502Y-91849616D01*
X158721719Y-91946707D01*
X158780104Y-92034086D01*
X158854414Y-92108396D01*
X158941793Y-92166781D01*
X159038884Y-92206998D01*
X159141955Y-92227500D01*
X159247045Y-92227500D01*
X159350116Y-92206998D01*
X159447207Y-92166781D01*
X159534586Y-92108396D01*
X159608896Y-92034086D01*
X159667281Y-91946707D01*
X159707498Y-91849616D01*
X159728000Y-91746545D01*
X159728000Y-91641455D01*
X159707498Y-91538384D01*
X159667281Y-91441293D01*
X159608896Y-91353914D01*
X159534586Y-91279604D01*
X159447207Y-91221219D01*
X159350116Y-91181002D01*
X159247045Y-91160500D01*
X159141955Y-91160500D01*
X159038884Y-91181002D01*
X158941793Y-91221219D01*
X158854414Y-91279604D01*
X158780104Y-91353914D01*
X158721719Y-91441293D01*
X158681502Y-91538384D01*
X158661000Y-91641455D01*
X151609317Y-91641455D01*
X151511378Y-91494880D01*
X151329120Y-91312622D01*
X151183960Y-91215629D01*
X151314545Y-91145831D01*
X151405337Y-90889549D01*
X150495000Y-89979212D01*
X149584663Y-90889549D01*
X149675455Y-91145831D01*
X149812581Y-91211259D01*
X149660880Y-91312622D01*
X149478622Y-91494880D01*
X149335423Y-91709193D01*
X149236785Y-91947325D01*
X149186500Y-92200124D01*
X149186500Y-92457876D01*
X149236785Y-92710675D01*
X149335423Y-92948807D01*
X149478622Y-93163120D01*
X149660880Y-93345378D01*
X149875193Y-93488577D01*
X150113325Y-93587215D01*
X150172572Y-93599000D01*
X150113325Y-93610785D01*
X149875193Y-93709423D01*
X149660880Y-93852622D01*
X149478622Y-94034880D01*
X149335423Y-94249193D01*
X149236785Y-94487325D01*
X149186500Y-94740124D01*
X149186500Y-94997876D01*
X149236785Y-95250675D01*
X149335423Y-95488807D01*
X149478622Y-95703120D01*
X149660880Y-95885378D01*
X149875193Y-96028577D01*
X150113325Y-96127215D01*
X150172572Y-96139000D01*
X150113325Y-96150785D01*
X149875193Y-96249423D01*
X149660880Y-96392622D01*
X149478622Y-96574880D01*
X149335423Y-96789193D01*
X149236785Y-97027325D01*
X149186500Y-97280124D01*
X149186500Y-97506903D01*
X149159724Y-97474276D01*
X149105135Y-97429476D01*
X149042856Y-97396187D01*
X148975278Y-97375688D01*
X148905000Y-97368766D01*
X148405357Y-97368766D01*
X148574807Y-97298577D01*
X148789120Y-97155378D01*
X148971378Y-96973120D01*
X149114577Y-96758807D01*
X149213215Y-96520675D01*
X149263500Y-96267876D01*
X149263500Y-96010124D01*
X149213215Y-95757325D01*
X149114577Y-95519193D01*
X148971378Y-95304880D01*
X148789120Y-95122622D01*
X148574807Y-94979423D01*
X148336675Y-94880785D01*
X148277428Y-94869000D01*
X148336675Y-94857215D01*
X148574807Y-94758577D01*
X148789120Y-94615378D01*
X148971378Y-94433120D01*
X149114577Y-94218807D01*
X149213215Y-93980675D01*
X149263500Y-93727876D01*
X149263500Y-93470124D01*
X149213215Y-93217325D01*
X149114577Y-92979193D01*
X148971378Y-92764880D01*
X148789120Y-92582622D01*
X148574807Y-92439423D01*
X148336675Y-92340785D01*
X148277428Y-92329000D01*
X148336675Y-92317215D01*
X148574807Y-92218577D01*
X148789120Y-92075378D01*
X148971378Y-91893120D01*
X149114577Y-91678807D01*
X149213215Y-91440675D01*
X149263500Y-91187876D01*
X149263500Y-90930124D01*
X149213215Y-90677325D01*
X149192732Y-90627875D01*
X149394451Y-90699337D01*
X150304788Y-89789000D01*
X150685212Y-89789000D01*
X151595549Y-90699337D01*
X151851831Y-90608545D01*
X151985645Y-90328093D01*
X152039169Y-90117455D01*
X161264500Y-90117455D01*
X161264500Y-90222545D01*
X161285002Y-90325616D01*
X161325219Y-90422707D01*
X161383604Y-90510086D01*
X161457914Y-90584396D01*
X161545293Y-90642781D01*
X161642384Y-90682998D01*
X161745455Y-90703500D01*
X161850545Y-90703500D01*
X161953616Y-90682998D01*
X162050707Y-90642781D01*
X162138086Y-90584396D01*
X162160527Y-90561955D01*
X165455500Y-90561955D01*
X165455500Y-90667045D01*
X165476002Y-90770116D01*
X165516219Y-90867207D01*
X165574604Y-90954586D01*
X165648914Y-91028896D01*
X165736293Y-91087281D01*
X165833384Y-91127498D01*
X165936455Y-91148000D01*
X166041545Y-91148000D01*
X166144616Y-91127498D01*
X166238426Y-91088640D01*
X166278219Y-91184707D01*
X166336604Y-91272086D01*
X166410914Y-91346396D01*
X166498293Y-91404781D01*
X166595384Y-91444998D01*
X166698455Y-91465500D01*
X166803545Y-91465500D01*
X166842938Y-91457664D01*
X166809502Y-91538384D01*
X166789000Y-91641455D01*
X166789000Y-91746545D01*
X166809502Y-91849616D01*
X166849719Y-91946707D01*
X166908104Y-92034086D01*
X166982414Y-92108396D01*
X167069793Y-92166781D01*
X167166884Y-92206998D01*
X167269955Y-92227500D01*
X167375045Y-92227500D01*
X167478116Y-92206998D01*
X167575207Y-92166781D01*
X167603451Y-92147909D01*
X167616461Y-92190796D01*
X167674728Y-92299807D01*
X167750800Y-92392500D01*
X167674728Y-92485193D01*
X167616461Y-92594204D01*
X167580580Y-92712489D01*
X167568464Y-92835500D01*
X167570743Y-93142216D01*
X167514357Y-93131000D01*
X167384643Y-93131000D01*
X167257423Y-93156306D01*
X167137583Y-93205945D01*
X167029731Y-93278010D01*
X166938010Y-93369731D01*
X166865945Y-93477583D01*
X166816306Y-93597423D01*
X166791000Y-93724643D01*
X166791000Y-93854357D01*
X166816306Y-93981577D01*
X166865945Y-94101417D01*
X166938010Y-94209269D01*
X167029731Y-94300990D01*
X167137583Y-94373055D01*
X167257423Y-94422694D01*
X167384643Y-94448000D01*
X167514357Y-94448000D01*
X167602413Y-94430484D01*
X167616461Y-94476796D01*
X167674728Y-94585807D01*
X167750800Y-94678500D01*
X167674728Y-94771193D01*
X167616461Y-94880204D01*
X167580580Y-94998489D01*
X167568464Y-95121500D01*
X167571500Y-95530125D01*
X167728375Y-95687000D01*
X168639500Y-95687000D01*
X168639500Y-93670000D01*
X168619500Y-93670000D01*
X168619500Y-93401000D01*
X168639500Y-93401000D01*
X168639500Y-91384000D01*
X168619500Y-91384000D01*
X168619500Y-91115000D01*
X168639500Y-91115000D01*
X168639500Y-90078875D01*
X168908500Y-90078875D01*
X168908500Y-91115000D01*
X168928500Y-91115000D01*
X168928500Y-91384000D01*
X168908500Y-91384000D01*
X168908500Y-93401000D01*
X168928500Y-93401000D01*
X168928500Y-93670000D01*
X168908500Y-93670000D01*
X168908500Y-95687000D01*
X168928500Y-95687000D01*
X168928500Y-95956000D01*
X168908500Y-95956000D01*
X168908500Y-97973000D01*
X168928500Y-97973000D01*
X168928500Y-98242000D01*
X168908500Y-98242000D01*
X168908500Y-99278125D01*
X169065375Y-99435000D01*
X169349000Y-99438036D01*
X169472011Y-99425920D01*
X169590296Y-99390039D01*
X169699307Y-99331772D01*
X169794856Y-99253356D01*
X169873272Y-99157807D01*
X169931539Y-99048796D01*
X169967420Y-98930511D01*
X169974010Y-98863603D01*
X169991609Y-98896528D01*
X170067499Y-98989001D01*
X170159972Y-99064891D01*
X170265473Y-99121283D01*
X170379948Y-99156009D01*
X170498999Y-99167734D01*
X170500461Y-99167734D01*
X170606696Y-99199960D01*
X170824000Y-99221363D01*
X171041303Y-99199960D01*
X171147538Y-99167734D01*
X171149001Y-99167734D01*
X171268052Y-99156009D01*
X171382527Y-99121283D01*
X171488028Y-99064891D01*
X171580501Y-98989001D01*
X171656391Y-98896528D01*
X171703977Y-98807500D01*
X174680464Y-98807500D01*
X174692580Y-98930511D01*
X174728461Y-99048796D01*
X174786728Y-99157807D01*
X174865144Y-99253356D01*
X174960693Y-99331772D01*
X175069704Y-99390039D01*
X175187989Y-99425920D01*
X175311000Y-99438036D01*
X175594625Y-99435000D01*
X175751500Y-99278125D01*
X175751500Y-98242000D01*
X174840375Y-98242000D01*
X174683500Y-98398875D01*
X174680464Y-98807500D01*
X171703977Y-98807500D01*
X171712783Y-98791027D01*
X171722010Y-98760609D01*
X171750143Y-98726329D01*
X171853075Y-98533757D01*
X171916460Y-98324804D01*
X171932500Y-98161950D01*
X171932500Y-96521500D01*
X174680464Y-96521500D01*
X174692580Y-96644511D01*
X174728461Y-96762796D01*
X174786728Y-96871807D01*
X174862800Y-96964500D01*
X174786728Y-97057193D01*
X174728461Y-97166204D01*
X174692580Y-97284489D01*
X174680464Y-97407500D01*
X174683500Y-97816125D01*
X174840375Y-97973000D01*
X175751500Y-97973000D01*
X175751500Y-95956000D01*
X174840375Y-95956000D01*
X174683500Y-96112875D01*
X174680464Y-96521500D01*
X171932500Y-96521500D01*
X171932500Y-94235500D01*
X174680464Y-94235500D01*
X174692580Y-94358511D01*
X174728461Y-94476796D01*
X174786728Y-94585807D01*
X174862800Y-94678500D01*
X174786728Y-94771193D01*
X174728461Y-94880204D01*
X174692580Y-94998489D01*
X174680464Y-95121500D01*
X174683500Y-95530125D01*
X174840375Y-95687000D01*
X175751500Y-95687000D01*
X175751500Y-93670000D01*
X174840375Y-93670000D01*
X174683500Y-93826875D01*
X174680464Y-94235500D01*
X171932500Y-94235500D01*
X171932500Y-91949500D01*
X174680464Y-91949500D01*
X174692580Y-92072511D01*
X174728461Y-92190796D01*
X174786728Y-92299807D01*
X174862800Y-92392500D01*
X174786728Y-92485193D01*
X174728461Y-92594204D01*
X174692580Y-92712489D01*
X174680464Y-92835500D01*
X174683500Y-93244125D01*
X174840375Y-93401000D01*
X175751500Y-93401000D01*
X175751500Y-91384000D01*
X174840375Y-91384000D01*
X174683500Y-91540875D01*
X174680464Y-91949500D01*
X171932500Y-91949500D01*
X171932500Y-91539090D01*
X171970960Y-91412304D01*
X171987000Y-91249450D01*
X171992363Y-91195000D01*
X171987000Y-91140550D01*
X171987000Y-90549500D01*
X174680464Y-90549500D01*
X174683500Y-90958125D01*
X174840375Y-91115000D01*
X175751500Y-91115000D01*
X175751500Y-90078875D01*
X176020500Y-90078875D01*
X176020500Y-91115000D01*
X176040500Y-91115000D01*
X176040500Y-91384000D01*
X176020500Y-91384000D01*
X176020500Y-93401000D01*
X176040500Y-93401000D01*
X176040500Y-93670000D01*
X176020500Y-93670000D01*
X176020500Y-95687000D01*
X176040500Y-95687000D01*
X176040500Y-95956000D01*
X176020500Y-95956000D01*
X176020500Y-97973000D01*
X176040500Y-97973000D01*
X176040500Y-98242000D01*
X176020500Y-98242000D01*
X176020500Y-99278125D01*
X176177375Y-99435000D01*
X176461000Y-99438036D01*
X176584011Y-99425920D01*
X176702296Y-99390039D01*
X176811307Y-99331772D01*
X176906856Y-99253356D01*
X176985272Y-99157807D01*
X177043539Y-99048796D01*
X177079420Y-98930511D01*
X177086010Y-98863603D01*
X177103609Y-98896528D01*
X177179499Y-98989001D01*
X177271972Y-99064891D01*
X177377473Y-99121283D01*
X177491948Y-99156009D01*
X177610999Y-99167734D01*
X177612461Y-99167734D01*
X177718696Y-99199960D01*
X177936000Y-99221363D01*
X178153303Y-99199960D01*
X178259538Y-99167734D01*
X178261001Y-99167734D01*
X178380052Y-99156009D01*
X178494527Y-99121283D01*
X178600028Y-99064891D01*
X178692501Y-98989001D01*
X178768391Y-98896528D01*
X178824783Y-98791027D01*
X178834010Y-98760609D01*
X178862143Y-98726329D01*
X178965075Y-98533757D01*
X179028460Y-98324804D01*
X179044500Y-98161950D01*
X179044500Y-91195050D01*
X179028460Y-91032196D01*
X178965075Y-90823243D01*
X178862143Y-90630671D01*
X178834010Y-90596391D01*
X178824783Y-90565973D01*
X178768391Y-90460472D01*
X178692501Y-90367999D01*
X178600028Y-90292109D01*
X178494527Y-90235717D01*
X178380052Y-90200991D01*
X178261001Y-90189266D01*
X178259539Y-90189266D01*
X178153304Y-90157040D01*
X177936000Y-90135637D01*
X177718697Y-90157040D01*
X177612462Y-90189266D01*
X177610999Y-90189266D01*
X177491948Y-90200991D01*
X177377473Y-90235717D01*
X177271972Y-90292109D01*
X177179499Y-90367999D01*
X177103609Y-90460472D01*
X177086010Y-90493397D01*
X177079420Y-90426489D01*
X177043539Y-90308204D01*
X176985272Y-90199193D01*
X176906856Y-90103644D01*
X176811307Y-90025228D01*
X176702296Y-89966961D01*
X176584011Y-89931080D01*
X176461000Y-89918964D01*
X176177375Y-89922000D01*
X176020500Y-90078875D01*
X175751500Y-90078875D01*
X175594625Y-89922000D01*
X175311000Y-89918964D01*
X175187989Y-89931080D01*
X175069704Y-89966961D01*
X174960693Y-90025228D01*
X174865144Y-90103644D01*
X174786728Y-90199193D01*
X174728461Y-90308204D01*
X174692580Y-90426489D01*
X174680464Y-90549500D01*
X171987000Y-90549500D01*
X171987000Y-89418955D01*
X173139000Y-89418955D01*
X173139000Y-89524045D01*
X173159502Y-89627116D01*
X173199719Y-89724207D01*
X173258104Y-89811586D01*
X173332414Y-89885896D01*
X173419793Y-89944281D01*
X173516884Y-89984498D01*
X173619955Y-90005000D01*
X173725045Y-90005000D01*
X173828116Y-89984498D01*
X173925207Y-89944281D01*
X174012586Y-89885896D01*
X174086896Y-89811586D01*
X174145281Y-89724207D01*
X174185498Y-89627116D01*
X174206000Y-89524045D01*
X174206000Y-89418955D01*
X174185498Y-89315884D01*
X174145281Y-89218793D01*
X174086896Y-89131414D01*
X174012586Y-89057104D01*
X173925207Y-88998719D01*
X173828116Y-88958502D01*
X173725045Y-88938000D01*
X173619955Y-88938000D01*
X173516884Y-88958502D01*
X173419793Y-88998719D01*
X173332414Y-89057104D01*
X173258104Y-89131414D01*
X173199719Y-89218793D01*
X173159502Y-89315884D01*
X173139000Y-89418955D01*
X171987000Y-89418955D01*
X171987000Y-87067550D01*
X171970960Y-86904696D01*
X171907575Y-86695743D01*
X171804643Y-86503171D01*
X171666120Y-86334380D01*
X171497329Y-86195857D01*
X171304756Y-86092925D01*
X171095803Y-86029540D01*
X170878500Y-86008137D01*
X170661196Y-86029540D01*
X170452243Y-86092925D01*
X170259671Y-86195857D01*
X170090880Y-86334380D01*
X169952357Y-86503171D01*
X169849425Y-86695744D01*
X169786040Y-86904697D01*
X169770000Y-87067551D01*
X169770001Y-90083246D01*
X169699307Y-90025228D01*
X169590296Y-89966961D01*
X169472011Y-89931080D01*
X169349000Y-89918964D01*
X169065375Y-89922000D01*
X168908500Y-90078875D01*
X168639500Y-90078875D01*
X168482625Y-89922000D01*
X168199000Y-89918964D01*
X168075989Y-89931080D01*
X167957704Y-89966961D01*
X167848693Y-90025228D01*
X167753144Y-90103644D01*
X167674728Y-90199193D01*
X167616461Y-90308204D01*
X167580580Y-90426489D01*
X167568464Y-90549500D01*
X167571500Y-90958125D01*
X167728373Y-91114998D01*
X167571500Y-91114998D01*
X167571500Y-91219683D01*
X167478116Y-91181002D01*
X167375045Y-91160500D01*
X167269955Y-91160500D01*
X167230562Y-91168336D01*
X167263998Y-91087616D01*
X167284500Y-90984545D01*
X167284500Y-90879455D01*
X167263998Y-90776384D01*
X167223781Y-90679293D01*
X167165396Y-90591914D01*
X167091086Y-90517604D01*
X167003707Y-90459219D01*
X166906616Y-90419002D01*
X166803545Y-90398500D01*
X166698455Y-90398500D01*
X166595384Y-90419002D01*
X166501574Y-90457860D01*
X166461781Y-90361793D01*
X166403396Y-90274414D01*
X166329086Y-90200104D01*
X166241707Y-90141719D01*
X166144616Y-90101502D01*
X166041545Y-90081000D01*
X165936455Y-90081000D01*
X165833384Y-90101502D01*
X165736293Y-90141719D01*
X165648914Y-90200104D01*
X165574604Y-90274414D01*
X165516219Y-90361793D01*
X165476002Y-90458884D01*
X165455500Y-90561955D01*
X162160527Y-90561955D01*
X162212396Y-90510086D01*
X162270781Y-90422707D01*
X162310998Y-90325616D01*
X162331500Y-90222545D01*
X162331500Y-90117455D01*
X162310998Y-90014384D01*
X162270781Y-89917293D01*
X162212396Y-89829914D01*
X162197461Y-89814979D01*
X162267956Y-89829001D01*
X162373046Y-89829001D01*
X162476117Y-89808499D01*
X162573208Y-89768282D01*
X162660587Y-89709897D01*
X162734897Y-89635587D01*
X162793282Y-89548208D01*
X162833499Y-89451117D01*
X162854001Y-89348046D01*
X162854001Y-89242956D01*
X162833499Y-89139885D01*
X162793282Y-89042794D01*
X162734897Y-88955415D01*
X162674989Y-88895507D01*
X162715281Y-88835207D01*
X162755498Y-88738116D01*
X162776000Y-88635045D01*
X162776000Y-88529955D01*
X162755498Y-88426884D01*
X162715281Y-88329793D01*
X162656896Y-88242414D01*
X162582586Y-88168104D01*
X162495207Y-88109719D01*
X162398116Y-88069502D01*
X162295045Y-88049000D01*
X162189955Y-88049000D01*
X162086884Y-88069502D01*
X161989793Y-88109719D01*
X161902414Y-88168104D01*
X161828104Y-88242414D01*
X161769719Y-88329793D01*
X161729502Y-88426884D01*
X161709000Y-88529955D01*
X161709000Y-88635045D01*
X161729502Y-88738116D01*
X161769719Y-88835207D01*
X161828104Y-88922586D01*
X161888012Y-88982494D01*
X161847720Y-89042794D01*
X161807503Y-89139885D01*
X161787001Y-89242956D01*
X161787001Y-89348046D01*
X161807503Y-89451117D01*
X161847720Y-89548208D01*
X161906105Y-89635587D01*
X161921040Y-89650522D01*
X161850545Y-89636500D01*
X161745455Y-89636500D01*
X161642384Y-89657002D01*
X161545293Y-89697219D01*
X161457914Y-89755604D01*
X161383604Y-89829914D01*
X161325219Y-89917293D01*
X161285002Y-90014384D01*
X161264500Y-90117455D01*
X152039169Y-90117455D01*
X152062174Y-90026924D01*
X152078478Y-89716612D01*
X152033930Y-89409082D01*
X151930241Y-89116152D01*
X151851831Y-88969455D01*
X151686701Y-88910955D01*
X155740000Y-88910955D01*
X155740000Y-89016045D01*
X155760502Y-89119116D01*
X155800719Y-89216207D01*
X155859104Y-89303586D01*
X155933414Y-89377896D01*
X156020793Y-89436281D01*
X156117884Y-89476498D01*
X156220955Y-89497000D01*
X156326045Y-89497000D01*
X156429116Y-89476498D01*
X156526207Y-89436281D01*
X156613586Y-89377896D01*
X156687896Y-89303586D01*
X156746281Y-89216207D01*
X156786498Y-89119116D01*
X156807000Y-89016045D01*
X156807000Y-88910955D01*
X156786498Y-88807884D01*
X156746281Y-88710793D01*
X156687896Y-88623414D01*
X156613586Y-88549104D01*
X156526207Y-88490719D01*
X156429116Y-88450502D01*
X156326045Y-88430000D01*
X156220955Y-88430000D01*
X156117884Y-88450502D01*
X156020793Y-88490719D01*
X155933414Y-88549104D01*
X155859104Y-88623414D01*
X155800719Y-88710793D01*
X155760502Y-88807884D01*
X155740000Y-88910955D01*
X151686701Y-88910955D01*
X151595549Y-88878663D01*
X150685212Y-89789000D01*
X150304788Y-89789000D01*
X149394451Y-88878663D01*
X149138169Y-88969455D01*
X149004355Y-89249907D01*
X148927826Y-89551076D01*
X148911522Y-89861388D01*
X148956070Y-90168918D01*
X148980950Y-90239205D01*
X148971378Y-90224880D01*
X148789120Y-90042622D01*
X148574807Y-89899423D01*
X148336675Y-89800785D01*
X148083876Y-89750500D01*
X147826124Y-89750500D01*
X147573325Y-89800785D01*
X147335193Y-89899423D01*
X147120880Y-90042622D01*
X146938622Y-90224880D01*
X146795423Y-90439193D01*
X146696785Y-90677325D01*
X146646500Y-90930124D01*
X146646500Y-91187876D01*
X146696785Y-91440675D01*
X146795423Y-91678807D01*
X146938622Y-91893120D01*
X147120880Y-92075378D01*
X147335193Y-92218577D01*
X147573325Y-92317215D01*
X147632572Y-92329000D01*
X147573325Y-92340785D01*
X147335193Y-92439423D01*
X147120880Y-92582622D01*
X146938622Y-92764880D01*
X146795423Y-92979193D01*
X146696785Y-93217325D01*
X146646500Y-93470124D01*
X146646500Y-93727876D01*
X146696785Y-93980675D01*
X146795423Y-94218807D01*
X146938622Y-94433120D01*
X147120880Y-94615378D01*
X147335193Y-94758577D01*
X147573325Y-94857215D01*
X147632572Y-94869000D01*
X147573325Y-94880785D01*
X147335193Y-94979423D01*
X147120880Y-95122622D01*
X146938622Y-95304880D01*
X146795423Y-95519193D01*
X146696785Y-95757325D01*
X146646500Y-96010124D01*
X146646500Y-96267876D01*
X146696785Y-96520675D01*
X146795423Y-96758807D01*
X146938622Y-96973120D01*
X147120880Y-97155378D01*
X147335193Y-97298577D01*
X147504643Y-97368766D01*
X147005000Y-97368766D01*
X146934722Y-97375688D01*
X146867144Y-97396187D01*
X146804865Y-97429476D01*
X146750276Y-97474276D01*
X146705476Y-97528865D01*
X146672187Y-97591144D01*
X146651688Y-97658722D01*
X146644766Y-97729000D01*
X139506353Y-97729000D01*
X139488407Y-97638783D01*
X139390147Y-97401561D01*
X139247495Y-97188067D01*
X139065933Y-97006505D01*
X138852439Y-96863853D01*
X138615217Y-96765593D01*
X138363384Y-96715500D01*
X138106616Y-96715500D01*
X137854783Y-96765593D01*
X137617561Y-96863853D01*
X137404067Y-97006505D01*
X137222505Y-97188067D01*
X137079853Y-97401561D01*
X136981593Y-97638783D01*
X136931500Y-97890616D01*
X134012500Y-97890616D01*
X134012500Y-95058143D01*
X138533500Y-95058143D01*
X138533500Y-95187857D01*
X138558806Y-95315077D01*
X138608445Y-95434917D01*
X138680510Y-95542769D01*
X138772231Y-95634490D01*
X138880083Y-95706555D01*
X138999923Y-95756194D01*
X139127143Y-95781500D01*
X139256857Y-95781500D01*
X139384077Y-95756194D01*
X139503917Y-95706555D01*
X139611769Y-95634490D01*
X139703490Y-95542769D01*
X139775555Y-95434917D01*
X139825194Y-95315077D01*
X139850500Y-95187857D01*
X139850500Y-95058143D01*
X139825194Y-94930923D01*
X139775555Y-94811083D01*
X139703490Y-94703231D01*
X139611769Y-94611510D01*
X139503917Y-94539445D01*
X139384077Y-94489806D01*
X139256857Y-94464500D01*
X139127143Y-94464500D01*
X138999923Y-94489806D01*
X138880083Y-94539445D01*
X138772231Y-94611510D01*
X138680510Y-94703231D01*
X138608445Y-94811083D01*
X138558806Y-94930923D01*
X138533500Y-95058143D01*
X134012500Y-95058143D01*
X134012500Y-90320616D01*
X135411500Y-90320616D01*
X135411500Y-90577384D01*
X135461593Y-90829217D01*
X135559853Y-91066439D01*
X135702505Y-91279933D01*
X135884067Y-91461495D01*
X136097561Y-91604147D01*
X136334783Y-91702407D01*
X136586616Y-91752500D01*
X136843384Y-91752500D01*
X137095217Y-91702407D01*
X137332439Y-91604147D01*
X137545933Y-91461495D01*
X137727495Y-91279933D01*
X137870147Y-91066439D01*
X137968407Y-90829217D01*
X138018500Y-90577384D01*
X138018500Y-90320616D01*
X137968407Y-90068783D01*
X137870147Y-89831561D01*
X137727495Y-89618067D01*
X137545933Y-89436505D01*
X137332439Y-89293853D01*
X137095217Y-89195593D01*
X136843384Y-89145500D01*
X136586616Y-89145500D01*
X136334783Y-89195593D01*
X136097561Y-89293853D01*
X135884067Y-89436505D01*
X135702505Y-89618067D01*
X135559853Y-89831561D01*
X135461593Y-90068783D01*
X135411500Y-90320616D01*
X134012500Y-90320616D01*
X134012500Y-87780616D01*
X136931500Y-87780616D01*
X136931500Y-88037384D01*
X136981593Y-88289217D01*
X137079853Y-88526439D01*
X137222505Y-88739933D01*
X137404067Y-88921495D01*
X137617561Y-89064147D01*
X137854783Y-89162407D01*
X138106616Y-89212500D01*
X138363384Y-89212500D01*
X138615217Y-89162407D01*
X138852439Y-89064147D01*
X139065933Y-88921495D01*
X139247495Y-88739933D01*
X139390147Y-88526439D01*
X139474147Y-88323642D01*
X139631500Y-88323642D01*
X139631500Y-88714358D01*
X139707725Y-89097566D01*
X139857245Y-89458539D01*
X140074315Y-89783407D01*
X140350593Y-90059685D01*
X140675461Y-90276755D01*
X141036434Y-90426275D01*
X141419642Y-90502500D01*
X141810358Y-90502500D01*
X142193566Y-90426275D01*
X142554539Y-90276755D01*
X142879407Y-90059685D01*
X143155685Y-89783407D01*
X143372755Y-89458539D01*
X143522275Y-89097566D01*
X143598500Y-88714358D01*
X143598500Y-88688451D01*
X149584663Y-88688451D01*
X150495000Y-89598788D01*
X151405337Y-88688451D01*
X151314545Y-88432169D01*
X151034093Y-88298355D01*
X150732924Y-88221826D01*
X150422612Y-88205522D01*
X150115082Y-88250070D01*
X149822152Y-88353759D01*
X149675455Y-88432169D01*
X149584663Y-88688451D01*
X143598500Y-88688451D01*
X143598500Y-88323642D01*
X143522275Y-87940434D01*
X143478782Y-87835432D01*
X143505090Y-87809124D01*
X143638123Y-88101200D01*
X143978232Y-88269979D01*
X144344732Y-88369163D01*
X144723541Y-88394942D01*
X145100099Y-88346322D01*
X145459937Y-88225175D01*
X145691877Y-88101200D01*
X145824911Y-87809123D01*
X144665000Y-86649212D01*
X144650858Y-86663354D01*
X144460646Y-86473142D01*
X144474788Y-86459000D01*
X144855212Y-86459000D01*
X146015123Y-87618911D01*
X146307200Y-87485877D01*
X146475979Y-87145768D01*
X146575163Y-86779268D01*
X146600942Y-86400459D01*
X146552322Y-86023901D01*
X146431175Y-85664063D01*
X146307200Y-85432123D01*
X146015123Y-85299089D01*
X144855212Y-86459000D01*
X144474788Y-86459000D01*
X143314877Y-85299089D01*
X143022800Y-85432123D01*
X142854021Y-85772232D01*
X142754837Y-86138732D01*
X142729058Y-86517541D01*
X142777678Y-86894099D01*
X142784734Y-86915056D01*
X142554539Y-86761245D01*
X142193566Y-86611725D01*
X141810358Y-86535500D01*
X141419642Y-86535500D01*
X141036434Y-86611725D01*
X140675461Y-86761245D01*
X140350593Y-86978315D01*
X140074315Y-87254593D01*
X139857245Y-87579461D01*
X139707725Y-87940434D01*
X139631500Y-88323642D01*
X139474147Y-88323642D01*
X139488407Y-88289217D01*
X139538500Y-88037384D01*
X139538500Y-87780616D01*
X139488407Y-87528783D01*
X139390147Y-87291561D01*
X139247495Y-87078067D01*
X139065933Y-86896505D01*
X138852439Y-86753853D01*
X138615217Y-86655593D01*
X138363384Y-86605500D01*
X138106616Y-86605500D01*
X137854783Y-86655593D01*
X137617561Y-86753853D01*
X137404067Y-86896505D01*
X137222505Y-87078067D01*
X137079853Y-87291561D01*
X136981593Y-87528783D01*
X136931500Y-87780616D01*
X134012500Y-87780616D01*
X134012500Y-85108877D01*
X143505089Y-85108877D01*
X144665000Y-86268788D01*
X145824911Y-85108877D01*
X145753364Y-84951794D01*
X152013500Y-84951794D01*
X152013500Y-85101206D01*
X152042649Y-85247746D01*
X152099826Y-85385784D01*
X152182835Y-85510016D01*
X152288484Y-85615665D01*
X152412716Y-85698674D01*
X152550754Y-85755851D01*
X152697294Y-85785000D01*
X152846706Y-85785000D01*
X152993246Y-85755851D01*
X153131284Y-85698674D01*
X153255516Y-85615665D01*
X153361165Y-85510016D01*
X153444174Y-85385784D01*
X153501351Y-85247746D01*
X153530500Y-85101206D01*
X153530500Y-84951794D01*
X153501351Y-84805254D01*
X153444174Y-84667216D01*
X153361165Y-84542984D01*
X153255516Y-84437335D01*
X153131284Y-84354326D01*
X152993246Y-84297149D01*
X152846706Y-84268000D01*
X152697294Y-84268000D01*
X152550754Y-84297149D01*
X152412716Y-84354326D01*
X152288484Y-84437335D01*
X152182835Y-84542984D01*
X152099826Y-84667216D01*
X152042649Y-84805254D01*
X152013500Y-84951794D01*
X145753364Y-84951794D01*
X145691877Y-84816800D01*
X145351768Y-84648021D01*
X144985268Y-84548837D01*
X144606459Y-84523058D01*
X144229901Y-84571678D01*
X143870063Y-84692825D01*
X143638123Y-84816800D01*
X143505089Y-85108877D01*
X134012500Y-85108877D01*
X134012500Y-82006000D01*
X135949766Y-82006000D01*
X135949766Y-83590500D01*
G37*
X135949766Y-83590500D02*
X135956688Y-83660778D01*
X135977187Y-83728356D01*
X136010476Y-83790635D01*
X136055276Y-83845224D01*
X136109865Y-83890024D01*
X136172144Y-83923313D01*
X136239722Y-83943812D01*
X136310000Y-83950734D01*
X138010000Y-83950734D01*
X138080278Y-83943812D01*
X138147856Y-83923313D01*
X138210135Y-83890024D01*
X138264724Y-83845224D01*
X138309524Y-83790635D01*
X138342813Y-83728356D01*
X138363312Y-83660778D01*
X138370234Y-83590500D01*
X138370234Y-82006000D01*
X138737327Y-82006000D01*
X138629042Y-82168061D01*
X138537942Y-82387994D01*
X138491500Y-82621473D01*
X138491500Y-82859527D01*
X138537942Y-83093006D01*
X138629042Y-83312939D01*
X138761297Y-83510874D01*
X138929626Y-83679203D01*
X139127561Y-83811458D01*
X139347494Y-83902558D01*
X139580973Y-83949000D01*
X139819027Y-83949000D01*
X140052506Y-83902558D01*
X140272439Y-83811458D01*
X140470374Y-83679203D01*
X140559077Y-83590500D01*
X150919464Y-83590500D01*
X150931580Y-83713511D01*
X150967461Y-83831796D01*
X151025728Y-83940807D01*
X151104144Y-84036356D01*
X151199693Y-84114772D01*
X151308704Y-84173039D01*
X151426989Y-84208920D01*
X151550000Y-84221036D01*
X152108625Y-84218000D01*
X152265500Y-84061125D01*
X152265500Y-82875000D01*
X152534500Y-82875000D01*
X152534500Y-84061125D01*
X152691375Y-84218000D01*
X153250000Y-84221036D01*
X153373011Y-84208920D01*
X153491296Y-84173039D01*
X153600307Y-84114772D01*
X153695856Y-84036356D01*
X153774272Y-83940807D01*
X153832539Y-83831796D01*
X153860659Y-83739094D01*
X153950839Y-83838034D01*
X154183964Y-84009921D01*
X154446143Y-84133025D01*
X154576984Y-84172710D01*
X154805500Y-84054258D01*
X154805500Y-82875000D01*
X155074500Y-82875000D01*
X155074500Y-84054258D01*
X155303016Y-84172710D01*
X155433857Y-84133025D01*
X155696036Y-84009921D01*
X155929161Y-83838034D01*
X156124273Y-83623969D01*
X156273874Y-83375953D01*
X156372215Y-83103517D01*
X156254495Y-82875000D01*
X155074500Y-82875000D01*
X154805500Y-82875000D01*
X152534500Y-82875000D01*
X152265500Y-82875000D01*
X151079375Y-82875000D01*
X150922500Y-83031875D01*
X150919464Y-83590500D01*
X140559077Y-83590500D01*
X140638703Y-83510874D01*
X140770958Y-83312939D01*
X140862058Y-83093006D01*
X140908500Y-82859527D01*
X140908500Y-82621473D01*
X140862058Y-82387994D01*
X140770958Y-82168061D01*
X140662673Y-82006000D01*
X150920092Y-82006000D01*
X150922500Y-82449125D01*
X151079375Y-82606000D01*
X152265500Y-82606000D01*
X152265500Y-82586000D01*
X152534500Y-82586000D01*
X152534500Y-82606000D01*
X154805500Y-82606000D01*
X154805500Y-82586000D01*
X155074500Y-82586000D01*
X155074500Y-82606000D01*
X156254495Y-82606000D01*
X156372215Y-82377483D01*
X156273874Y-82105047D01*
X156214130Y-82006000D01*
X179233001Y-82006000D01*
X179233000Y-109291000D01*
X160663465Y-109291000D01*
X160790374Y-109206203D01*
X160958703Y-109037874D01*
X161090958Y-108839939D01*
X161182058Y-108620006D01*
X161228500Y-108386527D01*
X161228500Y-108202643D01*
X166791000Y-108202643D01*
X166791000Y-108332357D01*
X166816306Y-108459577D01*
X166865945Y-108579417D01*
X166938010Y-108687269D01*
X167029731Y-108778990D01*
X167137583Y-108851055D01*
X167257423Y-108900694D01*
X167384643Y-108926000D01*
X167514357Y-108926000D01*
X167641577Y-108900694D01*
X167761417Y-108851055D01*
X167869269Y-108778990D01*
X167960990Y-108687269D01*
X168033055Y-108579417D01*
X168082694Y-108459577D01*
X168108000Y-108332357D01*
X168108000Y-108202643D01*
X168082694Y-108075423D01*
X168033055Y-107955583D01*
X167960990Y-107847731D01*
X167869269Y-107756010D01*
X167761417Y-107683945D01*
X167641577Y-107634306D01*
X167514357Y-107609000D01*
X167384643Y-107609000D01*
X167257423Y-107634306D01*
X167137583Y-107683945D01*
X167029731Y-107756010D01*
X166938010Y-107847731D01*
X166865945Y-107955583D01*
X166816306Y-108075423D01*
X166791000Y-108202643D01*
X161228500Y-108202643D01*
X161228500Y-108148473D01*
X161182058Y-107914994D01*
X161090958Y-107695061D01*
X160958703Y-107497126D01*
X160790374Y-107328797D01*
X160596051Y-107198955D01*
X172059500Y-107198955D01*
X172059500Y-107304045D01*
X172080002Y-107407116D01*
X172120219Y-107504207D01*
X172178604Y-107591586D01*
X172252914Y-107665896D01*
X172340293Y-107724281D01*
X172437384Y-107764498D01*
X172540455Y-107785000D01*
X172645545Y-107785000D01*
X172748616Y-107764498D01*
X172845707Y-107724281D01*
X172933086Y-107665896D01*
X173007396Y-107591586D01*
X173065781Y-107504207D01*
X173105998Y-107407116D01*
X173126500Y-107304045D01*
X173126500Y-107198955D01*
X173105998Y-107095884D01*
X173065781Y-106998793D01*
X173007396Y-106911414D01*
X172933086Y-106837104D01*
X172845707Y-106778719D01*
X172748616Y-106738502D01*
X172645545Y-106718000D01*
X172540455Y-106718000D01*
X172437384Y-106738502D01*
X172340293Y-106778719D01*
X172252914Y-106837104D01*
X172178604Y-106911414D01*
X172120219Y-106998793D01*
X172080002Y-107095884D01*
X172059500Y-107198955D01*
X160596051Y-107198955D01*
X160592439Y-107196542D01*
X160372506Y-107105442D01*
X160139027Y-107059000D01*
X159900973Y-107059000D01*
X159667494Y-107105442D01*
X159447561Y-107196542D01*
X159249626Y-107328797D01*
X159081297Y-107497126D01*
X158949042Y-107695061D01*
X158857942Y-107914994D01*
X158811500Y-108148473D01*
X158811500Y-108386527D01*
X158857942Y-108620006D01*
X158949042Y-108839939D01*
X159081297Y-109037874D01*
X159249626Y-109206203D01*
X159376535Y-109291000D01*
X158123465Y-109291000D01*
X158250374Y-109206203D01*
X158418703Y-109037874D01*
X158550958Y-108839939D01*
X158642058Y-108620006D01*
X158688500Y-108386527D01*
X158688500Y-108148473D01*
X158642058Y-107914994D01*
X158550958Y-107695061D01*
X158418703Y-107497126D01*
X158250374Y-107328797D01*
X158052439Y-107196542D01*
X157832506Y-107105442D01*
X157599027Y-107059000D01*
X157360973Y-107059000D01*
X157127494Y-107105442D01*
X156907561Y-107196542D01*
X156709626Y-107328797D01*
X156541297Y-107497126D01*
X156409042Y-107695061D01*
X156317942Y-107914994D01*
X156271500Y-108148473D01*
X156271500Y-108386527D01*
X156317942Y-108620006D01*
X156409042Y-108839939D01*
X156541297Y-109037874D01*
X156709626Y-109206203D01*
X156836535Y-109291000D01*
X155583465Y-109291000D01*
X155710374Y-109206203D01*
X155878703Y-109037874D01*
X156010958Y-108839939D01*
X156102058Y-108620006D01*
X156148500Y-108386527D01*
X156148500Y-108148473D01*
X156102058Y-107914994D01*
X156010958Y-107695061D01*
X155878703Y-107497126D01*
X155710374Y-107328797D01*
X155512439Y-107196542D01*
X155292506Y-107105442D01*
X155059027Y-107059000D01*
X154820973Y-107059000D01*
X154587494Y-107105442D01*
X154367561Y-107196542D01*
X154169626Y-107328797D01*
X154001297Y-107497126D01*
X153869042Y-107695061D01*
X153777942Y-107914994D01*
X153731500Y-108148473D01*
X153731500Y-108386527D01*
X153777942Y-108620006D01*
X153869042Y-108839939D01*
X154001297Y-109037874D01*
X154169626Y-109206203D01*
X154296535Y-109291000D01*
X153043465Y-109291000D01*
X153170374Y-109206203D01*
X153338703Y-109037874D01*
X153470958Y-108839939D01*
X153562058Y-108620006D01*
X153608500Y-108386527D01*
X153608500Y-108148473D01*
X153562058Y-107914994D01*
X153470958Y-107695061D01*
X153338703Y-107497126D01*
X153170374Y-107328797D01*
X152972439Y-107196542D01*
X152752506Y-107105442D01*
X152519027Y-107059000D01*
X152280973Y-107059000D01*
X152047494Y-107105442D01*
X151827561Y-107196542D01*
X151629626Y-107328797D01*
X151461297Y-107497126D01*
X151329042Y-107695061D01*
X151237942Y-107914994D01*
X151191500Y-108148473D01*
X151191500Y-108386527D01*
X151237942Y-108620006D01*
X151329042Y-108839939D01*
X151461297Y-109037874D01*
X151629626Y-109206203D01*
X151756535Y-109291000D01*
X150503465Y-109291000D01*
X150630374Y-109206203D01*
X150798703Y-109037874D01*
X150930958Y-108839939D01*
X151022058Y-108620006D01*
X151068500Y-108386527D01*
X151068500Y-108148473D01*
X151022058Y-107914994D01*
X150930958Y-107695061D01*
X150798703Y-107497126D01*
X150630374Y-107328797D01*
X150432439Y-107196542D01*
X150212506Y-107105442D01*
X149979027Y-107059000D01*
X149740973Y-107059000D01*
X149507494Y-107105442D01*
X149287561Y-107196542D01*
X149089626Y-107328797D01*
X148921297Y-107497126D01*
X148789042Y-107695061D01*
X148697942Y-107914994D01*
X148651500Y-108148473D01*
X148651500Y-108386527D01*
X148697942Y-108620006D01*
X148789042Y-108839939D01*
X148921297Y-109037874D01*
X149089626Y-109206203D01*
X149216535Y-109291000D01*
X147963465Y-109291000D01*
X148090374Y-109206203D01*
X148258703Y-109037874D01*
X148390958Y-108839939D01*
X148482058Y-108620006D01*
X148528500Y-108386527D01*
X148528500Y-108148473D01*
X148482058Y-107914994D01*
X148390958Y-107695061D01*
X148258703Y-107497126D01*
X148090374Y-107328797D01*
X147892439Y-107196542D01*
X147672506Y-107105442D01*
X147439027Y-107059000D01*
X147200973Y-107059000D01*
X146967494Y-107105442D01*
X146747561Y-107196542D01*
X146549626Y-107328797D01*
X146381297Y-107497126D01*
X146249042Y-107695061D01*
X146157942Y-107914994D01*
X146111500Y-108148473D01*
X146111500Y-108386527D01*
X146157942Y-108620006D01*
X146249042Y-108839939D01*
X146381297Y-109037874D01*
X146549626Y-109206203D01*
X146676535Y-109291000D01*
X145423465Y-109291000D01*
X145550374Y-109206203D01*
X145718703Y-109037874D01*
X145850958Y-108839939D01*
X145942058Y-108620006D01*
X145988500Y-108386527D01*
X145988500Y-108148473D01*
X145942058Y-107914994D01*
X145850958Y-107695061D01*
X145718703Y-107497126D01*
X145550374Y-107328797D01*
X145352439Y-107196542D01*
X145132506Y-107105442D01*
X144899027Y-107059000D01*
X144660973Y-107059000D01*
X144427494Y-107105442D01*
X144207561Y-107196542D01*
X144009626Y-107328797D01*
X143841297Y-107497126D01*
X143709042Y-107695061D01*
X143617942Y-107914994D01*
X143571500Y-108148473D01*
X143571500Y-108386527D01*
X143617942Y-108620006D01*
X143709042Y-108839939D01*
X143841297Y-109037874D01*
X144009626Y-109206203D01*
X144136535Y-109291000D01*
X142883465Y-109291000D01*
X143010374Y-109206203D01*
X143178703Y-109037874D01*
X143310958Y-108839939D01*
X143402058Y-108620006D01*
X143448500Y-108386527D01*
X143448500Y-108148473D01*
X143402058Y-107914994D01*
X143310958Y-107695061D01*
X143178703Y-107497126D01*
X143010374Y-107328797D01*
X142812439Y-107196542D01*
X142592506Y-107105442D01*
X142359027Y-107059000D01*
X142120973Y-107059000D01*
X141887494Y-107105442D01*
X141667561Y-107196542D01*
X141469626Y-107328797D01*
X141301297Y-107497126D01*
X141169042Y-107695061D01*
X141077942Y-107914994D01*
X141031500Y-108148473D01*
X141031500Y-108386527D01*
X141077942Y-108620006D01*
X141169042Y-108839939D01*
X141301297Y-109037874D01*
X141469626Y-109206203D01*
X141596535Y-109291000D01*
X140343465Y-109291000D01*
X140470374Y-109206203D01*
X140638703Y-109037874D01*
X140770958Y-108839939D01*
X140862058Y-108620006D01*
X140908500Y-108386527D01*
X140908500Y-108148473D01*
X140862058Y-107914994D01*
X140770958Y-107695061D01*
X140638703Y-107497126D01*
X140470374Y-107328797D01*
X140272439Y-107196542D01*
X140052506Y-107105442D01*
X139819027Y-107059000D01*
X139580973Y-107059000D01*
X139347494Y-107105442D01*
X139127561Y-107196542D01*
X138929626Y-107328797D01*
X138761297Y-107497126D01*
X138629042Y-107695061D01*
X138537942Y-107914994D01*
X138491500Y-108148473D01*
X138491500Y-108386527D01*
X138537942Y-108620006D01*
X138629042Y-108839939D01*
X138761297Y-109037874D01*
X138929626Y-109206203D01*
X139056535Y-109291000D01*
X137803465Y-109291000D01*
X137930374Y-109206203D01*
X138098703Y-109037874D01*
X138230958Y-108839939D01*
X138322058Y-108620006D01*
X138368500Y-108386527D01*
X138368500Y-108148473D01*
X138322058Y-107914994D01*
X138230958Y-107695061D01*
X138098703Y-107497126D01*
X137930374Y-107328797D01*
X137747506Y-107206609D01*
X138010000Y-107208036D01*
X138133011Y-107195920D01*
X138251296Y-107160039D01*
X138360307Y-107101772D01*
X138455856Y-107023356D01*
X138534272Y-106927807D01*
X138592539Y-106818796D01*
X138628420Y-106700511D01*
X138640536Y-106577500D01*
X138639109Y-106315006D01*
X138761297Y-106497874D01*
X138929626Y-106666203D01*
X139127561Y-106798458D01*
X139347494Y-106889558D01*
X139580973Y-106936000D01*
X139819027Y-106936000D01*
X140052506Y-106889558D01*
X140272439Y-106798458D01*
X140470374Y-106666203D01*
X140638703Y-106497874D01*
X140770958Y-106299939D01*
X140862058Y-106080006D01*
X140908500Y-105846527D01*
X140908500Y-105608473D01*
X141031500Y-105608473D01*
X141031500Y-105846527D01*
X141077942Y-106080006D01*
X141169042Y-106299939D01*
X141301297Y-106497874D01*
X141469626Y-106666203D01*
X141667561Y-106798458D01*
X141887494Y-106889558D01*
X142120973Y-106936000D01*
X142359027Y-106936000D01*
X142592506Y-106889558D01*
X142812439Y-106798458D01*
X143010374Y-106666203D01*
X143178703Y-106497874D01*
X143310958Y-106299939D01*
X143402058Y-106080006D01*
X143448500Y-105846527D01*
X143448500Y-105608473D01*
X143571500Y-105608473D01*
X143571500Y-105846527D01*
X143617942Y-106080006D01*
X143709042Y-106299939D01*
X143841297Y-106497874D01*
X144009626Y-106666203D01*
X144207561Y-106798458D01*
X144427494Y-106889558D01*
X144660973Y-106936000D01*
X144899027Y-106936000D01*
X145132506Y-106889558D01*
X145352439Y-106798458D01*
X145550374Y-106666203D01*
X145718703Y-106497874D01*
X145850958Y-106299939D01*
X145942058Y-106080006D01*
X145988500Y-105846527D01*
X145988500Y-105608473D01*
X146111500Y-105608473D01*
X146111500Y-105846527D01*
X146157942Y-106080006D01*
X146249042Y-106299939D01*
X146381297Y-106497874D01*
X146549626Y-106666203D01*
X146747561Y-106798458D01*
X146967494Y-106889558D01*
X147200973Y-106936000D01*
X147439027Y-106936000D01*
X147672506Y-106889558D01*
X147892439Y-106798458D01*
X148090374Y-106666203D01*
X148258703Y-106497874D01*
X148390958Y-106299939D01*
X148482058Y-106080006D01*
X148528500Y-105846527D01*
X148528500Y-105608473D01*
X148651500Y-105608473D01*
X148651500Y-105846527D01*
X148697942Y-106080006D01*
X148789042Y-106299939D01*
X148921297Y-106497874D01*
X149089626Y-106666203D01*
X149287561Y-106798458D01*
X149507494Y-106889558D01*
X149740973Y-106936000D01*
X149979027Y-106936000D01*
X150212506Y-106889558D01*
X150432439Y-106798458D01*
X150630374Y-106666203D01*
X150798703Y-106497874D01*
X150930958Y-106299939D01*
X151022058Y-106080006D01*
X151068500Y-105846527D01*
X151068500Y-105608473D01*
X151191500Y-105608473D01*
X151191500Y-105846527D01*
X151237942Y-106080006D01*
X151329042Y-106299939D01*
X151461297Y-106497874D01*
X151629626Y-106666203D01*
X151827561Y-106798458D01*
X152047494Y-106889558D01*
X152280973Y-106936000D01*
X152519027Y-106936000D01*
X152752506Y-106889558D01*
X152972439Y-106798458D01*
X153170374Y-106666203D01*
X153338703Y-106497874D01*
X153470958Y-106299939D01*
X153562058Y-106080006D01*
X153608500Y-105846527D01*
X153608500Y-105751219D01*
X153617455Y-105753000D01*
X153722545Y-105753000D01*
X153731500Y-105751219D01*
X153731500Y-105846527D01*
X153777942Y-106080006D01*
X153869042Y-106299939D01*
X154001297Y-106497874D01*
X154169626Y-106666203D01*
X154367561Y-106798458D01*
X154587494Y-106889558D01*
X154820973Y-106936000D01*
X155059027Y-106936000D01*
X155292506Y-106889558D01*
X155512439Y-106798458D01*
X155710374Y-106666203D01*
X155878703Y-106497874D01*
X156010958Y-106299939D01*
X156102058Y-106080006D01*
X156148500Y-105846527D01*
X156148500Y-105608473D01*
X156271500Y-105608473D01*
X156271500Y-105846527D01*
X156317942Y-106080006D01*
X156409042Y-106299939D01*
X156541297Y-106497874D01*
X156709626Y-106666203D01*
X156907561Y-106798458D01*
X157127494Y-106889558D01*
X157360973Y-106936000D01*
X157599027Y-106936000D01*
X157832506Y-106889558D01*
X158052439Y-106798458D01*
X158250374Y-106666203D01*
X158418703Y-106497874D01*
X158550958Y-106299939D01*
X158642058Y-106080006D01*
X158688500Y-105846527D01*
X158688500Y-105608473D01*
X158811500Y-105608473D01*
X158811500Y-105846527D01*
X158857942Y-106080006D01*
X158949042Y-106299939D01*
X159081297Y-106497874D01*
X159249626Y-106666203D01*
X159447561Y-106798458D01*
X159667494Y-106889558D01*
X159900973Y-106936000D01*
X160139027Y-106936000D01*
X160372506Y-106889558D01*
X160592439Y-106798458D01*
X160790374Y-106666203D01*
X160958703Y-106497874D01*
X161090958Y-106299939D01*
X161182058Y-106080006D01*
X161228500Y-105846527D01*
X161228500Y-105608473D01*
X161182058Y-105374994D01*
X161090958Y-105155061D01*
X160958703Y-104957126D01*
X160790374Y-104788797D01*
X160592439Y-104656542D01*
X160372506Y-104565442D01*
X160139027Y-104519000D01*
X159900973Y-104519000D01*
X159667494Y-104565442D01*
X159447561Y-104656542D01*
X159249626Y-104788797D01*
X159081297Y-104957126D01*
X158949042Y-105155061D01*
X158857942Y-105374994D01*
X158811500Y-105608473D01*
X158688500Y-105608473D01*
X158642058Y-105374994D01*
X158550958Y-105155061D01*
X158418703Y-104957126D01*
X158250374Y-104788797D01*
X158052439Y-104656542D01*
X157832506Y-104565442D01*
X157599027Y-104519000D01*
X157360973Y-104519000D01*
X157127494Y-104565442D01*
X156907561Y-104656542D01*
X156709626Y-104788797D01*
X156541297Y-104957126D01*
X156409042Y-105155061D01*
X156317942Y-105374994D01*
X156271500Y-105608473D01*
X156148500Y-105608473D01*
X156102058Y-105374994D01*
X156010958Y-105155061D01*
X155878703Y-104957126D01*
X155710374Y-104788797D01*
X155512439Y-104656542D01*
X155292506Y-104565442D01*
X155059027Y-104519000D01*
X154820973Y-104519000D01*
X154587494Y-104565442D01*
X154367561Y-104656542D01*
X154169626Y-104788797D01*
X154081703Y-104876721D01*
X154010086Y-104805104D01*
X153922707Y-104746719D01*
X153825616Y-104706502D01*
X153722545Y-104686000D01*
X153617455Y-104686000D01*
X153514384Y-104706502D01*
X153417293Y-104746719D01*
X153329914Y-104805104D01*
X153258298Y-104876721D01*
X153170374Y-104788797D01*
X152972439Y-104656542D01*
X152752506Y-104565442D01*
X152519027Y-104519000D01*
X152280973Y-104519000D01*
X152047494Y-104565442D01*
X151827561Y-104656542D01*
X151629626Y-104788797D01*
X151461297Y-104957126D01*
X151329042Y-105155061D01*
X151237942Y-105374994D01*
X151191500Y-105608473D01*
X151068500Y-105608473D01*
X151022058Y-105374994D01*
X150930958Y-105155061D01*
X150798703Y-104957126D01*
X150630374Y-104788797D01*
X150432439Y-104656542D01*
X150212506Y-104565442D01*
X149979027Y-104519000D01*
X149740973Y-104519000D01*
X149507494Y-104565442D01*
X149287561Y-104656542D01*
X149089626Y-104788797D01*
X148921297Y-104957126D01*
X148789042Y-105155061D01*
X148697942Y-105374994D01*
X148651500Y-105608473D01*
X148528500Y-105608473D01*
X148482058Y-105374994D01*
X148390958Y-105155061D01*
X148258703Y-104957126D01*
X148090374Y-104788797D01*
X147892439Y-104656542D01*
X147672506Y-104565442D01*
X147439027Y-104519000D01*
X147200973Y-104519000D01*
X146967494Y-104565442D01*
X146747561Y-104656542D01*
X146549626Y-104788797D01*
X146381297Y-104957126D01*
X146249042Y-105155061D01*
X146157942Y-105374994D01*
X146111500Y-105608473D01*
X145988500Y-105608473D01*
X145942058Y-105374994D01*
X145850958Y-105155061D01*
X145718703Y-104957126D01*
X145550374Y-104788797D01*
X145352439Y-104656542D01*
X145132506Y-104565442D01*
X144899027Y-104519000D01*
X144660973Y-104519000D01*
X144427494Y-104565442D01*
X144207561Y-104656542D01*
X144009626Y-104788797D01*
X143841297Y-104957126D01*
X143709042Y-105155061D01*
X143617942Y-105374994D01*
X143571500Y-105608473D01*
X143448500Y-105608473D01*
X143402058Y-105374994D01*
X143310958Y-105155061D01*
X143178703Y-104957126D01*
X143010374Y-104788797D01*
X142812439Y-104656542D01*
X142592506Y-104565442D01*
X142359027Y-104519000D01*
X142120973Y-104519000D01*
X141887494Y-104565442D01*
X141667561Y-104656542D01*
X141469626Y-104788797D01*
X141301297Y-104957126D01*
X141169042Y-105155061D01*
X141077942Y-105374994D01*
X141031500Y-105608473D01*
X140908500Y-105608473D01*
X140862058Y-105374994D01*
X140770958Y-105155061D01*
X140638703Y-104957126D01*
X140470374Y-104788797D01*
X140272439Y-104656542D01*
X140052506Y-104565442D01*
X139819027Y-104519000D01*
X139580973Y-104519000D01*
X139347494Y-104565442D01*
X139127561Y-104656542D01*
X138929626Y-104788797D01*
X138761297Y-104957126D01*
X138639109Y-105139994D01*
X138640536Y-104877500D01*
X138628420Y-104754489D01*
X138592539Y-104636204D01*
X138534272Y-104527193D01*
X138455856Y-104431644D01*
X138360307Y-104353228D01*
X138251296Y-104294961D01*
X138133011Y-104259080D01*
X138010000Y-104246964D01*
X137451375Y-104250000D01*
X137294500Y-104406875D01*
X137294500Y-105593000D01*
X137314500Y-105593000D01*
X137314500Y-105862000D01*
X137294500Y-105862000D01*
X137294500Y-105882000D01*
X137025500Y-105882000D01*
X137025500Y-105862000D01*
X135839375Y-105862000D01*
X135682500Y-106018875D01*
X135679464Y-106577500D01*
X135691580Y-106700511D01*
X135727461Y-106818796D01*
X135785728Y-106927807D01*
X135864144Y-107023356D01*
X135959693Y-107101772D01*
X136068704Y-107160039D01*
X136186989Y-107195920D01*
X136310000Y-107208036D01*
X136572494Y-107206609D01*
X136389626Y-107328797D01*
X136221297Y-107497126D01*
X136089042Y-107695061D01*
X135997942Y-107914994D01*
X135951500Y-108148473D01*
X135951500Y-108386527D01*
X135997942Y-108620006D01*
X136089042Y-108839939D01*
X136221297Y-109037874D01*
X136389626Y-109206203D01*
X136516535Y-109291000D01*
X134012500Y-109291000D01*
X134012500Y-104877500D01*
X135679464Y-104877500D01*
X135682500Y-105436125D01*
X135839375Y-105593000D01*
X137025500Y-105593000D01*
X137025500Y-104406875D01*
X136868625Y-104250000D01*
X136310000Y-104246964D01*
X136186989Y-104259080D01*
X136068704Y-104294961D01*
X135959693Y-104353228D01*
X135864144Y-104431644D01*
X135785728Y-104527193D01*
X135727461Y-104636204D01*
X135691580Y-104754489D01*
X135679464Y-104877500D01*
X134012500Y-104877500D01*
X134012500Y-104023955D01*
X166281000Y-104023955D01*
X166281000Y-104129045D01*
X166301502Y-104232116D01*
X166341719Y-104329207D01*
X166400104Y-104416586D01*
X166474414Y-104490896D01*
X166561793Y-104549281D01*
X166658884Y-104589498D01*
X166761955Y-104610000D01*
X166867045Y-104610000D01*
X166970116Y-104589498D01*
X167067207Y-104549281D01*
X167154586Y-104490896D01*
X167228896Y-104416586D01*
X167287281Y-104329207D01*
X167327498Y-104232116D01*
X167348000Y-104129045D01*
X167348000Y-104023955D01*
X167551000Y-104023955D01*
X167551000Y-104129045D01*
X167571502Y-104232116D01*
X167611719Y-104329207D01*
X167670104Y-104416586D01*
X167744414Y-104490896D01*
X167831793Y-104549281D01*
X167928884Y-104589498D01*
X168031955Y-104610000D01*
X168137045Y-104610000D01*
X168240116Y-104589498D01*
X168337207Y-104549281D01*
X168424586Y-104490896D01*
X168498896Y-104416586D01*
X168557281Y-104329207D01*
X168597498Y-104232116D01*
X168618000Y-104129045D01*
X168618000Y-104023955D01*
X168597498Y-103920884D01*
X168557281Y-103823793D01*
X168498896Y-103736414D01*
X168424586Y-103662104D01*
X168337207Y-103603719D01*
X168240116Y-103563502D01*
X168137045Y-103543000D01*
X168031955Y-103543000D01*
X167928884Y-103563502D01*
X167831793Y-103603719D01*
X167744414Y-103662104D01*
X167670104Y-103736414D01*
X167611719Y-103823793D01*
X167571502Y-103920884D01*
X167551000Y-104023955D01*
X167348000Y-104023955D01*
X167327498Y-103920884D01*
X167287281Y-103823793D01*
X167228896Y-103736414D01*
X167154586Y-103662104D01*
X167067207Y-103603719D01*
X166970116Y-103563502D01*
X166867045Y-103543000D01*
X166761955Y-103543000D01*
X166658884Y-103563502D01*
X166561793Y-103603719D01*
X166474414Y-103662104D01*
X166400104Y-103736414D01*
X166341719Y-103823793D01*
X166301502Y-103920884D01*
X166281000Y-104023955D01*
X134012500Y-104023955D01*
X134012500Y-103359123D01*
X143505089Y-103359123D01*
X143638123Y-103651200D01*
X143978232Y-103819979D01*
X144344732Y-103919163D01*
X144723541Y-103944942D01*
X145100099Y-103896322D01*
X145459937Y-103775175D01*
X145691877Y-103651200D01*
X145811323Y-103388955D01*
X162344000Y-103388955D01*
X162344000Y-103494045D01*
X162364502Y-103597116D01*
X162404719Y-103694207D01*
X162463104Y-103781586D01*
X162537414Y-103855896D01*
X162624793Y-103914281D01*
X162721884Y-103954498D01*
X162824955Y-103975000D01*
X162930045Y-103975000D01*
X163033116Y-103954498D01*
X163130207Y-103914281D01*
X163217586Y-103855896D01*
X163291896Y-103781586D01*
X163350281Y-103694207D01*
X163390498Y-103597116D01*
X163411000Y-103494045D01*
X163411000Y-103388955D01*
X163390498Y-103285884D01*
X163350281Y-103188793D01*
X163291896Y-103101414D01*
X163217586Y-103027104D01*
X163130207Y-102968719D01*
X163033116Y-102928502D01*
X162930045Y-102908000D01*
X162824955Y-102908000D01*
X162721884Y-102928502D01*
X162624793Y-102968719D01*
X162537414Y-103027104D01*
X162463104Y-103101414D01*
X162404719Y-103188793D01*
X162364502Y-103285884D01*
X162344000Y-103388955D01*
X145811323Y-103388955D01*
X145824911Y-103359123D01*
X144665000Y-102199212D01*
X143505089Y-103359123D01*
X134012500Y-103359123D01*
X134012500Y-100430616D01*
X135411500Y-100430616D01*
X135411500Y-100687384D01*
X135461593Y-100939217D01*
X135559853Y-101176439D01*
X135702505Y-101389933D01*
X135884067Y-101571495D01*
X136097561Y-101714147D01*
X136334783Y-101812407D01*
X136586616Y-101862500D01*
X136843384Y-101862500D01*
X137095217Y-101812407D01*
X137332439Y-101714147D01*
X137545933Y-101571495D01*
X137727495Y-101389933D01*
X137870147Y-101176439D01*
X137968407Y-100939217D01*
X138018500Y-100687384D01*
X138018500Y-100430616D01*
X137968407Y-100178783D01*
X137870147Y-99941561D01*
X137744584Y-99753642D01*
X139631500Y-99753642D01*
X139631500Y-100144358D01*
X139707725Y-100527566D01*
X139857245Y-100888539D01*
X140074315Y-101213407D01*
X140350593Y-101489685D01*
X140675461Y-101706755D01*
X141036434Y-101856275D01*
X141419642Y-101932500D01*
X141810358Y-101932500D01*
X142193566Y-101856275D01*
X142554539Y-101706755D01*
X142793097Y-101547356D01*
X142754837Y-101688732D01*
X142729058Y-102067541D01*
X142777678Y-102444099D01*
X142898825Y-102803937D01*
X143022800Y-103035877D01*
X143314877Y-103168911D01*
X144474788Y-102009000D01*
X144855212Y-102009000D01*
X146015123Y-103168911D01*
X146307200Y-103035877D01*
X146475979Y-102695768D01*
X146575163Y-102329268D01*
X146600942Y-101950459D01*
X146559173Y-101626956D01*
X147896499Y-101626956D01*
X147896499Y-101732046D01*
X147917001Y-101835117D01*
X147957218Y-101932208D01*
X148015603Y-102019587D01*
X148089913Y-102093897D01*
X148177292Y-102152282D01*
X148274383Y-102192499D01*
X148377454Y-102213001D01*
X148482544Y-102213001D01*
X148585615Y-102192499D01*
X148682706Y-102152282D01*
X148770085Y-102093897D01*
X148844395Y-102019587D01*
X148902780Y-101932208D01*
X148930637Y-101864955D01*
X154787500Y-101864955D01*
X154787500Y-101970045D01*
X154808002Y-102073116D01*
X154848219Y-102170207D01*
X154906604Y-102257586D01*
X154980914Y-102331896D01*
X155068293Y-102390281D01*
X155165384Y-102430498D01*
X155268455Y-102451000D01*
X155373545Y-102451000D01*
X155476616Y-102430498D01*
X155573707Y-102390281D01*
X155661086Y-102331896D01*
X155735396Y-102257586D01*
X155743167Y-102245955D01*
X158153000Y-102245955D01*
X158153000Y-102351045D01*
X158173502Y-102454116D01*
X158213719Y-102551207D01*
X158272104Y-102638586D01*
X158346414Y-102712896D01*
X158433793Y-102771281D01*
X158530884Y-102811498D01*
X158633955Y-102832000D01*
X158739045Y-102832000D01*
X158842116Y-102811498D01*
X158939207Y-102771281D01*
X158965137Y-102753955D01*
X166154000Y-102753955D01*
X166154000Y-102859045D01*
X166174502Y-102962116D01*
X166214719Y-103059207D01*
X166273104Y-103146586D01*
X166347414Y-103220896D01*
X166434793Y-103279281D01*
X166531884Y-103319498D01*
X166634955Y-103340000D01*
X166740045Y-103340000D01*
X166843116Y-103319498D01*
X166940207Y-103279281D01*
X167027586Y-103220896D01*
X167101896Y-103146586D01*
X167160281Y-103059207D01*
X167200498Y-102962116D01*
X167221000Y-102859045D01*
X167221000Y-102753955D01*
X167200498Y-102650884D01*
X167160281Y-102553793D01*
X167101896Y-102466414D01*
X167027586Y-102392104D01*
X166998928Y-102372955D01*
X167614500Y-102372955D01*
X167614500Y-102478045D01*
X167635002Y-102581116D01*
X167675219Y-102678207D01*
X167733604Y-102765586D01*
X167807914Y-102839896D01*
X167895293Y-102898281D01*
X167992384Y-102938498D01*
X168095455Y-102959000D01*
X168200545Y-102959000D01*
X168303616Y-102938498D01*
X168400707Y-102898281D01*
X168488086Y-102839896D01*
X168562396Y-102765586D01*
X168620781Y-102678207D01*
X168660998Y-102581116D01*
X168681500Y-102478045D01*
X168681500Y-102372955D01*
X168660998Y-102269884D01*
X168620781Y-102172793D01*
X168562396Y-102085414D01*
X168488086Y-102011104D01*
X168400707Y-101952719D01*
X168303616Y-101912502D01*
X168200545Y-101892000D01*
X168095455Y-101892000D01*
X167992384Y-101912502D01*
X167895293Y-101952719D01*
X167807914Y-102011104D01*
X167733604Y-102085414D01*
X167675219Y-102172793D01*
X167635002Y-102269884D01*
X167614500Y-102372955D01*
X166998928Y-102372955D01*
X166940207Y-102333719D01*
X166900620Y-102317321D01*
X166970116Y-102303498D01*
X167067207Y-102263281D01*
X167154586Y-102204896D01*
X167228896Y-102130586D01*
X167287281Y-102043207D01*
X167327498Y-101946116D01*
X167348000Y-101843045D01*
X167348000Y-101737955D01*
X167327498Y-101634884D01*
X167287281Y-101537793D01*
X167228896Y-101450414D01*
X167154586Y-101376104D01*
X167067207Y-101317719D01*
X167021598Y-101298827D01*
X167091086Y-101252396D01*
X167165396Y-101178086D01*
X167223781Y-101090707D01*
X167250110Y-101027143D01*
X173458500Y-101027143D01*
X173458500Y-101156857D01*
X173483806Y-101284077D01*
X173533445Y-101403917D01*
X173605510Y-101511769D01*
X173697231Y-101603490D01*
X173805083Y-101675555D01*
X173924923Y-101725194D01*
X174052143Y-101750500D01*
X174181857Y-101750500D01*
X174309077Y-101725194D01*
X174428917Y-101675555D01*
X174536769Y-101603490D01*
X174628490Y-101511769D01*
X174700555Y-101403917D01*
X174750194Y-101284077D01*
X174775500Y-101156857D01*
X174775500Y-101027143D01*
X174750194Y-100899923D01*
X174729083Y-100848955D01*
X175806000Y-100848955D01*
X175806000Y-100954045D01*
X175826502Y-101057116D01*
X175866719Y-101154207D01*
X175925104Y-101241586D01*
X175999414Y-101315896D01*
X176086793Y-101374281D01*
X176183884Y-101414498D01*
X176286955Y-101435000D01*
X176392045Y-101435000D01*
X176495116Y-101414498D01*
X176592207Y-101374281D01*
X176625250Y-101352202D01*
X176658293Y-101374281D01*
X176755384Y-101414498D01*
X176858455Y-101435000D01*
X176963545Y-101435000D01*
X177066616Y-101414498D01*
X177163707Y-101374281D01*
X177196750Y-101352202D01*
X177229793Y-101374281D01*
X177326884Y-101414498D01*
X177429955Y-101435000D01*
X177535045Y-101435000D01*
X177638116Y-101414498D01*
X177735207Y-101374281D01*
X177768250Y-101352202D01*
X177801293Y-101374281D01*
X177898384Y-101414498D01*
X178001455Y-101435000D01*
X178106545Y-101435000D01*
X178209616Y-101414498D01*
X178306707Y-101374281D01*
X178339750Y-101352202D01*
X178372793Y-101374281D01*
X178469884Y-101414498D01*
X178572955Y-101435000D01*
X178678045Y-101435000D01*
X178781116Y-101414498D01*
X178878207Y-101374281D01*
X178965586Y-101315896D01*
X179039896Y-101241586D01*
X179098281Y-101154207D01*
X179138498Y-101057116D01*
X179159000Y-100954045D01*
X179159000Y-100848955D01*
X179138498Y-100745884D01*
X179098281Y-100648793D01*
X179039896Y-100561414D01*
X178965586Y-100487104D01*
X178878207Y-100428719D01*
X178781116Y-100388502D01*
X178678045Y-100368000D01*
X178572955Y-100368000D01*
X178469884Y-100388502D01*
X178372793Y-100428719D01*
X178339750Y-100450798D01*
X178306707Y-100428719D01*
X178209616Y-100388502D01*
X178106545Y-100368000D01*
X178001455Y-100368000D01*
X177898384Y-100388502D01*
X177801293Y-100428719D01*
X177768250Y-100450798D01*
X177735207Y-100428719D01*
X177638116Y-100388502D01*
X177535045Y-100368000D01*
X177429955Y-100368000D01*
X177326884Y-100388502D01*
X177229793Y-100428719D01*
X177196750Y-100450798D01*
X177163707Y-100428719D01*
X177066616Y-100388502D01*
X176963545Y-100368000D01*
X176858455Y-100368000D01*
X176755384Y-100388502D01*
X176658293Y-100428719D01*
X176625250Y-100450798D01*
X176592207Y-100428719D01*
X176495116Y-100388502D01*
X176392045Y-100368000D01*
X176286955Y-100368000D01*
X176183884Y-100388502D01*
X176086793Y-100428719D01*
X175999414Y-100487104D01*
X175925104Y-100561414D01*
X175866719Y-100648793D01*
X175826502Y-100745884D01*
X175806000Y-100848955D01*
X174729083Y-100848955D01*
X174700555Y-100780083D01*
X174628490Y-100672231D01*
X174536769Y-100580510D01*
X174428917Y-100508445D01*
X174309077Y-100458806D01*
X174181857Y-100433500D01*
X174052143Y-100433500D01*
X173924923Y-100458806D01*
X173805083Y-100508445D01*
X173697231Y-100580510D01*
X173605510Y-100672231D01*
X173533445Y-100780083D01*
X173483806Y-100899923D01*
X173458500Y-101027143D01*
X167250110Y-101027143D01*
X167263998Y-100993616D01*
X167284500Y-100890545D01*
X167284500Y-100785455D01*
X167263998Y-100682384D01*
X167223781Y-100585293D01*
X167165396Y-100497914D01*
X167091086Y-100423604D01*
X167003707Y-100365219D01*
X166906616Y-100325002D01*
X166803545Y-100304500D01*
X166698455Y-100304500D01*
X166595384Y-100325002D01*
X166498293Y-100365219D01*
X166410914Y-100423604D01*
X166336604Y-100497914D01*
X166278219Y-100585293D01*
X166238002Y-100682384D01*
X166217500Y-100785455D01*
X166217500Y-100890545D01*
X166238002Y-100993616D01*
X166278219Y-101090707D01*
X166336604Y-101178086D01*
X166410914Y-101252396D01*
X166498293Y-101310781D01*
X166543902Y-101329673D01*
X166474414Y-101376104D01*
X166400104Y-101450414D01*
X166341719Y-101537793D01*
X166301502Y-101634884D01*
X166281000Y-101737955D01*
X166281000Y-101843045D01*
X166301502Y-101946116D01*
X166341719Y-102043207D01*
X166400104Y-102130586D01*
X166474414Y-102204896D01*
X166561793Y-102263281D01*
X166601380Y-102279679D01*
X166531884Y-102293502D01*
X166434793Y-102333719D01*
X166347414Y-102392104D01*
X166273104Y-102466414D01*
X166214719Y-102553793D01*
X166174502Y-102650884D01*
X166154000Y-102753955D01*
X158965137Y-102753955D01*
X159026586Y-102712896D01*
X159100896Y-102638586D01*
X159159281Y-102551207D01*
X159199498Y-102454116D01*
X159220000Y-102351045D01*
X159220000Y-102245955D01*
X159199498Y-102142884D01*
X159159281Y-102045793D01*
X159100896Y-101958414D01*
X159026586Y-101884104D01*
X158939207Y-101825719D01*
X158842116Y-101785502D01*
X158739045Y-101765000D01*
X158633955Y-101765000D01*
X158530884Y-101785502D01*
X158433793Y-101825719D01*
X158346414Y-101884104D01*
X158272104Y-101958414D01*
X158213719Y-102045793D01*
X158173502Y-102142884D01*
X158153000Y-102245955D01*
X155743167Y-102245955D01*
X155793781Y-102170207D01*
X155833998Y-102073116D01*
X155854500Y-101970045D01*
X155854500Y-101864955D01*
X155833998Y-101761884D01*
X155793781Y-101664793D01*
X155735396Y-101577414D01*
X155661086Y-101503104D01*
X155573707Y-101444719D01*
X155476616Y-101404502D01*
X155373545Y-101384000D01*
X155268455Y-101384000D01*
X155165384Y-101404502D01*
X155068293Y-101444719D01*
X154980914Y-101503104D01*
X154906604Y-101577414D01*
X154848219Y-101664793D01*
X154808002Y-101761884D01*
X154787500Y-101864955D01*
X148930637Y-101864955D01*
X148942997Y-101835117D01*
X148963499Y-101732046D01*
X148963499Y-101626956D01*
X148942997Y-101523885D01*
X148902780Y-101426794D01*
X148844395Y-101339415D01*
X148770085Y-101265105D01*
X148682706Y-101206720D01*
X148585615Y-101166503D01*
X148482544Y-101146001D01*
X148377454Y-101146001D01*
X148274383Y-101166503D01*
X148177292Y-101206720D01*
X148089913Y-101265105D01*
X148015603Y-101339415D01*
X147957218Y-101426794D01*
X147917001Y-101523885D01*
X147896499Y-101626956D01*
X146559173Y-101626956D01*
X146552322Y-101573901D01*
X146431175Y-101214063D01*
X146307200Y-100982123D01*
X146015123Y-100849089D01*
X144855212Y-102009000D01*
X144474788Y-102009000D01*
X144460646Y-101994858D01*
X144650858Y-101804646D01*
X144665000Y-101818788D01*
X145761833Y-100721955D01*
X154787500Y-100721955D01*
X154787500Y-100827045D01*
X154808002Y-100930116D01*
X154848219Y-101027207D01*
X154906604Y-101114586D01*
X154980914Y-101188896D01*
X155068293Y-101247281D01*
X155165384Y-101287498D01*
X155268455Y-101308000D01*
X155373545Y-101308000D01*
X155476616Y-101287498D01*
X155573707Y-101247281D01*
X155661086Y-101188896D01*
X155735396Y-101114586D01*
X155793781Y-101027207D01*
X155833998Y-100930116D01*
X155854500Y-100827045D01*
X155854500Y-100721955D01*
X155833998Y-100618884D01*
X155793781Y-100521793D01*
X155735396Y-100434414D01*
X155661086Y-100360104D01*
X155573707Y-100301719D01*
X155476616Y-100261502D01*
X155373545Y-100241000D01*
X155268455Y-100241000D01*
X155165384Y-100261502D01*
X155068293Y-100301719D01*
X154980914Y-100360104D01*
X154906604Y-100434414D01*
X154848219Y-100521793D01*
X154808002Y-100618884D01*
X154787500Y-100721955D01*
X145761833Y-100721955D01*
X145824911Y-100658877D01*
X145691877Y-100366800D01*
X145351768Y-100198021D01*
X144985268Y-100098837D01*
X144606459Y-100073058D01*
X144229901Y-100121678D01*
X143870063Y-100242825D01*
X143638123Y-100366800D01*
X143505090Y-100658876D01*
X143478782Y-100632568D01*
X143522275Y-100527566D01*
X143598500Y-100144358D01*
X143598500Y-99753642D01*
X143522275Y-99370434D01*
X143372755Y-99009461D01*
X143155685Y-98684593D01*
X142879407Y-98408315D01*
X142554539Y-98191245D01*
X142193566Y-98041725D01*
X141810358Y-97965500D01*
X141419642Y-97965500D01*
X141036434Y-98041725D01*
X140675461Y-98191245D01*
X140350593Y-98408315D01*
X140074315Y-98684593D01*
X139857245Y-99009461D01*
X139707725Y-99370434D01*
X139631500Y-99753642D01*
X137744584Y-99753642D01*
X137727495Y-99728067D01*
X137545933Y-99546505D01*
X137332439Y-99403853D01*
X137095217Y-99305593D01*
X136843384Y-99255500D01*
X136586616Y-99255500D01*
X136334783Y-99305593D01*
X136097561Y-99403853D01*
X135884067Y-99546505D01*
X135702505Y-99728067D01*
X135559853Y-99941561D01*
X135461593Y-100178783D01*
X135411500Y-100430616D01*
X134012500Y-100430616D01*
X134012500Y-97890616D01*
X136931500Y-97890616D01*
X136931500Y-98147384D01*
X136981593Y-98399217D01*
X137079853Y-98636439D01*
X137222505Y-98849933D01*
X137404067Y-99031495D01*
X137617561Y-99174147D01*
X137854783Y-99272407D01*
X138106616Y-99322500D01*
X138363384Y-99322500D01*
X138615217Y-99272407D01*
X138852439Y-99174147D01*
X139065933Y-99031495D01*
X139247495Y-98849933D01*
X139390147Y-98636439D01*
X139488407Y-98399217D01*
X139538500Y-98147384D01*
X139538500Y-97890616D01*
X139506353Y-97729000D01*
X146644766Y-97729000D01*
X146644766Y-99629000D01*
X146651688Y-99699278D01*
X146672187Y-99766856D01*
X146705476Y-99829135D01*
X146750276Y-99883724D01*
X146804865Y-99928524D01*
X146867144Y-99961813D01*
X146934722Y-99982312D01*
X147005000Y-99989234D01*
X148905000Y-99989234D01*
X148975278Y-99982312D01*
X149042856Y-99961813D01*
X149105135Y-99928524D01*
X149159724Y-99883724D01*
X149204524Y-99829135D01*
X149237813Y-99766856D01*
X149258312Y-99699278D01*
X149265234Y-99629000D01*
X149265234Y-99439643D01*
X166029000Y-99439643D01*
X166029000Y-99569357D01*
X166054306Y-99696577D01*
X166103945Y-99816417D01*
X166176010Y-99924269D01*
X166267731Y-100015990D01*
X166375583Y-100088055D01*
X166495423Y-100137694D01*
X166622643Y-100163000D01*
X166752357Y-100163000D01*
X166879577Y-100137694D01*
X166999417Y-100088055D01*
X167107269Y-100015990D01*
X167112116Y-100011143D01*
X169394500Y-100011143D01*
X169394500Y-100140857D01*
X169419806Y-100268077D01*
X169469445Y-100387917D01*
X169541510Y-100495769D01*
X169633231Y-100587490D01*
X169741083Y-100659555D01*
X169860923Y-100709194D01*
X169988143Y-100734500D01*
X170117857Y-100734500D01*
X170245077Y-100709194D01*
X170364917Y-100659555D01*
X170472769Y-100587490D01*
X170564490Y-100495769D01*
X170636555Y-100387917D01*
X170686194Y-100268077D01*
X170711500Y-100140857D01*
X170711500Y-100011143D01*
X170686194Y-99883923D01*
X170636555Y-99764083D01*
X170564490Y-99656231D01*
X170472769Y-99564510D01*
X170364917Y-99492445D01*
X170245077Y-99442806D01*
X170117857Y-99417500D01*
X169988143Y-99417500D01*
X169860923Y-99442806D01*
X169741083Y-99492445D01*
X169633231Y-99564510D01*
X169541510Y-99656231D01*
X169469445Y-99764083D01*
X169419806Y-99883923D01*
X169394500Y-100011143D01*
X167112116Y-100011143D01*
X167198990Y-99924269D01*
X167271055Y-99816417D01*
X167320694Y-99696577D01*
X167346000Y-99569357D01*
X167346000Y-99439643D01*
X167320694Y-99312423D01*
X167271055Y-99192583D01*
X167198990Y-99084731D01*
X167107269Y-98993010D01*
X166999417Y-98920945D01*
X166879577Y-98871306D01*
X166752357Y-98846000D01*
X166622643Y-98846000D01*
X166495423Y-98871306D01*
X166375583Y-98920945D01*
X166267731Y-98993010D01*
X166176010Y-99084731D01*
X166103945Y-99192583D01*
X166054306Y-99312423D01*
X166029000Y-99439643D01*
X149265234Y-99439643D01*
X149265234Y-98807500D01*
X167568464Y-98807500D01*
X167580580Y-98930511D01*
X167616461Y-99048796D01*
X167674728Y-99157807D01*
X167753144Y-99253356D01*
X167848693Y-99331772D01*
X167957704Y-99390039D01*
X168075989Y-99425920D01*
X168199000Y-99438036D01*
X168482625Y-99435000D01*
X168639500Y-99278125D01*
X168639500Y-98242000D01*
X167728375Y-98242000D01*
X167571500Y-98398875D01*
X167568464Y-98807500D01*
X149265234Y-98807500D01*
X149265234Y-97859357D01*
X149335423Y-98028807D01*
X149478622Y-98243120D01*
X149660880Y-98425378D01*
X149875193Y-98568577D01*
X150113325Y-98667215D01*
X150366124Y-98717500D01*
X150623876Y-98717500D01*
X150876675Y-98667215D01*
X151114807Y-98568577D01*
X151329120Y-98425378D01*
X151511378Y-98243120D01*
X151654577Y-98028807D01*
X151753215Y-97790675D01*
X151803500Y-97537876D01*
X151803500Y-97280124D01*
X151753215Y-97027325D01*
X151654577Y-96789193D01*
X151511378Y-96574880D01*
X151457998Y-96521500D01*
X167568464Y-96521500D01*
X167580580Y-96644511D01*
X167616461Y-96762796D01*
X167674728Y-96871807D01*
X167750800Y-96964500D01*
X167674728Y-97057193D01*
X167616461Y-97166204D01*
X167580580Y-97284489D01*
X167568464Y-97407500D01*
X167571500Y-97816125D01*
X167728375Y-97973000D01*
X168639500Y-97973000D01*
X168639500Y-95956000D01*
X167728375Y-95956000D01*
X167571500Y-96112875D01*
X167568464Y-96521500D01*
X151457998Y-96521500D01*
X151329120Y-96392622D01*
X151114807Y-96249423D01*
X150876675Y-96150785D01*
X150817428Y-96139000D01*
X150876675Y-96127215D01*
X151114807Y-96028577D01*
X151329120Y-95885378D01*
X151511378Y-95703120D01*
X151654577Y-95488807D01*
X151753215Y-95250675D01*
X151803500Y-94997876D01*
X151803500Y-94804143D01*
X154726000Y-94804143D01*
X154726000Y-94933857D01*
X154751306Y-95061077D01*
X154800945Y-95180917D01*
X154873010Y-95288769D01*
X154964731Y-95380490D01*
X155072583Y-95452555D01*
X155192423Y-95502194D01*
X155319643Y-95527500D01*
X155449357Y-95527500D01*
X155576577Y-95502194D01*
X155696417Y-95452555D01*
X155804269Y-95380490D01*
X155895990Y-95288769D01*
X155968055Y-95180917D01*
X156017694Y-95061077D01*
X156043000Y-94933857D01*
X156043000Y-94816455D01*
X165836500Y-94816455D01*
X165836500Y-94921545D01*
X165857002Y-95024616D01*
X165897219Y-95121707D01*
X165955604Y-95209086D01*
X166029914Y-95283396D01*
X166117293Y-95341781D01*
X166214384Y-95381998D01*
X166317455Y-95402500D01*
X166422545Y-95402500D01*
X166525616Y-95381998D01*
X166622707Y-95341781D01*
X166710086Y-95283396D01*
X166784396Y-95209086D01*
X166842781Y-95121707D01*
X166882998Y-95024616D01*
X166903500Y-94921545D01*
X166903500Y-94816455D01*
X166882998Y-94713384D01*
X166842781Y-94616293D01*
X166784396Y-94528914D01*
X166710086Y-94454604D01*
X166622707Y-94396219D01*
X166525616Y-94356002D01*
X166422545Y-94335500D01*
X166317455Y-94335500D01*
X166214384Y-94356002D01*
X166117293Y-94396219D01*
X166029914Y-94454604D01*
X165955604Y-94528914D01*
X165897219Y-94616293D01*
X165857002Y-94713384D01*
X165836500Y-94816455D01*
X156043000Y-94816455D01*
X156043000Y-94804143D01*
X156017694Y-94676923D01*
X155968055Y-94557083D01*
X155895990Y-94449231D01*
X155804269Y-94357510D01*
X155696417Y-94285445D01*
X155576577Y-94235806D01*
X155449357Y-94210500D01*
X155319643Y-94210500D01*
X155192423Y-94235806D01*
X155072583Y-94285445D01*
X154964731Y-94357510D01*
X154873010Y-94449231D01*
X154800945Y-94557083D01*
X154751306Y-94676923D01*
X154726000Y-94804143D01*
X151803500Y-94804143D01*
X151803500Y-94740124D01*
X151753215Y-94487325D01*
X151654577Y-94249193D01*
X151511378Y-94034880D01*
X151329120Y-93852622D01*
X151114807Y-93709423D01*
X150876675Y-93610785D01*
X150817428Y-93599000D01*
X150876675Y-93587215D01*
X151114807Y-93488577D01*
X151329120Y-93345378D01*
X151511378Y-93163120D01*
X151654577Y-92948807D01*
X151753215Y-92710675D01*
X151803500Y-92457876D01*
X151803500Y-92200124D01*
X151753215Y-91947325D01*
X151654577Y-91709193D01*
X151609317Y-91641455D01*
X158661000Y-91641455D01*
X158661000Y-91746545D01*
X158681502Y-91849616D01*
X158721719Y-91946707D01*
X158780104Y-92034086D01*
X158854414Y-92108396D01*
X158941793Y-92166781D01*
X159038884Y-92206998D01*
X159141955Y-92227500D01*
X159247045Y-92227500D01*
X159350116Y-92206998D01*
X159447207Y-92166781D01*
X159534586Y-92108396D01*
X159608896Y-92034086D01*
X159667281Y-91946707D01*
X159707498Y-91849616D01*
X159728000Y-91746545D01*
X159728000Y-91641455D01*
X159707498Y-91538384D01*
X159667281Y-91441293D01*
X159608896Y-91353914D01*
X159534586Y-91279604D01*
X159447207Y-91221219D01*
X159350116Y-91181002D01*
X159247045Y-91160500D01*
X159141955Y-91160500D01*
X159038884Y-91181002D01*
X158941793Y-91221219D01*
X158854414Y-91279604D01*
X158780104Y-91353914D01*
X158721719Y-91441293D01*
X158681502Y-91538384D01*
X158661000Y-91641455D01*
X151609317Y-91641455D01*
X151511378Y-91494880D01*
X151329120Y-91312622D01*
X151183960Y-91215629D01*
X151314545Y-91145831D01*
X151405337Y-90889549D01*
X150495000Y-89979212D01*
X149584663Y-90889549D01*
X149675455Y-91145831D01*
X149812581Y-91211259D01*
X149660880Y-91312622D01*
X149478622Y-91494880D01*
X149335423Y-91709193D01*
X149236785Y-91947325D01*
X149186500Y-92200124D01*
X149186500Y-92457876D01*
X149236785Y-92710675D01*
X149335423Y-92948807D01*
X149478622Y-93163120D01*
X149660880Y-93345378D01*
X149875193Y-93488577D01*
X150113325Y-93587215D01*
X150172572Y-93599000D01*
X150113325Y-93610785D01*
X149875193Y-93709423D01*
X149660880Y-93852622D01*
X149478622Y-94034880D01*
X149335423Y-94249193D01*
X149236785Y-94487325D01*
X149186500Y-94740124D01*
X149186500Y-94997876D01*
X149236785Y-95250675D01*
X149335423Y-95488807D01*
X149478622Y-95703120D01*
X149660880Y-95885378D01*
X149875193Y-96028577D01*
X150113325Y-96127215D01*
X150172572Y-96139000D01*
X150113325Y-96150785D01*
X149875193Y-96249423D01*
X149660880Y-96392622D01*
X149478622Y-96574880D01*
X149335423Y-96789193D01*
X149236785Y-97027325D01*
X149186500Y-97280124D01*
X149186500Y-97506903D01*
X149159724Y-97474276D01*
X149105135Y-97429476D01*
X149042856Y-97396187D01*
X148975278Y-97375688D01*
X148905000Y-97368766D01*
X148405357Y-97368766D01*
X148574807Y-97298577D01*
X148789120Y-97155378D01*
X148971378Y-96973120D01*
X149114577Y-96758807D01*
X149213215Y-96520675D01*
X149263500Y-96267876D01*
X149263500Y-96010124D01*
X149213215Y-95757325D01*
X149114577Y-95519193D01*
X148971378Y-95304880D01*
X148789120Y-95122622D01*
X148574807Y-94979423D01*
X148336675Y-94880785D01*
X148277428Y-94869000D01*
X148336675Y-94857215D01*
X148574807Y-94758577D01*
X148789120Y-94615378D01*
X148971378Y-94433120D01*
X149114577Y-94218807D01*
X149213215Y-93980675D01*
X149263500Y-93727876D01*
X149263500Y-93470124D01*
X149213215Y-93217325D01*
X149114577Y-92979193D01*
X148971378Y-92764880D01*
X148789120Y-92582622D01*
X148574807Y-92439423D01*
X148336675Y-92340785D01*
X148277428Y-92329000D01*
X148336675Y-92317215D01*
X148574807Y-92218577D01*
X148789120Y-92075378D01*
X148971378Y-91893120D01*
X149114577Y-91678807D01*
X149213215Y-91440675D01*
X149263500Y-91187876D01*
X149263500Y-90930124D01*
X149213215Y-90677325D01*
X149192732Y-90627875D01*
X149394451Y-90699337D01*
X150304788Y-89789000D01*
X150685212Y-89789000D01*
X151595549Y-90699337D01*
X151851831Y-90608545D01*
X151985645Y-90328093D01*
X152039169Y-90117455D01*
X161264500Y-90117455D01*
X161264500Y-90222545D01*
X161285002Y-90325616D01*
X161325219Y-90422707D01*
X161383604Y-90510086D01*
X161457914Y-90584396D01*
X161545293Y-90642781D01*
X161642384Y-90682998D01*
X161745455Y-90703500D01*
X161850545Y-90703500D01*
X161953616Y-90682998D01*
X162050707Y-90642781D01*
X162138086Y-90584396D01*
X162160527Y-90561955D01*
X165455500Y-90561955D01*
X165455500Y-90667045D01*
X165476002Y-90770116D01*
X165516219Y-90867207D01*
X165574604Y-90954586D01*
X165648914Y-91028896D01*
X165736293Y-91087281D01*
X165833384Y-91127498D01*
X165936455Y-91148000D01*
X166041545Y-91148000D01*
X166144616Y-91127498D01*
X166238426Y-91088640D01*
X166278219Y-91184707D01*
X166336604Y-91272086D01*
X166410914Y-91346396D01*
X166498293Y-91404781D01*
X166595384Y-91444998D01*
X166698455Y-91465500D01*
X166803545Y-91465500D01*
X166842938Y-91457664D01*
X166809502Y-91538384D01*
X166789000Y-91641455D01*
X166789000Y-91746545D01*
X166809502Y-91849616D01*
X166849719Y-91946707D01*
X166908104Y-92034086D01*
X166982414Y-92108396D01*
X167069793Y-92166781D01*
X167166884Y-92206998D01*
X167269955Y-92227500D01*
X167375045Y-92227500D01*
X167478116Y-92206998D01*
X167575207Y-92166781D01*
X167603451Y-92147909D01*
X167616461Y-92190796D01*
X167674728Y-92299807D01*
X167750800Y-92392500D01*
X167674728Y-92485193D01*
X167616461Y-92594204D01*
X167580580Y-92712489D01*
X167568464Y-92835500D01*
X167570743Y-93142216D01*
X167514357Y-93131000D01*
X167384643Y-93131000D01*
X167257423Y-93156306D01*
X167137583Y-93205945D01*
X167029731Y-93278010D01*
X166938010Y-93369731D01*
X166865945Y-93477583D01*
X166816306Y-93597423D01*
X166791000Y-93724643D01*
X166791000Y-93854357D01*
X166816306Y-93981577D01*
X166865945Y-94101417D01*
X166938010Y-94209269D01*
X167029731Y-94300990D01*
X167137583Y-94373055D01*
X167257423Y-94422694D01*
X167384643Y-94448000D01*
X167514357Y-94448000D01*
X167602413Y-94430484D01*
X167616461Y-94476796D01*
X167674728Y-94585807D01*
X167750800Y-94678500D01*
X167674728Y-94771193D01*
X167616461Y-94880204D01*
X167580580Y-94998489D01*
X167568464Y-95121500D01*
X167571500Y-95530125D01*
X167728375Y-95687000D01*
X168639500Y-95687000D01*
X168639500Y-93670000D01*
X168619500Y-93670000D01*
X168619500Y-93401000D01*
X168639500Y-93401000D01*
X168639500Y-91384000D01*
X168619500Y-91384000D01*
X168619500Y-91115000D01*
X168639500Y-91115000D01*
X168639500Y-90078875D01*
X168908500Y-90078875D01*
X168908500Y-91115000D01*
X168928500Y-91115000D01*
X168928500Y-91384000D01*
X168908500Y-91384000D01*
X168908500Y-93401000D01*
X168928500Y-93401000D01*
X168928500Y-93670000D01*
X168908500Y-93670000D01*
X168908500Y-95687000D01*
X168928500Y-95687000D01*
X168928500Y-95956000D01*
X168908500Y-95956000D01*
X168908500Y-97973000D01*
X168928500Y-97973000D01*
X168928500Y-98242000D01*
X168908500Y-98242000D01*
X168908500Y-99278125D01*
X169065375Y-99435000D01*
X169349000Y-99438036D01*
X169472011Y-99425920D01*
X169590296Y-99390039D01*
X169699307Y-99331772D01*
X169794856Y-99253356D01*
X169873272Y-99157807D01*
X169931539Y-99048796D01*
X169967420Y-98930511D01*
X169974010Y-98863603D01*
X169991609Y-98896528D01*
X170067499Y-98989001D01*
X170159972Y-99064891D01*
X170265473Y-99121283D01*
X170379948Y-99156009D01*
X170498999Y-99167734D01*
X170500461Y-99167734D01*
X170606696Y-99199960D01*
X170824000Y-99221363D01*
X171041303Y-99199960D01*
X171147538Y-99167734D01*
X171149001Y-99167734D01*
X171268052Y-99156009D01*
X171382527Y-99121283D01*
X171488028Y-99064891D01*
X171580501Y-98989001D01*
X171656391Y-98896528D01*
X171703977Y-98807500D01*
X174680464Y-98807500D01*
X174692580Y-98930511D01*
X174728461Y-99048796D01*
X174786728Y-99157807D01*
X174865144Y-99253356D01*
X174960693Y-99331772D01*
X175069704Y-99390039D01*
X175187989Y-99425920D01*
X175311000Y-99438036D01*
X175594625Y-99435000D01*
X175751500Y-99278125D01*
X175751500Y-98242000D01*
X174840375Y-98242000D01*
X174683500Y-98398875D01*
X174680464Y-98807500D01*
X171703977Y-98807500D01*
X171712783Y-98791027D01*
X171722010Y-98760609D01*
X171750143Y-98726329D01*
X171853075Y-98533757D01*
X171916460Y-98324804D01*
X171932500Y-98161950D01*
X171932500Y-96521500D01*
X174680464Y-96521500D01*
X174692580Y-96644511D01*
X174728461Y-96762796D01*
X174786728Y-96871807D01*
X174862800Y-96964500D01*
X174786728Y-97057193D01*
X174728461Y-97166204D01*
X174692580Y-97284489D01*
X174680464Y-97407500D01*
X174683500Y-97816125D01*
X174840375Y-97973000D01*
X175751500Y-97973000D01*
X175751500Y-95956000D01*
X174840375Y-95956000D01*
X174683500Y-96112875D01*
X174680464Y-96521500D01*
X171932500Y-96521500D01*
X171932500Y-94235500D01*
X174680464Y-94235500D01*
X174692580Y-94358511D01*
X174728461Y-94476796D01*
X174786728Y-94585807D01*
X174862800Y-94678500D01*
X174786728Y-94771193D01*
X174728461Y-94880204D01*
X174692580Y-94998489D01*
X174680464Y-95121500D01*
X174683500Y-95530125D01*
X174840375Y-95687000D01*
X175751500Y-95687000D01*
X175751500Y-93670000D01*
X174840375Y-93670000D01*
X174683500Y-93826875D01*
X174680464Y-94235500D01*
X171932500Y-94235500D01*
X171932500Y-91949500D01*
X174680464Y-91949500D01*
X174692580Y-92072511D01*
X174728461Y-92190796D01*
X174786728Y-92299807D01*
X174862800Y-92392500D01*
X174786728Y-92485193D01*
X174728461Y-92594204D01*
X174692580Y-92712489D01*
X174680464Y-92835500D01*
X174683500Y-93244125D01*
X174840375Y-93401000D01*
X175751500Y-93401000D01*
X175751500Y-91384000D01*
X174840375Y-91384000D01*
X174683500Y-91540875D01*
X174680464Y-91949500D01*
X171932500Y-91949500D01*
X171932500Y-91539090D01*
X171970960Y-91412304D01*
X171987000Y-91249450D01*
X171992363Y-91195000D01*
X171987000Y-91140550D01*
X171987000Y-90549500D01*
X174680464Y-90549500D01*
X174683500Y-90958125D01*
X174840375Y-91115000D01*
X175751500Y-91115000D01*
X175751500Y-90078875D01*
X176020500Y-90078875D01*
X176020500Y-91115000D01*
X176040500Y-91115000D01*
X176040500Y-91384000D01*
X176020500Y-91384000D01*
X176020500Y-93401000D01*
X176040500Y-93401000D01*
X176040500Y-93670000D01*
X176020500Y-93670000D01*
X176020500Y-95687000D01*
X176040500Y-95687000D01*
X176040500Y-95956000D01*
X176020500Y-95956000D01*
X176020500Y-97973000D01*
X176040500Y-97973000D01*
X176040500Y-98242000D01*
X176020500Y-98242000D01*
X176020500Y-99278125D01*
X176177375Y-99435000D01*
X176461000Y-99438036D01*
X176584011Y-99425920D01*
X176702296Y-99390039D01*
X176811307Y-99331772D01*
X176906856Y-99253356D01*
X176985272Y-99157807D01*
X177043539Y-99048796D01*
X177079420Y-98930511D01*
X177086010Y-98863603D01*
X177103609Y-98896528D01*
X177179499Y-98989001D01*
X177271972Y-99064891D01*
X177377473Y-99121283D01*
X177491948Y-99156009D01*
X177610999Y-99167734D01*
X177612461Y-99167734D01*
X177718696Y-99199960D01*
X177936000Y-99221363D01*
X178153303Y-99199960D01*
X178259538Y-99167734D01*
X178261001Y-99167734D01*
X178380052Y-99156009D01*
X178494527Y-99121283D01*
X178600028Y-99064891D01*
X178692501Y-98989001D01*
X178768391Y-98896528D01*
X178824783Y-98791027D01*
X178834010Y-98760609D01*
X178862143Y-98726329D01*
X178965075Y-98533757D01*
X179028460Y-98324804D01*
X179044500Y-98161950D01*
X179044500Y-91195050D01*
X179028460Y-91032196D01*
X178965075Y-90823243D01*
X178862143Y-90630671D01*
X178834010Y-90596391D01*
X178824783Y-90565973D01*
X178768391Y-90460472D01*
X178692501Y-90367999D01*
X178600028Y-90292109D01*
X178494527Y-90235717D01*
X178380052Y-90200991D01*
X178261001Y-90189266D01*
X178259539Y-90189266D01*
X178153304Y-90157040D01*
X177936000Y-90135637D01*
X177718697Y-90157040D01*
X177612462Y-90189266D01*
X177610999Y-90189266D01*
X177491948Y-90200991D01*
X177377473Y-90235717D01*
X177271972Y-90292109D01*
X177179499Y-90367999D01*
X177103609Y-90460472D01*
X177086010Y-90493397D01*
X177079420Y-90426489D01*
X177043539Y-90308204D01*
X176985272Y-90199193D01*
X176906856Y-90103644D01*
X176811307Y-90025228D01*
X176702296Y-89966961D01*
X176584011Y-89931080D01*
X176461000Y-89918964D01*
X176177375Y-89922000D01*
X176020500Y-90078875D01*
X175751500Y-90078875D01*
X175594625Y-89922000D01*
X175311000Y-89918964D01*
X175187989Y-89931080D01*
X175069704Y-89966961D01*
X174960693Y-90025228D01*
X174865144Y-90103644D01*
X174786728Y-90199193D01*
X174728461Y-90308204D01*
X174692580Y-90426489D01*
X174680464Y-90549500D01*
X171987000Y-90549500D01*
X171987000Y-89418955D01*
X173139000Y-89418955D01*
X173139000Y-89524045D01*
X173159502Y-89627116D01*
X173199719Y-89724207D01*
X173258104Y-89811586D01*
X173332414Y-89885896D01*
X173419793Y-89944281D01*
X173516884Y-89984498D01*
X173619955Y-90005000D01*
X173725045Y-90005000D01*
X173828116Y-89984498D01*
X173925207Y-89944281D01*
X174012586Y-89885896D01*
X174086896Y-89811586D01*
X174145281Y-89724207D01*
X174185498Y-89627116D01*
X174206000Y-89524045D01*
X174206000Y-89418955D01*
X174185498Y-89315884D01*
X174145281Y-89218793D01*
X174086896Y-89131414D01*
X174012586Y-89057104D01*
X173925207Y-88998719D01*
X173828116Y-88958502D01*
X173725045Y-88938000D01*
X173619955Y-88938000D01*
X173516884Y-88958502D01*
X173419793Y-88998719D01*
X173332414Y-89057104D01*
X173258104Y-89131414D01*
X173199719Y-89218793D01*
X173159502Y-89315884D01*
X173139000Y-89418955D01*
X171987000Y-89418955D01*
X171987000Y-87067550D01*
X171970960Y-86904696D01*
X171907575Y-86695743D01*
X171804643Y-86503171D01*
X171666120Y-86334380D01*
X171497329Y-86195857D01*
X171304756Y-86092925D01*
X171095803Y-86029540D01*
X170878500Y-86008137D01*
X170661196Y-86029540D01*
X170452243Y-86092925D01*
X170259671Y-86195857D01*
X170090880Y-86334380D01*
X169952357Y-86503171D01*
X169849425Y-86695744D01*
X169786040Y-86904697D01*
X169770000Y-87067551D01*
X169770001Y-90083246D01*
X169699307Y-90025228D01*
X169590296Y-89966961D01*
X169472011Y-89931080D01*
X169349000Y-89918964D01*
X169065375Y-89922000D01*
X168908500Y-90078875D01*
X168639500Y-90078875D01*
X168482625Y-89922000D01*
X168199000Y-89918964D01*
X168075989Y-89931080D01*
X167957704Y-89966961D01*
X167848693Y-90025228D01*
X167753144Y-90103644D01*
X167674728Y-90199193D01*
X167616461Y-90308204D01*
X167580580Y-90426489D01*
X167568464Y-90549500D01*
X167571500Y-90958125D01*
X167728373Y-91114998D01*
X167571500Y-91114998D01*
X167571500Y-91219683D01*
X167478116Y-91181002D01*
X167375045Y-91160500D01*
X167269955Y-91160500D01*
X167230562Y-91168336D01*
X167263998Y-91087616D01*
X167284500Y-90984545D01*
X167284500Y-90879455D01*
X167263998Y-90776384D01*
X167223781Y-90679293D01*
X167165396Y-90591914D01*
X167091086Y-90517604D01*
X167003707Y-90459219D01*
X166906616Y-90419002D01*
X166803545Y-90398500D01*
X166698455Y-90398500D01*
X166595384Y-90419002D01*
X166501574Y-90457860D01*
X166461781Y-90361793D01*
X166403396Y-90274414D01*
X166329086Y-90200104D01*
X166241707Y-90141719D01*
X166144616Y-90101502D01*
X166041545Y-90081000D01*
X165936455Y-90081000D01*
X165833384Y-90101502D01*
X165736293Y-90141719D01*
X165648914Y-90200104D01*
X165574604Y-90274414D01*
X165516219Y-90361793D01*
X165476002Y-90458884D01*
X165455500Y-90561955D01*
X162160527Y-90561955D01*
X162212396Y-90510086D01*
X162270781Y-90422707D01*
X162310998Y-90325616D01*
X162331500Y-90222545D01*
X162331500Y-90117455D01*
X162310998Y-90014384D01*
X162270781Y-89917293D01*
X162212396Y-89829914D01*
X162197461Y-89814979D01*
X162267956Y-89829001D01*
X162373046Y-89829001D01*
X162476117Y-89808499D01*
X162573208Y-89768282D01*
X162660587Y-89709897D01*
X162734897Y-89635587D01*
X162793282Y-89548208D01*
X162833499Y-89451117D01*
X162854001Y-89348046D01*
X162854001Y-89242956D01*
X162833499Y-89139885D01*
X162793282Y-89042794D01*
X162734897Y-88955415D01*
X162674989Y-88895507D01*
X162715281Y-88835207D01*
X162755498Y-88738116D01*
X162776000Y-88635045D01*
X162776000Y-88529955D01*
X162755498Y-88426884D01*
X162715281Y-88329793D01*
X162656896Y-88242414D01*
X162582586Y-88168104D01*
X162495207Y-88109719D01*
X162398116Y-88069502D01*
X162295045Y-88049000D01*
X162189955Y-88049000D01*
X162086884Y-88069502D01*
X161989793Y-88109719D01*
X161902414Y-88168104D01*
X161828104Y-88242414D01*
X161769719Y-88329793D01*
X161729502Y-88426884D01*
X161709000Y-88529955D01*
X161709000Y-88635045D01*
X161729502Y-88738116D01*
X161769719Y-88835207D01*
X161828104Y-88922586D01*
X161888012Y-88982494D01*
X161847720Y-89042794D01*
X161807503Y-89139885D01*
X161787001Y-89242956D01*
X161787001Y-89348046D01*
X161807503Y-89451117D01*
X161847720Y-89548208D01*
X161906105Y-89635587D01*
X161921040Y-89650522D01*
X161850545Y-89636500D01*
X161745455Y-89636500D01*
X161642384Y-89657002D01*
X161545293Y-89697219D01*
X161457914Y-89755604D01*
X161383604Y-89829914D01*
X161325219Y-89917293D01*
X161285002Y-90014384D01*
X161264500Y-90117455D01*
X152039169Y-90117455D01*
X152062174Y-90026924D01*
X152078478Y-89716612D01*
X152033930Y-89409082D01*
X151930241Y-89116152D01*
X151851831Y-88969455D01*
X151686701Y-88910955D01*
X155740000Y-88910955D01*
X155740000Y-89016045D01*
X155760502Y-89119116D01*
X155800719Y-89216207D01*
X155859104Y-89303586D01*
X155933414Y-89377896D01*
X156020793Y-89436281D01*
X156117884Y-89476498D01*
X156220955Y-89497000D01*
X156326045Y-89497000D01*
X156429116Y-89476498D01*
X156526207Y-89436281D01*
X156613586Y-89377896D01*
X156687896Y-89303586D01*
X156746281Y-89216207D01*
X156786498Y-89119116D01*
X156807000Y-89016045D01*
X156807000Y-88910955D01*
X156786498Y-88807884D01*
X156746281Y-88710793D01*
X156687896Y-88623414D01*
X156613586Y-88549104D01*
X156526207Y-88490719D01*
X156429116Y-88450502D01*
X156326045Y-88430000D01*
X156220955Y-88430000D01*
X156117884Y-88450502D01*
X156020793Y-88490719D01*
X155933414Y-88549104D01*
X155859104Y-88623414D01*
X155800719Y-88710793D01*
X155760502Y-88807884D01*
X155740000Y-88910955D01*
X151686701Y-88910955D01*
X151595549Y-88878663D01*
X150685212Y-89789000D01*
X150304788Y-89789000D01*
X149394451Y-88878663D01*
X149138169Y-88969455D01*
X149004355Y-89249907D01*
X148927826Y-89551076D01*
X148911522Y-89861388D01*
X148956070Y-90168918D01*
X148980950Y-90239205D01*
X148971378Y-90224880D01*
X148789120Y-90042622D01*
X148574807Y-89899423D01*
X148336675Y-89800785D01*
X148083876Y-89750500D01*
X147826124Y-89750500D01*
X147573325Y-89800785D01*
X147335193Y-89899423D01*
X147120880Y-90042622D01*
X146938622Y-90224880D01*
X146795423Y-90439193D01*
X146696785Y-90677325D01*
X146646500Y-90930124D01*
X146646500Y-91187876D01*
X146696785Y-91440675D01*
X146795423Y-91678807D01*
X146938622Y-91893120D01*
X147120880Y-92075378D01*
X147335193Y-92218577D01*
X147573325Y-92317215D01*
X147632572Y-92329000D01*
X147573325Y-92340785D01*
X147335193Y-92439423D01*
X147120880Y-92582622D01*
X146938622Y-92764880D01*
X146795423Y-92979193D01*
X146696785Y-93217325D01*
X146646500Y-93470124D01*
X146646500Y-93727876D01*
X146696785Y-93980675D01*
X146795423Y-94218807D01*
X146938622Y-94433120D01*
X147120880Y-94615378D01*
X147335193Y-94758577D01*
X147573325Y-94857215D01*
X147632572Y-94869000D01*
X147573325Y-94880785D01*
X147335193Y-94979423D01*
X147120880Y-95122622D01*
X146938622Y-95304880D01*
X146795423Y-95519193D01*
X146696785Y-95757325D01*
X146646500Y-96010124D01*
X146646500Y-96267876D01*
X146696785Y-96520675D01*
X146795423Y-96758807D01*
X146938622Y-96973120D01*
X147120880Y-97155378D01*
X147335193Y-97298577D01*
X147504643Y-97368766D01*
X147005000Y-97368766D01*
X146934722Y-97375688D01*
X146867144Y-97396187D01*
X146804865Y-97429476D01*
X146750276Y-97474276D01*
X146705476Y-97528865D01*
X146672187Y-97591144D01*
X146651688Y-97658722D01*
X146644766Y-97729000D01*
X139506353Y-97729000D01*
X139488407Y-97638783D01*
X139390147Y-97401561D01*
X139247495Y-97188067D01*
X139065933Y-97006505D01*
X138852439Y-96863853D01*
X138615217Y-96765593D01*
X138363384Y-96715500D01*
X138106616Y-96715500D01*
X137854783Y-96765593D01*
X137617561Y-96863853D01*
X137404067Y-97006505D01*
X137222505Y-97188067D01*
X137079853Y-97401561D01*
X136981593Y-97638783D01*
X136931500Y-97890616D01*
X134012500Y-97890616D01*
X134012500Y-95058143D01*
X138533500Y-95058143D01*
X138533500Y-95187857D01*
X138558806Y-95315077D01*
X138608445Y-95434917D01*
X138680510Y-95542769D01*
X138772231Y-95634490D01*
X138880083Y-95706555D01*
X138999923Y-95756194D01*
X139127143Y-95781500D01*
X139256857Y-95781500D01*
X139384077Y-95756194D01*
X139503917Y-95706555D01*
X139611769Y-95634490D01*
X139703490Y-95542769D01*
X139775555Y-95434917D01*
X139825194Y-95315077D01*
X139850500Y-95187857D01*
X139850500Y-95058143D01*
X139825194Y-94930923D01*
X139775555Y-94811083D01*
X139703490Y-94703231D01*
X139611769Y-94611510D01*
X139503917Y-94539445D01*
X139384077Y-94489806D01*
X139256857Y-94464500D01*
X139127143Y-94464500D01*
X138999923Y-94489806D01*
X138880083Y-94539445D01*
X138772231Y-94611510D01*
X138680510Y-94703231D01*
X138608445Y-94811083D01*
X138558806Y-94930923D01*
X138533500Y-95058143D01*
X134012500Y-95058143D01*
X134012500Y-90320616D01*
X135411500Y-90320616D01*
X135411500Y-90577384D01*
X135461593Y-90829217D01*
X135559853Y-91066439D01*
X135702505Y-91279933D01*
X135884067Y-91461495D01*
X136097561Y-91604147D01*
X136334783Y-91702407D01*
X136586616Y-91752500D01*
X136843384Y-91752500D01*
X137095217Y-91702407D01*
X137332439Y-91604147D01*
X137545933Y-91461495D01*
X137727495Y-91279933D01*
X137870147Y-91066439D01*
X137968407Y-90829217D01*
X138018500Y-90577384D01*
X138018500Y-90320616D01*
X137968407Y-90068783D01*
X137870147Y-89831561D01*
X137727495Y-89618067D01*
X137545933Y-89436505D01*
X137332439Y-89293853D01*
X137095217Y-89195593D01*
X136843384Y-89145500D01*
X136586616Y-89145500D01*
X136334783Y-89195593D01*
X136097561Y-89293853D01*
X135884067Y-89436505D01*
X135702505Y-89618067D01*
X135559853Y-89831561D01*
X135461593Y-90068783D01*
X135411500Y-90320616D01*
X134012500Y-90320616D01*
X134012500Y-87780616D01*
X136931500Y-87780616D01*
X136931500Y-88037384D01*
X136981593Y-88289217D01*
X137079853Y-88526439D01*
X137222505Y-88739933D01*
X137404067Y-88921495D01*
X137617561Y-89064147D01*
X137854783Y-89162407D01*
X138106616Y-89212500D01*
X138363384Y-89212500D01*
X138615217Y-89162407D01*
X138852439Y-89064147D01*
X139065933Y-88921495D01*
X139247495Y-88739933D01*
X139390147Y-88526439D01*
X139474147Y-88323642D01*
X139631500Y-88323642D01*
X139631500Y-88714358D01*
X139707725Y-89097566D01*
X139857245Y-89458539D01*
X140074315Y-89783407D01*
X140350593Y-90059685D01*
X140675461Y-90276755D01*
X141036434Y-90426275D01*
X141419642Y-90502500D01*
X141810358Y-90502500D01*
X142193566Y-90426275D01*
X142554539Y-90276755D01*
X142879407Y-90059685D01*
X143155685Y-89783407D01*
X143372755Y-89458539D01*
X143522275Y-89097566D01*
X143598500Y-88714358D01*
X143598500Y-88688451D01*
X149584663Y-88688451D01*
X150495000Y-89598788D01*
X151405337Y-88688451D01*
X151314545Y-88432169D01*
X151034093Y-88298355D01*
X150732924Y-88221826D01*
X150422612Y-88205522D01*
X150115082Y-88250070D01*
X149822152Y-88353759D01*
X149675455Y-88432169D01*
X149584663Y-88688451D01*
X143598500Y-88688451D01*
X143598500Y-88323642D01*
X143522275Y-87940434D01*
X143478782Y-87835432D01*
X143505090Y-87809124D01*
X143638123Y-88101200D01*
X143978232Y-88269979D01*
X144344732Y-88369163D01*
X144723541Y-88394942D01*
X145100099Y-88346322D01*
X145459937Y-88225175D01*
X145691877Y-88101200D01*
X145824911Y-87809123D01*
X144665000Y-86649212D01*
X144650858Y-86663354D01*
X144460646Y-86473142D01*
X144474788Y-86459000D01*
X144855212Y-86459000D01*
X146015123Y-87618911D01*
X146307200Y-87485877D01*
X146475979Y-87145768D01*
X146575163Y-86779268D01*
X146600942Y-86400459D01*
X146552322Y-86023901D01*
X146431175Y-85664063D01*
X146307200Y-85432123D01*
X146015123Y-85299089D01*
X144855212Y-86459000D01*
X144474788Y-86459000D01*
X143314877Y-85299089D01*
X143022800Y-85432123D01*
X142854021Y-85772232D01*
X142754837Y-86138732D01*
X142729058Y-86517541D01*
X142777678Y-86894099D01*
X142784734Y-86915056D01*
X142554539Y-86761245D01*
X142193566Y-86611725D01*
X141810358Y-86535500D01*
X141419642Y-86535500D01*
X141036434Y-86611725D01*
X140675461Y-86761245D01*
X140350593Y-86978315D01*
X140074315Y-87254593D01*
X139857245Y-87579461D01*
X139707725Y-87940434D01*
X139631500Y-88323642D01*
X139474147Y-88323642D01*
X139488407Y-88289217D01*
X139538500Y-88037384D01*
X139538500Y-87780616D01*
X139488407Y-87528783D01*
X139390147Y-87291561D01*
X139247495Y-87078067D01*
X139065933Y-86896505D01*
X138852439Y-86753853D01*
X138615217Y-86655593D01*
X138363384Y-86605500D01*
X138106616Y-86605500D01*
X137854783Y-86655593D01*
X137617561Y-86753853D01*
X137404067Y-86896505D01*
X137222505Y-87078067D01*
X137079853Y-87291561D01*
X136981593Y-87528783D01*
X136931500Y-87780616D01*
X134012500Y-87780616D01*
X134012500Y-85108877D01*
X143505089Y-85108877D01*
X144665000Y-86268788D01*
X145824911Y-85108877D01*
X145753364Y-84951794D01*
X152013500Y-84951794D01*
X152013500Y-85101206D01*
X152042649Y-85247746D01*
X152099826Y-85385784D01*
X152182835Y-85510016D01*
X152288484Y-85615665D01*
X152412716Y-85698674D01*
X152550754Y-85755851D01*
X152697294Y-85785000D01*
X152846706Y-85785000D01*
X152993246Y-85755851D01*
X153131284Y-85698674D01*
X153255516Y-85615665D01*
X153361165Y-85510016D01*
X153444174Y-85385784D01*
X153501351Y-85247746D01*
X153530500Y-85101206D01*
X153530500Y-84951794D01*
X153501351Y-84805254D01*
X153444174Y-84667216D01*
X153361165Y-84542984D01*
X153255516Y-84437335D01*
X153131284Y-84354326D01*
X152993246Y-84297149D01*
X152846706Y-84268000D01*
X152697294Y-84268000D01*
X152550754Y-84297149D01*
X152412716Y-84354326D01*
X152288484Y-84437335D01*
X152182835Y-84542984D01*
X152099826Y-84667216D01*
X152042649Y-84805254D01*
X152013500Y-84951794D01*
X145753364Y-84951794D01*
X145691877Y-84816800D01*
X145351768Y-84648021D01*
X144985268Y-84548837D01*
X144606459Y-84523058D01*
X144229901Y-84571678D01*
X143870063Y-84692825D01*
X143638123Y-84816800D01*
X143505089Y-85108877D01*
X134012500Y-85108877D01*
X134012500Y-82006000D01*
X135949766Y-82006000D01*
X135949766Y-83590500D01*
M02*
