G04 #@! TF.GenerationSoftware,KiCad,Pcbnew,(5.1.5)-3*
G04 #@! TF.CreationDate,2020-07-18T04:54:50-04:00*
G04 #@! TF.ProjectId,MONster64 - NetModule,4d4f4e73-7465-4723-9634-202d204e6574,rev?*
G04 #@! TF.SameCoordinates,Original*
G04 #@! TF.FileFunction,Paste,Top*
G04 #@! TF.FilePolarity,Positive*
%FSLAX46Y46*%
G04 Gerber Fmt 4.6, Leading zero omitted, Abs format (unit mm)*
G04 Created by KiCad (PCBNEW (5.1.5)-3) date 2020-07-18 04:54:50*
%MOMM*%
%LPD*%
G04 APERTURE LIST*
%ADD10C,0.100000*%
%ADD11R,1.725000X2.100000*%
G04 APERTURE END LIST*
D10*
G36*
X178539505Y-101599704D02*
G01*
X178563773Y-101603304D01*
X178587572Y-101609265D01*
X178610671Y-101617530D01*
X178632850Y-101628020D01*
X178653893Y-101640632D01*
X178673599Y-101655247D01*
X178691777Y-101671723D01*
X178708253Y-101689901D01*
X178722868Y-101709607D01*
X178735480Y-101730650D01*
X178745970Y-101752829D01*
X178754235Y-101775928D01*
X178760196Y-101799727D01*
X178763796Y-101823995D01*
X178765000Y-101848499D01*
X178765000Y-102748501D01*
X178763796Y-102773005D01*
X178760196Y-102797273D01*
X178754235Y-102821072D01*
X178745970Y-102844171D01*
X178735480Y-102866350D01*
X178722868Y-102887393D01*
X178708253Y-102907099D01*
X178691777Y-102925277D01*
X178673599Y-102941753D01*
X178653893Y-102956368D01*
X178632850Y-102968980D01*
X178610671Y-102979470D01*
X178587572Y-102987735D01*
X178563773Y-102993696D01*
X178539505Y-102997296D01*
X178515001Y-102998500D01*
X177864999Y-102998500D01*
X177840495Y-102997296D01*
X177816227Y-102993696D01*
X177792428Y-102987735D01*
X177769329Y-102979470D01*
X177747150Y-102968980D01*
X177726107Y-102956368D01*
X177706401Y-102941753D01*
X177688223Y-102925277D01*
X177671747Y-102907099D01*
X177657132Y-102887393D01*
X177644520Y-102866350D01*
X177634030Y-102844171D01*
X177625765Y-102821072D01*
X177619804Y-102797273D01*
X177616204Y-102773005D01*
X177615000Y-102748501D01*
X177615000Y-101848499D01*
X177616204Y-101823995D01*
X177619804Y-101799727D01*
X177625765Y-101775928D01*
X177634030Y-101752829D01*
X177644520Y-101730650D01*
X177657132Y-101709607D01*
X177671747Y-101689901D01*
X177688223Y-101671723D01*
X177706401Y-101655247D01*
X177726107Y-101640632D01*
X177747150Y-101628020D01*
X177769329Y-101617530D01*
X177792428Y-101609265D01*
X177816227Y-101603304D01*
X177840495Y-101599704D01*
X177864999Y-101598500D01*
X178515001Y-101598500D01*
X178539505Y-101599704D01*
G37*
G36*
X176489505Y-101599704D02*
G01*
X176513773Y-101603304D01*
X176537572Y-101609265D01*
X176560671Y-101617530D01*
X176582850Y-101628020D01*
X176603893Y-101640632D01*
X176623599Y-101655247D01*
X176641777Y-101671723D01*
X176658253Y-101689901D01*
X176672868Y-101709607D01*
X176685480Y-101730650D01*
X176695970Y-101752829D01*
X176704235Y-101775928D01*
X176710196Y-101799727D01*
X176713796Y-101823995D01*
X176715000Y-101848499D01*
X176715000Y-102748501D01*
X176713796Y-102773005D01*
X176710196Y-102797273D01*
X176704235Y-102821072D01*
X176695970Y-102844171D01*
X176685480Y-102866350D01*
X176672868Y-102887393D01*
X176658253Y-102907099D01*
X176641777Y-102925277D01*
X176623599Y-102941753D01*
X176603893Y-102956368D01*
X176582850Y-102968980D01*
X176560671Y-102979470D01*
X176537572Y-102987735D01*
X176513773Y-102993696D01*
X176489505Y-102997296D01*
X176465001Y-102998500D01*
X175814999Y-102998500D01*
X175790495Y-102997296D01*
X175766227Y-102993696D01*
X175742428Y-102987735D01*
X175719329Y-102979470D01*
X175697150Y-102968980D01*
X175676107Y-102956368D01*
X175656401Y-102941753D01*
X175638223Y-102925277D01*
X175621747Y-102907099D01*
X175607132Y-102887393D01*
X175594520Y-102866350D01*
X175584030Y-102844171D01*
X175575765Y-102821072D01*
X175569804Y-102797273D01*
X175566204Y-102773005D01*
X175565000Y-102748501D01*
X175565000Y-101848499D01*
X175566204Y-101823995D01*
X175569804Y-101799727D01*
X175575765Y-101775928D01*
X175584030Y-101752829D01*
X175594520Y-101730650D01*
X175607132Y-101709607D01*
X175621747Y-101689901D01*
X175638223Y-101671723D01*
X175656401Y-101655247D01*
X175676107Y-101640632D01*
X175697150Y-101628020D01*
X175719329Y-101617530D01*
X175742428Y-101609265D01*
X175766227Y-101603304D01*
X175790495Y-101599704D01*
X175814999Y-101598500D01*
X176465001Y-101598500D01*
X176489505Y-101599704D01*
G37*
G36*
X174210505Y-105652704D02*
G01*
X174234773Y-105656304D01*
X174258572Y-105662265D01*
X174281671Y-105670530D01*
X174303850Y-105681020D01*
X174324893Y-105693632D01*
X174344599Y-105708247D01*
X174362777Y-105724723D01*
X174379253Y-105742901D01*
X174393868Y-105762607D01*
X174406480Y-105783650D01*
X174416970Y-105805829D01*
X174425235Y-105828928D01*
X174431196Y-105852727D01*
X174434796Y-105876995D01*
X174436000Y-105901499D01*
X174436000Y-106551501D01*
X174434796Y-106576005D01*
X174431196Y-106600273D01*
X174425235Y-106624072D01*
X174416970Y-106647171D01*
X174406480Y-106669350D01*
X174393868Y-106690393D01*
X174379253Y-106710099D01*
X174362777Y-106728277D01*
X174344599Y-106744753D01*
X174324893Y-106759368D01*
X174303850Y-106771980D01*
X174281671Y-106782470D01*
X174258572Y-106790735D01*
X174234773Y-106796696D01*
X174210505Y-106800296D01*
X174186001Y-106801500D01*
X173285999Y-106801500D01*
X173261495Y-106800296D01*
X173237227Y-106796696D01*
X173213428Y-106790735D01*
X173190329Y-106782470D01*
X173168150Y-106771980D01*
X173147107Y-106759368D01*
X173127401Y-106744753D01*
X173109223Y-106728277D01*
X173092747Y-106710099D01*
X173078132Y-106690393D01*
X173065520Y-106669350D01*
X173055030Y-106647171D01*
X173046765Y-106624072D01*
X173040804Y-106600273D01*
X173037204Y-106576005D01*
X173036000Y-106551501D01*
X173036000Y-105901499D01*
X173037204Y-105876995D01*
X173040804Y-105852727D01*
X173046765Y-105828928D01*
X173055030Y-105805829D01*
X173065520Y-105783650D01*
X173078132Y-105762607D01*
X173092747Y-105742901D01*
X173109223Y-105724723D01*
X173127401Y-105708247D01*
X173147107Y-105693632D01*
X173168150Y-105681020D01*
X173190329Y-105670530D01*
X173213428Y-105662265D01*
X173237227Y-105656304D01*
X173261495Y-105652704D01*
X173285999Y-105651500D01*
X174186001Y-105651500D01*
X174210505Y-105652704D01*
G37*
G36*
X174210505Y-107702704D02*
G01*
X174234773Y-107706304D01*
X174258572Y-107712265D01*
X174281671Y-107720530D01*
X174303850Y-107731020D01*
X174324893Y-107743632D01*
X174344599Y-107758247D01*
X174362777Y-107774723D01*
X174379253Y-107792901D01*
X174393868Y-107812607D01*
X174406480Y-107833650D01*
X174416970Y-107855829D01*
X174425235Y-107878928D01*
X174431196Y-107902727D01*
X174434796Y-107926995D01*
X174436000Y-107951499D01*
X174436000Y-108601501D01*
X174434796Y-108626005D01*
X174431196Y-108650273D01*
X174425235Y-108674072D01*
X174416970Y-108697171D01*
X174406480Y-108719350D01*
X174393868Y-108740393D01*
X174379253Y-108760099D01*
X174362777Y-108778277D01*
X174344599Y-108794753D01*
X174324893Y-108809368D01*
X174303850Y-108821980D01*
X174281671Y-108832470D01*
X174258572Y-108840735D01*
X174234773Y-108846696D01*
X174210505Y-108850296D01*
X174186001Y-108851500D01*
X173285999Y-108851500D01*
X173261495Y-108850296D01*
X173237227Y-108846696D01*
X173213428Y-108840735D01*
X173190329Y-108832470D01*
X173168150Y-108821980D01*
X173147107Y-108809368D01*
X173127401Y-108794753D01*
X173109223Y-108778277D01*
X173092747Y-108760099D01*
X173078132Y-108740393D01*
X173065520Y-108719350D01*
X173055030Y-108697171D01*
X173046765Y-108674072D01*
X173040804Y-108650273D01*
X173037204Y-108626005D01*
X173036000Y-108601501D01*
X173036000Y-107951499D01*
X173037204Y-107926995D01*
X173040804Y-107902727D01*
X173046765Y-107878928D01*
X173055030Y-107855829D01*
X173065520Y-107833650D01*
X173078132Y-107812607D01*
X173092747Y-107792901D01*
X173109223Y-107774723D01*
X173127401Y-107758247D01*
X173147107Y-107743632D01*
X173168150Y-107731020D01*
X173190329Y-107720530D01*
X173213428Y-107712265D01*
X173237227Y-107706304D01*
X173261495Y-107702704D01*
X173285999Y-107701500D01*
X174186001Y-107701500D01*
X174210505Y-107702704D01*
G37*
G36*
X153121505Y-92201704D02*
G01*
X153145773Y-92205304D01*
X153169572Y-92211265D01*
X153192671Y-92219530D01*
X153214850Y-92230020D01*
X153235893Y-92242632D01*
X153255599Y-92257247D01*
X153273777Y-92273723D01*
X153290253Y-92291901D01*
X153304868Y-92311607D01*
X153317480Y-92332650D01*
X153327970Y-92354829D01*
X153336235Y-92377928D01*
X153342196Y-92401727D01*
X153345796Y-92425995D01*
X153347000Y-92450499D01*
X153347000Y-93350501D01*
X153345796Y-93375005D01*
X153342196Y-93399273D01*
X153336235Y-93423072D01*
X153327970Y-93446171D01*
X153317480Y-93468350D01*
X153304868Y-93489393D01*
X153290253Y-93509099D01*
X153273777Y-93527277D01*
X153255599Y-93543753D01*
X153235893Y-93558368D01*
X153214850Y-93570980D01*
X153192671Y-93581470D01*
X153169572Y-93589735D01*
X153145773Y-93595696D01*
X153121505Y-93599296D01*
X153097001Y-93600500D01*
X152446999Y-93600500D01*
X152422495Y-93599296D01*
X152398227Y-93595696D01*
X152374428Y-93589735D01*
X152351329Y-93581470D01*
X152329150Y-93570980D01*
X152308107Y-93558368D01*
X152288401Y-93543753D01*
X152270223Y-93527277D01*
X152253747Y-93509099D01*
X152239132Y-93489393D01*
X152226520Y-93468350D01*
X152216030Y-93446171D01*
X152207765Y-93423072D01*
X152201804Y-93399273D01*
X152198204Y-93375005D01*
X152197000Y-93350501D01*
X152197000Y-92450499D01*
X152198204Y-92425995D01*
X152201804Y-92401727D01*
X152207765Y-92377928D01*
X152216030Y-92354829D01*
X152226520Y-92332650D01*
X152239132Y-92311607D01*
X152253747Y-92291901D01*
X152270223Y-92273723D01*
X152288401Y-92257247D01*
X152308107Y-92242632D01*
X152329150Y-92230020D01*
X152351329Y-92219530D01*
X152374428Y-92211265D01*
X152398227Y-92205304D01*
X152422495Y-92201704D01*
X152446999Y-92200500D01*
X153097001Y-92200500D01*
X153121505Y-92201704D01*
G37*
G36*
X155171505Y-92201704D02*
G01*
X155195773Y-92205304D01*
X155219572Y-92211265D01*
X155242671Y-92219530D01*
X155264850Y-92230020D01*
X155285893Y-92242632D01*
X155305599Y-92257247D01*
X155323777Y-92273723D01*
X155340253Y-92291901D01*
X155354868Y-92311607D01*
X155367480Y-92332650D01*
X155377970Y-92354829D01*
X155386235Y-92377928D01*
X155392196Y-92401727D01*
X155395796Y-92425995D01*
X155397000Y-92450499D01*
X155397000Y-93350501D01*
X155395796Y-93375005D01*
X155392196Y-93399273D01*
X155386235Y-93423072D01*
X155377970Y-93446171D01*
X155367480Y-93468350D01*
X155354868Y-93489393D01*
X155340253Y-93509099D01*
X155323777Y-93527277D01*
X155305599Y-93543753D01*
X155285893Y-93558368D01*
X155264850Y-93570980D01*
X155242671Y-93581470D01*
X155219572Y-93589735D01*
X155195773Y-93595696D01*
X155171505Y-93599296D01*
X155147001Y-93600500D01*
X154496999Y-93600500D01*
X154472495Y-93599296D01*
X154448227Y-93595696D01*
X154424428Y-93589735D01*
X154401329Y-93581470D01*
X154379150Y-93570980D01*
X154358107Y-93558368D01*
X154338401Y-93543753D01*
X154320223Y-93527277D01*
X154303747Y-93509099D01*
X154289132Y-93489393D01*
X154276520Y-93468350D01*
X154266030Y-93446171D01*
X154257765Y-93423072D01*
X154251804Y-93399273D01*
X154248204Y-93375005D01*
X154247000Y-93350501D01*
X154247000Y-92450499D01*
X154248204Y-92425995D01*
X154251804Y-92401727D01*
X154257765Y-92377928D01*
X154266030Y-92354829D01*
X154276520Y-92332650D01*
X154289132Y-92311607D01*
X154303747Y-92291901D01*
X154320223Y-92273723D01*
X154338401Y-92257247D01*
X154358107Y-92242632D01*
X154379150Y-92230020D01*
X154401329Y-92219530D01*
X154424428Y-92211265D01*
X154448227Y-92205304D01*
X154472495Y-92201704D01*
X154496999Y-92200500D01*
X155147001Y-92200500D01*
X155171505Y-92201704D01*
G37*
G36*
X155171505Y-90233204D02*
G01*
X155195773Y-90236804D01*
X155219572Y-90242765D01*
X155242671Y-90251030D01*
X155264850Y-90261520D01*
X155285893Y-90274132D01*
X155305599Y-90288747D01*
X155323777Y-90305223D01*
X155340253Y-90323401D01*
X155354868Y-90343107D01*
X155367480Y-90364150D01*
X155377970Y-90386329D01*
X155386235Y-90409428D01*
X155392196Y-90433227D01*
X155395796Y-90457495D01*
X155397000Y-90481999D01*
X155397000Y-91382001D01*
X155395796Y-91406505D01*
X155392196Y-91430773D01*
X155386235Y-91454572D01*
X155377970Y-91477671D01*
X155367480Y-91499850D01*
X155354868Y-91520893D01*
X155340253Y-91540599D01*
X155323777Y-91558777D01*
X155305599Y-91575253D01*
X155285893Y-91589868D01*
X155264850Y-91602480D01*
X155242671Y-91612970D01*
X155219572Y-91621235D01*
X155195773Y-91627196D01*
X155171505Y-91630796D01*
X155147001Y-91632000D01*
X154496999Y-91632000D01*
X154472495Y-91630796D01*
X154448227Y-91627196D01*
X154424428Y-91621235D01*
X154401329Y-91612970D01*
X154379150Y-91602480D01*
X154358107Y-91589868D01*
X154338401Y-91575253D01*
X154320223Y-91558777D01*
X154303747Y-91540599D01*
X154289132Y-91520893D01*
X154276520Y-91499850D01*
X154266030Y-91477671D01*
X154257765Y-91454572D01*
X154251804Y-91430773D01*
X154248204Y-91406505D01*
X154247000Y-91382001D01*
X154247000Y-90481999D01*
X154248204Y-90457495D01*
X154251804Y-90433227D01*
X154257765Y-90409428D01*
X154266030Y-90386329D01*
X154276520Y-90364150D01*
X154289132Y-90343107D01*
X154303747Y-90323401D01*
X154320223Y-90305223D01*
X154338401Y-90288747D01*
X154358107Y-90274132D01*
X154379150Y-90261520D01*
X154401329Y-90251030D01*
X154424428Y-90242765D01*
X154448227Y-90236804D01*
X154472495Y-90233204D01*
X154496999Y-90232000D01*
X155147001Y-90232000D01*
X155171505Y-90233204D01*
G37*
G36*
X153121505Y-90233204D02*
G01*
X153145773Y-90236804D01*
X153169572Y-90242765D01*
X153192671Y-90251030D01*
X153214850Y-90261520D01*
X153235893Y-90274132D01*
X153255599Y-90288747D01*
X153273777Y-90305223D01*
X153290253Y-90323401D01*
X153304868Y-90343107D01*
X153317480Y-90364150D01*
X153327970Y-90386329D01*
X153336235Y-90409428D01*
X153342196Y-90433227D01*
X153345796Y-90457495D01*
X153347000Y-90481999D01*
X153347000Y-91382001D01*
X153345796Y-91406505D01*
X153342196Y-91430773D01*
X153336235Y-91454572D01*
X153327970Y-91477671D01*
X153317480Y-91499850D01*
X153304868Y-91520893D01*
X153290253Y-91540599D01*
X153273777Y-91558777D01*
X153255599Y-91575253D01*
X153235893Y-91589868D01*
X153214850Y-91602480D01*
X153192671Y-91612970D01*
X153169572Y-91621235D01*
X153145773Y-91627196D01*
X153121505Y-91630796D01*
X153097001Y-91632000D01*
X152446999Y-91632000D01*
X152422495Y-91630796D01*
X152398227Y-91627196D01*
X152374428Y-91621235D01*
X152351329Y-91612970D01*
X152329150Y-91602480D01*
X152308107Y-91589868D01*
X152288401Y-91575253D01*
X152270223Y-91558777D01*
X152253747Y-91540599D01*
X152239132Y-91520893D01*
X152226520Y-91499850D01*
X152216030Y-91477671D01*
X152207765Y-91454572D01*
X152201804Y-91430773D01*
X152198204Y-91406505D01*
X152197000Y-91382001D01*
X152197000Y-90481999D01*
X152198204Y-90457495D01*
X152201804Y-90433227D01*
X152207765Y-90409428D01*
X152216030Y-90386329D01*
X152226520Y-90364150D01*
X152239132Y-90343107D01*
X152253747Y-90323401D01*
X152270223Y-90305223D01*
X152288401Y-90288747D01*
X152308107Y-90274132D01*
X152329150Y-90261520D01*
X152351329Y-90251030D01*
X152374428Y-90242765D01*
X152398227Y-90236804D01*
X152422495Y-90233204D01*
X152446999Y-90232000D01*
X153097001Y-90232000D01*
X153121505Y-90233204D01*
G37*
G36*
X153121505Y-86296204D02*
G01*
X153145773Y-86299804D01*
X153169572Y-86305765D01*
X153192671Y-86314030D01*
X153214850Y-86324520D01*
X153235893Y-86337132D01*
X153255599Y-86351747D01*
X153273777Y-86368223D01*
X153290253Y-86386401D01*
X153304868Y-86406107D01*
X153317480Y-86427150D01*
X153327970Y-86449329D01*
X153336235Y-86472428D01*
X153342196Y-86496227D01*
X153345796Y-86520495D01*
X153347000Y-86544999D01*
X153347000Y-87445001D01*
X153345796Y-87469505D01*
X153342196Y-87493773D01*
X153336235Y-87517572D01*
X153327970Y-87540671D01*
X153317480Y-87562850D01*
X153304868Y-87583893D01*
X153290253Y-87603599D01*
X153273777Y-87621777D01*
X153255599Y-87638253D01*
X153235893Y-87652868D01*
X153214850Y-87665480D01*
X153192671Y-87675970D01*
X153169572Y-87684235D01*
X153145773Y-87690196D01*
X153121505Y-87693796D01*
X153097001Y-87695000D01*
X152446999Y-87695000D01*
X152422495Y-87693796D01*
X152398227Y-87690196D01*
X152374428Y-87684235D01*
X152351329Y-87675970D01*
X152329150Y-87665480D01*
X152308107Y-87652868D01*
X152288401Y-87638253D01*
X152270223Y-87621777D01*
X152253747Y-87603599D01*
X152239132Y-87583893D01*
X152226520Y-87562850D01*
X152216030Y-87540671D01*
X152207765Y-87517572D01*
X152201804Y-87493773D01*
X152198204Y-87469505D01*
X152197000Y-87445001D01*
X152197000Y-86544999D01*
X152198204Y-86520495D01*
X152201804Y-86496227D01*
X152207765Y-86472428D01*
X152216030Y-86449329D01*
X152226520Y-86427150D01*
X152239132Y-86406107D01*
X152253747Y-86386401D01*
X152270223Y-86368223D01*
X152288401Y-86351747D01*
X152308107Y-86337132D01*
X152329150Y-86324520D01*
X152351329Y-86314030D01*
X152374428Y-86305765D01*
X152398227Y-86299804D01*
X152422495Y-86296204D01*
X152446999Y-86295000D01*
X153097001Y-86295000D01*
X153121505Y-86296204D01*
G37*
G36*
X155171505Y-86296204D02*
G01*
X155195773Y-86299804D01*
X155219572Y-86305765D01*
X155242671Y-86314030D01*
X155264850Y-86324520D01*
X155285893Y-86337132D01*
X155305599Y-86351747D01*
X155323777Y-86368223D01*
X155340253Y-86386401D01*
X155354868Y-86406107D01*
X155367480Y-86427150D01*
X155377970Y-86449329D01*
X155386235Y-86472428D01*
X155392196Y-86496227D01*
X155395796Y-86520495D01*
X155397000Y-86544999D01*
X155397000Y-87445001D01*
X155395796Y-87469505D01*
X155392196Y-87493773D01*
X155386235Y-87517572D01*
X155377970Y-87540671D01*
X155367480Y-87562850D01*
X155354868Y-87583893D01*
X155340253Y-87603599D01*
X155323777Y-87621777D01*
X155305599Y-87638253D01*
X155285893Y-87652868D01*
X155264850Y-87665480D01*
X155242671Y-87675970D01*
X155219572Y-87684235D01*
X155195773Y-87690196D01*
X155171505Y-87693796D01*
X155147001Y-87695000D01*
X154496999Y-87695000D01*
X154472495Y-87693796D01*
X154448227Y-87690196D01*
X154424428Y-87684235D01*
X154401329Y-87675970D01*
X154379150Y-87665480D01*
X154358107Y-87652868D01*
X154338401Y-87638253D01*
X154320223Y-87621777D01*
X154303747Y-87603599D01*
X154289132Y-87583893D01*
X154276520Y-87562850D01*
X154266030Y-87540671D01*
X154257765Y-87517572D01*
X154251804Y-87493773D01*
X154248204Y-87469505D01*
X154247000Y-87445001D01*
X154247000Y-86544999D01*
X154248204Y-86520495D01*
X154251804Y-86496227D01*
X154257765Y-86472428D01*
X154266030Y-86449329D01*
X154276520Y-86427150D01*
X154289132Y-86406107D01*
X154303747Y-86386401D01*
X154320223Y-86368223D01*
X154338401Y-86351747D01*
X154358107Y-86337132D01*
X154379150Y-86324520D01*
X154401329Y-86314030D01*
X154424428Y-86305765D01*
X154448227Y-86299804D01*
X154472495Y-86296204D01*
X154496999Y-86295000D01*
X155147001Y-86295000D01*
X155171505Y-86296204D01*
G37*
G36*
X155171505Y-84327704D02*
G01*
X155195773Y-84331304D01*
X155219572Y-84337265D01*
X155242671Y-84345530D01*
X155264850Y-84356020D01*
X155285893Y-84368632D01*
X155305599Y-84383247D01*
X155323777Y-84399723D01*
X155340253Y-84417901D01*
X155354868Y-84437607D01*
X155367480Y-84458650D01*
X155377970Y-84480829D01*
X155386235Y-84503928D01*
X155392196Y-84527727D01*
X155395796Y-84551995D01*
X155397000Y-84576499D01*
X155397000Y-85476501D01*
X155395796Y-85501005D01*
X155392196Y-85525273D01*
X155386235Y-85549072D01*
X155377970Y-85572171D01*
X155367480Y-85594350D01*
X155354868Y-85615393D01*
X155340253Y-85635099D01*
X155323777Y-85653277D01*
X155305599Y-85669753D01*
X155285893Y-85684368D01*
X155264850Y-85696980D01*
X155242671Y-85707470D01*
X155219572Y-85715735D01*
X155195773Y-85721696D01*
X155171505Y-85725296D01*
X155147001Y-85726500D01*
X154496999Y-85726500D01*
X154472495Y-85725296D01*
X154448227Y-85721696D01*
X154424428Y-85715735D01*
X154401329Y-85707470D01*
X154379150Y-85696980D01*
X154358107Y-85684368D01*
X154338401Y-85669753D01*
X154320223Y-85653277D01*
X154303747Y-85635099D01*
X154289132Y-85615393D01*
X154276520Y-85594350D01*
X154266030Y-85572171D01*
X154257765Y-85549072D01*
X154251804Y-85525273D01*
X154248204Y-85501005D01*
X154247000Y-85476501D01*
X154247000Y-84576499D01*
X154248204Y-84551995D01*
X154251804Y-84527727D01*
X154257765Y-84503928D01*
X154266030Y-84480829D01*
X154276520Y-84458650D01*
X154289132Y-84437607D01*
X154303747Y-84417901D01*
X154320223Y-84399723D01*
X154338401Y-84383247D01*
X154358107Y-84368632D01*
X154379150Y-84356020D01*
X154401329Y-84345530D01*
X154424428Y-84337265D01*
X154448227Y-84331304D01*
X154472495Y-84327704D01*
X154496999Y-84326500D01*
X155147001Y-84326500D01*
X155171505Y-84327704D01*
G37*
G36*
X153121505Y-84327704D02*
G01*
X153145773Y-84331304D01*
X153169572Y-84337265D01*
X153192671Y-84345530D01*
X153214850Y-84356020D01*
X153235893Y-84368632D01*
X153255599Y-84383247D01*
X153273777Y-84399723D01*
X153290253Y-84417901D01*
X153304868Y-84437607D01*
X153317480Y-84458650D01*
X153327970Y-84480829D01*
X153336235Y-84503928D01*
X153342196Y-84527727D01*
X153345796Y-84551995D01*
X153347000Y-84576499D01*
X153347000Y-85476501D01*
X153345796Y-85501005D01*
X153342196Y-85525273D01*
X153336235Y-85549072D01*
X153327970Y-85572171D01*
X153317480Y-85594350D01*
X153304868Y-85615393D01*
X153290253Y-85635099D01*
X153273777Y-85653277D01*
X153255599Y-85669753D01*
X153235893Y-85684368D01*
X153214850Y-85696980D01*
X153192671Y-85707470D01*
X153169572Y-85715735D01*
X153145773Y-85721696D01*
X153121505Y-85725296D01*
X153097001Y-85726500D01*
X152446999Y-85726500D01*
X152422495Y-85725296D01*
X152398227Y-85721696D01*
X152374428Y-85715735D01*
X152351329Y-85707470D01*
X152329150Y-85696980D01*
X152308107Y-85684368D01*
X152288401Y-85669753D01*
X152270223Y-85653277D01*
X152253747Y-85635099D01*
X152239132Y-85615393D01*
X152226520Y-85594350D01*
X152216030Y-85572171D01*
X152207765Y-85549072D01*
X152201804Y-85525273D01*
X152198204Y-85501005D01*
X152197000Y-85476501D01*
X152197000Y-84576499D01*
X152198204Y-84551995D01*
X152201804Y-84527727D01*
X152207765Y-84503928D01*
X152216030Y-84480829D01*
X152226520Y-84458650D01*
X152239132Y-84437607D01*
X152253747Y-84417901D01*
X152270223Y-84399723D01*
X152288401Y-84383247D01*
X152308107Y-84368632D01*
X152329150Y-84356020D01*
X152351329Y-84345530D01*
X152374428Y-84337265D01*
X152398227Y-84331304D01*
X152422495Y-84327704D01*
X152446999Y-84326500D01*
X153097001Y-84326500D01*
X153121505Y-84327704D01*
G37*
G36*
X145572005Y-95066204D02*
G01*
X145596273Y-95069804D01*
X145620072Y-95075765D01*
X145643171Y-95084030D01*
X145665350Y-95094520D01*
X145686393Y-95107132D01*
X145706099Y-95121747D01*
X145724277Y-95138223D01*
X145740753Y-95156401D01*
X145755368Y-95176107D01*
X145767980Y-95197150D01*
X145778470Y-95219329D01*
X145786735Y-95242428D01*
X145792696Y-95266227D01*
X145796296Y-95290495D01*
X145797500Y-95314999D01*
X145797500Y-95965001D01*
X145796296Y-95989505D01*
X145792696Y-96013773D01*
X145786735Y-96037572D01*
X145778470Y-96060671D01*
X145767980Y-96082850D01*
X145755368Y-96103893D01*
X145740753Y-96123599D01*
X145724277Y-96141777D01*
X145706099Y-96158253D01*
X145686393Y-96172868D01*
X145665350Y-96185480D01*
X145643171Y-96195970D01*
X145620072Y-96204235D01*
X145596273Y-96210196D01*
X145572005Y-96213796D01*
X145547501Y-96215000D01*
X144647499Y-96215000D01*
X144622995Y-96213796D01*
X144598727Y-96210196D01*
X144574928Y-96204235D01*
X144551829Y-96195970D01*
X144529650Y-96185480D01*
X144508607Y-96172868D01*
X144488901Y-96158253D01*
X144470723Y-96141777D01*
X144454247Y-96123599D01*
X144439632Y-96103893D01*
X144427020Y-96082850D01*
X144416530Y-96060671D01*
X144408265Y-96037572D01*
X144402304Y-96013773D01*
X144398704Y-95989505D01*
X144397500Y-95965001D01*
X144397500Y-95314999D01*
X144398704Y-95290495D01*
X144402304Y-95266227D01*
X144408265Y-95242428D01*
X144416530Y-95219329D01*
X144427020Y-95197150D01*
X144439632Y-95176107D01*
X144454247Y-95156401D01*
X144470723Y-95138223D01*
X144488901Y-95121747D01*
X144508607Y-95107132D01*
X144529650Y-95094520D01*
X144551829Y-95084030D01*
X144574928Y-95075765D01*
X144598727Y-95069804D01*
X144622995Y-95066204D01*
X144647499Y-95065000D01*
X145547501Y-95065000D01*
X145572005Y-95066204D01*
G37*
G36*
X145572005Y-93016204D02*
G01*
X145596273Y-93019804D01*
X145620072Y-93025765D01*
X145643171Y-93034030D01*
X145665350Y-93044520D01*
X145686393Y-93057132D01*
X145706099Y-93071747D01*
X145724277Y-93088223D01*
X145740753Y-93106401D01*
X145755368Y-93126107D01*
X145767980Y-93147150D01*
X145778470Y-93169329D01*
X145786735Y-93192428D01*
X145792696Y-93216227D01*
X145796296Y-93240495D01*
X145797500Y-93264999D01*
X145797500Y-93915001D01*
X145796296Y-93939505D01*
X145792696Y-93963773D01*
X145786735Y-93987572D01*
X145778470Y-94010671D01*
X145767980Y-94032850D01*
X145755368Y-94053893D01*
X145740753Y-94073599D01*
X145724277Y-94091777D01*
X145706099Y-94108253D01*
X145686393Y-94122868D01*
X145665350Y-94135480D01*
X145643171Y-94145970D01*
X145620072Y-94154235D01*
X145596273Y-94160196D01*
X145572005Y-94163796D01*
X145547501Y-94165000D01*
X144647499Y-94165000D01*
X144622995Y-94163796D01*
X144598727Y-94160196D01*
X144574928Y-94154235D01*
X144551829Y-94145970D01*
X144529650Y-94135480D01*
X144508607Y-94122868D01*
X144488901Y-94108253D01*
X144470723Y-94091777D01*
X144454247Y-94073599D01*
X144439632Y-94053893D01*
X144427020Y-94032850D01*
X144416530Y-94010671D01*
X144408265Y-93987572D01*
X144402304Y-93963773D01*
X144398704Y-93939505D01*
X144397500Y-93915001D01*
X144397500Y-93264999D01*
X144398704Y-93240495D01*
X144402304Y-93216227D01*
X144408265Y-93192428D01*
X144416530Y-93169329D01*
X144427020Y-93147150D01*
X144439632Y-93126107D01*
X144454247Y-93106401D01*
X144470723Y-93088223D01*
X144488901Y-93071747D01*
X144508607Y-93057132D01*
X144529650Y-93044520D01*
X144551829Y-93034030D01*
X144574928Y-93025765D01*
X144598727Y-93019804D01*
X144622995Y-93016204D01*
X144647499Y-93015000D01*
X145547501Y-93015000D01*
X145572005Y-93016204D01*
G37*
G36*
X153121505Y-98107204D02*
G01*
X153145773Y-98110804D01*
X153169572Y-98116765D01*
X153192671Y-98125030D01*
X153214850Y-98135520D01*
X153235893Y-98148132D01*
X153255599Y-98162747D01*
X153273777Y-98179223D01*
X153290253Y-98197401D01*
X153304868Y-98217107D01*
X153317480Y-98238150D01*
X153327970Y-98260329D01*
X153336235Y-98283428D01*
X153342196Y-98307227D01*
X153345796Y-98331495D01*
X153347000Y-98355999D01*
X153347000Y-99256001D01*
X153345796Y-99280505D01*
X153342196Y-99304773D01*
X153336235Y-99328572D01*
X153327970Y-99351671D01*
X153317480Y-99373850D01*
X153304868Y-99394893D01*
X153290253Y-99414599D01*
X153273777Y-99432777D01*
X153255599Y-99449253D01*
X153235893Y-99463868D01*
X153214850Y-99476480D01*
X153192671Y-99486970D01*
X153169572Y-99495235D01*
X153145773Y-99501196D01*
X153121505Y-99504796D01*
X153097001Y-99506000D01*
X152446999Y-99506000D01*
X152422495Y-99504796D01*
X152398227Y-99501196D01*
X152374428Y-99495235D01*
X152351329Y-99486970D01*
X152329150Y-99476480D01*
X152308107Y-99463868D01*
X152288401Y-99449253D01*
X152270223Y-99432777D01*
X152253747Y-99414599D01*
X152239132Y-99394893D01*
X152226520Y-99373850D01*
X152216030Y-99351671D01*
X152207765Y-99328572D01*
X152201804Y-99304773D01*
X152198204Y-99280505D01*
X152197000Y-99256001D01*
X152197000Y-98355999D01*
X152198204Y-98331495D01*
X152201804Y-98307227D01*
X152207765Y-98283428D01*
X152216030Y-98260329D01*
X152226520Y-98238150D01*
X152239132Y-98217107D01*
X152253747Y-98197401D01*
X152270223Y-98179223D01*
X152288401Y-98162747D01*
X152308107Y-98148132D01*
X152329150Y-98135520D01*
X152351329Y-98125030D01*
X152374428Y-98116765D01*
X152398227Y-98110804D01*
X152422495Y-98107204D01*
X152446999Y-98106000D01*
X153097001Y-98106000D01*
X153121505Y-98107204D01*
G37*
G36*
X155171505Y-98107204D02*
G01*
X155195773Y-98110804D01*
X155219572Y-98116765D01*
X155242671Y-98125030D01*
X155264850Y-98135520D01*
X155285893Y-98148132D01*
X155305599Y-98162747D01*
X155323777Y-98179223D01*
X155340253Y-98197401D01*
X155354868Y-98217107D01*
X155367480Y-98238150D01*
X155377970Y-98260329D01*
X155386235Y-98283428D01*
X155392196Y-98307227D01*
X155395796Y-98331495D01*
X155397000Y-98355999D01*
X155397000Y-99256001D01*
X155395796Y-99280505D01*
X155392196Y-99304773D01*
X155386235Y-99328572D01*
X155377970Y-99351671D01*
X155367480Y-99373850D01*
X155354868Y-99394893D01*
X155340253Y-99414599D01*
X155323777Y-99432777D01*
X155305599Y-99449253D01*
X155285893Y-99463868D01*
X155264850Y-99476480D01*
X155242671Y-99486970D01*
X155219572Y-99495235D01*
X155195773Y-99501196D01*
X155171505Y-99504796D01*
X155147001Y-99506000D01*
X154496999Y-99506000D01*
X154472495Y-99504796D01*
X154448227Y-99501196D01*
X154424428Y-99495235D01*
X154401329Y-99486970D01*
X154379150Y-99476480D01*
X154358107Y-99463868D01*
X154338401Y-99449253D01*
X154320223Y-99432777D01*
X154303747Y-99414599D01*
X154289132Y-99394893D01*
X154276520Y-99373850D01*
X154266030Y-99351671D01*
X154257765Y-99328572D01*
X154251804Y-99304773D01*
X154248204Y-99280505D01*
X154247000Y-99256001D01*
X154247000Y-98355999D01*
X154248204Y-98331495D01*
X154251804Y-98307227D01*
X154257765Y-98283428D01*
X154266030Y-98260329D01*
X154276520Y-98238150D01*
X154289132Y-98217107D01*
X154303747Y-98197401D01*
X154320223Y-98179223D01*
X154338401Y-98162747D01*
X154358107Y-98148132D01*
X154379150Y-98135520D01*
X154401329Y-98125030D01*
X154424428Y-98116765D01*
X154448227Y-98110804D01*
X154472495Y-98107204D01*
X154496999Y-98106000D01*
X155147001Y-98106000D01*
X155171505Y-98107204D01*
G37*
G36*
X143603505Y-93016204D02*
G01*
X143627773Y-93019804D01*
X143651572Y-93025765D01*
X143674671Y-93034030D01*
X143696850Y-93044520D01*
X143717893Y-93057132D01*
X143737599Y-93071747D01*
X143755777Y-93088223D01*
X143772253Y-93106401D01*
X143786868Y-93126107D01*
X143799480Y-93147150D01*
X143809970Y-93169329D01*
X143818235Y-93192428D01*
X143824196Y-93216227D01*
X143827796Y-93240495D01*
X143829000Y-93264999D01*
X143829000Y-93915001D01*
X143827796Y-93939505D01*
X143824196Y-93963773D01*
X143818235Y-93987572D01*
X143809970Y-94010671D01*
X143799480Y-94032850D01*
X143786868Y-94053893D01*
X143772253Y-94073599D01*
X143755777Y-94091777D01*
X143737599Y-94108253D01*
X143717893Y-94122868D01*
X143696850Y-94135480D01*
X143674671Y-94145970D01*
X143651572Y-94154235D01*
X143627773Y-94160196D01*
X143603505Y-94163796D01*
X143579001Y-94165000D01*
X142678999Y-94165000D01*
X142654495Y-94163796D01*
X142630227Y-94160196D01*
X142606428Y-94154235D01*
X142583329Y-94145970D01*
X142561150Y-94135480D01*
X142540107Y-94122868D01*
X142520401Y-94108253D01*
X142502223Y-94091777D01*
X142485747Y-94073599D01*
X142471132Y-94053893D01*
X142458520Y-94032850D01*
X142448030Y-94010671D01*
X142439765Y-93987572D01*
X142433804Y-93963773D01*
X142430204Y-93939505D01*
X142429000Y-93915001D01*
X142429000Y-93264999D01*
X142430204Y-93240495D01*
X142433804Y-93216227D01*
X142439765Y-93192428D01*
X142448030Y-93169329D01*
X142458520Y-93147150D01*
X142471132Y-93126107D01*
X142485747Y-93106401D01*
X142502223Y-93088223D01*
X142520401Y-93071747D01*
X142540107Y-93057132D01*
X142561150Y-93044520D01*
X142583329Y-93034030D01*
X142606428Y-93025765D01*
X142630227Y-93019804D01*
X142654495Y-93016204D01*
X142678999Y-93015000D01*
X143579001Y-93015000D01*
X143603505Y-93016204D01*
G37*
G36*
X143603505Y-95066204D02*
G01*
X143627773Y-95069804D01*
X143651572Y-95075765D01*
X143674671Y-95084030D01*
X143696850Y-95094520D01*
X143717893Y-95107132D01*
X143737599Y-95121747D01*
X143755777Y-95138223D01*
X143772253Y-95156401D01*
X143786868Y-95176107D01*
X143799480Y-95197150D01*
X143809970Y-95219329D01*
X143818235Y-95242428D01*
X143824196Y-95266227D01*
X143827796Y-95290495D01*
X143829000Y-95314999D01*
X143829000Y-95965001D01*
X143827796Y-95989505D01*
X143824196Y-96013773D01*
X143818235Y-96037572D01*
X143809970Y-96060671D01*
X143799480Y-96082850D01*
X143786868Y-96103893D01*
X143772253Y-96123599D01*
X143755777Y-96141777D01*
X143737599Y-96158253D01*
X143717893Y-96172868D01*
X143696850Y-96185480D01*
X143674671Y-96195970D01*
X143651572Y-96204235D01*
X143627773Y-96210196D01*
X143603505Y-96213796D01*
X143579001Y-96215000D01*
X142678999Y-96215000D01*
X142654495Y-96213796D01*
X142630227Y-96210196D01*
X142606428Y-96204235D01*
X142583329Y-96195970D01*
X142561150Y-96185480D01*
X142540107Y-96172868D01*
X142520401Y-96158253D01*
X142502223Y-96141777D01*
X142485747Y-96123599D01*
X142471132Y-96103893D01*
X142458520Y-96082850D01*
X142448030Y-96060671D01*
X142439765Y-96037572D01*
X142433804Y-96013773D01*
X142430204Y-95989505D01*
X142429000Y-95965001D01*
X142429000Y-95314999D01*
X142430204Y-95290495D01*
X142433804Y-95266227D01*
X142439765Y-95242428D01*
X142448030Y-95219329D01*
X142458520Y-95197150D01*
X142471132Y-95176107D01*
X142485747Y-95156401D01*
X142502223Y-95138223D01*
X142520401Y-95121747D01*
X142540107Y-95107132D01*
X142561150Y-95094520D01*
X142583329Y-95084030D01*
X142606428Y-95075765D01*
X142630227Y-95069804D01*
X142654495Y-95066204D01*
X142678999Y-95065000D01*
X143579001Y-95065000D01*
X143603505Y-95066204D01*
G37*
G36*
X155171505Y-96138704D02*
G01*
X155195773Y-96142304D01*
X155219572Y-96148265D01*
X155242671Y-96156530D01*
X155264850Y-96167020D01*
X155285893Y-96179632D01*
X155305599Y-96194247D01*
X155323777Y-96210723D01*
X155340253Y-96228901D01*
X155354868Y-96248607D01*
X155367480Y-96269650D01*
X155377970Y-96291829D01*
X155386235Y-96314928D01*
X155392196Y-96338727D01*
X155395796Y-96362995D01*
X155397000Y-96387499D01*
X155397000Y-97287501D01*
X155395796Y-97312005D01*
X155392196Y-97336273D01*
X155386235Y-97360072D01*
X155377970Y-97383171D01*
X155367480Y-97405350D01*
X155354868Y-97426393D01*
X155340253Y-97446099D01*
X155323777Y-97464277D01*
X155305599Y-97480753D01*
X155285893Y-97495368D01*
X155264850Y-97507980D01*
X155242671Y-97518470D01*
X155219572Y-97526735D01*
X155195773Y-97532696D01*
X155171505Y-97536296D01*
X155147001Y-97537500D01*
X154496999Y-97537500D01*
X154472495Y-97536296D01*
X154448227Y-97532696D01*
X154424428Y-97526735D01*
X154401329Y-97518470D01*
X154379150Y-97507980D01*
X154358107Y-97495368D01*
X154338401Y-97480753D01*
X154320223Y-97464277D01*
X154303747Y-97446099D01*
X154289132Y-97426393D01*
X154276520Y-97405350D01*
X154266030Y-97383171D01*
X154257765Y-97360072D01*
X154251804Y-97336273D01*
X154248204Y-97312005D01*
X154247000Y-97287501D01*
X154247000Y-96387499D01*
X154248204Y-96362995D01*
X154251804Y-96338727D01*
X154257765Y-96314928D01*
X154266030Y-96291829D01*
X154276520Y-96269650D01*
X154289132Y-96248607D01*
X154303747Y-96228901D01*
X154320223Y-96210723D01*
X154338401Y-96194247D01*
X154358107Y-96179632D01*
X154379150Y-96167020D01*
X154401329Y-96156530D01*
X154424428Y-96148265D01*
X154448227Y-96142304D01*
X154472495Y-96138704D01*
X154496999Y-96137500D01*
X155147001Y-96137500D01*
X155171505Y-96138704D01*
G37*
G36*
X153121505Y-96138704D02*
G01*
X153145773Y-96142304D01*
X153169572Y-96148265D01*
X153192671Y-96156530D01*
X153214850Y-96167020D01*
X153235893Y-96179632D01*
X153255599Y-96194247D01*
X153273777Y-96210723D01*
X153290253Y-96228901D01*
X153304868Y-96248607D01*
X153317480Y-96269650D01*
X153327970Y-96291829D01*
X153336235Y-96314928D01*
X153342196Y-96338727D01*
X153345796Y-96362995D01*
X153347000Y-96387499D01*
X153347000Y-97287501D01*
X153345796Y-97312005D01*
X153342196Y-97336273D01*
X153336235Y-97360072D01*
X153327970Y-97383171D01*
X153317480Y-97405350D01*
X153304868Y-97426393D01*
X153290253Y-97446099D01*
X153273777Y-97464277D01*
X153255599Y-97480753D01*
X153235893Y-97495368D01*
X153214850Y-97507980D01*
X153192671Y-97518470D01*
X153169572Y-97526735D01*
X153145773Y-97532696D01*
X153121505Y-97536296D01*
X153097001Y-97537500D01*
X152446999Y-97537500D01*
X152422495Y-97536296D01*
X152398227Y-97532696D01*
X152374428Y-97526735D01*
X152351329Y-97518470D01*
X152329150Y-97507980D01*
X152308107Y-97495368D01*
X152288401Y-97480753D01*
X152270223Y-97464277D01*
X152253747Y-97446099D01*
X152239132Y-97426393D01*
X152226520Y-97405350D01*
X152216030Y-97383171D01*
X152207765Y-97360072D01*
X152201804Y-97336273D01*
X152198204Y-97312005D01*
X152197000Y-97287501D01*
X152197000Y-96387499D01*
X152198204Y-96362995D01*
X152201804Y-96338727D01*
X152207765Y-96314928D01*
X152216030Y-96291829D01*
X152226520Y-96269650D01*
X152239132Y-96248607D01*
X152253747Y-96228901D01*
X152270223Y-96210723D01*
X152288401Y-96194247D01*
X152308107Y-96179632D01*
X152329150Y-96167020D01*
X152351329Y-96156530D01*
X152374428Y-96148265D01*
X152398227Y-96142304D01*
X152422495Y-96138704D01*
X152446999Y-96137500D01*
X153097001Y-96137500D01*
X153121505Y-96138704D01*
G37*
G36*
X137698005Y-93016204D02*
G01*
X137722273Y-93019804D01*
X137746072Y-93025765D01*
X137769171Y-93034030D01*
X137791350Y-93044520D01*
X137812393Y-93057132D01*
X137832099Y-93071747D01*
X137850277Y-93088223D01*
X137866753Y-93106401D01*
X137881368Y-93126107D01*
X137893980Y-93147150D01*
X137904470Y-93169329D01*
X137912735Y-93192428D01*
X137918696Y-93216227D01*
X137922296Y-93240495D01*
X137923500Y-93264999D01*
X137923500Y-93915001D01*
X137922296Y-93939505D01*
X137918696Y-93963773D01*
X137912735Y-93987572D01*
X137904470Y-94010671D01*
X137893980Y-94032850D01*
X137881368Y-94053893D01*
X137866753Y-94073599D01*
X137850277Y-94091777D01*
X137832099Y-94108253D01*
X137812393Y-94122868D01*
X137791350Y-94135480D01*
X137769171Y-94145970D01*
X137746072Y-94154235D01*
X137722273Y-94160196D01*
X137698005Y-94163796D01*
X137673501Y-94165000D01*
X136773499Y-94165000D01*
X136748995Y-94163796D01*
X136724727Y-94160196D01*
X136700928Y-94154235D01*
X136677829Y-94145970D01*
X136655650Y-94135480D01*
X136634607Y-94122868D01*
X136614901Y-94108253D01*
X136596723Y-94091777D01*
X136580247Y-94073599D01*
X136565632Y-94053893D01*
X136553020Y-94032850D01*
X136542530Y-94010671D01*
X136534265Y-93987572D01*
X136528304Y-93963773D01*
X136524704Y-93939505D01*
X136523500Y-93915001D01*
X136523500Y-93264999D01*
X136524704Y-93240495D01*
X136528304Y-93216227D01*
X136534265Y-93192428D01*
X136542530Y-93169329D01*
X136553020Y-93147150D01*
X136565632Y-93126107D01*
X136580247Y-93106401D01*
X136596723Y-93088223D01*
X136614901Y-93071747D01*
X136634607Y-93057132D01*
X136655650Y-93044520D01*
X136677829Y-93034030D01*
X136700928Y-93025765D01*
X136724727Y-93019804D01*
X136748995Y-93016204D01*
X136773499Y-93015000D01*
X137673501Y-93015000D01*
X137698005Y-93016204D01*
G37*
G36*
X137698005Y-95066204D02*
G01*
X137722273Y-95069804D01*
X137746072Y-95075765D01*
X137769171Y-95084030D01*
X137791350Y-95094520D01*
X137812393Y-95107132D01*
X137832099Y-95121747D01*
X137850277Y-95138223D01*
X137866753Y-95156401D01*
X137881368Y-95176107D01*
X137893980Y-95197150D01*
X137904470Y-95219329D01*
X137912735Y-95242428D01*
X137918696Y-95266227D01*
X137922296Y-95290495D01*
X137923500Y-95314999D01*
X137923500Y-95965001D01*
X137922296Y-95989505D01*
X137918696Y-96013773D01*
X137912735Y-96037572D01*
X137904470Y-96060671D01*
X137893980Y-96082850D01*
X137881368Y-96103893D01*
X137866753Y-96123599D01*
X137850277Y-96141777D01*
X137832099Y-96158253D01*
X137812393Y-96172868D01*
X137791350Y-96185480D01*
X137769171Y-96195970D01*
X137746072Y-96204235D01*
X137722273Y-96210196D01*
X137698005Y-96213796D01*
X137673501Y-96215000D01*
X136773499Y-96215000D01*
X136748995Y-96213796D01*
X136724727Y-96210196D01*
X136700928Y-96204235D01*
X136677829Y-96195970D01*
X136655650Y-96185480D01*
X136634607Y-96172868D01*
X136614901Y-96158253D01*
X136596723Y-96141777D01*
X136580247Y-96123599D01*
X136565632Y-96103893D01*
X136553020Y-96082850D01*
X136542530Y-96060671D01*
X136534265Y-96037572D01*
X136528304Y-96013773D01*
X136524704Y-95989505D01*
X136523500Y-95965001D01*
X136523500Y-95314999D01*
X136524704Y-95290495D01*
X136528304Y-95266227D01*
X136534265Y-95242428D01*
X136542530Y-95219329D01*
X136553020Y-95197150D01*
X136565632Y-95176107D01*
X136580247Y-95156401D01*
X136596723Y-95138223D01*
X136614901Y-95121747D01*
X136634607Y-95107132D01*
X136655650Y-95094520D01*
X136677829Y-95084030D01*
X136700928Y-95075765D01*
X136724727Y-95069804D01*
X136748995Y-95066204D01*
X136773499Y-95065000D01*
X137673501Y-95065000D01*
X137698005Y-95066204D01*
G37*
G36*
X139666505Y-95066204D02*
G01*
X139690773Y-95069804D01*
X139714572Y-95075765D01*
X139737671Y-95084030D01*
X139759850Y-95094520D01*
X139780893Y-95107132D01*
X139800599Y-95121747D01*
X139818777Y-95138223D01*
X139835253Y-95156401D01*
X139849868Y-95176107D01*
X139862480Y-95197150D01*
X139872970Y-95219329D01*
X139881235Y-95242428D01*
X139887196Y-95266227D01*
X139890796Y-95290495D01*
X139892000Y-95314999D01*
X139892000Y-95965001D01*
X139890796Y-95989505D01*
X139887196Y-96013773D01*
X139881235Y-96037572D01*
X139872970Y-96060671D01*
X139862480Y-96082850D01*
X139849868Y-96103893D01*
X139835253Y-96123599D01*
X139818777Y-96141777D01*
X139800599Y-96158253D01*
X139780893Y-96172868D01*
X139759850Y-96185480D01*
X139737671Y-96195970D01*
X139714572Y-96204235D01*
X139690773Y-96210196D01*
X139666505Y-96213796D01*
X139642001Y-96215000D01*
X138741999Y-96215000D01*
X138717495Y-96213796D01*
X138693227Y-96210196D01*
X138669428Y-96204235D01*
X138646329Y-96195970D01*
X138624150Y-96185480D01*
X138603107Y-96172868D01*
X138583401Y-96158253D01*
X138565223Y-96141777D01*
X138548747Y-96123599D01*
X138534132Y-96103893D01*
X138521520Y-96082850D01*
X138511030Y-96060671D01*
X138502765Y-96037572D01*
X138496804Y-96013773D01*
X138493204Y-95989505D01*
X138492000Y-95965001D01*
X138492000Y-95314999D01*
X138493204Y-95290495D01*
X138496804Y-95266227D01*
X138502765Y-95242428D01*
X138511030Y-95219329D01*
X138521520Y-95197150D01*
X138534132Y-95176107D01*
X138548747Y-95156401D01*
X138565223Y-95138223D01*
X138583401Y-95121747D01*
X138603107Y-95107132D01*
X138624150Y-95094520D01*
X138646329Y-95084030D01*
X138669428Y-95075765D01*
X138693227Y-95069804D01*
X138717495Y-95066204D01*
X138741999Y-95065000D01*
X139642001Y-95065000D01*
X139666505Y-95066204D01*
G37*
G36*
X139666505Y-93016204D02*
G01*
X139690773Y-93019804D01*
X139714572Y-93025765D01*
X139737671Y-93034030D01*
X139759850Y-93044520D01*
X139780893Y-93057132D01*
X139800599Y-93071747D01*
X139818777Y-93088223D01*
X139835253Y-93106401D01*
X139849868Y-93126107D01*
X139862480Y-93147150D01*
X139872970Y-93169329D01*
X139881235Y-93192428D01*
X139887196Y-93216227D01*
X139890796Y-93240495D01*
X139892000Y-93264999D01*
X139892000Y-93915001D01*
X139890796Y-93939505D01*
X139887196Y-93963773D01*
X139881235Y-93987572D01*
X139872970Y-94010671D01*
X139862480Y-94032850D01*
X139849868Y-94053893D01*
X139835253Y-94073599D01*
X139818777Y-94091777D01*
X139800599Y-94108253D01*
X139780893Y-94122868D01*
X139759850Y-94135480D01*
X139737671Y-94145970D01*
X139714572Y-94154235D01*
X139690773Y-94160196D01*
X139666505Y-94163796D01*
X139642001Y-94165000D01*
X138741999Y-94165000D01*
X138717495Y-94163796D01*
X138693227Y-94160196D01*
X138669428Y-94154235D01*
X138646329Y-94145970D01*
X138624150Y-94135480D01*
X138603107Y-94122868D01*
X138583401Y-94108253D01*
X138565223Y-94091777D01*
X138548747Y-94073599D01*
X138534132Y-94053893D01*
X138521520Y-94032850D01*
X138511030Y-94010671D01*
X138502765Y-93987572D01*
X138496804Y-93963773D01*
X138493204Y-93939505D01*
X138492000Y-93915001D01*
X138492000Y-93264999D01*
X138493204Y-93240495D01*
X138496804Y-93216227D01*
X138502765Y-93192428D01*
X138511030Y-93169329D01*
X138521520Y-93147150D01*
X138534132Y-93126107D01*
X138548747Y-93106401D01*
X138565223Y-93088223D01*
X138583401Y-93071747D01*
X138603107Y-93057132D01*
X138624150Y-93044520D01*
X138646329Y-93034030D01*
X138669428Y-93025765D01*
X138693227Y-93019804D01*
X138717495Y-93016204D01*
X138741999Y-93015000D01*
X139642001Y-93015000D01*
X139666505Y-93016204D01*
G37*
G36*
X155180505Y-88264704D02*
G01*
X155204773Y-88268304D01*
X155228572Y-88274265D01*
X155251671Y-88282530D01*
X155273850Y-88293020D01*
X155294893Y-88305632D01*
X155314599Y-88320247D01*
X155332777Y-88336723D01*
X155349253Y-88354901D01*
X155363868Y-88374607D01*
X155376480Y-88395650D01*
X155386970Y-88417829D01*
X155395235Y-88440928D01*
X155401196Y-88464727D01*
X155404796Y-88488995D01*
X155406000Y-88513499D01*
X155406000Y-89413501D01*
X155404796Y-89438005D01*
X155401196Y-89462273D01*
X155395235Y-89486072D01*
X155386970Y-89509171D01*
X155376480Y-89531350D01*
X155363868Y-89552393D01*
X155349253Y-89572099D01*
X155332777Y-89590277D01*
X155314599Y-89606753D01*
X155294893Y-89621368D01*
X155273850Y-89633980D01*
X155251671Y-89644470D01*
X155228572Y-89652735D01*
X155204773Y-89658696D01*
X155180505Y-89662296D01*
X155156001Y-89663500D01*
X154505999Y-89663500D01*
X154481495Y-89662296D01*
X154457227Y-89658696D01*
X154433428Y-89652735D01*
X154410329Y-89644470D01*
X154388150Y-89633980D01*
X154367107Y-89621368D01*
X154347401Y-89606753D01*
X154329223Y-89590277D01*
X154312747Y-89572099D01*
X154298132Y-89552393D01*
X154285520Y-89531350D01*
X154275030Y-89509171D01*
X154266765Y-89486072D01*
X154260804Y-89462273D01*
X154257204Y-89438005D01*
X154256000Y-89413501D01*
X154256000Y-88513499D01*
X154257204Y-88488995D01*
X154260804Y-88464727D01*
X154266765Y-88440928D01*
X154275030Y-88417829D01*
X154285520Y-88395650D01*
X154298132Y-88374607D01*
X154312747Y-88354901D01*
X154329223Y-88336723D01*
X154347401Y-88320247D01*
X154367107Y-88305632D01*
X154388150Y-88293020D01*
X154410329Y-88282530D01*
X154433428Y-88274265D01*
X154457227Y-88268304D01*
X154481495Y-88264704D01*
X154505999Y-88263500D01*
X155156001Y-88263500D01*
X155180505Y-88264704D01*
G37*
G36*
X153130505Y-88264704D02*
G01*
X153154773Y-88268304D01*
X153178572Y-88274265D01*
X153201671Y-88282530D01*
X153223850Y-88293020D01*
X153244893Y-88305632D01*
X153264599Y-88320247D01*
X153282777Y-88336723D01*
X153299253Y-88354901D01*
X153313868Y-88374607D01*
X153326480Y-88395650D01*
X153336970Y-88417829D01*
X153345235Y-88440928D01*
X153351196Y-88464727D01*
X153354796Y-88488995D01*
X153356000Y-88513499D01*
X153356000Y-89413501D01*
X153354796Y-89438005D01*
X153351196Y-89462273D01*
X153345235Y-89486072D01*
X153336970Y-89509171D01*
X153326480Y-89531350D01*
X153313868Y-89552393D01*
X153299253Y-89572099D01*
X153282777Y-89590277D01*
X153264599Y-89606753D01*
X153244893Y-89621368D01*
X153223850Y-89633980D01*
X153201671Y-89644470D01*
X153178572Y-89652735D01*
X153154773Y-89658696D01*
X153130505Y-89662296D01*
X153106001Y-89663500D01*
X152455999Y-89663500D01*
X152431495Y-89662296D01*
X152407227Y-89658696D01*
X152383428Y-89652735D01*
X152360329Y-89644470D01*
X152338150Y-89633980D01*
X152317107Y-89621368D01*
X152297401Y-89606753D01*
X152279223Y-89590277D01*
X152262747Y-89572099D01*
X152248132Y-89552393D01*
X152235520Y-89531350D01*
X152225030Y-89509171D01*
X152216765Y-89486072D01*
X152210804Y-89462273D01*
X152207204Y-89438005D01*
X152206000Y-89413501D01*
X152206000Y-88513499D01*
X152207204Y-88488995D01*
X152210804Y-88464727D01*
X152216765Y-88440928D01*
X152225030Y-88417829D01*
X152235520Y-88395650D01*
X152248132Y-88374607D01*
X152262747Y-88354901D01*
X152279223Y-88336723D01*
X152297401Y-88320247D01*
X152317107Y-88305632D01*
X152338150Y-88293020D01*
X152360329Y-88282530D01*
X152383428Y-88274265D01*
X152407227Y-88268304D01*
X152431495Y-88264704D01*
X152455999Y-88263500D01*
X153106001Y-88263500D01*
X153130505Y-88264704D01*
G37*
G36*
X171924505Y-107702704D02*
G01*
X171948773Y-107706304D01*
X171972572Y-107712265D01*
X171995671Y-107720530D01*
X172017850Y-107731020D01*
X172038893Y-107743632D01*
X172058599Y-107758247D01*
X172076777Y-107774723D01*
X172093253Y-107792901D01*
X172107868Y-107812607D01*
X172120480Y-107833650D01*
X172130970Y-107855829D01*
X172139235Y-107878928D01*
X172145196Y-107902727D01*
X172148796Y-107926995D01*
X172150000Y-107951499D01*
X172150000Y-108601501D01*
X172148796Y-108626005D01*
X172145196Y-108650273D01*
X172139235Y-108674072D01*
X172130970Y-108697171D01*
X172120480Y-108719350D01*
X172107868Y-108740393D01*
X172093253Y-108760099D01*
X172076777Y-108778277D01*
X172058599Y-108794753D01*
X172038893Y-108809368D01*
X172017850Y-108821980D01*
X171995671Y-108832470D01*
X171972572Y-108840735D01*
X171948773Y-108846696D01*
X171924505Y-108850296D01*
X171900001Y-108851500D01*
X170999999Y-108851500D01*
X170975495Y-108850296D01*
X170951227Y-108846696D01*
X170927428Y-108840735D01*
X170904329Y-108832470D01*
X170882150Y-108821980D01*
X170861107Y-108809368D01*
X170841401Y-108794753D01*
X170823223Y-108778277D01*
X170806747Y-108760099D01*
X170792132Y-108740393D01*
X170779520Y-108719350D01*
X170769030Y-108697171D01*
X170760765Y-108674072D01*
X170754804Y-108650273D01*
X170751204Y-108626005D01*
X170750000Y-108601501D01*
X170750000Y-107951499D01*
X170751204Y-107926995D01*
X170754804Y-107902727D01*
X170760765Y-107878928D01*
X170769030Y-107855829D01*
X170779520Y-107833650D01*
X170792132Y-107812607D01*
X170806747Y-107792901D01*
X170823223Y-107774723D01*
X170841401Y-107758247D01*
X170861107Y-107743632D01*
X170882150Y-107731020D01*
X170904329Y-107720530D01*
X170927428Y-107712265D01*
X170951227Y-107706304D01*
X170975495Y-107702704D01*
X170999999Y-107701500D01*
X171900001Y-107701500D01*
X171924505Y-107702704D01*
G37*
G36*
X171924505Y-105652704D02*
G01*
X171948773Y-105656304D01*
X171972572Y-105662265D01*
X171995671Y-105670530D01*
X172017850Y-105681020D01*
X172038893Y-105693632D01*
X172058599Y-105708247D01*
X172076777Y-105724723D01*
X172093253Y-105742901D01*
X172107868Y-105762607D01*
X172120480Y-105783650D01*
X172130970Y-105805829D01*
X172139235Y-105828928D01*
X172145196Y-105852727D01*
X172148796Y-105876995D01*
X172150000Y-105901499D01*
X172150000Y-106551501D01*
X172148796Y-106576005D01*
X172145196Y-106600273D01*
X172139235Y-106624072D01*
X172130970Y-106647171D01*
X172120480Y-106669350D01*
X172107868Y-106690393D01*
X172093253Y-106710099D01*
X172076777Y-106728277D01*
X172058599Y-106744753D01*
X172038893Y-106759368D01*
X172017850Y-106771980D01*
X171995671Y-106782470D01*
X171972572Y-106790735D01*
X171948773Y-106796696D01*
X171924505Y-106800296D01*
X171900001Y-106801500D01*
X170999999Y-106801500D01*
X170975495Y-106800296D01*
X170951227Y-106796696D01*
X170927428Y-106790735D01*
X170904329Y-106782470D01*
X170882150Y-106771980D01*
X170861107Y-106759368D01*
X170841401Y-106744753D01*
X170823223Y-106728277D01*
X170806747Y-106710099D01*
X170792132Y-106690393D01*
X170779520Y-106669350D01*
X170769030Y-106647171D01*
X170760765Y-106624072D01*
X170754804Y-106600273D01*
X170751204Y-106576005D01*
X170750000Y-106551501D01*
X170750000Y-105901499D01*
X170751204Y-105876995D01*
X170754804Y-105852727D01*
X170760765Y-105828928D01*
X170769030Y-105805829D01*
X170779520Y-105783650D01*
X170792132Y-105762607D01*
X170806747Y-105742901D01*
X170823223Y-105724723D01*
X170841401Y-105708247D01*
X170861107Y-105693632D01*
X170882150Y-105681020D01*
X170904329Y-105670530D01*
X170927428Y-105662265D01*
X170951227Y-105656304D01*
X170975495Y-105652704D01*
X170999999Y-105651500D01*
X171900001Y-105651500D01*
X171924505Y-105652704D01*
G37*
G36*
X153121505Y-102044204D02*
G01*
X153145773Y-102047804D01*
X153169572Y-102053765D01*
X153192671Y-102062030D01*
X153214850Y-102072520D01*
X153235893Y-102085132D01*
X153255599Y-102099747D01*
X153273777Y-102116223D01*
X153290253Y-102134401D01*
X153304868Y-102154107D01*
X153317480Y-102175150D01*
X153327970Y-102197329D01*
X153336235Y-102220428D01*
X153342196Y-102244227D01*
X153345796Y-102268495D01*
X153347000Y-102292999D01*
X153347000Y-103193001D01*
X153345796Y-103217505D01*
X153342196Y-103241773D01*
X153336235Y-103265572D01*
X153327970Y-103288671D01*
X153317480Y-103310850D01*
X153304868Y-103331893D01*
X153290253Y-103351599D01*
X153273777Y-103369777D01*
X153255599Y-103386253D01*
X153235893Y-103400868D01*
X153214850Y-103413480D01*
X153192671Y-103423970D01*
X153169572Y-103432235D01*
X153145773Y-103438196D01*
X153121505Y-103441796D01*
X153097001Y-103443000D01*
X152446999Y-103443000D01*
X152422495Y-103441796D01*
X152398227Y-103438196D01*
X152374428Y-103432235D01*
X152351329Y-103423970D01*
X152329150Y-103413480D01*
X152308107Y-103400868D01*
X152288401Y-103386253D01*
X152270223Y-103369777D01*
X152253747Y-103351599D01*
X152239132Y-103331893D01*
X152226520Y-103310850D01*
X152216030Y-103288671D01*
X152207765Y-103265572D01*
X152201804Y-103241773D01*
X152198204Y-103217505D01*
X152197000Y-103193001D01*
X152197000Y-102292999D01*
X152198204Y-102268495D01*
X152201804Y-102244227D01*
X152207765Y-102220428D01*
X152216030Y-102197329D01*
X152226520Y-102175150D01*
X152239132Y-102154107D01*
X152253747Y-102134401D01*
X152270223Y-102116223D01*
X152288401Y-102099747D01*
X152308107Y-102085132D01*
X152329150Y-102072520D01*
X152351329Y-102062030D01*
X152374428Y-102053765D01*
X152398227Y-102047804D01*
X152422495Y-102044204D01*
X152446999Y-102043000D01*
X153097001Y-102043000D01*
X153121505Y-102044204D01*
G37*
G36*
X155171505Y-102044204D02*
G01*
X155195773Y-102047804D01*
X155219572Y-102053765D01*
X155242671Y-102062030D01*
X155264850Y-102072520D01*
X155285893Y-102085132D01*
X155305599Y-102099747D01*
X155323777Y-102116223D01*
X155340253Y-102134401D01*
X155354868Y-102154107D01*
X155367480Y-102175150D01*
X155377970Y-102197329D01*
X155386235Y-102220428D01*
X155392196Y-102244227D01*
X155395796Y-102268495D01*
X155397000Y-102292999D01*
X155397000Y-103193001D01*
X155395796Y-103217505D01*
X155392196Y-103241773D01*
X155386235Y-103265572D01*
X155377970Y-103288671D01*
X155367480Y-103310850D01*
X155354868Y-103331893D01*
X155340253Y-103351599D01*
X155323777Y-103369777D01*
X155305599Y-103386253D01*
X155285893Y-103400868D01*
X155264850Y-103413480D01*
X155242671Y-103423970D01*
X155219572Y-103432235D01*
X155195773Y-103438196D01*
X155171505Y-103441796D01*
X155147001Y-103443000D01*
X154496999Y-103443000D01*
X154472495Y-103441796D01*
X154448227Y-103438196D01*
X154424428Y-103432235D01*
X154401329Y-103423970D01*
X154379150Y-103413480D01*
X154358107Y-103400868D01*
X154338401Y-103386253D01*
X154320223Y-103369777D01*
X154303747Y-103351599D01*
X154289132Y-103331893D01*
X154276520Y-103310850D01*
X154266030Y-103288671D01*
X154257765Y-103265572D01*
X154251804Y-103241773D01*
X154248204Y-103217505D01*
X154247000Y-103193001D01*
X154247000Y-102292999D01*
X154248204Y-102268495D01*
X154251804Y-102244227D01*
X154257765Y-102220428D01*
X154266030Y-102197329D01*
X154276520Y-102175150D01*
X154289132Y-102154107D01*
X154303747Y-102134401D01*
X154320223Y-102116223D01*
X154338401Y-102099747D01*
X154358107Y-102085132D01*
X154379150Y-102072520D01*
X154401329Y-102062030D01*
X154424428Y-102053765D01*
X154448227Y-102047804D01*
X154472495Y-102044204D01*
X154496999Y-102043000D01*
X155147001Y-102043000D01*
X155171505Y-102044204D01*
G37*
G36*
X153121505Y-100075704D02*
G01*
X153145773Y-100079304D01*
X153169572Y-100085265D01*
X153192671Y-100093530D01*
X153214850Y-100104020D01*
X153235893Y-100116632D01*
X153255599Y-100131247D01*
X153273777Y-100147723D01*
X153290253Y-100165901D01*
X153304868Y-100185607D01*
X153317480Y-100206650D01*
X153327970Y-100228829D01*
X153336235Y-100251928D01*
X153342196Y-100275727D01*
X153345796Y-100299995D01*
X153347000Y-100324499D01*
X153347000Y-101224501D01*
X153345796Y-101249005D01*
X153342196Y-101273273D01*
X153336235Y-101297072D01*
X153327970Y-101320171D01*
X153317480Y-101342350D01*
X153304868Y-101363393D01*
X153290253Y-101383099D01*
X153273777Y-101401277D01*
X153255599Y-101417753D01*
X153235893Y-101432368D01*
X153214850Y-101444980D01*
X153192671Y-101455470D01*
X153169572Y-101463735D01*
X153145773Y-101469696D01*
X153121505Y-101473296D01*
X153097001Y-101474500D01*
X152446999Y-101474500D01*
X152422495Y-101473296D01*
X152398227Y-101469696D01*
X152374428Y-101463735D01*
X152351329Y-101455470D01*
X152329150Y-101444980D01*
X152308107Y-101432368D01*
X152288401Y-101417753D01*
X152270223Y-101401277D01*
X152253747Y-101383099D01*
X152239132Y-101363393D01*
X152226520Y-101342350D01*
X152216030Y-101320171D01*
X152207765Y-101297072D01*
X152201804Y-101273273D01*
X152198204Y-101249005D01*
X152197000Y-101224501D01*
X152197000Y-100324499D01*
X152198204Y-100299995D01*
X152201804Y-100275727D01*
X152207765Y-100251928D01*
X152216030Y-100228829D01*
X152226520Y-100206650D01*
X152239132Y-100185607D01*
X152253747Y-100165901D01*
X152270223Y-100147723D01*
X152288401Y-100131247D01*
X152308107Y-100116632D01*
X152329150Y-100104020D01*
X152351329Y-100093530D01*
X152374428Y-100085265D01*
X152398227Y-100079304D01*
X152422495Y-100075704D01*
X152446999Y-100074500D01*
X153097001Y-100074500D01*
X153121505Y-100075704D01*
G37*
G36*
X155171505Y-100075704D02*
G01*
X155195773Y-100079304D01*
X155219572Y-100085265D01*
X155242671Y-100093530D01*
X155264850Y-100104020D01*
X155285893Y-100116632D01*
X155305599Y-100131247D01*
X155323777Y-100147723D01*
X155340253Y-100165901D01*
X155354868Y-100185607D01*
X155367480Y-100206650D01*
X155377970Y-100228829D01*
X155386235Y-100251928D01*
X155392196Y-100275727D01*
X155395796Y-100299995D01*
X155397000Y-100324499D01*
X155397000Y-101224501D01*
X155395796Y-101249005D01*
X155392196Y-101273273D01*
X155386235Y-101297072D01*
X155377970Y-101320171D01*
X155367480Y-101342350D01*
X155354868Y-101363393D01*
X155340253Y-101383099D01*
X155323777Y-101401277D01*
X155305599Y-101417753D01*
X155285893Y-101432368D01*
X155264850Y-101444980D01*
X155242671Y-101455470D01*
X155219572Y-101463735D01*
X155195773Y-101469696D01*
X155171505Y-101473296D01*
X155147001Y-101474500D01*
X154496999Y-101474500D01*
X154472495Y-101473296D01*
X154448227Y-101469696D01*
X154424428Y-101463735D01*
X154401329Y-101455470D01*
X154379150Y-101444980D01*
X154358107Y-101432368D01*
X154338401Y-101417753D01*
X154320223Y-101401277D01*
X154303747Y-101383099D01*
X154289132Y-101363393D01*
X154276520Y-101342350D01*
X154266030Y-101320171D01*
X154257765Y-101297072D01*
X154251804Y-101273273D01*
X154248204Y-101249005D01*
X154247000Y-101224501D01*
X154247000Y-100324499D01*
X154248204Y-100299995D01*
X154251804Y-100275727D01*
X154257765Y-100251928D01*
X154266030Y-100228829D01*
X154276520Y-100206650D01*
X154289132Y-100185607D01*
X154303747Y-100165901D01*
X154320223Y-100147723D01*
X154338401Y-100131247D01*
X154358107Y-100116632D01*
X154379150Y-100104020D01*
X154401329Y-100093530D01*
X154424428Y-100085265D01*
X154448227Y-100079304D01*
X154472495Y-100075704D01*
X154496999Y-100074500D01*
X155147001Y-100074500D01*
X155171505Y-100075704D01*
G37*
G36*
X141635005Y-93016204D02*
G01*
X141659273Y-93019804D01*
X141683072Y-93025765D01*
X141706171Y-93034030D01*
X141728350Y-93044520D01*
X141749393Y-93057132D01*
X141769099Y-93071747D01*
X141787277Y-93088223D01*
X141803753Y-93106401D01*
X141818368Y-93126107D01*
X141830980Y-93147150D01*
X141841470Y-93169329D01*
X141849735Y-93192428D01*
X141855696Y-93216227D01*
X141859296Y-93240495D01*
X141860500Y-93264999D01*
X141860500Y-93915001D01*
X141859296Y-93939505D01*
X141855696Y-93963773D01*
X141849735Y-93987572D01*
X141841470Y-94010671D01*
X141830980Y-94032850D01*
X141818368Y-94053893D01*
X141803753Y-94073599D01*
X141787277Y-94091777D01*
X141769099Y-94108253D01*
X141749393Y-94122868D01*
X141728350Y-94135480D01*
X141706171Y-94145970D01*
X141683072Y-94154235D01*
X141659273Y-94160196D01*
X141635005Y-94163796D01*
X141610501Y-94165000D01*
X140710499Y-94165000D01*
X140685995Y-94163796D01*
X140661727Y-94160196D01*
X140637928Y-94154235D01*
X140614829Y-94145970D01*
X140592650Y-94135480D01*
X140571607Y-94122868D01*
X140551901Y-94108253D01*
X140533723Y-94091777D01*
X140517247Y-94073599D01*
X140502632Y-94053893D01*
X140490020Y-94032850D01*
X140479530Y-94010671D01*
X140471265Y-93987572D01*
X140465304Y-93963773D01*
X140461704Y-93939505D01*
X140460500Y-93915001D01*
X140460500Y-93264999D01*
X140461704Y-93240495D01*
X140465304Y-93216227D01*
X140471265Y-93192428D01*
X140479530Y-93169329D01*
X140490020Y-93147150D01*
X140502632Y-93126107D01*
X140517247Y-93106401D01*
X140533723Y-93088223D01*
X140551901Y-93071747D01*
X140571607Y-93057132D01*
X140592650Y-93044520D01*
X140614829Y-93034030D01*
X140637928Y-93025765D01*
X140661727Y-93019804D01*
X140685995Y-93016204D01*
X140710499Y-93015000D01*
X141610501Y-93015000D01*
X141635005Y-93016204D01*
G37*
G36*
X141635005Y-95066204D02*
G01*
X141659273Y-95069804D01*
X141683072Y-95075765D01*
X141706171Y-95084030D01*
X141728350Y-95094520D01*
X141749393Y-95107132D01*
X141769099Y-95121747D01*
X141787277Y-95138223D01*
X141803753Y-95156401D01*
X141818368Y-95176107D01*
X141830980Y-95197150D01*
X141841470Y-95219329D01*
X141849735Y-95242428D01*
X141855696Y-95266227D01*
X141859296Y-95290495D01*
X141860500Y-95314999D01*
X141860500Y-95965001D01*
X141859296Y-95989505D01*
X141855696Y-96013773D01*
X141849735Y-96037572D01*
X141841470Y-96060671D01*
X141830980Y-96082850D01*
X141818368Y-96103893D01*
X141803753Y-96123599D01*
X141787277Y-96141777D01*
X141769099Y-96158253D01*
X141749393Y-96172868D01*
X141728350Y-96185480D01*
X141706171Y-96195970D01*
X141683072Y-96204235D01*
X141659273Y-96210196D01*
X141635005Y-96213796D01*
X141610501Y-96215000D01*
X140710499Y-96215000D01*
X140685995Y-96213796D01*
X140661727Y-96210196D01*
X140637928Y-96204235D01*
X140614829Y-96195970D01*
X140592650Y-96185480D01*
X140571607Y-96172868D01*
X140551901Y-96158253D01*
X140533723Y-96141777D01*
X140517247Y-96123599D01*
X140502632Y-96103893D01*
X140490020Y-96082850D01*
X140479530Y-96060671D01*
X140471265Y-96037572D01*
X140465304Y-96013773D01*
X140461704Y-95989505D01*
X140460500Y-95965001D01*
X140460500Y-95314999D01*
X140461704Y-95290495D01*
X140465304Y-95266227D01*
X140471265Y-95242428D01*
X140479530Y-95219329D01*
X140490020Y-95197150D01*
X140502632Y-95176107D01*
X140517247Y-95156401D01*
X140533723Y-95138223D01*
X140551901Y-95121747D01*
X140571607Y-95107132D01*
X140592650Y-95094520D01*
X140614829Y-95084030D01*
X140637928Y-95075765D01*
X140661727Y-95069804D01*
X140685995Y-95066204D01*
X140710499Y-95065000D01*
X141610501Y-95065000D01*
X141635005Y-95066204D01*
G37*
G36*
X153121505Y-94170204D02*
G01*
X153145773Y-94173804D01*
X153169572Y-94179765D01*
X153192671Y-94188030D01*
X153214850Y-94198520D01*
X153235893Y-94211132D01*
X153255599Y-94225747D01*
X153273777Y-94242223D01*
X153290253Y-94260401D01*
X153304868Y-94280107D01*
X153317480Y-94301150D01*
X153327970Y-94323329D01*
X153336235Y-94346428D01*
X153342196Y-94370227D01*
X153345796Y-94394495D01*
X153347000Y-94418999D01*
X153347000Y-95319001D01*
X153345796Y-95343505D01*
X153342196Y-95367773D01*
X153336235Y-95391572D01*
X153327970Y-95414671D01*
X153317480Y-95436850D01*
X153304868Y-95457893D01*
X153290253Y-95477599D01*
X153273777Y-95495777D01*
X153255599Y-95512253D01*
X153235893Y-95526868D01*
X153214850Y-95539480D01*
X153192671Y-95549970D01*
X153169572Y-95558235D01*
X153145773Y-95564196D01*
X153121505Y-95567796D01*
X153097001Y-95569000D01*
X152446999Y-95569000D01*
X152422495Y-95567796D01*
X152398227Y-95564196D01*
X152374428Y-95558235D01*
X152351329Y-95549970D01*
X152329150Y-95539480D01*
X152308107Y-95526868D01*
X152288401Y-95512253D01*
X152270223Y-95495777D01*
X152253747Y-95477599D01*
X152239132Y-95457893D01*
X152226520Y-95436850D01*
X152216030Y-95414671D01*
X152207765Y-95391572D01*
X152201804Y-95367773D01*
X152198204Y-95343505D01*
X152197000Y-95319001D01*
X152197000Y-94418999D01*
X152198204Y-94394495D01*
X152201804Y-94370227D01*
X152207765Y-94346428D01*
X152216030Y-94323329D01*
X152226520Y-94301150D01*
X152239132Y-94280107D01*
X152253747Y-94260401D01*
X152270223Y-94242223D01*
X152288401Y-94225747D01*
X152308107Y-94211132D01*
X152329150Y-94198520D01*
X152351329Y-94188030D01*
X152374428Y-94179765D01*
X152398227Y-94173804D01*
X152422495Y-94170204D01*
X152446999Y-94169000D01*
X153097001Y-94169000D01*
X153121505Y-94170204D01*
G37*
G36*
X155171505Y-94170204D02*
G01*
X155195773Y-94173804D01*
X155219572Y-94179765D01*
X155242671Y-94188030D01*
X155264850Y-94198520D01*
X155285893Y-94211132D01*
X155305599Y-94225747D01*
X155323777Y-94242223D01*
X155340253Y-94260401D01*
X155354868Y-94280107D01*
X155367480Y-94301150D01*
X155377970Y-94323329D01*
X155386235Y-94346428D01*
X155392196Y-94370227D01*
X155395796Y-94394495D01*
X155397000Y-94418999D01*
X155397000Y-95319001D01*
X155395796Y-95343505D01*
X155392196Y-95367773D01*
X155386235Y-95391572D01*
X155377970Y-95414671D01*
X155367480Y-95436850D01*
X155354868Y-95457893D01*
X155340253Y-95477599D01*
X155323777Y-95495777D01*
X155305599Y-95512253D01*
X155285893Y-95526868D01*
X155264850Y-95539480D01*
X155242671Y-95549970D01*
X155219572Y-95558235D01*
X155195773Y-95564196D01*
X155171505Y-95567796D01*
X155147001Y-95569000D01*
X154496999Y-95569000D01*
X154472495Y-95567796D01*
X154448227Y-95564196D01*
X154424428Y-95558235D01*
X154401329Y-95549970D01*
X154379150Y-95539480D01*
X154358107Y-95526868D01*
X154338401Y-95512253D01*
X154320223Y-95495777D01*
X154303747Y-95477599D01*
X154289132Y-95457893D01*
X154276520Y-95436850D01*
X154266030Y-95414671D01*
X154257765Y-95391572D01*
X154251804Y-95367773D01*
X154248204Y-95343505D01*
X154247000Y-95319001D01*
X154247000Y-94418999D01*
X154248204Y-94394495D01*
X154251804Y-94370227D01*
X154257765Y-94346428D01*
X154266030Y-94323329D01*
X154276520Y-94301150D01*
X154289132Y-94280107D01*
X154303747Y-94260401D01*
X154320223Y-94242223D01*
X154338401Y-94225747D01*
X154358107Y-94211132D01*
X154379150Y-94198520D01*
X154401329Y-94188030D01*
X154424428Y-94179765D01*
X154448227Y-94173804D01*
X154472495Y-94170204D01*
X154496999Y-94169000D01*
X155147001Y-94169000D01*
X155171505Y-94170204D01*
G37*
G36*
X174783504Y-95756204D02*
G01*
X174807773Y-95759804D01*
X174831571Y-95765765D01*
X174854671Y-95774030D01*
X174876849Y-95784520D01*
X174897893Y-95797133D01*
X174917598Y-95811747D01*
X174935777Y-95828223D01*
X174952253Y-95846402D01*
X174966867Y-95866107D01*
X174979480Y-95887151D01*
X174989970Y-95909329D01*
X174998235Y-95932429D01*
X175004196Y-95956227D01*
X175007796Y-95980496D01*
X175009000Y-96005000D01*
X175009000Y-96755000D01*
X175007796Y-96779504D01*
X175004196Y-96803773D01*
X174998235Y-96827571D01*
X174989970Y-96850671D01*
X174979480Y-96872849D01*
X174966867Y-96893893D01*
X174952253Y-96913598D01*
X174935777Y-96931777D01*
X174917598Y-96948253D01*
X174897893Y-96962867D01*
X174876849Y-96975480D01*
X174854671Y-96985970D01*
X174831571Y-96994235D01*
X174807773Y-97000196D01*
X174783504Y-97003796D01*
X174759000Y-97005000D01*
X174009000Y-97005000D01*
X173984496Y-97003796D01*
X173960227Y-97000196D01*
X173936429Y-96994235D01*
X173913329Y-96985970D01*
X173891151Y-96975480D01*
X173870107Y-96962867D01*
X173850402Y-96948253D01*
X173832223Y-96931777D01*
X173815747Y-96913598D01*
X173801133Y-96893893D01*
X173788520Y-96872849D01*
X173778030Y-96850671D01*
X173769765Y-96827571D01*
X173763804Y-96803773D01*
X173760204Y-96779504D01*
X173759000Y-96755000D01*
X173759000Y-96005000D01*
X173760204Y-95980496D01*
X173763804Y-95956227D01*
X173769765Y-95932429D01*
X173778030Y-95909329D01*
X173788520Y-95887151D01*
X173801133Y-95866107D01*
X173815747Y-95846402D01*
X173832223Y-95828223D01*
X173850402Y-95811747D01*
X173870107Y-95797133D01*
X173891151Y-95784520D01*
X173913329Y-95774030D01*
X173936429Y-95765765D01*
X173960227Y-95759804D01*
X173984496Y-95756204D01*
X174009000Y-95755000D01*
X174759000Y-95755000D01*
X174783504Y-95756204D01*
G37*
G36*
X173233504Y-95756204D02*
G01*
X173257773Y-95759804D01*
X173281571Y-95765765D01*
X173304671Y-95774030D01*
X173326849Y-95784520D01*
X173347893Y-95797133D01*
X173367598Y-95811747D01*
X173385777Y-95828223D01*
X173402253Y-95846402D01*
X173416867Y-95866107D01*
X173429480Y-95887151D01*
X173439970Y-95909329D01*
X173448235Y-95932429D01*
X173454196Y-95956227D01*
X173457796Y-95980496D01*
X173459000Y-96005000D01*
X173459000Y-96755000D01*
X173457796Y-96779504D01*
X173454196Y-96803773D01*
X173448235Y-96827571D01*
X173439970Y-96850671D01*
X173429480Y-96872849D01*
X173416867Y-96893893D01*
X173402253Y-96913598D01*
X173385777Y-96931777D01*
X173367598Y-96948253D01*
X173347893Y-96962867D01*
X173326849Y-96975480D01*
X173304671Y-96985970D01*
X173281571Y-96994235D01*
X173257773Y-97000196D01*
X173233504Y-97003796D01*
X173209000Y-97005000D01*
X172459000Y-97005000D01*
X172434496Y-97003796D01*
X172410227Y-97000196D01*
X172386429Y-96994235D01*
X172363329Y-96985970D01*
X172341151Y-96975480D01*
X172320107Y-96962867D01*
X172300402Y-96948253D01*
X172282223Y-96931777D01*
X172265747Y-96913598D01*
X172251133Y-96893893D01*
X172238520Y-96872849D01*
X172228030Y-96850671D01*
X172219765Y-96827571D01*
X172213804Y-96803773D01*
X172210204Y-96779504D01*
X172209000Y-96755000D01*
X172209000Y-96005000D01*
X172210204Y-95980496D01*
X172213804Y-95956227D01*
X172219765Y-95932429D01*
X172228030Y-95909329D01*
X172238520Y-95887151D01*
X172251133Y-95866107D01*
X172265747Y-95846402D01*
X172282223Y-95828223D01*
X172300402Y-95811747D01*
X172320107Y-95797133D01*
X172341151Y-95784520D01*
X172363329Y-95774030D01*
X172386429Y-95765765D01*
X172410227Y-95759804D01*
X172434496Y-95756204D01*
X172459000Y-95755000D01*
X173209000Y-95755000D01*
X173233504Y-95756204D01*
G37*
G36*
X174783504Y-97306204D02*
G01*
X174807773Y-97309804D01*
X174831571Y-97315765D01*
X174854671Y-97324030D01*
X174876849Y-97334520D01*
X174897893Y-97347133D01*
X174917598Y-97361747D01*
X174935777Y-97378223D01*
X174952253Y-97396402D01*
X174966867Y-97416107D01*
X174979480Y-97437151D01*
X174989970Y-97459329D01*
X174998235Y-97482429D01*
X175004196Y-97506227D01*
X175007796Y-97530496D01*
X175009000Y-97555000D01*
X175009000Y-98305000D01*
X175007796Y-98329504D01*
X175004196Y-98353773D01*
X174998235Y-98377571D01*
X174989970Y-98400671D01*
X174979480Y-98422849D01*
X174966867Y-98443893D01*
X174952253Y-98463598D01*
X174935777Y-98481777D01*
X174917598Y-98498253D01*
X174897893Y-98512867D01*
X174876849Y-98525480D01*
X174854671Y-98535970D01*
X174831571Y-98544235D01*
X174807773Y-98550196D01*
X174783504Y-98553796D01*
X174759000Y-98555000D01*
X174009000Y-98555000D01*
X173984496Y-98553796D01*
X173960227Y-98550196D01*
X173936429Y-98544235D01*
X173913329Y-98535970D01*
X173891151Y-98525480D01*
X173870107Y-98512867D01*
X173850402Y-98498253D01*
X173832223Y-98481777D01*
X173815747Y-98463598D01*
X173801133Y-98443893D01*
X173788520Y-98422849D01*
X173778030Y-98400671D01*
X173769765Y-98377571D01*
X173763804Y-98353773D01*
X173760204Y-98329504D01*
X173759000Y-98305000D01*
X173759000Y-97555000D01*
X173760204Y-97530496D01*
X173763804Y-97506227D01*
X173769765Y-97482429D01*
X173778030Y-97459329D01*
X173788520Y-97437151D01*
X173801133Y-97416107D01*
X173815747Y-97396402D01*
X173832223Y-97378223D01*
X173850402Y-97361747D01*
X173870107Y-97347133D01*
X173891151Y-97334520D01*
X173913329Y-97324030D01*
X173936429Y-97315765D01*
X173960227Y-97309804D01*
X173984496Y-97306204D01*
X174009000Y-97305000D01*
X174759000Y-97305000D01*
X174783504Y-97306204D01*
G37*
G36*
X173233504Y-97306204D02*
G01*
X173257773Y-97309804D01*
X173281571Y-97315765D01*
X173304671Y-97324030D01*
X173326849Y-97334520D01*
X173347893Y-97347133D01*
X173367598Y-97361747D01*
X173385777Y-97378223D01*
X173402253Y-97396402D01*
X173416867Y-97416107D01*
X173429480Y-97437151D01*
X173439970Y-97459329D01*
X173448235Y-97482429D01*
X173454196Y-97506227D01*
X173457796Y-97530496D01*
X173459000Y-97555000D01*
X173459000Y-98305000D01*
X173457796Y-98329504D01*
X173454196Y-98353773D01*
X173448235Y-98377571D01*
X173439970Y-98400671D01*
X173429480Y-98422849D01*
X173416867Y-98443893D01*
X173402253Y-98463598D01*
X173385777Y-98481777D01*
X173367598Y-98498253D01*
X173347893Y-98512867D01*
X173326849Y-98525480D01*
X173304671Y-98535970D01*
X173281571Y-98544235D01*
X173257773Y-98550196D01*
X173233504Y-98553796D01*
X173209000Y-98555000D01*
X172459000Y-98555000D01*
X172434496Y-98553796D01*
X172410227Y-98550196D01*
X172386429Y-98544235D01*
X172363329Y-98535970D01*
X172341151Y-98525480D01*
X172320107Y-98512867D01*
X172300402Y-98498253D01*
X172282223Y-98481777D01*
X172265747Y-98463598D01*
X172251133Y-98443893D01*
X172238520Y-98422849D01*
X172228030Y-98400671D01*
X172219765Y-98377571D01*
X172213804Y-98353773D01*
X172210204Y-98329504D01*
X172209000Y-98305000D01*
X172209000Y-97555000D01*
X172210204Y-97530496D01*
X172213804Y-97506227D01*
X172219765Y-97482429D01*
X172228030Y-97459329D01*
X172238520Y-97437151D01*
X172251133Y-97416107D01*
X172265747Y-97396402D01*
X172282223Y-97378223D01*
X172300402Y-97361747D01*
X172320107Y-97347133D01*
X172341151Y-97334520D01*
X172363329Y-97324030D01*
X172386429Y-97315765D01*
X172410227Y-97309804D01*
X172434496Y-97306204D01*
X172459000Y-97305000D01*
X173209000Y-97305000D01*
X173233504Y-97306204D01*
G37*
G36*
X175427626Y-94280301D02*
G01*
X175433693Y-94281201D01*
X175439643Y-94282691D01*
X175445418Y-94284758D01*
X175450962Y-94287380D01*
X175456223Y-94290533D01*
X175461150Y-94294187D01*
X175465694Y-94298306D01*
X175469813Y-94302850D01*
X175473467Y-94307777D01*
X175476620Y-94313038D01*
X175479242Y-94318582D01*
X175481309Y-94324357D01*
X175482799Y-94330307D01*
X175483699Y-94336374D01*
X175484000Y-94342500D01*
X175484000Y-95092500D01*
X175483699Y-95098626D01*
X175482799Y-95104693D01*
X175481309Y-95110643D01*
X175479242Y-95116418D01*
X175476620Y-95121962D01*
X175473467Y-95127223D01*
X175469813Y-95132150D01*
X175465694Y-95136694D01*
X175461150Y-95140813D01*
X175456223Y-95144467D01*
X175450962Y-95147620D01*
X175445418Y-95150242D01*
X175439643Y-95152309D01*
X175433693Y-95153799D01*
X175427626Y-95154699D01*
X175421500Y-95155000D01*
X175296500Y-95155000D01*
X175290374Y-95154699D01*
X175284307Y-95153799D01*
X175278357Y-95152309D01*
X175272582Y-95150242D01*
X175267038Y-95147620D01*
X175261777Y-95144467D01*
X175256850Y-95140813D01*
X175252306Y-95136694D01*
X175248187Y-95132150D01*
X175244533Y-95127223D01*
X175241380Y-95121962D01*
X175238758Y-95116418D01*
X175236691Y-95110643D01*
X175235201Y-95104693D01*
X175234301Y-95098626D01*
X175234000Y-95092500D01*
X175234000Y-94342500D01*
X175234301Y-94336374D01*
X175235201Y-94330307D01*
X175236691Y-94324357D01*
X175238758Y-94318582D01*
X175241380Y-94313038D01*
X175244533Y-94307777D01*
X175248187Y-94302850D01*
X175252306Y-94298306D01*
X175256850Y-94294187D01*
X175261777Y-94290533D01*
X175267038Y-94287380D01*
X175272582Y-94284758D01*
X175278357Y-94282691D01*
X175284307Y-94281201D01*
X175290374Y-94280301D01*
X175296500Y-94280000D01*
X175421500Y-94280000D01*
X175427626Y-94280301D01*
G37*
G36*
X174927626Y-94280301D02*
G01*
X174933693Y-94281201D01*
X174939643Y-94282691D01*
X174945418Y-94284758D01*
X174950962Y-94287380D01*
X174956223Y-94290533D01*
X174961150Y-94294187D01*
X174965694Y-94298306D01*
X174969813Y-94302850D01*
X174973467Y-94307777D01*
X174976620Y-94313038D01*
X174979242Y-94318582D01*
X174981309Y-94324357D01*
X174982799Y-94330307D01*
X174983699Y-94336374D01*
X174984000Y-94342500D01*
X174984000Y-95092500D01*
X174983699Y-95098626D01*
X174982799Y-95104693D01*
X174981309Y-95110643D01*
X174979242Y-95116418D01*
X174976620Y-95121962D01*
X174973467Y-95127223D01*
X174969813Y-95132150D01*
X174965694Y-95136694D01*
X174961150Y-95140813D01*
X174956223Y-95144467D01*
X174950962Y-95147620D01*
X174945418Y-95150242D01*
X174939643Y-95152309D01*
X174933693Y-95153799D01*
X174927626Y-95154699D01*
X174921500Y-95155000D01*
X174796500Y-95155000D01*
X174790374Y-95154699D01*
X174784307Y-95153799D01*
X174778357Y-95152309D01*
X174772582Y-95150242D01*
X174767038Y-95147620D01*
X174761777Y-95144467D01*
X174756850Y-95140813D01*
X174752306Y-95136694D01*
X174748187Y-95132150D01*
X174744533Y-95127223D01*
X174741380Y-95121962D01*
X174738758Y-95116418D01*
X174736691Y-95110643D01*
X174735201Y-95104693D01*
X174734301Y-95098626D01*
X174734000Y-95092500D01*
X174734000Y-94342500D01*
X174734301Y-94336374D01*
X174735201Y-94330307D01*
X174736691Y-94324357D01*
X174738758Y-94318582D01*
X174741380Y-94313038D01*
X174744533Y-94307777D01*
X174748187Y-94302850D01*
X174752306Y-94298306D01*
X174756850Y-94294187D01*
X174761777Y-94290533D01*
X174767038Y-94287380D01*
X174772582Y-94284758D01*
X174778357Y-94282691D01*
X174784307Y-94281201D01*
X174790374Y-94280301D01*
X174796500Y-94280000D01*
X174921500Y-94280000D01*
X174927626Y-94280301D01*
G37*
G36*
X174427626Y-94280301D02*
G01*
X174433693Y-94281201D01*
X174439643Y-94282691D01*
X174445418Y-94284758D01*
X174450962Y-94287380D01*
X174456223Y-94290533D01*
X174461150Y-94294187D01*
X174465694Y-94298306D01*
X174469813Y-94302850D01*
X174473467Y-94307777D01*
X174476620Y-94313038D01*
X174479242Y-94318582D01*
X174481309Y-94324357D01*
X174482799Y-94330307D01*
X174483699Y-94336374D01*
X174484000Y-94342500D01*
X174484000Y-95092500D01*
X174483699Y-95098626D01*
X174482799Y-95104693D01*
X174481309Y-95110643D01*
X174479242Y-95116418D01*
X174476620Y-95121962D01*
X174473467Y-95127223D01*
X174469813Y-95132150D01*
X174465694Y-95136694D01*
X174461150Y-95140813D01*
X174456223Y-95144467D01*
X174450962Y-95147620D01*
X174445418Y-95150242D01*
X174439643Y-95152309D01*
X174433693Y-95153799D01*
X174427626Y-95154699D01*
X174421500Y-95155000D01*
X174296500Y-95155000D01*
X174290374Y-95154699D01*
X174284307Y-95153799D01*
X174278357Y-95152309D01*
X174272582Y-95150242D01*
X174267038Y-95147620D01*
X174261777Y-95144467D01*
X174256850Y-95140813D01*
X174252306Y-95136694D01*
X174248187Y-95132150D01*
X174244533Y-95127223D01*
X174241380Y-95121962D01*
X174238758Y-95116418D01*
X174236691Y-95110643D01*
X174235201Y-95104693D01*
X174234301Y-95098626D01*
X174234000Y-95092500D01*
X174234000Y-94342500D01*
X174234301Y-94336374D01*
X174235201Y-94330307D01*
X174236691Y-94324357D01*
X174238758Y-94318582D01*
X174241380Y-94313038D01*
X174244533Y-94307777D01*
X174248187Y-94302850D01*
X174252306Y-94298306D01*
X174256850Y-94294187D01*
X174261777Y-94290533D01*
X174267038Y-94287380D01*
X174272582Y-94284758D01*
X174278357Y-94282691D01*
X174284307Y-94281201D01*
X174290374Y-94280301D01*
X174296500Y-94280000D01*
X174421500Y-94280000D01*
X174427626Y-94280301D01*
G37*
G36*
X173927626Y-94280301D02*
G01*
X173933693Y-94281201D01*
X173939643Y-94282691D01*
X173945418Y-94284758D01*
X173950962Y-94287380D01*
X173956223Y-94290533D01*
X173961150Y-94294187D01*
X173965694Y-94298306D01*
X173969813Y-94302850D01*
X173973467Y-94307777D01*
X173976620Y-94313038D01*
X173979242Y-94318582D01*
X173981309Y-94324357D01*
X173982799Y-94330307D01*
X173983699Y-94336374D01*
X173984000Y-94342500D01*
X173984000Y-95092500D01*
X173983699Y-95098626D01*
X173982799Y-95104693D01*
X173981309Y-95110643D01*
X173979242Y-95116418D01*
X173976620Y-95121962D01*
X173973467Y-95127223D01*
X173969813Y-95132150D01*
X173965694Y-95136694D01*
X173961150Y-95140813D01*
X173956223Y-95144467D01*
X173950962Y-95147620D01*
X173945418Y-95150242D01*
X173939643Y-95152309D01*
X173933693Y-95153799D01*
X173927626Y-95154699D01*
X173921500Y-95155000D01*
X173796500Y-95155000D01*
X173790374Y-95154699D01*
X173784307Y-95153799D01*
X173778357Y-95152309D01*
X173772582Y-95150242D01*
X173767038Y-95147620D01*
X173761777Y-95144467D01*
X173756850Y-95140813D01*
X173752306Y-95136694D01*
X173748187Y-95132150D01*
X173744533Y-95127223D01*
X173741380Y-95121962D01*
X173738758Y-95116418D01*
X173736691Y-95110643D01*
X173735201Y-95104693D01*
X173734301Y-95098626D01*
X173734000Y-95092500D01*
X173734000Y-94342500D01*
X173734301Y-94336374D01*
X173735201Y-94330307D01*
X173736691Y-94324357D01*
X173738758Y-94318582D01*
X173741380Y-94313038D01*
X173744533Y-94307777D01*
X173748187Y-94302850D01*
X173752306Y-94298306D01*
X173756850Y-94294187D01*
X173761777Y-94290533D01*
X173767038Y-94287380D01*
X173772582Y-94284758D01*
X173778357Y-94282691D01*
X173784307Y-94281201D01*
X173790374Y-94280301D01*
X173796500Y-94280000D01*
X173921500Y-94280000D01*
X173927626Y-94280301D01*
G37*
G36*
X173427626Y-94280301D02*
G01*
X173433693Y-94281201D01*
X173439643Y-94282691D01*
X173445418Y-94284758D01*
X173450962Y-94287380D01*
X173456223Y-94290533D01*
X173461150Y-94294187D01*
X173465694Y-94298306D01*
X173469813Y-94302850D01*
X173473467Y-94307777D01*
X173476620Y-94313038D01*
X173479242Y-94318582D01*
X173481309Y-94324357D01*
X173482799Y-94330307D01*
X173483699Y-94336374D01*
X173484000Y-94342500D01*
X173484000Y-95092500D01*
X173483699Y-95098626D01*
X173482799Y-95104693D01*
X173481309Y-95110643D01*
X173479242Y-95116418D01*
X173476620Y-95121962D01*
X173473467Y-95127223D01*
X173469813Y-95132150D01*
X173465694Y-95136694D01*
X173461150Y-95140813D01*
X173456223Y-95144467D01*
X173450962Y-95147620D01*
X173445418Y-95150242D01*
X173439643Y-95152309D01*
X173433693Y-95153799D01*
X173427626Y-95154699D01*
X173421500Y-95155000D01*
X173296500Y-95155000D01*
X173290374Y-95154699D01*
X173284307Y-95153799D01*
X173278357Y-95152309D01*
X173272582Y-95150242D01*
X173267038Y-95147620D01*
X173261777Y-95144467D01*
X173256850Y-95140813D01*
X173252306Y-95136694D01*
X173248187Y-95132150D01*
X173244533Y-95127223D01*
X173241380Y-95121962D01*
X173238758Y-95116418D01*
X173236691Y-95110643D01*
X173235201Y-95104693D01*
X173234301Y-95098626D01*
X173234000Y-95092500D01*
X173234000Y-94342500D01*
X173234301Y-94336374D01*
X173235201Y-94330307D01*
X173236691Y-94324357D01*
X173238758Y-94318582D01*
X173241380Y-94313038D01*
X173244533Y-94307777D01*
X173248187Y-94302850D01*
X173252306Y-94298306D01*
X173256850Y-94294187D01*
X173261777Y-94290533D01*
X173267038Y-94287380D01*
X173272582Y-94284758D01*
X173278357Y-94282691D01*
X173284307Y-94281201D01*
X173290374Y-94280301D01*
X173296500Y-94280000D01*
X173421500Y-94280000D01*
X173427626Y-94280301D01*
G37*
G36*
X172927626Y-94280301D02*
G01*
X172933693Y-94281201D01*
X172939643Y-94282691D01*
X172945418Y-94284758D01*
X172950962Y-94287380D01*
X172956223Y-94290533D01*
X172961150Y-94294187D01*
X172965694Y-94298306D01*
X172969813Y-94302850D01*
X172973467Y-94307777D01*
X172976620Y-94313038D01*
X172979242Y-94318582D01*
X172981309Y-94324357D01*
X172982799Y-94330307D01*
X172983699Y-94336374D01*
X172984000Y-94342500D01*
X172984000Y-95092500D01*
X172983699Y-95098626D01*
X172982799Y-95104693D01*
X172981309Y-95110643D01*
X172979242Y-95116418D01*
X172976620Y-95121962D01*
X172973467Y-95127223D01*
X172969813Y-95132150D01*
X172965694Y-95136694D01*
X172961150Y-95140813D01*
X172956223Y-95144467D01*
X172950962Y-95147620D01*
X172945418Y-95150242D01*
X172939643Y-95152309D01*
X172933693Y-95153799D01*
X172927626Y-95154699D01*
X172921500Y-95155000D01*
X172796500Y-95155000D01*
X172790374Y-95154699D01*
X172784307Y-95153799D01*
X172778357Y-95152309D01*
X172772582Y-95150242D01*
X172767038Y-95147620D01*
X172761777Y-95144467D01*
X172756850Y-95140813D01*
X172752306Y-95136694D01*
X172748187Y-95132150D01*
X172744533Y-95127223D01*
X172741380Y-95121962D01*
X172738758Y-95116418D01*
X172736691Y-95110643D01*
X172735201Y-95104693D01*
X172734301Y-95098626D01*
X172734000Y-95092500D01*
X172734000Y-94342500D01*
X172734301Y-94336374D01*
X172735201Y-94330307D01*
X172736691Y-94324357D01*
X172738758Y-94318582D01*
X172741380Y-94313038D01*
X172744533Y-94307777D01*
X172748187Y-94302850D01*
X172752306Y-94298306D01*
X172756850Y-94294187D01*
X172761777Y-94290533D01*
X172767038Y-94287380D01*
X172772582Y-94284758D01*
X172778357Y-94282691D01*
X172784307Y-94281201D01*
X172790374Y-94280301D01*
X172796500Y-94280000D01*
X172921500Y-94280000D01*
X172927626Y-94280301D01*
G37*
G36*
X172427626Y-94280301D02*
G01*
X172433693Y-94281201D01*
X172439643Y-94282691D01*
X172445418Y-94284758D01*
X172450962Y-94287380D01*
X172456223Y-94290533D01*
X172461150Y-94294187D01*
X172465694Y-94298306D01*
X172469813Y-94302850D01*
X172473467Y-94307777D01*
X172476620Y-94313038D01*
X172479242Y-94318582D01*
X172481309Y-94324357D01*
X172482799Y-94330307D01*
X172483699Y-94336374D01*
X172484000Y-94342500D01*
X172484000Y-95092500D01*
X172483699Y-95098626D01*
X172482799Y-95104693D01*
X172481309Y-95110643D01*
X172479242Y-95116418D01*
X172476620Y-95121962D01*
X172473467Y-95127223D01*
X172469813Y-95132150D01*
X172465694Y-95136694D01*
X172461150Y-95140813D01*
X172456223Y-95144467D01*
X172450962Y-95147620D01*
X172445418Y-95150242D01*
X172439643Y-95152309D01*
X172433693Y-95153799D01*
X172427626Y-95154699D01*
X172421500Y-95155000D01*
X172296500Y-95155000D01*
X172290374Y-95154699D01*
X172284307Y-95153799D01*
X172278357Y-95152309D01*
X172272582Y-95150242D01*
X172267038Y-95147620D01*
X172261777Y-95144467D01*
X172256850Y-95140813D01*
X172252306Y-95136694D01*
X172248187Y-95132150D01*
X172244533Y-95127223D01*
X172241380Y-95121962D01*
X172238758Y-95116418D01*
X172236691Y-95110643D01*
X172235201Y-95104693D01*
X172234301Y-95098626D01*
X172234000Y-95092500D01*
X172234000Y-94342500D01*
X172234301Y-94336374D01*
X172235201Y-94330307D01*
X172236691Y-94324357D01*
X172238758Y-94318582D01*
X172241380Y-94313038D01*
X172244533Y-94307777D01*
X172248187Y-94302850D01*
X172252306Y-94298306D01*
X172256850Y-94294187D01*
X172261777Y-94290533D01*
X172267038Y-94287380D01*
X172272582Y-94284758D01*
X172278357Y-94282691D01*
X172284307Y-94281201D01*
X172290374Y-94280301D01*
X172296500Y-94280000D01*
X172421500Y-94280000D01*
X172427626Y-94280301D01*
G37*
G36*
X171927626Y-94280301D02*
G01*
X171933693Y-94281201D01*
X171939643Y-94282691D01*
X171945418Y-94284758D01*
X171950962Y-94287380D01*
X171956223Y-94290533D01*
X171961150Y-94294187D01*
X171965694Y-94298306D01*
X171969813Y-94302850D01*
X171973467Y-94307777D01*
X171976620Y-94313038D01*
X171979242Y-94318582D01*
X171981309Y-94324357D01*
X171982799Y-94330307D01*
X171983699Y-94336374D01*
X171984000Y-94342500D01*
X171984000Y-95092500D01*
X171983699Y-95098626D01*
X171982799Y-95104693D01*
X171981309Y-95110643D01*
X171979242Y-95116418D01*
X171976620Y-95121962D01*
X171973467Y-95127223D01*
X171969813Y-95132150D01*
X171965694Y-95136694D01*
X171961150Y-95140813D01*
X171956223Y-95144467D01*
X171950962Y-95147620D01*
X171945418Y-95150242D01*
X171939643Y-95152309D01*
X171933693Y-95153799D01*
X171927626Y-95154699D01*
X171921500Y-95155000D01*
X171796500Y-95155000D01*
X171790374Y-95154699D01*
X171784307Y-95153799D01*
X171778357Y-95152309D01*
X171772582Y-95150242D01*
X171767038Y-95147620D01*
X171761777Y-95144467D01*
X171756850Y-95140813D01*
X171752306Y-95136694D01*
X171748187Y-95132150D01*
X171744533Y-95127223D01*
X171741380Y-95121962D01*
X171738758Y-95116418D01*
X171736691Y-95110643D01*
X171735201Y-95104693D01*
X171734301Y-95098626D01*
X171734000Y-95092500D01*
X171734000Y-94342500D01*
X171734301Y-94336374D01*
X171735201Y-94330307D01*
X171736691Y-94324357D01*
X171738758Y-94318582D01*
X171741380Y-94313038D01*
X171744533Y-94307777D01*
X171748187Y-94302850D01*
X171752306Y-94298306D01*
X171756850Y-94294187D01*
X171761777Y-94290533D01*
X171767038Y-94287380D01*
X171772582Y-94284758D01*
X171778357Y-94282691D01*
X171784307Y-94281201D01*
X171790374Y-94280301D01*
X171796500Y-94280000D01*
X171921500Y-94280000D01*
X171927626Y-94280301D01*
G37*
G36*
X171552626Y-95280301D02*
G01*
X171558693Y-95281201D01*
X171564643Y-95282691D01*
X171570418Y-95284758D01*
X171575962Y-95287380D01*
X171581223Y-95290533D01*
X171586150Y-95294187D01*
X171590694Y-95298306D01*
X171594813Y-95302850D01*
X171598467Y-95307777D01*
X171601620Y-95313038D01*
X171604242Y-95318582D01*
X171606309Y-95324357D01*
X171607799Y-95330307D01*
X171608699Y-95336374D01*
X171609000Y-95342500D01*
X171609000Y-95467500D01*
X171608699Y-95473626D01*
X171607799Y-95479693D01*
X171606309Y-95485643D01*
X171604242Y-95491418D01*
X171601620Y-95496962D01*
X171598467Y-95502223D01*
X171594813Y-95507150D01*
X171590694Y-95511694D01*
X171586150Y-95515813D01*
X171581223Y-95519467D01*
X171575962Y-95522620D01*
X171570418Y-95525242D01*
X171564643Y-95527309D01*
X171558693Y-95528799D01*
X171552626Y-95529699D01*
X171546500Y-95530000D01*
X170796500Y-95530000D01*
X170790374Y-95529699D01*
X170784307Y-95528799D01*
X170778357Y-95527309D01*
X170772582Y-95525242D01*
X170767038Y-95522620D01*
X170761777Y-95519467D01*
X170756850Y-95515813D01*
X170752306Y-95511694D01*
X170748187Y-95507150D01*
X170744533Y-95502223D01*
X170741380Y-95496962D01*
X170738758Y-95491418D01*
X170736691Y-95485643D01*
X170735201Y-95479693D01*
X170734301Y-95473626D01*
X170734000Y-95467500D01*
X170734000Y-95342500D01*
X170734301Y-95336374D01*
X170735201Y-95330307D01*
X170736691Y-95324357D01*
X170738758Y-95318582D01*
X170741380Y-95313038D01*
X170744533Y-95307777D01*
X170748187Y-95302850D01*
X170752306Y-95298306D01*
X170756850Y-95294187D01*
X170761777Y-95290533D01*
X170767038Y-95287380D01*
X170772582Y-95284758D01*
X170778357Y-95282691D01*
X170784307Y-95281201D01*
X170790374Y-95280301D01*
X170796500Y-95280000D01*
X171546500Y-95280000D01*
X171552626Y-95280301D01*
G37*
G36*
X171552626Y-95780301D02*
G01*
X171558693Y-95781201D01*
X171564643Y-95782691D01*
X171570418Y-95784758D01*
X171575962Y-95787380D01*
X171581223Y-95790533D01*
X171586150Y-95794187D01*
X171590694Y-95798306D01*
X171594813Y-95802850D01*
X171598467Y-95807777D01*
X171601620Y-95813038D01*
X171604242Y-95818582D01*
X171606309Y-95824357D01*
X171607799Y-95830307D01*
X171608699Y-95836374D01*
X171609000Y-95842500D01*
X171609000Y-95967500D01*
X171608699Y-95973626D01*
X171607799Y-95979693D01*
X171606309Y-95985643D01*
X171604242Y-95991418D01*
X171601620Y-95996962D01*
X171598467Y-96002223D01*
X171594813Y-96007150D01*
X171590694Y-96011694D01*
X171586150Y-96015813D01*
X171581223Y-96019467D01*
X171575962Y-96022620D01*
X171570418Y-96025242D01*
X171564643Y-96027309D01*
X171558693Y-96028799D01*
X171552626Y-96029699D01*
X171546500Y-96030000D01*
X170796500Y-96030000D01*
X170790374Y-96029699D01*
X170784307Y-96028799D01*
X170778357Y-96027309D01*
X170772582Y-96025242D01*
X170767038Y-96022620D01*
X170761777Y-96019467D01*
X170756850Y-96015813D01*
X170752306Y-96011694D01*
X170748187Y-96007150D01*
X170744533Y-96002223D01*
X170741380Y-95996962D01*
X170738758Y-95991418D01*
X170736691Y-95985643D01*
X170735201Y-95979693D01*
X170734301Y-95973626D01*
X170734000Y-95967500D01*
X170734000Y-95842500D01*
X170734301Y-95836374D01*
X170735201Y-95830307D01*
X170736691Y-95824357D01*
X170738758Y-95818582D01*
X170741380Y-95813038D01*
X170744533Y-95807777D01*
X170748187Y-95802850D01*
X170752306Y-95798306D01*
X170756850Y-95794187D01*
X170761777Y-95790533D01*
X170767038Y-95787380D01*
X170772582Y-95784758D01*
X170778357Y-95782691D01*
X170784307Y-95781201D01*
X170790374Y-95780301D01*
X170796500Y-95780000D01*
X171546500Y-95780000D01*
X171552626Y-95780301D01*
G37*
G36*
X171552626Y-96280301D02*
G01*
X171558693Y-96281201D01*
X171564643Y-96282691D01*
X171570418Y-96284758D01*
X171575962Y-96287380D01*
X171581223Y-96290533D01*
X171586150Y-96294187D01*
X171590694Y-96298306D01*
X171594813Y-96302850D01*
X171598467Y-96307777D01*
X171601620Y-96313038D01*
X171604242Y-96318582D01*
X171606309Y-96324357D01*
X171607799Y-96330307D01*
X171608699Y-96336374D01*
X171609000Y-96342500D01*
X171609000Y-96467500D01*
X171608699Y-96473626D01*
X171607799Y-96479693D01*
X171606309Y-96485643D01*
X171604242Y-96491418D01*
X171601620Y-96496962D01*
X171598467Y-96502223D01*
X171594813Y-96507150D01*
X171590694Y-96511694D01*
X171586150Y-96515813D01*
X171581223Y-96519467D01*
X171575962Y-96522620D01*
X171570418Y-96525242D01*
X171564643Y-96527309D01*
X171558693Y-96528799D01*
X171552626Y-96529699D01*
X171546500Y-96530000D01*
X170796500Y-96530000D01*
X170790374Y-96529699D01*
X170784307Y-96528799D01*
X170778357Y-96527309D01*
X170772582Y-96525242D01*
X170767038Y-96522620D01*
X170761777Y-96519467D01*
X170756850Y-96515813D01*
X170752306Y-96511694D01*
X170748187Y-96507150D01*
X170744533Y-96502223D01*
X170741380Y-96496962D01*
X170738758Y-96491418D01*
X170736691Y-96485643D01*
X170735201Y-96479693D01*
X170734301Y-96473626D01*
X170734000Y-96467500D01*
X170734000Y-96342500D01*
X170734301Y-96336374D01*
X170735201Y-96330307D01*
X170736691Y-96324357D01*
X170738758Y-96318582D01*
X170741380Y-96313038D01*
X170744533Y-96307777D01*
X170748187Y-96302850D01*
X170752306Y-96298306D01*
X170756850Y-96294187D01*
X170761777Y-96290533D01*
X170767038Y-96287380D01*
X170772582Y-96284758D01*
X170778357Y-96282691D01*
X170784307Y-96281201D01*
X170790374Y-96280301D01*
X170796500Y-96280000D01*
X171546500Y-96280000D01*
X171552626Y-96280301D01*
G37*
G36*
X171552626Y-96780301D02*
G01*
X171558693Y-96781201D01*
X171564643Y-96782691D01*
X171570418Y-96784758D01*
X171575962Y-96787380D01*
X171581223Y-96790533D01*
X171586150Y-96794187D01*
X171590694Y-96798306D01*
X171594813Y-96802850D01*
X171598467Y-96807777D01*
X171601620Y-96813038D01*
X171604242Y-96818582D01*
X171606309Y-96824357D01*
X171607799Y-96830307D01*
X171608699Y-96836374D01*
X171609000Y-96842500D01*
X171609000Y-96967500D01*
X171608699Y-96973626D01*
X171607799Y-96979693D01*
X171606309Y-96985643D01*
X171604242Y-96991418D01*
X171601620Y-96996962D01*
X171598467Y-97002223D01*
X171594813Y-97007150D01*
X171590694Y-97011694D01*
X171586150Y-97015813D01*
X171581223Y-97019467D01*
X171575962Y-97022620D01*
X171570418Y-97025242D01*
X171564643Y-97027309D01*
X171558693Y-97028799D01*
X171552626Y-97029699D01*
X171546500Y-97030000D01*
X170796500Y-97030000D01*
X170790374Y-97029699D01*
X170784307Y-97028799D01*
X170778357Y-97027309D01*
X170772582Y-97025242D01*
X170767038Y-97022620D01*
X170761777Y-97019467D01*
X170756850Y-97015813D01*
X170752306Y-97011694D01*
X170748187Y-97007150D01*
X170744533Y-97002223D01*
X170741380Y-96996962D01*
X170738758Y-96991418D01*
X170736691Y-96985643D01*
X170735201Y-96979693D01*
X170734301Y-96973626D01*
X170734000Y-96967500D01*
X170734000Y-96842500D01*
X170734301Y-96836374D01*
X170735201Y-96830307D01*
X170736691Y-96824357D01*
X170738758Y-96818582D01*
X170741380Y-96813038D01*
X170744533Y-96807777D01*
X170748187Y-96802850D01*
X170752306Y-96798306D01*
X170756850Y-96794187D01*
X170761777Y-96790533D01*
X170767038Y-96787380D01*
X170772582Y-96784758D01*
X170778357Y-96782691D01*
X170784307Y-96781201D01*
X170790374Y-96780301D01*
X170796500Y-96780000D01*
X171546500Y-96780000D01*
X171552626Y-96780301D01*
G37*
G36*
X171552626Y-97280301D02*
G01*
X171558693Y-97281201D01*
X171564643Y-97282691D01*
X171570418Y-97284758D01*
X171575962Y-97287380D01*
X171581223Y-97290533D01*
X171586150Y-97294187D01*
X171590694Y-97298306D01*
X171594813Y-97302850D01*
X171598467Y-97307777D01*
X171601620Y-97313038D01*
X171604242Y-97318582D01*
X171606309Y-97324357D01*
X171607799Y-97330307D01*
X171608699Y-97336374D01*
X171609000Y-97342500D01*
X171609000Y-97467500D01*
X171608699Y-97473626D01*
X171607799Y-97479693D01*
X171606309Y-97485643D01*
X171604242Y-97491418D01*
X171601620Y-97496962D01*
X171598467Y-97502223D01*
X171594813Y-97507150D01*
X171590694Y-97511694D01*
X171586150Y-97515813D01*
X171581223Y-97519467D01*
X171575962Y-97522620D01*
X171570418Y-97525242D01*
X171564643Y-97527309D01*
X171558693Y-97528799D01*
X171552626Y-97529699D01*
X171546500Y-97530000D01*
X170796500Y-97530000D01*
X170790374Y-97529699D01*
X170784307Y-97528799D01*
X170778357Y-97527309D01*
X170772582Y-97525242D01*
X170767038Y-97522620D01*
X170761777Y-97519467D01*
X170756850Y-97515813D01*
X170752306Y-97511694D01*
X170748187Y-97507150D01*
X170744533Y-97502223D01*
X170741380Y-97496962D01*
X170738758Y-97491418D01*
X170736691Y-97485643D01*
X170735201Y-97479693D01*
X170734301Y-97473626D01*
X170734000Y-97467500D01*
X170734000Y-97342500D01*
X170734301Y-97336374D01*
X170735201Y-97330307D01*
X170736691Y-97324357D01*
X170738758Y-97318582D01*
X170741380Y-97313038D01*
X170744533Y-97307777D01*
X170748187Y-97302850D01*
X170752306Y-97298306D01*
X170756850Y-97294187D01*
X170761777Y-97290533D01*
X170767038Y-97287380D01*
X170772582Y-97284758D01*
X170778357Y-97282691D01*
X170784307Y-97281201D01*
X170790374Y-97280301D01*
X170796500Y-97280000D01*
X171546500Y-97280000D01*
X171552626Y-97280301D01*
G37*
G36*
X171552626Y-97780301D02*
G01*
X171558693Y-97781201D01*
X171564643Y-97782691D01*
X171570418Y-97784758D01*
X171575962Y-97787380D01*
X171581223Y-97790533D01*
X171586150Y-97794187D01*
X171590694Y-97798306D01*
X171594813Y-97802850D01*
X171598467Y-97807777D01*
X171601620Y-97813038D01*
X171604242Y-97818582D01*
X171606309Y-97824357D01*
X171607799Y-97830307D01*
X171608699Y-97836374D01*
X171609000Y-97842500D01*
X171609000Y-97967500D01*
X171608699Y-97973626D01*
X171607799Y-97979693D01*
X171606309Y-97985643D01*
X171604242Y-97991418D01*
X171601620Y-97996962D01*
X171598467Y-98002223D01*
X171594813Y-98007150D01*
X171590694Y-98011694D01*
X171586150Y-98015813D01*
X171581223Y-98019467D01*
X171575962Y-98022620D01*
X171570418Y-98025242D01*
X171564643Y-98027309D01*
X171558693Y-98028799D01*
X171552626Y-98029699D01*
X171546500Y-98030000D01*
X170796500Y-98030000D01*
X170790374Y-98029699D01*
X170784307Y-98028799D01*
X170778357Y-98027309D01*
X170772582Y-98025242D01*
X170767038Y-98022620D01*
X170761777Y-98019467D01*
X170756850Y-98015813D01*
X170752306Y-98011694D01*
X170748187Y-98007150D01*
X170744533Y-98002223D01*
X170741380Y-97996962D01*
X170738758Y-97991418D01*
X170736691Y-97985643D01*
X170735201Y-97979693D01*
X170734301Y-97973626D01*
X170734000Y-97967500D01*
X170734000Y-97842500D01*
X170734301Y-97836374D01*
X170735201Y-97830307D01*
X170736691Y-97824357D01*
X170738758Y-97818582D01*
X170741380Y-97813038D01*
X170744533Y-97807777D01*
X170748187Y-97802850D01*
X170752306Y-97798306D01*
X170756850Y-97794187D01*
X170761777Y-97790533D01*
X170767038Y-97787380D01*
X170772582Y-97784758D01*
X170778357Y-97782691D01*
X170784307Y-97781201D01*
X170790374Y-97780301D01*
X170796500Y-97780000D01*
X171546500Y-97780000D01*
X171552626Y-97780301D01*
G37*
G36*
X171552626Y-98280301D02*
G01*
X171558693Y-98281201D01*
X171564643Y-98282691D01*
X171570418Y-98284758D01*
X171575962Y-98287380D01*
X171581223Y-98290533D01*
X171586150Y-98294187D01*
X171590694Y-98298306D01*
X171594813Y-98302850D01*
X171598467Y-98307777D01*
X171601620Y-98313038D01*
X171604242Y-98318582D01*
X171606309Y-98324357D01*
X171607799Y-98330307D01*
X171608699Y-98336374D01*
X171609000Y-98342500D01*
X171609000Y-98467500D01*
X171608699Y-98473626D01*
X171607799Y-98479693D01*
X171606309Y-98485643D01*
X171604242Y-98491418D01*
X171601620Y-98496962D01*
X171598467Y-98502223D01*
X171594813Y-98507150D01*
X171590694Y-98511694D01*
X171586150Y-98515813D01*
X171581223Y-98519467D01*
X171575962Y-98522620D01*
X171570418Y-98525242D01*
X171564643Y-98527309D01*
X171558693Y-98528799D01*
X171552626Y-98529699D01*
X171546500Y-98530000D01*
X170796500Y-98530000D01*
X170790374Y-98529699D01*
X170784307Y-98528799D01*
X170778357Y-98527309D01*
X170772582Y-98525242D01*
X170767038Y-98522620D01*
X170761777Y-98519467D01*
X170756850Y-98515813D01*
X170752306Y-98511694D01*
X170748187Y-98507150D01*
X170744533Y-98502223D01*
X170741380Y-98496962D01*
X170738758Y-98491418D01*
X170736691Y-98485643D01*
X170735201Y-98479693D01*
X170734301Y-98473626D01*
X170734000Y-98467500D01*
X170734000Y-98342500D01*
X170734301Y-98336374D01*
X170735201Y-98330307D01*
X170736691Y-98324357D01*
X170738758Y-98318582D01*
X170741380Y-98313038D01*
X170744533Y-98307777D01*
X170748187Y-98302850D01*
X170752306Y-98298306D01*
X170756850Y-98294187D01*
X170761777Y-98290533D01*
X170767038Y-98287380D01*
X170772582Y-98284758D01*
X170778357Y-98282691D01*
X170784307Y-98281201D01*
X170790374Y-98280301D01*
X170796500Y-98280000D01*
X171546500Y-98280000D01*
X171552626Y-98280301D01*
G37*
G36*
X171552626Y-98780301D02*
G01*
X171558693Y-98781201D01*
X171564643Y-98782691D01*
X171570418Y-98784758D01*
X171575962Y-98787380D01*
X171581223Y-98790533D01*
X171586150Y-98794187D01*
X171590694Y-98798306D01*
X171594813Y-98802850D01*
X171598467Y-98807777D01*
X171601620Y-98813038D01*
X171604242Y-98818582D01*
X171606309Y-98824357D01*
X171607799Y-98830307D01*
X171608699Y-98836374D01*
X171609000Y-98842500D01*
X171609000Y-98967500D01*
X171608699Y-98973626D01*
X171607799Y-98979693D01*
X171606309Y-98985643D01*
X171604242Y-98991418D01*
X171601620Y-98996962D01*
X171598467Y-99002223D01*
X171594813Y-99007150D01*
X171590694Y-99011694D01*
X171586150Y-99015813D01*
X171581223Y-99019467D01*
X171575962Y-99022620D01*
X171570418Y-99025242D01*
X171564643Y-99027309D01*
X171558693Y-99028799D01*
X171552626Y-99029699D01*
X171546500Y-99030000D01*
X170796500Y-99030000D01*
X170790374Y-99029699D01*
X170784307Y-99028799D01*
X170778357Y-99027309D01*
X170772582Y-99025242D01*
X170767038Y-99022620D01*
X170761777Y-99019467D01*
X170756850Y-99015813D01*
X170752306Y-99011694D01*
X170748187Y-99007150D01*
X170744533Y-99002223D01*
X170741380Y-98996962D01*
X170738758Y-98991418D01*
X170736691Y-98985643D01*
X170735201Y-98979693D01*
X170734301Y-98973626D01*
X170734000Y-98967500D01*
X170734000Y-98842500D01*
X170734301Y-98836374D01*
X170735201Y-98830307D01*
X170736691Y-98824357D01*
X170738758Y-98818582D01*
X170741380Y-98813038D01*
X170744533Y-98807777D01*
X170748187Y-98802850D01*
X170752306Y-98798306D01*
X170756850Y-98794187D01*
X170761777Y-98790533D01*
X170767038Y-98787380D01*
X170772582Y-98784758D01*
X170778357Y-98782691D01*
X170784307Y-98781201D01*
X170790374Y-98780301D01*
X170796500Y-98780000D01*
X171546500Y-98780000D01*
X171552626Y-98780301D01*
G37*
G36*
X171927626Y-99155301D02*
G01*
X171933693Y-99156201D01*
X171939643Y-99157691D01*
X171945418Y-99159758D01*
X171950962Y-99162380D01*
X171956223Y-99165533D01*
X171961150Y-99169187D01*
X171965694Y-99173306D01*
X171969813Y-99177850D01*
X171973467Y-99182777D01*
X171976620Y-99188038D01*
X171979242Y-99193582D01*
X171981309Y-99199357D01*
X171982799Y-99205307D01*
X171983699Y-99211374D01*
X171984000Y-99217500D01*
X171984000Y-99967500D01*
X171983699Y-99973626D01*
X171982799Y-99979693D01*
X171981309Y-99985643D01*
X171979242Y-99991418D01*
X171976620Y-99996962D01*
X171973467Y-100002223D01*
X171969813Y-100007150D01*
X171965694Y-100011694D01*
X171961150Y-100015813D01*
X171956223Y-100019467D01*
X171950962Y-100022620D01*
X171945418Y-100025242D01*
X171939643Y-100027309D01*
X171933693Y-100028799D01*
X171927626Y-100029699D01*
X171921500Y-100030000D01*
X171796500Y-100030000D01*
X171790374Y-100029699D01*
X171784307Y-100028799D01*
X171778357Y-100027309D01*
X171772582Y-100025242D01*
X171767038Y-100022620D01*
X171761777Y-100019467D01*
X171756850Y-100015813D01*
X171752306Y-100011694D01*
X171748187Y-100007150D01*
X171744533Y-100002223D01*
X171741380Y-99996962D01*
X171738758Y-99991418D01*
X171736691Y-99985643D01*
X171735201Y-99979693D01*
X171734301Y-99973626D01*
X171734000Y-99967500D01*
X171734000Y-99217500D01*
X171734301Y-99211374D01*
X171735201Y-99205307D01*
X171736691Y-99199357D01*
X171738758Y-99193582D01*
X171741380Y-99188038D01*
X171744533Y-99182777D01*
X171748187Y-99177850D01*
X171752306Y-99173306D01*
X171756850Y-99169187D01*
X171761777Y-99165533D01*
X171767038Y-99162380D01*
X171772582Y-99159758D01*
X171778357Y-99157691D01*
X171784307Y-99156201D01*
X171790374Y-99155301D01*
X171796500Y-99155000D01*
X171921500Y-99155000D01*
X171927626Y-99155301D01*
G37*
G36*
X172427626Y-99155301D02*
G01*
X172433693Y-99156201D01*
X172439643Y-99157691D01*
X172445418Y-99159758D01*
X172450962Y-99162380D01*
X172456223Y-99165533D01*
X172461150Y-99169187D01*
X172465694Y-99173306D01*
X172469813Y-99177850D01*
X172473467Y-99182777D01*
X172476620Y-99188038D01*
X172479242Y-99193582D01*
X172481309Y-99199357D01*
X172482799Y-99205307D01*
X172483699Y-99211374D01*
X172484000Y-99217500D01*
X172484000Y-99967500D01*
X172483699Y-99973626D01*
X172482799Y-99979693D01*
X172481309Y-99985643D01*
X172479242Y-99991418D01*
X172476620Y-99996962D01*
X172473467Y-100002223D01*
X172469813Y-100007150D01*
X172465694Y-100011694D01*
X172461150Y-100015813D01*
X172456223Y-100019467D01*
X172450962Y-100022620D01*
X172445418Y-100025242D01*
X172439643Y-100027309D01*
X172433693Y-100028799D01*
X172427626Y-100029699D01*
X172421500Y-100030000D01*
X172296500Y-100030000D01*
X172290374Y-100029699D01*
X172284307Y-100028799D01*
X172278357Y-100027309D01*
X172272582Y-100025242D01*
X172267038Y-100022620D01*
X172261777Y-100019467D01*
X172256850Y-100015813D01*
X172252306Y-100011694D01*
X172248187Y-100007150D01*
X172244533Y-100002223D01*
X172241380Y-99996962D01*
X172238758Y-99991418D01*
X172236691Y-99985643D01*
X172235201Y-99979693D01*
X172234301Y-99973626D01*
X172234000Y-99967500D01*
X172234000Y-99217500D01*
X172234301Y-99211374D01*
X172235201Y-99205307D01*
X172236691Y-99199357D01*
X172238758Y-99193582D01*
X172241380Y-99188038D01*
X172244533Y-99182777D01*
X172248187Y-99177850D01*
X172252306Y-99173306D01*
X172256850Y-99169187D01*
X172261777Y-99165533D01*
X172267038Y-99162380D01*
X172272582Y-99159758D01*
X172278357Y-99157691D01*
X172284307Y-99156201D01*
X172290374Y-99155301D01*
X172296500Y-99155000D01*
X172421500Y-99155000D01*
X172427626Y-99155301D01*
G37*
G36*
X172927626Y-99155301D02*
G01*
X172933693Y-99156201D01*
X172939643Y-99157691D01*
X172945418Y-99159758D01*
X172950962Y-99162380D01*
X172956223Y-99165533D01*
X172961150Y-99169187D01*
X172965694Y-99173306D01*
X172969813Y-99177850D01*
X172973467Y-99182777D01*
X172976620Y-99188038D01*
X172979242Y-99193582D01*
X172981309Y-99199357D01*
X172982799Y-99205307D01*
X172983699Y-99211374D01*
X172984000Y-99217500D01*
X172984000Y-99967500D01*
X172983699Y-99973626D01*
X172982799Y-99979693D01*
X172981309Y-99985643D01*
X172979242Y-99991418D01*
X172976620Y-99996962D01*
X172973467Y-100002223D01*
X172969813Y-100007150D01*
X172965694Y-100011694D01*
X172961150Y-100015813D01*
X172956223Y-100019467D01*
X172950962Y-100022620D01*
X172945418Y-100025242D01*
X172939643Y-100027309D01*
X172933693Y-100028799D01*
X172927626Y-100029699D01*
X172921500Y-100030000D01*
X172796500Y-100030000D01*
X172790374Y-100029699D01*
X172784307Y-100028799D01*
X172778357Y-100027309D01*
X172772582Y-100025242D01*
X172767038Y-100022620D01*
X172761777Y-100019467D01*
X172756850Y-100015813D01*
X172752306Y-100011694D01*
X172748187Y-100007150D01*
X172744533Y-100002223D01*
X172741380Y-99996962D01*
X172738758Y-99991418D01*
X172736691Y-99985643D01*
X172735201Y-99979693D01*
X172734301Y-99973626D01*
X172734000Y-99967500D01*
X172734000Y-99217500D01*
X172734301Y-99211374D01*
X172735201Y-99205307D01*
X172736691Y-99199357D01*
X172738758Y-99193582D01*
X172741380Y-99188038D01*
X172744533Y-99182777D01*
X172748187Y-99177850D01*
X172752306Y-99173306D01*
X172756850Y-99169187D01*
X172761777Y-99165533D01*
X172767038Y-99162380D01*
X172772582Y-99159758D01*
X172778357Y-99157691D01*
X172784307Y-99156201D01*
X172790374Y-99155301D01*
X172796500Y-99155000D01*
X172921500Y-99155000D01*
X172927626Y-99155301D01*
G37*
G36*
X173427626Y-99155301D02*
G01*
X173433693Y-99156201D01*
X173439643Y-99157691D01*
X173445418Y-99159758D01*
X173450962Y-99162380D01*
X173456223Y-99165533D01*
X173461150Y-99169187D01*
X173465694Y-99173306D01*
X173469813Y-99177850D01*
X173473467Y-99182777D01*
X173476620Y-99188038D01*
X173479242Y-99193582D01*
X173481309Y-99199357D01*
X173482799Y-99205307D01*
X173483699Y-99211374D01*
X173484000Y-99217500D01*
X173484000Y-99967500D01*
X173483699Y-99973626D01*
X173482799Y-99979693D01*
X173481309Y-99985643D01*
X173479242Y-99991418D01*
X173476620Y-99996962D01*
X173473467Y-100002223D01*
X173469813Y-100007150D01*
X173465694Y-100011694D01*
X173461150Y-100015813D01*
X173456223Y-100019467D01*
X173450962Y-100022620D01*
X173445418Y-100025242D01*
X173439643Y-100027309D01*
X173433693Y-100028799D01*
X173427626Y-100029699D01*
X173421500Y-100030000D01*
X173296500Y-100030000D01*
X173290374Y-100029699D01*
X173284307Y-100028799D01*
X173278357Y-100027309D01*
X173272582Y-100025242D01*
X173267038Y-100022620D01*
X173261777Y-100019467D01*
X173256850Y-100015813D01*
X173252306Y-100011694D01*
X173248187Y-100007150D01*
X173244533Y-100002223D01*
X173241380Y-99996962D01*
X173238758Y-99991418D01*
X173236691Y-99985643D01*
X173235201Y-99979693D01*
X173234301Y-99973626D01*
X173234000Y-99967500D01*
X173234000Y-99217500D01*
X173234301Y-99211374D01*
X173235201Y-99205307D01*
X173236691Y-99199357D01*
X173238758Y-99193582D01*
X173241380Y-99188038D01*
X173244533Y-99182777D01*
X173248187Y-99177850D01*
X173252306Y-99173306D01*
X173256850Y-99169187D01*
X173261777Y-99165533D01*
X173267038Y-99162380D01*
X173272582Y-99159758D01*
X173278357Y-99157691D01*
X173284307Y-99156201D01*
X173290374Y-99155301D01*
X173296500Y-99155000D01*
X173421500Y-99155000D01*
X173427626Y-99155301D01*
G37*
G36*
X173927626Y-99155301D02*
G01*
X173933693Y-99156201D01*
X173939643Y-99157691D01*
X173945418Y-99159758D01*
X173950962Y-99162380D01*
X173956223Y-99165533D01*
X173961150Y-99169187D01*
X173965694Y-99173306D01*
X173969813Y-99177850D01*
X173973467Y-99182777D01*
X173976620Y-99188038D01*
X173979242Y-99193582D01*
X173981309Y-99199357D01*
X173982799Y-99205307D01*
X173983699Y-99211374D01*
X173984000Y-99217500D01*
X173984000Y-99967500D01*
X173983699Y-99973626D01*
X173982799Y-99979693D01*
X173981309Y-99985643D01*
X173979242Y-99991418D01*
X173976620Y-99996962D01*
X173973467Y-100002223D01*
X173969813Y-100007150D01*
X173965694Y-100011694D01*
X173961150Y-100015813D01*
X173956223Y-100019467D01*
X173950962Y-100022620D01*
X173945418Y-100025242D01*
X173939643Y-100027309D01*
X173933693Y-100028799D01*
X173927626Y-100029699D01*
X173921500Y-100030000D01*
X173796500Y-100030000D01*
X173790374Y-100029699D01*
X173784307Y-100028799D01*
X173778357Y-100027309D01*
X173772582Y-100025242D01*
X173767038Y-100022620D01*
X173761777Y-100019467D01*
X173756850Y-100015813D01*
X173752306Y-100011694D01*
X173748187Y-100007150D01*
X173744533Y-100002223D01*
X173741380Y-99996962D01*
X173738758Y-99991418D01*
X173736691Y-99985643D01*
X173735201Y-99979693D01*
X173734301Y-99973626D01*
X173734000Y-99967500D01*
X173734000Y-99217500D01*
X173734301Y-99211374D01*
X173735201Y-99205307D01*
X173736691Y-99199357D01*
X173738758Y-99193582D01*
X173741380Y-99188038D01*
X173744533Y-99182777D01*
X173748187Y-99177850D01*
X173752306Y-99173306D01*
X173756850Y-99169187D01*
X173761777Y-99165533D01*
X173767038Y-99162380D01*
X173772582Y-99159758D01*
X173778357Y-99157691D01*
X173784307Y-99156201D01*
X173790374Y-99155301D01*
X173796500Y-99155000D01*
X173921500Y-99155000D01*
X173927626Y-99155301D01*
G37*
G36*
X174427626Y-99155301D02*
G01*
X174433693Y-99156201D01*
X174439643Y-99157691D01*
X174445418Y-99159758D01*
X174450962Y-99162380D01*
X174456223Y-99165533D01*
X174461150Y-99169187D01*
X174465694Y-99173306D01*
X174469813Y-99177850D01*
X174473467Y-99182777D01*
X174476620Y-99188038D01*
X174479242Y-99193582D01*
X174481309Y-99199357D01*
X174482799Y-99205307D01*
X174483699Y-99211374D01*
X174484000Y-99217500D01*
X174484000Y-99967500D01*
X174483699Y-99973626D01*
X174482799Y-99979693D01*
X174481309Y-99985643D01*
X174479242Y-99991418D01*
X174476620Y-99996962D01*
X174473467Y-100002223D01*
X174469813Y-100007150D01*
X174465694Y-100011694D01*
X174461150Y-100015813D01*
X174456223Y-100019467D01*
X174450962Y-100022620D01*
X174445418Y-100025242D01*
X174439643Y-100027309D01*
X174433693Y-100028799D01*
X174427626Y-100029699D01*
X174421500Y-100030000D01*
X174296500Y-100030000D01*
X174290374Y-100029699D01*
X174284307Y-100028799D01*
X174278357Y-100027309D01*
X174272582Y-100025242D01*
X174267038Y-100022620D01*
X174261777Y-100019467D01*
X174256850Y-100015813D01*
X174252306Y-100011694D01*
X174248187Y-100007150D01*
X174244533Y-100002223D01*
X174241380Y-99996962D01*
X174238758Y-99991418D01*
X174236691Y-99985643D01*
X174235201Y-99979693D01*
X174234301Y-99973626D01*
X174234000Y-99967500D01*
X174234000Y-99217500D01*
X174234301Y-99211374D01*
X174235201Y-99205307D01*
X174236691Y-99199357D01*
X174238758Y-99193582D01*
X174241380Y-99188038D01*
X174244533Y-99182777D01*
X174248187Y-99177850D01*
X174252306Y-99173306D01*
X174256850Y-99169187D01*
X174261777Y-99165533D01*
X174267038Y-99162380D01*
X174272582Y-99159758D01*
X174278357Y-99157691D01*
X174284307Y-99156201D01*
X174290374Y-99155301D01*
X174296500Y-99155000D01*
X174421500Y-99155000D01*
X174427626Y-99155301D01*
G37*
G36*
X174927626Y-99155301D02*
G01*
X174933693Y-99156201D01*
X174939643Y-99157691D01*
X174945418Y-99159758D01*
X174950962Y-99162380D01*
X174956223Y-99165533D01*
X174961150Y-99169187D01*
X174965694Y-99173306D01*
X174969813Y-99177850D01*
X174973467Y-99182777D01*
X174976620Y-99188038D01*
X174979242Y-99193582D01*
X174981309Y-99199357D01*
X174982799Y-99205307D01*
X174983699Y-99211374D01*
X174984000Y-99217500D01*
X174984000Y-99967500D01*
X174983699Y-99973626D01*
X174982799Y-99979693D01*
X174981309Y-99985643D01*
X174979242Y-99991418D01*
X174976620Y-99996962D01*
X174973467Y-100002223D01*
X174969813Y-100007150D01*
X174965694Y-100011694D01*
X174961150Y-100015813D01*
X174956223Y-100019467D01*
X174950962Y-100022620D01*
X174945418Y-100025242D01*
X174939643Y-100027309D01*
X174933693Y-100028799D01*
X174927626Y-100029699D01*
X174921500Y-100030000D01*
X174796500Y-100030000D01*
X174790374Y-100029699D01*
X174784307Y-100028799D01*
X174778357Y-100027309D01*
X174772582Y-100025242D01*
X174767038Y-100022620D01*
X174761777Y-100019467D01*
X174756850Y-100015813D01*
X174752306Y-100011694D01*
X174748187Y-100007150D01*
X174744533Y-100002223D01*
X174741380Y-99996962D01*
X174738758Y-99991418D01*
X174736691Y-99985643D01*
X174735201Y-99979693D01*
X174734301Y-99973626D01*
X174734000Y-99967500D01*
X174734000Y-99217500D01*
X174734301Y-99211374D01*
X174735201Y-99205307D01*
X174736691Y-99199357D01*
X174738758Y-99193582D01*
X174741380Y-99188038D01*
X174744533Y-99182777D01*
X174748187Y-99177850D01*
X174752306Y-99173306D01*
X174756850Y-99169187D01*
X174761777Y-99165533D01*
X174767038Y-99162380D01*
X174772582Y-99159758D01*
X174778357Y-99157691D01*
X174784307Y-99156201D01*
X174790374Y-99155301D01*
X174796500Y-99155000D01*
X174921500Y-99155000D01*
X174927626Y-99155301D01*
G37*
G36*
X175427626Y-99155301D02*
G01*
X175433693Y-99156201D01*
X175439643Y-99157691D01*
X175445418Y-99159758D01*
X175450962Y-99162380D01*
X175456223Y-99165533D01*
X175461150Y-99169187D01*
X175465694Y-99173306D01*
X175469813Y-99177850D01*
X175473467Y-99182777D01*
X175476620Y-99188038D01*
X175479242Y-99193582D01*
X175481309Y-99199357D01*
X175482799Y-99205307D01*
X175483699Y-99211374D01*
X175484000Y-99217500D01*
X175484000Y-99967500D01*
X175483699Y-99973626D01*
X175482799Y-99979693D01*
X175481309Y-99985643D01*
X175479242Y-99991418D01*
X175476620Y-99996962D01*
X175473467Y-100002223D01*
X175469813Y-100007150D01*
X175465694Y-100011694D01*
X175461150Y-100015813D01*
X175456223Y-100019467D01*
X175450962Y-100022620D01*
X175445418Y-100025242D01*
X175439643Y-100027309D01*
X175433693Y-100028799D01*
X175427626Y-100029699D01*
X175421500Y-100030000D01*
X175296500Y-100030000D01*
X175290374Y-100029699D01*
X175284307Y-100028799D01*
X175278357Y-100027309D01*
X175272582Y-100025242D01*
X175267038Y-100022620D01*
X175261777Y-100019467D01*
X175256850Y-100015813D01*
X175252306Y-100011694D01*
X175248187Y-100007150D01*
X175244533Y-100002223D01*
X175241380Y-99996962D01*
X175238758Y-99991418D01*
X175236691Y-99985643D01*
X175235201Y-99979693D01*
X175234301Y-99973626D01*
X175234000Y-99967500D01*
X175234000Y-99217500D01*
X175234301Y-99211374D01*
X175235201Y-99205307D01*
X175236691Y-99199357D01*
X175238758Y-99193582D01*
X175241380Y-99188038D01*
X175244533Y-99182777D01*
X175248187Y-99177850D01*
X175252306Y-99173306D01*
X175256850Y-99169187D01*
X175261777Y-99165533D01*
X175267038Y-99162380D01*
X175272582Y-99159758D01*
X175278357Y-99157691D01*
X175284307Y-99156201D01*
X175290374Y-99155301D01*
X175296500Y-99155000D01*
X175421500Y-99155000D01*
X175427626Y-99155301D01*
G37*
G36*
X176427626Y-98780301D02*
G01*
X176433693Y-98781201D01*
X176439643Y-98782691D01*
X176445418Y-98784758D01*
X176450962Y-98787380D01*
X176456223Y-98790533D01*
X176461150Y-98794187D01*
X176465694Y-98798306D01*
X176469813Y-98802850D01*
X176473467Y-98807777D01*
X176476620Y-98813038D01*
X176479242Y-98818582D01*
X176481309Y-98824357D01*
X176482799Y-98830307D01*
X176483699Y-98836374D01*
X176484000Y-98842500D01*
X176484000Y-98967500D01*
X176483699Y-98973626D01*
X176482799Y-98979693D01*
X176481309Y-98985643D01*
X176479242Y-98991418D01*
X176476620Y-98996962D01*
X176473467Y-99002223D01*
X176469813Y-99007150D01*
X176465694Y-99011694D01*
X176461150Y-99015813D01*
X176456223Y-99019467D01*
X176450962Y-99022620D01*
X176445418Y-99025242D01*
X176439643Y-99027309D01*
X176433693Y-99028799D01*
X176427626Y-99029699D01*
X176421500Y-99030000D01*
X175671500Y-99030000D01*
X175665374Y-99029699D01*
X175659307Y-99028799D01*
X175653357Y-99027309D01*
X175647582Y-99025242D01*
X175642038Y-99022620D01*
X175636777Y-99019467D01*
X175631850Y-99015813D01*
X175627306Y-99011694D01*
X175623187Y-99007150D01*
X175619533Y-99002223D01*
X175616380Y-98996962D01*
X175613758Y-98991418D01*
X175611691Y-98985643D01*
X175610201Y-98979693D01*
X175609301Y-98973626D01*
X175609000Y-98967500D01*
X175609000Y-98842500D01*
X175609301Y-98836374D01*
X175610201Y-98830307D01*
X175611691Y-98824357D01*
X175613758Y-98818582D01*
X175616380Y-98813038D01*
X175619533Y-98807777D01*
X175623187Y-98802850D01*
X175627306Y-98798306D01*
X175631850Y-98794187D01*
X175636777Y-98790533D01*
X175642038Y-98787380D01*
X175647582Y-98784758D01*
X175653357Y-98782691D01*
X175659307Y-98781201D01*
X175665374Y-98780301D01*
X175671500Y-98780000D01*
X176421500Y-98780000D01*
X176427626Y-98780301D01*
G37*
G36*
X176427626Y-98280301D02*
G01*
X176433693Y-98281201D01*
X176439643Y-98282691D01*
X176445418Y-98284758D01*
X176450962Y-98287380D01*
X176456223Y-98290533D01*
X176461150Y-98294187D01*
X176465694Y-98298306D01*
X176469813Y-98302850D01*
X176473467Y-98307777D01*
X176476620Y-98313038D01*
X176479242Y-98318582D01*
X176481309Y-98324357D01*
X176482799Y-98330307D01*
X176483699Y-98336374D01*
X176484000Y-98342500D01*
X176484000Y-98467500D01*
X176483699Y-98473626D01*
X176482799Y-98479693D01*
X176481309Y-98485643D01*
X176479242Y-98491418D01*
X176476620Y-98496962D01*
X176473467Y-98502223D01*
X176469813Y-98507150D01*
X176465694Y-98511694D01*
X176461150Y-98515813D01*
X176456223Y-98519467D01*
X176450962Y-98522620D01*
X176445418Y-98525242D01*
X176439643Y-98527309D01*
X176433693Y-98528799D01*
X176427626Y-98529699D01*
X176421500Y-98530000D01*
X175671500Y-98530000D01*
X175665374Y-98529699D01*
X175659307Y-98528799D01*
X175653357Y-98527309D01*
X175647582Y-98525242D01*
X175642038Y-98522620D01*
X175636777Y-98519467D01*
X175631850Y-98515813D01*
X175627306Y-98511694D01*
X175623187Y-98507150D01*
X175619533Y-98502223D01*
X175616380Y-98496962D01*
X175613758Y-98491418D01*
X175611691Y-98485643D01*
X175610201Y-98479693D01*
X175609301Y-98473626D01*
X175609000Y-98467500D01*
X175609000Y-98342500D01*
X175609301Y-98336374D01*
X175610201Y-98330307D01*
X175611691Y-98324357D01*
X175613758Y-98318582D01*
X175616380Y-98313038D01*
X175619533Y-98307777D01*
X175623187Y-98302850D01*
X175627306Y-98298306D01*
X175631850Y-98294187D01*
X175636777Y-98290533D01*
X175642038Y-98287380D01*
X175647582Y-98284758D01*
X175653357Y-98282691D01*
X175659307Y-98281201D01*
X175665374Y-98280301D01*
X175671500Y-98280000D01*
X176421500Y-98280000D01*
X176427626Y-98280301D01*
G37*
G36*
X176427626Y-97780301D02*
G01*
X176433693Y-97781201D01*
X176439643Y-97782691D01*
X176445418Y-97784758D01*
X176450962Y-97787380D01*
X176456223Y-97790533D01*
X176461150Y-97794187D01*
X176465694Y-97798306D01*
X176469813Y-97802850D01*
X176473467Y-97807777D01*
X176476620Y-97813038D01*
X176479242Y-97818582D01*
X176481309Y-97824357D01*
X176482799Y-97830307D01*
X176483699Y-97836374D01*
X176484000Y-97842500D01*
X176484000Y-97967500D01*
X176483699Y-97973626D01*
X176482799Y-97979693D01*
X176481309Y-97985643D01*
X176479242Y-97991418D01*
X176476620Y-97996962D01*
X176473467Y-98002223D01*
X176469813Y-98007150D01*
X176465694Y-98011694D01*
X176461150Y-98015813D01*
X176456223Y-98019467D01*
X176450962Y-98022620D01*
X176445418Y-98025242D01*
X176439643Y-98027309D01*
X176433693Y-98028799D01*
X176427626Y-98029699D01*
X176421500Y-98030000D01*
X175671500Y-98030000D01*
X175665374Y-98029699D01*
X175659307Y-98028799D01*
X175653357Y-98027309D01*
X175647582Y-98025242D01*
X175642038Y-98022620D01*
X175636777Y-98019467D01*
X175631850Y-98015813D01*
X175627306Y-98011694D01*
X175623187Y-98007150D01*
X175619533Y-98002223D01*
X175616380Y-97996962D01*
X175613758Y-97991418D01*
X175611691Y-97985643D01*
X175610201Y-97979693D01*
X175609301Y-97973626D01*
X175609000Y-97967500D01*
X175609000Y-97842500D01*
X175609301Y-97836374D01*
X175610201Y-97830307D01*
X175611691Y-97824357D01*
X175613758Y-97818582D01*
X175616380Y-97813038D01*
X175619533Y-97807777D01*
X175623187Y-97802850D01*
X175627306Y-97798306D01*
X175631850Y-97794187D01*
X175636777Y-97790533D01*
X175642038Y-97787380D01*
X175647582Y-97784758D01*
X175653357Y-97782691D01*
X175659307Y-97781201D01*
X175665374Y-97780301D01*
X175671500Y-97780000D01*
X176421500Y-97780000D01*
X176427626Y-97780301D01*
G37*
G36*
X176427626Y-97280301D02*
G01*
X176433693Y-97281201D01*
X176439643Y-97282691D01*
X176445418Y-97284758D01*
X176450962Y-97287380D01*
X176456223Y-97290533D01*
X176461150Y-97294187D01*
X176465694Y-97298306D01*
X176469813Y-97302850D01*
X176473467Y-97307777D01*
X176476620Y-97313038D01*
X176479242Y-97318582D01*
X176481309Y-97324357D01*
X176482799Y-97330307D01*
X176483699Y-97336374D01*
X176484000Y-97342500D01*
X176484000Y-97467500D01*
X176483699Y-97473626D01*
X176482799Y-97479693D01*
X176481309Y-97485643D01*
X176479242Y-97491418D01*
X176476620Y-97496962D01*
X176473467Y-97502223D01*
X176469813Y-97507150D01*
X176465694Y-97511694D01*
X176461150Y-97515813D01*
X176456223Y-97519467D01*
X176450962Y-97522620D01*
X176445418Y-97525242D01*
X176439643Y-97527309D01*
X176433693Y-97528799D01*
X176427626Y-97529699D01*
X176421500Y-97530000D01*
X175671500Y-97530000D01*
X175665374Y-97529699D01*
X175659307Y-97528799D01*
X175653357Y-97527309D01*
X175647582Y-97525242D01*
X175642038Y-97522620D01*
X175636777Y-97519467D01*
X175631850Y-97515813D01*
X175627306Y-97511694D01*
X175623187Y-97507150D01*
X175619533Y-97502223D01*
X175616380Y-97496962D01*
X175613758Y-97491418D01*
X175611691Y-97485643D01*
X175610201Y-97479693D01*
X175609301Y-97473626D01*
X175609000Y-97467500D01*
X175609000Y-97342500D01*
X175609301Y-97336374D01*
X175610201Y-97330307D01*
X175611691Y-97324357D01*
X175613758Y-97318582D01*
X175616380Y-97313038D01*
X175619533Y-97307777D01*
X175623187Y-97302850D01*
X175627306Y-97298306D01*
X175631850Y-97294187D01*
X175636777Y-97290533D01*
X175642038Y-97287380D01*
X175647582Y-97284758D01*
X175653357Y-97282691D01*
X175659307Y-97281201D01*
X175665374Y-97280301D01*
X175671500Y-97280000D01*
X176421500Y-97280000D01*
X176427626Y-97280301D01*
G37*
G36*
X176427626Y-96780301D02*
G01*
X176433693Y-96781201D01*
X176439643Y-96782691D01*
X176445418Y-96784758D01*
X176450962Y-96787380D01*
X176456223Y-96790533D01*
X176461150Y-96794187D01*
X176465694Y-96798306D01*
X176469813Y-96802850D01*
X176473467Y-96807777D01*
X176476620Y-96813038D01*
X176479242Y-96818582D01*
X176481309Y-96824357D01*
X176482799Y-96830307D01*
X176483699Y-96836374D01*
X176484000Y-96842500D01*
X176484000Y-96967500D01*
X176483699Y-96973626D01*
X176482799Y-96979693D01*
X176481309Y-96985643D01*
X176479242Y-96991418D01*
X176476620Y-96996962D01*
X176473467Y-97002223D01*
X176469813Y-97007150D01*
X176465694Y-97011694D01*
X176461150Y-97015813D01*
X176456223Y-97019467D01*
X176450962Y-97022620D01*
X176445418Y-97025242D01*
X176439643Y-97027309D01*
X176433693Y-97028799D01*
X176427626Y-97029699D01*
X176421500Y-97030000D01*
X175671500Y-97030000D01*
X175665374Y-97029699D01*
X175659307Y-97028799D01*
X175653357Y-97027309D01*
X175647582Y-97025242D01*
X175642038Y-97022620D01*
X175636777Y-97019467D01*
X175631850Y-97015813D01*
X175627306Y-97011694D01*
X175623187Y-97007150D01*
X175619533Y-97002223D01*
X175616380Y-96996962D01*
X175613758Y-96991418D01*
X175611691Y-96985643D01*
X175610201Y-96979693D01*
X175609301Y-96973626D01*
X175609000Y-96967500D01*
X175609000Y-96842500D01*
X175609301Y-96836374D01*
X175610201Y-96830307D01*
X175611691Y-96824357D01*
X175613758Y-96818582D01*
X175616380Y-96813038D01*
X175619533Y-96807777D01*
X175623187Y-96802850D01*
X175627306Y-96798306D01*
X175631850Y-96794187D01*
X175636777Y-96790533D01*
X175642038Y-96787380D01*
X175647582Y-96784758D01*
X175653357Y-96782691D01*
X175659307Y-96781201D01*
X175665374Y-96780301D01*
X175671500Y-96780000D01*
X176421500Y-96780000D01*
X176427626Y-96780301D01*
G37*
G36*
X176427626Y-96280301D02*
G01*
X176433693Y-96281201D01*
X176439643Y-96282691D01*
X176445418Y-96284758D01*
X176450962Y-96287380D01*
X176456223Y-96290533D01*
X176461150Y-96294187D01*
X176465694Y-96298306D01*
X176469813Y-96302850D01*
X176473467Y-96307777D01*
X176476620Y-96313038D01*
X176479242Y-96318582D01*
X176481309Y-96324357D01*
X176482799Y-96330307D01*
X176483699Y-96336374D01*
X176484000Y-96342500D01*
X176484000Y-96467500D01*
X176483699Y-96473626D01*
X176482799Y-96479693D01*
X176481309Y-96485643D01*
X176479242Y-96491418D01*
X176476620Y-96496962D01*
X176473467Y-96502223D01*
X176469813Y-96507150D01*
X176465694Y-96511694D01*
X176461150Y-96515813D01*
X176456223Y-96519467D01*
X176450962Y-96522620D01*
X176445418Y-96525242D01*
X176439643Y-96527309D01*
X176433693Y-96528799D01*
X176427626Y-96529699D01*
X176421500Y-96530000D01*
X175671500Y-96530000D01*
X175665374Y-96529699D01*
X175659307Y-96528799D01*
X175653357Y-96527309D01*
X175647582Y-96525242D01*
X175642038Y-96522620D01*
X175636777Y-96519467D01*
X175631850Y-96515813D01*
X175627306Y-96511694D01*
X175623187Y-96507150D01*
X175619533Y-96502223D01*
X175616380Y-96496962D01*
X175613758Y-96491418D01*
X175611691Y-96485643D01*
X175610201Y-96479693D01*
X175609301Y-96473626D01*
X175609000Y-96467500D01*
X175609000Y-96342500D01*
X175609301Y-96336374D01*
X175610201Y-96330307D01*
X175611691Y-96324357D01*
X175613758Y-96318582D01*
X175616380Y-96313038D01*
X175619533Y-96307777D01*
X175623187Y-96302850D01*
X175627306Y-96298306D01*
X175631850Y-96294187D01*
X175636777Y-96290533D01*
X175642038Y-96287380D01*
X175647582Y-96284758D01*
X175653357Y-96282691D01*
X175659307Y-96281201D01*
X175665374Y-96280301D01*
X175671500Y-96280000D01*
X176421500Y-96280000D01*
X176427626Y-96280301D01*
G37*
G36*
X176427626Y-95780301D02*
G01*
X176433693Y-95781201D01*
X176439643Y-95782691D01*
X176445418Y-95784758D01*
X176450962Y-95787380D01*
X176456223Y-95790533D01*
X176461150Y-95794187D01*
X176465694Y-95798306D01*
X176469813Y-95802850D01*
X176473467Y-95807777D01*
X176476620Y-95813038D01*
X176479242Y-95818582D01*
X176481309Y-95824357D01*
X176482799Y-95830307D01*
X176483699Y-95836374D01*
X176484000Y-95842500D01*
X176484000Y-95967500D01*
X176483699Y-95973626D01*
X176482799Y-95979693D01*
X176481309Y-95985643D01*
X176479242Y-95991418D01*
X176476620Y-95996962D01*
X176473467Y-96002223D01*
X176469813Y-96007150D01*
X176465694Y-96011694D01*
X176461150Y-96015813D01*
X176456223Y-96019467D01*
X176450962Y-96022620D01*
X176445418Y-96025242D01*
X176439643Y-96027309D01*
X176433693Y-96028799D01*
X176427626Y-96029699D01*
X176421500Y-96030000D01*
X175671500Y-96030000D01*
X175665374Y-96029699D01*
X175659307Y-96028799D01*
X175653357Y-96027309D01*
X175647582Y-96025242D01*
X175642038Y-96022620D01*
X175636777Y-96019467D01*
X175631850Y-96015813D01*
X175627306Y-96011694D01*
X175623187Y-96007150D01*
X175619533Y-96002223D01*
X175616380Y-95996962D01*
X175613758Y-95991418D01*
X175611691Y-95985643D01*
X175610201Y-95979693D01*
X175609301Y-95973626D01*
X175609000Y-95967500D01*
X175609000Y-95842500D01*
X175609301Y-95836374D01*
X175610201Y-95830307D01*
X175611691Y-95824357D01*
X175613758Y-95818582D01*
X175616380Y-95813038D01*
X175619533Y-95807777D01*
X175623187Y-95802850D01*
X175627306Y-95798306D01*
X175631850Y-95794187D01*
X175636777Y-95790533D01*
X175642038Y-95787380D01*
X175647582Y-95784758D01*
X175653357Y-95782691D01*
X175659307Y-95781201D01*
X175665374Y-95780301D01*
X175671500Y-95780000D01*
X176421500Y-95780000D01*
X176427626Y-95780301D01*
G37*
G36*
X176427626Y-95280301D02*
G01*
X176433693Y-95281201D01*
X176439643Y-95282691D01*
X176445418Y-95284758D01*
X176450962Y-95287380D01*
X176456223Y-95290533D01*
X176461150Y-95294187D01*
X176465694Y-95298306D01*
X176469813Y-95302850D01*
X176473467Y-95307777D01*
X176476620Y-95313038D01*
X176479242Y-95318582D01*
X176481309Y-95324357D01*
X176482799Y-95330307D01*
X176483699Y-95336374D01*
X176484000Y-95342500D01*
X176484000Y-95467500D01*
X176483699Y-95473626D01*
X176482799Y-95479693D01*
X176481309Y-95485643D01*
X176479242Y-95491418D01*
X176476620Y-95496962D01*
X176473467Y-95502223D01*
X176469813Y-95507150D01*
X176465694Y-95511694D01*
X176461150Y-95515813D01*
X176456223Y-95519467D01*
X176450962Y-95522620D01*
X176445418Y-95525242D01*
X176439643Y-95527309D01*
X176433693Y-95528799D01*
X176427626Y-95529699D01*
X176421500Y-95530000D01*
X175671500Y-95530000D01*
X175665374Y-95529699D01*
X175659307Y-95528799D01*
X175653357Y-95527309D01*
X175647582Y-95525242D01*
X175642038Y-95522620D01*
X175636777Y-95519467D01*
X175631850Y-95515813D01*
X175627306Y-95511694D01*
X175623187Y-95507150D01*
X175619533Y-95502223D01*
X175616380Y-95496962D01*
X175613758Y-95491418D01*
X175611691Y-95485643D01*
X175610201Y-95479693D01*
X175609301Y-95473626D01*
X175609000Y-95467500D01*
X175609000Y-95342500D01*
X175609301Y-95336374D01*
X175610201Y-95330307D01*
X175611691Y-95324357D01*
X175613758Y-95318582D01*
X175616380Y-95313038D01*
X175619533Y-95307777D01*
X175623187Y-95302850D01*
X175627306Y-95298306D01*
X175631850Y-95294187D01*
X175636777Y-95290533D01*
X175642038Y-95287380D01*
X175647582Y-95284758D01*
X175653357Y-95282691D01*
X175659307Y-95281201D01*
X175665374Y-95280301D01*
X175671500Y-95280000D01*
X176421500Y-95280000D01*
X176427626Y-95280301D01*
G37*
D11*
X176077500Y-104912500D03*
X176077500Y-107812500D03*
X178252500Y-107812500D03*
X178252500Y-104912500D03*
M02*
