%FSLAX45Y45*%
G04 Gerber Fmt 4.5, Leading zero omitted, Abs format (unit mm)*
G04 Created by KiCad (PCBNEW (5.1.5)-3) date 2020-07-17 21:41:51*
%MOMM*%
%LPD*%
G04 APERTURE LIST*
%ADD10C,0.200000*%
%ADD11C,0.300000*%
G04 APERTURE END LIST*
D10*
X8394700Y-9315450D02*
X8877300Y-9798050D01*
X8877300Y-9315450D02*
X8394700Y-9798050D01*
D11*
X6132428Y-11117014D02*
X6132428Y-10817014D01*
X6203857Y-10817014D01*
X6246714Y-10831300D01*
X6275286Y-10859871D01*
X6289571Y-10888443D01*
X6303857Y-10945586D01*
X6303857Y-10988443D01*
X6289571Y-11045586D01*
X6275286Y-11074157D01*
X6246714Y-11102729D01*
X6203857Y-11117014D01*
X6132428Y-11117014D01*
X6432428Y-11117014D02*
X6432428Y-10917014D01*
X6432428Y-10974157D02*
X6446714Y-10945586D01*
X6461000Y-10931300D01*
X6489571Y-10917014D01*
X6518143Y-10917014D01*
X6618143Y-11117014D02*
X6618143Y-10917014D01*
X6618143Y-10817014D02*
X6603857Y-10831300D01*
X6618143Y-10845586D01*
X6632428Y-10831300D01*
X6618143Y-10817014D01*
X6618143Y-10845586D01*
X6803857Y-11117014D02*
X6775286Y-11102729D01*
X6761000Y-11074157D01*
X6761000Y-10817014D01*
X6961000Y-11117014D02*
X6932428Y-11102729D01*
X6918143Y-11074157D01*
X6918143Y-10817014D01*
X7303857Y-11117014D02*
X7303857Y-10817014D01*
X7403857Y-11031300D01*
X7503857Y-10817014D01*
X7503857Y-11117014D01*
X7775286Y-11117014D02*
X7775286Y-10959871D01*
X7761000Y-10931300D01*
X7732428Y-10917014D01*
X7675286Y-10917014D01*
X7646714Y-10931300D01*
X7775286Y-11102729D02*
X7746714Y-11117014D01*
X7675286Y-11117014D01*
X7646714Y-11102729D01*
X7632428Y-11074157D01*
X7632428Y-11045586D01*
X7646714Y-11017014D01*
X7675286Y-11002729D01*
X7746714Y-11002729D01*
X7775286Y-10988443D01*
X7918143Y-10917014D02*
X7918143Y-11217014D01*
X7918143Y-10931300D02*
X7946714Y-10917014D01*
X8003857Y-10917014D01*
X8032428Y-10931300D01*
X8046714Y-10945586D01*
X8061000Y-10974157D01*
X8061000Y-11059871D01*
X8046714Y-11088443D01*
X8032428Y-11102729D01*
X8003857Y-11117014D01*
X7946714Y-11117014D01*
X7918143Y-11102729D01*
X8189571Y-11088443D02*
X8203857Y-11102729D01*
X8189571Y-11117014D01*
X8175286Y-11102729D01*
X8189571Y-11088443D01*
X8189571Y-11117014D01*
X8189571Y-10931300D02*
X8203857Y-10945586D01*
X8189571Y-10959871D01*
X8175286Y-10945586D01*
X8189571Y-10931300D01*
X8189571Y-10959871D01*
X5363400Y-11370000D02*
X5846000Y-11852600D01*
X5846000Y-11370000D02*
X5363400Y-11852600D01*
X6261000Y-11547014D02*
X6261000Y-11747014D01*
X6189571Y-11432728D02*
X6118143Y-11647014D01*
X6303857Y-11647014D01*
X6418143Y-11718443D02*
X6432428Y-11732728D01*
X6418143Y-11747014D01*
X6403857Y-11732728D01*
X6418143Y-11718443D01*
X6418143Y-11747014D01*
X6603857Y-11575586D02*
X6575286Y-11561300D01*
X6561000Y-11547014D01*
X6546714Y-11518443D01*
X6546714Y-11504157D01*
X6561000Y-11475586D01*
X6575286Y-11461300D01*
X6603857Y-11447014D01*
X6661000Y-11447014D01*
X6689571Y-11461300D01*
X6703857Y-11475586D01*
X6718143Y-11504157D01*
X6718143Y-11518443D01*
X6703857Y-11547014D01*
X6689571Y-11561300D01*
X6661000Y-11575586D01*
X6603857Y-11575586D01*
X6575286Y-11589871D01*
X6561000Y-11604157D01*
X6546714Y-11632728D01*
X6546714Y-11689871D01*
X6561000Y-11718443D01*
X6575286Y-11732728D01*
X6603857Y-11747014D01*
X6661000Y-11747014D01*
X6689571Y-11732728D01*
X6703857Y-11718443D01*
X6718143Y-11689871D01*
X6718143Y-11632728D01*
X6703857Y-11604157D01*
X6689571Y-11589871D01*
X6661000Y-11575586D01*
X6818143Y-11447014D02*
X7003857Y-11447014D01*
X6903857Y-11561300D01*
X6946714Y-11561300D01*
X6975286Y-11575586D01*
X6989571Y-11589871D01*
X7003857Y-11618443D01*
X7003857Y-11689871D01*
X6989571Y-11718443D01*
X6975286Y-11732728D01*
X6946714Y-11747014D01*
X6861000Y-11747014D01*
X6832428Y-11732728D01*
X6818143Y-11718443D01*
X7132428Y-11747014D02*
X7132428Y-11547014D01*
X7132428Y-11575586D02*
X7146714Y-11561300D01*
X7175286Y-11547014D01*
X7218143Y-11547014D01*
X7246714Y-11561300D01*
X7261000Y-11589871D01*
X7261000Y-11747014D01*
X7261000Y-11589871D02*
X7275286Y-11561300D01*
X7303857Y-11547014D01*
X7346714Y-11547014D01*
X7375286Y-11561300D01*
X7389571Y-11589871D01*
X7389571Y-11747014D01*
X7532428Y-11747014D02*
X7532428Y-11547014D01*
X7532428Y-11575586D02*
X7546714Y-11561300D01*
X7575286Y-11547014D01*
X7618143Y-11547014D01*
X7646714Y-11561300D01*
X7661000Y-11589871D01*
X7661000Y-11747014D01*
X7661000Y-11589871D02*
X7675286Y-11561300D01*
X7703857Y-11547014D01*
X7746714Y-11547014D01*
X7775286Y-11561300D01*
X7789571Y-11589871D01*
X7789571Y-11747014D01*
X8375286Y-11432728D02*
X8118143Y-11818443D01*
X8761000Y-11447014D02*
X8789571Y-11447014D01*
X8818143Y-11461300D01*
X8832429Y-11475586D01*
X8846714Y-11504157D01*
X8861000Y-11561300D01*
X8861000Y-11632728D01*
X8846714Y-11689871D01*
X8832429Y-11718443D01*
X8818143Y-11732728D01*
X8789571Y-11747014D01*
X8761000Y-11747014D01*
X8732429Y-11732728D01*
X8718143Y-11718443D01*
X8703857Y-11689871D01*
X8689571Y-11632728D01*
X8689571Y-11561300D01*
X8703857Y-11504157D01*
X8718143Y-11475586D01*
X8732429Y-11461300D01*
X8761000Y-11447014D01*
X8989571Y-11718443D02*
X9003857Y-11732728D01*
X8989571Y-11747014D01*
X8975286Y-11732728D01*
X8989571Y-11718443D01*
X8989571Y-11747014D01*
X9289571Y-11747014D02*
X9118143Y-11747014D01*
X9203857Y-11747014D02*
X9203857Y-11447014D01*
X9175286Y-11489871D01*
X9146714Y-11518443D01*
X9118143Y-11532728D01*
X9432429Y-11747014D02*
X9489571Y-11747014D01*
X9518143Y-11732728D01*
X9532429Y-11718443D01*
X9561000Y-11675586D01*
X9575286Y-11618443D01*
X9575286Y-11504157D01*
X9561000Y-11475586D01*
X9546714Y-11461300D01*
X9518143Y-11447014D01*
X9461000Y-11447014D01*
X9432429Y-11461300D01*
X9418143Y-11475586D01*
X9403857Y-11504157D01*
X9403857Y-11575586D01*
X9418143Y-11604157D01*
X9432429Y-11618443D01*
X9461000Y-11632728D01*
X9518143Y-11632728D01*
X9546714Y-11618443D01*
X9561000Y-11604157D01*
X9575286Y-11575586D01*
X9761000Y-11447014D02*
X9789571Y-11447014D01*
X9818143Y-11461300D01*
X9832429Y-11475586D01*
X9846714Y-11504157D01*
X9861000Y-11561300D01*
X9861000Y-11632728D01*
X9846714Y-11689871D01*
X9832429Y-11718443D01*
X9818143Y-11732728D01*
X9789571Y-11747014D01*
X9761000Y-11747014D01*
X9732429Y-11732728D01*
X9718143Y-11718443D01*
X9703857Y-11689871D01*
X9689571Y-11632728D01*
X9689571Y-11561300D01*
X9703857Y-11504157D01*
X9718143Y-11475586D01*
X9732429Y-11461300D01*
X9761000Y-11447014D01*
X9975286Y-11447014D02*
X9975286Y-11504157D01*
X10089571Y-11447014D02*
X10089571Y-11504157D01*
X10532429Y-11861300D02*
X10518143Y-11847014D01*
X10489571Y-11804157D01*
X10475286Y-11775586D01*
X10461000Y-11732728D01*
X10446714Y-11661300D01*
X10446714Y-11604157D01*
X10461000Y-11532728D01*
X10475286Y-11489871D01*
X10489571Y-11461300D01*
X10518143Y-11418443D01*
X10532429Y-11404157D01*
X10803857Y-11747014D02*
X10632429Y-11747014D01*
X10718143Y-11747014D02*
X10718143Y-11447014D01*
X10689571Y-11489871D01*
X10661000Y-11518443D01*
X10632429Y-11532728D01*
X11161000Y-11747014D02*
X11161000Y-11447014D01*
X11289571Y-11747014D02*
X11289571Y-11589871D01*
X11275286Y-11561300D01*
X11246714Y-11547014D01*
X11203857Y-11547014D01*
X11175286Y-11561300D01*
X11161000Y-11575586D01*
X11475286Y-11747014D02*
X11446714Y-11732728D01*
X11432428Y-11718443D01*
X11418143Y-11689871D01*
X11418143Y-11604157D01*
X11432428Y-11575586D01*
X11446714Y-11561300D01*
X11475286Y-11547014D01*
X11518143Y-11547014D01*
X11546714Y-11561300D01*
X11561000Y-11575586D01*
X11575286Y-11604157D01*
X11575286Y-11689871D01*
X11561000Y-11718443D01*
X11546714Y-11732728D01*
X11518143Y-11747014D01*
X11475286Y-11747014D01*
X11746714Y-11747014D02*
X11718143Y-11732728D01*
X11703857Y-11704157D01*
X11703857Y-11447014D01*
X11975286Y-11732728D02*
X11946714Y-11747014D01*
X11889571Y-11747014D01*
X11861000Y-11732728D01*
X11846714Y-11704157D01*
X11846714Y-11589871D01*
X11861000Y-11561300D01*
X11889571Y-11547014D01*
X11946714Y-11547014D01*
X11975286Y-11561300D01*
X11989571Y-11589871D01*
X11989571Y-11618443D01*
X11846714Y-11647014D01*
X12089571Y-11861300D02*
X12103857Y-11847014D01*
X12132428Y-11804157D01*
X12146714Y-11775586D01*
X12161000Y-11732728D01*
X12175286Y-11661300D01*
X12175286Y-11604157D01*
X12161000Y-11532728D01*
X12146714Y-11489871D01*
X12132428Y-11461300D01*
X12103857Y-11418443D01*
X12089571Y-11404157D01*
X12632428Y-11861300D02*
X12618143Y-11847014D01*
X12589571Y-11804157D01*
X12575286Y-11775586D01*
X12561000Y-11732728D01*
X12546714Y-11661300D01*
X12546714Y-11604157D01*
X12561000Y-11532728D01*
X12575286Y-11489871D01*
X12589571Y-11461300D01*
X12618143Y-11418443D01*
X12632428Y-11404157D01*
X12746714Y-11547014D02*
X12746714Y-11747014D01*
X12746714Y-11575586D02*
X12761000Y-11561300D01*
X12789571Y-11547014D01*
X12832428Y-11547014D01*
X12861000Y-11561300D01*
X12875286Y-11589871D01*
X12875286Y-11747014D01*
X13061000Y-11747014D02*
X13032428Y-11732728D01*
X13018143Y-11718443D01*
X13003857Y-11689871D01*
X13003857Y-11604157D01*
X13018143Y-11575586D01*
X13032428Y-11561300D01*
X13061000Y-11547014D01*
X13103857Y-11547014D01*
X13132428Y-11561300D01*
X13146714Y-11575586D01*
X13161000Y-11604157D01*
X13161000Y-11689871D01*
X13146714Y-11718443D01*
X13132428Y-11732728D01*
X13103857Y-11747014D01*
X13061000Y-11747014D01*
X13246714Y-11547014D02*
X13361000Y-11547014D01*
X13289571Y-11447014D02*
X13289571Y-11704157D01*
X13303857Y-11732728D01*
X13332428Y-11747014D01*
X13361000Y-11747014D01*
X13689571Y-11547014D02*
X13689571Y-11847014D01*
X13689571Y-11561300D02*
X13718143Y-11547014D01*
X13775286Y-11547014D01*
X13803857Y-11561300D01*
X13818143Y-11575586D01*
X13832428Y-11604157D01*
X13832428Y-11689871D01*
X13818143Y-11718443D01*
X13803857Y-11732728D01*
X13775286Y-11747014D01*
X13718143Y-11747014D01*
X13689571Y-11732728D01*
X14003857Y-11747014D02*
X13975286Y-11732728D01*
X13961000Y-11704157D01*
X13961000Y-11447014D01*
X14246714Y-11747014D02*
X14246714Y-11589871D01*
X14232428Y-11561300D01*
X14203857Y-11547014D01*
X14146714Y-11547014D01*
X14118143Y-11561300D01*
X14246714Y-11732728D02*
X14218143Y-11747014D01*
X14146714Y-11747014D01*
X14118143Y-11732728D01*
X14103857Y-11704157D01*
X14103857Y-11675586D01*
X14118143Y-11647014D01*
X14146714Y-11632728D01*
X14218143Y-11632728D01*
X14246714Y-11618443D01*
X14346714Y-11547014D02*
X14461000Y-11547014D01*
X14389571Y-11447014D02*
X14389571Y-11704157D01*
X14403857Y-11732728D01*
X14432428Y-11747014D01*
X14461000Y-11747014D01*
X14675286Y-11732728D02*
X14646714Y-11747014D01*
X14589571Y-11747014D01*
X14561000Y-11732728D01*
X14546714Y-11704157D01*
X14546714Y-11589871D01*
X14561000Y-11561300D01*
X14589571Y-11547014D01*
X14646714Y-11547014D01*
X14675286Y-11561300D01*
X14689571Y-11589871D01*
X14689571Y-11618443D01*
X14546714Y-11647014D01*
X14946714Y-11747014D02*
X14946714Y-11447014D01*
X14946714Y-11732728D02*
X14918143Y-11747014D01*
X14861000Y-11747014D01*
X14832428Y-11732728D01*
X14818143Y-11718443D01*
X14803857Y-11689871D01*
X14803857Y-11604157D01*
X14818143Y-11575586D01*
X14832428Y-11561300D01*
X14861000Y-11547014D01*
X14918143Y-11547014D01*
X14946714Y-11561300D01*
X15061000Y-11861300D02*
X15075286Y-11847014D01*
X15103857Y-11804157D01*
X15118143Y-11775586D01*
X15132428Y-11732728D01*
X15146714Y-11661300D01*
X15146714Y-11604157D01*
X15132428Y-11532728D01*
X15118143Y-11489871D01*
X15103857Y-11461300D01*
X15075286Y-11418443D01*
X15061000Y-11404157D01*
M02*
