%FSLAX45Y45*%
G04 Gerber Fmt 4.5, Leading zero omitted, Abs format (unit mm)*
G04 Created by KiCad (PCBNEW (5.1.5)-3) date 2020-07-30 01:46:20*
%MOMM*%
%LPD*%
G04 APERTURE LIST*
%ADD10C,0.200000*%
%ADD11C,0.300000*%
G04 APERTURE END LIST*
D10*
X6315400Y-11960550D02*
X6335400Y-11980550D01*
X6335400Y-11960550D02*
X6315400Y-11980550D01*
X6315400Y-12060550D02*
X6335400Y-12080550D01*
X6335400Y-12060550D02*
X6315400Y-12080550D01*
X6415400Y-11960550D02*
X6435400Y-11980550D01*
X6435400Y-11960550D02*
X6415400Y-11980550D01*
X6415400Y-12060550D02*
X6435400Y-12080550D01*
X6435400Y-12060550D02*
X6415400Y-12080550D01*
X5831600Y-13165836D02*
G75*
G03X5831600Y-13165836I-15000J0D01*
G01*
X5985450Y-11022150D02*
G75*
G03X5985450Y-11022150I-15000J0D01*
G01*
X5997208Y-13279882D02*
G75*
G03X5997208Y-13279882I-15000J0D01*
G01*
X6186300Y-10535550D02*
G75*
G03X6186300Y-10535550I-15000J0D01*
G01*
X6441200Y-10807700D02*
G75*
G03X6441200Y-10807700I-15000J0D01*
G01*
X6492000Y-13150850D02*
G75*
G03X6492000Y-13150850I-15000J0D01*
G01*
X6643130Y-13131800D02*
G75*
G03X6643130Y-13131800I-15000J0D01*
G01*
X7254000Y-13150850D02*
G75*
G03X7254000Y-13150850I-15000J0D01*
G01*
X7444500Y-11804650D02*
G75*
G03X7444500Y-11804650I-15000J0D01*
G01*
X7463550Y-11430000D02*
G75*
G03X7463550Y-11430000I-15000J0D01*
G01*
X7590550Y-11430000D02*
G75*
G03X7590550Y-11430000I-15000J0D01*
G01*
X7641350Y-11696700D02*
G75*
G03X7641350Y-11696700I-15000J0D01*
G01*
X7698500Y-11493500D02*
G75*
G03X7698500Y-11493500I-15000J0D01*
G01*
X7698500Y-11676520D02*
G75*
G03X7698500Y-11676520I-15000J0D01*
G01*
X7819150Y-11493500D02*
G75*
G03X7819150Y-11493500I-15000J0D01*
G01*
X7838200Y-12052300D02*
G75*
G03X7838200Y-12052300I-15000J0D01*
G01*
X7882650Y-12160250D02*
G75*
G03X7882650Y-12160250I-15000J0D01*
G01*
X7895350Y-11995150D02*
G75*
G03X7895350Y-11995150I-15000J0D01*
G01*
X7939800Y-11493500D02*
G75*
G03X7939800Y-11493500I-15000J0D01*
G01*
X7965200Y-11963400D02*
G75*
G03X7965200Y-11963400I-15000J0D01*
G01*
X8003300Y-11398250D02*
G75*
G03X8003300Y-11398250I-15000J0D01*
G01*
X8117600Y-11252200D02*
G75*
G03X8117600Y-11252200I-15000J0D01*
G01*
X8165860Y-9972040D02*
G75*
G03X8165860Y-9972040I-15000J0D01*
G01*
X8173480Y-12073890D02*
G75*
G03X8173480Y-12073890I-15000J0D01*
G01*
X8206500Y-12312650D02*
G75*
G03X8206500Y-12312650I-15000J0D01*
G01*
X8242869Y-10877550D02*
G75*
G03X8242869Y-10877550I-15000J0D01*
G01*
X8327150Y-10941050D02*
G75*
G03X8327150Y-10941050I-15000J0D01*
G01*
X8384300Y-10985500D02*
G75*
G03X8384300Y-10985500I-15000J0D01*
G01*
X8432695Y-11036300D02*
G75*
G03X8432695Y-11036300I-15000J0D01*
G01*
X8447800Y-11252200D02*
G75*
G03X8447800Y-11252200I-15000J0D01*
G01*
X8466850Y-11741150D02*
G75*
G03X8466850Y-11741150I-15000J0D01*
G01*
X8466850Y-12179300D02*
G75*
G03X8466850Y-12179300I-15000J0D01*
G01*
X8479550Y-11068050D02*
G75*
G03X8479550Y-11068050I-15000J0D01*
G01*
X8498600Y-9025890D02*
G75*
G03X8498600Y-9025890I-15000J0D01*
G01*
X8503680Y-8685530D02*
G75*
G03X8503680Y-8685530I-15000J0D01*
G01*
X8515872Y-11893804D02*
G75*
G03X8515872Y-11893804I-15000J0D01*
G01*
X8519100Y-12198350D02*
G75*
G03X8519100Y-12198350I-15000J0D01*
G01*
X8546225Y-11191875D02*
G75*
G03X8546225Y-11191875I-15000J0D01*
G01*
X8574800Y-12179300D02*
G75*
G03X8574800Y-12179300I-15000J0D01*
G01*
X8587500Y-10528300D02*
G75*
G03X8587500Y-10528300I-15000J0D01*
G01*
X8631950Y-11188700D02*
G75*
G03X8631950Y-11188700I-15000J0D01*
G01*
X8631950Y-12179300D02*
G75*
G03X8631950Y-12179300I-15000J0D01*
G01*
X8670050Y-12757150D02*
G75*
G03X8670050Y-12757150I-15000J0D01*
G01*
X8689100Y-12179300D02*
G75*
G03X8689100Y-12179300I-15000J0D01*
G01*
X8720000Y-11043500D02*
G75*
G03X8720000Y-11043500I-15000J0D01*
G01*
X8724914Y-10846054D02*
G75*
G03X8724914Y-10846054I-15000J0D01*
G01*
X8739900Y-12757150D02*
G75*
G03X8739900Y-12757150I-15000J0D01*
G01*
X8771650Y-11734800D02*
G75*
G03X8771650Y-11734800I-15000J0D01*
G01*
X8792986Y-11242434D02*
G75*
G03X8792986Y-11242434I-15000J0D01*
G01*
X8809750Y-12757150D02*
G75*
G03X8809750Y-12757150I-15000J0D01*
G01*
X8847850Y-11264900D02*
G75*
G03X8847850Y-11264900I-15000J0D01*
G01*
X8850302Y-10505352D02*
G75*
G03X8850302Y-10505352I-15000J0D01*
G01*
X8850302Y-10703648D02*
G75*
G03X8850302Y-10703648I-15000J0D01*
G01*
X8860550Y-12725400D02*
G75*
G03X8860550Y-12725400I-15000J0D01*
G01*
X8864360Y-11941810D02*
G75*
G03X8864360Y-11941810I-15000J0D01*
G01*
X8905000Y-10458450D02*
G75*
G03X8905000Y-10458450I-15000J0D01*
G01*
X8905000Y-10725150D02*
G75*
G03X8905000Y-10725150I-15000J0D01*
G01*
X8905000Y-11239500D02*
G75*
G03X8905000Y-11239500I-15000J0D01*
G01*
X8917700Y-11976100D02*
G75*
G03X8917700Y-11976100I-15000J0D01*
G01*
X8968500Y-12014200D02*
G75*
G03X8968500Y-12014200I-15000J0D01*
G01*
X8993900Y-12369800D02*
G75*
G03X8993900Y-12369800I-15000J0D01*
G01*
X9012950Y-11264900D02*
G75*
G03X9012950Y-11264900I-15000J0D01*
G01*
X9032000Y-12433300D02*
G75*
G03X9032000Y-12433300I-15000J0D01*
G01*
X9045970Y-12238990D02*
G75*
G03X9045970Y-12238990I-15000J0D01*
G01*
X9057400Y-11772900D02*
G75*
G03X9057400Y-11772900I-15000J0D01*
G01*
X9057400Y-12033250D02*
G75*
G03X9057400Y-12033250I-15000J0D01*
G01*
X9070100Y-11239500D02*
G75*
G03X9070100Y-11239500I-15000J0D01*
G01*
X9114550Y-11842750D02*
G75*
G03X9114550Y-11842750I-15000J0D01*
G01*
X9114550Y-12071350D02*
G75*
G03X9114550Y-12071350I-15000J0D01*
G01*
X9127250Y-11264900D02*
G75*
G03X9127250Y-11264900I-15000J0D01*
G01*
X9190750Y-11239500D02*
G75*
G03X9190750Y-11239500I-15000J0D01*
G01*
X9190750Y-11893550D02*
G75*
G03X9190750Y-11893550I-15000J0D01*
G01*
X9241550Y-11957050D02*
G75*
G03X9241550Y-11957050I-15000J0D01*
G01*
X9247900Y-11283950D02*
G75*
G03X9247900Y-11283950I-15000J0D01*
G01*
X9286000Y-12001500D02*
G75*
G03X9286000Y-12001500I-15000J0D01*
G01*
X9292350Y-10610850D02*
G75*
G03X9292350Y-10610850I-15000J0D01*
G01*
X9355850Y-12071350D02*
G75*
G03X9355850Y-12071350I-15000J0D01*
G01*
X9362200Y-10668000D02*
G75*
G03X9362200Y-10668000I-15000J0D01*
G01*
X9393840Y-11682840D02*
G75*
G03X9393840Y-11682840I-15000J0D01*
G01*
X9413000Y-13025120D02*
G75*
G03X9413000Y-13025120I-15000J0D01*
G01*
X9495550Y-10902950D02*
G75*
G03X9495550Y-10902950I-15000J0D01*
G01*
X9590800Y-12712700D02*
G75*
G03X9590800Y-12712700I-15000J0D01*
G01*
X9598000Y-12261000D02*
G75*
G03X9598000Y-12261000I-15000J0D01*
G01*
X9609850Y-12420600D02*
G75*
G03X9609850Y-12420600I-15000J0D01*
G01*
X9628900Y-10922000D02*
G75*
G03X9628900Y-10922000I-15000J0D01*
G01*
X9688480Y-11977480D02*
G75*
G03X9688480Y-11977480I-15000J0D01*
G01*
X9692400Y-11518900D02*
G75*
G03X9692400Y-11518900I-15000J0D01*
G01*
X9711450Y-11576050D02*
G75*
G03X9711450Y-11576050I-15000J0D01*
G01*
X9727249Y-11465001D02*
G75*
G03X9727249Y-11465001I-15000J0D01*
G01*
X9730500Y-11341100D02*
G75*
G03X9730500Y-11341100I-15000J0D01*
G01*
X9749550Y-10922000D02*
G75*
G03X9749550Y-10922000I-15000J0D01*
G01*
X9774950Y-12515850D02*
G75*
G03X9774950Y-12515850I-15000J0D01*
G01*
X9799080Y-12867640D02*
G75*
G03X9799080Y-12867640I-15000J0D01*
G01*
X9844800Y-11118850D02*
G75*
G03X9844800Y-11118850I-15000J0D01*
G01*
X9889250Y-12687300D02*
G75*
G03X9889250Y-12687300I-15000J0D01*
G01*
X9952440Y-10712760D02*
G75*
G03X9952440Y-10712760I-15000J0D01*
G01*
X9965450Y-12687300D02*
G75*
G03X9965450Y-12687300I-15000J0D01*
G01*
X9990850Y-11785600D02*
G75*
G03X9990850Y-11785600I-15000J0D01*
G01*
X10021958Y-11835757D02*
G75*
G03X10021958Y-11835757I-15000J0D01*
G01*
X10048000Y-12687300D02*
G75*
G03X10048000Y-12687300I-15000J0D01*
G01*
X10060700Y-11944350D02*
G75*
G03X10060700Y-11944350I-15000J0D01*
G01*
X10086100Y-8242300D02*
G75*
G03X10086100Y-8242300I-15000J0D01*
G01*
X10098800Y-12001500D02*
G75*
G03X10098800Y-12001500I-15000J0D01*
G01*
X10111500Y-12065000D02*
G75*
G03X10111500Y-12065000I-15000J0D01*
G01*
X10111500Y-12128500D02*
G75*
G03X10111500Y-12128500I-15000J0D01*
G01*
X10111500Y-12192000D02*
G75*
G03X10111500Y-12192000I-15000J0D01*
G01*
X10168650Y-11049000D02*
G75*
G03X10168650Y-11049000I-15000J0D01*
G01*
X10177540Y-12440920D02*
G75*
G03X10177540Y-12440920I-15000J0D01*
G01*
X10397250Y-10636250D02*
G75*
G03X10397250Y-10636250I-15000J0D01*
G01*
X10429000Y-10579100D02*
G75*
G03X10429000Y-10579100I-15000J0D01*
G01*
X10454400Y-9652000D02*
G75*
G03X10454400Y-9652000I-15000J0D01*
G01*
X10467100Y-11329670D02*
G75*
G03X10467100Y-11329670I-15000J0D01*
G01*
X10511550Y-11207750D02*
G75*
G03X10511550Y-11207750I-15000J0D01*
G01*
X10860800Y-10591800D02*
G75*
G03X10860800Y-10591800I-15000J0D01*
G01*
X10860800Y-11576050D02*
G75*
G03X10860800Y-11576050I-15000J0D01*
G01*
X10898900Y-9734550D02*
G75*
G03X10898900Y-9734550I-15000J0D01*
G01*
X10917950Y-10477500D02*
G75*
G03X10917950Y-10477500I-15000J0D01*
G01*
X10917950Y-11499850D02*
G75*
G03X10917950Y-11499850I-15000J0D01*
G01*
X10972850Y-10257500D02*
G75*
G03X10972850Y-10257500I-15000J0D01*
G01*
X10972850Y-11781500D02*
G75*
G03X10972850Y-11781500I-15000J0D01*
G01*
X11013200Y-9817100D02*
G75*
G03X11013200Y-9817100I-15000J0D01*
G01*
X11025900Y-10039350D02*
G75*
G03X11025900Y-10039350I-15000J0D01*
G01*
X11025900Y-11836400D02*
G75*
G03X11025900Y-11836400I-15000J0D01*
G01*
X11079549Y-11046151D02*
G75*
G03X11079549Y-11046151I-15000J0D01*
G01*
X5836671Y-11180379D02*
X5836671Y-11220379D01*
X5816671Y-11200379D02*
X5856671Y-11200379D01*
X5836671Y-11524300D02*
X5836671Y-11564300D01*
X5816671Y-11544300D02*
X5856671Y-11544300D01*
X5836671Y-11688379D02*
X5836671Y-11728379D01*
X5816671Y-11708379D02*
X5856671Y-11708379D01*
X5836671Y-11936029D02*
X5836671Y-11976029D01*
X5816671Y-11956029D02*
X5856671Y-11956029D01*
X5836671Y-12393229D02*
X5836671Y-12433229D01*
X5816671Y-12413229D02*
X5856671Y-12413229D01*
X5836671Y-12666279D02*
X5836671Y-12706279D01*
X5816671Y-12686279D02*
X5856671Y-12686279D01*
X5949950Y-11492550D02*
X5949950Y-11532550D01*
X5929950Y-11512550D02*
X5969950Y-11512550D01*
X5962650Y-11302050D02*
X5962650Y-11342050D01*
X5942650Y-11322050D02*
X5982650Y-11322050D01*
X6045200Y-12159300D02*
X6045200Y-12199300D01*
X6025200Y-12179300D02*
X6065200Y-12179300D01*
X6045200Y-12387900D02*
X6045200Y-12427900D01*
X6025200Y-12407900D02*
X6065200Y-12407900D01*
X6064250Y-12616500D02*
X6064250Y-12656500D01*
X6044250Y-12636500D02*
X6084250Y-12636500D01*
X6223000Y-9898700D02*
X6223000Y-9938700D01*
X6203000Y-9918700D02*
X6243000Y-9918700D01*
X6273800Y-12356150D02*
X6273800Y-12396150D01*
X6253800Y-12376150D02*
X6293800Y-12376150D01*
X6318250Y-11263950D02*
X6318250Y-11303950D01*
X6298250Y-11283950D02*
X6338250Y-11283950D01*
X6350000Y-11429050D02*
X6350000Y-11469050D01*
X6330000Y-11449050D02*
X6370000Y-11449050D01*
X6375400Y-11111550D02*
X6375400Y-11151550D01*
X6355400Y-11131550D02*
X6395400Y-11131550D01*
X6437300Y-12218050D02*
X6437300Y-12258050D01*
X6417300Y-12238050D02*
X6457300Y-12238050D01*
X6477000Y-12616500D02*
X6477000Y-12656500D01*
X6457000Y-12636500D02*
X6497000Y-12636500D01*
X6492875Y-11730675D02*
X6492875Y-11770675D01*
X6472875Y-11750675D02*
X6512875Y-11750675D01*
X6654800Y-12324400D02*
X6654800Y-12364400D01*
X6634800Y-12344400D02*
X6674800Y-12344400D01*
X6661150Y-12616500D02*
X6661150Y-12656500D01*
X6641150Y-12636500D02*
X6681150Y-12636500D01*
X6794500Y-11156000D02*
X6794500Y-11196000D01*
X6774500Y-11176000D02*
X6814500Y-11176000D01*
X6794500Y-11283000D02*
X6794500Y-11323000D01*
X6774500Y-11303000D02*
X6814500Y-11303000D01*
X6794500Y-11410000D02*
X6794500Y-11450000D01*
X6774500Y-11430000D02*
X6814500Y-11430000D01*
X6794500Y-11949750D02*
X6794500Y-11989750D01*
X6774500Y-11969750D02*
X6814500Y-11969750D01*
X6851400Y-12449900D02*
X6851400Y-12489900D01*
X6831400Y-12469900D02*
X6871400Y-12469900D01*
X6859250Y-11878650D02*
X6859250Y-11918650D01*
X6839250Y-11898650D02*
X6879250Y-11898650D01*
X6924000Y-12144100D02*
X6924000Y-12184100D01*
X6904000Y-12164100D02*
X6944000Y-12164100D01*
X7071000Y-12238400D02*
X7071000Y-12278400D01*
X7051000Y-12258400D02*
X7091000Y-12258400D01*
X7151000Y-7777800D02*
X7151000Y-7817800D01*
X7131000Y-7797800D02*
X7171000Y-7797800D01*
X7237900Y-11817500D02*
X7237900Y-11857500D01*
X7217900Y-11837500D02*
X7257900Y-11837500D01*
X7277100Y-11181400D02*
X7277100Y-11221400D01*
X7257100Y-11201400D02*
X7297100Y-11201400D01*
X7397750Y-12947351D02*
X7397750Y-12987351D01*
X7377750Y-12967351D02*
X7417750Y-12967351D01*
X7415900Y-12465000D02*
X7415900Y-12505000D01*
X7395900Y-12485000D02*
X7435900Y-12485000D01*
X7498450Y-12465000D02*
X7498450Y-12505000D01*
X7478450Y-12485000D02*
X7518450Y-12485000D01*
X7537450Y-11816400D02*
X7537450Y-11856400D01*
X7517450Y-11836400D02*
X7557450Y-11836400D01*
X7661000Y-12238950D02*
X7661000Y-12278950D01*
X7641000Y-12258950D02*
X7681000Y-12258950D01*
X7771500Y-7777800D02*
X7771500Y-7817800D01*
X7751500Y-7797800D02*
X7791500Y-7797800D01*
X8001000Y-7523800D02*
X8001000Y-7563800D01*
X7981000Y-7543800D02*
X8021000Y-7543800D01*
X8102600Y-12286300D02*
X8102600Y-12326300D01*
X8082600Y-12306300D02*
X8122600Y-12306300D01*
X8110874Y-12466024D02*
X8110874Y-12506024D01*
X8090874Y-12486024D02*
X8130874Y-12486024D01*
X8485050Y-11326000D02*
X8485050Y-11366000D01*
X8465050Y-11346000D02*
X8505050Y-11346000D01*
X8636000Y-10273350D02*
X8636000Y-10313350D01*
X8616000Y-10293350D02*
X8656000Y-10293350D01*
X8699500Y-10197150D02*
X8699500Y-10237150D01*
X8679500Y-10217150D02*
X8719500Y-10217150D01*
X8724900Y-11325651D02*
X8724900Y-11365651D01*
X8704900Y-11345651D02*
X8744900Y-11345651D01*
X8897799Y-8608201D02*
X8897799Y-8648201D01*
X8877799Y-8628201D02*
X8917799Y-8628201D01*
X8897799Y-8989201D02*
X8897799Y-9029201D01*
X8877799Y-9009201D02*
X8917799Y-9009201D01*
X8916670Y-10331770D02*
X8916670Y-10371770D01*
X8896670Y-10351770D02*
X8936670Y-10351770D01*
X8968740Y-10731820D02*
X8968740Y-10771820D01*
X8948740Y-10751820D02*
X8988740Y-10751820D01*
X8985250Y-7911150D02*
X8985250Y-7951150D01*
X8965250Y-7931150D02*
X9005250Y-7931150D01*
X9036050Y-10113330D02*
X9036050Y-10153330D01*
X9016050Y-10133330D02*
X9056050Y-10133330D01*
X9048750Y-10324150D02*
X9048750Y-10364150D01*
X9028750Y-10344150D02*
X9068750Y-10344150D01*
X9114790Y-8819200D02*
X9114790Y-8859200D01*
X9094790Y-8839200D02*
X9134790Y-8839200D01*
X9271000Y-8819200D02*
X9271000Y-8859200D01*
X9251000Y-8839200D02*
X9291000Y-8839200D01*
X9353550Y-10257799D02*
X9353550Y-10297799D01*
X9333550Y-10277799D02*
X9373550Y-10277799D01*
X9385300Y-11181400D02*
X9385300Y-11221400D01*
X9365300Y-11201400D02*
X9405300Y-11201400D01*
X9436100Y-7777800D02*
X9436100Y-7817800D01*
X9416100Y-7797800D02*
X9456100Y-7797800D01*
X9513266Y-12037684D02*
X9513266Y-12077684D01*
X9493266Y-12057684D02*
X9533266Y-12057684D01*
X9514350Y-9915700D02*
X9514350Y-9955700D01*
X9494350Y-9935700D02*
X9534350Y-9935700D01*
X9518650Y-10140000D02*
X9518650Y-10180000D01*
X9498650Y-10160000D02*
X9538650Y-10160000D01*
X9518650Y-11314750D02*
X9518650Y-11354750D01*
X9498650Y-11334750D02*
X9538650Y-11334750D01*
X9525000Y-11524300D02*
X9525000Y-11564300D01*
X9505000Y-11544300D02*
X9545000Y-11544300D01*
X9679940Y-10607360D02*
X9679940Y-10647360D01*
X9659940Y-10627360D02*
X9699940Y-10627360D01*
X9734550Y-10082850D02*
X9734550Y-10122850D01*
X9714550Y-10102850D02*
X9754550Y-10102850D01*
X10132060Y-10844850D02*
X10132060Y-10884850D01*
X10112060Y-10864850D02*
X10152060Y-10864850D01*
X10242550Y-10698800D02*
X10242550Y-10738800D01*
X10222550Y-10718800D02*
X10262550Y-10718800D01*
X10354310Y-12420920D02*
X10354310Y-12460920D01*
X10334310Y-12440920D02*
X10374310Y-12440920D01*
X10431225Y-9858775D02*
X10431225Y-9898775D01*
X10411225Y-9878775D02*
X10451225Y-9878775D01*
X10610850Y-11403650D02*
X10610850Y-11443650D01*
X10590850Y-11423650D02*
X10630850Y-11423650D01*
X10633710Y-12420920D02*
X10633710Y-12460920D01*
X10613710Y-12440920D02*
X10653710Y-12440920D01*
X10655300Y-11029000D02*
X10655300Y-11069000D01*
X10635300Y-11049000D02*
X10675300Y-11049000D01*
X10871200Y-8838250D02*
X10871200Y-8878250D01*
X10851200Y-8858250D02*
X10891200Y-8858250D01*
X10878820Y-12422190D02*
X10878820Y-12462190D01*
X10858820Y-12442190D02*
X10898820Y-12442190D01*
X10928550Y-10127500D02*
X10928550Y-10167500D01*
X10908550Y-10147500D02*
X10948550Y-10147500D01*
X11174300Y-9557500D02*
X11174300Y-9597500D01*
X11154300Y-9577500D02*
X11194300Y-9577500D01*
X11175400Y-10737500D02*
X11175400Y-10777500D01*
X11155400Y-10757500D02*
X11195400Y-10757500D01*
X11177500Y-9907500D02*
X11177500Y-9947500D01*
X11157500Y-9927500D02*
X11197500Y-9927500D01*
X11461750Y-12413300D02*
X11461750Y-12453300D01*
X11441750Y-12433300D02*
X11481750Y-12433300D01*
X11461750Y-12667300D02*
X11461750Y-12707300D01*
X11441750Y-12687300D02*
X11481750Y-12687300D01*
X10734313Y-8373413D02*
X10734313Y-8330987D01*
X10691887Y-8330987D01*
X10691887Y-8373413D01*
X10734313Y-8373413D01*
X10768100Y-8332200D02*
X10658100Y-8332200D01*
X10768100Y-8372200D02*
X10658100Y-8372200D01*
X10658100Y-8332200D02*
G75*
G03X10658100Y-8372200I0J-20000D01*
G01*
X10768100Y-8372200D02*
G75*
G03X10768100Y-8332200I0J20000D01*
G01*
X10734313Y-9093413D02*
X10734313Y-9050987D01*
X10691887Y-9050987D01*
X10691887Y-9093413D01*
X10734313Y-9093413D01*
X10768100Y-9052200D02*
X10658100Y-9052200D01*
X10768100Y-9092200D02*
X10658100Y-9092200D01*
X10658100Y-9052200D02*
G75*
G03X10658100Y-9092200I0J-20000D01*
G01*
X10768100Y-9092200D02*
G75*
G03X10768100Y-9052200I0J20000D01*
G01*
X11089313Y-8373413D02*
X11089313Y-8330987D01*
X11046887Y-8330987D01*
X11046887Y-8373413D01*
X11089313Y-8373413D01*
X11123100Y-8332200D02*
X11013100Y-8332200D01*
X11123100Y-8372200D02*
X11013100Y-8372200D01*
X11013100Y-8332200D02*
G75*
G03X11013100Y-8372200I0J-20000D01*
G01*
X11123100Y-8372200D02*
G75*
G03X11123100Y-8332200I0J20000D01*
G01*
X11089313Y-9093413D02*
X11089313Y-9050987D01*
X11046887Y-9050987D01*
X11046887Y-9093413D01*
X11089313Y-9093413D01*
X11123100Y-9052200D02*
X11013100Y-9052200D01*
X11123100Y-9092200D02*
X11013100Y-9092200D01*
X11013100Y-9052200D02*
G75*
G03X11013100Y-9092200I0J-20000D01*
G01*
X11123100Y-9092200D02*
G75*
G03X11123100Y-9052200I0J20000D01*
G01*
X9810750Y-7442750D02*
X9855750Y-7397750D01*
X9810750Y-7352750D01*
X9765750Y-7397750D01*
X9810750Y-7442750D01*
X9810750Y-7696750D02*
X9855750Y-7651750D01*
X9810750Y-7606750D01*
X9765750Y-7651750D01*
X9810750Y-7696750D01*
X9284500Y-10414800D02*
X9384500Y-10514800D01*
X9384500Y-10414800D02*
X9284500Y-10514800D01*
X9384500Y-10464800D02*
G75*
G03X9384500Y-10464800I-50000J0D01*
G01*
X9538500Y-10414800D02*
X9638500Y-10514800D01*
X9638500Y-10414800D02*
X9538500Y-10514800D01*
X9638500Y-10464800D02*
G75*
G03X9638500Y-10464800I-50000J0D01*
G01*
X9792500Y-10414800D02*
X9892500Y-10514800D01*
X9892500Y-10414800D02*
X9792500Y-10514800D01*
X9892500Y-10464800D02*
G75*
G03X9892500Y-10464800I-50000J0D01*
G01*
X10281450Y-8535200D02*
X10381450Y-8635200D01*
X10381450Y-8535200D02*
X10281450Y-8635200D01*
X10381450Y-8585200D02*
G75*
G03X10381450Y-8585200I-50000J0D01*
G01*
X10281450Y-8789200D02*
X10381450Y-8889200D01*
X10381450Y-8789200D02*
X10281450Y-8889200D01*
X10381450Y-8839200D02*
G75*
G03X10381450Y-8839200I-50000J0D01*
G01*
X8459000Y-8192300D02*
X8559000Y-8292300D01*
X8559000Y-8192300D02*
X8459000Y-8292300D01*
X8559000Y-8242300D02*
G75*
G03X8559000Y-8242300I-50000J0D01*
G01*
X8713000Y-8192300D02*
X8813000Y-8292300D01*
X8813000Y-8192300D02*
X8713000Y-8292300D01*
X8813000Y-8242300D02*
G75*
G03X8813000Y-8242300I-50000J0D01*
G01*
X8967000Y-8192300D02*
X9067000Y-8292300D01*
X9067000Y-8192300D02*
X8967000Y-8292300D01*
X9067000Y-8242300D02*
G75*
G03X9067000Y-8242300I-50000J0D01*
G01*
X9221000Y-8192300D02*
X9321000Y-8292300D01*
X9321000Y-8192300D02*
X9221000Y-8292300D01*
X9321000Y-8242300D02*
G75*
G03X9321000Y-8242300I-50000J0D01*
G01*
X9475000Y-8192300D02*
X9575000Y-8292300D01*
X9575000Y-8192300D02*
X9475000Y-8292300D01*
X9575000Y-8242300D02*
G75*
G03X9575000Y-8242300I-50000J0D01*
G01*
X6046000Y-8052600D02*
X6146000Y-8152600D01*
X6146000Y-8052600D02*
X6046000Y-8152600D01*
X6146000Y-8102600D02*
G75*
G03X6146000Y-8102600I-50000J0D01*
G01*
X6300000Y-8052600D02*
X6400000Y-8152600D01*
X6400000Y-8052600D02*
X6300000Y-8152600D01*
X6400000Y-8102600D02*
G75*
G03X6400000Y-8102600I-50000J0D01*
G01*
X6046000Y-10351300D02*
X6146000Y-10451300D01*
X6146000Y-10351300D02*
X6046000Y-10451300D01*
X6146000Y-10401300D02*
G75*
G03X6146000Y-10401300I-50000J0D01*
G01*
X6046000Y-10605300D02*
X6146000Y-10705300D01*
X6146000Y-10605300D02*
X6046000Y-10705300D01*
X6146000Y-10655300D02*
G75*
G03X6146000Y-10655300I-50000J0D01*
G01*
X6300000Y-10351300D02*
X6400000Y-10451300D01*
X6400000Y-10351300D02*
X6300000Y-10451300D01*
X6400000Y-10401300D02*
G75*
G03X6400000Y-10401300I-50000J0D01*
G01*
X6300000Y-10605300D02*
X6400000Y-10705300D01*
X6400000Y-10605300D02*
X6300000Y-10705300D01*
X6400000Y-10655300D02*
G75*
G03X6400000Y-10655300I-50000J0D01*
G01*
X6554000Y-10351300D02*
X6654000Y-10451300D01*
X6654000Y-10351300D02*
X6554000Y-10451300D01*
X6654000Y-10401300D02*
G75*
G03X6654000Y-10401300I-50000J0D01*
G01*
X6554000Y-10605300D02*
X6654000Y-10705300D01*
X6654000Y-10605300D02*
X6554000Y-10705300D01*
X6654000Y-10655300D02*
G75*
G03X6654000Y-10655300I-50000J0D01*
G01*
X6808000Y-10351300D02*
X6908000Y-10451300D01*
X6908000Y-10351300D02*
X6808000Y-10451300D01*
X6908000Y-10401300D02*
G75*
G03X6908000Y-10401300I-50000J0D01*
G01*
X6808000Y-10605300D02*
X6908000Y-10705300D01*
X6908000Y-10605300D02*
X6808000Y-10705300D01*
X6908000Y-10655300D02*
G75*
G03X6908000Y-10655300I-50000J0D01*
G01*
X7062000Y-10351300D02*
X7162000Y-10451300D01*
X7162000Y-10351300D02*
X7062000Y-10451300D01*
X7162000Y-10401300D02*
G75*
G03X7162000Y-10401300I-50000J0D01*
G01*
X7062000Y-10605300D02*
X7162000Y-10705300D01*
X7162000Y-10605300D02*
X7062000Y-10705300D01*
X7162000Y-10655300D02*
G75*
G03X7162000Y-10655300I-50000J0D01*
G01*
X7316000Y-10351300D02*
X7416000Y-10451300D01*
X7416000Y-10351300D02*
X7316000Y-10451300D01*
X7416000Y-10401300D02*
G75*
G03X7416000Y-10401300I-50000J0D01*
G01*
X7316000Y-10605300D02*
X7416000Y-10705300D01*
X7416000Y-10605300D02*
X7316000Y-10705300D01*
X7416000Y-10655300D02*
G75*
G03X7416000Y-10655300I-50000J0D01*
G01*
X7570000Y-10351300D02*
X7670000Y-10451300D01*
X7670000Y-10351300D02*
X7570000Y-10451300D01*
X7670000Y-10401300D02*
G75*
G03X7670000Y-10401300I-50000J0D01*
G01*
X7570000Y-10605300D02*
X7670000Y-10705300D01*
X7670000Y-10605300D02*
X7570000Y-10705300D01*
X7670000Y-10655300D02*
G75*
G03X7670000Y-10655300I-50000J0D01*
G01*
X7824000Y-10351300D02*
X7924000Y-10451300D01*
X7924000Y-10351300D02*
X7824000Y-10451300D01*
X7924000Y-10401300D02*
G75*
G03X7924000Y-10401300I-50000J0D01*
G01*
X7824000Y-10605300D02*
X7924000Y-10705300D01*
X7924000Y-10605300D02*
X7824000Y-10705300D01*
X7924000Y-10655300D02*
G75*
G03X7924000Y-10655300I-50000J0D01*
G01*
X8078000Y-10351300D02*
X8178000Y-10451300D01*
X8178000Y-10351300D02*
X8078000Y-10451300D01*
X8178000Y-10401300D02*
G75*
G03X8178000Y-10401300I-50000J0D01*
G01*
X8078000Y-10605300D02*
X8178000Y-10705300D01*
X8178000Y-10605300D02*
X8078000Y-10705300D01*
X8178000Y-10655300D02*
G75*
G03X8178000Y-10655300I-50000J0D01*
G01*
X8332000Y-10351300D02*
X8432000Y-10451300D01*
X8432000Y-10351300D02*
X8332000Y-10451300D01*
X8432000Y-10401300D02*
G75*
G03X8432000Y-10401300I-50000J0D01*
G01*
X8332000Y-10605300D02*
X8432000Y-10705300D01*
X8432000Y-10605300D02*
X8332000Y-10705300D01*
X8432000Y-10655300D02*
G75*
G03X8432000Y-10655300I-50000J0D01*
G01*
X7570000Y-8052600D02*
X7670000Y-8152600D01*
X7670000Y-8052600D02*
X7570000Y-8152600D01*
X7670000Y-8102600D02*
G75*
G03X7670000Y-8102600I-50000J0D01*
G01*
X7824000Y-8052600D02*
X7924000Y-8152600D01*
X7924000Y-8052600D02*
X7824000Y-8152600D01*
X7924000Y-8102600D02*
G75*
G03X7924000Y-8102600I-50000J0D01*
G01*
X9284500Y-9151150D02*
X9384500Y-9251150D01*
X9384500Y-9151150D02*
X9284500Y-9251150D01*
X9384500Y-9201150D02*
G75*
G03X9384500Y-9201150I-50000J0D01*
G01*
X9284500Y-9405150D02*
X9384500Y-9505150D01*
X9384500Y-9405150D02*
X9284500Y-9505150D01*
X9384500Y-9455150D02*
G75*
G03X9384500Y-9455150I-50000J0D01*
G01*
X9538500Y-9151150D02*
X9638500Y-9251150D01*
X9638500Y-9151150D02*
X9538500Y-9251150D01*
X9638500Y-9201150D02*
G75*
G03X9638500Y-9201150I-50000J0D01*
G01*
X9538500Y-9405150D02*
X9638500Y-9505150D01*
X9638500Y-9405150D02*
X9538500Y-9505150D01*
X9638500Y-9455150D02*
G75*
G03X9638500Y-9455150I-50000J0D01*
G01*
X9792500Y-9151150D02*
X9892500Y-9251150D01*
X9892500Y-9151150D02*
X9792500Y-9251150D01*
X9892500Y-9201150D02*
G75*
G03X9892500Y-9201150I-50000J0D01*
G01*
X9792500Y-9405150D02*
X9892500Y-9505150D01*
X9892500Y-9405150D02*
X9792500Y-9505150D01*
X9892500Y-9455150D02*
G75*
G03X9892500Y-9455150I-50000J0D01*
G01*
X8257150Y-7247500D02*
X8367150Y-7357500D01*
X8367150Y-7247500D02*
X8257150Y-7357500D01*
X8312150Y-7247500D02*
X8312150Y-7357500D01*
X8257150Y-7302500D02*
X8367150Y-7302500D01*
X8257150Y-7697500D02*
X8367150Y-7807500D01*
X8367150Y-7697500D02*
X8257150Y-7807500D01*
X8312150Y-7697500D02*
X8312150Y-7807500D01*
X8257150Y-7752500D02*
X8367150Y-7752500D01*
X8907150Y-7247500D02*
X9017150Y-7357500D01*
X9017150Y-7247500D02*
X8907150Y-7357500D01*
X8962150Y-7247500D02*
X8962150Y-7357500D01*
X8907150Y-7302500D02*
X9017150Y-7302500D01*
X8907150Y-7697500D02*
X9017150Y-7807500D01*
X9017150Y-7697500D02*
X8907150Y-7807500D01*
X8962150Y-7697500D02*
X8962150Y-7807500D01*
X8907150Y-7752500D02*
X9017150Y-7752500D01*
X10600300Y-7247500D02*
X10710300Y-7357500D01*
X10710300Y-7247500D02*
X10600300Y-7357500D01*
X10655300Y-7247500D02*
X10655300Y-7357500D01*
X10600300Y-7302500D02*
X10710300Y-7302500D01*
X10600300Y-7697500D02*
X10710300Y-7807500D01*
X10710300Y-7697500D02*
X10600300Y-7807500D01*
X10655300Y-7697500D02*
X10655300Y-7807500D01*
X10600300Y-7752500D02*
X10710300Y-7752500D01*
X11250300Y-7247500D02*
X11360300Y-7357500D01*
X11360300Y-7247500D02*
X11250300Y-7357500D01*
X11305300Y-7247500D02*
X11305300Y-7357500D01*
X11250300Y-7302500D02*
X11360300Y-7302500D01*
X11250300Y-7697500D02*
X11360300Y-7807500D01*
X11360300Y-7697500D02*
X11250300Y-7807500D01*
X11305300Y-7697500D02*
X11305300Y-7807500D01*
X11250300Y-7752500D02*
X11360300Y-7752500D01*
X5914000Y-7247500D02*
X6024000Y-7357500D01*
X6024000Y-7247500D02*
X5914000Y-7357500D01*
X5969000Y-7247500D02*
X5969000Y-7357500D01*
X5914000Y-7302500D02*
X6024000Y-7302500D01*
X5914000Y-7697500D02*
X6024000Y-7807500D01*
X6024000Y-7697500D02*
X5914000Y-7807500D01*
X5969000Y-7697500D02*
X5969000Y-7807500D01*
X5914000Y-7752500D02*
X6024000Y-7752500D01*
X6564000Y-7247500D02*
X6674000Y-7357500D01*
X6674000Y-7247500D02*
X6564000Y-7357500D01*
X6619000Y-7247500D02*
X6619000Y-7357500D01*
X6564000Y-7302500D02*
X6674000Y-7302500D01*
X6564000Y-7697500D02*
X6674000Y-7807500D01*
X6674000Y-7697500D02*
X6564000Y-7807500D01*
X6619000Y-7697500D02*
X6619000Y-7807500D01*
X6564000Y-7752500D02*
X6674000Y-7752500D01*
D11*
X6132428Y-11117014D02*
X6132428Y-10817014D01*
X6203857Y-10817014D01*
X6246714Y-10831300D01*
X6275286Y-10859871D01*
X6289571Y-10888443D01*
X6303857Y-10945586D01*
X6303857Y-10988443D01*
X6289571Y-11045586D01*
X6275286Y-11074157D01*
X6246714Y-11102729D01*
X6203857Y-11117014D01*
X6132428Y-11117014D01*
X6432428Y-11117014D02*
X6432428Y-10917014D01*
X6432428Y-10974157D02*
X6446714Y-10945586D01*
X6461000Y-10931300D01*
X6489571Y-10917014D01*
X6518143Y-10917014D01*
X6618143Y-11117014D02*
X6618143Y-10917014D01*
X6618143Y-10817014D02*
X6603857Y-10831300D01*
X6618143Y-10845586D01*
X6632428Y-10831300D01*
X6618143Y-10817014D01*
X6618143Y-10845586D01*
X6803857Y-11117014D02*
X6775286Y-11102729D01*
X6761000Y-11074157D01*
X6761000Y-10817014D01*
X6961000Y-11117014D02*
X6932428Y-11102729D01*
X6918143Y-11074157D01*
X6918143Y-10817014D01*
X7303857Y-11117014D02*
X7303857Y-10817014D01*
X7403857Y-11031300D01*
X7503857Y-10817014D01*
X7503857Y-11117014D01*
X7775286Y-11117014D02*
X7775286Y-10959871D01*
X7761000Y-10931300D01*
X7732428Y-10917014D01*
X7675286Y-10917014D01*
X7646714Y-10931300D01*
X7775286Y-11102729D02*
X7746714Y-11117014D01*
X7675286Y-11117014D01*
X7646714Y-11102729D01*
X7632428Y-11074157D01*
X7632428Y-11045586D01*
X7646714Y-11017014D01*
X7675286Y-11002729D01*
X7746714Y-11002729D01*
X7775286Y-10988443D01*
X7918143Y-10917014D02*
X7918143Y-11217014D01*
X7918143Y-10931300D02*
X7946714Y-10917014D01*
X8003857Y-10917014D01*
X8032428Y-10931300D01*
X8046714Y-10945586D01*
X8061000Y-10974157D01*
X8061000Y-11059871D01*
X8046714Y-11088443D01*
X8032428Y-11102729D01*
X8003857Y-11117014D01*
X7946714Y-11117014D01*
X7918143Y-11102729D01*
X8189571Y-11088443D02*
X8203857Y-11102729D01*
X8189571Y-11117014D01*
X8175286Y-11102729D01*
X8189571Y-11088443D01*
X8189571Y-11117014D01*
X8189571Y-10931300D02*
X8203857Y-10945586D01*
X8189571Y-10959871D01*
X8175286Y-10945586D01*
X8189571Y-10931300D01*
X8189571Y-10959871D01*
X5826000Y-11601300D02*
X5846000Y-11621300D01*
X5846000Y-11601300D02*
X5826000Y-11621300D01*
X6189571Y-11447014D02*
X6218143Y-11447014D01*
X6246714Y-11461300D01*
X6261000Y-11475586D01*
X6275286Y-11504157D01*
X6289571Y-11561300D01*
X6289571Y-11632728D01*
X6275286Y-11689871D01*
X6261000Y-11718443D01*
X6246714Y-11732728D01*
X6218143Y-11747014D01*
X6189571Y-11747014D01*
X6161000Y-11732728D01*
X6146714Y-11718443D01*
X6132428Y-11689871D01*
X6118143Y-11632728D01*
X6118143Y-11561300D01*
X6132428Y-11504157D01*
X6146714Y-11475586D01*
X6161000Y-11461300D01*
X6189571Y-11447014D01*
X6418143Y-11718443D02*
X6432428Y-11732728D01*
X6418143Y-11747014D01*
X6403857Y-11732728D01*
X6418143Y-11718443D01*
X6418143Y-11747014D01*
X6546714Y-11475586D02*
X6561000Y-11461300D01*
X6589571Y-11447014D01*
X6661000Y-11447014D01*
X6689571Y-11461300D01*
X6703857Y-11475586D01*
X6718143Y-11504157D01*
X6718143Y-11532728D01*
X6703857Y-11575586D01*
X6532428Y-11747014D01*
X6718143Y-11747014D01*
X6903857Y-11447014D02*
X6932428Y-11447014D01*
X6961000Y-11461300D01*
X6975286Y-11475586D01*
X6989571Y-11504157D01*
X7003857Y-11561300D01*
X7003857Y-11632728D01*
X6989571Y-11689871D01*
X6975286Y-11718443D01*
X6961000Y-11732728D01*
X6932428Y-11747014D01*
X6903857Y-11747014D01*
X6875286Y-11732728D01*
X6861000Y-11718443D01*
X6846714Y-11689871D01*
X6832428Y-11632728D01*
X6832428Y-11561300D01*
X6846714Y-11504157D01*
X6861000Y-11475586D01*
X6875286Y-11461300D01*
X6903857Y-11447014D01*
X7132428Y-11747014D02*
X7132428Y-11547014D01*
X7132428Y-11575586D02*
X7146714Y-11561300D01*
X7175286Y-11547014D01*
X7218143Y-11547014D01*
X7246714Y-11561300D01*
X7261000Y-11589871D01*
X7261000Y-11747014D01*
X7261000Y-11589871D02*
X7275286Y-11561300D01*
X7303857Y-11547014D01*
X7346714Y-11547014D01*
X7375286Y-11561300D01*
X7389571Y-11589871D01*
X7389571Y-11747014D01*
X7532428Y-11747014D02*
X7532428Y-11547014D01*
X7532428Y-11575586D02*
X7546714Y-11561300D01*
X7575286Y-11547014D01*
X7618143Y-11547014D01*
X7646714Y-11561300D01*
X7661000Y-11589871D01*
X7661000Y-11747014D01*
X7661000Y-11589871D02*
X7675286Y-11561300D01*
X7703857Y-11547014D01*
X7746714Y-11547014D01*
X7775286Y-11561300D01*
X7789571Y-11589871D01*
X7789571Y-11747014D01*
X8375286Y-11432728D02*
X8118143Y-11818443D01*
X8761000Y-11447014D02*
X8789571Y-11447014D01*
X8818143Y-11461300D01*
X8832429Y-11475586D01*
X8846714Y-11504157D01*
X8861000Y-11561300D01*
X8861000Y-11632728D01*
X8846714Y-11689871D01*
X8832429Y-11718443D01*
X8818143Y-11732728D01*
X8789571Y-11747014D01*
X8761000Y-11747014D01*
X8732429Y-11732728D01*
X8718143Y-11718443D01*
X8703857Y-11689871D01*
X8689571Y-11632728D01*
X8689571Y-11561300D01*
X8703857Y-11504157D01*
X8718143Y-11475586D01*
X8732429Y-11461300D01*
X8761000Y-11447014D01*
X8989571Y-11718443D02*
X9003857Y-11732728D01*
X8989571Y-11747014D01*
X8975286Y-11732728D01*
X8989571Y-11718443D01*
X8989571Y-11747014D01*
X9189571Y-11447014D02*
X9218143Y-11447014D01*
X9246714Y-11461300D01*
X9261000Y-11475586D01*
X9275286Y-11504157D01*
X9289571Y-11561300D01*
X9289571Y-11632728D01*
X9275286Y-11689871D01*
X9261000Y-11718443D01*
X9246714Y-11732728D01*
X9218143Y-11747014D01*
X9189571Y-11747014D01*
X9161000Y-11732728D01*
X9146714Y-11718443D01*
X9132429Y-11689871D01*
X9118143Y-11632728D01*
X9118143Y-11561300D01*
X9132429Y-11504157D01*
X9146714Y-11475586D01*
X9161000Y-11461300D01*
X9189571Y-11447014D01*
X9475286Y-11447014D02*
X9503857Y-11447014D01*
X9532429Y-11461300D01*
X9546714Y-11475586D01*
X9561000Y-11504157D01*
X9575286Y-11561300D01*
X9575286Y-11632728D01*
X9561000Y-11689871D01*
X9546714Y-11718443D01*
X9532429Y-11732728D01*
X9503857Y-11747014D01*
X9475286Y-11747014D01*
X9446714Y-11732728D01*
X9432429Y-11718443D01*
X9418143Y-11689871D01*
X9403857Y-11632728D01*
X9403857Y-11561300D01*
X9418143Y-11504157D01*
X9432429Y-11475586D01*
X9446714Y-11461300D01*
X9475286Y-11447014D01*
X9746714Y-11575586D02*
X9718143Y-11561300D01*
X9703857Y-11547014D01*
X9689571Y-11518443D01*
X9689571Y-11504157D01*
X9703857Y-11475586D01*
X9718143Y-11461300D01*
X9746714Y-11447014D01*
X9803857Y-11447014D01*
X9832429Y-11461300D01*
X9846714Y-11475586D01*
X9861000Y-11504157D01*
X9861000Y-11518443D01*
X9846714Y-11547014D01*
X9832429Y-11561300D01*
X9803857Y-11575586D01*
X9746714Y-11575586D01*
X9718143Y-11589871D01*
X9703857Y-11604157D01*
X9689571Y-11632728D01*
X9689571Y-11689871D01*
X9703857Y-11718443D01*
X9718143Y-11732728D01*
X9746714Y-11747014D01*
X9803857Y-11747014D01*
X9832429Y-11732728D01*
X9846714Y-11718443D01*
X9861000Y-11689871D01*
X9861000Y-11632728D01*
X9846714Y-11604157D01*
X9832429Y-11589871D01*
X9803857Y-11575586D01*
X9975286Y-11447014D02*
X9975286Y-11504157D01*
X10089571Y-11447014D02*
X10089571Y-11504157D01*
X10532429Y-11861300D02*
X10518143Y-11847014D01*
X10489571Y-11804157D01*
X10475286Y-11775586D01*
X10461000Y-11732728D01*
X10446714Y-11661300D01*
X10446714Y-11604157D01*
X10461000Y-11532728D01*
X10475286Y-11489871D01*
X10489571Y-11461300D01*
X10518143Y-11418443D01*
X10532429Y-11404157D01*
X10775286Y-11547014D02*
X10775286Y-11747014D01*
X10703857Y-11432728D02*
X10632429Y-11647014D01*
X10818143Y-11647014D01*
X11161000Y-11747014D02*
X11161000Y-11447014D01*
X11289571Y-11747014D02*
X11289571Y-11589871D01*
X11275286Y-11561300D01*
X11246714Y-11547014D01*
X11203857Y-11547014D01*
X11175286Y-11561300D01*
X11161000Y-11575586D01*
X11475286Y-11747014D02*
X11446714Y-11732728D01*
X11432428Y-11718443D01*
X11418143Y-11689871D01*
X11418143Y-11604157D01*
X11432428Y-11575586D01*
X11446714Y-11561300D01*
X11475286Y-11547014D01*
X11518143Y-11547014D01*
X11546714Y-11561300D01*
X11561000Y-11575586D01*
X11575286Y-11604157D01*
X11575286Y-11689871D01*
X11561000Y-11718443D01*
X11546714Y-11732728D01*
X11518143Y-11747014D01*
X11475286Y-11747014D01*
X11746714Y-11747014D02*
X11718143Y-11732728D01*
X11703857Y-11704157D01*
X11703857Y-11447014D01*
X11975286Y-11732728D02*
X11946714Y-11747014D01*
X11889571Y-11747014D01*
X11861000Y-11732728D01*
X11846714Y-11704157D01*
X11846714Y-11589871D01*
X11861000Y-11561300D01*
X11889571Y-11547014D01*
X11946714Y-11547014D01*
X11975286Y-11561300D01*
X11989571Y-11589871D01*
X11989571Y-11618443D01*
X11846714Y-11647014D01*
X12103857Y-11732728D02*
X12132428Y-11747014D01*
X12189571Y-11747014D01*
X12218143Y-11732728D01*
X12232428Y-11704157D01*
X12232428Y-11689871D01*
X12218143Y-11661300D01*
X12189571Y-11647014D01*
X12146714Y-11647014D01*
X12118143Y-11632728D01*
X12103857Y-11604157D01*
X12103857Y-11589871D01*
X12118143Y-11561300D01*
X12146714Y-11547014D01*
X12189571Y-11547014D01*
X12218143Y-11561300D01*
X12332428Y-11861300D02*
X12346714Y-11847014D01*
X12375286Y-11804157D01*
X12389571Y-11775586D01*
X12403857Y-11732728D01*
X12418143Y-11661300D01*
X12418143Y-11604157D01*
X12403857Y-11532728D01*
X12389571Y-11489871D01*
X12375286Y-11461300D01*
X12346714Y-11418443D01*
X12332428Y-11404157D01*
X5846000Y-12007300D02*
G75*
G03X5846000Y-12007300I-15000J0D01*
G01*
X6189571Y-11843014D02*
X6218143Y-11843014D01*
X6246714Y-11857300D01*
X6261000Y-11871586D01*
X6275286Y-11900157D01*
X6289571Y-11957300D01*
X6289571Y-12028728D01*
X6275286Y-12085871D01*
X6261000Y-12114443D01*
X6246714Y-12128728D01*
X6218143Y-12143014D01*
X6189571Y-12143014D01*
X6161000Y-12128728D01*
X6146714Y-12114443D01*
X6132428Y-12085871D01*
X6118143Y-12028728D01*
X6118143Y-11957300D01*
X6132428Y-11900157D01*
X6146714Y-11871586D01*
X6161000Y-11857300D01*
X6189571Y-11843014D01*
X6418143Y-12114443D02*
X6432428Y-12128728D01*
X6418143Y-12143014D01*
X6403857Y-12128728D01*
X6418143Y-12114443D01*
X6418143Y-12143014D01*
X6532428Y-11843014D02*
X6718143Y-11843014D01*
X6618143Y-11957300D01*
X6661000Y-11957300D01*
X6689571Y-11971586D01*
X6703857Y-11985871D01*
X6718143Y-12014443D01*
X6718143Y-12085871D01*
X6703857Y-12114443D01*
X6689571Y-12128728D01*
X6661000Y-12143014D01*
X6575286Y-12143014D01*
X6546714Y-12128728D01*
X6532428Y-12114443D01*
X6903857Y-11843014D02*
X6932428Y-11843014D01*
X6961000Y-11857300D01*
X6975286Y-11871586D01*
X6989571Y-11900157D01*
X7003857Y-11957300D01*
X7003857Y-12028728D01*
X6989571Y-12085871D01*
X6975286Y-12114443D01*
X6961000Y-12128728D01*
X6932428Y-12143014D01*
X6903857Y-12143014D01*
X6875286Y-12128728D01*
X6861000Y-12114443D01*
X6846714Y-12085871D01*
X6832428Y-12028728D01*
X6832428Y-11957300D01*
X6846714Y-11900157D01*
X6861000Y-11871586D01*
X6875286Y-11857300D01*
X6903857Y-11843014D01*
X7132428Y-12143014D02*
X7132428Y-11943014D01*
X7132428Y-11971586D02*
X7146714Y-11957300D01*
X7175286Y-11943014D01*
X7218143Y-11943014D01*
X7246714Y-11957300D01*
X7261000Y-11985871D01*
X7261000Y-12143014D01*
X7261000Y-11985871D02*
X7275286Y-11957300D01*
X7303857Y-11943014D01*
X7346714Y-11943014D01*
X7375286Y-11957300D01*
X7389571Y-11985871D01*
X7389571Y-12143014D01*
X7532428Y-12143014D02*
X7532428Y-11943014D01*
X7532428Y-11971586D02*
X7546714Y-11957300D01*
X7575286Y-11943014D01*
X7618143Y-11943014D01*
X7646714Y-11957300D01*
X7661000Y-11985871D01*
X7661000Y-12143014D01*
X7661000Y-11985871D02*
X7675286Y-11957300D01*
X7703857Y-11943014D01*
X7746714Y-11943014D01*
X7775286Y-11957300D01*
X7789571Y-11985871D01*
X7789571Y-12143014D01*
X8375286Y-11828728D02*
X8118143Y-12214443D01*
X8761000Y-11843014D02*
X8789571Y-11843014D01*
X8818143Y-11857300D01*
X8832429Y-11871586D01*
X8846714Y-11900157D01*
X8861000Y-11957300D01*
X8861000Y-12028728D01*
X8846714Y-12085871D01*
X8832429Y-12114443D01*
X8818143Y-12128728D01*
X8789571Y-12143014D01*
X8761000Y-12143014D01*
X8732429Y-12128728D01*
X8718143Y-12114443D01*
X8703857Y-12085871D01*
X8689571Y-12028728D01*
X8689571Y-11957300D01*
X8703857Y-11900157D01*
X8718143Y-11871586D01*
X8732429Y-11857300D01*
X8761000Y-11843014D01*
X8989571Y-12114443D02*
X9003857Y-12128728D01*
X8989571Y-12143014D01*
X8975286Y-12128728D01*
X8989571Y-12114443D01*
X8989571Y-12143014D01*
X9189571Y-11843014D02*
X9218143Y-11843014D01*
X9246714Y-11857300D01*
X9261000Y-11871586D01*
X9275286Y-11900157D01*
X9289571Y-11957300D01*
X9289571Y-12028728D01*
X9275286Y-12085871D01*
X9261000Y-12114443D01*
X9246714Y-12128728D01*
X9218143Y-12143014D01*
X9189571Y-12143014D01*
X9161000Y-12128728D01*
X9146714Y-12114443D01*
X9132429Y-12085871D01*
X9118143Y-12028728D01*
X9118143Y-11957300D01*
X9132429Y-11900157D01*
X9146714Y-11871586D01*
X9161000Y-11857300D01*
X9189571Y-11843014D01*
X9575286Y-12143014D02*
X9403857Y-12143014D01*
X9489571Y-12143014D02*
X9489571Y-11843014D01*
X9461000Y-11885871D01*
X9432429Y-11914443D01*
X9403857Y-11928728D01*
X9689571Y-11871586D02*
X9703857Y-11857300D01*
X9732429Y-11843014D01*
X9803857Y-11843014D01*
X9832429Y-11857300D01*
X9846714Y-11871586D01*
X9861000Y-11900157D01*
X9861000Y-11928728D01*
X9846714Y-11971586D01*
X9675286Y-12143014D01*
X9861000Y-12143014D01*
X9975286Y-11843014D02*
X9975286Y-11900157D01*
X10089571Y-11843014D02*
X10089571Y-11900157D01*
X10532429Y-12257300D02*
X10518143Y-12243014D01*
X10489571Y-12200157D01*
X10475286Y-12171586D01*
X10461000Y-12128728D01*
X10446714Y-12057300D01*
X10446714Y-12000157D01*
X10461000Y-11928728D01*
X10475286Y-11885871D01*
X10489571Y-11857300D01*
X10518143Y-11814443D01*
X10532429Y-11800157D01*
X10803857Y-12143014D02*
X10632429Y-12143014D01*
X10718143Y-12143014D02*
X10718143Y-11843014D01*
X10689571Y-11885871D01*
X10661000Y-11914443D01*
X10632429Y-11928728D01*
X10918143Y-11871586D02*
X10932429Y-11857300D01*
X10961000Y-11843014D01*
X11032429Y-11843014D01*
X11061000Y-11857300D01*
X11075286Y-11871586D01*
X11089571Y-11900157D01*
X11089571Y-11928728D01*
X11075286Y-11971586D01*
X10903857Y-12143014D01*
X11089571Y-12143014D01*
X11346714Y-11943014D02*
X11346714Y-12143014D01*
X11275286Y-11828728D02*
X11203857Y-12043014D01*
X11389571Y-12043014D01*
X11732428Y-12143014D02*
X11732428Y-11843014D01*
X11861000Y-12143014D02*
X11861000Y-11985871D01*
X11846714Y-11957300D01*
X11818143Y-11943014D01*
X11775286Y-11943014D01*
X11746714Y-11957300D01*
X11732428Y-11971586D01*
X12046714Y-12143014D02*
X12018143Y-12128728D01*
X12003857Y-12114443D01*
X11989571Y-12085871D01*
X11989571Y-12000157D01*
X12003857Y-11971586D01*
X12018143Y-11957300D01*
X12046714Y-11943014D01*
X12089571Y-11943014D01*
X12118143Y-11957300D01*
X12132428Y-11971586D01*
X12146714Y-12000157D01*
X12146714Y-12085871D01*
X12132428Y-12114443D01*
X12118143Y-12128728D01*
X12089571Y-12143014D01*
X12046714Y-12143014D01*
X12318143Y-12143014D02*
X12289571Y-12128728D01*
X12275286Y-12100157D01*
X12275286Y-11843014D01*
X12546714Y-12128728D02*
X12518143Y-12143014D01*
X12461000Y-12143014D01*
X12432428Y-12128728D01*
X12418143Y-12100157D01*
X12418143Y-11985871D01*
X12432428Y-11957300D01*
X12461000Y-11943014D01*
X12518143Y-11943014D01*
X12546714Y-11957300D01*
X12561000Y-11985871D01*
X12561000Y-12014443D01*
X12418143Y-12043014D01*
X12675286Y-12128728D02*
X12703857Y-12143014D01*
X12761000Y-12143014D01*
X12789571Y-12128728D01*
X12803857Y-12100157D01*
X12803857Y-12085871D01*
X12789571Y-12057300D01*
X12761000Y-12043014D01*
X12718143Y-12043014D01*
X12689571Y-12028728D01*
X12675286Y-12000157D01*
X12675286Y-11985871D01*
X12689571Y-11957300D01*
X12718143Y-11943014D01*
X12761000Y-11943014D01*
X12789571Y-11957300D01*
X12903857Y-12257300D02*
X12918143Y-12243014D01*
X12946714Y-12200157D01*
X12961000Y-12171586D01*
X12975286Y-12128728D01*
X12989571Y-12057300D01*
X12989571Y-12000157D01*
X12975286Y-11928728D01*
X12961000Y-11885871D01*
X12946714Y-11857300D01*
X12918143Y-11814443D01*
X12903857Y-11800157D01*
X5826000Y-12383300D02*
X5826000Y-12423300D01*
X5806000Y-12403300D02*
X5846000Y-12403300D01*
X6189571Y-12239014D02*
X6218143Y-12239014D01*
X6246714Y-12253300D01*
X6261000Y-12267586D01*
X6275286Y-12296157D01*
X6289571Y-12353300D01*
X6289571Y-12424728D01*
X6275286Y-12481871D01*
X6261000Y-12510443D01*
X6246714Y-12524728D01*
X6218143Y-12539014D01*
X6189571Y-12539014D01*
X6161000Y-12524728D01*
X6146714Y-12510443D01*
X6132428Y-12481871D01*
X6118143Y-12424728D01*
X6118143Y-12353300D01*
X6132428Y-12296157D01*
X6146714Y-12267586D01*
X6161000Y-12253300D01*
X6189571Y-12239014D01*
X6418143Y-12510443D02*
X6432428Y-12524728D01*
X6418143Y-12539014D01*
X6403857Y-12524728D01*
X6418143Y-12510443D01*
X6418143Y-12539014D01*
X6689571Y-12339014D02*
X6689571Y-12539014D01*
X6618143Y-12224728D02*
X6546714Y-12439014D01*
X6732428Y-12439014D01*
X6903857Y-12239014D02*
X6932428Y-12239014D01*
X6961000Y-12253300D01*
X6975286Y-12267586D01*
X6989571Y-12296157D01*
X7003857Y-12353300D01*
X7003857Y-12424728D01*
X6989571Y-12481871D01*
X6975286Y-12510443D01*
X6961000Y-12524728D01*
X6932428Y-12539014D01*
X6903857Y-12539014D01*
X6875286Y-12524728D01*
X6861000Y-12510443D01*
X6846714Y-12481871D01*
X6832428Y-12424728D01*
X6832428Y-12353300D01*
X6846714Y-12296157D01*
X6861000Y-12267586D01*
X6875286Y-12253300D01*
X6903857Y-12239014D01*
X7132428Y-12539014D02*
X7132428Y-12339014D01*
X7132428Y-12367586D02*
X7146714Y-12353300D01*
X7175286Y-12339014D01*
X7218143Y-12339014D01*
X7246714Y-12353300D01*
X7261000Y-12381871D01*
X7261000Y-12539014D01*
X7261000Y-12381871D02*
X7275286Y-12353300D01*
X7303857Y-12339014D01*
X7346714Y-12339014D01*
X7375286Y-12353300D01*
X7389571Y-12381871D01*
X7389571Y-12539014D01*
X7532428Y-12539014D02*
X7532428Y-12339014D01*
X7532428Y-12367586D02*
X7546714Y-12353300D01*
X7575286Y-12339014D01*
X7618143Y-12339014D01*
X7646714Y-12353300D01*
X7661000Y-12381871D01*
X7661000Y-12539014D01*
X7661000Y-12381871D02*
X7675286Y-12353300D01*
X7703857Y-12339014D01*
X7746714Y-12339014D01*
X7775286Y-12353300D01*
X7789571Y-12381871D01*
X7789571Y-12539014D01*
X8375286Y-12224728D02*
X8118143Y-12610443D01*
X8761000Y-12239014D02*
X8789571Y-12239014D01*
X8818143Y-12253300D01*
X8832429Y-12267586D01*
X8846714Y-12296157D01*
X8861000Y-12353300D01*
X8861000Y-12424728D01*
X8846714Y-12481871D01*
X8832429Y-12510443D01*
X8818143Y-12524728D01*
X8789571Y-12539014D01*
X8761000Y-12539014D01*
X8732429Y-12524728D01*
X8718143Y-12510443D01*
X8703857Y-12481871D01*
X8689571Y-12424728D01*
X8689571Y-12353300D01*
X8703857Y-12296157D01*
X8718143Y-12267586D01*
X8732429Y-12253300D01*
X8761000Y-12239014D01*
X8989571Y-12510443D02*
X9003857Y-12524728D01*
X8989571Y-12539014D01*
X8975286Y-12524728D01*
X8989571Y-12510443D01*
X8989571Y-12539014D01*
X9189571Y-12239014D02*
X9218143Y-12239014D01*
X9246714Y-12253300D01*
X9261000Y-12267586D01*
X9275286Y-12296157D01*
X9289571Y-12353300D01*
X9289571Y-12424728D01*
X9275286Y-12481871D01*
X9261000Y-12510443D01*
X9246714Y-12524728D01*
X9218143Y-12539014D01*
X9189571Y-12539014D01*
X9161000Y-12524728D01*
X9146714Y-12510443D01*
X9132429Y-12481871D01*
X9118143Y-12424728D01*
X9118143Y-12353300D01*
X9132429Y-12296157D01*
X9146714Y-12267586D01*
X9161000Y-12253300D01*
X9189571Y-12239014D01*
X9575286Y-12539014D02*
X9403857Y-12539014D01*
X9489571Y-12539014D02*
X9489571Y-12239014D01*
X9461000Y-12281871D01*
X9432429Y-12310443D01*
X9403857Y-12324728D01*
X9832429Y-12239014D02*
X9775286Y-12239014D01*
X9746714Y-12253300D01*
X9732429Y-12267586D01*
X9703857Y-12310443D01*
X9689571Y-12367586D01*
X9689571Y-12481871D01*
X9703857Y-12510443D01*
X9718143Y-12524728D01*
X9746714Y-12539014D01*
X9803857Y-12539014D01*
X9832429Y-12524728D01*
X9846714Y-12510443D01*
X9861000Y-12481871D01*
X9861000Y-12410443D01*
X9846714Y-12381871D01*
X9832429Y-12367586D01*
X9803857Y-12353300D01*
X9746714Y-12353300D01*
X9718143Y-12367586D01*
X9703857Y-12381871D01*
X9689571Y-12410443D01*
X9975286Y-12239014D02*
X9975286Y-12296157D01*
X10089571Y-12239014D02*
X10089571Y-12296157D01*
X10532429Y-12653300D02*
X10518143Y-12639014D01*
X10489571Y-12596157D01*
X10475286Y-12567586D01*
X10461000Y-12524728D01*
X10446714Y-12453300D01*
X10446714Y-12396157D01*
X10461000Y-12324728D01*
X10475286Y-12281871D01*
X10489571Y-12253300D01*
X10518143Y-12210443D01*
X10532429Y-12196157D01*
X10618143Y-12239014D02*
X10818143Y-12239014D01*
X10689571Y-12539014D01*
X10946714Y-12539014D02*
X11003857Y-12539014D01*
X11032429Y-12524728D01*
X11046714Y-12510443D01*
X11075286Y-12467586D01*
X11089571Y-12410443D01*
X11089571Y-12296157D01*
X11075286Y-12267586D01*
X11061000Y-12253300D01*
X11032429Y-12239014D01*
X10975286Y-12239014D01*
X10946714Y-12253300D01*
X10932429Y-12267586D01*
X10918143Y-12296157D01*
X10918143Y-12367586D01*
X10932429Y-12396157D01*
X10946714Y-12410443D01*
X10975286Y-12424728D01*
X11032429Y-12424728D01*
X11061000Y-12410443D01*
X11075286Y-12396157D01*
X11089571Y-12367586D01*
X11446714Y-12539014D02*
X11446714Y-12239014D01*
X11575286Y-12539014D02*
X11575286Y-12381871D01*
X11561000Y-12353300D01*
X11532428Y-12339014D01*
X11489571Y-12339014D01*
X11461000Y-12353300D01*
X11446714Y-12367586D01*
X11761000Y-12539014D02*
X11732428Y-12524728D01*
X11718143Y-12510443D01*
X11703857Y-12481871D01*
X11703857Y-12396157D01*
X11718143Y-12367586D01*
X11732428Y-12353300D01*
X11761000Y-12339014D01*
X11803857Y-12339014D01*
X11832428Y-12353300D01*
X11846714Y-12367586D01*
X11861000Y-12396157D01*
X11861000Y-12481871D01*
X11846714Y-12510443D01*
X11832428Y-12524728D01*
X11803857Y-12539014D01*
X11761000Y-12539014D01*
X12032428Y-12539014D02*
X12003857Y-12524728D01*
X11989571Y-12496157D01*
X11989571Y-12239014D01*
X12261000Y-12524728D02*
X12232428Y-12539014D01*
X12175286Y-12539014D01*
X12146714Y-12524728D01*
X12132428Y-12496157D01*
X12132428Y-12381871D01*
X12146714Y-12353300D01*
X12175286Y-12339014D01*
X12232428Y-12339014D01*
X12261000Y-12353300D01*
X12275286Y-12381871D01*
X12275286Y-12410443D01*
X12132428Y-12439014D01*
X12389571Y-12524728D02*
X12418143Y-12539014D01*
X12475286Y-12539014D01*
X12503857Y-12524728D01*
X12518143Y-12496157D01*
X12518143Y-12481871D01*
X12503857Y-12453300D01*
X12475286Y-12439014D01*
X12432428Y-12439014D01*
X12403857Y-12424728D01*
X12389571Y-12396157D01*
X12389571Y-12381871D01*
X12403857Y-12353300D01*
X12432428Y-12339014D01*
X12475286Y-12339014D01*
X12503857Y-12353300D01*
X12618143Y-12653300D02*
X12632428Y-12639014D01*
X12661000Y-12596157D01*
X12675286Y-12567586D01*
X12689571Y-12524728D01*
X12703857Y-12453300D01*
X12703857Y-12396157D01*
X12689571Y-12324728D01*
X12675286Y-12281871D01*
X12661000Y-12253300D01*
X12632428Y-12210443D01*
X12618143Y-12196157D01*
X5837213Y-12820513D02*
X5837213Y-12778087D01*
X5794787Y-12778087D01*
X5794787Y-12820513D01*
X5837213Y-12820513D01*
X6189571Y-12635014D02*
X6218143Y-12635014D01*
X6246714Y-12649300D01*
X6261000Y-12663586D01*
X6275286Y-12692157D01*
X6289571Y-12749300D01*
X6289571Y-12820728D01*
X6275286Y-12877871D01*
X6261000Y-12906443D01*
X6246714Y-12920728D01*
X6218143Y-12935014D01*
X6189571Y-12935014D01*
X6161000Y-12920728D01*
X6146714Y-12906443D01*
X6132428Y-12877871D01*
X6118143Y-12820728D01*
X6118143Y-12749300D01*
X6132428Y-12692157D01*
X6146714Y-12663586D01*
X6161000Y-12649300D01*
X6189571Y-12635014D01*
X6418143Y-12906443D02*
X6432428Y-12920728D01*
X6418143Y-12935014D01*
X6403857Y-12920728D01*
X6418143Y-12906443D01*
X6418143Y-12935014D01*
X6689571Y-12635014D02*
X6632428Y-12635014D01*
X6603857Y-12649300D01*
X6589571Y-12663586D01*
X6561000Y-12706443D01*
X6546714Y-12763586D01*
X6546714Y-12877871D01*
X6561000Y-12906443D01*
X6575286Y-12920728D01*
X6603857Y-12935014D01*
X6661000Y-12935014D01*
X6689571Y-12920728D01*
X6703857Y-12906443D01*
X6718143Y-12877871D01*
X6718143Y-12806443D01*
X6703857Y-12777871D01*
X6689571Y-12763586D01*
X6661000Y-12749300D01*
X6603857Y-12749300D01*
X6575286Y-12763586D01*
X6561000Y-12777871D01*
X6546714Y-12806443D01*
X6903857Y-12635014D02*
X6932428Y-12635014D01*
X6961000Y-12649300D01*
X6975286Y-12663586D01*
X6989571Y-12692157D01*
X7003857Y-12749300D01*
X7003857Y-12820728D01*
X6989571Y-12877871D01*
X6975286Y-12906443D01*
X6961000Y-12920728D01*
X6932428Y-12935014D01*
X6903857Y-12935014D01*
X6875286Y-12920728D01*
X6861000Y-12906443D01*
X6846714Y-12877871D01*
X6832428Y-12820728D01*
X6832428Y-12749300D01*
X6846714Y-12692157D01*
X6861000Y-12663586D01*
X6875286Y-12649300D01*
X6903857Y-12635014D01*
X7132428Y-12935014D02*
X7132428Y-12735014D01*
X7132428Y-12763586D02*
X7146714Y-12749300D01*
X7175286Y-12735014D01*
X7218143Y-12735014D01*
X7246714Y-12749300D01*
X7261000Y-12777871D01*
X7261000Y-12935014D01*
X7261000Y-12777871D02*
X7275286Y-12749300D01*
X7303857Y-12735014D01*
X7346714Y-12735014D01*
X7375286Y-12749300D01*
X7389571Y-12777871D01*
X7389571Y-12935014D01*
X7532428Y-12935014D02*
X7532428Y-12735014D01*
X7532428Y-12763586D02*
X7546714Y-12749300D01*
X7575286Y-12735014D01*
X7618143Y-12735014D01*
X7646714Y-12749300D01*
X7661000Y-12777871D01*
X7661000Y-12935014D01*
X7661000Y-12777871D02*
X7675286Y-12749300D01*
X7703857Y-12735014D01*
X7746714Y-12735014D01*
X7775286Y-12749300D01*
X7789571Y-12777871D01*
X7789571Y-12935014D01*
X8375286Y-12620728D02*
X8118143Y-13006443D01*
X8761000Y-12635014D02*
X8789571Y-12635014D01*
X8818143Y-12649300D01*
X8832429Y-12663586D01*
X8846714Y-12692157D01*
X8861000Y-12749300D01*
X8861000Y-12820728D01*
X8846714Y-12877871D01*
X8832429Y-12906443D01*
X8818143Y-12920728D01*
X8789571Y-12935014D01*
X8761000Y-12935014D01*
X8732429Y-12920728D01*
X8718143Y-12906443D01*
X8703857Y-12877871D01*
X8689571Y-12820728D01*
X8689571Y-12749300D01*
X8703857Y-12692157D01*
X8718143Y-12663586D01*
X8732429Y-12649300D01*
X8761000Y-12635014D01*
X8989571Y-12906443D02*
X9003857Y-12920728D01*
X8989571Y-12935014D01*
X8975286Y-12920728D01*
X8989571Y-12906443D01*
X8989571Y-12935014D01*
X9189571Y-12635014D02*
X9218143Y-12635014D01*
X9246714Y-12649300D01*
X9261000Y-12663586D01*
X9275286Y-12692157D01*
X9289571Y-12749300D01*
X9289571Y-12820728D01*
X9275286Y-12877871D01*
X9261000Y-12906443D01*
X9246714Y-12920728D01*
X9218143Y-12935014D01*
X9189571Y-12935014D01*
X9161000Y-12920728D01*
X9146714Y-12906443D01*
X9132429Y-12877871D01*
X9118143Y-12820728D01*
X9118143Y-12749300D01*
X9132429Y-12692157D01*
X9146714Y-12663586D01*
X9161000Y-12649300D01*
X9189571Y-12635014D01*
X9403857Y-12663586D02*
X9418143Y-12649300D01*
X9446714Y-12635014D01*
X9518143Y-12635014D01*
X9546714Y-12649300D01*
X9561000Y-12663586D01*
X9575286Y-12692157D01*
X9575286Y-12720728D01*
X9561000Y-12763586D01*
X9389571Y-12935014D01*
X9575286Y-12935014D01*
X9832429Y-12735014D02*
X9832429Y-12935014D01*
X9761000Y-12620728D02*
X9689571Y-12835014D01*
X9875286Y-12835014D01*
X9975286Y-12635014D02*
X9975286Y-12692157D01*
X10089571Y-12635014D02*
X10089571Y-12692157D01*
X10532429Y-13049300D02*
X10518143Y-13035014D01*
X10489571Y-12992157D01*
X10475286Y-12963586D01*
X10461000Y-12920728D01*
X10446714Y-12849300D01*
X10446714Y-12792157D01*
X10461000Y-12720728D01*
X10475286Y-12677871D01*
X10489571Y-12649300D01*
X10518143Y-12606443D01*
X10532429Y-12592157D01*
X10703857Y-12635014D02*
X10732429Y-12635014D01*
X10761000Y-12649300D01*
X10775286Y-12663586D01*
X10789571Y-12692157D01*
X10803857Y-12749300D01*
X10803857Y-12820728D01*
X10789571Y-12877871D01*
X10775286Y-12906443D01*
X10761000Y-12920728D01*
X10732429Y-12935014D01*
X10703857Y-12935014D01*
X10675286Y-12920728D01*
X10661000Y-12906443D01*
X10646714Y-12877871D01*
X10632429Y-12820728D01*
X10632429Y-12749300D01*
X10646714Y-12692157D01*
X10661000Y-12663586D01*
X10675286Y-12649300D01*
X10703857Y-12635014D01*
X11161000Y-12935014D02*
X11161000Y-12635014D01*
X11289571Y-12935014D02*
X11289571Y-12777871D01*
X11275286Y-12749300D01*
X11246714Y-12735014D01*
X11203857Y-12735014D01*
X11175286Y-12749300D01*
X11161000Y-12763586D01*
X11475286Y-12935014D02*
X11446714Y-12920728D01*
X11432428Y-12906443D01*
X11418143Y-12877871D01*
X11418143Y-12792157D01*
X11432428Y-12763586D01*
X11446714Y-12749300D01*
X11475286Y-12735014D01*
X11518143Y-12735014D01*
X11546714Y-12749300D01*
X11561000Y-12763586D01*
X11575286Y-12792157D01*
X11575286Y-12877871D01*
X11561000Y-12906443D01*
X11546714Y-12920728D01*
X11518143Y-12935014D01*
X11475286Y-12935014D01*
X11746714Y-12935014D02*
X11718143Y-12920728D01*
X11703857Y-12892157D01*
X11703857Y-12635014D01*
X11975286Y-12920728D02*
X11946714Y-12935014D01*
X11889571Y-12935014D01*
X11861000Y-12920728D01*
X11846714Y-12892157D01*
X11846714Y-12777871D01*
X11861000Y-12749300D01*
X11889571Y-12735014D01*
X11946714Y-12735014D01*
X11975286Y-12749300D01*
X11989571Y-12777871D01*
X11989571Y-12806443D01*
X11846714Y-12835014D01*
X12103857Y-12920728D02*
X12132428Y-12935014D01*
X12189571Y-12935014D01*
X12218143Y-12920728D01*
X12232428Y-12892157D01*
X12232428Y-12877871D01*
X12218143Y-12849300D01*
X12189571Y-12835014D01*
X12146714Y-12835014D01*
X12118143Y-12820728D01*
X12103857Y-12792157D01*
X12103857Y-12777871D01*
X12118143Y-12749300D01*
X12146714Y-12735014D01*
X12189571Y-12735014D01*
X12218143Y-12749300D01*
X12589571Y-12820728D02*
X12818143Y-12820728D01*
X12703857Y-12935014D02*
X12703857Y-12706443D01*
X13318143Y-12735014D02*
X13318143Y-12935014D01*
X13246714Y-12620728D02*
X13175286Y-12835014D01*
X13361000Y-12835014D01*
X13689571Y-12920728D02*
X13718143Y-12935014D01*
X13775286Y-12935014D01*
X13803857Y-12920728D01*
X13818143Y-12892157D01*
X13818143Y-12877871D01*
X13803857Y-12849300D01*
X13775286Y-12835014D01*
X13732428Y-12835014D01*
X13703857Y-12820728D01*
X13689571Y-12792157D01*
X13689571Y-12777871D01*
X13703857Y-12749300D01*
X13732428Y-12735014D01*
X13775286Y-12735014D01*
X13803857Y-12749300D01*
X13989571Y-12935014D02*
X13961000Y-12920728D01*
X13946714Y-12892157D01*
X13946714Y-12635014D01*
X14146714Y-12935014D02*
X14118143Y-12920728D01*
X14103857Y-12906443D01*
X14089571Y-12877871D01*
X14089571Y-12792157D01*
X14103857Y-12763586D01*
X14118143Y-12749300D01*
X14146714Y-12735014D01*
X14189571Y-12735014D01*
X14218143Y-12749300D01*
X14232428Y-12763586D01*
X14246714Y-12792157D01*
X14246714Y-12877871D01*
X14232428Y-12906443D01*
X14218143Y-12920728D01*
X14189571Y-12935014D01*
X14146714Y-12935014D01*
X14332428Y-12735014D02*
X14446714Y-12735014D01*
X14375286Y-12635014D02*
X14375286Y-12892157D01*
X14389571Y-12920728D01*
X14418143Y-12935014D01*
X14446714Y-12935014D01*
X14532428Y-12920728D02*
X14561000Y-12935014D01*
X14618143Y-12935014D01*
X14646714Y-12920728D01*
X14661000Y-12892157D01*
X14661000Y-12877871D01*
X14646714Y-12849300D01*
X14618143Y-12835014D01*
X14575286Y-12835014D01*
X14546714Y-12820728D01*
X14532428Y-12792157D01*
X14532428Y-12777871D01*
X14546714Y-12749300D01*
X14575286Y-12735014D01*
X14618143Y-12735014D01*
X14646714Y-12749300D01*
X14761000Y-13049300D02*
X14775286Y-13035014D01*
X14803857Y-12992157D01*
X14818143Y-12963586D01*
X14832428Y-12920728D01*
X14846714Y-12849300D01*
X14846714Y-12792157D01*
X14832428Y-12720728D01*
X14818143Y-12677871D01*
X14803857Y-12649300D01*
X14775286Y-12606443D01*
X14761000Y-12592157D01*
X5801000Y-13240300D02*
X5846000Y-13195300D01*
X5801000Y-13150300D01*
X5756000Y-13195300D01*
X5801000Y-13240300D01*
X6189571Y-13031014D02*
X6218143Y-13031014D01*
X6246714Y-13045300D01*
X6261000Y-13059586D01*
X6275286Y-13088157D01*
X6289571Y-13145300D01*
X6289571Y-13216728D01*
X6275286Y-13273871D01*
X6261000Y-13302443D01*
X6246714Y-13316728D01*
X6218143Y-13331014D01*
X6189571Y-13331014D01*
X6161000Y-13316728D01*
X6146714Y-13302443D01*
X6132428Y-13273871D01*
X6118143Y-13216728D01*
X6118143Y-13145300D01*
X6132428Y-13088157D01*
X6146714Y-13059586D01*
X6161000Y-13045300D01*
X6189571Y-13031014D01*
X6418143Y-13302443D02*
X6432428Y-13316728D01*
X6418143Y-13331014D01*
X6403857Y-13316728D01*
X6418143Y-13302443D01*
X6418143Y-13331014D01*
X6575286Y-13331014D02*
X6632428Y-13331014D01*
X6661000Y-13316728D01*
X6675286Y-13302443D01*
X6703857Y-13259586D01*
X6718143Y-13202443D01*
X6718143Y-13088157D01*
X6703857Y-13059586D01*
X6689571Y-13045300D01*
X6661000Y-13031014D01*
X6603857Y-13031014D01*
X6575286Y-13045300D01*
X6561000Y-13059586D01*
X6546714Y-13088157D01*
X6546714Y-13159586D01*
X6561000Y-13188157D01*
X6575286Y-13202443D01*
X6603857Y-13216728D01*
X6661000Y-13216728D01*
X6689571Y-13202443D01*
X6703857Y-13188157D01*
X6718143Y-13159586D01*
X6903857Y-13031014D02*
X6932428Y-13031014D01*
X6961000Y-13045300D01*
X6975286Y-13059586D01*
X6989571Y-13088157D01*
X7003857Y-13145300D01*
X7003857Y-13216728D01*
X6989571Y-13273871D01*
X6975286Y-13302443D01*
X6961000Y-13316728D01*
X6932428Y-13331014D01*
X6903857Y-13331014D01*
X6875286Y-13316728D01*
X6861000Y-13302443D01*
X6846714Y-13273871D01*
X6832428Y-13216728D01*
X6832428Y-13145300D01*
X6846714Y-13088157D01*
X6861000Y-13059586D01*
X6875286Y-13045300D01*
X6903857Y-13031014D01*
X7132428Y-13331014D02*
X7132428Y-13131014D01*
X7132428Y-13159586D02*
X7146714Y-13145300D01*
X7175286Y-13131014D01*
X7218143Y-13131014D01*
X7246714Y-13145300D01*
X7261000Y-13173871D01*
X7261000Y-13331014D01*
X7261000Y-13173871D02*
X7275286Y-13145300D01*
X7303857Y-13131014D01*
X7346714Y-13131014D01*
X7375286Y-13145300D01*
X7389571Y-13173871D01*
X7389571Y-13331014D01*
X7532428Y-13331014D02*
X7532428Y-13131014D01*
X7532428Y-13159586D02*
X7546714Y-13145300D01*
X7575286Y-13131014D01*
X7618143Y-13131014D01*
X7646714Y-13145300D01*
X7661000Y-13173871D01*
X7661000Y-13331014D01*
X7661000Y-13173871D02*
X7675286Y-13145300D01*
X7703857Y-13131014D01*
X7746714Y-13131014D01*
X7775286Y-13145300D01*
X7789571Y-13173871D01*
X7789571Y-13331014D01*
X8375286Y-13016728D02*
X8118143Y-13402443D01*
X8761000Y-13031014D02*
X8789571Y-13031014D01*
X8818143Y-13045300D01*
X8832429Y-13059586D01*
X8846714Y-13088157D01*
X8861000Y-13145300D01*
X8861000Y-13216728D01*
X8846714Y-13273871D01*
X8832429Y-13302443D01*
X8818143Y-13316728D01*
X8789571Y-13331014D01*
X8761000Y-13331014D01*
X8732429Y-13316728D01*
X8718143Y-13302443D01*
X8703857Y-13273871D01*
X8689571Y-13216728D01*
X8689571Y-13145300D01*
X8703857Y-13088157D01*
X8718143Y-13059586D01*
X8732429Y-13045300D01*
X8761000Y-13031014D01*
X8989571Y-13302443D02*
X9003857Y-13316728D01*
X8989571Y-13331014D01*
X8975286Y-13316728D01*
X8989571Y-13302443D01*
X8989571Y-13331014D01*
X9189571Y-13031014D02*
X9218143Y-13031014D01*
X9246714Y-13045300D01*
X9261000Y-13059586D01*
X9275286Y-13088157D01*
X9289571Y-13145300D01*
X9289571Y-13216728D01*
X9275286Y-13273871D01*
X9261000Y-13302443D01*
X9246714Y-13316728D01*
X9218143Y-13331014D01*
X9189571Y-13331014D01*
X9161000Y-13316728D01*
X9146714Y-13302443D01*
X9132429Y-13273871D01*
X9118143Y-13216728D01*
X9118143Y-13145300D01*
X9132429Y-13088157D01*
X9146714Y-13059586D01*
X9161000Y-13045300D01*
X9189571Y-13031014D01*
X9389571Y-13031014D02*
X9575286Y-13031014D01*
X9475286Y-13145300D01*
X9518143Y-13145300D01*
X9546714Y-13159586D01*
X9561000Y-13173871D01*
X9575286Y-13202443D01*
X9575286Y-13273871D01*
X9561000Y-13302443D01*
X9546714Y-13316728D01*
X9518143Y-13331014D01*
X9432429Y-13331014D01*
X9403857Y-13316728D01*
X9389571Y-13302443D01*
X9846714Y-13031014D02*
X9703857Y-13031014D01*
X9689571Y-13173871D01*
X9703857Y-13159586D01*
X9732429Y-13145300D01*
X9803857Y-13145300D01*
X9832429Y-13159586D01*
X9846714Y-13173871D01*
X9861000Y-13202443D01*
X9861000Y-13273871D01*
X9846714Y-13302443D01*
X9832429Y-13316728D01*
X9803857Y-13331014D01*
X9732429Y-13331014D01*
X9703857Y-13316728D01*
X9689571Y-13302443D01*
X9975286Y-13031014D02*
X9975286Y-13088157D01*
X10089571Y-13031014D02*
X10089571Y-13088157D01*
X10532429Y-13445300D02*
X10518143Y-13431014D01*
X10489571Y-13388157D01*
X10475286Y-13359586D01*
X10461000Y-13316728D01*
X10446714Y-13245300D01*
X10446714Y-13188157D01*
X10461000Y-13116728D01*
X10475286Y-13073871D01*
X10489571Y-13045300D01*
X10518143Y-13002443D01*
X10532429Y-12988157D01*
X10632429Y-13059586D02*
X10646714Y-13045300D01*
X10675286Y-13031014D01*
X10746714Y-13031014D01*
X10775286Y-13045300D01*
X10789571Y-13059586D01*
X10803857Y-13088157D01*
X10803857Y-13116728D01*
X10789571Y-13159586D01*
X10618143Y-13331014D01*
X10803857Y-13331014D01*
X11161000Y-13331014D02*
X11161000Y-13031014D01*
X11289571Y-13331014D02*
X11289571Y-13173871D01*
X11275286Y-13145300D01*
X11246714Y-13131014D01*
X11203857Y-13131014D01*
X11175286Y-13145300D01*
X11161000Y-13159586D01*
X11475286Y-13331014D02*
X11446714Y-13316728D01*
X11432428Y-13302443D01*
X11418143Y-13273871D01*
X11418143Y-13188157D01*
X11432428Y-13159586D01*
X11446714Y-13145300D01*
X11475286Y-13131014D01*
X11518143Y-13131014D01*
X11546714Y-13145300D01*
X11561000Y-13159586D01*
X11575286Y-13188157D01*
X11575286Y-13273871D01*
X11561000Y-13302443D01*
X11546714Y-13316728D01*
X11518143Y-13331014D01*
X11475286Y-13331014D01*
X11746714Y-13331014D02*
X11718143Y-13316728D01*
X11703857Y-13288157D01*
X11703857Y-13031014D01*
X11975286Y-13316728D02*
X11946714Y-13331014D01*
X11889571Y-13331014D01*
X11861000Y-13316728D01*
X11846714Y-13288157D01*
X11846714Y-13173871D01*
X11861000Y-13145300D01*
X11889571Y-13131014D01*
X11946714Y-13131014D01*
X11975286Y-13145300D01*
X11989571Y-13173871D01*
X11989571Y-13202443D01*
X11846714Y-13231014D01*
X12103857Y-13316728D02*
X12132428Y-13331014D01*
X12189571Y-13331014D01*
X12218143Y-13316728D01*
X12232428Y-13288157D01*
X12232428Y-13273871D01*
X12218143Y-13245300D01*
X12189571Y-13231014D01*
X12146714Y-13231014D01*
X12118143Y-13216728D01*
X12103857Y-13188157D01*
X12103857Y-13173871D01*
X12118143Y-13145300D01*
X12146714Y-13131014D01*
X12189571Y-13131014D01*
X12218143Y-13145300D01*
X12332428Y-13445300D02*
X12346714Y-13431014D01*
X12375286Y-13388157D01*
X12389571Y-13359586D01*
X12403857Y-13316728D01*
X12418143Y-13245300D01*
X12418143Y-13188157D01*
X12403857Y-13116728D01*
X12389571Y-13073871D01*
X12375286Y-13045300D01*
X12346714Y-13002443D01*
X12332428Y-12988157D01*
X5746000Y-13541300D02*
X5846000Y-13641300D01*
X5846000Y-13541300D02*
X5746000Y-13641300D01*
X5846000Y-13591300D02*
G75*
G03X5846000Y-13591300I-50000J0D01*
G01*
X6289571Y-13727014D02*
X6118143Y-13727014D01*
X6203857Y-13727014D02*
X6203857Y-13427014D01*
X6175286Y-13469871D01*
X6146714Y-13498443D01*
X6118143Y-13512728D01*
X6418143Y-13698443D02*
X6432428Y-13712728D01*
X6418143Y-13727014D01*
X6403857Y-13712728D01*
X6418143Y-13698443D01*
X6418143Y-13727014D01*
X6618143Y-13427014D02*
X6646714Y-13427014D01*
X6675286Y-13441300D01*
X6689571Y-13455586D01*
X6703857Y-13484157D01*
X6718143Y-13541300D01*
X6718143Y-13612728D01*
X6703857Y-13669871D01*
X6689571Y-13698443D01*
X6675286Y-13712728D01*
X6646714Y-13727014D01*
X6618143Y-13727014D01*
X6589571Y-13712728D01*
X6575286Y-13698443D01*
X6561000Y-13669871D01*
X6546714Y-13612728D01*
X6546714Y-13541300D01*
X6561000Y-13484157D01*
X6575286Y-13455586D01*
X6589571Y-13441300D01*
X6618143Y-13427014D01*
X6903857Y-13427014D02*
X6932428Y-13427014D01*
X6961000Y-13441300D01*
X6975286Y-13455586D01*
X6989571Y-13484157D01*
X7003857Y-13541300D01*
X7003857Y-13612728D01*
X6989571Y-13669871D01*
X6975286Y-13698443D01*
X6961000Y-13712728D01*
X6932428Y-13727014D01*
X6903857Y-13727014D01*
X6875286Y-13712728D01*
X6861000Y-13698443D01*
X6846714Y-13669871D01*
X6832428Y-13612728D01*
X6832428Y-13541300D01*
X6846714Y-13484157D01*
X6861000Y-13455586D01*
X6875286Y-13441300D01*
X6903857Y-13427014D01*
X7132428Y-13727014D02*
X7132428Y-13527014D01*
X7132428Y-13555586D02*
X7146714Y-13541300D01*
X7175286Y-13527014D01*
X7218143Y-13527014D01*
X7246714Y-13541300D01*
X7261000Y-13569871D01*
X7261000Y-13727014D01*
X7261000Y-13569871D02*
X7275286Y-13541300D01*
X7303857Y-13527014D01*
X7346714Y-13527014D01*
X7375286Y-13541300D01*
X7389571Y-13569871D01*
X7389571Y-13727014D01*
X7532428Y-13727014D02*
X7532428Y-13527014D01*
X7532428Y-13555586D02*
X7546714Y-13541300D01*
X7575286Y-13527014D01*
X7618143Y-13527014D01*
X7646714Y-13541300D01*
X7661000Y-13569871D01*
X7661000Y-13727014D01*
X7661000Y-13569871D02*
X7675286Y-13541300D01*
X7703857Y-13527014D01*
X7746714Y-13527014D01*
X7775286Y-13541300D01*
X7789571Y-13569871D01*
X7789571Y-13727014D01*
X8375286Y-13412728D02*
X8118143Y-13798443D01*
X8761000Y-13427014D02*
X8789571Y-13427014D01*
X8818143Y-13441300D01*
X8832429Y-13455586D01*
X8846714Y-13484157D01*
X8861000Y-13541300D01*
X8861000Y-13612728D01*
X8846714Y-13669871D01*
X8832429Y-13698443D01*
X8818143Y-13712728D01*
X8789571Y-13727014D01*
X8761000Y-13727014D01*
X8732429Y-13712728D01*
X8718143Y-13698443D01*
X8703857Y-13669871D01*
X8689571Y-13612728D01*
X8689571Y-13541300D01*
X8703857Y-13484157D01*
X8718143Y-13455586D01*
X8732429Y-13441300D01*
X8761000Y-13427014D01*
X8989571Y-13698443D02*
X9003857Y-13712728D01*
X8989571Y-13727014D01*
X8975286Y-13712728D01*
X8989571Y-13698443D01*
X8989571Y-13727014D01*
X9189571Y-13427014D02*
X9218143Y-13427014D01*
X9246714Y-13441300D01*
X9261000Y-13455586D01*
X9275286Y-13484157D01*
X9289571Y-13541300D01*
X9289571Y-13612728D01*
X9275286Y-13669871D01*
X9261000Y-13698443D01*
X9246714Y-13712728D01*
X9218143Y-13727014D01*
X9189571Y-13727014D01*
X9161000Y-13712728D01*
X9146714Y-13698443D01*
X9132429Y-13669871D01*
X9118143Y-13612728D01*
X9118143Y-13541300D01*
X9132429Y-13484157D01*
X9146714Y-13455586D01*
X9161000Y-13441300D01*
X9189571Y-13427014D01*
X9389571Y-13427014D02*
X9575286Y-13427014D01*
X9475286Y-13541300D01*
X9518143Y-13541300D01*
X9546714Y-13555586D01*
X9561000Y-13569871D01*
X9575286Y-13598443D01*
X9575286Y-13669871D01*
X9561000Y-13698443D01*
X9546714Y-13712728D01*
X9518143Y-13727014D01*
X9432429Y-13727014D01*
X9403857Y-13712728D01*
X9389571Y-13698443D01*
X9718143Y-13727014D02*
X9775286Y-13727014D01*
X9803857Y-13712728D01*
X9818143Y-13698443D01*
X9846714Y-13655586D01*
X9861000Y-13598443D01*
X9861000Y-13484157D01*
X9846714Y-13455586D01*
X9832429Y-13441300D01*
X9803857Y-13427014D01*
X9746714Y-13427014D01*
X9718143Y-13441300D01*
X9703857Y-13455586D01*
X9689571Y-13484157D01*
X9689571Y-13555586D01*
X9703857Y-13584157D01*
X9718143Y-13598443D01*
X9746714Y-13612728D01*
X9803857Y-13612728D01*
X9832429Y-13598443D01*
X9846714Y-13584157D01*
X9861000Y-13555586D01*
X9975286Y-13427014D02*
X9975286Y-13484157D01*
X10089571Y-13427014D02*
X10089571Y-13484157D01*
X10532429Y-13841300D02*
X10518143Y-13827014D01*
X10489571Y-13784157D01*
X10475286Y-13755586D01*
X10461000Y-13712728D01*
X10446714Y-13641300D01*
X10446714Y-13584157D01*
X10461000Y-13512728D01*
X10475286Y-13469871D01*
X10489571Y-13441300D01*
X10518143Y-13398443D01*
X10532429Y-13384157D01*
X10775286Y-13527014D02*
X10775286Y-13727014D01*
X10703857Y-13412728D02*
X10632429Y-13627014D01*
X10818143Y-13627014D01*
X10989571Y-13427014D02*
X11018143Y-13427014D01*
X11046714Y-13441300D01*
X11061000Y-13455586D01*
X11075286Y-13484157D01*
X11089571Y-13541300D01*
X11089571Y-13612728D01*
X11075286Y-13669871D01*
X11061000Y-13698443D01*
X11046714Y-13712728D01*
X11018143Y-13727014D01*
X10989571Y-13727014D01*
X10961000Y-13712728D01*
X10946714Y-13698443D01*
X10932429Y-13669871D01*
X10918143Y-13612728D01*
X10918143Y-13541300D01*
X10932429Y-13484157D01*
X10946714Y-13455586D01*
X10961000Y-13441300D01*
X10989571Y-13427014D01*
X11446714Y-13727014D02*
X11446714Y-13427014D01*
X11575286Y-13727014D02*
X11575286Y-13569871D01*
X11561000Y-13541300D01*
X11532428Y-13527014D01*
X11489571Y-13527014D01*
X11461000Y-13541300D01*
X11446714Y-13555586D01*
X11761000Y-13727014D02*
X11732428Y-13712728D01*
X11718143Y-13698443D01*
X11703857Y-13669871D01*
X11703857Y-13584157D01*
X11718143Y-13555586D01*
X11732428Y-13541300D01*
X11761000Y-13527014D01*
X11803857Y-13527014D01*
X11832428Y-13541300D01*
X11846714Y-13555586D01*
X11861000Y-13584157D01*
X11861000Y-13669871D01*
X11846714Y-13698443D01*
X11832428Y-13712728D01*
X11803857Y-13727014D01*
X11761000Y-13727014D01*
X12032428Y-13727014D02*
X12003857Y-13712728D01*
X11989571Y-13684157D01*
X11989571Y-13427014D01*
X12261000Y-13712728D02*
X12232428Y-13727014D01*
X12175286Y-13727014D01*
X12146714Y-13712728D01*
X12132428Y-13684157D01*
X12132428Y-13569871D01*
X12146714Y-13541300D01*
X12175286Y-13527014D01*
X12232428Y-13527014D01*
X12261000Y-13541300D01*
X12275286Y-13569871D01*
X12275286Y-13598443D01*
X12132428Y-13627014D01*
X12389571Y-13712728D02*
X12418143Y-13727014D01*
X12475286Y-13727014D01*
X12503857Y-13712728D01*
X12518143Y-13684157D01*
X12518143Y-13669871D01*
X12503857Y-13641300D01*
X12475286Y-13627014D01*
X12432428Y-13627014D01*
X12403857Y-13612728D01*
X12389571Y-13584157D01*
X12389571Y-13569871D01*
X12403857Y-13541300D01*
X12432428Y-13527014D01*
X12475286Y-13527014D01*
X12503857Y-13541300D01*
X12618143Y-13841300D02*
X12632428Y-13827014D01*
X12661000Y-13784157D01*
X12675286Y-13755586D01*
X12689571Y-13712728D01*
X12703857Y-13641300D01*
X12703857Y-13584157D01*
X12689571Y-13512728D01*
X12675286Y-13469871D01*
X12661000Y-13441300D01*
X12632428Y-13398443D01*
X12618143Y-13384157D01*
X5736000Y-13932300D02*
X5846000Y-14042300D01*
X5846000Y-13932300D02*
X5736000Y-14042300D01*
X5791000Y-13932300D02*
X5791000Y-14042300D01*
X5736000Y-13987300D02*
X5846000Y-13987300D01*
X6289571Y-14123014D02*
X6118143Y-14123014D01*
X6203857Y-14123014D02*
X6203857Y-13823014D01*
X6175286Y-13865871D01*
X6146714Y-13894443D01*
X6118143Y-13908728D01*
X6418143Y-14094443D02*
X6432428Y-14108728D01*
X6418143Y-14123014D01*
X6403857Y-14108728D01*
X6418143Y-14094443D01*
X6418143Y-14123014D01*
X6718143Y-14123014D02*
X6546714Y-14123014D01*
X6632428Y-14123014D02*
X6632428Y-13823014D01*
X6603857Y-13865871D01*
X6575286Y-13894443D01*
X6546714Y-13908728D01*
X6903857Y-13823014D02*
X6932428Y-13823014D01*
X6961000Y-13837300D01*
X6975286Y-13851586D01*
X6989571Y-13880157D01*
X7003857Y-13937300D01*
X7003857Y-14008728D01*
X6989571Y-14065871D01*
X6975286Y-14094443D01*
X6961000Y-14108728D01*
X6932428Y-14123014D01*
X6903857Y-14123014D01*
X6875286Y-14108728D01*
X6861000Y-14094443D01*
X6846714Y-14065871D01*
X6832428Y-14008728D01*
X6832428Y-13937300D01*
X6846714Y-13880157D01*
X6861000Y-13851586D01*
X6875286Y-13837300D01*
X6903857Y-13823014D01*
X7132428Y-14123014D02*
X7132428Y-13923014D01*
X7132428Y-13951586D02*
X7146714Y-13937300D01*
X7175286Y-13923014D01*
X7218143Y-13923014D01*
X7246714Y-13937300D01*
X7261000Y-13965871D01*
X7261000Y-14123014D01*
X7261000Y-13965871D02*
X7275286Y-13937300D01*
X7303857Y-13923014D01*
X7346714Y-13923014D01*
X7375286Y-13937300D01*
X7389571Y-13965871D01*
X7389571Y-14123014D01*
X7532428Y-14123014D02*
X7532428Y-13923014D01*
X7532428Y-13951586D02*
X7546714Y-13937300D01*
X7575286Y-13923014D01*
X7618143Y-13923014D01*
X7646714Y-13937300D01*
X7661000Y-13965871D01*
X7661000Y-14123014D01*
X7661000Y-13965871D02*
X7675286Y-13937300D01*
X7703857Y-13923014D01*
X7746714Y-13923014D01*
X7775286Y-13937300D01*
X7789571Y-13965871D01*
X7789571Y-14123014D01*
X8375286Y-13808728D02*
X8118143Y-14194443D01*
X8761000Y-13823014D02*
X8789571Y-13823014D01*
X8818143Y-13837300D01*
X8832429Y-13851586D01*
X8846714Y-13880157D01*
X8861000Y-13937300D01*
X8861000Y-14008728D01*
X8846714Y-14065871D01*
X8832429Y-14094443D01*
X8818143Y-14108728D01*
X8789571Y-14123014D01*
X8761000Y-14123014D01*
X8732429Y-14108728D01*
X8718143Y-14094443D01*
X8703857Y-14065871D01*
X8689571Y-14008728D01*
X8689571Y-13937300D01*
X8703857Y-13880157D01*
X8718143Y-13851586D01*
X8732429Y-13837300D01*
X8761000Y-13823014D01*
X8989571Y-14094443D02*
X9003857Y-14108728D01*
X8989571Y-14123014D01*
X8975286Y-14108728D01*
X8989571Y-14094443D01*
X8989571Y-14123014D01*
X9189571Y-13823014D02*
X9218143Y-13823014D01*
X9246714Y-13837300D01*
X9261000Y-13851586D01*
X9275286Y-13880157D01*
X9289571Y-13937300D01*
X9289571Y-14008728D01*
X9275286Y-14065871D01*
X9261000Y-14094443D01*
X9246714Y-14108728D01*
X9218143Y-14123014D01*
X9189571Y-14123014D01*
X9161000Y-14108728D01*
X9146714Y-14094443D01*
X9132429Y-14065871D01*
X9118143Y-14008728D01*
X9118143Y-13937300D01*
X9132429Y-13880157D01*
X9146714Y-13851586D01*
X9161000Y-13837300D01*
X9189571Y-13823014D01*
X9546714Y-13923014D02*
X9546714Y-14123014D01*
X9475286Y-13808728D02*
X9403857Y-14023014D01*
X9589571Y-14023014D01*
X9675286Y-13823014D02*
X9861000Y-13823014D01*
X9761000Y-13937300D01*
X9803857Y-13937300D01*
X9832429Y-13951586D01*
X9846714Y-13965871D01*
X9861000Y-13994443D01*
X9861000Y-14065871D01*
X9846714Y-14094443D01*
X9832429Y-14108728D01*
X9803857Y-14123014D01*
X9718143Y-14123014D01*
X9689571Y-14108728D01*
X9675286Y-14094443D01*
X9975286Y-13823014D02*
X9975286Y-13880157D01*
X10089571Y-13823014D02*
X10089571Y-13880157D01*
X10532429Y-14237300D02*
X10518143Y-14223014D01*
X10489571Y-14180157D01*
X10475286Y-14151586D01*
X10461000Y-14108728D01*
X10446714Y-14037300D01*
X10446714Y-13980157D01*
X10461000Y-13908728D01*
X10475286Y-13865871D01*
X10489571Y-13837300D01*
X10518143Y-13794443D01*
X10532429Y-13780157D01*
X10803857Y-14123014D02*
X10632429Y-14123014D01*
X10718143Y-14123014D02*
X10718143Y-13823014D01*
X10689571Y-13865871D01*
X10661000Y-13894443D01*
X10632429Y-13908728D01*
X10918143Y-13851586D02*
X10932429Y-13837300D01*
X10961000Y-13823014D01*
X11032429Y-13823014D01*
X11061000Y-13837300D01*
X11075286Y-13851586D01*
X11089571Y-13880157D01*
X11089571Y-13908728D01*
X11075286Y-13951586D01*
X10903857Y-14123014D01*
X11089571Y-14123014D01*
X11446714Y-14123014D02*
X11446714Y-13823014D01*
X11575286Y-14123014D02*
X11575286Y-13965871D01*
X11561000Y-13937300D01*
X11532428Y-13923014D01*
X11489571Y-13923014D01*
X11461000Y-13937300D01*
X11446714Y-13951586D01*
X11761000Y-14123014D02*
X11732428Y-14108728D01*
X11718143Y-14094443D01*
X11703857Y-14065871D01*
X11703857Y-13980157D01*
X11718143Y-13951586D01*
X11732428Y-13937300D01*
X11761000Y-13923014D01*
X11803857Y-13923014D01*
X11832428Y-13937300D01*
X11846714Y-13951586D01*
X11861000Y-13980157D01*
X11861000Y-14065871D01*
X11846714Y-14094443D01*
X11832428Y-14108728D01*
X11803857Y-14123014D01*
X11761000Y-14123014D01*
X12032428Y-14123014D02*
X12003857Y-14108728D01*
X11989571Y-14080157D01*
X11989571Y-13823014D01*
X12261000Y-14108728D02*
X12232428Y-14123014D01*
X12175286Y-14123014D01*
X12146714Y-14108728D01*
X12132428Y-14080157D01*
X12132428Y-13965871D01*
X12146714Y-13937300D01*
X12175286Y-13923014D01*
X12232428Y-13923014D01*
X12261000Y-13937300D01*
X12275286Y-13965871D01*
X12275286Y-13994443D01*
X12132428Y-14023014D01*
X12389571Y-14108728D02*
X12418143Y-14123014D01*
X12475286Y-14123014D01*
X12503857Y-14108728D01*
X12518143Y-14080157D01*
X12518143Y-14065871D01*
X12503857Y-14037300D01*
X12475286Y-14023014D01*
X12432428Y-14023014D01*
X12403857Y-14008728D01*
X12389571Y-13980157D01*
X12389571Y-13965871D01*
X12403857Y-13937300D01*
X12432428Y-13923014D01*
X12475286Y-13923014D01*
X12503857Y-13937300D01*
X12618143Y-14237300D02*
X12632428Y-14223014D01*
X12661000Y-14180157D01*
X12675286Y-14151586D01*
X12689571Y-14108728D01*
X12703857Y-14037300D01*
X12703857Y-13980157D01*
X12689571Y-13908728D01*
X12675286Y-13865871D01*
X12661000Y-13837300D01*
X12632428Y-13794443D01*
X12618143Y-13780157D01*
M02*
