M48
; DRILL file {KiCad (5.1.5)-3} date 7/26/2020 8:47:41 PM
; FORMAT={-:-/ absolute / inch / decimal}
; #@! TF.CreationDate,2020-07-26T20:47:41-04:00
; #@! TF.GenerationSoftware,Kicad,Pcbnew,(5.1.5)-3
; #@! TF.FileFunction,Plated,1,2,PTH
FMAT,2
INCH
T1C0.0079
T2C0.0118
T3C0.0157
T4C0.0236
T5C0.0354
T6C0.0394
T7C0.0433
%
G90
G05
T1
X2.5853Y-4.8703
X2.5853Y-4.9097
X2.6247Y-4.8703
X2.6247Y-4.9097
T2
X2.29Y-5.1834
X2.3506Y-4.3394
X2.3552Y-5.2283
X2.4296Y-4.1479
X2.4825Y-4.255
X2.4825Y-4.8175
X2.55Y-5.1775
X2.5525Y-4.67
X2.6095Y-5.17
X2.7615Y-5.128
X2.85Y-5.1775
X2.8705Y-5.114
X2.885Y-4.7825
X2.91Y-5.1078
X2.9455Y-5.112
X2.9825Y-4.5125
X2.9825Y-4.5625
X2.9825Y-4.595
X2.9825Y-4.6605
X2.9855Y-4.688
X3.0025Y-4.5
X3.015Y-4.694
X3.0725Y-4.525
X3.12Y-4.525
X3.123Y-4.8195
X3.145Y-4.4875
X3.1525Y-4.4225
X3.1625Y-4.0525
X3.165Y-4.24
X3.185Y-3.39
X3.212Y-4.7535
X3.225Y-4.8475
X3.2393Y-4.2825
X3.2725Y-4.3075
X3.295Y-4.325
X3.3141Y-4.345
X3.32Y-4.43
X3.3275Y-4.795
X3.3325Y-4.3575
X3.34Y-3.5535
X3.3468Y-4.6826
X3.3481Y-4.8025
X3.3588Y-4.4062
X3.37Y-4.795
X3.375Y-4.145
X3.3925Y-4.405
X3.3925Y-4.795
X3.4075Y-5.0225
X3.415Y-4.795
X3.4272Y-4.3478
X3.4291Y-4.2701
X3.435Y-5.0225
X3.4475Y-4.62
X3.4559Y-4.4262
X3.4625Y-5.0225
X3.4775Y-4.435
X3.4785Y-4.136
X3.4785Y-4.214
X3.4825Y-5.01
X3.484Y-4.7015
X3.5Y-4.1175
X3.5Y-4.2225
X3.5Y-4.425
X3.505Y-4.715
X3.525Y-4.73
X3.535Y-4.87
X3.5425Y-4.435
X3.55Y-4.895
X3.5555Y-4.8185
X3.56Y-4.635
X3.56Y-4.7375
X3.565Y-4.425
X3.5825Y-4.6625
X3.5825Y-4.7525
X3.5875Y-4.435
X3.6125Y-4.425
X3.6125Y-4.6825
X3.6325Y-4.7075
X3.635Y-4.4425
X3.65Y-4.725
X3.6525Y-4.1775
X3.6775Y-4.7525
X3.68Y-4.2
X3.6925Y-4.5995
X3.7Y-5.128
X3.7325Y-4.2925
X3.77Y-5.005
X3.7728Y-4.8272
X3.7775Y-4.89
X3.785Y-4.3
X3.8085Y-4.7155
X3.81Y-4.535
X3.8175Y-4.5575
X3.8237Y-4.5138
X3.825Y-3.2175
X3.825Y-4.465
X3.8325Y-4.3
X3.8425Y-4.9275
X3.852Y-5.066
X3.87Y-4.3775
X3.8875Y-4.995
X3.9124Y-4.2176
X3.9175Y-4.995
X3.9275Y-4.64
X3.9324Y-4.3299
X3.9397Y-4.6597
X3.95Y-4.995
X3.955Y-4.7025
X3.965Y-3.245
X3.97Y-4.725
X3.975Y-4.75
X3.975Y-4.775
X3.975Y-4.8
X3.9975Y-4.35
X3.998Y-3.4445
X4.0Y-5.0325
X4.0025Y-4.8525
X4.0575Y-3.5825
X4.0775Y-4.785
X4.0875Y-4.1875
X4.1Y-4.165
X4.11Y-3.7575
X4.115Y-4.4605
X4.1325Y-4.4125
X4.1825Y-4.9
X4.2675Y-4.8525
X4.27Y-4.17
X4.27Y-4.5575
X4.28Y-5.12
X4.285Y-3.41
X4.285Y-3.8325
X4.2925Y-4.125
X4.2925Y-4.5275
X4.295Y-3.4475
X4.3141Y-4.0384
X4.3141Y-4.6384
X4.33Y-3.865
X4.335Y-3.9525
X4.335Y-4.66
X4.3561Y-4.3489
X4.3725Y-5.13
T3
X2.2975Y-3.905
X2.2979Y-4.4096
X2.2979Y-4.545
X2.2979Y-4.6096
X2.2979Y-4.7071
X2.2979Y-4.8871
X2.2979Y-4.9946
X2.3425Y-4.5325
X2.3475Y-4.4575
X2.385Y-4.7475
X2.445Y-4.925
X2.45Y-3.905
X2.4575Y-4.725
X2.4875Y-4.4425
X2.5Y-4.5075
X2.5025Y-4.975
X2.51Y-4.3825
X2.5725Y-4.7125
X2.6004Y-4.475
X2.6125Y-3.94
X2.635Y-4.635
X2.665Y-4.7975
X2.7075Y-4.475
X2.7404Y-4.8896
X2.7477Y-4.34
X2.7675Y-3.235
X2.78Y-4.35
X2.81Y-4.36
X2.8154Y-3.07
X2.8475Y-3.19
X2.905Y-3.19
X2.95Y-4.7825
X2.965Y-3.9075
X2.995Y-3.59
X3.0125Y-4.975
X3.0596Y-3.07
X3.1408Y-4.9158
X3.1525Y-2.99
X3.19Y-4.845
X3.3406Y-4.4669
X3.4Y-4.0525
X3.425Y-4.0225
X3.435Y-4.4668
X3.5031Y-3.3969
X3.5031Y-3.5469
X3.505Y-4.0675
X3.5325Y-4.2275
X3.5375Y-3.1225
X3.5625Y-4.0725
X3.65Y-3.48
X3.6825Y-4.0464
X3.695Y-4.41
X3.7454Y-4.7471
X3.7458Y-3.9117
X3.7475Y-4.0
X3.7475Y-4.4625
X3.75Y-4.545
X3.811Y-4.184
X3.8325Y-3.9775
X3.989Y-4.2775
X4.0325Y-4.22
X4.0775Y-4.985
X4.1068Y-3.8893
X4.1775Y-4.4975
X4.195Y-4.35
X4.2675Y-4.9825
X4.27Y-3.685
X4.28Y-3.4875
X4.3026Y-3.9951
X4.3993Y-3.7707
X4.3998Y-4.2352
X4.4006Y-3.9085
X4.4977Y-4.3498
X4.5125Y-4.895
X4.5125Y-4.995
T5
X3.8625Y-2.9125
X3.8625Y-3.0125
T6
X3.675Y-4.12
X3.775Y-4.12
X3.875Y-4.12
X3.35Y-3.245
X3.45Y-3.245
X3.55Y-3.245
X3.65Y-3.245
X3.75Y-3.245
X3.675Y-3.6225
X3.675Y-3.7225
X3.775Y-3.6225
X3.775Y-3.7225
X3.875Y-3.6225
X3.875Y-3.7225
X2.4Y-4.095
X2.4Y-4.195
X2.5Y-4.095
X2.5Y-4.195
X2.6Y-4.095
X2.6Y-4.195
X2.7Y-4.095
X2.7Y-4.195
X2.8Y-4.095
X2.8Y-4.195
X2.9Y-4.095
X2.9Y-4.195
X3.0Y-4.095
X3.0Y-4.195
X3.1Y-4.095
X3.1Y-4.195
X3.2Y-4.095
X3.2Y-4.195
X3.3Y-4.095
X3.3Y-4.195
X3.0Y-3.19
X3.1Y-3.19
X2.4Y-3.19
X2.5Y-3.19
X4.0675Y-3.38
X4.0675Y-3.48
T7
X4.195Y-2.875
X4.195Y-3.0522
X4.4509Y-2.875
X4.4509Y-3.0522
X2.35Y-2.875
X2.35Y-3.0522
X2.6059Y-2.875
X2.6059Y-3.0522
X3.2725Y-2.875
X3.2725Y-3.0522
X3.5284Y-2.875
X3.5284Y-3.0522
T4
G00X4.2394Y-3.2883
M15
G01X4.1961Y-3.2883
M16
G05
G00X4.2394Y-3.5717
M15
G01X4.1961Y-3.5717
M16
G05
G00X4.3792Y-3.2883
M15
G01X4.3359Y-3.2883
M16
G05
G00X4.3792Y-3.5717
M15
G01X4.3359Y-3.5717
M16
G05
T0
M30
