G04 #@! TF.GenerationSoftware,KiCad,Pcbnew,(5.1.5)-3*
G04 #@! TF.CreationDate,2020-07-18T04:54:50-04:00*
G04 #@! TF.ProjectId,MONster64 - NetModule,4d4f4e73-7465-4723-9634-202d204e6574,rev?*
G04 #@! TF.SameCoordinates,Original*
G04 #@! TF.FileFunction,Soldermask,Bot*
G04 #@! TF.FilePolarity,Negative*
%FSLAX46Y46*%
G04 Gerber Fmt 4.6, Leading zero omitted, Abs format (unit mm)*
G04 Created by KiCad (PCBNEW (5.1.5)-3) date 2020-07-18 04:54:50*
%MOMM*%
%LPD*%
G04 APERTURE LIST*
%ADD10C,0.100000*%
%ADD11R,1.900000X1.900000*%
%ADD12C,1.900000*%
%ADD13C,1.890000*%
%ADD14C,2.600000*%
%ADD15C,3.250000*%
%ADD16R,1.700000X1.700000*%
%ADD17O,1.700000X1.700000*%
G04 APERTURE END LIST*
D10*
G36*
X178285505Y-90550704D02*
G01*
X178309773Y-90554304D01*
X178333572Y-90560265D01*
X178356671Y-90568530D01*
X178378850Y-90579020D01*
X178399893Y-90591632D01*
X178419599Y-90606247D01*
X178437777Y-90622723D01*
X178454253Y-90640901D01*
X178468868Y-90660607D01*
X178481480Y-90681650D01*
X178491970Y-90703829D01*
X178500235Y-90726928D01*
X178506196Y-90750727D01*
X178509796Y-90774995D01*
X178511000Y-90799499D01*
X178511000Y-91699501D01*
X178509796Y-91724005D01*
X178506196Y-91748273D01*
X178500235Y-91772072D01*
X178491970Y-91795171D01*
X178481480Y-91817350D01*
X178468868Y-91838393D01*
X178454253Y-91858099D01*
X178437777Y-91876277D01*
X178419599Y-91892753D01*
X178399893Y-91907368D01*
X178378850Y-91919980D01*
X178356671Y-91930470D01*
X178333572Y-91938735D01*
X178309773Y-91944696D01*
X178285505Y-91948296D01*
X178261001Y-91949500D01*
X177610999Y-91949500D01*
X177586495Y-91948296D01*
X177562227Y-91944696D01*
X177538428Y-91938735D01*
X177515329Y-91930470D01*
X177493150Y-91919980D01*
X177472107Y-91907368D01*
X177452401Y-91892753D01*
X177434223Y-91876277D01*
X177417747Y-91858099D01*
X177403132Y-91838393D01*
X177390520Y-91817350D01*
X177380030Y-91795171D01*
X177371765Y-91772072D01*
X177365804Y-91748273D01*
X177362204Y-91724005D01*
X177361000Y-91699501D01*
X177361000Y-90799499D01*
X177362204Y-90774995D01*
X177365804Y-90750727D01*
X177371765Y-90726928D01*
X177380030Y-90703829D01*
X177390520Y-90681650D01*
X177403132Y-90660607D01*
X177417747Y-90640901D01*
X177434223Y-90622723D01*
X177452401Y-90606247D01*
X177472107Y-90591632D01*
X177493150Y-90579020D01*
X177515329Y-90568530D01*
X177538428Y-90560265D01*
X177562227Y-90554304D01*
X177586495Y-90550704D01*
X177610999Y-90549500D01*
X178261001Y-90549500D01*
X178285505Y-90550704D01*
G37*
G36*
X176235505Y-90550704D02*
G01*
X176259773Y-90554304D01*
X176283572Y-90560265D01*
X176306671Y-90568530D01*
X176328850Y-90579020D01*
X176349893Y-90591632D01*
X176369599Y-90606247D01*
X176387777Y-90622723D01*
X176404253Y-90640901D01*
X176418868Y-90660607D01*
X176431480Y-90681650D01*
X176441970Y-90703829D01*
X176450235Y-90726928D01*
X176456196Y-90750727D01*
X176459796Y-90774995D01*
X176461000Y-90799499D01*
X176461000Y-91699501D01*
X176459796Y-91724005D01*
X176456196Y-91748273D01*
X176450235Y-91772072D01*
X176441970Y-91795171D01*
X176431480Y-91817350D01*
X176418868Y-91838393D01*
X176404253Y-91858099D01*
X176387777Y-91876277D01*
X176369599Y-91892753D01*
X176349893Y-91907368D01*
X176328850Y-91919980D01*
X176306671Y-91930470D01*
X176283572Y-91938735D01*
X176259773Y-91944696D01*
X176235505Y-91948296D01*
X176211001Y-91949500D01*
X175560999Y-91949500D01*
X175536495Y-91948296D01*
X175512227Y-91944696D01*
X175488428Y-91938735D01*
X175465329Y-91930470D01*
X175443150Y-91919980D01*
X175422107Y-91907368D01*
X175402401Y-91892753D01*
X175384223Y-91876277D01*
X175367747Y-91858099D01*
X175353132Y-91838393D01*
X175340520Y-91817350D01*
X175330030Y-91795171D01*
X175321765Y-91772072D01*
X175315804Y-91748273D01*
X175312204Y-91724005D01*
X175311000Y-91699501D01*
X175311000Y-90799499D01*
X175312204Y-90774995D01*
X175315804Y-90750727D01*
X175321765Y-90726928D01*
X175330030Y-90703829D01*
X175340520Y-90681650D01*
X175353132Y-90660607D01*
X175367747Y-90640901D01*
X175384223Y-90622723D01*
X175402401Y-90606247D01*
X175422107Y-90591632D01*
X175443150Y-90579020D01*
X175465329Y-90568530D01*
X175488428Y-90560265D01*
X175512227Y-90554304D01*
X175536495Y-90550704D01*
X175560999Y-90549500D01*
X176211001Y-90549500D01*
X176235505Y-90550704D01*
G37*
G36*
X176235505Y-92836704D02*
G01*
X176259773Y-92840304D01*
X176283572Y-92846265D01*
X176306671Y-92854530D01*
X176328850Y-92865020D01*
X176349893Y-92877632D01*
X176369599Y-92892247D01*
X176387777Y-92908723D01*
X176404253Y-92926901D01*
X176418868Y-92946607D01*
X176431480Y-92967650D01*
X176441970Y-92989829D01*
X176450235Y-93012928D01*
X176456196Y-93036727D01*
X176459796Y-93060995D01*
X176461000Y-93085499D01*
X176461000Y-93985501D01*
X176459796Y-94010005D01*
X176456196Y-94034273D01*
X176450235Y-94058072D01*
X176441970Y-94081171D01*
X176431480Y-94103350D01*
X176418868Y-94124393D01*
X176404253Y-94144099D01*
X176387777Y-94162277D01*
X176369599Y-94178753D01*
X176349893Y-94193368D01*
X176328850Y-94205980D01*
X176306671Y-94216470D01*
X176283572Y-94224735D01*
X176259773Y-94230696D01*
X176235505Y-94234296D01*
X176211001Y-94235500D01*
X175560999Y-94235500D01*
X175536495Y-94234296D01*
X175512227Y-94230696D01*
X175488428Y-94224735D01*
X175465329Y-94216470D01*
X175443150Y-94205980D01*
X175422107Y-94193368D01*
X175402401Y-94178753D01*
X175384223Y-94162277D01*
X175367747Y-94144099D01*
X175353132Y-94124393D01*
X175340520Y-94103350D01*
X175330030Y-94081171D01*
X175321765Y-94058072D01*
X175315804Y-94034273D01*
X175312204Y-94010005D01*
X175311000Y-93985501D01*
X175311000Y-93085499D01*
X175312204Y-93060995D01*
X175315804Y-93036727D01*
X175321765Y-93012928D01*
X175330030Y-92989829D01*
X175340520Y-92967650D01*
X175353132Y-92946607D01*
X175367747Y-92926901D01*
X175384223Y-92908723D01*
X175402401Y-92892247D01*
X175422107Y-92877632D01*
X175443150Y-92865020D01*
X175465329Y-92854530D01*
X175488428Y-92846265D01*
X175512227Y-92840304D01*
X175536495Y-92836704D01*
X175560999Y-92835500D01*
X176211001Y-92835500D01*
X176235505Y-92836704D01*
G37*
G36*
X178285505Y-92836704D02*
G01*
X178309773Y-92840304D01*
X178333572Y-92846265D01*
X178356671Y-92854530D01*
X178378850Y-92865020D01*
X178399893Y-92877632D01*
X178419599Y-92892247D01*
X178437777Y-92908723D01*
X178454253Y-92926901D01*
X178468868Y-92946607D01*
X178481480Y-92967650D01*
X178491970Y-92989829D01*
X178500235Y-93012928D01*
X178506196Y-93036727D01*
X178509796Y-93060995D01*
X178511000Y-93085499D01*
X178511000Y-93985501D01*
X178509796Y-94010005D01*
X178506196Y-94034273D01*
X178500235Y-94058072D01*
X178491970Y-94081171D01*
X178481480Y-94103350D01*
X178468868Y-94124393D01*
X178454253Y-94144099D01*
X178437777Y-94162277D01*
X178419599Y-94178753D01*
X178399893Y-94193368D01*
X178378850Y-94205980D01*
X178356671Y-94216470D01*
X178333572Y-94224735D01*
X178309773Y-94230696D01*
X178285505Y-94234296D01*
X178261001Y-94235500D01*
X177610999Y-94235500D01*
X177586495Y-94234296D01*
X177562227Y-94230696D01*
X177538428Y-94224735D01*
X177515329Y-94216470D01*
X177493150Y-94205980D01*
X177472107Y-94193368D01*
X177452401Y-94178753D01*
X177434223Y-94162277D01*
X177417747Y-94144099D01*
X177403132Y-94124393D01*
X177390520Y-94103350D01*
X177380030Y-94081171D01*
X177371765Y-94058072D01*
X177365804Y-94034273D01*
X177362204Y-94010005D01*
X177361000Y-93985501D01*
X177361000Y-93085499D01*
X177362204Y-93060995D01*
X177365804Y-93036727D01*
X177371765Y-93012928D01*
X177380030Y-92989829D01*
X177390520Y-92967650D01*
X177403132Y-92946607D01*
X177417747Y-92926901D01*
X177434223Y-92908723D01*
X177452401Y-92892247D01*
X177472107Y-92877632D01*
X177493150Y-92865020D01*
X177515329Y-92854530D01*
X177538428Y-92846265D01*
X177562227Y-92840304D01*
X177586495Y-92836704D01*
X177610999Y-92835500D01*
X178261001Y-92835500D01*
X178285505Y-92836704D01*
G37*
G36*
X178285505Y-95122704D02*
G01*
X178309773Y-95126304D01*
X178333572Y-95132265D01*
X178356671Y-95140530D01*
X178378850Y-95151020D01*
X178399893Y-95163632D01*
X178419599Y-95178247D01*
X178437777Y-95194723D01*
X178454253Y-95212901D01*
X178468868Y-95232607D01*
X178481480Y-95253650D01*
X178491970Y-95275829D01*
X178500235Y-95298928D01*
X178506196Y-95322727D01*
X178509796Y-95346995D01*
X178511000Y-95371499D01*
X178511000Y-96271501D01*
X178509796Y-96296005D01*
X178506196Y-96320273D01*
X178500235Y-96344072D01*
X178491970Y-96367171D01*
X178481480Y-96389350D01*
X178468868Y-96410393D01*
X178454253Y-96430099D01*
X178437777Y-96448277D01*
X178419599Y-96464753D01*
X178399893Y-96479368D01*
X178378850Y-96491980D01*
X178356671Y-96502470D01*
X178333572Y-96510735D01*
X178309773Y-96516696D01*
X178285505Y-96520296D01*
X178261001Y-96521500D01*
X177610999Y-96521500D01*
X177586495Y-96520296D01*
X177562227Y-96516696D01*
X177538428Y-96510735D01*
X177515329Y-96502470D01*
X177493150Y-96491980D01*
X177472107Y-96479368D01*
X177452401Y-96464753D01*
X177434223Y-96448277D01*
X177417747Y-96430099D01*
X177403132Y-96410393D01*
X177390520Y-96389350D01*
X177380030Y-96367171D01*
X177371765Y-96344072D01*
X177365804Y-96320273D01*
X177362204Y-96296005D01*
X177361000Y-96271501D01*
X177361000Y-95371499D01*
X177362204Y-95346995D01*
X177365804Y-95322727D01*
X177371765Y-95298928D01*
X177380030Y-95275829D01*
X177390520Y-95253650D01*
X177403132Y-95232607D01*
X177417747Y-95212901D01*
X177434223Y-95194723D01*
X177452401Y-95178247D01*
X177472107Y-95163632D01*
X177493150Y-95151020D01*
X177515329Y-95140530D01*
X177538428Y-95132265D01*
X177562227Y-95126304D01*
X177586495Y-95122704D01*
X177610999Y-95121500D01*
X178261001Y-95121500D01*
X178285505Y-95122704D01*
G37*
G36*
X176235505Y-95122704D02*
G01*
X176259773Y-95126304D01*
X176283572Y-95132265D01*
X176306671Y-95140530D01*
X176328850Y-95151020D01*
X176349893Y-95163632D01*
X176369599Y-95178247D01*
X176387777Y-95194723D01*
X176404253Y-95212901D01*
X176418868Y-95232607D01*
X176431480Y-95253650D01*
X176441970Y-95275829D01*
X176450235Y-95298928D01*
X176456196Y-95322727D01*
X176459796Y-95346995D01*
X176461000Y-95371499D01*
X176461000Y-96271501D01*
X176459796Y-96296005D01*
X176456196Y-96320273D01*
X176450235Y-96344072D01*
X176441970Y-96367171D01*
X176431480Y-96389350D01*
X176418868Y-96410393D01*
X176404253Y-96430099D01*
X176387777Y-96448277D01*
X176369599Y-96464753D01*
X176349893Y-96479368D01*
X176328850Y-96491980D01*
X176306671Y-96502470D01*
X176283572Y-96510735D01*
X176259773Y-96516696D01*
X176235505Y-96520296D01*
X176211001Y-96521500D01*
X175560999Y-96521500D01*
X175536495Y-96520296D01*
X175512227Y-96516696D01*
X175488428Y-96510735D01*
X175465329Y-96502470D01*
X175443150Y-96491980D01*
X175422107Y-96479368D01*
X175402401Y-96464753D01*
X175384223Y-96448277D01*
X175367747Y-96430099D01*
X175353132Y-96410393D01*
X175340520Y-96389350D01*
X175330030Y-96367171D01*
X175321765Y-96344072D01*
X175315804Y-96320273D01*
X175312204Y-96296005D01*
X175311000Y-96271501D01*
X175311000Y-95371499D01*
X175312204Y-95346995D01*
X175315804Y-95322727D01*
X175321765Y-95298928D01*
X175330030Y-95275829D01*
X175340520Y-95253650D01*
X175353132Y-95232607D01*
X175367747Y-95212901D01*
X175384223Y-95194723D01*
X175402401Y-95178247D01*
X175422107Y-95163632D01*
X175443150Y-95151020D01*
X175465329Y-95140530D01*
X175488428Y-95132265D01*
X175512227Y-95126304D01*
X175536495Y-95122704D01*
X175560999Y-95121500D01*
X176211001Y-95121500D01*
X176235505Y-95122704D01*
G37*
G36*
X178285505Y-97408704D02*
G01*
X178309773Y-97412304D01*
X178333572Y-97418265D01*
X178356671Y-97426530D01*
X178378850Y-97437020D01*
X178399893Y-97449632D01*
X178419599Y-97464247D01*
X178437777Y-97480723D01*
X178454253Y-97498901D01*
X178468868Y-97518607D01*
X178481480Y-97539650D01*
X178491970Y-97561829D01*
X178500235Y-97584928D01*
X178506196Y-97608727D01*
X178509796Y-97632995D01*
X178511000Y-97657499D01*
X178511000Y-98557501D01*
X178509796Y-98582005D01*
X178506196Y-98606273D01*
X178500235Y-98630072D01*
X178491970Y-98653171D01*
X178481480Y-98675350D01*
X178468868Y-98696393D01*
X178454253Y-98716099D01*
X178437777Y-98734277D01*
X178419599Y-98750753D01*
X178399893Y-98765368D01*
X178378850Y-98777980D01*
X178356671Y-98788470D01*
X178333572Y-98796735D01*
X178309773Y-98802696D01*
X178285505Y-98806296D01*
X178261001Y-98807500D01*
X177610999Y-98807500D01*
X177586495Y-98806296D01*
X177562227Y-98802696D01*
X177538428Y-98796735D01*
X177515329Y-98788470D01*
X177493150Y-98777980D01*
X177472107Y-98765368D01*
X177452401Y-98750753D01*
X177434223Y-98734277D01*
X177417747Y-98716099D01*
X177403132Y-98696393D01*
X177390520Y-98675350D01*
X177380030Y-98653171D01*
X177371765Y-98630072D01*
X177365804Y-98606273D01*
X177362204Y-98582005D01*
X177361000Y-98557501D01*
X177361000Y-97657499D01*
X177362204Y-97632995D01*
X177365804Y-97608727D01*
X177371765Y-97584928D01*
X177380030Y-97561829D01*
X177390520Y-97539650D01*
X177403132Y-97518607D01*
X177417747Y-97498901D01*
X177434223Y-97480723D01*
X177452401Y-97464247D01*
X177472107Y-97449632D01*
X177493150Y-97437020D01*
X177515329Y-97426530D01*
X177538428Y-97418265D01*
X177562227Y-97412304D01*
X177586495Y-97408704D01*
X177610999Y-97407500D01*
X178261001Y-97407500D01*
X178285505Y-97408704D01*
G37*
G36*
X176235505Y-97408704D02*
G01*
X176259773Y-97412304D01*
X176283572Y-97418265D01*
X176306671Y-97426530D01*
X176328850Y-97437020D01*
X176349893Y-97449632D01*
X176369599Y-97464247D01*
X176387777Y-97480723D01*
X176404253Y-97498901D01*
X176418868Y-97518607D01*
X176431480Y-97539650D01*
X176441970Y-97561829D01*
X176450235Y-97584928D01*
X176456196Y-97608727D01*
X176459796Y-97632995D01*
X176461000Y-97657499D01*
X176461000Y-98557501D01*
X176459796Y-98582005D01*
X176456196Y-98606273D01*
X176450235Y-98630072D01*
X176441970Y-98653171D01*
X176431480Y-98675350D01*
X176418868Y-98696393D01*
X176404253Y-98716099D01*
X176387777Y-98734277D01*
X176369599Y-98750753D01*
X176349893Y-98765368D01*
X176328850Y-98777980D01*
X176306671Y-98788470D01*
X176283572Y-98796735D01*
X176259773Y-98802696D01*
X176235505Y-98806296D01*
X176211001Y-98807500D01*
X175560999Y-98807500D01*
X175536495Y-98806296D01*
X175512227Y-98802696D01*
X175488428Y-98796735D01*
X175465329Y-98788470D01*
X175443150Y-98777980D01*
X175422107Y-98765368D01*
X175402401Y-98750753D01*
X175384223Y-98734277D01*
X175367747Y-98716099D01*
X175353132Y-98696393D01*
X175340520Y-98675350D01*
X175330030Y-98653171D01*
X175321765Y-98630072D01*
X175315804Y-98606273D01*
X175312204Y-98582005D01*
X175311000Y-98557501D01*
X175311000Y-97657499D01*
X175312204Y-97632995D01*
X175315804Y-97608727D01*
X175321765Y-97584928D01*
X175330030Y-97561829D01*
X175340520Y-97539650D01*
X175353132Y-97518607D01*
X175367747Y-97498901D01*
X175384223Y-97480723D01*
X175402401Y-97464247D01*
X175422107Y-97449632D01*
X175443150Y-97437020D01*
X175465329Y-97426530D01*
X175488428Y-97418265D01*
X175512227Y-97412304D01*
X175536495Y-97408704D01*
X175560999Y-97407500D01*
X176211001Y-97407500D01*
X176235505Y-97408704D01*
G37*
G36*
X169123505Y-90550704D02*
G01*
X169147773Y-90554304D01*
X169171572Y-90560265D01*
X169194671Y-90568530D01*
X169216850Y-90579020D01*
X169237893Y-90591632D01*
X169257599Y-90606247D01*
X169275777Y-90622723D01*
X169292253Y-90640901D01*
X169306868Y-90660607D01*
X169319480Y-90681650D01*
X169329970Y-90703829D01*
X169338235Y-90726928D01*
X169344196Y-90750727D01*
X169347796Y-90774995D01*
X169349000Y-90799499D01*
X169349000Y-91699501D01*
X169347796Y-91724005D01*
X169344196Y-91748273D01*
X169338235Y-91772072D01*
X169329970Y-91795171D01*
X169319480Y-91817350D01*
X169306868Y-91838393D01*
X169292253Y-91858099D01*
X169275777Y-91876277D01*
X169257599Y-91892753D01*
X169237893Y-91907368D01*
X169216850Y-91919980D01*
X169194671Y-91930470D01*
X169171572Y-91938735D01*
X169147773Y-91944696D01*
X169123505Y-91948296D01*
X169099001Y-91949500D01*
X168448999Y-91949500D01*
X168424495Y-91948296D01*
X168400227Y-91944696D01*
X168376428Y-91938735D01*
X168353329Y-91930470D01*
X168331150Y-91919980D01*
X168310107Y-91907368D01*
X168290401Y-91892753D01*
X168272223Y-91876277D01*
X168255747Y-91858099D01*
X168241132Y-91838393D01*
X168228520Y-91817350D01*
X168218030Y-91795171D01*
X168209765Y-91772072D01*
X168203804Y-91748273D01*
X168200204Y-91724005D01*
X168199000Y-91699501D01*
X168199000Y-90799499D01*
X168200204Y-90774995D01*
X168203804Y-90750727D01*
X168209765Y-90726928D01*
X168218030Y-90703829D01*
X168228520Y-90681650D01*
X168241132Y-90660607D01*
X168255747Y-90640901D01*
X168272223Y-90622723D01*
X168290401Y-90606247D01*
X168310107Y-90591632D01*
X168331150Y-90579020D01*
X168353329Y-90568530D01*
X168376428Y-90560265D01*
X168400227Y-90554304D01*
X168424495Y-90550704D01*
X168448999Y-90549500D01*
X169099001Y-90549500D01*
X169123505Y-90550704D01*
G37*
G36*
X171173505Y-90550704D02*
G01*
X171197773Y-90554304D01*
X171221572Y-90560265D01*
X171244671Y-90568530D01*
X171266850Y-90579020D01*
X171287893Y-90591632D01*
X171307599Y-90606247D01*
X171325777Y-90622723D01*
X171342253Y-90640901D01*
X171356868Y-90660607D01*
X171369480Y-90681650D01*
X171379970Y-90703829D01*
X171388235Y-90726928D01*
X171394196Y-90750727D01*
X171397796Y-90774995D01*
X171399000Y-90799499D01*
X171399000Y-91699501D01*
X171397796Y-91724005D01*
X171394196Y-91748273D01*
X171388235Y-91772072D01*
X171379970Y-91795171D01*
X171369480Y-91817350D01*
X171356868Y-91838393D01*
X171342253Y-91858099D01*
X171325777Y-91876277D01*
X171307599Y-91892753D01*
X171287893Y-91907368D01*
X171266850Y-91919980D01*
X171244671Y-91930470D01*
X171221572Y-91938735D01*
X171197773Y-91944696D01*
X171173505Y-91948296D01*
X171149001Y-91949500D01*
X170498999Y-91949500D01*
X170474495Y-91948296D01*
X170450227Y-91944696D01*
X170426428Y-91938735D01*
X170403329Y-91930470D01*
X170381150Y-91919980D01*
X170360107Y-91907368D01*
X170340401Y-91892753D01*
X170322223Y-91876277D01*
X170305747Y-91858099D01*
X170291132Y-91838393D01*
X170278520Y-91817350D01*
X170268030Y-91795171D01*
X170259765Y-91772072D01*
X170253804Y-91748273D01*
X170250204Y-91724005D01*
X170249000Y-91699501D01*
X170249000Y-90799499D01*
X170250204Y-90774995D01*
X170253804Y-90750727D01*
X170259765Y-90726928D01*
X170268030Y-90703829D01*
X170278520Y-90681650D01*
X170291132Y-90660607D01*
X170305747Y-90640901D01*
X170322223Y-90622723D01*
X170340401Y-90606247D01*
X170360107Y-90591632D01*
X170381150Y-90579020D01*
X170403329Y-90568530D01*
X170426428Y-90560265D01*
X170450227Y-90554304D01*
X170474495Y-90550704D01*
X170498999Y-90549500D01*
X171149001Y-90549500D01*
X171173505Y-90550704D01*
G37*
G36*
X171173505Y-92836704D02*
G01*
X171197773Y-92840304D01*
X171221572Y-92846265D01*
X171244671Y-92854530D01*
X171266850Y-92865020D01*
X171287893Y-92877632D01*
X171307599Y-92892247D01*
X171325777Y-92908723D01*
X171342253Y-92926901D01*
X171356868Y-92946607D01*
X171369480Y-92967650D01*
X171379970Y-92989829D01*
X171388235Y-93012928D01*
X171394196Y-93036727D01*
X171397796Y-93060995D01*
X171399000Y-93085499D01*
X171399000Y-93985501D01*
X171397796Y-94010005D01*
X171394196Y-94034273D01*
X171388235Y-94058072D01*
X171379970Y-94081171D01*
X171369480Y-94103350D01*
X171356868Y-94124393D01*
X171342253Y-94144099D01*
X171325777Y-94162277D01*
X171307599Y-94178753D01*
X171287893Y-94193368D01*
X171266850Y-94205980D01*
X171244671Y-94216470D01*
X171221572Y-94224735D01*
X171197773Y-94230696D01*
X171173505Y-94234296D01*
X171149001Y-94235500D01*
X170498999Y-94235500D01*
X170474495Y-94234296D01*
X170450227Y-94230696D01*
X170426428Y-94224735D01*
X170403329Y-94216470D01*
X170381150Y-94205980D01*
X170360107Y-94193368D01*
X170340401Y-94178753D01*
X170322223Y-94162277D01*
X170305747Y-94144099D01*
X170291132Y-94124393D01*
X170278520Y-94103350D01*
X170268030Y-94081171D01*
X170259765Y-94058072D01*
X170253804Y-94034273D01*
X170250204Y-94010005D01*
X170249000Y-93985501D01*
X170249000Y-93085499D01*
X170250204Y-93060995D01*
X170253804Y-93036727D01*
X170259765Y-93012928D01*
X170268030Y-92989829D01*
X170278520Y-92967650D01*
X170291132Y-92946607D01*
X170305747Y-92926901D01*
X170322223Y-92908723D01*
X170340401Y-92892247D01*
X170360107Y-92877632D01*
X170381150Y-92865020D01*
X170403329Y-92854530D01*
X170426428Y-92846265D01*
X170450227Y-92840304D01*
X170474495Y-92836704D01*
X170498999Y-92835500D01*
X171149001Y-92835500D01*
X171173505Y-92836704D01*
G37*
G36*
X169123505Y-92836704D02*
G01*
X169147773Y-92840304D01*
X169171572Y-92846265D01*
X169194671Y-92854530D01*
X169216850Y-92865020D01*
X169237893Y-92877632D01*
X169257599Y-92892247D01*
X169275777Y-92908723D01*
X169292253Y-92926901D01*
X169306868Y-92946607D01*
X169319480Y-92967650D01*
X169329970Y-92989829D01*
X169338235Y-93012928D01*
X169344196Y-93036727D01*
X169347796Y-93060995D01*
X169349000Y-93085499D01*
X169349000Y-93985501D01*
X169347796Y-94010005D01*
X169344196Y-94034273D01*
X169338235Y-94058072D01*
X169329970Y-94081171D01*
X169319480Y-94103350D01*
X169306868Y-94124393D01*
X169292253Y-94144099D01*
X169275777Y-94162277D01*
X169257599Y-94178753D01*
X169237893Y-94193368D01*
X169216850Y-94205980D01*
X169194671Y-94216470D01*
X169171572Y-94224735D01*
X169147773Y-94230696D01*
X169123505Y-94234296D01*
X169099001Y-94235500D01*
X168448999Y-94235500D01*
X168424495Y-94234296D01*
X168400227Y-94230696D01*
X168376428Y-94224735D01*
X168353329Y-94216470D01*
X168331150Y-94205980D01*
X168310107Y-94193368D01*
X168290401Y-94178753D01*
X168272223Y-94162277D01*
X168255747Y-94144099D01*
X168241132Y-94124393D01*
X168228520Y-94103350D01*
X168218030Y-94081171D01*
X168209765Y-94058072D01*
X168203804Y-94034273D01*
X168200204Y-94010005D01*
X168199000Y-93985501D01*
X168199000Y-93085499D01*
X168200204Y-93060995D01*
X168203804Y-93036727D01*
X168209765Y-93012928D01*
X168218030Y-92989829D01*
X168228520Y-92967650D01*
X168241132Y-92946607D01*
X168255747Y-92926901D01*
X168272223Y-92908723D01*
X168290401Y-92892247D01*
X168310107Y-92877632D01*
X168331150Y-92865020D01*
X168353329Y-92854530D01*
X168376428Y-92846265D01*
X168400227Y-92840304D01*
X168424495Y-92836704D01*
X168448999Y-92835500D01*
X169099001Y-92835500D01*
X169123505Y-92836704D01*
G37*
G36*
X169123505Y-95122704D02*
G01*
X169147773Y-95126304D01*
X169171572Y-95132265D01*
X169194671Y-95140530D01*
X169216850Y-95151020D01*
X169237893Y-95163632D01*
X169257599Y-95178247D01*
X169275777Y-95194723D01*
X169292253Y-95212901D01*
X169306868Y-95232607D01*
X169319480Y-95253650D01*
X169329970Y-95275829D01*
X169338235Y-95298928D01*
X169344196Y-95322727D01*
X169347796Y-95346995D01*
X169349000Y-95371499D01*
X169349000Y-96271501D01*
X169347796Y-96296005D01*
X169344196Y-96320273D01*
X169338235Y-96344072D01*
X169329970Y-96367171D01*
X169319480Y-96389350D01*
X169306868Y-96410393D01*
X169292253Y-96430099D01*
X169275777Y-96448277D01*
X169257599Y-96464753D01*
X169237893Y-96479368D01*
X169216850Y-96491980D01*
X169194671Y-96502470D01*
X169171572Y-96510735D01*
X169147773Y-96516696D01*
X169123505Y-96520296D01*
X169099001Y-96521500D01*
X168448999Y-96521500D01*
X168424495Y-96520296D01*
X168400227Y-96516696D01*
X168376428Y-96510735D01*
X168353329Y-96502470D01*
X168331150Y-96491980D01*
X168310107Y-96479368D01*
X168290401Y-96464753D01*
X168272223Y-96448277D01*
X168255747Y-96430099D01*
X168241132Y-96410393D01*
X168228520Y-96389350D01*
X168218030Y-96367171D01*
X168209765Y-96344072D01*
X168203804Y-96320273D01*
X168200204Y-96296005D01*
X168199000Y-96271501D01*
X168199000Y-95371499D01*
X168200204Y-95346995D01*
X168203804Y-95322727D01*
X168209765Y-95298928D01*
X168218030Y-95275829D01*
X168228520Y-95253650D01*
X168241132Y-95232607D01*
X168255747Y-95212901D01*
X168272223Y-95194723D01*
X168290401Y-95178247D01*
X168310107Y-95163632D01*
X168331150Y-95151020D01*
X168353329Y-95140530D01*
X168376428Y-95132265D01*
X168400227Y-95126304D01*
X168424495Y-95122704D01*
X168448999Y-95121500D01*
X169099001Y-95121500D01*
X169123505Y-95122704D01*
G37*
G36*
X171173505Y-95122704D02*
G01*
X171197773Y-95126304D01*
X171221572Y-95132265D01*
X171244671Y-95140530D01*
X171266850Y-95151020D01*
X171287893Y-95163632D01*
X171307599Y-95178247D01*
X171325777Y-95194723D01*
X171342253Y-95212901D01*
X171356868Y-95232607D01*
X171369480Y-95253650D01*
X171379970Y-95275829D01*
X171388235Y-95298928D01*
X171394196Y-95322727D01*
X171397796Y-95346995D01*
X171399000Y-95371499D01*
X171399000Y-96271501D01*
X171397796Y-96296005D01*
X171394196Y-96320273D01*
X171388235Y-96344072D01*
X171379970Y-96367171D01*
X171369480Y-96389350D01*
X171356868Y-96410393D01*
X171342253Y-96430099D01*
X171325777Y-96448277D01*
X171307599Y-96464753D01*
X171287893Y-96479368D01*
X171266850Y-96491980D01*
X171244671Y-96502470D01*
X171221572Y-96510735D01*
X171197773Y-96516696D01*
X171173505Y-96520296D01*
X171149001Y-96521500D01*
X170498999Y-96521500D01*
X170474495Y-96520296D01*
X170450227Y-96516696D01*
X170426428Y-96510735D01*
X170403329Y-96502470D01*
X170381150Y-96491980D01*
X170360107Y-96479368D01*
X170340401Y-96464753D01*
X170322223Y-96448277D01*
X170305747Y-96430099D01*
X170291132Y-96410393D01*
X170278520Y-96389350D01*
X170268030Y-96367171D01*
X170259765Y-96344072D01*
X170253804Y-96320273D01*
X170250204Y-96296005D01*
X170249000Y-96271501D01*
X170249000Y-95371499D01*
X170250204Y-95346995D01*
X170253804Y-95322727D01*
X170259765Y-95298928D01*
X170268030Y-95275829D01*
X170278520Y-95253650D01*
X170291132Y-95232607D01*
X170305747Y-95212901D01*
X170322223Y-95194723D01*
X170340401Y-95178247D01*
X170360107Y-95163632D01*
X170381150Y-95151020D01*
X170403329Y-95140530D01*
X170426428Y-95132265D01*
X170450227Y-95126304D01*
X170474495Y-95122704D01*
X170498999Y-95121500D01*
X171149001Y-95121500D01*
X171173505Y-95122704D01*
G37*
G36*
X171173505Y-97408704D02*
G01*
X171197773Y-97412304D01*
X171221572Y-97418265D01*
X171244671Y-97426530D01*
X171266850Y-97437020D01*
X171287893Y-97449632D01*
X171307599Y-97464247D01*
X171325777Y-97480723D01*
X171342253Y-97498901D01*
X171356868Y-97518607D01*
X171369480Y-97539650D01*
X171379970Y-97561829D01*
X171388235Y-97584928D01*
X171394196Y-97608727D01*
X171397796Y-97632995D01*
X171399000Y-97657499D01*
X171399000Y-98557501D01*
X171397796Y-98582005D01*
X171394196Y-98606273D01*
X171388235Y-98630072D01*
X171379970Y-98653171D01*
X171369480Y-98675350D01*
X171356868Y-98696393D01*
X171342253Y-98716099D01*
X171325777Y-98734277D01*
X171307599Y-98750753D01*
X171287893Y-98765368D01*
X171266850Y-98777980D01*
X171244671Y-98788470D01*
X171221572Y-98796735D01*
X171197773Y-98802696D01*
X171173505Y-98806296D01*
X171149001Y-98807500D01*
X170498999Y-98807500D01*
X170474495Y-98806296D01*
X170450227Y-98802696D01*
X170426428Y-98796735D01*
X170403329Y-98788470D01*
X170381150Y-98777980D01*
X170360107Y-98765368D01*
X170340401Y-98750753D01*
X170322223Y-98734277D01*
X170305747Y-98716099D01*
X170291132Y-98696393D01*
X170278520Y-98675350D01*
X170268030Y-98653171D01*
X170259765Y-98630072D01*
X170253804Y-98606273D01*
X170250204Y-98582005D01*
X170249000Y-98557501D01*
X170249000Y-97657499D01*
X170250204Y-97632995D01*
X170253804Y-97608727D01*
X170259765Y-97584928D01*
X170268030Y-97561829D01*
X170278520Y-97539650D01*
X170291132Y-97518607D01*
X170305747Y-97498901D01*
X170322223Y-97480723D01*
X170340401Y-97464247D01*
X170360107Y-97449632D01*
X170381150Y-97437020D01*
X170403329Y-97426530D01*
X170426428Y-97418265D01*
X170450227Y-97412304D01*
X170474495Y-97408704D01*
X170498999Y-97407500D01*
X171149001Y-97407500D01*
X171173505Y-97408704D01*
G37*
G36*
X169123505Y-97408704D02*
G01*
X169147773Y-97412304D01*
X169171572Y-97418265D01*
X169194671Y-97426530D01*
X169216850Y-97437020D01*
X169237893Y-97449632D01*
X169257599Y-97464247D01*
X169275777Y-97480723D01*
X169292253Y-97498901D01*
X169306868Y-97518607D01*
X169319480Y-97539650D01*
X169329970Y-97561829D01*
X169338235Y-97584928D01*
X169344196Y-97608727D01*
X169347796Y-97632995D01*
X169349000Y-97657499D01*
X169349000Y-98557501D01*
X169347796Y-98582005D01*
X169344196Y-98606273D01*
X169338235Y-98630072D01*
X169329970Y-98653171D01*
X169319480Y-98675350D01*
X169306868Y-98696393D01*
X169292253Y-98716099D01*
X169275777Y-98734277D01*
X169257599Y-98750753D01*
X169237893Y-98765368D01*
X169216850Y-98777980D01*
X169194671Y-98788470D01*
X169171572Y-98796735D01*
X169147773Y-98802696D01*
X169123505Y-98806296D01*
X169099001Y-98807500D01*
X168448999Y-98807500D01*
X168424495Y-98806296D01*
X168400227Y-98802696D01*
X168376428Y-98796735D01*
X168353329Y-98788470D01*
X168331150Y-98777980D01*
X168310107Y-98765368D01*
X168290401Y-98750753D01*
X168272223Y-98734277D01*
X168255747Y-98716099D01*
X168241132Y-98696393D01*
X168228520Y-98675350D01*
X168218030Y-98653171D01*
X168209765Y-98630072D01*
X168203804Y-98606273D01*
X168200204Y-98582005D01*
X168199000Y-98557501D01*
X168199000Y-97657499D01*
X168200204Y-97632995D01*
X168203804Y-97608727D01*
X168209765Y-97584928D01*
X168218030Y-97561829D01*
X168228520Y-97539650D01*
X168241132Y-97518607D01*
X168255747Y-97498901D01*
X168272223Y-97480723D01*
X168290401Y-97464247D01*
X168310107Y-97449632D01*
X168331150Y-97437020D01*
X168353329Y-97426530D01*
X168376428Y-97418265D01*
X168400227Y-97412304D01*
X168424495Y-97408704D01*
X168448999Y-97407500D01*
X169099001Y-97407500D01*
X169123505Y-97408704D01*
G37*
D11*
X147955000Y-98679000D03*
D12*
X150495000Y-97409000D03*
X147955000Y-96139000D03*
X150495000Y-94869000D03*
X147955000Y-93599000D03*
X150495000Y-92329000D03*
X147955000Y-91059000D03*
X150495000Y-89789000D03*
D13*
X138235000Y-87909000D03*
X136715000Y-90449000D03*
X138235000Y-98019000D03*
X136715000Y-100559000D03*
D14*
X144665000Y-102009000D03*
X144665000Y-86459000D03*
D15*
X141615000Y-99949000D03*
X141615000Y-88519000D03*
D16*
X137160000Y-82740500D03*
D17*
X139700000Y-82740500D03*
X154940000Y-82740500D03*
D16*
X152400000Y-82740500D03*
X137160000Y-105727500D03*
D17*
X137160000Y-108267500D03*
X139700000Y-105727500D03*
X139700000Y-108267500D03*
X142240000Y-105727500D03*
X142240000Y-108267500D03*
X144780000Y-105727500D03*
X144780000Y-108267500D03*
X147320000Y-105727500D03*
X147320000Y-108267500D03*
X149860000Y-105727500D03*
X149860000Y-108267500D03*
X152400000Y-105727500D03*
X152400000Y-108267500D03*
X154940000Y-105727500D03*
X154940000Y-108267500D03*
X157480000Y-105727500D03*
X157480000Y-108267500D03*
X160020000Y-105727500D03*
X160020000Y-108267500D03*
M02*
