G04 #@! TF.GenerationSoftware,KiCad,Pcbnew,(5.1.5)-3*
G04 #@! TF.CreationDate,2020-07-18T04:54:50-04:00*
G04 #@! TF.ProjectId,MONster64 - NetModule,4d4f4e73-7465-4723-9634-202d204e6574,rev?*
G04 #@! TF.SameCoordinates,Original*
G04 #@! TF.FileFunction,Legend,Bot*
G04 #@! TF.FilePolarity,Positive*
%FSLAX46Y46*%
G04 Gerber Fmt 4.6, Leading zero omitted, Abs format (unit mm)*
G04 Created by KiCad (PCBNEW (5.1.5)-3) date 2020-07-18 04:54:50*
%MOMM*%
%LPD*%
G04 APERTURE LIST*
%ADD10C,0.120000*%
%ADD11C,0.150000*%
G04 APERTURE END LIST*
D10*
X177172252Y-90539500D02*
X176649748Y-90539500D01*
X177172252Y-91959500D02*
X176649748Y-91959500D01*
X177172252Y-94245500D02*
X176649748Y-94245500D01*
X177172252Y-92825500D02*
X176649748Y-92825500D01*
X177172252Y-95111500D02*
X176649748Y-95111500D01*
X177172252Y-96531500D02*
X176649748Y-96531500D01*
X177172252Y-97397500D02*
X176649748Y-97397500D01*
X177172252Y-98817500D02*
X176649748Y-98817500D01*
X170060252Y-91959500D02*
X169537748Y-91959500D01*
X170060252Y-90539500D02*
X169537748Y-90539500D01*
X170060252Y-92825500D02*
X169537748Y-92825500D01*
X170060252Y-94245500D02*
X169537748Y-94245500D01*
X170060252Y-96531500D02*
X169537748Y-96531500D01*
X170060252Y-95111500D02*
X169537748Y-95111500D01*
X170060252Y-97397500D02*
X169537748Y-97397500D01*
X170060252Y-98817500D02*
X169537748Y-98817500D01*
X146265000Y-102209000D02*
X152545000Y-102209000D01*
X152545000Y-102209000D02*
X152545000Y-86259000D01*
X152545000Y-86259000D02*
X146265000Y-86259000D01*
X143065000Y-86259000D02*
X130625000Y-86259000D01*
X130625000Y-86259000D02*
X130625000Y-102209000D01*
X130625000Y-102209000D02*
X143065000Y-102209000D01*
X148955000Y-102409000D02*
X146955000Y-102409000D01*
X141030000Y-81410500D02*
X141030000Y-84070500D01*
X138430000Y-81410500D02*
X141030000Y-81410500D01*
X138430000Y-84070500D02*
X141030000Y-84070500D01*
X138430000Y-81410500D02*
X138430000Y-84070500D01*
X137160000Y-81410500D02*
X135830000Y-81410500D01*
X135830000Y-81410500D02*
X135830000Y-82740500D01*
X151070000Y-81410500D02*
X151070000Y-82740500D01*
X152400000Y-81410500D02*
X151070000Y-81410500D01*
X153670000Y-81410500D02*
X153670000Y-84070500D01*
X153670000Y-84070500D02*
X156270000Y-84070500D01*
X153670000Y-81410500D02*
X156270000Y-81410500D01*
X156270000Y-81410500D02*
X156270000Y-84070500D01*
X161350000Y-104397500D02*
X161350000Y-109597500D01*
X138430000Y-104397500D02*
X161350000Y-104397500D01*
X135830000Y-109597500D02*
X161350000Y-109597500D01*
X138430000Y-104397500D02*
X138430000Y-106997500D01*
X138430000Y-106997500D02*
X135830000Y-106997500D01*
X135830000Y-106997500D02*
X135830000Y-109597500D01*
X137160000Y-104397500D02*
X135830000Y-104397500D01*
X135830000Y-104397500D02*
X135830000Y-105727500D01*
D11*
X177553857Y-91606642D02*
X177601476Y-91654261D01*
X177744333Y-91701880D01*
X177839571Y-91701880D01*
X177982428Y-91654261D01*
X178077666Y-91559023D01*
X178125285Y-91463785D01*
X178172904Y-91273309D01*
X178172904Y-91130452D01*
X178125285Y-90939976D01*
X178077666Y-90844738D01*
X177982428Y-90749500D01*
X177839571Y-90701880D01*
X177744333Y-90701880D01*
X177601476Y-90749500D01*
X177553857Y-90797119D01*
X177172904Y-90797119D02*
X177125285Y-90749500D01*
X177030047Y-90701880D01*
X176791952Y-90701880D01*
X176696714Y-90749500D01*
X176649095Y-90797119D01*
X176601476Y-90892357D01*
X176601476Y-90987595D01*
X176649095Y-91130452D01*
X177220523Y-91701880D01*
X176601476Y-91701880D01*
X176125285Y-91701880D02*
X175934809Y-91701880D01*
X175839571Y-91654261D01*
X175791952Y-91606642D01*
X175696714Y-91463785D01*
X175649095Y-91273309D01*
X175649095Y-90892357D01*
X175696714Y-90797119D01*
X175744333Y-90749500D01*
X175839571Y-90701880D01*
X176030047Y-90701880D01*
X176125285Y-90749500D01*
X176172904Y-90797119D01*
X176220523Y-90892357D01*
X176220523Y-91130452D01*
X176172904Y-91225690D01*
X176125285Y-91273309D01*
X176030047Y-91320928D01*
X175839571Y-91320928D01*
X175744333Y-91273309D01*
X175696714Y-91225690D01*
X175649095Y-91130452D01*
X177553857Y-93956142D02*
X177601476Y-94003761D01*
X177744333Y-94051380D01*
X177839571Y-94051380D01*
X177982428Y-94003761D01*
X178077666Y-93908523D01*
X178125285Y-93813285D01*
X178172904Y-93622809D01*
X178172904Y-93479952D01*
X178125285Y-93289476D01*
X178077666Y-93194238D01*
X177982428Y-93099000D01*
X177839571Y-93051380D01*
X177744333Y-93051380D01*
X177601476Y-93099000D01*
X177553857Y-93146619D01*
X177220523Y-93051380D02*
X176601476Y-93051380D01*
X176934809Y-93432333D01*
X176791952Y-93432333D01*
X176696714Y-93479952D01*
X176649095Y-93527571D01*
X176601476Y-93622809D01*
X176601476Y-93860904D01*
X176649095Y-93956142D01*
X176696714Y-94003761D01*
X176791952Y-94051380D01*
X177077666Y-94051380D01*
X177172904Y-94003761D01*
X177220523Y-93956142D01*
X175744333Y-93384714D02*
X175744333Y-94051380D01*
X175982428Y-93003761D02*
X176220523Y-93718047D01*
X175601476Y-93718047D01*
X177553857Y-96178642D02*
X177601476Y-96226261D01*
X177744333Y-96273880D01*
X177839571Y-96273880D01*
X177982428Y-96226261D01*
X178077666Y-96131023D01*
X178125285Y-96035785D01*
X178172904Y-95845309D01*
X178172904Y-95702452D01*
X178125285Y-95511976D01*
X178077666Y-95416738D01*
X177982428Y-95321500D01*
X177839571Y-95273880D01*
X177744333Y-95273880D01*
X177601476Y-95321500D01*
X177553857Y-95369119D01*
X177220523Y-95273880D02*
X176601476Y-95273880D01*
X176934809Y-95654833D01*
X176791952Y-95654833D01*
X176696714Y-95702452D01*
X176649095Y-95750071D01*
X176601476Y-95845309D01*
X176601476Y-96083404D01*
X176649095Y-96178642D01*
X176696714Y-96226261D01*
X176791952Y-96273880D01*
X177077666Y-96273880D01*
X177172904Y-96226261D01*
X177220523Y-96178642D01*
X175696714Y-95273880D02*
X176172904Y-95273880D01*
X176220523Y-95750071D01*
X176172904Y-95702452D01*
X176077666Y-95654833D01*
X175839571Y-95654833D01*
X175744333Y-95702452D01*
X175696714Y-95750071D01*
X175649095Y-95845309D01*
X175649095Y-96083404D01*
X175696714Y-96178642D01*
X175744333Y-96226261D01*
X175839571Y-96273880D01*
X176077666Y-96273880D01*
X176172904Y-96226261D01*
X176220523Y-96178642D01*
X177553857Y-98464642D02*
X177601476Y-98512261D01*
X177744333Y-98559880D01*
X177839571Y-98559880D01*
X177982428Y-98512261D01*
X178077666Y-98417023D01*
X178125285Y-98321785D01*
X178172904Y-98131309D01*
X178172904Y-97988452D01*
X178125285Y-97797976D01*
X178077666Y-97702738D01*
X177982428Y-97607500D01*
X177839571Y-97559880D01*
X177744333Y-97559880D01*
X177601476Y-97607500D01*
X177553857Y-97655119D01*
X177220523Y-97559880D02*
X176601476Y-97559880D01*
X176934809Y-97940833D01*
X176791952Y-97940833D01*
X176696714Y-97988452D01*
X176649095Y-98036071D01*
X176601476Y-98131309D01*
X176601476Y-98369404D01*
X176649095Y-98464642D01*
X176696714Y-98512261D01*
X176791952Y-98559880D01*
X177077666Y-98559880D01*
X177172904Y-98512261D01*
X177220523Y-98464642D01*
X176030047Y-97988452D02*
X176125285Y-97940833D01*
X176172904Y-97893214D01*
X176220523Y-97797976D01*
X176220523Y-97750357D01*
X176172904Y-97655119D01*
X176125285Y-97607500D01*
X176030047Y-97559880D01*
X175839571Y-97559880D01*
X175744333Y-97607500D01*
X175696714Y-97655119D01*
X175649095Y-97750357D01*
X175649095Y-97797976D01*
X175696714Y-97893214D01*
X175744333Y-97940833D01*
X175839571Y-97988452D01*
X176030047Y-97988452D01*
X176125285Y-98036071D01*
X176172904Y-98083690D01*
X176220523Y-98178928D01*
X176220523Y-98369404D01*
X176172904Y-98464642D01*
X176125285Y-98512261D01*
X176030047Y-98559880D01*
X175839571Y-98559880D01*
X175744333Y-98512261D01*
X175696714Y-98464642D01*
X175649095Y-98369404D01*
X175649095Y-98178928D01*
X175696714Y-98083690D01*
X175744333Y-98036071D01*
X175839571Y-97988452D01*
X170441857Y-91606642D02*
X170489476Y-91654261D01*
X170632333Y-91701880D01*
X170727571Y-91701880D01*
X170870428Y-91654261D01*
X170965666Y-91559023D01*
X171013285Y-91463785D01*
X171060904Y-91273309D01*
X171060904Y-91130452D01*
X171013285Y-90939976D01*
X170965666Y-90844738D01*
X170870428Y-90749500D01*
X170727571Y-90701880D01*
X170632333Y-90701880D01*
X170489476Y-90749500D01*
X170441857Y-90797119D01*
X169584714Y-91035214D02*
X169584714Y-91701880D01*
X169822809Y-90654261D02*
X170060904Y-91368547D01*
X169441857Y-91368547D01*
X168537095Y-91701880D02*
X169108523Y-91701880D01*
X168822809Y-91701880D02*
X168822809Y-90701880D01*
X168918047Y-90844738D01*
X169013285Y-90939976D01*
X169108523Y-90987595D01*
X170441857Y-93892642D02*
X170489476Y-93940261D01*
X170632333Y-93987880D01*
X170727571Y-93987880D01*
X170870428Y-93940261D01*
X170965666Y-93845023D01*
X171013285Y-93749785D01*
X171060904Y-93559309D01*
X171060904Y-93416452D01*
X171013285Y-93225976D01*
X170965666Y-93130738D01*
X170870428Y-93035500D01*
X170727571Y-92987880D01*
X170632333Y-92987880D01*
X170489476Y-93035500D01*
X170441857Y-93083119D01*
X169584714Y-93321214D02*
X169584714Y-93987880D01*
X169822809Y-92940261D02*
X170060904Y-93654547D01*
X169441857Y-93654547D01*
X169108523Y-93083119D02*
X169060904Y-93035500D01*
X168965666Y-92987880D01*
X168727571Y-92987880D01*
X168632333Y-93035500D01*
X168584714Y-93083119D01*
X168537095Y-93178357D01*
X168537095Y-93273595D01*
X168584714Y-93416452D01*
X169156142Y-93987880D01*
X168537095Y-93987880D01*
X170441857Y-96178642D02*
X170489476Y-96226261D01*
X170632333Y-96273880D01*
X170727571Y-96273880D01*
X170870428Y-96226261D01*
X170965666Y-96131023D01*
X171013285Y-96035785D01*
X171060904Y-95845309D01*
X171060904Y-95702452D01*
X171013285Y-95511976D01*
X170965666Y-95416738D01*
X170870428Y-95321500D01*
X170727571Y-95273880D01*
X170632333Y-95273880D01*
X170489476Y-95321500D01*
X170441857Y-95369119D01*
X169584714Y-95607214D02*
X169584714Y-96273880D01*
X169822809Y-95226261D02*
X170060904Y-95940547D01*
X169441857Y-95940547D01*
X169156142Y-95273880D02*
X168537095Y-95273880D01*
X168870428Y-95654833D01*
X168727571Y-95654833D01*
X168632333Y-95702452D01*
X168584714Y-95750071D01*
X168537095Y-95845309D01*
X168537095Y-96083404D01*
X168584714Y-96178642D01*
X168632333Y-96226261D01*
X168727571Y-96273880D01*
X169013285Y-96273880D01*
X169108523Y-96226261D01*
X169156142Y-96178642D01*
X170441857Y-98464642D02*
X170489476Y-98512261D01*
X170632333Y-98559880D01*
X170727571Y-98559880D01*
X170870428Y-98512261D01*
X170965666Y-98417023D01*
X171013285Y-98321785D01*
X171060904Y-98131309D01*
X171060904Y-97988452D01*
X171013285Y-97797976D01*
X170965666Y-97702738D01*
X170870428Y-97607500D01*
X170727571Y-97559880D01*
X170632333Y-97559880D01*
X170489476Y-97607500D01*
X170441857Y-97655119D01*
X169584714Y-97893214D02*
X169584714Y-98559880D01*
X169822809Y-97512261D02*
X170060904Y-98226547D01*
X169441857Y-98226547D01*
X168632333Y-97893214D02*
X168632333Y-98559880D01*
X168870428Y-97512261D02*
X169108523Y-98226547D01*
X168489476Y-98226547D01*
X152897380Y-93424476D02*
X153611666Y-93424476D01*
X153754523Y-93376857D01*
X153849761Y-93281619D01*
X153897380Y-93138761D01*
X153897380Y-93043523D01*
X153897380Y-94424476D02*
X153897380Y-93853047D01*
X153897380Y-94138761D02*
X152897380Y-94138761D01*
X153040238Y-94043523D01*
X153135476Y-93948285D01*
X153183095Y-93853047D01*
X152897380Y-94757809D02*
X152897380Y-95376857D01*
X153278333Y-95043523D01*
X153278333Y-95186380D01*
X153325952Y-95281619D01*
X153373571Y-95329238D01*
X153468809Y-95376857D01*
X153706904Y-95376857D01*
X153802142Y-95329238D01*
X153849761Y-95281619D01*
X153897380Y-95186380D01*
X153897380Y-94900666D01*
X153849761Y-94805428D01*
X153802142Y-94757809D01*
X134282380Y-82407166D02*
X134996666Y-82407166D01*
X135139523Y-82359547D01*
X135234761Y-82264309D01*
X135282380Y-82121452D01*
X135282380Y-82026214D01*
X134282380Y-82788119D02*
X134282380Y-83454785D01*
X135282380Y-83026214D01*
X149522380Y-82407166D02*
X150236666Y-82407166D01*
X150379523Y-82359547D01*
X150474761Y-82264309D01*
X150522380Y-82121452D01*
X150522380Y-82026214D01*
X149950952Y-83026214D02*
X149903333Y-82930976D01*
X149855714Y-82883357D01*
X149760476Y-82835738D01*
X149712857Y-82835738D01*
X149617619Y-82883357D01*
X149570000Y-82930976D01*
X149522380Y-83026214D01*
X149522380Y-83216690D01*
X149570000Y-83311928D01*
X149617619Y-83359547D01*
X149712857Y-83407166D01*
X149760476Y-83407166D01*
X149855714Y-83359547D01*
X149903333Y-83311928D01*
X149950952Y-83216690D01*
X149950952Y-83026214D01*
X149998571Y-82930976D01*
X150046190Y-82883357D01*
X150141428Y-82835738D01*
X150331904Y-82835738D01*
X150427142Y-82883357D01*
X150474761Y-82930976D01*
X150522380Y-83026214D01*
X150522380Y-83216690D01*
X150474761Y-83311928D01*
X150427142Y-83359547D01*
X150331904Y-83407166D01*
X150141428Y-83407166D01*
X150046190Y-83359547D01*
X149998571Y-83311928D01*
X149950952Y-83216690D01*
X134282380Y-106187976D02*
X134996666Y-106187976D01*
X135139523Y-106140357D01*
X135234761Y-106045119D01*
X135282380Y-105902261D01*
X135282380Y-105807023D01*
X135282380Y-107187976D02*
X135282380Y-106616547D01*
X135282380Y-106902261D02*
X134282380Y-106902261D01*
X134425238Y-106807023D01*
X134520476Y-106711785D01*
X134568095Y-106616547D01*
X134377619Y-107568928D02*
X134330000Y-107616547D01*
X134282380Y-107711785D01*
X134282380Y-107949880D01*
X134330000Y-108045119D01*
X134377619Y-108092738D01*
X134472857Y-108140357D01*
X134568095Y-108140357D01*
X134710952Y-108092738D01*
X135282380Y-107521309D01*
X135282380Y-108140357D01*
M02*
