M48
; DRILL file {KiCad (5.1.5)-3} date 7/18/2020 4:54:52 AM
; FORMAT={-:-/ absolute / inch / decimal}
; #@! TF.CreationDate,2020-07-18T04:54:52-04:00
; #@! TF.GenerationSoftware,Kicad,Pcbnew,(5.1.5)-3
; #@! TF.FileFunction,Plated,1,6,PTH
FMAT,2
INCH
T1C0.0118
T2C0.0157
T3C0.0350
T4C0.0354
T5C0.0394
T6C0.0630
T7C0.3150
%
G90
G05
T1
X5.8437Y-4.0031
X6.05Y-4.1425
X6.115Y-3.9675
X6.115Y-4.0125
X6.1525Y-3.5025
X6.2475Y-4.0275
X6.2675Y-3.61
X6.37Y-3.55
X6.3875Y-3.4875
X6.3906Y-3.5156
X6.4125Y-4.0725
X6.535Y-3.5675
X6.55Y-3.735
X6.5625Y-4.0475
X6.565Y-3.58
X6.565Y-3.97
X6.5675Y-4.0075
X6.5675Y-4.0975
X6.5875Y-3.61
X6.6175Y-4.0975
X6.62Y-4.0325
X6.6955Y-3.8545
X6.795Y-4.2225
X6.8375Y-3.5225
X6.84Y-4.1675
X6.9425Y-3.9725
X6.965Y-3.9725
X6.9875Y-3.9725
X7.01Y-3.9725
X7.0275Y-4.045
X7.0325Y-3.9725
T2
X5.48Y-3.745
X5.6746Y-3.7654
X6.0146Y-3.3475
X6.0954Y-3.8521
X6.1Y-3.385
X6.1Y-3.6175
X6.1175Y-3.735
X6.5625Y-3.9175
X6.5925Y-3.6925
X6.5925Y-4.2625
X6.695Y-3.94
X6.7275Y-3.43
X6.795Y-3.785
X6.795Y-3.865
X6.855Y-3.98
X6.875Y-3.785
X6.875Y-3.865
X7.005Y-3.5925
X7.0054Y-3.8246
T3
X5.3825Y-3.561
X5.3825Y-3.959
X5.4423Y-3.461
X5.4423Y-3.859
T4
X5.825Y-3.585
X5.825Y-3.685
X5.825Y-3.785
X5.825Y-3.885
X5.925Y-3.535
X5.925Y-3.635
X5.925Y-3.735
X5.925Y-3.835
T5
X6.0Y-3.2575
X6.1Y-3.2575
X5.4Y-3.2575
X5.5Y-3.2575
X5.4Y-4.1625
X5.4Y-4.2625
X5.5Y-4.1625
X5.5Y-4.2625
X5.6Y-4.1625
X5.6Y-4.2625
X5.7Y-4.1625
X5.7Y-4.2625
X5.8Y-4.1625
X5.8Y-4.2625
X5.9Y-4.1625
X5.9Y-4.2625
X6.0Y-4.1625
X6.0Y-4.2625
X6.1Y-4.1625
X6.1Y-4.2625
X6.2Y-4.1625
X6.2Y-4.2625
X6.3Y-4.1625
X6.3Y-4.2625
T6
X5.6955Y-3.4039
X5.6955Y-4.0161
T7
X6.3975Y-3.83
T0
M30
