G04 #@! TF.GenerationSoftware,KiCad,Pcbnew,(5.1.5)-3*
G04 #@! TF.CreationDate,2020-07-17T23:47:30-04:00*
G04 #@! TF.ProjectId,MONster64,4d4f4e73-7465-4723-9634-2e6b69636164,rev?*
G04 #@! TF.SameCoordinates,Original*
G04 #@! TF.FileFunction,Legend,Bot*
G04 #@! TF.FilePolarity,Positive*
%FSLAX46Y46*%
G04 Gerber Fmt 4.6, Leading zero omitted, Abs format (unit mm)*
G04 Created by KiCad (PCBNEW (5.1.5)-3) date 2020-07-17 23:47:30*
%MOMM*%
%LPD*%
G04 APERTURE LIST*
%ADD10C,0.120000*%
%ADD11C,0.150000*%
G04 APERTURE END LIST*
D10*
X61856252Y-123265000D02*
X61333748Y-123265000D01*
X61856252Y-121845000D02*
X61333748Y-121845000D01*
X61856252Y-124385000D02*
X61333748Y-124385000D01*
X61856252Y-125805000D02*
X61333748Y-125805000D01*
X61665752Y-119305000D02*
X61143248Y-119305000D01*
X61665752Y-120725000D02*
X61143248Y-120725000D01*
X61665752Y-118185000D02*
X61143248Y-118185000D01*
X61665752Y-116765000D02*
X61143248Y-116765000D01*
X81355000Y-124086252D02*
X81355000Y-123563748D01*
X79935000Y-124086252D02*
X79935000Y-123563748D01*
X81840000Y-115196252D02*
X81840000Y-114673748D01*
X83260000Y-115196252D02*
X83260000Y-114673748D01*
X85800000Y-115196252D02*
X85800000Y-114673748D01*
X84380000Y-115196252D02*
X84380000Y-114673748D01*
X94540000Y-112656252D02*
X94540000Y-112133748D01*
X95960000Y-112656252D02*
X95960000Y-112133748D01*
X98500000Y-112656252D02*
X98500000Y-112133748D01*
X97080000Y-112656252D02*
X97080000Y-112133748D01*
X74855000Y-124086252D02*
X74855000Y-123563748D01*
X76275000Y-124086252D02*
X76275000Y-123563748D01*
X97865000Y-124086252D02*
X97865000Y-123563748D01*
X96445000Y-124086252D02*
X96445000Y-123563748D01*
X91365000Y-124086252D02*
X91365000Y-123563748D01*
X92785000Y-124086252D02*
X92785000Y-123563748D01*
X77395000Y-124086252D02*
X77395000Y-123563748D01*
X78815000Y-124086252D02*
X78815000Y-123563748D01*
X88340000Y-115196252D02*
X88340000Y-114673748D01*
X86920000Y-115196252D02*
X86920000Y-114673748D01*
X83895000Y-123563748D02*
X83895000Y-124086252D01*
X82475000Y-123563748D02*
X82475000Y-124086252D01*
X95325000Y-124086252D02*
X95325000Y-123563748D01*
X93905000Y-124086252D02*
X93905000Y-123563748D01*
X102160000Y-76969252D02*
X102160000Y-76446748D01*
X103580000Y-76969252D02*
X103580000Y-76446748D01*
X78478748Y-74728000D02*
X79001252Y-74728000D01*
X78478748Y-76148000D02*
X79001252Y-76148000D01*
X70746252Y-77268000D02*
X70223748Y-77268000D01*
X70746252Y-78688000D02*
X70223748Y-78688000D01*
X90880000Y-115196252D02*
X90880000Y-114673748D01*
X89460000Y-115196252D02*
X89460000Y-114673748D01*
X105875000Y-108035000D02*
X112175000Y-108035000D01*
X106575000Y-95165000D02*
X112175000Y-95165000D01*
X102165000Y-108035000D02*
X103975000Y-108035000D01*
X102165000Y-95165000D02*
X102165000Y-106425000D01*
X103325000Y-95165000D02*
X102165000Y-95165000D01*
X102165000Y-107925000D02*
X102165000Y-108035000D01*
X94690000Y-76969252D02*
X94690000Y-76446748D01*
X93270000Y-76969252D02*
X93270000Y-76446748D01*
X92336252Y-85650000D02*
X91813748Y-85650000D01*
X92336252Y-87070000D02*
X91813748Y-87070000D01*
X61221252Y-110415000D02*
X60698748Y-110415000D01*
X61221252Y-111835000D02*
X60698748Y-111835000D01*
X79001252Y-77268000D02*
X78478748Y-77268000D01*
X79001252Y-78688000D02*
X78478748Y-78688000D01*
X70223748Y-74728000D02*
X70746252Y-74728000D01*
X70223748Y-76148000D02*
X70746252Y-76148000D01*
X60698748Y-112955000D02*
X61221252Y-112955000D01*
X60698748Y-114375000D02*
X61221252Y-114375000D01*
X65778748Y-121845000D02*
X66301252Y-121845000D01*
X65778748Y-123265000D02*
X66301252Y-123265000D01*
X102608748Y-109780000D02*
X103131252Y-109780000D01*
X102608748Y-111200000D02*
X103131252Y-111200000D01*
X107053748Y-109780000D02*
X107576252Y-109780000D01*
X107053748Y-111200000D02*
X107576252Y-111200000D01*
X93356500Y-100259248D02*
X93356500Y-100781752D01*
X91936500Y-100259248D02*
X91936500Y-100781752D01*
X98500000Y-100591252D02*
X98500000Y-100068748D01*
X97080000Y-100591252D02*
X97080000Y-100068748D01*
X64830000Y-79696000D02*
X64830000Y-82356000D01*
X62230000Y-79696000D02*
X64830000Y-79696000D01*
X62230000Y-82356000D02*
X64830000Y-82356000D01*
X62230000Y-79696000D02*
X62230000Y-82356000D01*
X60960000Y-79696000D02*
X59630000Y-79696000D01*
X59630000Y-79696000D02*
X59630000Y-81026000D01*
X74870000Y-79696000D02*
X74870000Y-81026000D01*
X76200000Y-79696000D02*
X74870000Y-79696000D01*
X77470000Y-79696000D02*
X77470000Y-82356000D01*
X77470000Y-82356000D02*
X80070000Y-82356000D01*
X77470000Y-79696000D02*
X80070000Y-79696000D01*
X80070000Y-79696000D02*
X80070000Y-82356000D01*
X85150000Y-102683000D02*
X85150000Y-107883000D01*
X62230000Y-102683000D02*
X85150000Y-102683000D01*
X59630000Y-107883000D02*
X85150000Y-107883000D01*
X62230000Y-102683000D02*
X62230000Y-105283000D01*
X62230000Y-105283000D02*
X59630000Y-105283000D01*
X59630000Y-105283000D02*
X59630000Y-107883000D01*
X60960000Y-102683000D02*
X59630000Y-102683000D01*
X59630000Y-102683000D02*
X59630000Y-104013000D01*
X70410000Y-112768748D02*
X70410000Y-113291252D01*
X71830000Y-112768748D02*
X71830000Y-113291252D01*
X72315000Y-119118748D02*
X72315000Y-119641252D01*
X73735000Y-119118748D02*
X73735000Y-119641252D01*
X76275000Y-119118748D02*
X76275000Y-119641252D01*
X74855000Y-119118748D02*
X74855000Y-119641252D01*
D11*
X61761666Y-122912142D02*
X61809285Y-122959761D01*
X61952142Y-123007380D01*
X62047380Y-123007380D01*
X62190238Y-122959761D01*
X62285476Y-122864523D01*
X62333095Y-122769285D01*
X62380714Y-122578809D01*
X62380714Y-122435952D01*
X62333095Y-122245476D01*
X62285476Y-122150238D01*
X62190238Y-122055000D01*
X62047380Y-122007380D01*
X61952142Y-122007380D01*
X61809285Y-122055000D01*
X61761666Y-122102619D01*
X60809285Y-123007380D02*
X61380714Y-123007380D01*
X61095000Y-123007380D02*
X61095000Y-122007380D01*
X61190238Y-122150238D01*
X61285476Y-122245476D01*
X61380714Y-122293095D01*
X61761666Y-125452142D02*
X61809285Y-125499761D01*
X61952142Y-125547380D01*
X62047380Y-125547380D01*
X62190238Y-125499761D01*
X62285476Y-125404523D01*
X62333095Y-125309285D01*
X62380714Y-125118809D01*
X62380714Y-124975952D01*
X62333095Y-124785476D01*
X62285476Y-124690238D01*
X62190238Y-124595000D01*
X62047380Y-124547380D01*
X61952142Y-124547380D01*
X61809285Y-124595000D01*
X61761666Y-124642619D01*
X60904523Y-124880714D02*
X60904523Y-125547380D01*
X61142619Y-124499761D02*
X61380714Y-125214047D01*
X60761666Y-125214047D01*
X61571166Y-120372142D02*
X61618785Y-120419761D01*
X61761642Y-120467380D01*
X61856880Y-120467380D01*
X61999738Y-120419761D01*
X62094976Y-120324523D01*
X62142595Y-120229285D01*
X62190214Y-120038809D01*
X62190214Y-119895952D01*
X62142595Y-119705476D01*
X62094976Y-119610238D01*
X61999738Y-119515000D01*
X61856880Y-119467380D01*
X61761642Y-119467380D01*
X61618785Y-119515000D01*
X61571166Y-119562619D01*
X60999738Y-119895952D02*
X61094976Y-119848333D01*
X61142595Y-119800714D01*
X61190214Y-119705476D01*
X61190214Y-119657857D01*
X61142595Y-119562619D01*
X61094976Y-119515000D01*
X60999738Y-119467380D01*
X60809261Y-119467380D01*
X60714023Y-119515000D01*
X60666404Y-119562619D01*
X60618785Y-119657857D01*
X60618785Y-119705476D01*
X60666404Y-119800714D01*
X60714023Y-119848333D01*
X60809261Y-119895952D01*
X60999738Y-119895952D01*
X61094976Y-119943571D01*
X61142595Y-119991190D01*
X61190214Y-120086428D01*
X61190214Y-120276904D01*
X61142595Y-120372142D01*
X61094976Y-120419761D01*
X60999738Y-120467380D01*
X60809261Y-120467380D01*
X60714023Y-120419761D01*
X60666404Y-120372142D01*
X60618785Y-120276904D01*
X60618785Y-120086428D01*
X60666404Y-119991190D01*
X60714023Y-119943571D01*
X60809261Y-119895952D01*
X61571166Y-117832142D02*
X61618785Y-117879761D01*
X61761642Y-117927380D01*
X61856880Y-117927380D01*
X61999738Y-117879761D01*
X62094976Y-117784523D01*
X62142595Y-117689285D01*
X62190214Y-117498809D01*
X62190214Y-117355952D01*
X62142595Y-117165476D01*
X62094976Y-117070238D01*
X61999738Y-116975000D01*
X61856880Y-116927380D01*
X61761642Y-116927380D01*
X61618785Y-116975000D01*
X61571166Y-117022619D01*
X61094976Y-117927380D02*
X60904500Y-117927380D01*
X60809261Y-117879761D01*
X60761642Y-117832142D01*
X60666404Y-117689285D01*
X60618785Y-117498809D01*
X60618785Y-117117857D01*
X60666404Y-117022619D01*
X60714023Y-116975000D01*
X60809261Y-116927380D01*
X60999738Y-116927380D01*
X61094976Y-116975000D01*
X61142595Y-117022619D01*
X61190214Y-117117857D01*
X61190214Y-117355952D01*
X61142595Y-117451190D01*
X61094976Y-117498809D01*
X60999738Y-117546428D01*
X60809261Y-117546428D01*
X60714023Y-117498809D01*
X60666404Y-117451190D01*
X60618785Y-117355952D01*
X81002142Y-123182142D02*
X81049761Y-123134523D01*
X81097380Y-122991666D01*
X81097380Y-122896428D01*
X81049761Y-122753571D01*
X80954523Y-122658333D01*
X80859285Y-122610714D01*
X80668809Y-122563095D01*
X80525952Y-122563095D01*
X80335476Y-122610714D01*
X80240238Y-122658333D01*
X80145000Y-122753571D01*
X80097380Y-122896428D01*
X80097380Y-122991666D01*
X80145000Y-123134523D01*
X80192619Y-123182142D01*
X81097380Y-124134523D02*
X81097380Y-123563095D01*
X81097380Y-123848809D02*
X80097380Y-123848809D01*
X80240238Y-123753571D01*
X80335476Y-123658333D01*
X80383095Y-123563095D01*
X80097380Y-124753571D02*
X80097380Y-124848809D01*
X80145000Y-124944047D01*
X80192619Y-124991666D01*
X80287857Y-125039285D01*
X80478333Y-125086904D01*
X80716428Y-125086904D01*
X80906904Y-125039285D01*
X81002142Y-124991666D01*
X81049761Y-124944047D01*
X81097380Y-124848809D01*
X81097380Y-124753571D01*
X81049761Y-124658333D01*
X81002142Y-124610714D01*
X80906904Y-124563095D01*
X80716428Y-124515476D01*
X80478333Y-124515476D01*
X80287857Y-124563095D01*
X80192619Y-124610714D01*
X80145000Y-124658333D01*
X80097380Y-124753571D01*
X82907142Y-114292142D02*
X82954761Y-114244523D01*
X83002380Y-114101666D01*
X83002380Y-114006428D01*
X82954761Y-113863571D01*
X82859523Y-113768333D01*
X82764285Y-113720714D01*
X82573809Y-113673095D01*
X82430952Y-113673095D01*
X82240476Y-113720714D01*
X82145238Y-113768333D01*
X82050000Y-113863571D01*
X82002380Y-114006428D01*
X82002380Y-114101666D01*
X82050000Y-114244523D01*
X82097619Y-114292142D01*
X83002380Y-115244523D02*
X83002380Y-114673095D01*
X83002380Y-114958809D02*
X82002380Y-114958809D01*
X82145238Y-114863571D01*
X82240476Y-114768333D01*
X82288095Y-114673095D01*
X83002380Y-116196904D02*
X83002380Y-115625476D01*
X83002380Y-115911190D02*
X82002380Y-115911190D01*
X82145238Y-115815952D01*
X82240476Y-115720714D01*
X82288095Y-115625476D01*
X85447142Y-114292142D02*
X85494761Y-114244523D01*
X85542380Y-114101666D01*
X85542380Y-114006428D01*
X85494761Y-113863571D01*
X85399523Y-113768333D01*
X85304285Y-113720714D01*
X85113809Y-113673095D01*
X84970952Y-113673095D01*
X84780476Y-113720714D01*
X84685238Y-113768333D01*
X84590000Y-113863571D01*
X84542380Y-114006428D01*
X84542380Y-114101666D01*
X84590000Y-114244523D01*
X84637619Y-114292142D01*
X85542380Y-115244523D02*
X85542380Y-114673095D01*
X85542380Y-114958809D02*
X84542380Y-114958809D01*
X84685238Y-114863571D01*
X84780476Y-114768333D01*
X84828095Y-114673095D01*
X84637619Y-115625476D02*
X84590000Y-115673095D01*
X84542380Y-115768333D01*
X84542380Y-116006428D01*
X84590000Y-116101666D01*
X84637619Y-116149285D01*
X84732857Y-116196904D01*
X84828095Y-116196904D01*
X84970952Y-116149285D01*
X85542380Y-115577857D01*
X85542380Y-116196904D01*
X95607142Y-111752142D02*
X95654761Y-111704523D01*
X95702380Y-111561666D01*
X95702380Y-111466428D01*
X95654761Y-111323571D01*
X95559523Y-111228333D01*
X95464285Y-111180714D01*
X95273809Y-111133095D01*
X95130952Y-111133095D01*
X94940476Y-111180714D01*
X94845238Y-111228333D01*
X94750000Y-111323571D01*
X94702380Y-111466428D01*
X94702380Y-111561666D01*
X94750000Y-111704523D01*
X94797619Y-111752142D01*
X95702380Y-112704523D02*
X95702380Y-112133095D01*
X95702380Y-112418809D02*
X94702380Y-112418809D01*
X94845238Y-112323571D01*
X94940476Y-112228333D01*
X94988095Y-112133095D01*
X94702380Y-113037857D02*
X94702380Y-113656904D01*
X95083333Y-113323571D01*
X95083333Y-113466428D01*
X95130952Y-113561666D01*
X95178571Y-113609285D01*
X95273809Y-113656904D01*
X95511904Y-113656904D01*
X95607142Y-113609285D01*
X95654761Y-113561666D01*
X95702380Y-113466428D01*
X95702380Y-113180714D01*
X95654761Y-113085476D01*
X95607142Y-113037857D01*
X98147142Y-111752142D02*
X98194761Y-111704523D01*
X98242380Y-111561666D01*
X98242380Y-111466428D01*
X98194761Y-111323571D01*
X98099523Y-111228333D01*
X98004285Y-111180714D01*
X97813809Y-111133095D01*
X97670952Y-111133095D01*
X97480476Y-111180714D01*
X97385238Y-111228333D01*
X97290000Y-111323571D01*
X97242380Y-111466428D01*
X97242380Y-111561666D01*
X97290000Y-111704523D01*
X97337619Y-111752142D01*
X98242380Y-112704523D02*
X98242380Y-112133095D01*
X98242380Y-112418809D02*
X97242380Y-112418809D01*
X97385238Y-112323571D01*
X97480476Y-112228333D01*
X97528095Y-112133095D01*
X97575714Y-113561666D02*
X98242380Y-113561666D01*
X97194761Y-113323571D02*
X97909047Y-113085476D01*
X97909047Y-113704523D01*
X75922142Y-123182142D02*
X75969761Y-123134523D01*
X76017380Y-122991666D01*
X76017380Y-122896428D01*
X75969761Y-122753571D01*
X75874523Y-122658333D01*
X75779285Y-122610714D01*
X75588809Y-122563095D01*
X75445952Y-122563095D01*
X75255476Y-122610714D01*
X75160238Y-122658333D01*
X75065000Y-122753571D01*
X75017380Y-122896428D01*
X75017380Y-122991666D01*
X75065000Y-123134523D01*
X75112619Y-123182142D01*
X76017380Y-124134523D02*
X76017380Y-123563095D01*
X76017380Y-123848809D02*
X75017380Y-123848809D01*
X75160238Y-123753571D01*
X75255476Y-123658333D01*
X75303095Y-123563095D01*
X75017380Y-125039285D02*
X75017380Y-124563095D01*
X75493571Y-124515476D01*
X75445952Y-124563095D01*
X75398333Y-124658333D01*
X75398333Y-124896428D01*
X75445952Y-124991666D01*
X75493571Y-125039285D01*
X75588809Y-125086904D01*
X75826904Y-125086904D01*
X75922142Y-125039285D01*
X75969761Y-124991666D01*
X76017380Y-124896428D01*
X76017380Y-124658333D01*
X75969761Y-124563095D01*
X75922142Y-124515476D01*
X97512142Y-123182142D02*
X97559761Y-123134523D01*
X97607380Y-122991666D01*
X97607380Y-122896428D01*
X97559761Y-122753571D01*
X97464523Y-122658333D01*
X97369285Y-122610714D01*
X97178809Y-122563095D01*
X97035952Y-122563095D01*
X96845476Y-122610714D01*
X96750238Y-122658333D01*
X96655000Y-122753571D01*
X96607380Y-122896428D01*
X96607380Y-122991666D01*
X96655000Y-123134523D01*
X96702619Y-123182142D01*
X97607380Y-124134523D02*
X97607380Y-123563095D01*
X97607380Y-123848809D02*
X96607380Y-123848809D01*
X96750238Y-123753571D01*
X96845476Y-123658333D01*
X96893095Y-123563095D01*
X96607380Y-124991666D02*
X96607380Y-124801190D01*
X96655000Y-124705952D01*
X96702619Y-124658333D01*
X96845476Y-124563095D01*
X97035952Y-124515476D01*
X97416904Y-124515476D01*
X97512142Y-124563095D01*
X97559761Y-124610714D01*
X97607380Y-124705952D01*
X97607380Y-124896428D01*
X97559761Y-124991666D01*
X97512142Y-125039285D01*
X97416904Y-125086904D01*
X97178809Y-125086904D01*
X97083571Y-125039285D01*
X97035952Y-124991666D01*
X96988333Y-124896428D01*
X96988333Y-124705952D01*
X97035952Y-124610714D01*
X97083571Y-124563095D01*
X97178809Y-124515476D01*
X92432142Y-123182142D02*
X92479761Y-123134523D01*
X92527380Y-122991666D01*
X92527380Y-122896428D01*
X92479761Y-122753571D01*
X92384523Y-122658333D01*
X92289285Y-122610714D01*
X92098809Y-122563095D01*
X91955952Y-122563095D01*
X91765476Y-122610714D01*
X91670238Y-122658333D01*
X91575000Y-122753571D01*
X91527380Y-122896428D01*
X91527380Y-122991666D01*
X91575000Y-123134523D01*
X91622619Y-123182142D01*
X92527380Y-124134523D02*
X92527380Y-123563095D01*
X92527380Y-123848809D02*
X91527380Y-123848809D01*
X91670238Y-123753571D01*
X91765476Y-123658333D01*
X91813095Y-123563095D01*
X91527380Y-124467857D02*
X91527380Y-125134523D01*
X92527380Y-124705952D01*
X78462142Y-123182142D02*
X78509761Y-123134523D01*
X78557380Y-122991666D01*
X78557380Y-122896428D01*
X78509761Y-122753571D01*
X78414523Y-122658333D01*
X78319285Y-122610714D01*
X78128809Y-122563095D01*
X77985952Y-122563095D01*
X77795476Y-122610714D01*
X77700238Y-122658333D01*
X77605000Y-122753571D01*
X77557380Y-122896428D01*
X77557380Y-122991666D01*
X77605000Y-123134523D01*
X77652619Y-123182142D01*
X78557380Y-124134523D02*
X78557380Y-123563095D01*
X78557380Y-123848809D02*
X77557380Y-123848809D01*
X77700238Y-123753571D01*
X77795476Y-123658333D01*
X77843095Y-123563095D01*
X77985952Y-124705952D02*
X77938333Y-124610714D01*
X77890714Y-124563095D01*
X77795476Y-124515476D01*
X77747857Y-124515476D01*
X77652619Y-124563095D01*
X77605000Y-124610714D01*
X77557380Y-124705952D01*
X77557380Y-124896428D01*
X77605000Y-124991666D01*
X77652619Y-125039285D01*
X77747857Y-125086904D01*
X77795476Y-125086904D01*
X77890714Y-125039285D01*
X77938333Y-124991666D01*
X77985952Y-124896428D01*
X77985952Y-124705952D01*
X78033571Y-124610714D01*
X78081190Y-124563095D01*
X78176428Y-124515476D01*
X78366904Y-124515476D01*
X78462142Y-124563095D01*
X78509761Y-124610714D01*
X78557380Y-124705952D01*
X78557380Y-124896428D01*
X78509761Y-124991666D01*
X78462142Y-125039285D01*
X78366904Y-125086904D01*
X78176428Y-125086904D01*
X78081190Y-125039285D01*
X78033571Y-124991666D01*
X77985952Y-124896428D01*
X87987142Y-114292142D02*
X88034761Y-114244523D01*
X88082380Y-114101666D01*
X88082380Y-114006428D01*
X88034761Y-113863571D01*
X87939523Y-113768333D01*
X87844285Y-113720714D01*
X87653809Y-113673095D01*
X87510952Y-113673095D01*
X87320476Y-113720714D01*
X87225238Y-113768333D01*
X87130000Y-113863571D01*
X87082380Y-114006428D01*
X87082380Y-114101666D01*
X87130000Y-114244523D01*
X87177619Y-114292142D01*
X88082380Y-115244523D02*
X88082380Y-114673095D01*
X88082380Y-114958809D02*
X87082380Y-114958809D01*
X87225238Y-114863571D01*
X87320476Y-114768333D01*
X87368095Y-114673095D01*
X88082380Y-115720714D02*
X88082380Y-115911190D01*
X88034761Y-116006428D01*
X87987142Y-116054047D01*
X87844285Y-116149285D01*
X87653809Y-116196904D01*
X87272857Y-116196904D01*
X87177619Y-116149285D01*
X87130000Y-116101666D01*
X87082380Y-116006428D01*
X87082380Y-115815952D01*
X87130000Y-115720714D01*
X87177619Y-115673095D01*
X87272857Y-115625476D01*
X87510952Y-115625476D01*
X87606190Y-115673095D01*
X87653809Y-115720714D01*
X87701428Y-115815952D01*
X87701428Y-116006428D01*
X87653809Y-116101666D01*
X87606190Y-116149285D01*
X87510952Y-116196904D01*
X83605642Y-123182142D02*
X83653261Y-123134523D01*
X83700880Y-122991666D01*
X83700880Y-122896428D01*
X83653261Y-122753571D01*
X83558023Y-122658333D01*
X83462785Y-122610714D01*
X83272309Y-122563095D01*
X83129452Y-122563095D01*
X82938976Y-122610714D01*
X82843738Y-122658333D01*
X82748500Y-122753571D01*
X82700880Y-122896428D01*
X82700880Y-122991666D01*
X82748500Y-123134523D01*
X82796119Y-123182142D01*
X82796119Y-123563095D02*
X82748500Y-123610714D01*
X82700880Y-123705952D01*
X82700880Y-123944047D01*
X82748500Y-124039285D01*
X82796119Y-124086904D01*
X82891357Y-124134523D01*
X82986595Y-124134523D01*
X83129452Y-124086904D01*
X83700880Y-123515476D01*
X83700880Y-124134523D01*
X82700880Y-124753571D02*
X82700880Y-124848809D01*
X82748500Y-124944047D01*
X82796119Y-124991666D01*
X82891357Y-125039285D01*
X83081833Y-125086904D01*
X83319928Y-125086904D01*
X83510404Y-125039285D01*
X83605642Y-124991666D01*
X83653261Y-124944047D01*
X83700880Y-124848809D01*
X83700880Y-124753571D01*
X83653261Y-124658333D01*
X83605642Y-124610714D01*
X83510404Y-124563095D01*
X83319928Y-124515476D01*
X83081833Y-124515476D01*
X82891357Y-124563095D01*
X82796119Y-124610714D01*
X82748500Y-124658333D01*
X82700880Y-124753571D01*
X95035642Y-123182142D02*
X95083261Y-123134523D01*
X95130880Y-122991666D01*
X95130880Y-122896428D01*
X95083261Y-122753571D01*
X94988023Y-122658333D01*
X94892785Y-122610714D01*
X94702309Y-122563095D01*
X94559452Y-122563095D01*
X94368976Y-122610714D01*
X94273738Y-122658333D01*
X94178500Y-122753571D01*
X94130880Y-122896428D01*
X94130880Y-122991666D01*
X94178500Y-123134523D01*
X94226119Y-123182142D01*
X94226119Y-123563095D02*
X94178500Y-123610714D01*
X94130880Y-123705952D01*
X94130880Y-123944047D01*
X94178500Y-124039285D01*
X94226119Y-124086904D01*
X94321357Y-124134523D01*
X94416595Y-124134523D01*
X94559452Y-124086904D01*
X95130880Y-123515476D01*
X95130880Y-124134523D01*
X95130880Y-125086904D02*
X95130880Y-124515476D01*
X95130880Y-124801190D02*
X94130880Y-124801190D01*
X94273738Y-124705952D01*
X94368976Y-124610714D01*
X94416595Y-124515476D01*
X103227142Y-76065142D02*
X103274761Y-76017523D01*
X103322380Y-75874666D01*
X103322380Y-75779428D01*
X103274761Y-75636571D01*
X103179523Y-75541333D01*
X103084285Y-75493714D01*
X102893809Y-75446095D01*
X102750952Y-75446095D01*
X102560476Y-75493714D01*
X102465238Y-75541333D01*
X102370000Y-75636571D01*
X102322380Y-75779428D01*
X102322380Y-75874666D01*
X102370000Y-76017523D01*
X102417619Y-76065142D01*
X102417619Y-76446095D02*
X102370000Y-76493714D01*
X102322380Y-76588952D01*
X102322380Y-76827047D01*
X102370000Y-76922285D01*
X102417619Y-76969904D01*
X102512857Y-77017523D01*
X102608095Y-77017523D01*
X102750952Y-76969904D01*
X103322380Y-76398476D01*
X103322380Y-77017523D01*
X102417619Y-77398476D02*
X102370000Y-77446095D01*
X102322380Y-77541333D01*
X102322380Y-77779428D01*
X102370000Y-77874666D01*
X102417619Y-77922285D01*
X102512857Y-77969904D01*
X102608095Y-77969904D01*
X102750952Y-77922285D01*
X103322380Y-77350857D01*
X103322380Y-77969904D01*
X79446357Y-75795142D02*
X79493976Y-75842761D01*
X79636833Y-75890380D01*
X79732071Y-75890380D01*
X79874928Y-75842761D01*
X79970166Y-75747523D01*
X80017785Y-75652285D01*
X80065404Y-75461809D01*
X80065404Y-75318952D01*
X80017785Y-75128476D01*
X79970166Y-75033238D01*
X79874928Y-74938000D01*
X79732071Y-74890380D01*
X79636833Y-74890380D01*
X79493976Y-74938000D01*
X79446357Y-74985619D01*
X79065404Y-74985619D02*
X79017785Y-74938000D01*
X78922547Y-74890380D01*
X78684452Y-74890380D01*
X78589214Y-74938000D01*
X78541595Y-74985619D01*
X78493976Y-75080857D01*
X78493976Y-75176095D01*
X78541595Y-75318952D01*
X79113023Y-75890380D01*
X78493976Y-75890380D01*
X78160642Y-74890380D02*
X77541595Y-74890380D01*
X77874928Y-75271333D01*
X77732071Y-75271333D01*
X77636833Y-75318952D01*
X77589214Y-75366571D01*
X77541595Y-75461809D01*
X77541595Y-75699904D01*
X77589214Y-75795142D01*
X77636833Y-75842761D01*
X77732071Y-75890380D01*
X78017785Y-75890380D01*
X78113023Y-75842761D01*
X78160642Y-75795142D01*
X71127857Y-78335142D02*
X71175476Y-78382761D01*
X71318333Y-78430380D01*
X71413571Y-78430380D01*
X71556428Y-78382761D01*
X71651666Y-78287523D01*
X71699285Y-78192285D01*
X71746904Y-78001809D01*
X71746904Y-77858952D01*
X71699285Y-77668476D01*
X71651666Y-77573238D01*
X71556428Y-77478000D01*
X71413571Y-77430380D01*
X71318333Y-77430380D01*
X71175476Y-77478000D01*
X71127857Y-77525619D01*
X70746904Y-77525619D02*
X70699285Y-77478000D01*
X70604047Y-77430380D01*
X70365952Y-77430380D01*
X70270714Y-77478000D01*
X70223095Y-77525619D01*
X70175476Y-77620857D01*
X70175476Y-77716095D01*
X70223095Y-77858952D01*
X70794523Y-78430380D01*
X70175476Y-78430380D01*
X69318333Y-77763714D02*
X69318333Y-78430380D01*
X69556428Y-77382761D02*
X69794523Y-78097047D01*
X69175476Y-78097047D01*
X90527142Y-114292142D02*
X90574761Y-114244523D01*
X90622380Y-114101666D01*
X90622380Y-114006428D01*
X90574761Y-113863571D01*
X90479523Y-113768333D01*
X90384285Y-113720714D01*
X90193809Y-113673095D01*
X90050952Y-113673095D01*
X89860476Y-113720714D01*
X89765238Y-113768333D01*
X89670000Y-113863571D01*
X89622380Y-114006428D01*
X89622380Y-114101666D01*
X89670000Y-114244523D01*
X89717619Y-114292142D01*
X89717619Y-114673095D02*
X89670000Y-114720714D01*
X89622380Y-114815952D01*
X89622380Y-115054047D01*
X89670000Y-115149285D01*
X89717619Y-115196904D01*
X89812857Y-115244523D01*
X89908095Y-115244523D01*
X90050952Y-115196904D01*
X90622380Y-114625476D01*
X90622380Y-115244523D01*
X89622380Y-116149285D02*
X89622380Y-115673095D01*
X90098571Y-115625476D01*
X90050952Y-115673095D01*
X90003333Y-115768333D01*
X90003333Y-116006428D01*
X90050952Y-116101666D01*
X90098571Y-116149285D01*
X90193809Y-116196904D01*
X90431904Y-116196904D01*
X90527142Y-116149285D01*
X90574761Y-116101666D01*
X90622380Y-116006428D01*
X90622380Y-115768333D01*
X90574761Y-115673095D01*
X90527142Y-115625476D01*
X99777380Y-100765476D02*
X100491666Y-100765476D01*
X100634523Y-100717857D01*
X100729761Y-100622619D01*
X100777380Y-100479761D01*
X100777380Y-100384523D01*
X100777380Y-101765476D02*
X100777380Y-101194047D01*
X100777380Y-101479761D02*
X99777380Y-101479761D01*
X99920238Y-101384523D01*
X100015476Y-101289285D01*
X100063095Y-101194047D01*
X100777380Y-102717857D02*
X100777380Y-102146428D01*
X100777380Y-102432142D02*
X99777380Y-102432142D01*
X99920238Y-102336904D01*
X100015476Y-102241666D01*
X100063095Y-102146428D01*
X94432380Y-76541333D02*
X93956190Y-76208000D01*
X94432380Y-75969904D02*
X93432380Y-75969904D01*
X93432380Y-76350857D01*
X93480000Y-76446095D01*
X93527619Y-76493714D01*
X93622857Y-76541333D01*
X93765714Y-76541333D01*
X93860952Y-76493714D01*
X93908571Y-76446095D01*
X93956190Y-76350857D01*
X93956190Y-75969904D01*
X93527619Y-76922285D02*
X93480000Y-76969904D01*
X93432380Y-77065142D01*
X93432380Y-77303238D01*
X93480000Y-77398476D01*
X93527619Y-77446095D01*
X93622857Y-77493714D01*
X93718095Y-77493714D01*
X93860952Y-77446095D01*
X94432380Y-76874666D01*
X94432380Y-77493714D01*
X92241666Y-86812380D02*
X92575000Y-86336190D01*
X92813095Y-86812380D02*
X92813095Y-85812380D01*
X92432142Y-85812380D01*
X92336904Y-85860000D01*
X92289285Y-85907619D01*
X92241666Y-86002857D01*
X92241666Y-86145714D01*
X92289285Y-86240952D01*
X92336904Y-86288571D01*
X92432142Y-86336190D01*
X92813095Y-86336190D01*
X91908333Y-85812380D02*
X91289285Y-85812380D01*
X91622619Y-86193333D01*
X91479761Y-86193333D01*
X91384523Y-86240952D01*
X91336904Y-86288571D01*
X91289285Y-86383809D01*
X91289285Y-86621904D01*
X91336904Y-86717142D01*
X91384523Y-86764761D01*
X91479761Y-86812380D01*
X91765476Y-86812380D01*
X91860714Y-86764761D01*
X91908333Y-86717142D01*
X61126666Y-111577380D02*
X61460000Y-111101190D01*
X61698095Y-111577380D02*
X61698095Y-110577380D01*
X61317142Y-110577380D01*
X61221904Y-110625000D01*
X61174285Y-110672619D01*
X61126666Y-110767857D01*
X61126666Y-110910714D01*
X61174285Y-111005952D01*
X61221904Y-111053571D01*
X61317142Y-111101190D01*
X61698095Y-111101190D01*
X60269523Y-110910714D02*
X60269523Y-111577380D01*
X60507619Y-110529761D02*
X60745714Y-111244047D01*
X60126666Y-111244047D01*
X78906666Y-78430380D02*
X79240000Y-77954190D01*
X79478095Y-78430380D02*
X79478095Y-77430380D01*
X79097142Y-77430380D01*
X79001904Y-77478000D01*
X78954285Y-77525619D01*
X78906666Y-77620857D01*
X78906666Y-77763714D01*
X78954285Y-77858952D01*
X79001904Y-77906571D01*
X79097142Y-77954190D01*
X79478095Y-77954190D01*
X78573333Y-77430380D02*
X77906666Y-77430380D01*
X78335238Y-78430380D01*
X70651666Y-75890380D02*
X70985000Y-75414190D01*
X71223095Y-75890380D02*
X71223095Y-74890380D01*
X70842142Y-74890380D01*
X70746904Y-74938000D01*
X70699285Y-74985619D01*
X70651666Y-75080857D01*
X70651666Y-75223714D01*
X70699285Y-75318952D01*
X70746904Y-75366571D01*
X70842142Y-75414190D01*
X71223095Y-75414190D01*
X70080238Y-75318952D02*
X70175476Y-75271333D01*
X70223095Y-75223714D01*
X70270714Y-75128476D01*
X70270714Y-75080857D01*
X70223095Y-74985619D01*
X70175476Y-74938000D01*
X70080238Y-74890380D01*
X69889761Y-74890380D01*
X69794523Y-74938000D01*
X69746904Y-74985619D01*
X69699285Y-75080857D01*
X69699285Y-75128476D01*
X69746904Y-75223714D01*
X69794523Y-75271333D01*
X69889761Y-75318952D01*
X70080238Y-75318952D01*
X70175476Y-75366571D01*
X70223095Y-75414190D01*
X70270714Y-75509428D01*
X70270714Y-75699904D01*
X70223095Y-75795142D01*
X70175476Y-75842761D01*
X70080238Y-75890380D01*
X69889761Y-75890380D01*
X69794523Y-75842761D01*
X69746904Y-75795142D01*
X69699285Y-75699904D01*
X69699285Y-75509428D01*
X69746904Y-75414190D01*
X69794523Y-75366571D01*
X69889761Y-75318952D01*
X61126666Y-114117380D02*
X61460000Y-113641190D01*
X61698095Y-114117380D02*
X61698095Y-113117380D01*
X61317142Y-113117380D01*
X61221904Y-113165000D01*
X61174285Y-113212619D01*
X61126666Y-113307857D01*
X61126666Y-113450714D01*
X61174285Y-113545952D01*
X61221904Y-113593571D01*
X61317142Y-113641190D01*
X61698095Y-113641190D01*
X60650476Y-114117380D02*
X60460000Y-114117380D01*
X60364761Y-114069761D01*
X60317142Y-114022142D01*
X60221904Y-113879285D01*
X60174285Y-113688809D01*
X60174285Y-113307857D01*
X60221904Y-113212619D01*
X60269523Y-113165000D01*
X60364761Y-113117380D01*
X60555238Y-113117380D01*
X60650476Y-113165000D01*
X60698095Y-113212619D01*
X60745714Y-113307857D01*
X60745714Y-113545952D01*
X60698095Y-113641190D01*
X60650476Y-113688809D01*
X60555238Y-113736428D01*
X60364761Y-113736428D01*
X60269523Y-113688809D01*
X60221904Y-113641190D01*
X60174285Y-113545952D01*
X66206666Y-123007380D02*
X66540000Y-122531190D01*
X66778095Y-123007380D02*
X66778095Y-122007380D01*
X66397142Y-122007380D01*
X66301904Y-122055000D01*
X66254285Y-122102619D01*
X66206666Y-122197857D01*
X66206666Y-122340714D01*
X66254285Y-122435952D01*
X66301904Y-122483571D01*
X66397142Y-122531190D01*
X66778095Y-122531190D01*
X65254285Y-123007380D02*
X65825714Y-123007380D01*
X65540000Y-123007380D02*
X65540000Y-122007380D01*
X65635238Y-122150238D01*
X65730476Y-122245476D01*
X65825714Y-122293095D01*
X103036666Y-110942380D02*
X103370000Y-110466190D01*
X103608095Y-110942380D02*
X103608095Y-109942380D01*
X103227142Y-109942380D01*
X103131904Y-109990000D01*
X103084285Y-110037619D01*
X103036666Y-110132857D01*
X103036666Y-110275714D01*
X103084285Y-110370952D01*
X103131904Y-110418571D01*
X103227142Y-110466190D01*
X103608095Y-110466190D01*
X102131904Y-109942380D02*
X102608095Y-109942380D01*
X102655714Y-110418571D01*
X102608095Y-110370952D01*
X102512857Y-110323333D01*
X102274761Y-110323333D01*
X102179523Y-110370952D01*
X102131904Y-110418571D01*
X102084285Y-110513809D01*
X102084285Y-110751904D01*
X102131904Y-110847142D01*
X102179523Y-110894761D01*
X102274761Y-110942380D01*
X102512857Y-110942380D01*
X102608095Y-110894761D01*
X102655714Y-110847142D01*
X107481666Y-110942380D02*
X107815000Y-110466190D01*
X108053095Y-110942380D02*
X108053095Y-109942380D01*
X107672142Y-109942380D01*
X107576904Y-109990000D01*
X107529285Y-110037619D01*
X107481666Y-110132857D01*
X107481666Y-110275714D01*
X107529285Y-110370952D01*
X107576904Y-110418571D01*
X107672142Y-110466190D01*
X108053095Y-110466190D01*
X106624523Y-109942380D02*
X106815000Y-109942380D01*
X106910238Y-109990000D01*
X106957857Y-110037619D01*
X107053095Y-110180476D01*
X107100714Y-110370952D01*
X107100714Y-110751904D01*
X107053095Y-110847142D01*
X107005476Y-110894761D01*
X106910238Y-110942380D01*
X106719761Y-110942380D01*
X106624523Y-110894761D01*
X106576904Y-110847142D01*
X106529285Y-110751904D01*
X106529285Y-110513809D01*
X106576904Y-110418571D01*
X106624523Y-110370952D01*
X106719761Y-110323333D01*
X106910238Y-110323333D01*
X107005476Y-110370952D01*
X107053095Y-110418571D01*
X107100714Y-110513809D01*
X93003642Y-100353833D02*
X93051261Y-100306214D01*
X93098880Y-100163357D01*
X93098880Y-100068119D01*
X93051261Y-99925261D01*
X92956023Y-99830023D01*
X92860785Y-99782404D01*
X92670309Y-99734785D01*
X92527452Y-99734785D01*
X92336976Y-99782404D01*
X92241738Y-99830023D01*
X92146500Y-99925261D01*
X92098880Y-100068119D01*
X92098880Y-100163357D01*
X92146500Y-100306214D01*
X92194119Y-100353833D01*
X92194119Y-100734785D02*
X92146500Y-100782404D01*
X92098880Y-100877642D01*
X92098880Y-101115738D01*
X92146500Y-101210976D01*
X92194119Y-101258595D01*
X92289357Y-101306214D01*
X92384595Y-101306214D01*
X92527452Y-101258595D01*
X93098880Y-100687166D01*
X93098880Y-101306214D01*
X98147142Y-100163333D02*
X98194761Y-100115714D01*
X98242380Y-99972857D01*
X98242380Y-99877619D01*
X98194761Y-99734761D01*
X98099523Y-99639523D01*
X98004285Y-99591904D01*
X97813809Y-99544285D01*
X97670952Y-99544285D01*
X97480476Y-99591904D01*
X97385238Y-99639523D01*
X97290000Y-99734761D01*
X97242380Y-99877619D01*
X97242380Y-99972857D01*
X97290000Y-100115714D01*
X97337619Y-100163333D01*
X97242380Y-101020476D02*
X97242380Y-100830000D01*
X97290000Y-100734761D01*
X97337619Y-100687142D01*
X97480476Y-100591904D01*
X97670952Y-100544285D01*
X98051904Y-100544285D01*
X98147142Y-100591904D01*
X98194761Y-100639523D01*
X98242380Y-100734761D01*
X98242380Y-100925238D01*
X98194761Y-101020476D01*
X98147142Y-101068095D01*
X98051904Y-101115714D01*
X97813809Y-101115714D01*
X97718571Y-101068095D01*
X97670952Y-101020476D01*
X97623333Y-100925238D01*
X97623333Y-100734761D01*
X97670952Y-100639523D01*
X97718571Y-100591904D01*
X97813809Y-100544285D01*
X58082380Y-80692666D02*
X58796666Y-80692666D01*
X58939523Y-80645047D01*
X59034761Y-80549809D01*
X59082380Y-80406952D01*
X59082380Y-80311714D01*
X58082380Y-81073619D02*
X58082380Y-81692666D01*
X58463333Y-81359333D01*
X58463333Y-81502190D01*
X58510952Y-81597428D01*
X58558571Y-81645047D01*
X58653809Y-81692666D01*
X58891904Y-81692666D01*
X58987142Y-81645047D01*
X59034761Y-81597428D01*
X59082380Y-81502190D01*
X59082380Y-81216476D01*
X59034761Y-81121238D01*
X58987142Y-81073619D01*
X73322380Y-80692666D02*
X74036666Y-80692666D01*
X74179523Y-80645047D01*
X74274761Y-80549809D01*
X74322380Y-80406952D01*
X74322380Y-80311714D01*
X73322380Y-81597428D02*
X73322380Y-81406952D01*
X73370000Y-81311714D01*
X73417619Y-81264095D01*
X73560476Y-81168857D01*
X73750952Y-81121238D01*
X74131904Y-81121238D01*
X74227142Y-81168857D01*
X74274761Y-81216476D01*
X74322380Y-81311714D01*
X74322380Y-81502190D01*
X74274761Y-81597428D01*
X74227142Y-81645047D01*
X74131904Y-81692666D01*
X73893809Y-81692666D01*
X73798571Y-81645047D01*
X73750952Y-81597428D01*
X73703333Y-81502190D01*
X73703333Y-81311714D01*
X73750952Y-81216476D01*
X73798571Y-81168857D01*
X73893809Y-81121238D01*
X58082380Y-104949666D02*
X58796666Y-104949666D01*
X58939523Y-104902047D01*
X59034761Y-104806809D01*
X59082380Y-104663952D01*
X59082380Y-104568714D01*
X58082380Y-105902047D02*
X58082380Y-105425857D01*
X58558571Y-105378238D01*
X58510952Y-105425857D01*
X58463333Y-105521095D01*
X58463333Y-105759190D01*
X58510952Y-105854428D01*
X58558571Y-105902047D01*
X58653809Y-105949666D01*
X58891904Y-105949666D01*
X58987142Y-105902047D01*
X59034761Y-105854428D01*
X59082380Y-105759190D01*
X59082380Y-105521095D01*
X59034761Y-105425857D01*
X58987142Y-105378238D01*
X71477142Y-112863333D02*
X71524761Y-112815714D01*
X71572380Y-112672857D01*
X71572380Y-112577619D01*
X71524761Y-112434761D01*
X71429523Y-112339523D01*
X71334285Y-112291904D01*
X71143809Y-112244285D01*
X71000952Y-112244285D01*
X70810476Y-112291904D01*
X70715238Y-112339523D01*
X70620000Y-112434761D01*
X70572380Y-112577619D01*
X70572380Y-112672857D01*
X70620000Y-112815714D01*
X70667619Y-112863333D01*
X70572380Y-113196666D02*
X70572380Y-113815714D01*
X70953333Y-113482380D01*
X70953333Y-113625238D01*
X71000952Y-113720476D01*
X71048571Y-113768095D01*
X71143809Y-113815714D01*
X71381904Y-113815714D01*
X71477142Y-113768095D01*
X71524761Y-113720476D01*
X71572380Y-113625238D01*
X71572380Y-113339523D01*
X71524761Y-113244285D01*
X71477142Y-113196666D01*
X73382142Y-119213333D02*
X73429761Y-119165714D01*
X73477380Y-119022857D01*
X73477380Y-118927619D01*
X73429761Y-118784761D01*
X73334523Y-118689523D01*
X73239285Y-118641904D01*
X73048809Y-118594285D01*
X72905952Y-118594285D01*
X72715476Y-118641904D01*
X72620238Y-118689523D01*
X72525000Y-118784761D01*
X72477380Y-118927619D01*
X72477380Y-119022857D01*
X72525000Y-119165714D01*
X72572619Y-119213333D01*
X72477380Y-120118095D02*
X72477380Y-119641904D01*
X72953571Y-119594285D01*
X72905952Y-119641904D01*
X72858333Y-119737142D01*
X72858333Y-119975238D01*
X72905952Y-120070476D01*
X72953571Y-120118095D01*
X73048809Y-120165714D01*
X73286904Y-120165714D01*
X73382142Y-120118095D01*
X73429761Y-120070476D01*
X73477380Y-119975238D01*
X73477380Y-119737142D01*
X73429761Y-119641904D01*
X73382142Y-119594285D01*
X75922142Y-119213333D02*
X75969761Y-119165714D01*
X76017380Y-119022857D01*
X76017380Y-118927619D01*
X75969761Y-118784761D01*
X75874523Y-118689523D01*
X75779285Y-118641904D01*
X75588809Y-118594285D01*
X75445952Y-118594285D01*
X75255476Y-118641904D01*
X75160238Y-118689523D01*
X75065000Y-118784761D01*
X75017380Y-118927619D01*
X75017380Y-119022857D01*
X75065000Y-119165714D01*
X75112619Y-119213333D01*
X75017380Y-119546666D02*
X75017380Y-120213333D01*
X76017380Y-119784761D01*
M02*
