G04 #@! TF.GenerationSoftware,KiCad,Pcbnew,(5.1.5)-3*
G04 #@! TF.CreationDate,2020-07-17T21:41:49-04:00*
G04 #@! TF.ProjectId,MONster64,4d4f4e73-7465-4723-9634-2e6b69636164,rev?*
G04 #@! TF.SameCoordinates,Original*
G04 #@! TF.FileFunction,Soldermask,Bot*
G04 #@! TF.FilePolarity,Negative*
%FSLAX46Y46*%
G04 Gerber Fmt 4.6, Leading zero omitted, Abs format (unit mm)*
G04 Created by KiCad (PCBNEW (5.1.5)-3) date 2020-07-17 21:41:49*
%MOMM*%
%LPD*%
G04 APERTURE LIST*
%ADD10C,0.100000*%
%ADD11R,1.800000X1.800000*%
%ADD12C,1.800000*%
%ADD13R,1.700000X1.700000*%
%ADD14O,1.700000X1.700000*%
%ADD15O,2.300000X1.200000*%
%ADD16R,1.750000X0.700000*%
%ADD17R,1.500000X1.300000*%
%ADD18R,1.500000X0.800000*%
%ADD19R,1.000000X1.450000*%
%ADD20R,1.400000X0.800000*%
%ADD21R,1.500000X1.500000*%
%ADD22R,1.550000X1.000000*%
%ADD23C,2.000000*%
%ADD24R,1.750000X7.000000*%
G04 APERTURE END LIST*
D10*
G36*
X57340500Y-132461000D02*
G01*
X57340500Y-139382500D01*
X115379500Y-139382500D01*
X115379500Y-132461000D01*
X57340500Y-132461000D01*
G37*
X57340500Y-132461000D02*
X57340500Y-139382500D01*
X115379500Y-139382500D01*
X115379500Y-132461000D01*
X57340500Y-132461000D01*
G36*
X60919505Y-121856204D02*
G01*
X60943773Y-121859804D01*
X60967572Y-121865765D01*
X60990671Y-121874030D01*
X61012850Y-121884520D01*
X61033893Y-121897132D01*
X61053599Y-121911747D01*
X61071777Y-121928223D01*
X61088253Y-121946401D01*
X61102868Y-121966107D01*
X61115480Y-121987150D01*
X61125970Y-122009329D01*
X61134235Y-122032428D01*
X61140196Y-122056227D01*
X61143796Y-122080495D01*
X61145000Y-122104999D01*
X61145000Y-123005001D01*
X61143796Y-123029505D01*
X61140196Y-123053773D01*
X61134235Y-123077572D01*
X61125970Y-123100671D01*
X61115480Y-123122850D01*
X61102868Y-123143893D01*
X61088253Y-123163599D01*
X61071777Y-123181777D01*
X61053599Y-123198253D01*
X61033893Y-123212868D01*
X61012850Y-123225480D01*
X60990671Y-123235970D01*
X60967572Y-123244235D01*
X60943773Y-123250196D01*
X60919505Y-123253796D01*
X60895001Y-123255000D01*
X60244999Y-123255000D01*
X60220495Y-123253796D01*
X60196227Y-123250196D01*
X60172428Y-123244235D01*
X60149329Y-123235970D01*
X60127150Y-123225480D01*
X60106107Y-123212868D01*
X60086401Y-123198253D01*
X60068223Y-123181777D01*
X60051747Y-123163599D01*
X60037132Y-123143893D01*
X60024520Y-123122850D01*
X60014030Y-123100671D01*
X60005765Y-123077572D01*
X59999804Y-123053773D01*
X59996204Y-123029505D01*
X59995000Y-123005001D01*
X59995000Y-122104999D01*
X59996204Y-122080495D01*
X59999804Y-122056227D01*
X60005765Y-122032428D01*
X60014030Y-122009329D01*
X60024520Y-121987150D01*
X60037132Y-121966107D01*
X60051747Y-121946401D01*
X60068223Y-121928223D01*
X60086401Y-121911747D01*
X60106107Y-121897132D01*
X60127150Y-121884520D01*
X60149329Y-121874030D01*
X60172428Y-121865765D01*
X60196227Y-121859804D01*
X60220495Y-121856204D01*
X60244999Y-121855000D01*
X60895001Y-121855000D01*
X60919505Y-121856204D01*
G37*
G36*
X62969505Y-121856204D02*
G01*
X62993773Y-121859804D01*
X63017572Y-121865765D01*
X63040671Y-121874030D01*
X63062850Y-121884520D01*
X63083893Y-121897132D01*
X63103599Y-121911747D01*
X63121777Y-121928223D01*
X63138253Y-121946401D01*
X63152868Y-121966107D01*
X63165480Y-121987150D01*
X63175970Y-122009329D01*
X63184235Y-122032428D01*
X63190196Y-122056227D01*
X63193796Y-122080495D01*
X63195000Y-122104999D01*
X63195000Y-123005001D01*
X63193796Y-123029505D01*
X63190196Y-123053773D01*
X63184235Y-123077572D01*
X63175970Y-123100671D01*
X63165480Y-123122850D01*
X63152868Y-123143893D01*
X63138253Y-123163599D01*
X63121777Y-123181777D01*
X63103599Y-123198253D01*
X63083893Y-123212868D01*
X63062850Y-123225480D01*
X63040671Y-123235970D01*
X63017572Y-123244235D01*
X62993773Y-123250196D01*
X62969505Y-123253796D01*
X62945001Y-123255000D01*
X62294999Y-123255000D01*
X62270495Y-123253796D01*
X62246227Y-123250196D01*
X62222428Y-123244235D01*
X62199329Y-123235970D01*
X62177150Y-123225480D01*
X62156107Y-123212868D01*
X62136401Y-123198253D01*
X62118223Y-123181777D01*
X62101747Y-123163599D01*
X62087132Y-123143893D01*
X62074520Y-123122850D01*
X62064030Y-123100671D01*
X62055765Y-123077572D01*
X62049804Y-123053773D01*
X62046204Y-123029505D01*
X62045000Y-123005001D01*
X62045000Y-122104999D01*
X62046204Y-122080495D01*
X62049804Y-122056227D01*
X62055765Y-122032428D01*
X62064030Y-122009329D01*
X62074520Y-121987150D01*
X62087132Y-121966107D01*
X62101747Y-121946401D01*
X62118223Y-121928223D01*
X62136401Y-121911747D01*
X62156107Y-121897132D01*
X62177150Y-121884520D01*
X62199329Y-121874030D01*
X62222428Y-121865765D01*
X62246227Y-121859804D01*
X62270495Y-121856204D01*
X62294999Y-121855000D01*
X62945001Y-121855000D01*
X62969505Y-121856204D01*
G37*
G36*
X62969505Y-124396204D02*
G01*
X62993773Y-124399804D01*
X63017572Y-124405765D01*
X63040671Y-124414030D01*
X63062850Y-124424520D01*
X63083893Y-124437132D01*
X63103599Y-124451747D01*
X63121777Y-124468223D01*
X63138253Y-124486401D01*
X63152868Y-124506107D01*
X63165480Y-124527150D01*
X63175970Y-124549329D01*
X63184235Y-124572428D01*
X63190196Y-124596227D01*
X63193796Y-124620495D01*
X63195000Y-124644999D01*
X63195000Y-125545001D01*
X63193796Y-125569505D01*
X63190196Y-125593773D01*
X63184235Y-125617572D01*
X63175970Y-125640671D01*
X63165480Y-125662850D01*
X63152868Y-125683893D01*
X63138253Y-125703599D01*
X63121777Y-125721777D01*
X63103599Y-125738253D01*
X63083893Y-125752868D01*
X63062850Y-125765480D01*
X63040671Y-125775970D01*
X63017572Y-125784235D01*
X62993773Y-125790196D01*
X62969505Y-125793796D01*
X62945001Y-125795000D01*
X62294999Y-125795000D01*
X62270495Y-125793796D01*
X62246227Y-125790196D01*
X62222428Y-125784235D01*
X62199329Y-125775970D01*
X62177150Y-125765480D01*
X62156107Y-125752868D01*
X62136401Y-125738253D01*
X62118223Y-125721777D01*
X62101747Y-125703599D01*
X62087132Y-125683893D01*
X62074520Y-125662850D01*
X62064030Y-125640671D01*
X62055765Y-125617572D01*
X62049804Y-125593773D01*
X62046204Y-125569505D01*
X62045000Y-125545001D01*
X62045000Y-124644999D01*
X62046204Y-124620495D01*
X62049804Y-124596227D01*
X62055765Y-124572428D01*
X62064030Y-124549329D01*
X62074520Y-124527150D01*
X62087132Y-124506107D01*
X62101747Y-124486401D01*
X62118223Y-124468223D01*
X62136401Y-124451747D01*
X62156107Y-124437132D01*
X62177150Y-124424520D01*
X62199329Y-124414030D01*
X62222428Y-124405765D01*
X62246227Y-124399804D01*
X62270495Y-124396204D01*
X62294999Y-124395000D01*
X62945001Y-124395000D01*
X62969505Y-124396204D01*
G37*
G36*
X60919505Y-124396204D02*
G01*
X60943773Y-124399804D01*
X60967572Y-124405765D01*
X60990671Y-124414030D01*
X61012850Y-124424520D01*
X61033893Y-124437132D01*
X61053599Y-124451747D01*
X61071777Y-124468223D01*
X61088253Y-124486401D01*
X61102868Y-124506107D01*
X61115480Y-124527150D01*
X61125970Y-124549329D01*
X61134235Y-124572428D01*
X61140196Y-124596227D01*
X61143796Y-124620495D01*
X61145000Y-124644999D01*
X61145000Y-125545001D01*
X61143796Y-125569505D01*
X61140196Y-125593773D01*
X61134235Y-125617572D01*
X61125970Y-125640671D01*
X61115480Y-125662850D01*
X61102868Y-125683893D01*
X61088253Y-125703599D01*
X61071777Y-125721777D01*
X61053599Y-125738253D01*
X61033893Y-125752868D01*
X61012850Y-125765480D01*
X60990671Y-125775970D01*
X60967572Y-125784235D01*
X60943773Y-125790196D01*
X60919505Y-125793796D01*
X60895001Y-125795000D01*
X60244999Y-125795000D01*
X60220495Y-125793796D01*
X60196227Y-125790196D01*
X60172428Y-125784235D01*
X60149329Y-125775970D01*
X60127150Y-125765480D01*
X60106107Y-125752868D01*
X60086401Y-125738253D01*
X60068223Y-125721777D01*
X60051747Y-125703599D01*
X60037132Y-125683893D01*
X60024520Y-125662850D01*
X60014030Y-125640671D01*
X60005765Y-125617572D01*
X59999804Y-125593773D01*
X59996204Y-125569505D01*
X59995000Y-125545001D01*
X59995000Y-124644999D01*
X59996204Y-124620495D01*
X59999804Y-124596227D01*
X60005765Y-124572428D01*
X60014030Y-124549329D01*
X60024520Y-124527150D01*
X60037132Y-124506107D01*
X60051747Y-124486401D01*
X60068223Y-124468223D01*
X60086401Y-124451747D01*
X60106107Y-124437132D01*
X60127150Y-124424520D01*
X60149329Y-124414030D01*
X60172428Y-124405765D01*
X60196227Y-124399804D01*
X60220495Y-124396204D01*
X60244999Y-124395000D01*
X60895001Y-124395000D01*
X60919505Y-124396204D01*
G37*
G36*
X62779005Y-119316204D02*
G01*
X62803273Y-119319804D01*
X62827072Y-119325765D01*
X62850171Y-119334030D01*
X62872350Y-119344520D01*
X62893393Y-119357132D01*
X62913099Y-119371747D01*
X62931277Y-119388223D01*
X62947753Y-119406401D01*
X62962368Y-119426107D01*
X62974980Y-119447150D01*
X62985470Y-119469329D01*
X62993735Y-119492428D01*
X62999696Y-119516227D01*
X63003296Y-119540495D01*
X63004500Y-119564999D01*
X63004500Y-120465001D01*
X63003296Y-120489505D01*
X62999696Y-120513773D01*
X62993735Y-120537572D01*
X62985470Y-120560671D01*
X62974980Y-120582850D01*
X62962368Y-120603893D01*
X62947753Y-120623599D01*
X62931277Y-120641777D01*
X62913099Y-120658253D01*
X62893393Y-120672868D01*
X62872350Y-120685480D01*
X62850171Y-120695970D01*
X62827072Y-120704235D01*
X62803273Y-120710196D01*
X62779005Y-120713796D01*
X62754501Y-120715000D01*
X62104499Y-120715000D01*
X62079995Y-120713796D01*
X62055727Y-120710196D01*
X62031928Y-120704235D01*
X62008829Y-120695970D01*
X61986650Y-120685480D01*
X61965607Y-120672868D01*
X61945901Y-120658253D01*
X61927723Y-120641777D01*
X61911247Y-120623599D01*
X61896632Y-120603893D01*
X61884020Y-120582850D01*
X61873530Y-120560671D01*
X61865265Y-120537572D01*
X61859304Y-120513773D01*
X61855704Y-120489505D01*
X61854500Y-120465001D01*
X61854500Y-119564999D01*
X61855704Y-119540495D01*
X61859304Y-119516227D01*
X61865265Y-119492428D01*
X61873530Y-119469329D01*
X61884020Y-119447150D01*
X61896632Y-119426107D01*
X61911247Y-119406401D01*
X61927723Y-119388223D01*
X61945901Y-119371747D01*
X61965607Y-119357132D01*
X61986650Y-119344520D01*
X62008829Y-119334030D01*
X62031928Y-119325765D01*
X62055727Y-119319804D01*
X62079995Y-119316204D01*
X62104499Y-119315000D01*
X62754501Y-119315000D01*
X62779005Y-119316204D01*
G37*
G36*
X60729005Y-119316204D02*
G01*
X60753273Y-119319804D01*
X60777072Y-119325765D01*
X60800171Y-119334030D01*
X60822350Y-119344520D01*
X60843393Y-119357132D01*
X60863099Y-119371747D01*
X60881277Y-119388223D01*
X60897753Y-119406401D01*
X60912368Y-119426107D01*
X60924980Y-119447150D01*
X60935470Y-119469329D01*
X60943735Y-119492428D01*
X60949696Y-119516227D01*
X60953296Y-119540495D01*
X60954500Y-119564999D01*
X60954500Y-120465001D01*
X60953296Y-120489505D01*
X60949696Y-120513773D01*
X60943735Y-120537572D01*
X60935470Y-120560671D01*
X60924980Y-120582850D01*
X60912368Y-120603893D01*
X60897753Y-120623599D01*
X60881277Y-120641777D01*
X60863099Y-120658253D01*
X60843393Y-120672868D01*
X60822350Y-120685480D01*
X60800171Y-120695970D01*
X60777072Y-120704235D01*
X60753273Y-120710196D01*
X60729005Y-120713796D01*
X60704501Y-120715000D01*
X60054499Y-120715000D01*
X60029995Y-120713796D01*
X60005727Y-120710196D01*
X59981928Y-120704235D01*
X59958829Y-120695970D01*
X59936650Y-120685480D01*
X59915607Y-120672868D01*
X59895901Y-120658253D01*
X59877723Y-120641777D01*
X59861247Y-120623599D01*
X59846632Y-120603893D01*
X59834020Y-120582850D01*
X59823530Y-120560671D01*
X59815265Y-120537572D01*
X59809304Y-120513773D01*
X59805704Y-120489505D01*
X59804500Y-120465001D01*
X59804500Y-119564999D01*
X59805704Y-119540495D01*
X59809304Y-119516227D01*
X59815265Y-119492428D01*
X59823530Y-119469329D01*
X59834020Y-119447150D01*
X59846632Y-119426107D01*
X59861247Y-119406401D01*
X59877723Y-119388223D01*
X59895901Y-119371747D01*
X59915607Y-119357132D01*
X59936650Y-119344520D01*
X59958829Y-119334030D01*
X59981928Y-119325765D01*
X60005727Y-119319804D01*
X60029995Y-119316204D01*
X60054499Y-119315000D01*
X60704501Y-119315000D01*
X60729005Y-119316204D01*
G37*
G36*
X60729005Y-116776204D02*
G01*
X60753273Y-116779804D01*
X60777072Y-116785765D01*
X60800171Y-116794030D01*
X60822350Y-116804520D01*
X60843393Y-116817132D01*
X60863099Y-116831747D01*
X60881277Y-116848223D01*
X60897753Y-116866401D01*
X60912368Y-116886107D01*
X60924980Y-116907150D01*
X60935470Y-116929329D01*
X60943735Y-116952428D01*
X60949696Y-116976227D01*
X60953296Y-117000495D01*
X60954500Y-117024999D01*
X60954500Y-117925001D01*
X60953296Y-117949505D01*
X60949696Y-117973773D01*
X60943735Y-117997572D01*
X60935470Y-118020671D01*
X60924980Y-118042850D01*
X60912368Y-118063893D01*
X60897753Y-118083599D01*
X60881277Y-118101777D01*
X60863099Y-118118253D01*
X60843393Y-118132868D01*
X60822350Y-118145480D01*
X60800171Y-118155970D01*
X60777072Y-118164235D01*
X60753273Y-118170196D01*
X60729005Y-118173796D01*
X60704501Y-118175000D01*
X60054499Y-118175000D01*
X60029995Y-118173796D01*
X60005727Y-118170196D01*
X59981928Y-118164235D01*
X59958829Y-118155970D01*
X59936650Y-118145480D01*
X59915607Y-118132868D01*
X59895901Y-118118253D01*
X59877723Y-118101777D01*
X59861247Y-118083599D01*
X59846632Y-118063893D01*
X59834020Y-118042850D01*
X59823530Y-118020671D01*
X59815265Y-117997572D01*
X59809304Y-117973773D01*
X59805704Y-117949505D01*
X59804500Y-117925001D01*
X59804500Y-117024999D01*
X59805704Y-117000495D01*
X59809304Y-116976227D01*
X59815265Y-116952428D01*
X59823530Y-116929329D01*
X59834020Y-116907150D01*
X59846632Y-116886107D01*
X59861247Y-116866401D01*
X59877723Y-116848223D01*
X59895901Y-116831747D01*
X59915607Y-116817132D01*
X59936650Y-116804520D01*
X59958829Y-116794030D01*
X59981928Y-116785765D01*
X60005727Y-116779804D01*
X60029995Y-116776204D01*
X60054499Y-116775000D01*
X60704501Y-116775000D01*
X60729005Y-116776204D01*
G37*
G36*
X62779005Y-116776204D02*
G01*
X62803273Y-116779804D01*
X62827072Y-116785765D01*
X62850171Y-116794030D01*
X62872350Y-116804520D01*
X62893393Y-116817132D01*
X62913099Y-116831747D01*
X62931277Y-116848223D01*
X62947753Y-116866401D01*
X62962368Y-116886107D01*
X62974980Y-116907150D01*
X62985470Y-116929329D01*
X62993735Y-116952428D01*
X62999696Y-116976227D01*
X63003296Y-117000495D01*
X63004500Y-117024999D01*
X63004500Y-117925001D01*
X63003296Y-117949505D01*
X62999696Y-117973773D01*
X62993735Y-117997572D01*
X62985470Y-118020671D01*
X62974980Y-118042850D01*
X62962368Y-118063893D01*
X62947753Y-118083599D01*
X62931277Y-118101777D01*
X62913099Y-118118253D01*
X62893393Y-118132868D01*
X62872350Y-118145480D01*
X62850171Y-118155970D01*
X62827072Y-118164235D01*
X62803273Y-118170196D01*
X62779005Y-118173796D01*
X62754501Y-118175000D01*
X62104499Y-118175000D01*
X62079995Y-118173796D01*
X62055727Y-118170196D01*
X62031928Y-118164235D01*
X62008829Y-118155970D01*
X61986650Y-118145480D01*
X61965607Y-118132868D01*
X61945901Y-118118253D01*
X61927723Y-118101777D01*
X61911247Y-118083599D01*
X61896632Y-118063893D01*
X61884020Y-118042850D01*
X61873530Y-118020671D01*
X61865265Y-117997572D01*
X61859304Y-117973773D01*
X61855704Y-117949505D01*
X61854500Y-117925001D01*
X61854500Y-117024999D01*
X61855704Y-117000495D01*
X61859304Y-116976227D01*
X61865265Y-116952428D01*
X61873530Y-116929329D01*
X61884020Y-116907150D01*
X61896632Y-116886107D01*
X61911247Y-116866401D01*
X61927723Y-116848223D01*
X61945901Y-116831747D01*
X61965607Y-116817132D01*
X61986650Y-116804520D01*
X62008829Y-116794030D01*
X62031928Y-116785765D01*
X62055727Y-116779804D01*
X62079995Y-116776204D01*
X62104499Y-116775000D01*
X62754501Y-116775000D01*
X62779005Y-116776204D01*
G37*
G36*
X81119505Y-124276204D02*
G01*
X81143773Y-124279804D01*
X81167572Y-124285765D01*
X81190671Y-124294030D01*
X81212850Y-124304520D01*
X81233893Y-124317132D01*
X81253599Y-124331747D01*
X81271777Y-124348223D01*
X81288253Y-124366401D01*
X81302868Y-124386107D01*
X81315480Y-124407150D01*
X81325970Y-124429329D01*
X81334235Y-124452428D01*
X81340196Y-124476227D01*
X81343796Y-124500495D01*
X81345000Y-124524999D01*
X81345000Y-125175001D01*
X81343796Y-125199505D01*
X81340196Y-125223773D01*
X81334235Y-125247572D01*
X81325970Y-125270671D01*
X81315480Y-125292850D01*
X81302868Y-125313893D01*
X81288253Y-125333599D01*
X81271777Y-125351777D01*
X81253599Y-125368253D01*
X81233893Y-125382868D01*
X81212850Y-125395480D01*
X81190671Y-125405970D01*
X81167572Y-125414235D01*
X81143773Y-125420196D01*
X81119505Y-125423796D01*
X81095001Y-125425000D01*
X80194999Y-125425000D01*
X80170495Y-125423796D01*
X80146227Y-125420196D01*
X80122428Y-125414235D01*
X80099329Y-125405970D01*
X80077150Y-125395480D01*
X80056107Y-125382868D01*
X80036401Y-125368253D01*
X80018223Y-125351777D01*
X80001747Y-125333599D01*
X79987132Y-125313893D01*
X79974520Y-125292850D01*
X79964030Y-125270671D01*
X79955765Y-125247572D01*
X79949804Y-125223773D01*
X79946204Y-125199505D01*
X79945000Y-125175001D01*
X79945000Y-124524999D01*
X79946204Y-124500495D01*
X79949804Y-124476227D01*
X79955765Y-124452428D01*
X79964030Y-124429329D01*
X79974520Y-124407150D01*
X79987132Y-124386107D01*
X80001747Y-124366401D01*
X80018223Y-124348223D01*
X80036401Y-124331747D01*
X80056107Y-124317132D01*
X80077150Y-124304520D01*
X80099329Y-124294030D01*
X80122428Y-124285765D01*
X80146227Y-124279804D01*
X80170495Y-124276204D01*
X80194999Y-124275000D01*
X81095001Y-124275000D01*
X81119505Y-124276204D01*
G37*
G36*
X81119505Y-122226204D02*
G01*
X81143773Y-122229804D01*
X81167572Y-122235765D01*
X81190671Y-122244030D01*
X81212850Y-122254520D01*
X81233893Y-122267132D01*
X81253599Y-122281747D01*
X81271777Y-122298223D01*
X81288253Y-122316401D01*
X81302868Y-122336107D01*
X81315480Y-122357150D01*
X81325970Y-122379329D01*
X81334235Y-122402428D01*
X81340196Y-122426227D01*
X81343796Y-122450495D01*
X81345000Y-122474999D01*
X81345000Y-123125001D01*
X81343796Y-123149505D01*
X81340196Y-123173773D01*
X81334235Y-123197572D01*
X81325970Y-123220671D01*
X81315480Y-123242850D01*
X81302868Y-123263893D01*
X81288253Y-123283599D01*
X81271777Y-123301777D01*
X81253599Y-123318253D01*
X81233893Y-123332868D01*
X81212850Y-123345480D01*
X81190671Y-123355970D01*
X81167572Y-123364235D01*
X81143773Y-123370196D01*
X81119505Y-123373796D01*
X81095001Y-123375000D01*
X80194999Y-123375000D01*
X80170495Y-123373796D01*
X80146227Y-123370196D01*
X80122428Y-123364235D01*
X80099329Y-123355970D01*
X80077150Y-123345480D01*
X80056107Y-123332868D01*
X80036401Y-123318253D01*
X80018223Y-123301777D01*
X80001747Y-123283599D01*
X79987132Y-123263893D01*
X79974520Y-123242850D01*
X79964030Y-123220671D01*
X79955765Y-123197572D01*
X79949804Y-123173773D01*
X79946204Y-123149505D01*
X79945000Y-123125001D01*
X79945000Y-122474999D01*
X79946204Y-122450495D01*
X79949804Y-122426227D01*
X79955765Y-122402428D01*
X79964030Y-122379329D01*
X79974520Y-122357150D01*
X79987132Y-122336107D01*
X80001747Y-122316401D01*
X80018223Y-122298223D01*
X80036401Y-122281747D01*
X80056107Y-122267132D01*
X80077150Y-122254520D01*
X80099329Y-122244030D01*
X80122428Y-122235765D01*
X80146227Y-122229804D01*
X80170495Y-122226204D01*
X80194999Y-122225000D01*
X81095001Y-122225000D01*
X81119505Y-122226204D01*
G37*
G36*
X83024505Y-113336204D02*
G01*
X83048773Y-113339804D01*
X83072572Y-113345765D01*
X83095671Y-113354030D01*
X83117850Y-113364520D01*
X83138893Y-113377132D01*
X83158599Y-113391747D01*
X83176777Y-113408223D01*
X83193253Y-113426401D01*
X83207868Y-113446107D01*
X83220480Y-113467150D01*
X83230970Y-113489329D01*
X83239235Y-113512428D01*
X83245196Y-113536227D01*
X83248796Y-113560495D01*
X83250000Y-113584999D01*
X83250000Y-114235001D01*
X83248796Y-114259505D01*
X83245196Y-114283773D01*
X83239235Y-114307572D01*
X83230970Y-114330671D01*
X83220480Y-114352850D01*
X83207868Y-114373893D01*
X83193253Y-114393599D01*
X83176777Y-114411777D01*
X83158599Y-114428253D01*
X83138893Y-114442868D01*
X83117850Y-114455480D01*
X83095671Y-114465970D01*
X83072572Y-114474235D01*
X83048773Y-114480196D01*
X83024505Y-114483796D01*
X83000001Y-114485000D01*
X82099999Y-114485000D01*
X82075495Y-114483796D01*
X82051227Y-114480196D01*
X82027428Y-114474235D01*
X82004329Y-114465970D01*
X81982150Y-114455480D01*
X81961107Y-114442868D01*
X81941401Y-114428253D01*
X81923223Y-114411777D01*
X81906747Y-114393599D01*
X81892132Y-114373893D01*
X81879520Y-114352850D01*
X81869030Y-114330671D01*
X81860765Y-114307572D01*
X81854804Y-114283773D01*
X81851204Y-114259505D01*
X81850000Y-114235001D01*
X81850000Y-113584999D01*
X81851204Y-113560495D01*
X81854804Y-113536227D01*
X81860765Y-113512428D01*
X81869030Y-113489329D01*
X81879520Y-113467150D01*
X81892132Y-113446107D01*
X81906747Y-113426401D01*
X81923223Y-113408223D01*
X81941401Y-113391747D01*
X81961107Y-113377132D01*
X81982150Y-113364520D01*
X82004329Y-113354030D01*
X82027428Y-113345765D01*
X82051227Y-113339804D01*
X82075495Y-113336204D01*
X82099999Y-113335000D01*
X83000001Y-113335000D01*
X83024505Y-113336204D01*
G37*
G36*
X83024505Y-115386204D02*
G01*
X83048773Y-115389804D01*
X83072572Y-115395765D01*
X83095671Y-115404030D01*
X83117850Y-115414520D01*
X83138893Y-115427132D01*
X83158599Y-115441747D01*
X83176777Y-115458223D01*
X83193253Y-115476401D01*
X83207868Y-115496107D01*
X83220480Y-115517150D01*
X83230970Y-115539329D01*
X83239235Y-115562428D01*
X83245196Y-115586227D01*
X83248796Y-115610495D01*
X83250000Y-115634999D01*
X83250000Y-116285001D01*
X83248796Y-116309505D01*
X83245196Y-116333773D01*
X83239235Y-116357572D01*
X83230970Y-116380671D01*
X83220480Y-116402850D01*
X83207868Y-116423893D01*
X83193253Y-116443599D01*
X83176777Y-116461777D01*
X83158599Y-116478253D01*
X83138893Y-116492868D01*
X83117850Y-116505480D01*
X83095671Y-116515970D01*
X83072572Y-116524235D01*
X83048773Y-116530196D01*
X83024505Y-116533796D01*
X83000001Y-116535000D01*
X82099999Y-116535000D01*
X82075495Y-116533796D01*
X82051227Y-116530196D01*
X82027428Y-116524235D01*
X82004329Y-116515970D01*
X81982150Y-116505480D01*
X81961107Y-116492868D01*
X81941401Y-116478253D01*
X81923223Y-116461777D01*
X81906747Y-116443599D01*
X81892132Y-116423893D01*
X81879520Y-116402850D01*
X81869030Y-116380671D01*
X81860765Y-116357572D01*
X81854804Y-116333773D01*
X81851204Y-116309505D01*
X81850000Y-116285001D01*
X81850000Y-115634999D01*
X81851204Y-115610495D01*
X81854804Y-115586227D01*
X81860765Y-115562428D01*
X81869030Y-115539329D01*
X81879520Y-115517150D01*
X81892132Y-115496107D01*
X81906747Y-115476401D01*
X81923223Y-115458223D01*
X81941401Y-115441747D01*
X81961107Y-115427132D01*
X81982150Y-115414520D01*
X82004329Y-115404030D01*
X82027428Y-115395765D01*
X82051227Y-115389804D01*
X82075495Y-115386204D01*
X82099999Y-115385000D01*
X83000001Y-115385000D01*
X83024505Y-115386204D01*
G37*
G36*
X85564505Y-115386204D02*
G01*
X85588773Y-115389804D01*
X85612572Y-115395765D01*
X85635671Y-115404030D01*
X85657850Y-115414520D01*
X85678893Y-115427132D01*
X85698599Y-115441747D01*
X85716777Y-115458223D01*
X85733253Y-115476401D01*
X85747868Y-115496107D01*
X85760480Y-115517150D01*
X85770970Y-115539329D01*
X85779235Y-115562428D01*
X85785196Y-115586227D01*
X85788796Y-115610495D01*
X85790000Y-115634999D01*
X85790000Y-116285001D01*
X85788796Y-116309505D01*
X85785196Y-116333773D01*
X85779235Y-116357572D01*
X85770970Y-116380671D01*
X85760480Y-116402850D01*
X85747868Y-116423893D01*
X85733253Y-116443599D01*
X85716777Y-116461777D01*
X85698599Y-116478253D01*
X85678893Y-116492868D01*
X85657850Y-116505480D01*
X85635671Y-116515970D01*
X85612572Y-116524235D01*
X85588773Y-116530196D01*
X85564505Y-116533796D01*
X85540001Y-116535000D01*
X84639999Y-116535000D01*
X84615495Y-116533796D01*
X84591227Y-116530196D01*
X84567428Y-116524235D01*
X84544329Y-116515970D01*
X84522150Y-116505480D01*
X84501107Y-116492868D01*
X84481401Y-116478253D01*
X84463223Y-116461777D01*
X84446747Y-116443599D01*
X84432132Y-116423893D01*
X84419520Y-116402850D01*
X84409030Y-116380671D01*
X84400765Y-116357572D01*
X84394804Y-116333773D01*
X84391204Y-116309505D01*
X84390000Y-116285001D01*
X84390000Y-115634999D01*
X84391204Y-115610495D01*
X84394804Y-115586227D01*
X84400765Y-115562428D01*
X84409030Y-115539329D01*
X84419520Y-115517150D01*
X84432132Y-115496107D01*
X84446747Y-115476401D01*
X84463223Y-115458223D01*
X84481401Y-115441747D01*
X84501107Y-115427132D01*
X84522150Y-115414520D01*
X84544329Y-115404030D01*
X84567428Y-115395765D01*
X84591227Y-115389804D01*
X84615495Y-115386204D01*
X84639999Y-115385000D01*
X85540001Y-115385000D01*
X85564505Y-115386204D01*
G37*
G36*
X85564505Y-113336204D02*
G01*
X85588773Y-113339804D01*
X85612572Y-113345765D01*
X85635671Y-113354030D01*
X85657850Y-113364520D01*
X85678893Y-113377132D01*
X85698599Y-113391747D01*
X85716777Y-113408223D01*
X85733253Y-113426401D01*
X85747868Y-113446107D01*
X85760480Y-113467150D01*
X85770970Y-113489329D01*
X85779235Y-113512428D01*
X85785196Y-113536227D01*
X85788796Y-113560495D01*
X85790000Y-113584999D01*
X85790000Y-114235001D01*
X85788796Y-114259505D01*
X85785196Y-114283773D01*
X85779235Y-114307572D01*
X85770970Y-114330671D01*
X85760480Y-114352850D01*
X85747868Y-114373893D01*
X85733253Y-114393599D01*
X85716777Y-114411777D01*
X85698599Y-114428253D01*
X85678893Y-114442868D01*
X85657850Y-114455480D01*
X85635671Y-114465970D01*
X85612572Y-114474235D01*
X85588773Y-114480196D01*
X85564505Y-114483796D01*
X85540001Y-114485000D01*
X84639999Y-114485000D01*
X84615495Y-114483796D01*
X84591227Y-114480196D01*
X84567428Y-114474235D01*
X84544329Y-114465970D01*
X84522150Y-114455480D01*
X84501107Y-114442868D01*
X84481401Y-114428253D01*
X84463223Y-114411777D01*
X84446747Y-114393599D01*
X84432132Y-114373893D01*
X84419520Y-114352850D01*
X84409030Y-114330671D01*
X84400765Y-114307572D01*
X84394804Y-114283773D01*
X84391204Y-114259505D01*
X84390000Y-114235001D01*
X84390000Y-113584999D01*
X84391204Y-113560495D01*
X84394804Y-113536227D01*
X84400765Y-113512428D01*
X84409030Y-113489329D01*
X84419520Y-113467150D01*
X84432132Y-113446107D01*
X84446747Y-113426401D01*
X84463223Y-113408223D01*
X84481401Y-113391747D01*
X84501107Y-113377132D01*
X84522150Y-113364520D01*
X84544329Y-113354030D01*
X84567428Y-113345765D01*
X84591227Y-113339804D01*
X84615495Y-113336204D01*
X84639999Y-113335000D01*
X85540001Y-113335000D01*
X85564505Y-113336204D01*
G37*
G36*
X95724505Y-110796204D02*
G01*
X95748773Y-110799804D01*
X95772572Y-110805765D01*
X95795671Y-110814030D01*
X95817850Y-110824520D01*
X95838893Y-110837132D01*
X95858599Y-110851747D01*
X95876777Y-110868223D01*
X95893253Y-110886401D01*
X95907868Y-110906107D01*
X95920480Y-110927150D01*
X95930970Y-110949329D01*
X95939235Y-110972428D01*
X95945196Y-110996227D01*
X95948796Y-111020495D01*
X95950000Y-111044999D01*
X95950000Y-111695001D01*
X95948796Y-111719505D01*
X95945196Y-111743773D01*
X95939235Y-111767572D01*
X95930970Y-111790671D01*
X95920480Y-111812850D01*
X95907868Y-111833893D01*
X95893253Y-111853599D01*
X95876777Y-111871777D01*
X95858599Y-111888253D01*
X95838893Y-111902868D01*
X95817850Y-111915480D01*
X95795671Y-111925970D01*
X95772572Y-111934235D01*
X95748773Y-111940196D01*
X95724505Y-111943796D01*
X95700001Y-111945000D01*
X94799999Y-111945000D01*
X94775495Y-111943796D01*
X94751227Y-111940196D01*
X94727428Y-111934235D01*
X94704329Y-111925970D01*
X94682150Y-111915480D01*
X94661107Y-111902868D01*
X94641401Y-111888253D01*
X94623223Y-111871777D01*
X94606747Y-111853599D01*
X94592132Y-111833893D01*
X94579520Y-111812850D01*
X94569030Y-111790671D01*
X94560765Y-111767572D01*
X94554804Y-111743773D01*
X94551204Y-111719505D01*
X94550000Y-111695001D01*
X94550000Y-111044999D01*
X94551204Y-111020495D01*
X94554804Y-110996227D01*
X94560765Y-110972428D01*
X94569030Y-110949329D01*
X94579520Y-110927150D01*
X94592132Y-110906107D01*
X94606747Y-110886401D01*
X94623223Y-110868223D01*
X94641401Y-110851747D01*
X94661107Y-110837132D01*
X94682150Y-110824520D01*
X94704329Y-110814030D01*
X94727428Y-110805765D01*
X94751227Y-110799804D01*
X94775495Y-110796204D01*
X94799999Y-110795000D01*
X95700001Y-110795000D01*
X95724505Y-110796204D01*
G37*
G36*
X95724505Y-112846204D02*
G01*
X95748773Y-112849804D01*
X95772572Y-112855765D01*
X95795671Y-112864030D01*
X95817850Y-112874520D01*
X95838893Y-112887132D01*
X95858599Y-112901747D01*
X95876777Y-112918223D01*
X95893253Y-112936401D01*
X95907868Y-112956107D01*
X95920480Y-112977150D01*
X95930970Y-112999329D01*
X95939235Y-113022428D01*
X95945196Y-113046227D01*
X95948796Y-113070495D01*
X95950000Y-113094999D01*
X95950000Y-113745001D01*
X95948796Y-113769505D01*
X95945196Y-113793773D01*
X95939235Y-113817572D01*
X95930970Y-113840671D01*
X95920480Y-113862850D01*
X95907868Y-113883893D01*
X95893253Y-113903599D01*
X95876777Y-113921777D01*
X95858599Y-113938253D01*
X95838893Y-113952868D01*
X95817850Y-113965480D01*
X95795671Y-113975970D01*
X95772572Y-113984235D01*
X95748773Y-113990196D01*
X95724505Y-113993796D01*
X95700001Y-113995000D01*
X94799999Y-113995000D01*
X94775495Y-113993796D01*
X94751227Y-113990196D01*
X94727428Y-113984235D01*
X94704329Y-113975970D01*
X94682150Y-113965480D01*
X94661107Y-113952868D01*
X94641401Y-113938253D01*
X94623223Y-113921777D01*
X94606747Y-113903599D01*
X94592132Y-113883893D01*
X94579520Y-113862850D01*
X94569030Y-113840671D01*
X94560765Y-113817572D01*
X94554804Y-113793773D01*
X94551204Y-113769505D01*
X94550000Y-113745001D01*
X94550000Y-113094999D01*
X94551204Y-113070495D01*
X94554804Y-113046227D01*
X94560765Y-113022428D01*
X94569030Y-112999329D01*
X94579520Y-112977150D01*
X94592132Y-112956107D01*
X94606747Y-112936401D01*
X94623223Y-112918223D01*
X94641401Y-112901747D01*
X94661107Y-112887132D01*
X94682150Y-112874520D01*
X94704329Y-112864030D01*
X94727428Y-112855765D01*
X94751227Y-112849804D01*
X94775495Y-112846204D01*
X94799999Y-112845000D01*
X95700001Y-112845000D01*
X95724505Y-112846204D01*
G37*
G36*
X98264505Y-112846204D02*
G01*
X98288773Y-112849804D01*
X98312572Y-112855765D01*
X98335671Y-112864030D01*
X98357850Y-112874520D01*
X98378893Y-112887132D01*
X98398599Y-112901747D01*
X98416777Y-112918223D01*
X98433253Y-112936401D01*
X98447868Y-112956107D01*
X98460480Y-112977150D01*
X98470970Y-112999329D01*
X98479235Y-113022428D01*
X98485196Y-113046227D01*
X98488796Y-113070495D01*
X98490000Y-113094999D01*
X98490000Y-113745001D01*
X98488796Y-113769505D01*
X98485196Y-113793773D01*
X98479235Y-113817572D01*
X98470970Y-113840671D01*
X98460480Y-113862850D01*
X98447868Y-113883893D01*
X98433253Y-113903599D01*
X98416777Y-113921777D01*
X98398599Y-113938253D01*
X98378893Y-113952868D01*
X98357850Y-113965480D01*
X98335671Y-113975970D01*
X98312572Y-113984235D01*
X98288773Y-113990196D01*
X98264505Y-113993796D01*
X98240001Y-113995000D01*
X97339999Y-113995000D01*
X97315495Y-113993796D01*
X97291227Y-113990196D01*
X97267428Y-113984235D01*
X97244329Y-113975970D01*
X97222150Y-113965480D01*
X97201107Y-113952868D01*
X97181401Y-113938253D01*
X97163223Y-113921777D01*
X97146747Y-113903599D01*
X97132132Y-113883893D01*
X97119520Y-113862850D01*
X97109030Y-113840671D01*
X97100765Y-113817572D01*
X97094804Y-113793773D01*
X97091204Y-113769505D01*
X97090000Y-113745001D01*
X97090000Y-113094999D01*
X97091204Y-113070495D01*
X97094804Y-113046227D01*
X97100765Y-113022428D01*
X97109030Y-112999329D01*
X97119520Y-112977150D01*
X97132132Y-112956107D01*
X97146747Y-112936401D01*
X97163223Y-112918223D01*
X97181401Y-112901747D01*
X97201107Y-112887132D01*
X97222150Y-112874520D01*
X97244329Y-112864030D01*
X97267428Y-112855765D01*
X97291227Y-112849804D01*
X97315495Y-112846204D01*
X97339999Y-112845000D01*
X98240001Y-112845000D01*
X98264505Y-112846204D01*
G37*
G36*
X98264505Y-110796204D02*
G01*
X98288773Y-110799804D01*
X98312572Y-110805765D01*
X98335671Y-110814030D01*
X98357850Y-110824520D01*
X98378893Y-110837132D01*
X98398599Y-110851747D01*
X98416777Y-110868223D01*
X98433253Y-110886401D01*
X98447868Y-110906107D01*
X98460480Y-110927150D01*
X98470970Y-110949329D01*
X98479235Y-110972428D01*
X98485196Y-110996227D01*
X98488796Y-111020495D01*
X98490000Y-111044999D01*
X98490000Y-111695001D01*
X98488796Y-111719505D01*
X98485196Y-111743773D01*
X98479235Y-111767572D01*
X98470970Y-111790671D01*
X98460480Y-111812850D01*
X98447868Y-111833893D01*
X98433253Y-111853599D01*
X98416777Y-111871777D01*
X98398599Y-111888253D01*
X98378893Y-111902868D01*
X98357850Y-111915480D01*
X98335671Y-111925970D01*
X98312572Y-111934235D01*
X98288773Y-111940196D01*
X98264505Y-111943796D01*
X98240001Y-111945000D01*
X97339999Y-111945000D01*
X97315495Y-111943796D01*
X97291227Y-111940196D01*
X97267428Y-111934235D01*
X97244329Y-111925970D01*
X97222150Y-111915480D01*
X97201107Y-111902868D01*
X97181401Y-111888253D01*
X97163223Y-111871777D01*
X97146747Y-111853599D01*
X97132132Y-111833893D01*
X97119520Y-111812850D01*
X97109030Y-111790671D01*
X97100765Y-111767572D01*
X97094804Y-111743773D01*
X97091204Y-111719505D01*
X97090000Y-111695001D01*
X97090000Y-111044999D01*
X97091204Y-111020495D01*
X97094804Y-110996227D01*
X97100765Y-110972428D01*
X97109030Y-110949329D01*
X97119520Y-110927150D01*
X97132132Y-110906107D01*
X97146747Y-110886401D01*
X97163223Y-110868223D01*
X97181401Y-110851747D01*
X97201107Y-110837132D01*
X97222150Y-110824520D01*
X97244329Y-110814030D01*
X97267428Y-110805765D01*
X97291227Y-110799804D01*
X97315495Y-110796204D01*
X97339999Y-110795000D01*
X98240001Y-110795000D01*
X98264505Y-110796204D01*
G37*
G36*
X76039505Y-122226204D02*
G01*
X76063773Y-122229804D01*
X76087572Y-122235765D01*
X76110671Y-122244030D01*
X76132850Y-122254520D01*
X76153893Y-122267132D01*
X76173599Y-122281747D01*
X76191777Y-122298223D01*
X76208253Y-122316401D01*
X76222868Y-122336107D01*
X76235480Y-122357150D01*
X76245970Y-122379329D01*
X76254235Y-122402428D01*
X76260196Y-122426227D01*
X76263796Y-122450495D01*
X76265000Y-122474999D01*
X76265000Y-123125001D01*
X76263796Y-123149505D01*
X76260196Y-123173773D01*
X76254235Y-123197572D01*
X76245970Y-123220671D01*
X76235480Y-123242850D01*
X76222868Y-123263893D01*
X76208253Y-123283599D01*
X76191777Y-123301777D01*
X76173599Y-123318253D01*
X76153893Y-123332868D01*
X76132850Y-123345480D01*
X76110671Y-123355970D01*
X76087572Y-123364235D01*
X76063773Y-123370196D01*
X76039505Y-123373796D01*
X76015001Y-123375000D01*
X75114999Y-123375000D01*
X75090495Y-123373796D01*
X75066227Y-123370196D01*
X75042428Y-123364235D01*
X75019329Y-123355970D01*
X74997150Y-123345480D01*
X74976107Y-123332868D01*
X74956401Y-123318253D01*
X74938223Y-123301777D01*
X74921747Y-123283599D01*
X74907132Y-123263893D01*
X74894520Y-123242850D01*
X74884030Y-123220671D01*
X74875765Y-123197572D01*
X74869804Y-123173773D01*
X74866204Y-123149505D01*
X74865000Y-123125001D01*
X74865000Y-122474999D01*
X74866204Y-122450495D01*
X74869804Y-122426227D01*
X74875765Y-122402428D01*
X74884030Y-122379329D01*
X74894520Y-122357150D01*
X74907132Y-122336107D01*
X74921747Y-122316401D01*
X74938223Y-122298223D01*
X74956401Y-122281747D01*
X74976107Y-122267132D01*
X74997150Y-122254520D01*
X75019329Y-122244030D01*
X75042428Y-122235765D01*
X75066227Y-122229804D01*
X75090495Y-122226204D01*
X75114999Y-122225000D01*
X76015001Y-122225000D01*
X76039505Y-122226204D01*
G37*
G36*
X76039505Y-124276204D02*
G01*
X76063773Y-124279804D01*
X76087572Y-124285765D01*
X76110671Y-124294030D01*
X76132850Y-124304520D01*
X76153893Y-124317132D01*
X76173599Y-124331747D01*
X76191777Y-124348223D01*
X76208253Y-124366401D01*
X76222868Y-124386107D01*
X76235480Y-124407150D01*
X76245970Y-124429329D01*
X76254235Y-124452428D01*
X76260196Y-124476227D01*
X76263796Y-124500495D01*
X76265000Y-124524999D01*
X76265000Y-125175001D01*
X76263796Y-125199505D01*
X76260196Y-125223773D01*
X76254235Y-125247572D01*
X76245970Y-125270671D01*
X76235480Y-125292850D01*
X76222868Y-125313893D01*
X76208253Y-125333599D01*
X76191777Y-125351777D01*
X76173599Y-125368253D01*
X76153893Y-125382868D01*
X76132850Y-125395480D01*
X76110671Y-125405970D01*
X76087572Y-125414235D01*
X76063773Y-125420196D01*
X76039505Y-125423796D01*
X76015001Y-125425000D01*
X75114999Y-125425000D01*
X75090495Y-125423796D01*
X75066227Y-125420196D01*
X75042428Y-125414235D01*
X75019329Y-125405970D01*
X74997150Y-125395480D01*
X74976107Y-125382868D01*
X74956401Y-125368253D01*
X74938223Y-125351777D01*
X74921747Y-125333599D01*
X74907132Y-125313893D01*
X74894520Y-125292850D01*
X74884030Y-125270671D01*
X74875765Y-125247572D01*
X74869804Y-125223773D01*
X74866204Y-125199505D01*
X74865000Y-125175001D01*
X74865000Y-124524999D01*
X74866204Y-124500495D01*
X74869804Y-124476227D01*
X74875765Y-124452428D01*
X74884030Y-124429329D01*
X74894520Y-124407150D01*
X74907132Y-124386107D01*
X74921747Y-124366401D01*
X74938223Y-124348223D01*
X74956401Y-124331747D01*
X74976107Y-124317132D01*
X74997150Y-124304520D01*
X75019329Y-124294030D01*
X75042428Y-124285765D01*
X75066227Y-124279804D01*
X75090495Y-124276204D01*
X75114999Y-124275000D01*
X76015001Y-124275000D01*
X76039505Y-124276204D01*
G37*
G36*
X97629505Y-124276204D02*
G01*
X97653773Y-124279804D01*
X97677572Y-124285765D01*
X97700671Y-124294030D01*
X97722850Y-124304520D01*
X97743893Y-124317132D01*
X97763599Y-124331747D01*
X97781777Y-124348223D01*
X97798253Y-124366401D01*
X97812868Y-124386107D01*
X97825480Y-124407150D01*
X97835970Y-124429329D01*
X97844235Y-124452428D01*
X97850196Y-124476227D01*
X97853796Y-124500495D01*
X97855000Y-124524999D01*
X97855000Y-125175001D01*
X97853796Y-125199505D01*
X97850196Y-125223773D01*
X97844235Y-125247572D01*
X97835970Y-125270671D01*
X97825480Y-125292850D01*
X97812868Y-125313893D01*
X97798253Y-125333599D01*
X97781777Y-125351777D01*
X97763599Y-125368253D01*
X97743893Y-125382868D01*
X97722850Y-125395480D01*
X97700671Y-125405970D01*
X97677572Y-125414235D01*
X97653773Y-125420196D01*
X97629505Y-125423796D01*
X97605001Y-125425000D01*
X96704999Y-125425000D01*
X96680495Y-125423796D01*
X96656227Y-125420196D01*
X96632428Y-125414235D01*
X96609329Y-125405970D01*
X96587150Y-125395480D01*
X96566107Y-125382868D01*
X96546401Y-125368253D01*
X96528223Y-125351777D01*
X96511747Y-125333599D01*
X96497132Y-125313893D01*
X96484520Y-125292850D01*
X96474030Y-125270671D01*
X96465765Y-125247572D01*
X96459804Y-125223773D01*
X96456204Y-125199505D01*
X96455000Y-125175001D01*
X96455000Y-124524999D01*
X96456204Y-124500495D01*
X96459804Y-124476227D01*
X96465765Y-124452428D01*
X96474030Y-124429329D01*
X96484520Y-124407150D01*
X96497132Y-124386107D01*
X96511747Y-124366401D01*
X96528223Y-124348223D01*
X96546401Y-124331747D01*
X96566107Y-124317132D01*
X96587150Y-124304520D01*
X96609329Y-124294030D01*
X96632428Y-124285765D01*
X96656227Y-124279804D01*
X96680495Y-124276204D01*
X96704999Y-124275000D01*
X97605001Y-124275000D01*
X97629505Y-124276204D01*
G37*
G36*
X97629505Y-122226204D02*
G01*
X97653773Y-122229804D01*
X97677572Y-122235765D01*
X97700671Y-122244030D01*
X97722850Y-122254520D01*
X97743893Y-122267132D01*
X97763599Y-122281747D01*
X97781777Y-122298223D01*
X97798253Y-122316401D01*
X97812868Y-122336107D01*
X97825480Y-122357150D01*
X97835970Y-122379329D01*
X97844235Y-122402428D01*
X97850196Y-122426227D01*
X97853796Y-122450495D01*
X97855000Y-122474999D01*
X97855000Y-123125001D01*
X97853796Y-123149505D01*
X97850196Y-123173773D01*
X97844235Y-123197572D01*
X97835970Y-123220671D01*
X97825480Y-123242850D01*
X97812868Y-123263893D01*
X97798253Y-123283599D01*
X97781777Y-123301777D01*
X97763599Y-123318253D01*
X97743893Y-123332868D01*
X97722850Y-123345480D01*
X97700671Y-123355970D01*
X97677572Y-123364235D01*
X97653773Y-123370196D01*
X97629505Y-123373796D01*
X97605001Y-123375000D01*
X96704999Y-123375000D01*
X96680495Y-123373796D01*
X96656227Y-123370196D01*
X96632428Y-123364235D01*
X96609329Y-123355970D01*
X96587150Y-123345480D01*
X96566107Y-123332868D01*
X96546401Y-123318253D01*
X96528223Y-123301777D01*
X96511747Y-123283599D01*
X96497132Y-123263893D01*
X96484520Y-123242850D01*
X96474030Y-123220671D01*
X96465765Y-123197572D01*
X96459804Y-123173773D01*
X96456204Y-123149505D01*
X96455000Y-123125001D01*
X96455000Y-122474999D01*
X96456204Y-122450495D01*
X96459804Y-122426227D01*
X96465765Y-122402428D01*
X96474030Y-122379329D01*
X96484520Y-122357150D01*
X96497132Y-122336107D01*
X96511747Y-122316401D01*
X96528223Y-122298223D01*
X96546401Y-122281747D01*
X96566107Y-122267132D01*
X96587150Y-122254520D01*
X96609329Y-122244030D01*
X96632428Y-122235765D01*
X96656227Y-122229804D01*
X96680495Y-122226204D01*
X96704999Y-122225000D01*
X97605001Y-122225000D01*
X97629505Y-122226204D01*
G37*
G36*
X92549505Y-122226204D02*
G01*
X92573773Y-122229804D01*
X92597572Y-122235765D01*
X92620671Y-122244030D01*
X92642850Y-122254520D01*
X92663893Y-122267132D01*
X92683599Y-122281747D01*
X92701777Y-122298223D01*
X92718253Y-122316401D01*
X92732868Y-122336107D01*
X92745480Y-122357150D01*
X92755970Y-122379329D01*
X92764235Y-122402428D01*
X92770196Y-122426227D01*
X92773796Y-122450495D01*
X92775000Y-122474999D01*
X92775000Y-123125001D01*
X92773796Y-123149505D01*
X92770196Y-123173773D01*
X92764235Y-123197572D01*
X92755970Y-123220671D01*
X92745480Y-123242850D01*
X92732868Y-123263893D01*
X92718253Y-123283599D01*
X92701777Y-123301777D01*
X92683599Y-123318253D01*
X92663893Y-123332868D01*
X92642850Y-123345480D01*
X92620671Y-123355970D01*
X92597572Y-123364235D01*
X92573773Y-123370196D01*
X92549505Y-123373796D01*
X92525001Y-123375000D01*
X91624999Y-123375000D01*
X91600495Y-123373796D01*
X91576227Y-123370196D01*
X91552428Y-123364235D01*
X91529329Y-123355970D01*
X91507150Y-123345480D01*
X91486107Y-123332868D01*
X91466401Y-123318253D01*
X91448223Y-123301777D01*
X91431747Y-123283599D01*
X91417132Y-123263893D01*
X91404520Y-123242850D01*
X91394030Y-123220671D01*
X91385765Y-123197572D01*
X91379804Y-123173773D01*
X91376204Y-123149505D01*
X91375000Y-123125001D01*
X91375000Y-122474999D01*
X91376204Y-122450495D01*
X91379804Y-122426227D01*
X91385765Y-122402428D01*
X91394030Y-122379329D01*
X91404520Y-122357150D01*
X91417132Y-122336107D01*
X91431747Y-122316401D01*
X91448223Y-122298223D01*
X91466401Y-122281747D01*
X91486107Y-122267132D01*
X91507150Y-122254520D01*
X91529329Y-122244030D01*
X91552428Y-122235765D01*
X91576227Y-122229804D01*
X91600495Y-122226204D01*
X91624999Y-122225000D01*
X92525001Y-122225000D01*
X92549505Y-122226204D01*
G37*
G36*
X92549505Y-124276204D02*
G01*
X92573773Y-124279804D01*
X92597572Y-124285765D01*
X92620671Y-124294030D01*
X92642850Y-124304520D01*
X92663893Y-124317132D01*
X92683599Y-124331747D01*
X92701777Y-124348223D01*
X92718253Y-124366401D01*
X92732868Y-124386107D01*
X92745480Y-124407150D01*
X92755970Y-124429329D01*
X92764235Y-124452428D01*
X92770196Y-124476227D01*
X92773796Y-124500495D01*
X92775000Y-124524999D01*
X92775000Y-125175001D01*
X92773796Y-125199505D01*
X92770196Y-125223773D01*
X92764235Y-125247572D01*
X92755970Y-125270671D01*
X92745480Y-125292850D01*
X92732868Y-125313893D01*
X92718253Y-125333599D01*
X92701777Y-125351777D01*
X92683599Y-125368253D01*
X92663893Y-125382868D01*
X92642850Y-125395480D01*
X92620671Y-125405970D01*
X92597572Y-125414235D01*
X92573773Y-125420196D01*
X92549505Y-125423796D01*
X92525001Y-125425000D01*
X91624999Y-125425000D01*
X91600495Y-125423796D01*
X91576227Y-125420196D01*
X91552428Y-125414235D01*
X91529329Y-125405970D01*
X91507150Y-125395480D01*
X91486107Y-125382868D01*
X91466401Y-125368253D01*
X91448223Y-125351777D01*
X91431747Y-125333599D01*
X91417132Y-125313893D01*
X91404520Y-125292850D01*
X91394030Y-125270671D01*
X91385765Y-125247572D01*
X91379804Y-125223773D01*
X91376204Y-125199505D01*
X91375000Y-125175001D01*
X91375000Y-124524999D01*
X91376204Y-124500495D01*
X91379804Y-124476227D01*
X91385765Y-124452428D01*
X91394030Y-124429329D01*
X91404520Y-124407150D01*
X91417132Y-124386107D01*
X91431747Y-124366401D01*
X91448223Y-124348223D01*
X91466401Y-124331747D01*
X91486107Y-124317132D01*
X91507150Y-124304520D01*
X91529329Y-124294030D01*
X91552428Y-124285765D01*
X91576227Y-124279804D01*
X91600495Y-124276204D01*
X91624999Y-124275000D01*
X92525001Y-124275000D01*
X92549505Y-124276204D01*
G37*
G36*
X78579505Y-122226204D02*
G01*
X78603773Y-122229804D01*
X78627572Y-122235765D01*
X78650671Y-122244030D01*
X78672850Y-122254520D01*
X78693893Y-122267132D01*
X78713599Y-122281747D01*
X78731777Y-122298223D01*
X78748253Y-122316401D01*
X78762868Y-122336107D01*
X78775480Y-122357150D01*
X78785970Y-122379329D01*
X78794235Y-122402428D01*
X78800196Y-122426227D01*
X78803796Y-122450495D01*
X78805000Y-122474999D01*
X78805000Y-123125001D01*
X78803796Y-123149505D01*
X78800196Y-123173773D01*
X78794235Y-123197572D01*
X78785970Y-123220671D01*
X78775480Y-123242850D01*
X78762868Y-123263893D01*
X78748253Y-123283599D01*
X78731777Y-123301777D01*
X78713599Y-123318253D01*
X78693893Y-123332868D01*
X78672850Y-123345480D01*
X78650671Y-123355970D01*
X78627572Y-123364235D01*
X78603773Y-123370196D01*
X78579505Y-123373796D01*
X78555001Y-123375000D01*
X77654999Y-123375000D01*
X77630495Y-123373796D01*
X77606227Y-123370196D01*
X77582428Y-123364235D01*
X77559329Y-123355970D01*
X77537150Y-123345480D01*
X77516107Y-123332868D01*
X77496401Y-123318253D01*
X77478223Y-123301777D01*
X77461747Y-123283599D01*
X77447132Y-123263893D01*
X77434520Y-123242850D01*
X77424030Y-123220671D01*
X77415765Y-123197572D01*
X77409804Y-123173773D01*
X77406204Y-123149505D01*
X77405000Y-123125001D01*
X77405000Y-122474999D01*
X77406204Y-122450495D01*
X77409804Y-122426227D01*
X77415765Y-122402428D01*
X77424030Y-122379329D01*
X77434520Y-122357150D01*
X77447132Y-122336107D01*
X77461747Y-122316401D01*
X77478223Y-122298223D01*
X77496401Y-122281747D01*
X77516107Y-122267132D01*
X77537150Y-122254520D01*
X77559329Y-122244030D01*
X77582428Y-122235765D01*
X77606227Y-122229804D01*
X77630495Y-122226204D01*
X77654999Y-122225000D01*
X78555001Y-122225000D01*
X78579505Y-122226204D01*
G37*
G36*
X78579505Y-124276204D02*
G01*
X78603773Y-124279804D01*
X78627572Y-124285765D01*
X78650671Y-124294030D01*
X78672850Y-124304520D01*
X78693893Y-124317132D01*
X78713599Y-124331747D01*
X78731777Y-124348223D01*
X78748253Y-124366401D01*
X78762868Y-124386107D01*
X78775480Y-124407150D01*
X78785970Y-124429329D01*
X78794235Y-124452428D01*
X78800196Y-124476227D01*
X78803796Y-124500495D01*
X78805000Y-124524999D01*
X78805000Y-125175001D01*
X78803796Y-125199505D01*
X78800196Y-125223773D01*
X78794235Y-125247572D01*
X78785970Y-125270671D01*
X78775480Y-125292850D01*
X78762868Y-125313893D01*
X78748253Y-125333599D01*
X78731777Y-125351777D01*
X78713599Y-125368253D01*
X78693893Y-125382868D01*
X78672850Y-125395480D01*
X78650671Y-125405970D01*
X78627572Y-125414235D01*
X78603773Y-125420196D01*
X78579505Y-125423796D01*
X78555001Y-125425000D01*
X77654999Y-125425000D01*
X77630495Y-125423796D01*
X77606227Y-125420196D01*
X77582428Y-125414235D01*
X77559329Y-125405970D01*
X77537150Y-125395480D01*
X77516107Y-125382868D01*
X77496401Y-125368253D01*
X77478223Y-125351777D01*
X77461747Y-125333599D01*
X77447132Y-125313893D01*
X77434520Y-125292850D01*
X77424030Y-125270671D01*
X77415765Y-125247572D01*
X77409804Y-125223773D01*
X77406204Y-125199505D01*
X77405000Y-125175001D01*
X77405000Y-124524999D01*
X77406204Y-124500495D01*
X77409804Y-124476227D01*
X77415765Y-124452428D01*
X77424030Y-124429329D01*
X77434520Y-124407150D01*
X77447132Y-124386107D01*
X77461747Y-124366401D01*
X77478223Y-124348223D01*
X77496401Y-124331747D01*
X77516107Y-124317132D01*
X77537150Y-124304520D01*
X77559329Y-124294030D01*
X77582428Y-124285765D01*
X77606227Y-124279804D01*
X77630495Y-124276204D01*
X77654999Y-124275000D01*
X78555001Y-124275000D01*
X78579505Y-124276204D01*
G37*
G36*
X88104505Y-115386204D02*
G01*
X88128773Y-115389804D01*
X88152572Y-115395765D01*
X88175671Y-115404030D01*
X88197850Y-115414520D01*
X88218893Y-115427132D01*
X88238599Y-115441747D01*
X88256777Y-115458223D01*
X88273253Y-115476401D01*
X88287868Y-115496107D01*
X88300480Y-115517150D01*
X88310970Y-115539329D01*
X88319235Y-115562428D01*
X88325196Y-115586227D01*
X88328796Y-115610495D01*
X88330000Y-115634999D01*
X88330000Y-116285001D01*
X88328796Y-116309505D01*
X88325196Y-116333773D01*
X88319235Y-116357572D01*
X88310970Y-116380671D01*
X88300480Y-116402850D01*
X88287868Y-116423893D01*
X88273253Y-116443599D01*
X88256777Y-116461777D01*
X88238599Y-116478253D01*
X88218893Y-116492868D01*
X88197850Y-116505480D01*
X88175671Y-116515970D01*
X88152572Y-116524235D01*
X88128773Y-116530196D01*
X88104505Y-116533796D01*
X88080001Y-116535000D01*
X87179999Y-116535000D01*
X87155495Y-116533796D01*
X87131227Y-116530196D01*
X87107428Y-116524235D01*
X87084329Y-116515970D01*
X87062150Y-116505480D01*
X87041107Y-116492868D01*
X87021401Y-116478253D01*
X87003223Y-116461777D01*
X86986747Y-116443599D01*
X86972132Y-116423893D01*
X86959520Y-116402850D01*
X86949030Y-116380671D01*
X86940765Y-116357572D01*
X86934804Y-116333773D01*
X86931204Y-116309505D01*
X86930000Y-116285001D01*
X86930000Y-115634999D01*
X86931204Y-115610495D01*
X86934804Y-115586227D01*
X86940765Y-115562428D01*
X86949030Y-115539329D01*
X86959520Y-115517150D01*
X86972132Y-115496107D01*
X86986747Y-115476401D01*
X87003223Y-115458223D01*
X87021401Y-115441747D01*
X87041107Y-115427132D01*
X87062150Y-115414520D01*
X87084329Y-115404030D01*
X87107428Y-115395765D01*
X87131227Y-115389804D01*
X87155495Y-115386204D01*
X87179999Y-115385000D01*
X88080001Y-115385000D01*
X88104505Y-115386204D01*
G37*
G36*
X88104505Y-113336204D02*
G01*
X88128773Y-113339804D01*
X88152572Y-113345765D01*
X88175671Y-113354030D01*
X88197850Y-113364520D01*
X88218893Y-113377132D01*
X88238599Y-113391747D01*
X88256777Y-113408223D01*
X88273253Y-113426401D01*
X88287868Y-113446107D01*
X88300480Y-113467150D01*
X88310970Y-113489329D01*
X88319235Y-113512428D01*
X88325196Y-113536227D01*
X88328796Y-113560495D01*
X88330000Y-113584999D01*
X88330000Y-114235001D01*
X88328796Y-114259505D01*
X88325196Y-114283773D01*
X88319235Y-114307572D01*
X88310970Y-114330671D01*
X88300480Y-114352850D01*
X88287868Y-114373893D01*
X88273253Y-114393599D01*
X88256777Y-114411777D01*
X88238599Y-114428253D01*
X88218893Y-114442868D01*
X88197850Y-114455480D01*
X88175671Y-114465970D01*
X88152572Y-114474235D01*
X88128773Y-114480196D01*
X88104505Y-114483796D01*
X88080001Y-114485000D01*
X87179999Y-114485000D01*
X87155495Y-114483796D01*
X87131227Y-114480196D01*
X87107428Y-114474235D01*
X87084329Y-114465970D01*
X87062150Y-114455480D01*
X87041107Y-114442868D01*
X87021401Y-114428253D01*
X87003223Y-114411777D01*
X86986747Y-114393599D01*
X86972132Y-114373893D01*
X86959520Y-114352850D01*
X86949030Y-114330671D01*
X86940765Y-114307572D01*
X86934804Y-114283773D01*
X86931204Y-114259505D01*
X86930000Y-114235001D01*
X86930000Y-113584999D01*
X86931204Y-113560495D01*
X86934804Y-113536227D01*
X86940765Y-113512428D01*
X86949030Y-113489329D01*
X86959520Y-113467150D01*
X86972132Y-113446107D01*
X86986747Y-113426401D01*
X87003223Y-113408223D01*
X87021401Y-113391747D01*
X87041107Y-113377132D01*
X87062150Y-113364520D01*
X87084329Y-113354030D01*
X87107428Y-113345765D01*
X87131227Y-113339804D01*
X87155495Y-113336204D01*
X87179999Y-113335000D01*
X88080001Y-113335000D01*
X88104505Y-113336204D01*
G37*
G36*
X83659505Y-124276204D02*
G01*
X83683773Y-124279804D01*
X83707572Y-124285765D01*
X83730671Y-124294030D01*
X83752850Y-124304520D01*
X83773893Y-124317132D01*
X83793599Y-124331747D01*
X83811777Y-124348223D01*
X83828253Y-124366401D01*
X83842868Y-124386107D01*
X83855480Y-124407150D01*
X83865970Y-124429329D01*
X83874235Y-124452428D01*
X83880196Y-124476227D01*
X83883796Y-124500495D01*
X83885000Y-124524999D01*
X83885000Y-125175001D01*
X83883796Y-125199505D01*
X83880196Y-125223773D01*
X83874235Y-125247572D01*
X83865970Y-125270671D01*
X83855480Y-125292850D01*
X83842868Y-125313893D01*
X83828253Y-125333599D01*
X83811777Y-125351777D01*
X83793599Y-125368253D01*
X83773893Y-125382868D01*
X83752850Y-125395480D01*
X83730671Y-125405970D01*
X83707572Y-125414235D01*
X83683773Y-125420196D01*
X83659505Y-125423796D01*
X83635001Y-125425000D01*
X82734999Y-125425000D01*
X82710495Y-125423796D01*
X82686227Y-125420196D01*
X82662428Y-125414235D01*
X82639329Y-125405970D01*
X82617150Y-125395480D01*
X82596107Y-125382868D01*
X82576401Y-125368253D01*
X82558223Y-125351777D01*
X82541747Y-125333599D01*
X82527132Y-125313893D01*
X82514520Y-125292850D01*
X82504030Y-125270671D01*
X82495765Y-125247572D01*
X82489804Y-125223773D01*
X82486204Y-125199505D01*
X82485000Y-125175001D01*
X82485000Y-124524999D01*
X82486204Y-124500495D01*
X82489804Y-124476227D01*
X82495765Y-124452428D01*
X82504030Y-124429329D01*
X82514520Y-124407150D01*
X82527132Y-124386107D01*
X82541747Y-124366401D01*
X82558223Y-124348223D01*
X82576401Y-124331747D01*
X82596107Y-124317132D01*
X82617150Y-124304520D01*
X82639329Y-124294030D01*
X82662428Y-124285765D01*
X82686227Y-124279804D01*
X82710495Y-124276204D01*
X82734999Y-124275000D01*
X83635001Y-124275000D01*
X83659505Y-124276204D01*
G37*
G36*
X83659505Y-122226204D02*
G01*
X83683773Y-122229804D01*
X83707572Y-122235765D01*
X83730671Y-122244030D01*
X83752850Y-122254520D01*
X83773893Y-122267132D01*
X83793599Y-122281747D01*
X83811777Y-122298223D01*
X83828253Y-122316401D01*
X83842868Y-122336107D01*
X83855480Y-122357150D01*
X83865970Y-122379329D01*
X83874235Y-122402428D01*
X83880196Y-122426227D01*
X83883796Y-122450495D01*
X83885000Y-122474999D01*
X83885000Y-123125001D01*
X83883796Y-123149505D01*
X83880196Y-123173773D01*
X83874235Y-123197572D01*
X83865970Y-123220671D01*
X83855480Y-123242850D01*
X83842868Y-123263893D01*
X83828253Y-123283599D01*
X83811777Y-123301777D01*
X83793599Y-123318253D01*
X83773893Y-123332868D01*
X83752850Y-123345480D01*
X83730671Y-123355970D01*
X83707572Y-123364235D01*
X83683773Y-123370196D01*
X83659505Y-123373796D01*
X83635001Y-123375000D01*
X82734999Y-123375000D01*
X82710495Y-123373796D01*
X82686227Y-123370196D01*
X82662428Y-123364235D01*
X82639329Y-123355970D01*
X82617150Y-123345480D01*
X82596107Y-123332868D01*
X82576401Y-123318253D01*
X82558223Y-123301777D01*
X82541747Y-123283599D01*
X82527132Y-123263893D01*
X82514520Y-123242850D01*
X82504030Y-123220671D01*
X82495765Y-123197572D01*
X82489804Y-123173773D01*
X82486204Y-123149505D01*
X82485000Y-123125001D01*
X82485000Y-122474999D01*
X82486204Y-122450495D01*
X82489804Y-122426227D01*
X82495765Y-122402428D01*
X82504030Y-122379329D01*
X82514520Y-122357150D01*
X82527132Y-122336107D01*
X82541747Y-122316401D01*
X82558223Y-122298223D01*
X82576401Y-122281747D01*
X82596107Y-122267132D01*
X82617150Y-122254520D01*
X82639329Y-122244030D01*
X82662428Y-122235765D01*
X82686227Y-122229804D01*
X82710495Y-122226204D01*
X82734999Y-122225000D01*
X83635001Y-122225000D01*
X83659505Y-122226204D01*
G37*
G36*
X95089505Y-124276204D02*
G01*
X95113773Y-124279804D01*
X95137572Y-124285765D01*
X95160671Y-124294030D01*
X95182850Y-124304520D01*
X95203893Y-124317132D01*
X95223599Y-124331747D01*
X95241777Y-124348223D01*
X95258253Y-124366401D01*
X95272868Y-124386107D01*
X95285480Y-124407150D01*
X95295970Y-124429329D01*
X95304235Y-124452428D01*
X95310196Y-124476227D01*
X95313796Y-124500495D01*
X95315000Y-124524999D01*
X95315000Y-125175001D01*
X95313796Y-125199505D01*
X95310196Y-125223773D01*
X95304235Y-125247572D01*
X95295970Y-125270671D01*
X95285480Y-125292850D01*
X95272868Y-125313893D01*
X95258253Y-125333599D01*
X95241777Y-125351777D01*
X95223599Y-125368253D01*
X95203893Y-125382868D01*
X95182850Y-125395480D01*
X95160671Y-125405970D01*
X95137572Y-125414235D01*
X95113773Y-125420196D01*
X95089505Y-125423796D01*
X95065001Y-125425000D01*
X94164999Y-125425000D01*
X94140495Y-125423796D01*
X94116227Y-125420196D01*
X94092428Y-125414235D01*
X94069329Y-125405970D01*
X94047150Y-125395480D01*
X94026107Y-125382868D01*
X94006401Y-125368253D01*
X93988223Y-125351777D01*
X93971747Y-125333599D01*
X93957132Y-125313893D01*
X93944520Y-125292850D01*
X93934030Y-125270671D01*
X93925765Y-125247572D01*
X93919804Y-125223773D01*
X93916204Y-125199505D01*
X93915000Y-125175001D01*
X93915000Y-124524999D01*
X93916204Y-124500495D01*
X93919804Y-124476227D01*
X93925765Y-124452428D01*
X93934030Y-124429329D01*
X93944520Y-124407150D01*
X93957132Y-124386107D01*
X93971747Y-124366401D01*
X93988223Y-124348223D01*
X94006401Y-124331747D01*
X94026107Y-124317132D01*
X94047150Y-124304520D01*
X94069329Y-124294030D01*
X94092428Y-124285765D01*
X94116227Y-124279804D01*
X94140495Y-124276204D01*
X94164999Y-124275000D01*
X95065001Y-124275000D01*
X95089505Y-124276204D01*
G37*
G36*
X95089505Y-122226204D02*
G01*
X95113773Y-122229804D01*
X95137572Y-122235765D01*
X95160671Y-122244030D01*
X95182850Y-122254520D01*
X95203893Y-122267132D01*
X95223599Y-122281747D01*
X95241777Y-122298223D01*
X95258253Y-122316401D01*
X95272868Y-122336107D01*
X95285480Y-122357150D01*
X95295970Y-122379329D01*
X95304235Y-122402428D01*
X95310196Y-122426227D01*
X95313796Y-122450495D01*
X95315000Y-122474999D01*
X95315000Y-123125001D01*
X95313796Y-123149505D01*
X95310196Y-123173773D01*
X95304235Y-123197572D01*
X95295970Y-123220671D01*
X95285480Y-123242850D01*
X95272868Y-123263893D01*
X95258253Y-123283599D01*
X95241777Y-123301777D01*
X95223599Y-123318253D01*
X95203893Y-123332868D01*
X95182850Y-123345480D01*
X95160671Y-123355970D01*
X95137572Y-123364235D01*
X95113773Y-123370196D01*
X95089505Y-123373796D01*
X95065001Y-123375000D01*
X94164999Y-123375000D01*
X94140495Y-123373796D01*
X94116227Y-123370196D01*
X94092428Y-123364235D01*
X94069329Y-123355970D01*
X94047150Y-123345480D01*
X94026107Y-123332868D01*
X94006401Y-123318253D01*
X93988223Y-123301777D01*
X93971747Y-123283599D01*
X93957132Y-123263893D01*
X93944520Y-123242850D01*
X93934030Y-123220671D01*
X93925765Y-123197572D01*
X93919804Y-123173773D01*
X93916204Y-123149505D01*
X93915000Y-123125001D01*
X93915000Y-122474999D01*
X93916204Y-122450495D01*
X93919804Y-122426227D01*
X93925765Y-122402428D01*
X93934030Y-122379329D01*
X93944520Y-122357150D01*
X93957132Y-122336107D01*
X93971747Y-122316401D01*
X93988223Y-122298223D01*
X94006401Y-122281747D01*
X94026107Y-122267132D01*
X94047150Y-122254520D01*
X94069329Y-122244030D01*
X94092428Y-122235765D01*
X94116227Y-122229804D01*
X94140495Y-122226204D01*
X94164999Y-122225000D01*
X95065001Y-122225000D01*
X95089505Y-122226204D01*
G37*
G36*
X103344505Y-75109204D02*
G01*
X103368773Y-75112804D01*
X103392572Y-75118765D01*
X103415671Y-75127030D01*
X103437850Y-75137520D01*
X103458893Y-75150132D01*
X103478599Y-75164747D01*
X103496777Y-75181223D01*
X103513253Y-75199401D01*
X103527868Y-75219107D01*
X103540480Y-75240150D01*
X103550970Y-75262329D01*
X103559235Y-75285428D01*
X103565196Y-75309227D01*
X103568796Y-75333495D01*
X103570000Y-75357999D01*
X103570000Y-76008001D01*
X103568796Y-76032505D01*
X103565196Y-76056773D01*
X103559235Y-76080572D01*
X103550970Y-76103671D01*
X103540480Y-76125850D01*
X103527868Y-76146893D01*
X103513253Y-76166599D01*
X103496777Y-76184777D01*
X103478599Y-76201253D01*
X103458893Y-76215868D01*
X103437850Y-76228480D01*
X103415671Y-76238970D01*
X103392572Y-76247235D01*
X103368773Y-76253196D01*
X103344505Y-76256796D01*
X103320001Y-76258000D01*
X102419999Y-76258000D01*
X102395495Y-76256796D01*
X102371227Y-76253196D01*
X102347428Y-76247235D01*
X102324329Y-76238970D01*
X102302150Y-76228480D01*
X102281107Y-76215868D01*
X102261401Y-76201253D01*
X102243223Y-76184777D01*
X102226747Y-76166599D01*
X102212132Y-76146893D01*
X102199520Y-76125850D01*
X102189030Y-76103671D01*
X102180765Y-76080572D01*
X102174804Y-76056773D01*
X102171204Y-76032505D01*
X102170000Y-76008001D01*
X102170000Y-75357999D01*
X102171204Y-75333495D01*
X102174804Y-75309227D01*
X102180765Y-75285428D01*
X102189030Y-75262329D01*
X102199520Y-75240150D01*
X102212132Y-75219107D01*
X102226747Y-75199401D01*
X102243223Y-75181223D01*
X102261401Y-75164747D01*
X102281107Y-75150132D01*
X102302150Y-75137520D01*
X102324329Y-75127030D01*
X102347428Y-75118765D01*
X102371227Y-75112804D01*
X102395495Y-75109204D01*
X102419999Y-75108000D01*
X103320001Y-75108000D01*
X103344505Y-75109204D01*
G37*
G36*
X103344505Y-77159204D02*
G01*
X103368773Y-77162804D01*
X103392572Y-77168765D01*
X103415671Y-77177030D01*
X103437850Y-77187520D01*
X103458893Y-77200132D01*
X103478599Y-77214747D01*
X103496777Y-77231223D01*
X103513253Y-77249401D01*
X103527868Y-77269107D01*
X103540480Y-77290150D01*
X103550970Y-77312329D01*
X103559235Y-77335428D01*
X103565196Y-77359227D01*
X103568796Y-77383495D01*
X103570000Y-77407999D01*
X103570000Y-78058001D01*
X103568796Y-78082505D01*
X103565196Y-78106773D01*
X103559235Y-78130572D01*
X103550970Y-78153671D01*
X103540480Y-78175850D01*
X103527868Y-78196893D01*
X103513253Y-78216599D01*
X103496777Y-78234777D01*
X103478599Y-78251253D01*
X103458893Y-78265868D01*
X103437850Y-78278480D01*
X103415671Y-78288970D01*
X103392572Y-78297235D01*
X103368773Y-78303196D01*
X103344505Y-78306796D01*
X103320001Y-78308000D01*
X102419999Y-78308000D01*
X102395495Y-78306796D01*
X102371227Y-78303196D01*
X102347428Y-78297235D01*
X102324329Y-78288970D01*
X102302150Y-78278480D01*
X102281107Y-78265868D01*
X102261401Y-78251253D01*
X102243223Y-78234777D01*
X102226747Y-78216599D01*
X102212132Y-78196893D01*
X102199520Y-78175850D01*
X102189030Y-78153671D01*
X102180765Y-78130572D01*
X102174804Y-78106773D01*
X102171204Y-78082505D01*
X102170000Y-78058001D01*
X102170000Y-77407999D01*
X102171204Y-77383495D01*
X102174804Y-77359227D01*
X102180765Y-77335428D01*
X102189030Y-77312329D01*
X102199520Y-77290150D01*
X102212132Y-77269107D01*
X102226747Y-77249401D01*
X102243223Y-77231223D01*
X102261401Y-77214747D01*
X102281107Y-77200132D01*
X102302150Y-77187520D01*
X102324329Y-77177030D01*
X102347428Y-77168765D01*
X102371227Y-77162804D01*
X102395495Y-77159204D01*
X102419999Y-77158000D01*
X103320001Y-77158000D01*
X103344505Y-77159204D01*
G37*
G36*
X80114505Y-74739204D02*
G01*
X80138773Y-74742804D01*
X80162572Y-74748765D01*
X80185671Y-74757030D01*
X80207850Y-74767520D01*
X80228893Y-74780132D01*
X80248599Y-74794747D01*
X80266777Y-74811223D01*
X80283253Y-74829401D01*
X80297868Y-74849107D01*
X80310480Y-74870150D01*
X80320970Y-74892329D01*
X80329235Y-74915428D01*
X80335196Y-74939227D01*
X80338796Y-74963495D01*
X80340000Y-74987999D01*
X80340000Y-75888001D01*
X80338796Y-75912505D01*
X80335196Y-75936773D01*
X80329235Y-75960572D01*
X80320970Y-75983671D01*
X80310480Y-76005850D01*
X80297868Y-76026893D01*
X80283253Y-76046599D01*
X80266777Y-76064777D01*
X80248599Y-76081253D01*
X80228893Y-76095868D01*
X80207850Y-76108480D01*
X80185671Y-76118970D01*
X80162572Y-76127235D01*
X80138773Y-76133196D01*
X80114505Y-76136796D01*
X80090001Y-76138000D01*
X79439999Y-76138000D01*
X79415495Y-76136796D01*
X79391227Y-76133196D01*
X79367428Y-76127235D01*
X79344329Y-76118970D01*
X79322150Y-76108480D01*
X79301107Y-76095868D01*
X79281401Y-76081253D01*
X79263223Y-76064777D01*
X79246747Y-76046599D01*
X79232132Y-76026893D01*
X79219520Y-76005850D01*
X79209030Y-75983671D01*
X79200765Y-75960572D01*
X79194804Y-75936773D01*
X79191204Y-75912505D01*
X79190000Y-75888001D01*
X79190000Y-74987999D01*
X79191204Y-74963495D01*
X79194804Y-74939227D01*
X79200765Y-74915428D01*
X79209030Y-74892329D01*
X79219520Y-74870150D01*
X79232132Y-74849107D01*
X79246747Y-74829401D01*
X79263223Y-74811223D01*
X79281401Y-74794747D01*
X79301107Y-74780132D01*
X79322150Y-74767520D01*
X79344329Y-74757030D01*
X79367428Y-74748765D01*
X79391227Y-74742804D01*
X79415495Y-74739204D01*
X79439999Y-74738000D01*
X80090001Y-74738000D01*
X80114505Y-74739204D01*
G37*
G36*
X78064505Y-74739204D02*
G01*
X78088773Y-74742804D01*
X78112572Y-74748765D01*
X78135671Y-74757030D01*
X78157850Y-74767520D01*
X78178893Y-74780132D01*
X78198599Y-74794747D01*
X78216777Y-74811223D01*
X78233253Y-74829401D01*
X78247868Y-74849107D01*
X78260480Y-74870150D01*
X78270970Y-74892329D01*
X78279235Y-74915428D01*
X78285196Y-74939227D01*
X78288796Y-74963495D01*
X78290000Y-74987999D01*
X78290000Y-75888001D01*
X78288796Y-75912505D01*
X78285196Y-75936773D01*
X78279235Y-75960572D01*
X78270970Y-75983671D01*
X78260480Y-76005850D01*
X78247868Y-76026893D01*
X78233253Y-76046599D01*
X78216777Y-76064777D01*
X78198599Y-76081253D01*
X78178893Y-76095868D01*
X78157850Y-76108480D01*
X78135671Y-76118970D01*
X78112572Y-76127235D01*
X78088773Y-76133196D01*
X78064505Y-76136796D01*
X78040001Y-76138000D01*
X77389999Y-76138000D01*
X77365495Y-76136796D01*
X77341227Y-76133196D01*
X77317428Y-76127235D01*
X77294329Y-76118970D01*
X77272150Y-76108480D01*
X77251107Y-76095868D01*
X77231401Y-76081253D01*
X77213223Y-76064777D01*
X77196747Y-76046599D01*
X77182132Y-76026893D01*
X77169520Y-76005850D01*
X77159030Y-75983671D01*
X77150765Y-75960572D01*
X77144804Y-75936773D01*
X77141204Y-75912505D01*
X77140000Y-75888001D01*
X77140000Y-74987999D01*
X77141204Y-74963495D01*
X77144804Y-74939227D01*
X77150765Y-74915428D01*
X77159030Y-74892329D01*
X77169520Y-74870150D01*
X77182132Y-74849107D01*
X77196747Y-74829401D01*
X77213223Y-74811223D01*
X77231401Y-74794747D01*
X77251107Y-74780132D01*
X77272150Y-74767520D01*
X77294329Y-74757030D01*
X77317428Y-74748765D01*
X77341227Y-74742804D01*
X77365495Y-74739204D01*
X77389999Y-74738000D01*
X78040001Y-74738000D01*
X78064505Y-74739204D01*
G37*
G36*
X71859505Y-77279204D02*
G01*
X71883773Y-77282804D01*
X71907572Y-77288765D01*
X71930671Y-77297030D01*
X71952850Y-77307520D01*
X71973893Y-77320132D01*
X71993599Y-77334747D01*
X72011777Y-77351223D01*
X72028253Y-77369401D01*
X72042868Y-77389107D01*
X72055480Y-77410150D01*
X72065970Y-77432329D01*
X72074235Y-77455428D01*
X72080196Y-77479227D01*
X72083796Y-77503495D01*
X72085000Y-77527999D01*
X72085000Y-78428001D01*
X72083796Y-78452505D01*
X72080196Y-78476773D01*
X72074235Y-78500572D01*
X72065970Y-78523671D01*
X72055480Y-78545850D01*
X72042868Y-78566893D01*
X72028253Y-78586599D01*
X72011777Y-78604777D01*
X71993599Y-78621253D01*
X71973893Y-78635868D01*
X71952850Y-78648480D01*
X71930671Y-78658970D01*
X71907572Y-78667235D01*
X71883773Y-78673196D01*
X71859505Y-78676796D01*
X71835001Y-78678000D01*
X71184999Y-78678000D01*
X71160495Y-78676796D01*
X71136227Y-78673196D01*
X71112428Y-78667235D01*
X71089329Y-78658970D01*
X71067150Y-78648480D01*
X71046107Y-78635868D01*
X71026401Y-78621253D01*
X71008223Y-78604777D01*
X70991747Y-78586599D01*
X70977132Y-78566893D01*
X70964520Y-78545850D01*
X70954030Y-78523671D01*
X70945765Y-78500572D01*
X70939804Y-78476773D01*
X70936204Y-78452505D01*
X70935000Y-78428001D01*
X70935000Y-77527999D01*
X70936204Y-77503495D01*
X70939804Y-77479227D01*
X70945765Y-77455428D01*
X70954030Y-77432329D01*
X70964520Y-77410150D01*
X70977132Y-77389107D01*
X70991747Y-77369401D01*
X71008223Y-77351223D01*
X71026401Y-77334747D01*
X71046107Y-77320132D01*
X71067150Y-77307520D01*
X71089329Y-77297030D01*
X71112428Y-77288765D01*
X71136227Y-77282804D01*
X71160495Y-77279204D01*
X71184999Y-77278000D01*
X71835001Y-77278000D01*
X71859505Y-77279204D01*
G37*
G36*
X69809505Y-77279204D02*
G01*
X69833773Y-77282804D01*
X69857572Y-77288765D01*
X69880671Y-77297030D01*
X69902850Y-77307520D01*
X69923893Y-77320132D01*
X69943599Y-77334747D01*
X69961777Y-77351223D01*
X69978253Y-77369401D01*
X69992868Y-77389107D01*
X70005480Y-77410150D01*
X70015970Y-77432329D01*
X70024235Y-77455428D01*
X70030196Y-77479227D01*
X70033796Y-77503495D01*
X70035000Y-77527999D01*
X70035000Y-78428001D01*
X70033796Y-78452505D01*
X70030196Y-78476773D01*
X70024235Y-78500572D01*
X70015970Y-78523671D01*
X70005480Y-78545850D01*
X69992868Y-78566893D01*
X69978253Y-78586599D01*
X69961777Y-78604777D01*
X69943599Y-78621253D01*
X69923893Y-78635868D01*
X69902850Y-78648480D01*
X69880671Y-78658970D01*
X69857572Y-78667235D01*
X69833773Y-78673196D01*
X69809505Y-78676796D01*
X69785001Y-78678000D01*
X69134999Y-78678000D01*
X69110495Y-78676796D01*
X69086227Y-78673196D01*
X69062428Y-78667235D01*
X69039329Y-78658970D01*
X69017150Y-78648480D01*
X68996107Y-78635868D01*
X68976401Y-78621253D01*
X68958223Y-78604777D01*
X68941747Y-78586599D01*
X68927132Y-78566893D01*
X68914520Y-78545850D01*
X68904030Y-78523671D01*
X68895765Y-78500572D01*
X68889804Y-78476773D01*
X68886204Y-78452505D01*
X68885000Y-78428001D01*
X68885000Y-77527999D01*
X68886204Y-77503495D01*
X68889804Y-77479227D01*
X68895765Y-77455428D01*
X68904030Y-77432329D01*
X68914520Y-77410150D01*
X68927132Y-77389107D01*
X68941747Y-77369401D01*
X68958223Y-77351223D01*
X68976401Y-77334747D01*
X68996107Y-77320132D01*
X69017150Y-77307520D01*
X69039329Y-77297030D01*
X69062428Y-77288765D01*
X69086227Y-77282804D01*
X69110495Y-77279204D01*
X69134999Y-77278000D01*
X69785001Y-77278000D01*
X69809505Y-77279204D01*
G37*
G36*
X90644505Y-115386204D02*
G01*
X90668773Y-115389804D01*
X90692572Y-115395765D01*
X90715671Y-115404030D01*
X90737850Y-115414520D01*
X90758893Y-115427132D01*
X90778599Y-115441747D01*
X90796777Y-115458223D01*
X90813253Y-115476401D01*
X90827868Y-115496107D01*
X90840480Y-115517150D01*
X90850970Y-115539329D01*
X90859235Y-115562428D01*
X90865196Y-115586227D01*
X90868796Y-115610495D01*
X90870000Y-115634999D01*
X90870000Y-116285001D01*
X90868796Y-116309505D01*
X90865196Y-116333773D01*
X90859235Y-116357572D01*
X90850970Y-116380671D01*
X90840480Y-116402850D01*
X90827868Y-116423893D01*
X90813253Y-116443599D01*
X90796777Y-116461777D01*
X90778599Y-116478253D01*
X90758893Y-116492868D01*
X90737850Y-116505480D01*
X90715671Y-116515970D01*
X90692572Y-116524235D01*
X90668773Y-116530196D01*
X90644505Y-116533796D01*
X90620001Y-116535000D01*
X89719999Y-116535000D01*
X89695495Y-116533796D01*
X89671227Y-116530196D01*
X89647428Y-116524235D01*
X89624329Y-116515970D01*
X89602150Y-116505480D01*
X89581107Y-116492868D01*
X89561401Y-116478253D01*
X89543223Y-116461777D01*
X89526747Y-116443599D01*
X89512132Y-116423893D01*
X89499520Y-116402850D01*
X89489030Y-116380671D01*
X89480765Y-116357572D01*
X89474804Y-116333773D01*
X89471204Y-116309505D01*
X89470000Y-116285001D01*
X89470000Y-115634999D01*
X89471204Y-115610495D01*
X89474804Y-115586227D01*
X89480765Y-115562428D01*
X89489030Y-115539329D01*
X89499520Y-115517150D01*
X89512132Y-115496107D01*
X89526747Y-115476401D01*
X89543223Y-115458223D01*
X89561401Y-115441747D01*
X89581107Y-115427132D01*
X89602150Y-115414520D01*
X89624329Y-115404030D01*
X89647428Y-115395765D01*
X89671227Y-115389804D01*
X89695495Y-115386204D01*
X89719999Y-115385000D01*
X90620001Y-115385000D01*
X90644505Y-115386204D01*
G37*
G36*
X90644505Y-113336204D02*
G01*
X90668773Y-113339804D01*
X90692572Y-113345765D01*
X90715671Y-113354030D01*
X90737850Y-113364520D01*
X90758893Y-113377132D01*
X90778599Y-113391747D01*
X90796777Y-113408223D01*
X90813253Y-113426401D01*
X90827868Y-113446107D01*
X90840480Y-113467150D01*
X90850970Y-113489329D01*
X90859235Y-113512428D01*
X90865196Y-113536227D01*
X90868796Y-113560495D01*
X90870000Y-113584999D01*
X90870000Y-114235001D01*
X90868796Y-114259505D01*
X90865196Y-114283773D01*
X90859235Y-114307572D01*
X90850970Y-114330671D01*
X90840480Y-114352850D01*
X90827868Y-114373893D01*
X90813253Y-114393599D01*
X90796777Y-114411777D01*
X90778599Y-114428253D01*
X90758893Y-114442868D01*
X90737850Y-114455480D01*
X90715671Y-114465970D01*
X90692572Y-114474235D01*
X90668773Y-114480196D01*
X90644505Y-114483796D01*
X90620001Y-114485000D01*
X89719999Y-114485000D01*
X89695495Y-114483796D01*
X89671227Y-114480196D01*
X89647428Y-114474235D01*
X89624329Y-114465970D01*
X89602150Y-114455480D01*
X89581107Y-114442868D01*
X89561401Y-114428253D01*
X89543223Y-114411777D01*
X89526747Y-114393599D01*
X89512132Y-114373893D01*
X89499520Y-114352850D01*
X89489030Y-114330671D01*
X89480765Y-114307572D01*
X89474804Y-114283773D01*
X89471204Y-114259505D01*
X89470000Y-114235001D01*
X89470000Y-113584999D01*
X89471204Y-113560495D01*
X89474804Y-113536227D01*
X89480765Y-113512428D01*
X89489030Y-113489329D01*
X89499520Y-113467150D01*
X89512132Y-113446107D01*
X89526747Y-113426401D01*
X89543223Y-113408223D01*
X89561401Y-113391747D01*
X89581107Y-113377132D01*
X89602150Y-113364520D01*
X89624329Y-113354030D01*
X89647428Y-113345765D01*
X89671227Y-113339804D01*
X89695495Y-113336204D01*
X89719999Y-113335000D01*
X90620001Y-113335000D01*
X90644505Y-113336204D01*
G37*
D11*
X98107500Y-76517500D03*
D12*
X98107500Y-73977500D03*
D13*
X103314500Y-85852000D03*
D14*
X103314500Y-88392000D03*
D13*
X95250000Y-82423000D03*
D14*
X92710000Y-82423000D03*
X90170000Y-82423000D03*
X87630000Y-82423000D03*
X85090000Y-82423000D03*
D15*
X107131000Y-90722000D03*
X107131000Y-83522000D03*
X110681000Y-90722000D03*
X110681000Y-83522000D03*
D16*
X113300000Y-97075000D03*
D17*
X113175000Y-95875000D03*
D18*
X105575000Y-95625000D03*
D19*
X104075000Y-95950000D03*
D20*
X104925000Y-107575000D03*
D16*
X113300000Y-98175000D03*
X113300000Y-99275000D03*
X113300000Y-100375000D03*
X113300000Y-101475000D03*
X113300000Y-102575000D03*
X113300000Y-103675000D03*
X113300000Y-104775000D03*
D21*
X113175000Y-107225000D03*
D22*
X102500000Y-107175000D03*
D10*
G36*
X94454505Y-77159204D02*
G01*
X94478773Y-77162804D01*
X94502572Y-77168765D01*
X94525671Y-77177030D01*
X94547850Y-77187520D01*
X94568893Y-77200132D01*
X94588599Y-77214747D01*
X94606777Y-77231223D01*
X94623253Y-77249401D01*
X94637868Y-77269107D01*
X94650480Y-77290150D01*
X94660970Y-77312329D01*
X94669235Y-77335428D01*
X94675196Y-77359227D01*
X94678796Y-77383495D01*
X94680000Y-77407999D01*
X94680000Y-78058001D01*
X94678796Y-78082505D01*
X94675196Y-78106773D01*
X94669235Y-78130572D01*
X94660970Y-78153671D01*
X94650480Y-78175850D01*
X94637868Y-78196893D01*
X94623253Y-78216599D01*
X94606777Y-78234777D01*
X94588599Y-78251253D01*
X94568893Y-78265868D01*
X94547850Y-78278480D01*
X94525671Y-78288970D01*
X94502572Y-78297235D01*
X94478773Y-78303196D01*
X94454505Y-78306796D01*
X94430001Y-78308000D01*
X93529999Y-78308000D01*
X93505495Y-78306796D01*
X93481227Y-78303196D01*
X93457428Y-78297235D01*
X93434329Y-78288970D01*
X93412150Y-78278480D01*
X93391107Y-78265868D01*
X93371401Y-78251253D01*
X93353223Y-78234777D01*
X93336747Y-78216599D01*
X93322132Y-78196893D01*
X93309520Y-78175850D01*
X93299030Y-78153671D01*
X93290765Y-78130572D01*
X93284804Y-78106773D01*
X93281204Y-78082505D01*
X93280000Y-78058001D01*
X93280000Y-77407999D01*
X93281204Y-77383495D01*
X93284804Y-77359227D01*
X93290765Y-77335428D01*
X93299030Y-77312329D01*
X93309520Y-77290150D01*
X93322132Y-77269107D01*
X93336747Y-77249401D01*
X93353223Y-77231223D01*
X93371401Y-77214747D01*
X93391107Y-77200132D01*
X93412150Y-77187520D01*
X93434329Y-77177030D01*
X93457428Y-77168765D01*
X93481227Y-77162804D01*
X93505495Y-77159204D01*
X93529999Y-77158000D01*
X94430001Y-77158000D01*
X94454505Y-77159204D01*
G37*
G36*
X94454505Y-75109204D02*
G01*
X94478773Y-75112804D01*
X94502572Y-75118765D01*
X94525671Y-75127030D01*
X94547850Y-75137520D01*
X94568893Y-75150132D01*
X94588599Y-75164747D01*
X94606777Y-75181223D01*
X94623253Y-75199401D01*
X94637868Y-75219107D01*
X94650480Y-75240150D01*
X94660970Y-75262329D01*
X94669235Y-75285428D01*
X94675196Y-75309227D01*
X94678796Y-75333495D01*
X94680000Y-75357999D01*
X94680000Y-76008001D01*
X94678796Y-76032505D01*
X94675196Y-76056773D01*
X94669235Y-76080572D01*
X94660970Y-76103671D01*
X94650480Y-76125850D01*
X94637868Y-76146893D01*
X94623253Y-76166599D01*
X94606777Y-76184777D01*
X94588599Y-76201253D01*
X94568893Y-76215868D01*
X94547850Y-76228480D01*
X94525671Y-76238970D01*
X94502572Y-76247235D01*
X94478773Y-76253196D01*
X94454505Y-76256796D01*
X94430001Y-76258000D01*
X93529999Y-76258000D01*
X93505495Y-76256796D01*
X93481227Y-76253196D01*
X93457428Y-76247235D01*
X93434329Y-76238970D01*
X93412150Y-76228480D01*
X93391107Y-76215868D01*
X93371401Y-76201253D01*
X93353223Y-76184777D01*
X93336747Y-76166599D01*
X93322132Y-76146893D01*
X93309520Y-76125850D01*
X93299030Y-76103671D01*
X93290765Y-76080572D01*
X93284804Y-76056773D01*
X93281204Y-76032505D01*
X93280000Y-76008001D01*
X93280000Y-75357999D01*
X93281204Y-75333495D01*
X93284804Y-75309227D01*
X93290765Y-75285428D01*
X93299030Y-75262329D01*
X93309520Y-75240150D01*
X93322132Y-75219107D01*
X93336747Y-75199401D01*
X93353223Y-75181223D01*
X93371401Y-75164747D01*
X93391107Y-75150132D01*
X93412150Y-75137520D01*
X93434329Y-75127030D01*
X93457428Y-75118765D01*
X93481227Y-75112804D01*
X93505495Y-75109204D01*
X93529999Y-75108000D01*
X94430001Y-75108000D01*
X94454505Y-75109204D01*
G37*
G36*
X93449505Y-85661204D02*
G01*
X93473773Y-85664804D01*
X93497572Y-85670765D01*
X93520671Y-85679030D01*
X93542850Y-85689520D01*
X93563893Y-85702132D01*
X93583599Y-85716747D01*
X93601777Y-85733223D01*
X93618253Y-85751401D01*
X93632868Y-85771107D01*
X93645480Y-85792150D01*
X93655970Y-85814329D01*
X93664235Y-85837428D01*
X93670196Y-85861227D01*
X93673796Y-85885495D01*
X93675000Y-85909999D01*
X93675000Y-86810001D01*
X93673796Y-86834505D01*
X93670196Y-86858773D01*
X93664235Y-86882572D01*
X93655970Y-86905671D01*
X93645480Y-86927850D01*
X93632868Y-86948893D01*
X93618253Y-86968599D01*
X93601777Y-86986777D01*
X93583599Y-87003253D01*
X93563893Y-87017868D01*
X93542850Y-87030480D01*
X93520671Y-87040970D01*
X93497572Y-87049235D01*
X93473773Y-87055196D01*
X93449505Y-87058796D01*
X93425001Y-87060000D01*
X92774999Y-87060000D01*
X92750495Y-87058796D01*
X92726227Y-87055196D01*
X92702428Y-87049235D01*
X92679329Y-87040970D01*
X92657150Y-87030480D01*
X92636107Y-87017868D01*
X92616401Y-87003253D01*
X92598223Y-86986777D01*
X92581747Y-86968599D01*
X92567132Y-86948893D01*
X92554520Y-86927850D01*
X92544030Y-86905671D01*
X92535765Y-86882572D01*
X92529804Y-86858773D01*
X92526204Y-86834505D01*
X92525000Y-86810001D01*
X92525000Y-85909999D01*
X92526204Y-85885495D01*
X92529804Y-85861227D01*
X92535765Y-85837428D01*
X92544030Y-85814329D01*
X92554520Y-85792150D01*
X92567132Y-85771107D01*
X92581747Y-85751401D01*
X92598223Y-85733223D01*
X92616401Y-85716747D01*
X92636107Y-85702132D01*
X92657150Y-85689520D01*
X92679329Y-85679030D01*
X92702428Y-85670765D01*
X92726227Y-85664804D01*
X92750495Y-85661204D01*
X92774999Y-85660000D01*
X93425001Y-85660000D01*
X93449505Y-85661204D01*
G37*
G36*
X91399505Y-85661204D02*
G01*
X91423773Y-85664804D01*
X91447572Y-85670765D01*
X91470671Y-85679030D01*
X91492850Y-85689520D01*
X91513893Y-85702132D01*
X91533599Y-85716747D01*
X91551777Y-85733223D01*
X91568253Y-85751401D01*
X91582868Y-85771107D01*
X91595480Y-85792150D01*
X91605970Y-85814329D01*
X91614235Y-85837428D01*
X91620196Y-85861227D01*
X91623796Y-85885495D01*
X91625000Y-85909999D01*
X91625000Y-86810001D01*
X91623796Y-86834505D01*
X91620196Y-86858773D01*
X91614235Y-86882572D01*
X91605970Y-86905671D01*
X91595480Y-86927850D01*
X91582868Y-86948893D01*
X91568253Y-86968599D01*
X91551777Y-86986777D01*
X91533599Y-87003253D01*
X91513893Y-87017868D01*
X91492850Y-87030480D01*
X91470671Y-87040970D01*
X91447572Y-87049235D01*
X91423773Y-87055196D01*
X91399505Y-87058796D01*
X91375001Y-87060000D01*
X90724999Y-87060000D01*
X90700495Y-87058796D01*
X90676227Y-87055196D01*
X90652428Y-87049235D01*
X90629329Y-87040970D01*
X90607150Y-87030480D01*
X90586107Y-87017868D01*
X90566401Y-87003253D01*
X90548223Y-86986777D01*
X90531747Y-86968599D01*
X90517132Y-86948893D01*
X90504520Y-86927850D01*
X90494030Y-86905671D01*
X90485765Y-86882572D01*
X90479804Y-86858773D01*
X90476204Y-86834505D01*
X90475000Y-86810001D01*
X90475000Y-85909999D01*
X90476204Y-85885495D01*
X90479804Y-85861227D01*
X90485765Y-85837428D01*
X90494030Y-85814329D01*
X90504520Y-85792150D01*
X90517132Y-85771107D01*
X90531747Y-85751401D01*
X90548223Y-85733223D01*
X90566401Y-85716747D01*
X90586107Y-85702132D01*
X90607150Y-85689520D01*
X90629329Y-85679030D01*
X90652428Y-85670765D01*
X90676227Y-85664804D01*
X90700495Y-85661204D01*
X90724999Y-85660000D01*
X91375001Y-85660000D01*
X91399505Y-85661204D01*
G37*
G36*
X62334505Y-110426204D02*
G01*
X62358773Y-110429804D01*
X62382572Y-110435765D01*
X62405671Y-110444030D01*
X62427850Y-110454520D01*
X62448893Y-110467132D01*
X62468599Y-110481747D01*
X62486777Y-110498223D01*
X62503253Y-110516401D01*
X62517868Y-110536107D01*
X62530480Y-110557150D01*
X62540970Y-110579329D01*
X62549235Y-110602428D01*
X62555196Y-110626227D01*
X62558796Y-110650495D01*
X62560000Y-110674999D01*
X62560000Y-111575001D01*
X62558796Y-111599505D01*
X62555196Y-111623773D01*
X62549235Y-111647572D01*
X62540970Y-111670671D01*
X62530480Y-111692850D01*
X62517868Y-111713893D01*
X62503253Y-111733599D01*
X62486777Y-111751777D01*
X62468599Y-111768253D01*
X62448893Y-111782868D01*
X62427850Y-111795480D01*
X62405671Y-111805970D01*
X62382572Y-111814235D01*
X62358773Y-111820196D01*
X62334505Y-111823796D01*
X62310001Y-111825000D01*
X61659999Y-111825000D01*
X61635495Y-111823796D01*
X61611227Y-111820196D01*
X61587428Y-111814235D01*
X61564329Y-111805970D01*
X61542150Y-111795480D01*
X61521107Y-111782868D01*
X61501401Y-111768253D01*
X61483223Y-111751777D01*
X61466747Y-111733599D01*
X61452132Y-111713893D01*
X61439520Y-111692850D01*
X61429030Y-111670671D01*
X61420765Y-111647572D01*
X61414804Y-111623773D01*
X61411204Y-111599505D01*
X61410000Y-111575001D01*
X61410000Y-110674999D01*
X61411204Y-110650495D01*
X61414804Y-110626227D01*
X61420765Y-110602428D01*
X61429030Y-110579329D01*
X61439520Y-110557150D01*
X61452132Y-110536107D01*
X61466747Y-110516401D01*
X61483223Y-110498223D01*
X61501401Y-110481747D01*
X61521107Y-110467132D01*
X61542150Y-110454520D01*
X61564329Y-110444030D01*
X61587428Y-110435765D01*
X61611227Y-110429804D01*
X61635495Y-110426204D01*
X61659999Y-110425000D01*
X62310001Y-110425000D01*
X62334505Y-110426204D01*
G37*
G36*
X60284505Y-110426204D02*
G01*
X60308773Y-110429804D01*
X60332572Y-110435765D01*
X60355671Y-110444030D01*
X60377850Y-110454520D01*
X60398893Y-110467132D01*
X60418599Y-110481747D01*
X60436777Y-110498223D01*
X60453253Y-110516401D01*
X60467868Y-110536107D01*
X60480480Y-110557150D01*
X60490970Y-110579329D01*
X60499235Y-110602428D01*
X60505196Y-110626227D01*
X60508796Y-110650495D01*
X60510000Y-110674999D01*
X60510000Y-111575001D01*
X60508796Y-111599505D01*
X60505196Y-111623773D01*
X60499235Y-111647572D01*
X60490970Y-111670671D01*
X60480480Y-111692850D01*
X60467868Y-111713893D01*
X60453253Y-111733599D01*
X60436777Y-111751777D01*
X60418599Y-111768253D01*
X60398893Y-111782868D01*
X60377850Y-111795480D01*
X60355671Y-111805970D01*
X60332572Y-111814235D01*
X60308773Y-111820196D01*
X60284505Y-111823796D01*
X60260001Y-111825000D01*
X59609999Y-111825000D01*
X59585495Y-111823796D01*
X59561227Y-111820196D01*
X59537428Y-111814235D01*
X59514329Y-111805970D01*
X59492150Y-111795480D01*
X59471107Y-111782868D01*
X59451401Y-111768253D01*
X59433223Y-111751777D01*
X59416747Y-111733599D01*
X59402132Y-111713893D01*
X59389520Y-111692850D01*
X59379030Y-111670671D01*
X59370765Y-111647572D01*
X59364804Y-111623773D01*
X59361204Y-111599505D01*
X59360000Y-111575001D01*
X59360000Y-110674999D01*
X59361204Y-110650495D01*
X59364804Y-110626227D01*
X59370765Y-110602428D01*
X59379030Y-110579329D01*
X59389520Y-110557150D01*
X59402132Y-110536107D01*
X59416747Y-110516401D01*
X59433223Y-110498223D01*
X59451401Y-110481747D01*
X59471107Y-110467132D01*
X59492150Y-110454520D01*
X59514329Y-110444030D01*
X59537428Y-110435765D01*
X59561227Y-110429804D01*
X59585495Y-110426204D01*
X59609999Y-110425000D01*
X60260001Y-110425000D01*
X60284505Y-110426204D01*
G37*
G36*
X80114505Y-77279204D02*
G01*
X80138773Y-77282804D01*
X80162572Y-77288765D01*
X80185671Y-77297030D01*
X80207850Y-77307520D01*
X80228893Y-77320132D01*
X80248599Y-77334747D01*
X80266777Y-77351223D01*
X80283253Y-77369401D01*
X80297868Y-77389107D01*
X80310480Y-77410150D01*
X80320970Y-77432329D01*
X80329235Y-77455428D01*
X80335196Y-77479227D01*
X80338796Y-77503495D01*
X80340000Y-77527999D01*
X80340000Y-78428001D01*
X80338796Y-78452505D01*
X80335196Y-78476773D01*
X80329235Y-78500572D01*
X80320970Y-78523671D01*
X80310480Y-78545850D01*
X80297868Y-78566893D01*
X80283253Y-78586599D01*
X80266777Y-78604777D01*
X80248599Y-78621253D01*
X80228893Y-78635868D01*
X80207850Y-78648480D01*
X80185671Y-78658970D01*
X80162572Y-78667235D01*
X80138773Y-78673196D01*
X80114505Y-78676796D01*
X80090001Y-78678000D01*
X79439999Y-78678000D01*
X79415495Y-78676796D01*
X79391227Y-78673196D01*
X79367428Y-78667235D01*
X79344329Y-78658970D01*
X79322150Y-78648480D01*
X79301107Y-78635868D01*
X79281401Y-78621253D01*
X79263223Y-78604777D01*
X79246747Y-78586599D01*
X79232132Y-78566893D01*
X79219520Y-78545850D01*
X79209030Y-78523671D01*
X79200765Y-78500572D01*
X79194804Y-78476773D01*
X79191204Y-78452505D01*
X79190000Y-78428001D01*
X79190000Y-77527999D01*
X79191204Y-77503495D01*
X79194804Y-77479227D01*
X79200765Y-77455428D01*
X79209030Y-77432329D01*
X79219520Y-77410150D01*
X79232132Y-77389107D01*
X79246747Y-77369401D01*
X79263223Y-77351223D01*
X79281401Y-77334747D01*
X79301107Y-77320132D01*
X79322150Y-77307520D01*
X79344329Y-77297030D01*
X79367428Y-77288765D01*
X79391227Y-77282804D01*
X79415495Y-77279204D01*
X79439999Y-77278000D01*
X80090001Y-77278000D01*
X80114505Y-77279204D01*
G37*
G36*
X78064505Y-77279204D02*
G01*
X78088773Y-77282804D01*
X78112572Y-77288765D01*
X78135671Y-77297030D01*
X78157850Y-77307520D01*
X78178893Y-77320132D01*
X78198599Y-77334747D01*
X78216777Y-77351223D01*
X78233253Y-77369401D01*
X78247868Y-77389107D01*
X78260480Y-77410150D01*
X78270970Y-77432329D01*
X78279235Y-77455428D01*
X78285196Y-77479227D01*
X78288796Y-77503495D01*
X78290000Y-77527999D01*
X78290000Y-78428001D01*
X78288796Y-78452505D01*
X78285196Y-78476773D01*
X78279235Y-78500572D01*
X78270970Y-78523671D01*
X78260480Y-78545850D01*
X78247868Y-78566893D01*
X78233253Y-78586599D01*
X78216777Y-78604777D01*
X78198599Y-78621253D01*
X78178893Y-78635868D01*
X78157850Y-78648480D01*
X78135671Y-78658970D01*
X78112572Y-78667235D01*
X78088773Y-78673196D01*
X78064505Y-78676796D01*
X78040001Y-78678000D01*
X77389999Y-78678000D01*
X77365495Y-78676796D01*
X77341227Y-78673196D01*
X77317428Y-78667235D01*
X77294329Y-78658970D01*
X77272150Y-78648480D01*
X77251107Y-78635868D01*
X77231401Y-78621253D01*
X77213223Y-78604777D01*
X77196747Y-78586599D01*
X77182132Y-78566893D01*
X77169520Y-78545850D01*
X77159030Y-78523671D01*
X77150765Y-78500572D01*
X77144804Y-78476773D01*
X77141204Y-78452505D01*
X77140000Y-78428001D01*
X77140000Y-77527999D01*
X77141204Y-77503495D01*
X77144804Y-77479227D01*
X77150765Y-77455428D01*
X77159030Y-77432329D01*
X77169520Y-77410150D01*
X77182132Y-77389107D01*
X77196747Y-77369401D01*
X77213223Y-77351223D01*
X77231401Y-77334747D01*
X77251107Y-77320132D01*
X77272150Y-77307520D01*
X77294329Y-77297030D01*
X77317428Y-77288765D01*
X77341227Y-77282804D01*
X77365495Y-77279204D01*
X77389999Y-77278000D01*
X78040001Y-77278000D01*
X78064505Y-77279204D01*
G37*
G36*
X71859505Y-74739204D02*
G01*
X71883773Y-74742804D01*
X71907572Y-74748765D01*
X71930671Y-74757030D01*
X71952850Y-74767520D01*
X71973893Y-74780132D01*
X71993599Y-74794747D01*
X72011777Y-74811223D01*
X72028253Y-74829401D01*
X72042868Y-74849107D01*
X72055480Y-74870150D01*
X72065970Y-74892329D01*
X72074235Y-74915428D01*
X72080196Y-74939227D01*
X72083796Y-74963495D01*
X72085000Y-74987999D01*
X72085000Y-75888001D01*
X72083796Y-75912505D01*
X72080196Y-75936773D01*
X72074235Y-75960572D01*
X72065970Y-75983671D01*
X72055480Y-76005850D01*
X72042868Y-76026893D01*
X72028253Y-76046599D01*
X72011777Y-76064777D01*
X71993599Y-76081253D01*
X71973893Y-76095868D01*
X71952850Y-76108480D01*
X71930671Y-76118970D01*
X71907572Y-76127235D01*
X71883773Y-76133196D01*
X71859505Y-76136796D01*
X71835001Y-76138000D01*
X71184999Y-76138000D01*
X71160495Y-76136796D01*
X71136227Y-76133196D01*
X71112428Y-76127235D01*
X71089329Y-76118970D01*
X71067150Y-76108480D01*
X71046107Y-76095868D01*
X71026401Y-76081253D01*
X71008223Y-76064777D01*
X70991747Y-76046599D01*
X70977132Y-76026893D01*
X70964520Y-76005850D01*
X70954030Y-75983671D01*
X70945765Y-75960572D01*
X70939804Y-75936773D01*
X70936204Y-75912505D01*
X70935000Y-75888001D01*
X70935000Y-74987999D01*
X70936204Y-74963495D01*
X70939804Y-74939227D01*
X70945765Y-74915428D01*
X70954030Y-74892329D01*
X70964520Y-74870150D01*
X70977132Y-74849107D01*
X70991747Y-74829401D01*
X71008223Y-74811223D01*
X71026401Y-74794747D01*
X71046107Y-74780132D01*
X71067150Y-74767520D01*
X71089329Y-74757030D01*
X71112428Y-74748765D01*
X71136227Y-74742804D01*
X71160495Y-74739204D01*
X71184999Y-74738000D01*
X71835001Y-74738000D01*
X71859505Y-74739204D01*
G37*
G36*
X69809505Y-74739204D02*
G01*
X69833773Y-74742804D01*
X69857572Y-74748765D01*
X69880671Y-74757030D01*
X69902850Y-74767520D01*
X69923893Y-74780132D01*
X69943599Y-74794747D01*
X69961777Y-74811223D01*
X69978253Y-74829401D01*
X69992868Y-74849107D01*
X70005480Y-74870150D01*
X70015970Y-74892329D01*
X70024235Y-74915428D01*
X70030196Y-74939227D01*
X70033796Y-74963495D01*
X70035000Y-74987999D01*
X70035000Y-75888001D01*
X70033796Y-75912505D01*
X70030196Y-75936773D01*
X70024235Y-75960572D01*
X70015970Y-75983671D01*
X70005480Y-76005850D01*
X69992868Y-76026893D01*
X69978253Y-76046599D01*
X69961777Y-76064777D01*
X69943599Y-76081253D01*
X69923893Y-76095868D01*
X69902850Y-76108480D01*
X69880671Y-76118970D01*
X69857572Y-76127235D01*
X69833773Y-76133196D01*
X69809505Y-76136796D01*
X69785001Y-76138000D01*
X69134999Y-76138000D01*
X69110495Y-76136796D01*
X69086227Y-76133196D01*
X69062428Y-76127235D01*
X69039329Y-76118970D01*
X69017150Y-76108480D01*
X68996107Y-76095868D01*
X68976401Y-76081253D01*
X68958223Y-76064777D01*
X68941747Y-76046599D01*
X68927132Y-76026893D01*
X68914520Y-76005850D01*
X68904030Y-75983671D01*
X68895765Y-75960572D01*
X68889804Y-75936773D01*
X68886204Y-75912505D01*
X68885000Y-75888001D01*
X68885000Y-74987999D01*
X68886204Y-74963495D01*
X68889804Y-74939227D01*
X68895765Y-74915428D01*
X68904030Y-74892329D01*
X68914520Y-74870150D01*
X68927132Y-74849107D01*
X68941747Y-74829401D01*
X68958223Y-74811223D01*
X68976401Y-74794747D01*
X68996107Y-74780132D01*
X69017150Y-74767520D01*
X69039329Y-74757030D01*
X69062428Y-74748765D01*
X69086227Y-74742804D01*
X69110495Y-74739204D01*
X69134999Y-74738000D01*
X69785001Y-74738000D01*
X69809505Y-74739204D01*
G37*
G36*
X62334505Y-112966204D02*
G01*
X62358773Y-112969804D01*
X62382572Y-112975765D01*
X62405671Y-112984030D01*
X62427850Y-112994520D01*
X62448893Y-113007132D01*
X62468599Y-113021747D01*
X62486777Y-113038223D01*
X62503253Y-113056401D01*
X62517868Y-113076107D01*
X62530480Y-113097150D01*
X62540970Y-113119329D01*
X62549235Y-113142428D01*
X62555196Y-113166227D01*
X62558796Y-113190495D01*
X62560000Y-113214999D01*
X62560000Y-114115001D01*
X62558796Y-114139505D01*
X62555196Y-114163773D01*
X62549235Y-114187572D01*
X62540970Y-114210671D01*
X62530480Y-114232850D01*
X62517868Y-114253893D01*
X62503253Y-114273599D01*
X62486777Y-114291777D01*
X62468599Y-114308253D01*
X62448893Y-114322868D01*
X62427850Y-114335480D01*
X62405671Y-114345970D01*
X62382572Y-114354235D01*
X62358773Y-114360196D01*
X62334505Y-114363796D01*
X62310001Y-114365000D01*
X61659999Y-114365000D01*
X61635495Y-114363796D01*
X61611227Y-114360196D01*
X61587428Y-114354235D01*
X61564329Y-114345970D01*
X61542150Y-114335480D01*
X61521107Y-114322868D01*
X61501401Y-114308253D01*
X61483223Y-114291777D01*
X61466747Y-114273599D01*
X61452132Y-114253893D01*
X61439520Y-114232850D01*
X61429030Y-114210671D01*
X61420765Y-114187572D01*
X61414804Y-114163773D01*
X61411204Y-114139505D01*
X61410000Y-114115001D01*
X61410000Y-113214999D01*
X61411204Y-113190495D01*
X61414804Y-113166227D01*
X61420765Y-113142428D01*
X61429030Y-113119329D01*
X61439520Y-113097150D01*
X61452132Y-113076107D01*
X61466747Y-113056401D01*
X61483223Y-113038223D01*
X61501401Y-113021747D01*
X61521107Y-113007132D01*
X61542150Y-112994520D01*
X61564329Y-112984030D01*
X61587428Y-112975765D01*
X61611227Y-112969804D01*
X61635495Y-112966204D01*
X61659999Y-112965000D01*
X62310001Y-112965000D01*
X62334505Y-112966204D01*
G37*
G36*
X60284505Y-112966204D02*
G01*
X60308773Y-112969804D01*
X60332572Y-112975765D01*
X60355671Y-112984030D01*
X60377850Y-112994520D01*
X60398893Y-113007132D01*
X60418599Y-113021747D01*
X60436777Y-113038223D01*
X60453253Y-113056401D01*
X60467868Y-113076107D01*
X60480480Y-113097150D01*
X60490970Y-113119329D01*
X60499235Y-113142428D01*
X60505196Y-113166227D01*
X60508796Y-113190495D01*
X60510000Y-113214999D01*
X60510000Y-114115001D01*
X60508796Y-114139505D01*
X60505196Y-114163773D01*
X60499235Y-114187572D01*
X60490970Y-114210671D01*
X60480480Y-114232850D01*
X60467868Y-114253893D01*
X60453253Y-114273599D01*
X60436777Y-114291777D01*
X60418599Y-114308253D01*
X60398893Y-114322868D01*
X60377850Y-114335480D01*
X60355671Y-114345970D01*
X60332572Y-114354235D01*
X60308773Y-114360196D01*
X60284505Y-114363796D01*
X60260001Y-114365000D01*
X59609999Y-114365000D01*
X59585495Y-114363796D01*
X59561227Y-114360196D01*
X59537428Y-114354235D01*
X59514329Y-114345970D01*
X59492150Y-114335480D01*
X59471107Y-114322868D01*
X59451401Y-114308253D01*
X59433223Y-114291777D01*
X59416747Y-114273599D01*
X59402132Y-114253893D01*
X59389520Y-114232850D01*
X59379030Y-114210671D01*
X59370765Y-114187572D01*
X59364804Y-114163773D01*
X59361204Y-114139505D01*
X59360000Y-114115001D01*
X59360000Y-113214999D01*
X59361204Y-113190495D01*
X59364804Y-113166227D01*
X59370765Y-113142428D01*
X59379030Y-113119329D01*
X59389520Y-113097150D01*
X59402132Y-113076107D01*
X59416747Y-113056401D01*
X59433223Y-113038223D01*
X59451401Y-113021747D01*
X59471107Y-113007132D01*
X59492150Y-112994520D01*
X59514329Y-112984030D01*
X59537428Y-112975765D01*
X59561227Y-112969804D01*
X59585495Y-112966204D01*
X59609999Y-112965000D01*
X60260001Y-112965000D01*
X60284505Y-112966204D01*
G37*
G36*
X67414505Y-121856204D02*
G01*
X67438773Y-121859804D01*
X67462572Y-121865765D01*
X67485671Y-121874030D01*
X67507850Y-121884520D01*
X67528893Y-121897132D01*
X67548599Y-121911747D01*
X67566777Y-121928223D01*
X67583253Y-121946401D01*
X67597868Y-121966107D01*
X67610480Y-121987150D01*
X67620970Y-122009329D01*
X67629235Y-122032428D01*
X67635196Y-122056227D01*
X67638796Y-122080495D01*
X67640000Y-122104999D01*
X67640000Y-123005001D01*
X67638796Y-123029505D01*
X67635196Y-123053773D01*
X67629235Y-123077572D01*
X67620970Y-123100671D01*
X67610480Y-123122850D01*
X67597868Y-123143893D01*
X67583253Y-123163599D01*
X67566777Y-123181777D01*
X67548599Y-123198253D01*
X67528893Y-123212868D01*
X67507850Y-123225480D01*
X67485671Y-123235970D01*
X67462572Y-123244235D01*
X67438773Y-123250196D01*
X67414505Y-123253796D01*
X67390001Y-123255000D01*
X66739999Y-123255000D01*
X66715495Y-123253796D01*
X66691227Y-123250196D01*
X66667428Y-123244235D01*
X66644329Y-123235970D01*
X66622150Y-123225480D01*
X66601107Y-123212868D01*
X66581401Y-123198253D01*
X66563223Y-123181777D01*
X66546747Y-123163599D01*
X66532132Y-123143893D01*
X66519520Y-123122850D01*
X66509030Y-123100671D01*
X66500765Y-123077572D01*
X66494804Y-123053773D01*
X66491204Y-123029505D01*
X66490000Y-123005001D01*
X66490000Y-122104999D01*
X66491204Y-122080495D01*
X66494804Y-122056227D01*
X66500765Y-122032428D01*
X66509030Y-122009329D01*
X66519520Y-121987150D01*
X66532132Y-121966107D01*
X66546747Y-121946401D01*
X66563223Y-121928223D01*
X66581401Y-121911747D01*
X66601107Y-121897132D01*
X66622150Y-121884520D01*
X66644329Y-121874030D01*
X66667428Y-121865765D01*
X66691227Y-121859804D01*
X66715495Y-121856204D01*
X66739999Y-121855000D01*
X67390001Y-121855000D01*
X67414505Y-121856204D01*
G37*
G36*
X65364505Y-121856204D02*
G01*
X65388773Y-121859804D01*
X65412572Y-121865765D01*
X65435671Y-121874030D01*
X65457850Y-121884520D01*
X65478893Y-121897132D01*
X65498599Y-121911747D01*
X65516777Y-121928223D01*
X65533253Y-121946401D01*
X65547868Y-121966107D01*
X65560480Y-121987150D01*
X65570970Y-122009329D01*
X65579235Y-122032428D01*
X65585196Y-122056227D01*
X65588796Y-122080495D01*
X65590000Y-122104999D01*
X65590000Y-123005001D01*
X65588796Y-123029505D01*
X65585196Y-123053773D01*
X65579235Y-123077572D01*
X65570970Y-123100671D01*
X65560480Y-123122850D01*
X65547868Y-123143893D01*
X65533253Y-123163599D01*
X65516777Y-123181777D01*
X65498599Y-123198253D01*
X65478893Y-123212868D01*
X65457850Y-123225480D01*
X65435671Y-123235970D01*
X65412572Y-123244235D01*
X65388773Y-123250196D01*
X65364505Y-123253796D01*
X65340001Y-123255000D01*
X64689999Y-123255000D01*
X64665495Y-123253796D01*
X64641227Y-123250196D01*
X64617428Y-123244235D01*
X64594329Y-123235970D01*
X64572150Y-123225480D01*
X64551107Y-123212868D01*
X64531401Y-123198253D01*
X64513223Y-123181777D01*
X64496747Y-123163599D01*
X64482132Y-123143893D01*
X64469520Y-123122850D01*
X64459030Y-123100671D01*
X64450765Y-123077572D01*
X64444804Y-123053773D01*
X64441204Y-123029505D01*
X64440000Y-123005001D01*
X64440000Y-122104999D01*
X64441204Y-122080495D01*
X64444804Y-122056227D01*
X64450765Y-122032428D01*
X64459030Y-122009329D01*
X64469520Y-121987150D01*
X64482132Y-121966107D01*
X64496747Y-121946401D01*
X64513223Y-121928223D01*
X64531401Y-121911747D01*
X64551107Y-121897132D01*
X64572150Y-121884520D01*
X64594329Y-121874030D01*
X64617428Y-121865765D01*
X64641227Y-121859804D01*
X64665495Y-121856204D01*
X64689999Y-121855000D01*
X65340001Y-121855000D01*
X65364505Y-121856204D01*
G37*
G36*
X104244505Y-109791204D02*
G01*
X104268773Y-109794804D01*
X104292572Y-109800765D01*
X104315671Y-109809030D01*
X104337850Y-109819520D01*
X104358893Y-109832132D01*
X104378599Y-109846747D01*
X104396777Y-109863223D01*
X104413253Y-109881401D01*
X104427868Y-109901107D01*
X104440480Y-109922150D01*
X104450970Y-109944329D01*
X104459235Y-109967428D01*
X104465196Y-109991227D01*
X104468796Y-110015495D01*
X104470000Y-110039999D01*
X104470000Y-110940001D01*
X104468796Y-110964505D01*
X104465196Y-110988773D01*
X104459235Y-111012572D01*
X104450970Y-111035671D01*
X104440480Y-111057850D01*
X104427868Y-111078893D01*
X104413253Y-111098599D01*
X104396777Y-111116777D01*
X104378599Y-111133253D01*
X104358893Y-111147868D01*
X104337850Y-111160480D01*
X104315671Y-111170970D01*
X104292572Y-111179235D01*
X104268773Y-111185196D01*
X104244505Y-111188796D01*
X104220001Y-111190000D01*
X103569999Y-111190000D01*
X103545495Y-111188796D01*
X103521227Y-111185196D01*
X103497428Y-111179235D01*
X103474329Y-111170970D01*
X103452150Y-111160480D01*
X103431107Y-111147868D01*
X103411401Y-111133253D01*
X103393223Y-111116777D01*
X103376747Y-111098599D01*
X103362132Y-111078893D01*
X103349520Y-111057850D01*
X103339030Y-111035671D01*
X103330765Y-111012572D01*
X103324804Y-110988773D01*
X103321204Y-110964505D01*
X103320000Y-110940001D01*
X103320000Y-110039999D01*
X103321204Y-110015495D01*
X103324804Y-109991227D01*
X103330765Y-109967428D01*
X103339030Y-109944329D01*
X103349520Y-109922150D01*
X103362132Y-109901107D01*
X103376747Y-109881401D01*
X103393223Y-109863223D01*
X103411401Y-109846747D01*
X103431107Y-109832132D01*
X103452150Y-109819520D01*
X103474329Y-109809030D01*
X103497428Y-109800765D01*
X103521227Y-109794804D01*
X103545495Y-109791204D01*
X103569999Y-109790000D01*
X104220001Y-109790000D01*
X104244505Y-109791204D01*
G37*
G36*
X102194505Y-109791204D02*
G01*
X102218773Y-109794804D01*
X102242572Y-109800765D01*
X102265671Y-109809030D01*
X102287850Y-109819520D01*
X102308893Y-109832132D01*
X102328599Y-109846747D01*
X102346777Y-109863223D01*
X102363253Y-109881401D01*
X102377868Y-109901107D01*
X102390480Y-109922150D01*
X102400970Y-109944329D01*
X102409235Y-109967428D01*
X102415196Y-109991227D01*
X102418796Y-110015495D01*
X102420000Y-110039999D01*
X102420000Y-110940001D01*
X102418796Y-110964505D01*
X102415196Y-110988773D01*
X102409235Y-111012572D01*
X102400970Y-111035671D01*
X102390480Y-111057850D01*
X102377868Y-111078893D01*
X102363253Y-111098599D01*
X102346777Y-111116777D01*
X102328599Y-111133253D01*
X102308893Y-111147868D01*
X102287850Y-111160480D01*
X102265671Y-111170970D01*
X102242572Y-111179235D01*
X102218773Y-111185196D01*
X102194505Y-111188796D01*
X102170001Y-111190000D01*
X101519999Y-111190000D01*
X101495495Y-111188796D01*
X101471227Y-111185196D01*
X101447428Y-111179235D01*
X101424329Y-111170970D01*
X101402150Y-111160480D01*
X101381107Y-111147868D01*
X101361401Y-111133253D01*
X101343223Y-111116777D01*
X101326747Y-111098599D01*
X101312132Y-111078893D01*
X101299520Y-111057850D01*
X101289030Y-111035671D01*
X101280765Y-111012572D01*
X101274804Y-110988773D01*
X101271204Y-110964505D01*
X101270000Y-110940001D01*
X101270000Y-110039999D01*
X101271204Y-110015495D01*
X101274804Y-109991227D01*
X101280765Y-109967428D01*
X101289030Y-109944329D01*
X101299520Y-109922150D01*
X101312132Y-109901107D01*
X101326747Y-109881401D01*
X101343223Y-109863223D01*
X101361401Y-109846747D01*
X101381107Y-109832132D01*
X101402150Y-109819520D01*
X101424329Y-109809030D01*
X101447428Y-109800765D01*
X101471227Y-109794804D01*
X101495495Y-109791204D01*
X101519999Y-109790000D01*
X102170001Y-109790000D01*
X102194505Y-109791204D01*
G37*
G36*
X108689505Y-109791204D02*
G01*
X108713773Y-109794804D01*
X108737572Y-109800765D01*
X108760671Y-109809030D01*
X108782850Y-109819520D01*
X108803893Y-109832132D01*
X108823599Y-109846747D01*
X108841777Y-109863223D01*
X108858253Y-109881401D01*
X108872868Y-109901107D01*
X108885480Y-109922150D01*
X108895970Y-109944329D01*
X108904235Y-109967428D01*
X108910196Y-109991227D01*
X108913796Y-110015495D01*
X108915000Y-110039999D01*
X108915000Y-110940001D01*
X108913796Y-110964505D01*
X108910196Y-110988773D01*
X108904235Y-111012572D01*
X108895970Y-111035671D01*
X108885480Y-111057850D01*
X108872868Y-111078893D01*
X108858253Y-111098599D01*
X108841777Y-111116777D01*
X108823599Y-111133253D01*
X108803893Y-111147868D01*
X108782850Y-111160480D01*
X108760671Y-111170970D01*
X108737572Y-111179235D01*
X108713773Y-111185196D01*
X108689505Y-111188796D01*
X108665001Y-111190000D01*
X108014999Y-111190000D01*
X107990495Y-111188796D01*
X107966227Y-111185196D01*
X107942428Y-111179235D01*
X107919329Y-111170970D01*
X107897150Y-111160480D01*
X107876107Y-111147868D01*
X107856401Y-111133253D01*
X107838223Y-111116777D01*
X107821747Y-111098599D01*
X107807132Y-111078893D01*
X107794520Y-111057850D01*
X107784030Y-111035671D01*
X107775765Y-111012572D01*
X107769804Y-110988773D01*
X107766204Y-110964505D01*
X107765000Y-110940001D01*
X107765000Y-110039999D01*
X107766204Y-110015495D01*
X107769804Y-109991227D01*
X107775765Y-109967428D01*
X107784030Y-109944329D01*
X107794520Y-109922150D01*
X107807132Y-109901107D01*
X107821747Y-109881401D01*
X107838223Y-109863223D01*
X107856401Y-109846747D01*
X107876107Y-109832132D01*
X107897150Y-109819520D01*
X107919329Y-109809030D01*
X107942428Y-109800765D01*
X107966227Y-109794804D01*
X107990495Y-109791204D01*
X108014999Y-109790000D01*
X108665001Y-109790000D01*
X108689505Y-109791204D01*
G37*
G36*
X106639505Y-109791204D02*
G01*
X106663773Y-109794804D01*
X106687572Y-109800765D01*
X106710671Y-109809030D01*
X106732850Y-109819520D01*
X106753893Y-109832132D01*
X106773599Y-109846747D01*
X106791777Y-109863223D01*
X106808253Y-109881401D01*
X106822868Y-109901107D01*
X106835480Y-109922150D01*
X106845970Y-109944329D01*
X106854235Y-109967428D01*
X106860196Y-109991227D01*
X106863796Y-110015495D01*
X106865000Y-110039999D01*
X106865000Y-110940001D01*
X106863796Y-110964505D01*
X106860196Y-110988773D01*
X106854235Y-111012572D01*
X106845970Y-111035671D01*
X106835480Y-111057850D01*
X106822868Y-111078893D01*
X106808253Y-111098599D01*
X106791777Y-111116777D01*
X106773599Y-111133253D01*
X106753893Y-111147868D01*
X106732850Y-111160480D01*
X106710671Y-111170970D01*
X106687572Y-111179235D01*
X106663773Y-111185196D01*
X106639505Y-111188796D01*
X106615001Y-111190000D01*
X105964999Y-111190000D01*
X105940495Y-111188796D01*
X105916227Y-111185196D01*
X105892428Y-111179235D01*
X105869329Y-111170970D01*
X105847150Y-111160480D01*
X105826107Y-111147868D01*
X105806401Y-111133253D01*
X105788223Y-111116777D01*
X105771747Y-111098599D01*
X105757132Y-111078893D01*
X105744520Y-111057850D01*
X105734030Y-111035671D01*
X105725765Y-111012572D01*
X105719804Y-110988773D01*
X105716204Y-110964505D01*
X105715000Y-110940001D01*
X105715000Y-110039999D01*
X105716204Y-110015495D01*
X105719804Y-109991227D01*
X105725765Y-109967428D01*
X105734030Y-109944329D01*
X105744520Y-109922150D01*
X105757132Y-109901107D01*
X105771747Y-109881401D01*
X105788223Y-109863223D01*
X105806401Y-109846747D01*
X105826107Y-109832132D01*
X105847150Y-109819520D01*
X105869329Y-109809030D01*
X105892428Y-109800765D01*
X105916227Y-109794804D01*
X105940495Y-109791204D01*
X105964999Y-109790000D01*
X106615001Y-109790000D01*
X106639505Y-109791204D01*
G37*
D23*
X106553000Y-77525000D03*
X106553000Y-73025000D03*
X113053000Y-77525000D03*
X113053000Y-73025000D03*
X83121500Y-77525000D03*
X83121500Y-73025000D03*
X89621500Y-77525000D03*
X89621500Y-73025000D03*
X66190000Y-73025000D03*
X66190000Y-77525000D03*
X59690000Y-73025000D03*
X59690000Y-77525000D03*
D24*
X69850000Y-135890000D03*
X67310000Y-135890000D03*
X62230000Y-135890000D03*
X64770000Y-135890000D03*
X95250000Y-135890000D03*
X85090000Y-135890000D03*
X97790000Y-135890000D03*
X100330000Y-135890000D03*
X87630000Y-135890000D03*
X92710000Y-135890000D03*
X90170000Y-135890000D03*
X113030000Y-135890000D03*
X107950000Y-135890000D03*
X110490000Y-135890000D03*
X102870000Y-135890000D03*
X105410000Y-135890000D03*
X59690000Y-135890000D03*
X72390000Y-135890000D03*
X80010000Y-135890000D03*
X74930000Y-135890000D03*
X82550000Y-135890000D03*
X77470000Y-135890000D03*
D10*
G36*
X93121005Y-100971704D02*
G01*
X93145273Y-100975304D01*
X93169072Y-100981265D01*
X93192171Y-100989530D01*
X93214350Y-101000020D01*
X93235393Y-101012632D01*
X93255099Y-101027247D01*
X93273277Y-101043723D01*
X93289753Y-101061901D01*
X93304368Y-101081607D01*
X93316980Y-101102650D01*
X93327470Y-101124829D01*
X93335735Y-101147928D01*
X93341696Y-101171727D01*
X93345296Y-101195995D01*
X93346500Y-101220499D01*
X93346500Y-101870501D01*
X93345296Y-101895005D01*
X93341696Y-101919273D01*
X93335735Y-101943072D01*
X93327470Y-101966171D01*
X93316980Y-101988350D01*
X93304368Y-102009393D01*
X93289753Y-102029099D01*
X93273277Y-102047277D01*
X93255099Y-102063753D01*
X93235393Y-102078368D01*
X93214350Y-102090980D01*
X93192171Y-102101470D01*
X93169072Y-102109735D01*
X93145273Y-102115696D01*
X93121005Y-102119296D01*
X93096501Y-102120500D01*
X92196499Y-102120500D01*
X92171995Y-102119296D01*
X92147727Y-102115696D01*
X92123928Y-102109735D01*
X92100829Y-102101470D01*
X92078650Y-102090980D01*
X92057607Y-102078368D01*
X92037901Y-102063753D01*
X92019723Y-102047277D01*
X92003247Y-102029099D01*
X91988632Y-102009393D01*
X91976020Y-101988350D01*
X91965530Y-101966171D01*
X91957265Y-101943072D01*
X91951304Y-101919273D01*
X91947704Y-101895005D01*
X91946500Y-101870501D01*
X91946500Y-101220499D01*
X91947704Y-101195995D01*
X91951304Y-101171727D01*
X91957265Y-101147928D01*
X91965530Y-101124829D01*
X91976020Y-101102650D01*
X91988632Y-101081607D01*
X92003247Y-101061901D01*
X92019723Y-101043723D01*
X92037901Y-101027247D01*
X92057607Y-101012632D01*
X92078650Y-101000020D01*
X92100829Y-100989530D01*
X92123928Y-100981265D01*
X92147727Y-100975304D01*
X92171995Y-100971704D01*
X92196499Y-100970500D01*
X93096501Y-100970500D01*
X93121005Y-100971704D01*
G37*
G36*
X93121005Y-98921704D02*
G01*
X93145273Y-98925304D01*
X93169072Y-98931265D01*
X93192171Y-98939530D01*
X93214350Y-98950020D01*
X93235393Y-98962632D01*
X93255099Y-98977247D01*
X93273277Y-98993723D01*
X93289753Y-99011901D01*
X93304368Y-99031607D01*
X93316980Y-99052650D01*
X93327470Y-99074829D01*
X93335735Y-99097928D01*
X93341696Y-99121727D01*
X93345296Y-99145995D01*
X93346500Y-99170499D01*
X93346500Y-99820501D01*
X93345296Y-99845005D01*
X93341696Y-99869273D01*
X93335735Y-99893072D01*
X93327470Y-99916171D01*
X93316980Y-99938350D01*
X93304368Y-99959393D01*
X93289753Y-99979099D01*
X93273277Y-99997277D01*
X93255099Y-100013753D01*
X93235393Y-100028368D01*
X93214350Y-100040980D01*
X93192171Y-100051470D01*
X93169072Y-100059735D01*
X93145273Y-100065696D01*
X93121005Y-100069296D01*
X93096501Y-100070500D01*
X92196499Y-100070500D01*
X92171995Y-100069296D01*
X92147727Y-100065696D01*
X92123928Y-100059735D01*
X92100829Y-100051470D01*
X92078650Y-100040980D01*
X92057607Y-100028368D01*
X92037901Y-100013753D01*
X92019723Y-99997277D01*
X92003247Y-99979099D01*
X91988632Y-99959393D01*
X91976020Y-99938350D01*
X91965530Y-99916171D01*
X91957265Y-99893072D01*
X91951304Y-99869273D01*
X91947704Y-99845005D01*
X91946500Y-99820501D01*
X91946500Y-99170499D01*
X91947704Y-99145995D01*
X91951304Y-99121727D01*
X91957265Y-99097928D01*
X91965530Y-99074829D01*
X91976020Y-99052650D01*
X91988632Y-99031607D01*
X92003247Y-99011901D01*
X92019723Y-98993723D01*
X92037901Y-98977247D01*
X92057607Y-98962632D01*
X92078650Y-98950020D01*
X92100829Y-98939530D01*
X92123928Y-98931265D01*
X92147727Y-98925304D01*
X92171995Y-98921704D01*
X92196499Y-98920500D01*
X93096501Y-98920500D01*
X93121005Y-98921704D01*
G37*
G36*
X98264505Y-100781204D02*
G01*
X98288773Y-100784804D01*
X98312572Y-100790765D01*
X98335671Y-100799030D01*
X98357850Y-100809520D01*
X98378893Y-100822132D01*
X98398599Y-100836747D01*
X98416777Y-100853223D01*
X98433253Y-100871401D01*
X98447868Y-100891107D01*
X98460480Y-100912150D01*
X98470970Y-100934329D01*
X98479235Y-100957428D01*
X98485196Y-100981227D01*
X98488796Y-101005495D01*
X98490000Y-101029999D01*
X98490000Y-101680001D01*
X98488796Y-101704505D01*
X98485196Y-101728773D01*
X98479235Y-101752572D01*
X98470970Y-101775671D01*
X98460480Y-101797850D01*
X98447868Y-101818893D01*
X98433253Y-101838599D01*
X98416777Y-101856777D01*
X98398599Y-101873253D01*
X98378893Y-101887868D01*
X98357850Y-101900480D01*
X98335671Y-101910970D01*
X98312572Y-101919235D01*
X98288773Y-101925196D01*
X98264505Y-101928796D01*
X98240001Y-101930000D01*
X97339999Y-101930000D01*
X97315495Y-101928796D01*
X97291227Y-101925196D01*
X97267428Y-101919235D01*
X97244329Y-101910970D01*
X97222150Y-101900480D01*
X97201107Y-101887868D01*
X97181401Y-101873253D01*
X97163223Y-101856777D01*
X97146747Y-101838599D01*
X97132132Y-101818893D01*
X97119520Y-101797850D01*
X97109030Y-101775671D01*
X97100765Y-101752572D01*
X97094804Y-101728773D01*
X97091204Y-101704505D01*
X97090000Y-101680001D01*
X97090000Y-101029999D01*
X97091204Y-101005495D01*
X97094804Y-100981227D01*
X97100765Y-100957428D01*
X97109030Y-100934329D01*
X97119520Y-100912150D01*
X97132132Y-100891107D01*
X97146747Y-100871401D01*
X97163223Y-100853223D01*
X97181401Y-100836747D01*
X97201107Y-100822132D01*
X97222150Y-100809520D01*
X97244329Y-100799030D01*
X97267428Y-100790765D01*
X97291227Y-100784804D01*
X97315495Y-100781204D01*
X97339999Y-100780000D01*
X98240001Y-100780000D01*
X98264505Y-100781204D01*
G37*
G36*
X98264505Y-98731204D02*
G01*
X98288773Y-98734804D01*
X98312572Y-98740765D01*
X98335671Y-98749030D01*
X98357850Y-98759520D01*
X98378893Y-98772132D01*
X98398599Y-98786747D01*
X98416777Y-98803223D01*
X98433253Y-98821401D01*
X98447868Y-98841107D01*
X98460480Y-98862150D01*
X98470970Y-98884329D01*
X98479235Y-98907428D01*
X98485196Y-98931227D01*
X98488796Y-98955495D01*
X98490000Y-98979999D01*
X98490000Y-99630001D01*
X98488796Y-99654505D01*
X98485196Y-99678773D01*
X98479235Y-99702572D01*
X98470970Y-99725671D01*
X98460480Y-99747850D01*
X98447868Y-99768893D01*
X98433253Y-99788599D01*
X98416777Y-99806777D01*
X98398599Y-99823253D01*
X98378893Y-99837868D01*
X98357850Y-99850480D01*
X98335671Y-99860970D01*
X98312572Y-99869235D01*
X98288773Y-99875196D01*
X98264505Y-99878796D01*
X98240001Y-99880000D01*
X97339999Y-99880000D01*
X97315495Y-99878796D01*
X97291227Y-99875196D01*
X97267428Y-99869235D01*
X97244329Y-99860970D01*
X97222150Y-99850480D01*
X97201107Y-99837868D01*
X97181401Y-99823253D01*
X97163223Y-99806777D01*
X97146747Y-99788599D01*
X97132132Y-99768893D01*
X97119520Y-99747850D01*
X97109030Y-99725671D01*
X97100765Y-99702572D01*
X97094804Y-99678773D01*
X97091204Y-99654505D01*
X97090000Y-99630001D01*
X97090000Y-98979999D01*
X97091204Y-98955495D01*
X97094804Y-98931227D01*
X97100765Y-98907428D01*
X97109030Y-98884329D01*
X97119520Y-98862150D01*
X97132132Y-98841107D01*
X97146747Y-98821401D01*
X97163223Y-98803223D01*
X97181401Y-98786747D01*
X97201107Y-98772132D01*
X97222150Y-98759520D01*
X97244329Y-98749030D01*
X97267428Y-98740765D01*
X97291227Y-98734804D01*
X97315495Y-98731204D01*
X97339999Y-98730000D01*
X98240001Y-98730000D01*
X98264505Y-98731204D01*
G37*
D13*
X93345000Y-104648000D03*
D14*
X95885000Y-104648000D03*
X98425000Y-104648000D03*
D13*
X60960000Y-81026000D03*
D14*
X63500000Y-81026000D03*
X78740000Y-81026000D03*
D13*
X76200000Y-81026000D03*
X60960000Y-104013000D03*
D14*
X60960000Y-106553000D03*
X63500000Y-104013000D03*
X63500000Y-106553000D03*
X66040000Y-104013000D03*
X66040000Y-106553000D03*
X68580000Y-104013000D03*
X68580000Y-106553000D03*
X71120000Y-104013000D03*
X71120000Y-106553000D03*
X73660000Y-104013000D03*
X73660000Y-106553000D03*
X76200000Y-104013000D03*
X76200000Y-106553000D03*
X78740000Y-104013000D03*
X78740000Y-106553000D03*
X81280000Y-104013000D03*
X81280000Y-106553000D03*
X83820000Y-104013000D03*
X83820000Y-106553000D03*
D13*
X98425000Y-92011500D03*
D14*
X98425000Y-94551500D03*
X95885000Y-92011500D03*
X95885000Y-94551500D03*
X93345000Y-92011500D03*
X93345000Y-94551500D03*
D10*
G36*
X71594505Y-111431204D02*
G01*
X71618773Y-111434804D01*
X71642572Y-111440765D01*
X71665671Y-111449030D01*
X71687850Y-111459520D01*
X71708893Y-111472132D01*
X71728599Y-111486747D01*
X71746777Y-111503223D01*
X71763253Y-111521401D01*
X71777868Y-111541107D01*
X71790480Y-111562150D01*
X71800970Y-111584329D01*
X71809235Y-111607428D01*
X71815196Y-111631227D01*
X71818796Y-111655495D01*
X71820000Y-111679999D01*
X71820000Y-112330001D01*
X71818796Y-112354505D01*
X71815196Y-112378773D01*
X71809235Y-112402572D01*
X71800970Y-112425671D01*
X71790480Y-112447850D01*
X71777868Y-112468893D01*
X71763253Y-112488599D01*
X71746777Y-112506777D01*
X71728599Y-112523253D01*
X71708893Y-112537868D01*
X71687850Y-112550480D01*
X71665671Y-112560970D01*
X71642572Y-112569235D01*
X71618773Y-112575196D01*
X71594505Y-112578796D01*
X71570001Y-112580000D01*
X70669999Y-112580000D01*
X70645495Y-112578796D01*
X70621227Y-112575196D01*
X70597428Y-112569235D01*
X70574329Y-112560970D01*
X70552150Y-112550480D01*
X70531107Y-112537868D01*
X70511401Y-112523253D01*
X70493223Y-112506777D01*
X70476747Y-112488599D01*
X70462132Y-112468893D01*
X70449520Y-112447850D01*
X70439030Y-112425671D01*
X70430765Y-112402572D01*
X70424804Y-112378773D01*
X70421204Y-112354505D01*
X70420000Y-112330001D01*
X70420000Y-111679999D01*
X70421204Y-111655495D01*
X70424804Y-111631227D01*
X70430765Y-111607428D01*
X70439030Y-111584329D01*
X70449520Y-111562150D01*
X70462132Y-111541107D01*
X70476747Y-111521401D01*
X70493223Y-111503223D01*
X70511401Y-111486747D01*
X70531107Y-111472132D01*
X70552150Y-111459520D01*
X70574329Y-111449030D01*
X70597428Y-111440765D01*
X70621227Y-111434804D01*
X70645495Y-111431204D01*
X70669999Y-111430000D01*
X71570001Y-111430000D01*
X71594505Y-111431204D01*
G37*
G36*
X71594505Y-113481204D02*
G01*
X71618773Y-113484804D01*
X71642572Y-113490765D01*
X71665671Y-113499030D01*
X71687850Y-113509520D01*
X71708893Y-113522132D01*
X71728599Y-113536747D01*
X71746777Y-113553223D01*
X71763253Y-113571401D01*
X71777868Y-113591107D01*
X71790480Y-113612150D01*
X71800970Y-113634329D01*
X71809235Y-113657428D01*
X71815196Y-113681227D01*
X71818796Y-113705495D01*
X71820000Y-113729999D01*
X71820000Y-114380001D01*
X71818796Y-114404505D01*
X71815196Y-114428773D01*
X71809235Y-114452572D01*
X71800970Y-114475671D01*
X71790480Y-114497850D01*
X71777868Y-114518893D01*
X71763253Y-114538599D01*
X71746777Y-114556777D01*
X71728599Y-114573253D01*
X71708893Y-114587868D01*
X71687850Y-114600480D01*
X71665671Y-114610970D01*
X71642572Y-114619235D01*
X71618773Y-114625196D01*
X71594505Y-114628796D01*
X71570001Y-114630000D01*
X70669999Y-114630000D01*
X70645495Y-114628796D01*
X70621227Y-114625196D01*
X70597428Y-114619235D01*
X70574329Y-114610970D01*
X70552150Y-114600480D01*
X70531107Y-114587868D01*
X70511401Y-114573253D01*
X70493223Y-114556777D01*
X70476747Y-114538599D01*
X70462132Y-114518893D01*
X70449520Y-114497850D01*
X70439030Y-114475671D01*
X70430765Y-114452572D01*
X70424804Y-114428773D01*
X70421204Y-114404505D01*
X70420000Y-114380001D01*
X70420000Y-113729999D01*
X70421204Y-113705495D01*
X70424804Y-113681227D01*
X70430765Y-113657428D01*
X70439030Y-113634329D01*
X70449520Y-113612150D01*
X70462132Y-113591107D01*
X70476747Y-113571401D01*
X70493223Y-113553223D01*
X70511401Y-113536747D01*
X70531107Y-113522132D01*
X70552150Y-113509520D01*
X70574329Y-113499030D01*
X70597428Y-113490765D01*
X70621227Y-113484804D01*
X70645495Y-113481204D01*
X70669999Y-113480000D01*
X71570001Y-113480000D01*
X71594505Y-113481204D01*
G37*
G36*
X73499505Y-117781204D02*
G01*
X73523773Y-117784804D01*
X73547572Y-117790765D01*
X73570671Y-117799030D01*
X73592850Y-117809520D01*
X73613893Y-117822132D01*
X73633599Y-117836747D01*
X73651777Y-117853223D01*
X73668253Y-117871401D01*
X73682868Y-117891107D01*
X73695480Y-117912150D01*
X73705970Y-117934329D01*
X73714235Y-117957428D01*
X73720196Y-117981227D01*
X73723796Y-118005495D01*
X73725000Y-118029999D01*
X73725000Y-118680001D01*
X73723796Y-118704505D01*
X73720196Y-118728773D01*
X73714235Y-118752572D01*
X73705970Y-118775671D01*
X73695480Y-118797850D01*
X73682868Y-118818893D01*
X73668253Y-118838599D01*
X73651777Y-118856777D01*
X73633599Y-118873253D01*
X73613893Y-118887868D01*
X73592850Y-118900480D01*
X73570671Y-118910970D01*
X73547572Y-118919235D01*
X73523773Y-118925196D01*
X73499505Y-118928796D01*
X73475001Y-118930000D01*
X72574999Y-118930000D01*
X72550495Y-118928796D01*
X72526227Y-118925196D01*
X72502428Y-118919235D01*
X72479329Y-118910970D01*
X72457150Y-118900480D01*
X72436107Y-118887868D01*
X72416401Y-118873253D01*
X72398223Y-118856777D01*
X72381747Y-118838599D01*
X72367132Y-118818893D01*
X72354520Y-118797850D01*
X72344030Y-118775671D01*
X72335765Y-118752572D01*
X72329804Y-118728773D01*
X72326204Y-118704505D01*
X72325000Y-118680001D01*
X72325000Y-118029999D01*
X72326204Y-118005495D01*
X72329804Y-117981227D01*
X72335765Y-117957428D01*
X72344030Y-117934329D01*
X72354520Y-117912150D01*
X72367132Y-117891107D01*
X72381747Y-117871401D01*
X72398223Y-117853223D01*
X72416401Y-117836747D01*
X72436107Y-117822132D01*
X72457150Y-117809520D01*
X72479329Y-117799030D01*
X72502428Y-117790765D01*
X72526227Y-117784804D01*
X72550495Y-117781204D01*
X72574999Y-117780000D01*
X73475001Y-117780000D01*
X73499505Y-117781204D01*
G37*
G36*
X73499505Y-119831204D02*
G01*
X73523773Y-119834804D01*
X73547572Y-119840765D01*
X73570671Y-119849030D01*
X73592850Y-119859520D01*
X73613893Y-119872132D01*
X73633599Y-119886747D01*
X73651777Y-119903223D01*
X73668253Y-119921401D01*
X73682868Y-119941107D01*
X73695480Y-119962150D01*
X73705970Y-119984329D01*
X73714235Y-120007428D01*
X73720196Y-120031227D01*
X73723796Y-120055495D01*
X73725000Y-120079999D01*
X73725000Y-120730001D01*
X73723796Y-120754505D01*
X73720196Y-120778773D01*
X73714235Y-120802572D01*
X73705970Y-120825671D01*
X73695480Y-120847850D01*
X73682868Y-120868893D01*
X73668253Y-120888599D01*
X73651777Y-120906777D01*
X73633599Y-120923253D01*
X73613893Y-120937868D01*
X73592850Y-120950480D01*
X73570671Y-120960970D01*
X73547572Y-120969235D01*
X73523773Y-120975196D01*
X73499505Y-120978796D01*
X73475001Y-120980000D01*
X72574999Y-120980000D01*
X72550495Y-120978796D01*
X72526227Y-120975196D01*
X72502428Y-120969235D01*
X72479329Y-120960970D01*
X72457150Y-120950480D01*
X72436107Y-120937868D01*
X72416401Y-120923253D01*
X72398223Y-120906777D01*
X72381747Y-120888599D01*
X72367132Y-120868893D01*
X72354520Y-120847850D01*
X72344030Y-120825671D01*
X72335765Y-120802572D01*
X72329804Y-120778773D01*
X72326204Y-120754505D01*
X72325000Y-120730001D01*
X72325000Y-120079999D01*
X72326204Y-120055495D01*
X72329804Y-120031227D01*
X72335765Y-120007428D01*
X72344030Y-119984329D01*
X72354520Y-119962150D01*
X72367132Y-119941107D01*
X72381747Y-119921401D01*
X72398223Y-119903223D01*
X72416401Y-119886747D01*
X72436107Y-119872132D01*
X72457150Y-119859520D01*
X72479329Y-119849030D01*
X72502428Y-119840765D01*
X72526227Y-119834804D01*
X72550495Y-119831204D01*
X72574999Y-119830000D01*
X73475001Y-119830000D01*
X73499505Y-119831204D01*
G37*
G36*
X76039505Y-119831204D02*
G01*
X76063773Y-119834804D01*
X76087572Y-119840765D01*
X76110671Y-119849030D01*
X76132850Y-119859520D01*
X76153893Y-119872132D01*
X76173599Y-119886747D01*
X76191777Y-119903223D01*
X76208253Y-119921401D01*
X76222868Y-119941107D01*
X76235480Y-119962150D01*
X76245970Y-119984329D01*
X76254235Y-120007428D01*
X76260196Y-120031227D01*
X76263796Y-120055495D01*
X76265000Y-120079999D01*
X76265000Y-120730001D01*
X76263796Y-120754505D01*
X76260196Y-120778773D01*
X76254235Y-120802572D01*
X76245970Y-120825671D01*
X76235480Y-120847850D01*
X76222868Y-120868893D01*
X76208253Y-120888599D01*
X76191777Y-120906777D01*
X76173599Y-120923253D01*
X76153893Y-120937868D01*
X76132850Y-120950480D01*
X76110671Y-120960970D01*
X76087572Y-120969235D01*
X76063773Y-120975196D01*
X76039505Y-120978796D01*
X76015001Y-120980000D01*
X75114999Y-120980000D01*
X75090495Y-120978796D01*
X75066227Y-120975196D01*
X75042428Y-120969235D01*
X75019329Y-120960970D01*
X74997150Y-120950480D01*
X74976107Y-120937868D01*
X74956401Y-120923253D01*
X74938223Y-120906777D01*
X74921747Y-120888599D01*
X74907132Y-120868893D01*
X74894520Y-120847850D01*
X74884030Y-120825671D01*
X74875765Y-120802572D01*
X74869804Y-120778773D01*
X74866204Y-120754505D01*
X74865000Y-120730001D01*
X74865000Y-120079999D01*
X74866204Y-120055495D01*
X74869804Y-120031227D01*
X74875765Y-120007428D01*
X74884030Y-119984329D01*
X74894520Y-119962150D01*
X74907132Y-119941107D01*
X74921747Y-119921401D01*
X74938223Y-119903223D01*
X74956401Y-119886747D01*
X74976107Y-119872132D01*
X74997150Y-119859520D01*
X75019329Y-119849030D01*
X75042428Y-119840765D01*
X75066227Y-119834804D01*
X75090495Y-119831204D01*
X75114999Y-119830000D01*
X76015001Y-119830000D01*
X76039505Y-119831204D01*
G37*
G36*
X76039505Y-117781204D02*
G01*
X76063773Y-117784804D01*
X76087572Y-117790765D01*
X76110671Y-117799030D01*
X76132850Y-117809520D01*
X76153893Y-117822132D01*
X76173599Y-117836747D01*
X76191777Y-117853223D01*
X76208253Y-117871401D01*
X76222868Y-117891107D01*
X76235480Y-117912150D01*
X76245970Y-117934329D01*
X76254235Y-117957428D01*
X76260196Y-117981227D01*
X76263796Y-118005495D01*
X76265000Y-118029999D01*
X76265000Y-118680001D01*
X76263796Y-118704505D01*
X76260196Y-118728773D01*
X76254235Y-118752572D01*
X76245970Y-118775671D01*
X76235480Y-118797850D01*
X76222868Y-118818893D01*
X76208253Y-118838599D01*
X76191777Y-118856777D01*
X76173599Y-118873253D01*
X76153893Y-118887868D01*
X76132850Y-118900480D01*
X76110671Y-118910970D01*
X76087572Y-118919235D01*
X76063773Y-118925196D01*
X76039505Y-118928796D01*
X76015001Y-118930000D01*
X75114999Y-118930000D01*
X75090495Y-118928796D01*
X75066227Y-118925196D01*
X75042428Y-118919235D01*
X75019329Y-118910970D01*
X74997150Y-118900480D01*
X74976107Y-118887868D01*
X74956401Y-118873253D01*
X74938223Y-118856777D01*
X74921747Y-118838599D01*
X74907132Y-118818893D01*
X74894520Y-118797850D01*
X74884030Y-118775671D01*
X74875765Y-118752572D01*
X74869804Y-118728773D01*
X74866204Y-118704505D01*
X74865000Y-118680001D01*
X74865000Y-118029999D01*
X74866204Y-118005495D01*
X74869804Y-117981227D01*
X74875765Y-117957428D01*
X74884030Y-117934329D01*
X74894520Y-117912150D01*
X74907132Y-117891107D01*
X74921747Y-117871401D01*
X74938223Y-117853223D01*
X74956401Y-117836747D01*
X74976107Y-117822132D01*
X74997150Y-117809520D01*
X75019329Y-117799030D01*
X75042428Y-117790765D01*
X75066227Y-117784804D01*
X75090495Y-117781204D01*
X75114999Y-117780000D01*
X76015001Y-117780000D01*
X76039505Y-117781204D01*
G37*
M02*
